<svg xmlns="http://www.w3.org/2000/svg" fill="none" viewBox="0 0 28 28"><path fill="#8D8D8D" d="M17.257 21.568c.278.005.55-.067.78-.207.229-.14.404-.341.5-.575.098-.234.11-.488.039-.73a1.195 1.195 0 00-.44-.613l-7.159-6.288 7.159-6.285c.148-.098.272-.222.364-.365a1.083 1.083 0 00.121-.953 1.171 1.171 0 00-.263-.43 1.327 1.327 0 00-.432-.299 1.457 1.457 0 00-1.067-.037c-.171.06-.327.152-.457.268l-8.342 7.19a1.222 1.222 0 00-.345.41 1.099 1.099 0 000 1.005c.08.157.199.297.345.41l8.342 7.196c.237.19.54.296.855.303z"/><path fill="#8D8D8D" fill-rule="evenodd" d="M17.247 22.064a1.93 1.93 0 01-1.162-.413l-.008-.006-8.339-7.194a1.718 1.718 0 01-.473-.568 1.589 1.589 0 010-1.453c.113-.22.276-.413.473-.568l8.329-7.178c.18-.16.392-.284.622-.365a1.982 1.982 0 011.44.05c.225.098.429.238.597.414.167.175.295.383.373.61a1.572 1.572 0 01-.174 1.378 1.749 1.749 0 01-.478.49l-6.713 5.894 6.723 5.905c.287.218.5.515.602.857.105.349.085.719-.054 1.056a1.727 1.727 0 01-.703.81 1.956 1.956 0 01-1.055.28zm.889-2.621l-7.159-6.288 7.159-6.285c.148-.098.272-.222.364-.365a1.083 1.083 0 00.121-.953 1.171 1.171 0 00-.263-.43 1.327 1.327 0 00-.432-.299 1.457 1.457 0 00-1.067-.037c-.171.06-.327.152-.457.268l-8.342 7.19a1.222 1.222 0 00-.345.41 1.099 1.099 0 000 1.005c.08.157.199.297.345.41l8.342 7.196a1.452 1.452 0 001.635.096c.229-.14.404-.341.5-.575.098-.234.11-.488.039-.73a1.195 1.195 0 00-.44-.613z" clip-rule="evenodd"/></svg>