<svg xmlns="http://www.w3.org/2000/svg" fill="none" viewBox="0 0 34 34"><path fill="#fff" fill-rule="evenodd" d="M30.43 7.38l-9.617 9.323c-2.098 2.028-5.526 2.03-7.626 0L3.57 7.38a.208.208 0 01.03-.324A6.167 6.167 0 017.06 6h19.88c1.286 0 2.48.393 3.46 1.056.113.076.127.23.03.324zM33 11.871c0-.98-.25-1.905-.692-2.718a.222.222 0 00-.35-.051l-9.494 9.2c-3.007 2.918-7.919 2.92-10.927 0l-9.496-9.2a.222.222 0 00-.349.05A5.683 5.683 0 001 11.873v12.256C1 27.368 3.72 30 7.06 30h19.88c3.34 0 6.06-2.631 6.06-5.872V11.871z" clip-rule="evenodd"/></svg>