<svg xmlns="http://www.w3.org/2000/svg" fill="none" viewBox="0 0 28 28"><path fill="#8D8D8D" d="M10.743 6.432a1.445 1.445 0 00-.78.207c-.229.14-.404.341-.5.575-.098.234-.11.488-.039.73.072.24.226.454.44.613l7.159 6.288-7.159 6.285a1.254 1.254 0 00-.364.365 1.083 1.083 0 00-.121.953c.053.158.143.304.263.43.12.125.267.227.432.299a1.457 1.457 0 001.067.037c.171-.06.327-.152.457-.268l8.342-7.19a1.24 1.24 0 00.345-.41 1.098 1.098 0 000-1.005 1.221 1.221 0 00-.345-.41l-8.342-7.197a1.421 1.421 0 00-.855-.302z"/><path fill="#8D8D8D" fill-rule="evenodd" d="M10.753 5.936a1.93 1.93 0 011.162.413l.008.006 8.339 7.194c.197.155.36.348.473.568a1.589 1.589 0 010 1.453 1.716 1.716 0 01-.473.568l-8.329 7.178c-.18.16-.392.284-.622.365a1.98 1.98 0 01-1.44-.05 1.832 1.832 0 01-.597-.414 1.665 1.665 0 01-.373-.61 1.573 1.573 0 01.173-1.378 1.75 1.75 0 01.478-.49l6.714-5.894L9.543 8.94a1.688 1.688 0 01-.602-.857 1.571 1.571 0 01.054-1.056 1.74 1.74 0 01.703-.81 1.955 1.955 0 011.055-.28zm-.889 2.621l7.159 6.288-7.159 6.285a1.254 1.254 0 00-.364.365 1.083 1.083 0 00-.121.953c.053.158.143.304.263.43.12.125.267.227.432.299a1.457 1.457 0 001.067.037c.171-.06.327-.152.457-.268l8.342-7.19a1.24 1.24 0 00.345-.41 1.098 1.098 0 000-1.005 1.221 1.221 0 00-.345-.41l-8.342-7.197a1.421 1.421 0 00-.855-.302 1.445 1.445 0 00-.78.207c-.229.14-.404.341-.5.575-.098.234-.11.488-.039.73.072.24.226.454.44.613z" clip-rule="evenodd"/></svg>