<svg xmlns="http://www.w3.org/2000/svg" fill="none" viewBox="0 0 30 31"><path fill="#FF97A5" d="M15.041 12.288h.082L20.621.46a.797.797 0 01.723-.46h7.27c.615 0 .998.666.689 1.198l-7.276 12.5h4.094c.44 0 .797.357.797.797v2.838c0 .44-.357.797-.797.797h-6.683l-.246.403v2.014h6.929c.44 0 .797.357.797.797v2.838c0 .44-.357.797-.797.797h-6.93v5.224c0 .44-.356.797-.796.797h-6.79a.797.797 0 01-.797-.797V24.98H3.88a.797.797 0 01-.797-.797v-2.838c0-.44.357-.797.797-.797h6.93v-2.014l-.247-.403H3.879a.797.797 0 01-.797-.797v-2.838c0-.44.357-.797.797-.797h4.094L.697 1.198A.797.797 0 011.386 0H8.82c.31 0 .592.18.723.46l5.498 11.828z"/></svg>