<svg xmlns="http://www.w3.org/2000/svg" fill="none" viewBox="0 0 24 24"><path fill="#fff" d="M13.875 2.4c-4.268 0-7.725 3.473-7.725 7.756a7.741 7.741 0 001.108 4.003l-3.746 3.76.013.013c-.4.385-.645.93-.645 1.546 0 1.191.944 2.122 2.13 2.122a2.13 2.13 0 001.532-.639l.01.01 3.864-3.88a7.668 7.668 0 003.46.82c4.267 0 7.724-3.472 7.724-7.755 0-4.283-3.457-7.756-7.725-7.756zm.047 12.462c-2.668 0-4.828-2.17-4.828-4.848 0-2.676 2.16-4.847 4.828-4.847 2.667 0 4.828 2.17 4.828 4.848 0 2.677-2.16 4.847-4.828 4.847z"/></svg>