<svg xmlns="http://www.w3.org/2000/svg" fill="none" viewBox="0 0 22 22"><path fill="#fff" d="M16.946 8.44a1.136 1.136 0 00-.163-.611.966.966 0 00-.451-.394.853.853 0 00-.573-.03.938.938 0 00-.482.346l-4.94 5.624-4.94-5.624a.985.985 0 00-.286-.287.852.852 0 00-.75-.095.92.92 0 00-.336.207 1.03 1.03 0 00-.235.34 1.145 1.145 0 00.181 1.196l5.65 6.555a.96.96 0 00.321.272.864.864 0 00.79 0 .96.96 0 00.322-.272l5.655-6.555c.148-.185.232-.423.237-.671z"/><path fill="#fff" fill-rule="evenodd" d="M17.336 8.449c-.007.332-.12.656-.325.913l-.004.006-5.653 6.552a1.348 1.348 0 01-.446.372 1.248 1.248 0 01-1.141 0 1.35 1.35 0 01-.447-.372L3.68 9.376a1.464 1.464 0 01-.286-.489 1.557 1.557 0 01.04-1.132c.076-.176.186-.336.324-.468s.301-.232.48-.293a1.235 1.235 0 011.082.136c.151.098.282.226.385.376l4.631 5.274 4.64-5.282c.171-.225.405-.393.673-.473.274-.082.565-.067.83.043.264.109.485.304.636.552.15.247.226.537.22.829zm-2.06-.698l-4.94 5.624-4.938-5.624a.985.985 0 00-.287-.287.852.852 0 00-.75-.095.92.92 0 00-.336.207 1.03 1.03 0 00-.235.34 1.145 1.145 0 00.181 1.196l5.65 6.555a.96.96 0 00.321.272.864.864 0 00.79 0 .96.96 0 00.322-.272l5.655-6.555c.148-.185.232-.423.237-.671a1.136 1.136 0 00-.163-.612.966.966 0 00-.451-.394.853.853 0 00-.573-.03.938.938 0 00-.482.346z" clip-rule="evenodd"/></svg>