<svg xmlns="http://www.w3.org/2000/svg" fill="none" viewBox="0 0 20 20"><path fill="#36B1BF" d="M17.55 6.935l-7.79 8.377c-.576.62-1.512.62-2.09 0l-4.02-4.324a1.675 1.675 0 010-2.248 1.405 1.405 0 012.09 0l2.976 3.201 6.744-7.253a1.406 1.406 0 012.09 0c.577.62.577 1.626 0 2.247z"/><path fill="#36B1BF" fill-rule="evenodd" d="M17.708 7.088l-7.79 8.378a1.62 1.62 0 01-2.404 0L3.493 11.14a1.901 1.901 0 010-2.554 1.62 1.62 0 012.404 0l2.82 3.032 6.586-7.085.157.154-6.744 7.253-2.976-3.2a1.405 1.405 0 00-2.09 0 1.675 1.675 0 000 2.248l4.021 4.324c.577.62 1.513.62 2.09 0l7.79-8.377a1.676 1.676 0 000-2.247 1.406 1.406 0 00-2.09 0l-.158-.154a1.62 1.62 0 012.405 0 1.902 1.902 0 010 2.554z" clip-rule="evenodd"/></svg>