<svg xmlns="http://www.w3.org/2000/svg" fill="none" viewBox="0 0 24 24"><path fill="#fff" d="M21.605 6.711c-.369.363-.727.715-.737 1.067-.033.341.336.693.683 1.024.52.533 1.03 1.013 1.008 1.536-.022.522-.575 1.066-1.128 1.6l-3.722 3.67a1.078 1.078 0 11-1.512-1.539l3.486-3.42a.466.466 0 000-.666l-.377-.37a.466.466 0 00-.652-.001l-.886.865a.466.466 0 01-.653-.001L13.713 7.13a.466.466 0 010-.666l3.825-3.752c.423-.416 1.128-.416 1.53 0l2.537 2.496c.423.394.423 1.087 0 1.503zM2.4 17.796c0-.125.05-.245.139-.332l9.901-9.748a.466.466 0 01.654 0l3.402 3.345a.466.466 0 010 .665l-9.893 9.74a.466.466 0 01-.328.134H2.866a.466.466 0 01-.466-.466v-3.338z"/></svg>