<svg xmlns="http://www.w3.org/2000/svg" fill="none" viewBox="0 0 40 25"><path fill="#F53966" d="M0 0v3.898c3.149.004 6.076.58 8.604 1.532.473.178.933.37 1.378.573a22.48 22.48 0 013.256-1.189A25.053 25.053 0 0120 3.898c3.163 0 6.103.577 8.64 1.532.474.178.934.37 1.378.573a22.496 22.496 0 013.257-1.189A25.065 25.065 0 0140 3.898V0H0zm25.046 14.781c0 .985.312 1.889.848 2.647a4.947 4.947 0 002.19 1.717 5.14 5.14 0 001.934.372 5.119 5.119 0 002.78-.808 4.82 4.82 0 001.803-2.085c.25-.566.39-1.186.39-1.843 0-.47-.103-.968-.32-1.489a6.5 6.5 0 00-.99-1.607c-.843-1.033-2.096-2.052-3.663-2.908-1.201.658-2.22 1.408-3.009 2.19-.84.831-1.416 1.694-1.712 2.497-.17.46-.251.9-.251 1.317z"/><path fill="#F53966" d="M34.886 9.265c1.042 1.035 1.834 2.17 2.285 3.382.256.692.398 1.41.398 2.134a6.925 6.925 0 01-1.29 4.021 7.502 7.502 0 01-3.321 2.605 7.86 7.86 0 01-2.94.566 7.79 7.79 0 01-4.222-1.23 7.303 7.303 0 01-2.734-3.162 6.876 6.876 0 01-.594-2.8c0-1.087.319-2.155.866-3.153.548-1 1.324-1.939 2.28-2.8a15.568 15.568 0 011.635-1.274c-.395-.138-.8-.267-1.216-.384A22.38 22.38 0 0020 6.354c-2.647-.002-5.114.453-7.25 1.2a15 15 0 012.099 1.71c1.042 1.036 1.835 2.171 2.285 3.383.256.692.398 1.41.398 2.134a6.928 6.928 0 01-1.29 4.021 7.505 7.505 0 01-3.32 2.605 7.856 7.856 0 01-2.94.566 7.79 7.79 0 01-4.223-1.23 7.302 7.302 0 01-2.734-3.162 6.877 6.877 0 01-.594-2.8c0-1.087.319-2.155.865-3.153.549-1 1.325-1.939 2.282-2.8a15.522 15.522 0 011.634-1.274c-.395-.138-.8-.267-1.216-.384A22.39 22.39 0 000 6.354V25h40V6.354c-2.633.003-5.087.456-7.213 1.2.78.53 1.484 1.104 2.098 1.71z"/><path fill="#F53966" d="M5.01 14.781c0 .985.311 1.889.848 2.647a4.946 4.946 0 002.189 1.717c.594.24 1.244.372 1.935.372a5.12 5.12 0 002.779-.808 4.818 4.818 0 001.803-2.085c.25-.566.39-1.186.39-1.843 0-.47-.103-.968-.32-1.489a6.52 6.52 0 00-.989-1.607c-.843-1.033-2.097-2.052-3.664-2.908-1.201.658-2.22 1.408-3.008 2.19-.84.831-1.416 1.694-1.712 2.497-.17.46-.252.9-.252 1.317z"/></svg>