<svg width="300" height="210" viewBox="0 0 300 210" fill="none" xmlns="http://www.w3.org/2000/svg">
<path d="M221.258 147.432C218.134 147.432 215.011 147.432 211.887 147.432C207.378 147.432 202.868 147.432 198.359 147.432C192.88 147.432 187.401 147.432 181.921 147.432C175.806 147.432 169.69 147.432 163.574 147.432C157.25 147.432 150.927 147.432 144.603 147.432C138.398 147.432 132.192 147.432 125.987 147.432C120.33 147.432 114.673 147.432 109.016 147.432C104.239 147.432 99.4612 147.432 94.6841 147.432C91.2042 147.432 87.7249 147.432 84.2449 147.432C82.4164 147.432 80.5885 147.432 78.7599 147.432C78.6063 147.432 78.4533 147.432 78.2997 147.432C76.5682 147.432 76.5654 150.132 78.2997 150.132C79.6647 150.132 81.0296 150.132 82.394 150.132C85.5191 150.132 88.6442 150.132 91.7693 150.132C96.2509 150.132 100.732 150.132 105.214 150.132C110.71 150.132 116.206 150.132 121.702 150.132C127.789 150.132 133.876 150.132 139.963 150.132C146.313 150.132 152.663 150.132 159.013 150.132C165.195 150.132 171.376 150.132 177.558 150.132C183.244 150.132 188.931 150.132 194.617 150.132C199.382 150.132 204.148 150.132 208.913 150.132C212.407 150.132 215.901 150.132 219.395 150.132C220.016 150.132 220.637 150.132 221.258 150.132C222.989 150.132 222.992 147.432 221.258 147.432H221.258Z" fill="#1A5E9D"/>
<path d="M161.087 93.4858L161.287 93.5387C159.575 100.193 157.628 106.909 155.587 113.204C153.326 120.173 152.582 122.543 149.686 129.709H148.751C145.856 122.543 145.111 120.174 142.85 113.204C140.803 106.909 138.862 100.192 137.15 93.5387L137.345 93.4858C141.028 95.2044 145.116 95.9801 149.213 95.8699C153.315 95.9801 157.404 95.2044 161.087 93.4858Z" fill="white"/>
<path d="M181.598 58.7823C182.173 62.1603 181.701 66.3281 179.581 70.0835C176.711 75.1677 171.703 78.108 164.763 77.7896H160.86L137.223 77.3644H133.293C125.964 76.4874 121.104 74.1225 118.503 69.1801C116.233 64.8638 116.318 59.9664 117.143 55.0932C118.103 49.7002 119.314 43.208 120.539 37.8719C122.414 29.7073 124.057 25.3803 128.056 21.0454C131.626 17.5633 139.108 13.3472 148.148 13.3472C153.662 13.3472 157.544 14.3687 161.271 15.9078L161.948 16.2982C161.948 16.2982 163.198 17.0194 165.046 18.0848C169.921 20.34 173.093 25.2464 174.623 28.4241C176.665 32.6741 177.183 38.9677 178.212 43.878C179.436 49.707 180.716 53.6964 181.598 58.6073V58.7823Z" fill="#1A5E9D"/>
<path d="M139.978 79.4383C140.003 78.9861 140.01 78.657 140.014 78.3352C137.35 77.101 134.892 75.045 132.744 72.4652C130.218 69.4303 128.733 66.1716 127.883 63.4174C126.763 63.6773 125.564 63.2554 124.763 62.5973C122.914 61.079 122.147 58.9616 121.679 57.5778C121.018 55.6236 120.976 52.4649 121.961 50.7509C122.291 50.1766 123.057 49.1989 124.859 49.1348C125.862 49.0993 127.07 49.488 127.791 50.5557C128.004 50.4865 128.127 50.446 128.127 50.446L130.639 49.6219C135.088 48.1745 138.54 47.0871 143.466 44.5996C152.504 40.0352 155.22 38.1688 160.222 33.731C163.862 38.3043 167.646 44.3043 169.904 48.9356C169.904 48.9356 170.4 50.0202 170.662 50.5928C171.379 49.4965 172.602 49.0988 173.616 49.1342C175.418 49.1978 176.184 50.176 176.514 50.7503C177.499 52.4644 177.458 55.623 176.796 57.5772C176.328 58.9611 175.561 61.0784 173.712 62.5967C172.95 63.2222 171.829 63.6346 170.757 63.4529L170.553 63.4186C170.203 64.4435 169.765 65.3548 169.618 65.8048C168.866 67.8519 164.678 75.0832 159.401 77.7935C159.401 78.4741 159.4 78.9354 159.473 80.0014C159.52 80.6045 159.567 81.2547 159.79 81.842C160.085 82.6116 160.489 83.2827 161.132 83.8075C161.957 84.4747 162.8 84.9281 163.719 85.3325C163.118 87.9601 162.476 90.6051 161.796 93.2518C157.992 95.1335 153.723 95.9857 149.445 95.8704C144.986 95.9908 140.538 95.0598 136.615 93.0066C135.99 90.5618 135.397 88.1187 134.838 85.6897C136.11 85.1846 137.2 84.6738 138.282 83.8086C138.927 83.2799 139.331 82.6104 139.628 81.8398C139.852 81.2547 139.897 80.6022 139.942 80.0003C139.957 79.7916 139.968 79.6065 139.978 79.4378V79.4383Z" fill="white"/>
<path d="M145.052 70.2886C146.429 71.0182 147.911 71.3293 149.468 71.3192C151.083 71.3085 152.681 70.9755 153.969 69.9674C154.527 69.5314 154.46 68.5099 153.969 68.0582C153.378 67.5131 152.662 67.593 152.067 68.0582C152.522 67.7021 151.984 68.0925 151.836 68.1707C151.717 68.2331 151.399 68.3203 151.793 68.2044C151.669 68.241 151.549 68.2984 151.426 68.3383C151.09 68.4469 150.747 68.5161 150.4 68.5734C150.594 68.5414 150.505 68.5594 150.363 68.5734C150.262 68.5836 150.161 68.592 150.06 68.5982C149.817 68.6139 149.574 68.6201 149.33 68.6184C149.112 68.6173 148.895 68.6094 148.677 68.5948C148.577 68.5881 148.478 68.5802 148.378 68.5701C148.321 68.5644 147.956 68.4964 148.294 68.5628C147.971 68.4998 147.651 68.4441 147.335 68.349C147.2 68.3085 147.07 68.2601 146.937 68.2145C146.615 68.1043 147.188 68.3389 146.897 68.201C146.733 68.1234 146.571 68.0419 146.41 67.9569C145.788 67.6273 144.919 67.778 144.569 68.4412C144.24 69.0651 144.388 69.9365 145.052 70.2886Z" fill="#1A5E9D"/>
<path d="M148.68 59.984C148.868 60.7018 149.048 61.4303 149.155 62.165L149.107 61.8061C149.12 61.9068 149.125 62.0058 149.115 62.107L149.163 61.7481C149.156 61.7948 149.146 61.8387 149.13 61.8837L149.266 61.5614C149.252 61.5929 149.237 61.6199 149.218 61.6486L149.428 61.3752C149.406 61.4022 149.385 61.4235 149.357 61.4455L149.63 61.2345C149.575 61.27 149.517 61.2987 149.458 61.3262L149.779 61.1901C149.684 61.23 149.59 61.2587 149.488 61.275L149.846 61.2267C149.755 61.2373 149.665 61.2368 149.574 61.2267L149.931 61.275C149.829 61.2604 149.728 61.2357 149.625 61.2216C149.446 61.1653 149.268 61.1575 149.089 61.1974C148.91 61.2053 148.743 61.2587 148.589 61.3577C148.31 61.5214 148.043 61.8426 147.97 62.1644C147.892 62.5098 147.909 62.8979 148.106 63.2045C148.281 63.4768 148.574 63.7794 148.91 63.825C149.164 63.8593 149.411 63.9234 149.67 63.9352C150.077 63.9532 150.452 63.8261 150.815 63.6579C151.269 63.4481 151.624 63.0262 151.745 62.5368C151.847 62.1205 151.805 61.7729 151.734 61.3555C151.616 60.6529 151.454 59.9565 151.274 59.2674C151.189 58.9417 150.944 58.63 150.656 58.4607C150.367 58.2914 149.942 58.2194 149.619 58.3246C148.918 58.5518 148.488 59.2533 148.68 59.9852L148.68 59.984Z" fill="#1A5E9D"/>
<path d="M137.412 53.7466C137.049 54.9302 137.286 57.6529 139.52 57.8846C142.473 57.8666 142.629 54.5753 141.636 53.0277C140.822 51.7603 138.429 51.2333 137.412 53.7466Z" fill="#1A5E9D"/>
<path d="M161.058 53.746C161.421 54.9296 161.184 57.6522 158.95 57.8834C155.997 57.8654 155.839 54.5741 156.834 53.0265C157.648 51.7597 160.041 51.2326 161.058 53.746Z" fill="#1A5E9D"/>
<path d="M115.848 54.7345C114.823 60.883 114.961 67.5524 119.168 72.5471C122.544 76.554 127.849 78.0143 132.835 78.6573C134.272 78.843 135.777 78.7147 137.225 78.7147C138.956 78.7147 138.959 76.0145 137.225 76.0145C135.985 76.0145 134.742 76.0421 133.503 76.0145C132.56 75.9937 131.599 75.7794 130.677 75.5955C129.458 75.3524 128.252 75.0414 127.078 74.6285C122.815 73.1271 119.737 70.0225 118.547 65.6027C117.657 62.2978 117.885 58.7932 118.442 55.4518C118.562 54.7334 118.254 53.9982 117.502 53.7912C116.858 53.6134 115.968 54.0111 115.848 54.734L115.848 54.7345Z" fill="#1A5E9D"/>
<path d="M162.63 15.1322C160.896 14.132 158.883 13.5199 156.95 13.0294C154.421 12.387 151.804 12.0726 149.198 12.0095C143.785 11.8785 138.433 13.0986 133.604 15.5557C131.682 16.5334 129.865 17.7153 128.208 19.0991C126.73 20.3345 125.506 21.8645 124.437 23.4644C121.962 27.1686 120.685 31.53 119.644 35.8204C118.127 42.0679 116.975 48.4065 115.849 54.7344C115.721 55.4516 116.043 56.1897 116.788 56.395C117.439 56.5744 118.314 56.1739 118.443 55.4522C119.406 50.0378 120.408 44.6263 121.606 39.2586C122.571 34.9366 123.571 30.455 125.719 26.5431C126.597 24.945 127.646 23.4604 128.888 22.1323C130.102 20.8334 131.564 19.8417 133.088 18.9247C137.173 16.4659 141.884 14.9797 146.645 14.7356C149.545 14.5871 152.494 14.7896 155.332 15.4179C156.544 15.6863 157.738 16.0316 158.91 16.4412C159.463 16.6347 160.01 16.8456 160.555 17.0611C160.935 17.2113 160.69 17.1246 160.618 17.0858C160.705 17.1336 160.791 17.1854 160.877 17.2355L161.271 17.4633C162.775 18.3307 164.132 15.999 162.63 15.1322Z" fill="#1A5E9D"/>
<path d="M180.301 59.1407C181.077 63.8936 179.48 69.1082 176.079 72.5222C174.663 73.9438 172.93 75.0216 171.028 75.6539C168.955 76.343 166.874 76.4763 164.706 76.4392C163.425 76.4172 162.142 76.4392 160.86 76.4392C159.129 76.4392 159.126 79.1393 160.86 79.1393C164.434 79.1393 168.108 79.4178 171.562 78.3169C176.482 76.7485 180.12 72.9346 181.958 68.1491C183.146 65.0597 183.428 61.68 182.896 58.423C182.778 57.7029 181.888 57.3018 181.241 57.4802C180.479 57.6905 180.184 58.4185 180.302 59.1407H180.301Z" fill="#1A5E9D"/>
<path d="M165.887 20.0664C170.037 22.6653 173.131 27.2556 174.498 31.928C175.319 34.7339 175.754 37.6399 176.236 40.5184C176.742 43.533 177.391 46.5099 178.122 49.4778C178.898 52.6297 179.721 55.7692 180.301 58.9655C180.431 59.6833 181.3 60.0894 181.956 59.9083C182.708 59.7007 183.026 58.9672 182.896 58.2477C181.805 52.2348 179.95 46.3957 178.926 40.3659C178.423 37.4076 177.994 34.4222 177.183 31.5286C176.486 29.0422 175.399 26.7172 173.983 24.5639C172.208 21.8665 169.991 19.4544 167.244 17.7347C165.771 16.8122 164.419 19.1472 165.886 20.0664H165.887Z" fill="#1A5E9D"/>
<path d="M169.703 61.2259C169.569 62.2126 169.246 63.1503 168.875 64.07C168.734 64.4182 168.582 64.7625 168.444 65.1118C168.394 65.2395 168.145 65.8623 168.323 65.4527C167.91 66.4028 167.399 67.3108 166.859 68.1934C165.284 70.7681 163.372 73.1875 161.037 75.1097C159.764 76.1571 158.328 76.9728 156.742 77.343C155.056 77.7367 155.77 80.3407 157.457 79.9469C160.825 79.1605 163.635 76.7118 165.841 74.1461C167.664 72.0248 169.359 69.6413 170.527 67.0846C171.264 65.4702 172.059 63.7061 172.297 61.9425C172.395 61.2208 172.124 60.4929 171.358 60.2819C170.73 60.1092 169.801 60.4974 169.703 61.2247V61.2259Z" fill="#1A5E9D"/>
<path d="M126.07 61.8564C127.1 66.2964 129.197 70.4423 132.183 73.8794C135.113 77.2534 139.007 80.1207 143.509 80.7985C144.227 80.9065 144.955 80.6179 145.164 79.8557C145.338 79.2184 144.947 78.3037 144.224 78.1951C140.125 77.578 136.753 75.0416 134.085 71.9701C131.402 68.8802 129.588 65.1191 128.664 61.1386C128.272 59.4471 125.677 60.1632 126.07 61.8564Z" fill="#1A5E9D"/>
<path d="M128.324 49.1039C126.776 47.7178 124.556 47.3949 122.676 48.3017C121.316 48.9576 120.509 50.288 120.155 51.7196C119.347 54.9834 120.158 58.7153 122.007 61.4959C123.275 63.4034 125.281 65.1208 127.718 64.8036C128.438 64.7096 129.064 64.25 129.064 63.4535C129.064 62.797 128.444 62.0089 127.718 62.1034C125.921 62.3374 124.708 60.8844 123.912 59.4426C123.24 58.2264 122.721 56.8128 122.594 55.4228C122.467 54.0328 122.483 52.4341 123.254 51.2229C123.306 51.1481 123.292 51.1627 123.212 51.2674C123.252 51.2184 123.293 51.1706 123.336 51.125C123.37 51.0913 123.641 50.8376 123.538 50.9175C123.777 50.7335 124.043 50.6244 124.334 50.5546C125.062 50.3791 125.854 50.5051 126.422 51.0131C127.711 52.1669 129.62 50.2638 128.324 49.1039Z" fill="#1A5E9D"/>
<path d="M172.052 51.0132C172.62 50.5047 173.412 50.3804 174.141 50.5548C174.43 50.6234 174.7 50.7353 174.937 50.9176C174.862 50.8597 175.366 51.4312 175.191 51.1786C176.012 52.3622 176.006 54.0464 175.88 55.4229C175.756 56.7826 175.255 58.1602 174.609 59.3561C173.815 60.8272 172.589 62.3421 170.756 62.1035C170.034 62.0096 169.411 62.7915 169.411 63.4536C169.411 64.2614 170.033 64.7092 170.756 64.8037C174.733 65.3218 177.153 60.9897 178.147 57.7715C179.031 54.9088 179.023 50.4794 176.295 48.5859C174.424 47.2876 171.795 47.6307 170.15 49.104C168.855 50.2634 170.763 52.1676 172.052 51.0132Z" fill="#1A5E9D"/>
<path d="M135.608 86.8267C137.377 86.0881 139.251 85.1852 140.308 83.5016C141.278 81.9574 141.336 80.1028 141.36 78.3302C141.369 77.6237 140.734 76.9475 140.015 76.9801C139.278 77.0133 138.679 77.573 138.669 78.3302C138.661 78.9693 138.629 79.6072 138.578 80.2439C138.57 80.3469 138.561 80.4498 138.551 80.5528C138.54 80.6574 138.513 80.8273 138.545 80.6298C138.512 80.8369 138.471 81.0427 138.411 81.2436C138.387 81.3234 138.358 81.4022 138.33 81.481C138.209 81.8235 138.403 81.3544 138.308 81.535C138.219 81.7043 138.142 81.877 138.044 82.0418C138.005 82.1065 137.965 82.1706 137.923 82.2336C137.858 82.3326 137.781 82.426 137.9 82.2803C137.78 82.4288 137.649 82.5695 137.509 82.6994C137.451 82.7528 137.391 82.8023 137.331 82.8541C137.501 82.7061 137.291 82.8833 137.254 82.9098C137.09 83.0296 136.922 83.1444 136.751 83.2541C136.435 83.4571 136.107 83.6416 135.772 83.8121C135.596 83.9015 135.418 83.987 135.238 84.0692C135.165 84.1023 135.092 84.135 135.019 84.1676C134.998 84.1766 134.634 84.3307 134.893 84.2227C134.246 84.4928 133.71 85.129 133.953 85.8833C134.155 86.5077 134.912 87.117 135.608 86.8261L135.608 86.8267Z" fill="#1A5E9D"/>
<path d="M158.056 77.8121C158.056 79.5273 158.063 81.3167 158.786 82.8997C159.567 84.6126 161.209 85.6634 162.862 86.4189C163.501 86.7108 164.34 86.6236 164.703 85.9345C165.015 85.3422 164.905 84.4 164.221 84.0872C163.507 83.7609 162.816 83.3891 162.181 82.9256C162.127 82.8862 161.947 82.7382 162.083 82.853C162.009 82.79 161.935 82.7264 161.864 82.6589C161.74 82.5408 161.624 82.4142 161.515 82.2809C161.634 82.4272 161.559 82.3343 161.493 82.2348C161.452 82.1718 161.411 82.1082 161.373 82.0429C161.275 81.8781 161.198 81.706 161.11 81.5367C161.018 81.3617 161.171 81.7279 161.11 81.5378C161.076 81.4337 161.034 81.333 161.003 81.2278C160.946 81.0332 160.91 80.8346 160.875 80.6355C160.86 80.5382 160.861 80.5466 160.879 80.6608L160.865 80.5275C160.858 80.4392 160.848 80.3508 160.841 80.2625C160.823 80.042 160.808 79.8215 160.795 79.6004C160.759 79.0041 160.748 78.409 160.748 77.8121C160.748 77.1062 160.129 76.4294 159.403 76.4621C158.676 76.4947 158.057 77.0555 158.057 77.8121H158.056Z" fill="#1A5E9D"/>
<path d="M136.896 94.6495C140.894 96.4918 145.069 97.2129 149.446 97.2214C153.822 97.2298 158.006 96.4878 161.995 94.6495C162.656 94.3451 162.819 93.3877 162.478 92.8021C162.082 92.122 161.3 92.0123 160.637 92.3178C157.092 93.9519 153.317 94.5285 149.446 94.5212C145.574 94.5139 141.806 93.9553 138.254 92.3178C137.594 92.0135 136.806 92.1299 136.413 92.8021C136.074 93.3838 136.233 94.3435 136.896 94.6495Z" fill="#1A5E9D"/>
<path d="M171.945 62.6421C170.182 62.6421 168.964 63.8864 168.964 65.3422C168.964 66.9713 170.208 68.093 171.945 68.093C173.749 68.093 174.927 66.9606 174.927 65.3422C174.927 63.8763 173.702 62.6421 171.945 62.6421H171.945Z" fill="white"/>
<path d="M171.946 61.2927C170.1 61.3152 168.453 62.3492 167.818 64.1166C167.217 65.7913 167.947 67.6746 169.348 68.6776C170.726 69.6638 172.74 69.6671 174.211 68.9004C175.786 68.0791 176.481 66.2751 176.193 64.574C175.85 62.5522 173.88 61.3163 171.946 61.2927C171.242 61.2843 170.568 61.9194 170.601 62.6422C170.634 63.3808 171.192 63.9833 171.946 63.9923C172.036 63.9934 172.125 64.0008 172.214 64.0019C172.449 64.0058 172.146 64.0024 172.116 63.9822C172.206 64.0429 172.414 64.0384 172.525 64.0699C172.604 64.0919 172.68 64.1206 172.757 64.1453C172.972 64.2134 172.673 64.1211 172.657 64.1003C172.727 64.1858 172.963 64.2606 173.063 64.327C173.095 64.3484 173.31 64.4879 173.109 64.3563C172.918 64.2303 173.109 64.3636 173.144 64.3968C173.231 64.4772 173.305 64.5948 173.396 64.6668C173.175 64.4913 173.264 64.475 173.337 64.6004C173.367 64.6527 173.403 64.7028 173.432 64.7557C173.461 64.8074 173.483 64.8682 173.516 64.9171C173.56 65.0116 173.539 64.9599 173.453 64.7613C173.471 64.8069 173.487 64.8524 173.502 64.8986C173.537 65.0049 173.54 65.1607 173.592 65.2546C173.581 65.2366 173.564 64.8974 173.572 65.1168C173.575 65.1922 173.582 65.267 173.582 65.3424C173.582 65.3947 173.581 65.4476 173.578 65.4999C173.571 65.6366 173.492 65.7969 173.596 65.4465C173.558 65.5753 173.547 65.7131 173.507 65.8425C173.491 65.8965 173.457 65.9584 173.45 66.0129C173.484 65.744 173.562 65.7828 173.487 65.9184C173.431 66.0208 173.372 66.1204 173.312 66.2211C173.233 66.351 173.159 66.3066 173.376 66.1423C173.345 66.1659 173.313 66.216 173.284 66.2469C173.237 66.2981 173.187 66.3471 173.135 66.3943C173.011 66.5068 172.944 66.468 173.189 66.3611C173.084 66.4067 172.987 66.4967 172.884 66.5518C172.822 66.585 172.742 66.6092 172.685 66.6491C172.706 66.634 173.001 66.5366 172.796 66.5963C172.671 66.6328 172.548 66.675 172.421 66.7037C172.353 66.7189 172.243 66.7183 172.182 66.7482L172.375 66.7212C172.319 66.7273 172.262 66.7318 172.206 66.7352C172.062 66.7442 171.917 66.7459 171.773 66.7397C171.716 66.7375 171.66 66.7307 171.604 66.7285C171.305 66.7161 171.924 66.7926 171.635 66.733C171.505 66.7065 171.377 66.6784 171.25 66.6396C171.201 66.6244 171.153 66.6053 171.103 66.5906C170.878 66.5226 171.402 66.7425 171.079 66.576C170.969 66.5198 170.867 66.4523 170.763 66.3876C170.66 66.3229 170.698 66.2649 170.862 66.468C170.82 66.4157 170.751 66.3724 170.701 66.3246C170.65 66.2745 170.427 66.0011 170.569 66.1952C170.713 66.3921 170.572 66.1935 170.549 66.1581C170.51 66.0979 170.474 66.036 170.44 65.973C170.371 65.843 170.389 65.7142 170.454 66.0326C170.445 65.9887 170.418 65.9381 170.403 65.8948C170.363 65.7755 170.339 65.6535 170.31 65.5314C170.244 65.2574 170.325 65.8684 170.317 65.582C170.316 65.5291 170.311 65.4757 170.309 65.4228C170.307 65.3458 170.308 65.2687 170.312 65.1922C170.323 65.0054 170.402 65.0161 170.298 65.2569C170.352 65.1337 170.371 64.9632 170.41 64.8333C170.472 64.6308 170.372 64.9368 170.357 64.9537C170.414 64.889 170.447 64.772 170.493 64.6966C170.518 64.655 170.546 64.6156 170.571 64.574C170.699 64.363 170.344 64.8097 170.563 64.5869C170.644 64.5048 170.802 64.399 170.855 64.3011L170.701 64.4181C170.742 64.3878 170.783 64.358 170.825 64.3298C170.889 64.2871 170.955 64.2466 171.022 64.2089C171.077 64.1779 171.144 64.1549 171.195 64.1189C171.288 64.075 171.242 64.0941 171.055 64.1751C171.105 64.1554 171.155 64.1363 171.206 64.1194C171.364 64.0654 171.526 64.0311 171.689 63.9962C171.886 63.9541 171.625 64.0548 171.588 64.0092C171.605 64.0306 171.904 63.9923 171.945 63.9918C172.648 63.9833 173.323 63.3769 173.29 62.6417C173.257 61.9177 172.699 61.2826 171.945 61.2916L171.946 61.2927Z" fill="#1A5E9D"/>
<path d="M112.526 154.696C109.305 154.696 106.533 153.855 104.807 152.943C102.958 151.966 101.566 150.309 100.351 148.572C98.6005 146.069 98.1509 142.687 98.5937 139.636C100.291 127.946 103.823 116.809 107.175 105.505C107.741 103.596 108.32 102.141 109.37 100.463L109.46 100.274C113.64 93.7309 121.385 90.5897 130.413 86.9884C131.957 85.6957 133.569 84.5413 134.787 83.7583C136.959 93.4378 139.797 103.788 142.851 113.2C145.114 120.173 145.859 122.54 148.753 129.708H149.687C152.582 122.54 153.327 120.173 155.589 113.2C158.643 103.788 161.481 93.4378 163.653 83.7583C164.793 84.4907 166.277 85.5477 167.727 86.7397C177.023 90.4468 185.029 93.5807 189.305 100.274L189.395 100.462C190.444 102.141 191.023 103.595 191.59 105.505C194.942 116.808 198.474 127.946 200.171 139.635C200.614 142.686 200.165 146.068 198.414 148.571C197.199 150.308 195.807 151.966 193.958 152.942C192.231 153.854 189.46 154.695 186.239 154.695L112.526 154.696Z" fill="#7ABEE6"/>
<path d="M142.765 129.336C137.6 120.351 132.495 111.325 127.727 102.12C127.414 101.518 127.104 100.914 126.795 100.31C126.771 100.261 126.559 99.799 126.611 100.045C126.632 100.144 126.335 100.401 126.745 99.9593C126.988 99.6977 127.233 99.4384 127.482 99.1819C128.538 98.0894 129.638 97.0415 130.744 96.0002C131.374 95.4067 131.206 94.3008 130.472 93.88C129.806 93.4986 129.139 93.1167 128.473 92.7353C128.16 92.5558 127.847 92.3764 127.533 92.1964C127.376 92.1064 127.219 92.0169 127.062 91.9269C126.984 91.8819 126.905 91.8369 126.827 91.7925C126.655 91.6805 126.667 91.7081 126.862 91.874L127.046 92.5553C127.033 92.868 127.173 92.4084 127.243 92.2914C127.355 92.1041 127.477 91.9224 127.602 91.7435C127.848 91.3936 128.125 91.0685 128.409 90.7501C129.127 89.9462 129.912 89.202 130.722 88.4927C132.212 87.1881 133.802 85.999 135.465 84.9251L133.489 84.1184C136.317 96.6972 139.873 109.142 144.117 121.315C145.146 124.265 146.286 127.172 147.455 130.068C147.727 130.744 148.351 131.22 149.109 131.011C149.748 130.835 150.324 130.03 150.049 129.35C145.497 118.068 141.904 106.381 138.817 94.6169C137.84 90.8947 136.927 87.1555 136.083 83.4006C135.896 82.5715 134.815 82.1355 134.106 82.594C131.502 84.2759 128.96 86.2189 126.833 88.4853C126.312 89.0406 125.825 89.6262 125.377 90.2427C124.945 90.8373 124.403 91.5922 124.364 92.346C124.299 93.5892 125.37 94.0679 126.292 94.5961C127.233 95.135 128.173 95.6734 129.113 96.2123L128.841 94.0921C127.8 95.072 126.765 96.0581 125.765 97.0814C124.781 98.0894 123.607 99.1256 124.029 100.683C124.197 101.303 124.584 101.896 124.876 102.464C125.207 103.109 125.541 103.752 125.876 104.395C126.496 105.584 127.121 106.77 127.752 107.955C130.369 112.865 133.068 117.732 135.806 122.576C137.34 125.291 138.887 127.998 140.441 130.701C141.306 132.205 143.632 130.847 142.765 129.338L142.765 129.336Z" fill="#1A5E9D"/>
<path d="M157.999 130.7C163.48 121.164 168.901 111.583 173.911 101.786C174.298 101.029 174.668 100.275 174.437 99.4009C174.228 98.61 173.593 98.0362 173.048 97.4664C171.935 96.3036 170.77 95.1938 169.599 94.0912L169.327 96.2114C170.267 95.6725 171.207 95.1341 172.148 94.5952C173.069 94.0681 174.146 93.59 174.076 92.3451C174.035 91.6166 173.527 90.8915 173.113 90.3115C172.654 89.6691 172.148 89.0605 171.607 88.485C169.48 86.2186 166.937 84.2761 164.334 82.5936C163.625 82.1357 162.544 82.5717 162.357 83.4003C159.529 95.9791 155.973 108.424 151.729 120.597C150.7 123.546 149.56 126.454 148.391 129.35C148.118 130.026 148.688 130.834 149.331 131.011C150.1 131.223 150.712 130.746 150.986 130.068C155.537 118.786 159.13 107.099 162.217 95.3344C163.194 91.6121 164.108 87.873 164.952 84.1181L162.975 84.9247C164.637 85.9986 166.228 87.1878 167.718 88.4923C168.528 89.2017 169.312 89.9459 170.031 90.7498C170.316 91.0682 170.593 91.3933 170.839 91.7432C170.964 91.9215 171.085 92.1038 171.197 92.2911C171.267 92.4081 171.408 92.8677 171.394 92.5549L171.578 91.8737C171.69 91.6583 171.758 91.7269 171.495 91.8596C171.335 91.9406 171.181 92.0396 171.025 92.1291C170.672 92.331 170.32 92.533 169.967 92.7349C169.301 93.1163 168.635 93.4983 167.969 93.8797C167.234 94.3005 167.066 95.4064 167.696 95.9999C168.672 96.9185 169.643 97.8422 170.584 98.7973C170.803 99.0207 171.021 99.2457 171.237 99.4724C171.42 99.6648 171.782 99.9145 171.876 100.156C171.765 99.8695 171.752 100.101 171.645 100.311C171.491 100.612 171.336 100.912 171.182 101.213C170.016 103.479 168.827 105.733 167.621 107.978C165.133 112.613 162.576 117.209 159.985 121.786C158.557 124.308 157.119 126.824 155.675 129.337C154.808 130.845 157.132 132.206 157.998 130.7H157.999Z" fill="#1A5E9D"/>
<path d="M112.524 153.345C109.976 153.326 107.204 152.864 105 151.501C102.893 150.198 101.02 147.76 100.293 145.392C99.4426 142.622 99.877 139.854 100.356 137.061C100.901 133.882 101.574 130.727 102.332 127.592C103.87 121.236 105.756 114.973 107.627 108.709C108.429 106.022 109.152 103.428 110.597 101.004C111.719 99.1211 113.359 97.5015 115.071 96.156C119.679 92.5361 125.381 90.4412 130.764 88.2952C131.438 88.0263 131.911 87.3923 131.703 86.6346C131.526 85.9905 130.727 85.4206 130.048 85.6918C124.8 87.7844 119.354 89.8179 114.701 93.0947C112.578 94.5899 110.687 96.3264 109.122 98.4055C107.43 100.652 106.445 103.246 105.648 105.923C103.682 112.535 101.655 119.134 99.9931 125.832C99.1735 129.134 98.4431 132.459 97.8534 135.811C97.294 138.99 96.7391 142.142 97.4913 145.34C98.2436 148.538 100.444 151.535 103.087 153.458C105.731 155.381 109.342 156.021 112.524 156.044C114.255 156.056 114.257 153.356 112.524 153.343L112.524 153.345Z" fill="#1A5E9D"/>
<path d="M167.72 88.0907C167.37 88.0907 167.854 88.2364 167.933 88.2679C168.083 88.3275 168.233 88.3877 168.383 88.4473C168.717 88.5812 169.052 88.7151 169.387 88.8496C170.081 89.128 170.774 89.4081 171.466 89.6922C172.727 90.2092 173.98 90.7402 175.221 91.3033C177.519 92.3457 179.782 93.4899 181.893 94.8782C183.847 96.1636 185.643 97.6903 187.117 99.5174C188.652 101.42 189.637 103.664 190.331 105.995C192.197 112.265 194.117 118.523 195.748 124.86C196.562 128.023 197.303 131.205 197.925 134.412C198.49 137.33 199.251 140.415 198.9 143.403C198.553 146.363 196.848 149.052 194.569 150.927C192.324 152.774 189.05 153.324 186.236 153.344C184.506 153.357 184.502 156.057 186.236 156.045C189.16 156.024 192.256 155.458 194.831 154.003C196.166 153.249 197.306 152.164 198.271 150.982C199.236 149.8 200.097 148.585 200.68 147.171C201.911 144.181 201.759 141.067 201.267 137.941C200.722 134.487 200.02 131.059 199.213 127.657C197.601 120.858 195.577 114.167 193.58 107.475C192.739 104.66 191.942 101.828 190.306 99.3509C188.86 97.1632 187.023 95.3305 184.947 93.747C182.56 91.9266 179.895 90.5062 177.181 89.2478C175.64 88.5334 174.075 87.8696 172.506 87.2221C171.706 86.8925 170.905 86.5685 170.103 86.2467C169.402 85.9655 168.483 85.3911 167.721 85.3911C165.99 85.3911 165.987 88.0913 167.721 88.0913L167.72 88.0907Z" fill="#1A5E9D"/>
<path d="M149.493 115.88C133.475 115.997 117.536 116.09 111.876 116.109C110.976 116.112 110.251 116.846 110.254 117.75C110.287 126.977 110.73 158.913 111.068 170.651C111.094 171.547 111.832 172.252 112.725 172.239C117.84 172.159 133.682 172.208 149.493 172.263C165.303 172.209 181.145 172.16 186.26 172.239C187.153 172.253 187.892 171.547 187.918 170.651C188.256 158.913 188.699 126.977 188.731 117.75C188.735 116.846 188.01 116.113 187.109 116.109C181.449 116.09 165.51 115.997 149.493 115.88Z" fill="white"/>
<path d="M111.976 115.174C110.945 115.237 109.993 115.696 109.443 116.605C109.055 117.245 109.008 117.947 109.011 118.672C109.015 119.557 109.022 120.442 109.028 121.327C109.047 123.71 109.073 126.093 109.1 128.476C109.17 134.601 109.255 140.725 109.349 146.849C109.442 152.811 109.542 158.773 109.669 164.735C109.694 165.924 109.721 167.113 109.75 168.302C109.777 169.376 109.68 170.556 109.887 171.613C110.187 173.142 111.553 174.005 113.031 174C113.36 173.999 113.69 173.994 114.019 173.992C116.729 173.974 119.438 173.97 122.147 173.965C126.491 173.956 130.836 173.952 135.18 173.948C140.287 173.944 145.394 173.943 150.501 173.943C155.607 173.943 160.665 173.945 165.746 173.949C169.923 173.953 174.1 173.957 178.276 173.967C180.751 173.972 183.227 173.974 185.701 173.995C186.262 174.001 186.804 174.018 187.349 173.836C188.309 173.516 189.045 172.687 189.28 171.704C189.412 171.153 189.377 170.547 189.393 169.982C189.455 167.627 189.506 165.272 189.554 162.918C189.679 156.783 189.779 150.648 189.871 144.513C189.961 138.532 190.042 132.55 190.107 126.568C190.13 124.366 190.153 122.164 190.167 119.962C190.175 118.885 190.334 117.652 189.787 116.684C189.166 115.584 188.038 115.175 186.842 115.173C184.524 115.167 182.206 115.167 179.888 115.165C175.789 115.163 171.689 115.162 167.589 115.161C162.554 115.16 157.52 115.159 152.485 115.159C147.302 115.159 142.12 115.159 136.938 115.16C132.393 115.16 127.848 115.161 123.302 115.163C120.245 115.164 117.188 115.165 114.131 115.169C113.413 115.17 112.694 115.171 111.976 115.173C110.245 115.179 110.242 117.879 111.976 117.873C113.967 117.867 115.959 117.867 117.95 117.866C121.741 117.863 125.533 117.862 129.324 117.862C134.132 117.86 138.94 117.86 143.748 117.859C148.865 117.859 153.982 117.859 159.1 117.859C163.747 117.859 168.394 117.86 173.041 117.862C176.459 117.863 179.877 117.864 183.295 117.868C184.303 117.869 185.311 117.869 186.319 117.871C186.595 117.871 186.925 117.822 187.196 117.873C187.71 117.97 187.481 119.217 187.478 119.658C187.448 124.48 187.388 129.301 187.326 134.123C187.246 140.338 187.154 146.552 187.05 152.766C186.96 158.111 186.866 163.456 186.732 168.8C186.72 169.287 186.708 169.774 186.694 170.261C186.687 170.526 186.784 171.092 186.551 171.258C186.376 171.383 185.881 171.296 185.662 171.294C184.706 171.286 183.749 171.282 182.793 171.279C179.472 171.267 176.151 171.261 172.83 171.257C168.232 171.25 163.633 171.246 159.035 171.245C153.952 171.242 148.869 171.242 143.786 171.244C138.999 171.245 134.212 171.248 129.425 171.253C125.715 171.257 122.006 171.262 118.296 171.273C117.094 171.277 115.891 171.281 114.689 171.287C114.287 171.29 113.886 171.292 113.484 171.295C113.264 171.297 112.795 171.377 112.628 171.248C112.386 171.063 112.496 170.439 112.488 170.151C112.475 169.659 112.462 169.168 112.45 168.677C112.421 167.534 112.396 166.389 112.371 165.246C112.312 162.542 112.26 159.838 112.212 157.134C112.1 150.922 112.004 144.71 111.918 138.499C111.844 133.134 111.776 127.769 111.728 122.403C111.72 121.505 111.713 120.607 111.707 119.709C111.705 119.337 111.483 117.905 111.976 117.875C113.697 117.769 113.708 115.069 111.976 115.174Z" fill="#1A5E9D"/>
<path d="M117.91 166.802C125.635 166.754 133.361 166.795 141.086 166.818C150.448 166.847 159.808 166.804 169.17 166.79C172.863 166.784 176.557 166.779 180.25 166.802C181.982 166.813 181.984 164.113 180.25 164.102C172.695 164.055 165.14 164.095 157.585 164.119C148.131 164.149 138.679 164.104 129.226 164.09C125.454 164.084 121.682 164.079 117.911 164.103C116.18 164.113 116.176 166.813 117.911 166.803L117.91 166.802Z" fill="#1A5E9D"/>
<path d="M144.394 140.005C144.391 141.062 144.39 142.119 144.393 143.176C144.395 144.368 144.232 145.678 145.154 146.598C146.048 147.49 147.277 147.343 148.429 147.342C149.466 147.341 150.503 147.341 151.541 147.344C152.15 147.345 152.738 147.321 153.286 147.014C153.876 146.683 154.361 146.07 154.509 145.404C154.634 144.841 154.591 144.237 154.592 143.664C154.594 143.107 154.595 142.55 154.595 141.993C154.595 141.485 154.595 140.976 154.594 140.467C154.592 139.831 154.56 139.212 154.208 138.656C153.811 138.027 153.158 137.584 152.421 137.485C151.938 137.42 151.447 137.443 150.96 137.443C149.803 137.443 148.646 137.443 147.489 137.443C146.814 137.443 146.149 137.462 145.566 137.856C144.829 138.354 144.434 139.121 144.395 140.005C144.363 140.712 145.036 141.387 145.74 141.356C146.496 141.322 147.052 140.762 147.086 140.005C147.101 139.662 147.006 140.279 147.106 139.962L147.052 140.103C147.131 139.978 147.119 139.989 147.013 140.138C147.102 140.081 147.162 140.067 146.964 140.159C147.242 140.03 146.69 140.164 147.004 140.134C146.624 140.17 147.142 140.144 147.236 140.144C147.445 140.144 147.653 140.144 147.862 140.144C148.723 140.144 149.584 140.144 150.446 140.144C150.848 140.144 151.25 140.144 151.652 140.144C151.767 140.144 152.037 140.1 152.141 140.148L151.985 140.134C152.128 140.181 152.113 140.172 151.94 140.108C152.216 140.222 151.748 139.994 151.975 140.138L151.886 140.019C151.957 140.149 151.956 140.13 151.882 139.962C151.979 140.269 151.91 139.673 151.902 140.006C151.898 140.178 151.903 140.35 151.903 140.522C151.904 140.951 151.905 141.38 151.905 141.809C151.905 142.696 151.904 143.583 151.899 144.47C151.899 144.51 151.924 144.764 151.897 144.789L151.926 144.637C151.914 144.703 151.897 144.768 151.874 144.832C151.933 144.775 151.912 144.571 151.876 144.774L151.965 144.654C151.857 144.755 151.873 144.748 152.013 144.632C151.704 144.713 152.226 144.597 152.021 144.641C151.823 144.683 152.359 144.654 152.025 144.645C151.829 144.64 151.634 144.644 151.439 144.644C150.592 144.642 149.745 144.641 148.898 144.642C148.483 144.642 148.068 144.642 147.654 144.644C147.486 144.644 147.318 144.644 147.149 144.645C147.083 144.645 146.917 144.672 146.858 144.641C147.029 144.668 147.066 144.668 146.967 144.641C146.871 144.611 146.902 144.625 147.059 144.683C146.756 144.555 147.29 144.836 147.022 144.655C147.127 144.803 147.139 144.815 147.06 144.69L147.114 144.832L147.084 144.736C147.051 144.586 147.054 144.604 147.091 144.789C147.051 144.752 147.089 144.42 147.088 144.359C147.086 143.883 147.085 143.406 147.084 142.93C147.083 141.955 147.084 140.981 147.086 140.007C147.087 139.301 146.466 138.624 145.74 138.657C145.01 138.689 144.397 139.249 144.395 140.007L144.394 140.005Z" fill="#1A5E9D"/>
<path d="M159.27 32.7779C156.116 35.5737 152.954 37.9335 149.245 40.0267C144.119 42.9209 138.849 45.4782 133.263 47.3441C131.436 47.9545 129.6 48.544 127.769 49.1448C126.13 49.6826 126.832 52.2905 128.484 51.7488C132.819 50.3267 137.178 48.9811 141.346 47.105C144.234 45.805 147.055 44.3216 149.828 42.791C151.781 41.7126 153.7 40.5673 155.52 39.2729C157.498 37.8649 159.356 36.2971 161.173 34.6872C162.473 33.5345 160.565 31.6309 159.27 32.7779Z" fill="#1A5E9D"/>
<path d="M159.269 34.6871C163.386 39.8787 166.898 45.5934 169.655 51.6204C169.959 52.283 170.913 52.4467 171.496 52.1047C172.174 51.7064 172.283 50.9228 171.979 50.2574C169.121 44.0099 165.437 38.1556 161.171 32.7773C160.718 32.2063 159.741 32.3025 159.269 32.7773C158.707 33.3415 158.815 34.1144 159.269 34.6865V34.6871Z" fill="#1A5E9D"/>
</svg>
