<svg width="300" height="210" viewBox="0 0 300 210" fill="none" xmlns="http://www.w3.org/2000/svg">
<path d="M76.307 99.7173C77.2921 103.231 77.7895 106.865 77.7849 110.516C77.7849 126.386 70.5358 138.937 58.3944 145.12L58.2228 144.771C56.8785 142.3 53.3941 135.931 49.7948 129.331C56.3367 125.999 60.2425 119.225 60.2425 110.674C60.2464 108.707 59.9762 106.749 59.4399 104.857C66.5609 102.696 73.4916 100.577 76.307 99.7173Z" fill="#F7E8B5"/>
<path d="M58.2212 144.773L58.3927 145.122C52.5902 147.997 46.1939 149.445 39.7288 149.346C17.6759 149.346 1.83968 133.675 1.68054 110.871H19.2236C19.3067 123.165 27.8489 131.614 39.7288 131.614C43.2153 131.668 46.6646 130.887 49.7931 129.335C53.3924 135.933 56.8768 142.302 58.2212 144.773Z" fill="#FEBE69"/>
<path d="M39.724 72.3989V90.1309C37.0272 90.0783 34.3474 90.5729 31.8441 91.5852C29.3407 92.5975 27.0649 94.1069 25.1521 96.0235C23.2392 97.9402 21.7283 100.225 20.7093 102.742C19.6902 105.259 19.1839 107.957 19.2203 110.675C19.2203 110.74 19.2203 110.804 19.2265 110.868H1.68201C1.67578 110.753 1.67578 110.631 1.67578 110.515C1.67578 89.958 17.2311 72.4052 39.724 72.3989Z" fill="white"/>
<path d="M76.3073 99.7166C73.4919 100.576 66.5612 102.695 59.4395 104.859C57.0829 96.4419 49.6359 90.131 39.7307 90.131H39.7245V72.3989H39.7307C58.1055 72.3989 71.9248 84.1024 76.3073 99.7166Z" fill="#5199D1"/>
<path d="M1.6859 112.544H19.229C21.3663 112.544 21.3697 109.197 19.229 109.197H1.6859C-0.45068 109.197 -0.454831 112.544 1.6859 112.544Z" fill="#1A5E9D"/>
<path d="M38.0643 72.3996V90.1316C38.0643 92.2857 41.3855 92.2892 41.3855 90.1316V72.3996C41.3855 70.2455 38.0643 70.242 38.0643 72.3996Z" fill="#1A5E9D"/>
<path d="M59.8833 106.473C65.508 104.764 71.1306 103.05 76.7511 101.331C78.7908 100.707 77.9218 97.4758 75.8682 98.1027C70.2468 99.8228 64.6242 101.537 59.0004 103.246C56.9593 103.866 57.829 107.097 59.8833 106.473Z" fill="#1A5E9D"/>
<path d="M48.3624 130.177C51.1683 135.324 53.9781 140.471 56.7918 145.617C57.8193 147.506 60.6886 145.819 59.6597 143.928C56.858 138.777 54.0489 133.63 51.2324 128.487C50.2022 126.599 47.3336 128.285 48.3645 130.177H48.3624Z" fill="#1A5E9D"/>
<path d="M48.9567 127.885C41.9042 131.438 32.2965 130.503 26.5253 124.956C21.1777 119.816 19.5794 111.373 21.8986 104.388C23.1193 100.83 25.3776 97.7275 28.3777 95.4858C31.3778 93.244 34.9798 91.9678 38.7118 91.8243C42.7065 91.6009 46.6733 92.6154 50.079 94.7315C53.2111 96.7421 55.6588 99.6694 57.0941 103.121C60.3025 110.824 58.415 121.191 51.5424 126.293C50.7242 126.893 49.8595 127.426 48.9567 127.887C47.0547 128.871 48.7332 131.76 50.6332 130.777C59.6237 126.127 63.5163 115.182 61.3189 105.504C60.3224 101.075 57.9886 97.0655 54.6386 94.0279C51.1145 90.9207 46.7081 89.0125 42.046 88.5747C33.1344 87.6563 24.195 92.12 20.0589 100.233C16.0624 108.077 16.8761 118.255 22.2937 125.223C27.9922 132.556 38.2579 134.88 46.9184 132.276C48.1963 131.885 49.4383 131.384 50.6304 130.777C52.5449 129.813 50.865 126.925 48.9567 127.885Z" fill="#1A5E9D"/>
<path d="M77.9091 99.2719C75.6517 91.2215 70.9073 84.106 64.3644 78.9583C57.4685 73.7848 49.1422 70.9101 40.5473 70.7351C31.9524 70.56 23.5177 73.0935 16.42 77.982C9.90592 82.6843 4.98084 89.2885 2.31009 96.9023C-0.379697 104.866 -0.728569 113.444 1.30545 121.603C3.09183 129.261 7.17447 136.18 12.9985 141.418C19.0196 146.596 26.4476 149.828 34.316 150.692C42.5349 151.754 50.8846 150.468 58.4134 146.98C65.1315 143.747 70.681 138.481 74.2877 131.917C78.2496 124.458 80.0027 116.009 79.3385 107.574C79.1372 104.766 78.6578 101.984 77.9077 99.2712C77.3327 97.1993 74.1278 98.0794 74.7056 100.161C76.9619 108.564 76.5506 117.469 73.5293 125.625C71.1777 132.042 66.9149 137.57 61.3249 141.45C55.1788 145.64 47.8467 147.554 40.4635 147.664C33.0048 147.889 25.6427 145.919 19.2768 141.995C13.3989 138.213 8.83892 132.676 6.23315 126.157C3.3774 118.981 2.59166 111.138 3.96649 103.531C5.28754 96.0731 8.93084 89.2329 14.3683 84.0019C19.8057 78.771 26.7547 75.4212 34.208 74.4381C42.2393 73.2536 50.4362 74.6742 57.6136 78.4945C64.301 82.1825 69.6294 87.9465 72.807 94.9302C73.5718 96.6218 74.206 98.3704 74.7042 100.16C75.2937 102.229 78.4993 101.35 77.9091 99.2719Z" fill="#1A5E9D"/>
<path d="M151.025 138.446C151.025 137.322 151.025 136.169 151.025 135.017L133.217 135.024C133.221 139.81 133.222 144.596 133.22 149.382H151.025C151.025 149.382 151.025 144.306 151.025 138.446Z" fill="white"/>
<path d="M103.111 80.0918C102.569 80.1733 102.074 80.4484 101.717 80.8669C101.36 81.2854 101.164 81.8194 101.164 82.3715C101.169 93.5833 101.176 110.27 101.181 124.508C141.151 124.508 181.441 124.508 181.441 124.508H182.803C182.798 110.261 182.791 93.5589 182.787 82.3457C182.787 81.7353 182.547 81.15 182.118 80.7185C181.69 80.2869 181.109 80.0444 180.504 80.0444L103.45 80.0723C103.337 80.0705 103.223 80.0771 103.111 80.0918Z" fill="white"/>
<path d="M182.804 124.504C182.804 127.353 182.81 130.11 182.81 132.703C182.81 133.313 182.569 133.899 182.141 134.33C181.713 134.762 181.132 135.004 180.527 135.004C164.836 135.011 119.426 135.025 103.469 135.031C103.169 135.031 102.873 134.972 102.596 134.856C102.319 134.741 102.067 134.571 101.855 134.357C101.644 134.143 101.476 133.89 101.361 133.61C101.247 133.331 101.189 133.032 101.189 132.73C101.189 130.124 101.183 127.36 101.189 124.501H182.804V124.504Z" fill="white"/>
<path d="M99.5067 82.3712C99.5109 93.8267 99.5155 105.282 99.5205 116.737C99.5205 119.725 99.5217 122.713 99.524 125.701C99.524 127.142 99.524 128.583 99.524 130.024C99.524 131.319 99.3164 132.845 99.7641 134.079C100.03 134.807 100.5 135.442 101.116 135.907C101.732 136.372 102.468 136.648 103.236 136.701C103.933 136.756 104.648 136.712 105.348 136.712H110.167L136.286 136.696L164.623 136.686L175.996 136.682C177.466 136.682 178.939 136.705 180.408 136.682C181.109 136.691 181.8 136.517 182.414 136.177C183.029 135.837 183.545 135.342 183.914 134.742C184.646 133.507 184.472 132.022 184.471 130.645C184.467 118.693 184.462 106.741 184.457 94.7888C184.457 92.0278 184.457 89.267 184.457 86.5064C184.457 84.0392 185.07 80.7757 182.802 79.1209C181.519 78.185 179.914 78.367 178.416 78.3677H174.69L151.996 78.3761L125.06 78.3859L104.416 78.3929C103.464 78.3089 102.507 78.4666 101.632 78.8517C101.002 79.1973 100.474 79.7052 100.103 80.3235C99.7311 80.9418 99.5287 81.6484 99.5164 82.3712C99.4098 84.5246 102.731 84.519 102.838 82.3712C102.888 81.3475 105.047 81.7436 105.761 81.7394H109.947H120.416L146.005 81.7303L169.748 81.7213H178.102H179.587C179.981 81.7213 180.643 81.5943 180.952 81.8851C181.037 81.997 181.098 82.1258 181.13 82.2629C181.161 82.4001 181.164 82.5425 181.138 82.6808C181.126 83.247 181.138 83.814 181.138 84.3802V88.1138C181.142 99.5614 181.147 111.009 181.151 122.458C181.151 125.189 181.151 127.92 181.151 130.652C181.151 131.292 181.19 131.945 181.151 132.584C181.133 132.895 181.086 133.152 180.781 133.291C180.177 133.415 179.557 133.432 178.948 133.341H169.124L142.683 133.352L115.952 133.362L105.768 133.366C105.107 133.366 104.443 133.382 103.781 133.366C102.82 133.344 102.851 132.862 102.85 131.972C102.85 129.28 102.85 126.587 102.85 123.895C102.845 112.397 102.841 100.9 102.836 89.4032C102.836 87.0601 102.836 84.7168 102.836 82.3733C102.827 80.2178 99.506 80.2143 99.5067 82.3712Z" fill="#1A5E9D"/>
<path d="M131.557 134.94V149.381C131.557 151.535 134.878 151.539 134.878 149.381V134.94C134.878 132.786 131.557 132.783 131.557 134.94Z" fill="#1A5E9D"/>
<path d="M149.363 135.185V149.381C149.363 151.535 152.684 151.539 152.684 149.381V135.185C152.684 133.031 149.363 133.027 149.363 135.185Z" fill="#1A5E9D"/>
<path d="M126.418 151.054H158.115C160.253 151.054 160.256 147.707 158.115 147.707H126.418C124.281 147.707 124.277 151.054 126.418 151.054Z" fill="#1A5E9D"/>
<path d="M102.125 126.178H181.441C183.578 126.178 183.582 122.831 181.441 122.831H102.125C99.9877 122.831 99.9843 126.178 102.125 126.178Z" fill="#1A5E9D"/>
<path d="M136.883 114.118V99.376H147.093V114.118H136.883Z" fill="#F7E8B5"/>
<path d="M138.544 114.118V99.3763L136.884 101.05H147.094L145.433 99.3763V114.118L147.094 112.444H136.884C134.747 112.444 134.744 115.792 136.884 115.792H147.094C147.532 115.786 147.951 115.607 148.261 115.295C148.571 114.982 148.748 114.56 148.754 114.118V99.3763C148.748 98.9343 148.571 98.5123 148.261 98.1998C147.951 97.8873 147.532 97.7089 147.094 97.7026H136.884C136.445 97.7089 136.026 97.8873 135.716 98.1998C135.406 98.5123 135.229 98.9343 135.223 99.3763V114.118C135.223 116.272 138.544 116.276 138.544 114.118Z" fill="#1A5E9D"/>
<path d="M120.191 114.118V106.953H130.401V114.118H120.191Z" fill="#FEBE69"/>
<path d="M121.847 114.117V106.953L120.186 108.627H130.397L128.736 106.953V114.117L130.397 112.444H120.186C119.746 112.444 119.323 112.62 119.012 112.934C118.701 113.248 118.526 113.674 118.526 114.117C118.526 114.561 118.701 114.987 119.012 115.301C119.323 115.615 119.746 115.791 120.186 115.791H130.397C130.835 115.785 131.254 115.606 131.564 115.294C131.874 114.981 132.051 114.559 132.057 114.117V106.953C132.051 106.511 131.874 106.089 131.564 105.776C131.254 105.464 130.835 105.286 130.397 105.279H120.186C119.748 105.286 119.329 105.464 119.019 105.776C118.709 106.089 118.532 106.511 118.526 106.953V114.117C118.526 114.561 118.701 114.987 119.012 115.301C119.323 115.615 119.746 115.791 120.186 115.791C120.627 115.791 121.049 115.615 121.36 115.301C121.672 114.987 121.847 114.561 121.847 114.117Z" fill="#1A5E9D"/>
<path d="M153.585 114.118V91.7988H163.788V114.118H153.585Z" fill="#5199D1"/>
<path d="M155.24 114.118V91.7991L153.58 93.4727H163.782L162.122 91.7991V114.118L163.782 112.445H153.58C151.442 112.445 151.439 115.792 153.58 115.792H163.782C164.221 115.786 164.64 115.607 164.95 115.295C165.26 114.982 165.437 114.56 165.443 114.118V91.7991C165.437 91.3572 165.26 90.9352 164.95 90.6226C164.64 90.3101 164.221 90.1318 163.782 90.1255H153.58C153.141 90.1318 152.723 90.3101 152.412 90.6226C152.102 90.9352 151.925 91.3572 151.919 91.7991V114.118C151.919 116.272 155.24 116.276 155.24 114.118Z" fill="#1A5E9D"/>
<path d="M250.614 102.327C251.021 101.925 251.438 101.547 251.86 101.18V94.9209H238.75V132.999H247.225C241.072 123.716 241.695 111.15 250.614 102.327Z" fill="#F7E8B5"/>
<path d="M240.413 132.999V94.9207L238.753 96.5943H251.858L250.198 94.9207V99.5601C250.198 101.714 253.519 101.718 253.519 99.5601V94.9207C253.512 94.4788 253.335 94.0567 253.025 93.7442C252.715 93.4317 252.297 93.2534 251.858 93.2471H238.753C238.314 93.2534 237.896 93.4317 237.586 93.7442C237.275 94.0567 237.099 94.4788 237.092 94.9207V132.999C237.092 135.153 240.413 135.157 240.413 132.999Z" fill="#1A5E9D"/>
<path d="M216.858 133V106.974H229.963V133" fill="#FEBE69"/>
<path d="M218.513 133V106.974L216.852 108.648H229.957L228.297 106.974V133C228.297 135.154 231.618 135.157 231.618 133V106.974C231.612 106.533 231.435 106.11 231.125 105.798C230.815 105.485 230.396 105.307 229.957 105.301H216.852C216.414 105.307 215.995 105.485 215.685 105.798C215.375 106.11 215.198 106.532 215.192 106.974V133C215.192 135.154 218.513 135.157 218.513 133Z" fill="#1A5E9D"/>
<path d="M260.653 88.9208V86.667H273.752V96.3921H260.653V88.9208Z" fill="#5199D1"/>
<path d="M262.313 95.1799V86.6668L260.652 88.3404H273.752L272.091 86.6668V94.9421C272.091 97.0962 275.412 97.0997 275.412 94.9421V86.6668C275.406 86.2249 275.229 85.8028 274.919 85.4903C274.609 85.1778 274.19 84.9995 273.752 84.9932H260.652C260.214 84.9993 259.795 85.1776 259.485 85.4901C259.175 85.8027 258.998 86.2248 258.992 86.6668V95.1799C258.992 97.334 262.313 97.3375 262.313 95.1799Z" fill="#1A5E9D"/>
<path d="M204.533 79.3258V132.999C204.539 133.441 204.716 133.863 205.026 134.175C205.336 134.488 205.755 134.666 206.193 134.673H247.227C249.363 134.673 249.367 131.325 247.227 131.325H206.193L207.854 132.999V79.3258C207.854 77.1724 204.533 77.1689 204.533 79.3258Z" fill="#1A5E9D"/>
<path d="M284.367 130.172L295.466 141.359C296.325 142.246 296.802 143.439 296.794 144.678C296.786 145.917 296.294 147.103 295.424 147.979C294.554 148.855 293.377 149.35 292.147 149.356C290.918 149.363 289.735 148.881 288.856 148.015L277.732 136.803" fill="#5199D1"/>
<path d="M283.192 131.356C286.811 135.004 290.431 138.652 294.05 142.3C294.562 142.742 294.921 143.336 295.073 143.997C295.226 144.659 295.165 145.352 294.899 145.975C294.685 146.415 294.371 146.796 293.982 147.089C293.592 147.381 293.14 147.576 292.661 147.657C292.182 147.738 291.691 147.703 291.229 147.555C290.766 147.406 290.346 147.149 290.001 146.804C288.208 145.06 286.473 143.247 284.71 141.472L278.905 135.621C277.392 134.095 275.043 136.462 276.556 137.987C280.259 141.719 283.891 145.547 287.674 149.192C288.761 150.284 290.206 150.942 291.738 151.041C293.27 151.141 294.786 150.676 296.004 149.734C297.222 148.792 298.059 147.436 298.359 145.918C298.66 144.401 298.403 142.825 297.637 141.484C297.026 140.567 296.299 139.733 295.475 139.005L291.995 135.498L285.538 128.989C284.025 127.464 281.676 129.83 283.19 131.356H283.192Z" fill="#1A5E9D"/>
<path d="M254.777 106.593C256.517 104.801 258.597 103.38 260.893 102.416C263.19 101.451 265.655 100.961 268.143 100.977C270.631 100.992 273.09 101.512 275.374 102.505C277.658 103.499 279.721 104.945 281.439 106.758C289.383 114.917 289.219 126.105 281.357 133.885C273.192 141.963 262.34 141.57 254.448 133.467C252.678 131.703 251.279 129.598 250.335 127.277C249.39 124.956 248.919 122.468 248.95 119.959C248.981 117.451 249.513 114.975 250.514 112.679C251.515 110.382 252.965 108.312 254.777 106.593Z" fill="white"/>
<path d="M255.95 107.776C261.064 102.781 268.687 101.116 275.209 104.289C281.731 107.462 286.298 114.64 285.583 122.025C284.875 129.347 278.656 135.943 271.668 137.65C264.554 139.386 257.083 135.388 253.286 129.318C251.228 126.049 250.317 122.179 250.7 118.327C251.191 114.304 253.046 110.576 255.95 107.773C257.468 106.252 255.12 103.884 253.602 105.406C250.483 108.449 248.383 112.397 247.596 116.699C246.922 120.757 247.47 124.926 249.167 128.667C252.594 136.303 261.055 142.04 269.48 141.359C278.216 140.656 286.224 133.627 288.387 125.093C290.552 116.547 286.375 107.619 279.27 102.778C275.531 100.235 271.053 99.0286 266.553 99.3524C261.667 99.7818 257.085 101.922 253.602 105.402C252.065 106.91 254.414 109.276 255.95 107.776Z" fill="#1A5E9D"/>
</svg>
