<svg fill="none" height="210" viewBox="0 0 300 210" width="300" xmlns="http://www.w3.org/2000/svg"><path d="m241.977 57.7349h-66.941v88.5881h66.941z" fill="#fff"/><path d="m225.171 126.743.755-8.683c.02-.231.065-.459.134-.681l11.452 6.613c-.158.17-.333.323-.523.456l-11.304 7.909c-.095.066-.207.104-.322.109-.116.005-.231-.023-.331-.081s-.182-.143-.236-.246c-.053-.103-.076-.219-.066-.334z" fill="#fff"/><path d="m241.976 55.8778h-58.7c-2.7 0-5.428-.1107-8.124 0-.038 0-.078 0-.115 0-.49.007-.958.2049-1.305.5517-.347.3467-.545.815-.552 1.3053v77.6962c0 3.572-.133 7.171 0 10.741v.151c.007.49.205.958.552 1.305s.815.545 1.305.552h58.7c2.701 0 5.428.11 8.124 0h.115c.49-.007.958-.205 1.305-.552s.545-.815.552-1.305v-77.6965c0-3.571.133-7.1706 0-10.74 0-.0503 0-.1014 0-.1548 0-2.3894-3.714-2.3932-3.714 0v84.9823c0 1.136-.101 2.322 0 3.458.004.049 0 .101 0 .151l1.857-1.857h-64.19c-.865 0-1.775-.082-2.637 0-.038.001-.076.001-.114 0l1.857 1.857v-84.98c0-1.1352.101-2.3214 0-3.4565 0-.0495 0-.1014 0-.1548l-1.857 1.8571h58.699c2.701 0 5.428.1107 8.125 0h.114c2.393.0031 2.397-3.711.003-3.711z" fill="#1a5e9d"/><path d="m189.175 81.0085h37.451c2.389 0 2.394-3.7141 0-3.7141h-1.038c-2.39 0-2.394 3.7141 0 3.7141h1.038c2.389 0 2.394-3.7141 0-3.7141h-37.451c-2.389 0-2.393 3.7141 0 3.7141z" fill="#1a5e9d"/><path d="m189.175 95.5329h37.451c2.389 0 2.394-3.7141 0-3.7141h-1.038c-2.39 0-2.394 3.7141 0 3.7141h1.038c2.389 0 2.394-3.7141 0-3.7141h-37.451c-2.389 0-2.393 3.7141 0 3.7141z" fill="#1a5e9d"/><path d="m246.478 84.0036c-.435.0781-.848.2501-1.209.504-.362.2539-.663.5837-.884.9662l-18.034 31.2352c-.122.211-.219.435-.292.667l11.452 6.612c.166-.178.311-.374.432-.585l14.99-25.9636 3.044-5.2717c.404-.699.513-1.5295.304-2.309s-.719-1.4441-1.418-1.8477l-6.324-3.6476c-.623-.3604-1.353-.4879-2.061-.3598z" fill="#5199d1"/><path d="m189.175 110.053h19.308c2.39 0 2.394-3.714 0-3.714h-1.037c-2.391 0-2.394 3.714 0 3.714h1.037c2.39 0 2.394-3.714 0-3.714h-19.308c-2.389 0-2.393 3.714 0 3.714z" fill="#1a5e9d"/><path d="m225.945 119.459 9.804 5.66c.21.123.443.204.685.237.241.033.487.018.723-.044.236-.061.457-.169.652-.317.194-.147.357-.331.48-.542.124-.21.204-.443.237-.685.033-.241.019-.487-.043-.723s-.17-.457-.317-.652c-.148-.194-.332-.357-.542-.48l-9.804-5.661c-.211-.123-.443-.203-.685-.236s-.487-.019-.723.043-.458.17-.652.317c-.194.148-.358.332-.481.542-.123.211-.203.444-.236.685-.034.242-.019.488.043.724.062.235.169.457.317.651.147.195.331.358.542.481z" fill="#1a5e9d"/><path d="m224.893 129.935.357-4.112 5.355 3.095-4.92 3.442c-.095.066-.207.104-.322.109-.116.005-.231-.023-.331-.081s-.182-.143-.236-.246c-.053-.103-.076-.219-.066-.334z" fill="#1a5e9d"/><path d="m231.058 127.032-4.333-2.5c-.435-.245-.948-.312-1.432-.187-.352.097-.668.296-.908.571-.24.276-.393.616-.441.979-.047.362.014.731.175 1.059s.415.601.731.785l4.333 2.5c.434.245.947.313 1.431.187.352-.097.668-.296.908-.571.239-.276.393-.616.44-.979.048-.362-.013-.73-.174-1.058s-.415-.601-.73-.786z" fill="#1a5e9d"/><path d="m254.537 98.3804c.956-1.6559 1.924-3.3056 2.868-4.9684.375-.6005.621-1.2725.722-1.9732.101-.7008.054-1.4148-.137-2.0965-.191-.6818-.521-1.3162-.971-1.8629s-1.009-.9936-1.641-1.3122c-1.879-1.0833-3.753-2.1821-5.638-3.2553-.571-.358-1.208-.5977-1.873-.7049-.665-.1071-1.345-.0795-2 .0813-.654.1607-1.269.4513-1.809.8544s-.993.9106-1.333 1.4924c-1.541 2.5085-2.95 5.1069-4.422 7.6603l-7.669 13.2846-5.465 9.465c-.614.99-.997 2.105-1.121 3.262-.186 1.95-.34 3.905-.51 5.856l-.584 6.711c-.178.781-.068 1.6.309 2.306 1.736 2.737 4.822-.241 6.5-1.417l6.595-4.613c1.215-.851 2.463-1.595 3.243-2.895.568-.948 1.106-1.916 1.658-2.873l12.968-22.4607.309-.5417c1.198-2.0737-2.012-3.9462-3.206-1.8748l-6.533 11.3152-8.145 14.108c-.097.167-.186.343-.292.505-.521.798-1.576 1.297-2.35 1.839l-4.711 3.295-2.356 1.647c-.753.62-1.563 1.168-2.418 1.636l.937-.254h.062l.819.478.014.036.254.937c-.021-.693.023-1.387.133-2.072l.381-4.366.406-4.674c.077-.904.083-1.857.239-2.748.294-.873.725-1.694 1.277-2.432l3.509-6.078 9.412-16.3014 3.264-5.6524c.561-.9734 1.083-2.3817 2.439-1.7131 1.089.537 2.125 1.2264 3.173 1.833 1.006.5796 2.082 1.1042 3.042 1.7565.939.6384.619 1.409.143 2.2277l-2.19 3.7915-.512.8867c-1.194 2.0737 2.015 3.9465 3.21 1.8749z" fill="#1a5e9d"/><path d="m127.489 107.684.265-.142c-2.195-6.023-7.926-21.7674-10.332-28.3793l-1.87-.2577c-3.946-.5455-16.0076-2.2137-21.3188-2.7855-6.1283-.3869-12.0306 2.6555-16.876 4.9985-1.7507.7603-3.3102 1.9008-4.5653 3.3389-.3688.507-.6526 1.0707-.8403 1.669-1.1885-.1192-2.5612-.3142-3.6445-.5153l-5.3777-.7081-11.1756 30.7085 2.3731.43 3.9401.827c-.4863.69-.7787 1.497-.8468 2.339-.068.841.0908 1.685.4599 2.444.7312 1.621 2.8939 2.355 5.1425 1.972 1.9441-.428 3.8034-1.177 5.5015-2.215l.7785-.424-2.1496 2.227c-.7659.751-1.2465 1.746-1.3595 2.812-.1129 1.067.1489 2.14.7405 3.035.9092 1.451 3.0696 1.869 5.1657 1.209 1.8001-.662 3.4772-1.62 4.9622-2.834l.325 1.965c-.7277.669-1.2001 1.57-1.3362 2.548-.1361.979.0726 1.975.5903 2.816.7939 1.364 2.7701 1.813 4.72 1.268 1.6768-.556 3.2492-1.387 4.6527-2.46.5403-.451.9566-1.031 1.2094-1.688l.9928.559c1.7959.966 3.6549 1.811 5.5642 2.528 1.5135.51 3.142.572 4.6899.178.5883-.139 1.1173-.462 1.5114-.92.3941-.459.6336-1.03.6826-1.633v-.536c1.316.541 4.233 1.038 6.25-.653.484-.459.837-1.038 1.024-1.678.187-.641.2-1.319.039-1.966 0 0-.058-.155-.145-.387 1.169.638 2.518.863 3.831.638 1.312-.225 2.51-.886 3.401-1.876 1.102-1.331.81-3.959-.886-5.464l.226.155c2.818.916 5.416-.38 6.274-1.822.586-.926.812-2.036.634-3.117-.177-1.082-.744-2.061-1.595-2.753-.176-.148-.353-.295-.532-.441 3.595-2.098 6.474-3.702 8.904-5.01z" fill="#fff"/><path d="m147.018 104.878-16.429 5.98c-.189.069-.39.1-.591.091s-.398-.057-.581-.142c-.182-.085-.346-.205-.482-.354-.136-.148-.241-.322-.31-.511l-12.291-33.7709c-.139-.382-.121-.8035.051-1.1719.171-.3684.482-.6536.864-.7928l15.996-5.8218c.379-.138.797-.1212 1.163.0468.366.1681.652.4737.794.8508l12.726 33.6138c.072.189.105.392.098.594-.007.203-.054.403-.138.587-.085.184-.205.35-.355.488-.149.137-.324.244-.515.313z" fill="#3d8dcc"/><path d="m146.526 103.086-10.802 3.932c-1.75.637-3.541 1.211-5.266 1.916-.707.29.094.02-.048.492.043-.142-.223-.61-.271-.744l-9.002-24.7298-2.026-5.5712-.639-1.7549c-.072-.1965-.159-.7405-.32-.8798-.039-.0332-.662.3359-.195.171.632-.2236 1.26-.4588 1.89-.6886l6.802-2.4761 6.101-2.2207c.129-.0464.952-.2492.983-.373-.055.2236-.289-.496-.302-.3412-.008.0774.09.2375.118.3095 1.181 3.1106 2.358 6.2219 3.534 9.334l5.479 14.4742 2.244 5.9271c.325 1.1095.735 2.1915 1.226 3.2385.037.081.069.164.094.249.014.034.511-.337-.043-.083-.422.252-.729.659-.854 1.134-.124.476-.057.981.188 1.407.256.417.663.718 1.137.842.473.125.976.061 1.404-.176.743-.361 1.329-.981 1.649-1.743.32-.763.352-1.615.089-2.399-.102-.321-.24-.636-.36-.951l-1.721-4.547-5.583-14.7474-4.531-11.9633c-.563-1.4887-1.062-3.078-2.817-3.5663-1.613-.448-3.518.6113-4.997 1.1498-4.255 1.5476-8.53 3.0402-12.761 4.6427-.472.1466-.908.3903-1.28.7155-.373.3251-.673.7245-.882 1.1725s-.322.9347-.332 1.4289.084.9851.275 1.441l1.435 3.9401 9.908 27.2235c.279.884.604 1.753.973 2.603.366.743.988 1.328 1.752 1.647s1.617.351 2.403.089c.577-.178 1.142-.416 1.709-.619l13.573-4.941 1.054-.383c.468-.142.863-.458 1.105-.883.241-.426.31-.927.192-1.402-.135-.472-.45-.873-.877-1.116-.427-.242-.933-.307-1.408-.18z" fill="#1a5e9d"/><path d="m32.9724 111.621 16.4296 5.981c.1891.069.3899.1.591.091.201-.009.3983-.057.5807-.142s.3462-.206.4821-.354.2413-.322.31-.511l12.2915-33.7715c.0689-.1891.0999-.3898.0912-.5909-.0087-.201-.0569-.3984-.1419-.5807-.085-.1824-.2051-.3463-.3535-.4822s-.3221-.2413-.5112-.31l-15.9963-5.8227c-.3786-.1378-.7964-.1209-1.1626.0471-.3663.168-.6516.4736-.7942.8505l-12.7255 33.6134c-.0719.19-.1054.392-.0985.595s.054.402.1386.586c.0846.185.205.351.3542.488.1491.138.3242.244.5148.313z" fill="#febe69"/><g fill="#1a5e9d"><path d="m32.4769 113.413 11.568 4.21c1.587.577 3.1678 1.244 4.7827 1.741.8636.275 1.8008.2 2.6099-.208.8092-.409 1.4258-1.118 1.717-1.977.0774-.197.1455-.398.2175-.596l9.4036-25.8349 1.9863-5.4567c.4346-.901.7197-1.8666.8442-2.8591.0232-2.671-2.4761-3.3094-4.4747-4.0383l-7.3424-2.6726-5.9782-2.1759c-.461-.2077-.9607-.3156-1.4664-.3165s-1.0058.1053-1.4675.3114c-.4618.2062-.8746.5077-1.2115.8848s-.5902.8212-.7433 1.3032c-1.228 3.1538-2.3987 6.3317-3.5949 9.4965l-5.7569 15.2061c-1.0833 2.871-2.3685 5.736-3.2816 8.666-.2566.783-.2213 1.632.0995 2.39.3207.758.9052 1.375 1.6454 1.736.4285.234.9305.296 1.4029.172.4725-.124.8797-.424 1.1381-.838.2449-.426.3122-.932.1876-1.407-.1247-.476-.4313-.883-.8538-1.134-.554-.255-.0596.122-.0433.083.0387-.095.0658-.195.1083-.288.1865-.403.3188-.841.4759-1.256l1.8037-4.765 5.3553-14.1446 4.3579-11.5122.4913-1.2976c.267-.7026-.1401.2066-.2066.0813.0882.1663.9169.3335 1.0833.3946l2.5852.9409c4.0445 1.4702 8.0766 2.9829 12.1343 4.4167.4124.1455-.1602-.2058-.2197-.1695-.1494.0913-.2832.7785-.3413.9371l-1.5622 4.2921-9.5012 26.1122-.5989 1.646c-.0441.121-.2886.556-.2499.686-.1378-.458.6716-.232-.1084-.514l-2.0783-.757-12.9685-4.72-.961-.35c-.4749-.126-.9803-.061-1.4077.182-.4273.242-.7423.643-.8773 1.115-.1202.475-.0522.977.1896 1.403.2418.425.6389.741 1.108.881z"/><path d="m90.3898 94.6237c.3931.147-.4356-.2414.0225.0132.1361.0774.2785.1416.4147.2166.3823.2113.7521.4442 1.1181.6817 1.0965.7096 2.1612 1.4702 3.2274 2.2231 3.5431 2.5037 7.1105 4.9737 10.6395 7.4967 4.159 2.849 8.162 5.918 11.993 9.194.532.413.913.989 1.084 1.639.09.622-.02 1.257-.315 1.812-.448.601-1.075 1.044-1.792 1.263-.717.22-1.485.204-2.192-.043-.799-.451-1.556-.971-2.265-1.552-.902-.622-1.803-1.247-2.701-1.873-1.611-1.121-3.219-2.247-4.824-3.378-.426-.245-.931-.312-1.407-.187-.475.125-.882.431-1.133.853-.239.428-.303.931-.179 1.405.125.473.427.88.845 1.136 3.226 2.282 6.417 4.741 9.789 6.803 2.137 1.307 5.485.682 7.406-.733.815-.608 1.469-1.406 1.905-2.325.435-.919.639-1.931.594-2.947-.135-2.853-2.072-4.434-4.127-6.1-2.258-1.831-4.557-3.608-6.898-5.333-4.167-3.095-8.449-6.0219-12.6828-9.0203-2.3639-1.6744-4.7819-3.7984-7.5304-4.8268-.4748-.1268-.9805-.0619-1.4079.1807-.4275.2426-.7424.6435-.877 1.1162-.1201.4747-.0521.9774.1897 1.4032.2418.4257.6387.7416 1.1079.8817z"/><path d="m86.6769 134.045c1.0353.576 2.1147 1.083 3.1965 1.565 1.2372.624 2.5424 1.102 3.8897 1.426 1.8356.429 3.7597.269 5.4993-.457.7586-.367 1.4046-.93 1.8716-1.631.467-.7.739-1.514.785-2.355-.001-.492-.197-.963-.545-1.311s-.82-.544-1.312-.546c-.4882.013-.9534.212-1.299.558s-.5453.811-.5576 1.299c.0224-.245.0286-.209-.0147.014-.024.118-.1726.366.0085.045-.0495.088-.0998.178-.147.266-.2121.397.1261-.13-.0496.057-.0889.096-.2715.238-.0649.088-.1212.087-.249.165-.3823.232-.2608.134.3614-.087-.1811.065-.1269.036-.253.072-.3814.101-.0085 0-.4643.077-.3544.067.1354-.015-.325.019-.3761.02-.3546.011-.7095.003-1.0631-.025-.2203-.017-.4387-.052-.6531-.106-.314-.067-.624-.151-.9285-.253-.4171-.14-.8249-.31-1.2311-.475.3343.139-.2762-.122-.4016-.177-.2669-.117-.5324-.238-.7978-.36-.8906-.411-1.7797-.833-2.637-1.31-.2106-.123-.4434-.204-.685-.237-.2417-.033-.4875-.018-.7234.044s-.4573.169-.6516.317c-.1943.147-.3576.332-.4807.542-.123.211-.2034.444-.2365.685-.0331.242-.0183.488.0436.724s.1697.457.3172.651c.1474.194.3317.358.5423.481z"/><path d="m71.9469 84.27c-.5123-.0511-1.0229-.113-1.5329-.1811l.4937.0666c-.7041-.096-1.4075-.2043-2.107-.3335-.4835-.1186-.994-.0518-1.4307.1872-.4252.2486-.7343.6558-.8592 1.1322s-.0555.9829.193 1.4081c.1198.2079.2796.3901.47.5362.1904.146.4077.2531.6396.315 1.3672.253 2.75.4418 4.1335.5811.2441.0006.4859-.0469.7116-.1399.2257-.0929.4309-.2294.6038-.4018.3482-.3482.5439-.8205.5439-1.313s-.1957-.9649-.5439-1.3131l-.3761-.2902c-.2843-.1662-.6077-.2538-.937-.2538z"/><path d="m125.607 106.595c-2.676 1.456-5.329 2.955-7.956 4.497-.426.248-.735.656-.86 1.132s-.055.983.193 1.408c.249.426.656.735 1.132.86.477.125.983.055 1.409-.193 2.631-1.534 5.281-3.041 7.956-4.497.422-.252.729-.659.853-1.134.125-.476.058-.981-.186-1.407-.256-.418-.663-.72-1.136-.844-.474-.125-.977-.061-1.405.178z"/><path d="m112.259 121.982c.344.293.616.661.796 1.076.11.299.178.611.203.929.036.295-.016.595-.151.861s-.346.486-.606.631c-.658.504-1.467.769-2.296.752-.238.004-.476-.006-.712-.031-.134-.012-.134-.012 0 0-.128-.022-.255-.048-.382-.077-.213-.051-.423-.115-.629-.19-.124-.047-.115-.042.027.015-.103-.048-.206-.1-.309-.155-1.732-.968-3.383-2.119-5.053-3.188-1.455-.928-2.911-1.86-4.3494-2.817-.2106-.125-.4439-.207-.6865-.242-.2425-.034-.4895-.021-.7267.041-.2372.061-.4599.169-.6553.316-.1954.148-.3597.333-.4833.545-.1236.211-.2042.445-.237.688s-.0173.489.0457.726.1722.459.3213.653c.1492.195.3353.358.5477.48 2.9032 1.934 5.8535 3.8 8.8135 5.648 1.568 1.017 3.441 1.457 5.297 1.243 2.22-.272 4.583-1.497 5.501-3.645.445-1.18.526-2.467.231-3.693-.294-1.227-.95-2.337-1.883-3.186-1.747-1.63-4.378.991-2.626 2.626z"/><path d="m91.6106 128.909c1.6466 1.083 3.297 2.166 4.9622 3.222 1.2705.955 2.7103 1.662 4.2432 2.083 2.075.503 4.265.163 6.09-.944.953-.643 1.682-1.566 2.087-2.641.405-1.076.465-2.251.173-3.362-.716-2.272-4.303-1.302-3.582.987.064.225.08.462.047.694s-.114.454-.238.653c-.264.409-.659.717-1.12.872-1.316.446-2.107.203-3.482-.117-.347-.077.287.188 0 .006-.078-.05-.167-.088-.247-.134-.26-.148-.513-.314-.7678-.471-.6964-.432-1.3928-.873-2.0892-1.316-1.4083-.902-2.8098-1.815-4.2047-2.739-.2106-.123-.4434-.203-.685-.237-.2417-.033-.4875-.018-.7235.044s-.4574.17-.6517.317c-.1944.147-.3577.332-.4808.542-.1231.211-.2036.444-.2367.685-.0332.242-.0184.488.0435.724.0618.236.1696.457.317.652.1475.194.3318.357.5424.48z"/><path d="m90.6807 88.6812c-1.4973.3335-2.9813.7265-4.4523 1.1568-1.6489.482-3.1624.8604-4.1846 2.343-1.6628 2.4126-3.2421 4.884-4.898 7.302-.2572.4288-.6426.766-1.1016.964-.4591.199-.9687.248-1.4573.141-.5231-.093-.9897-.385-1.3014-.8156-.2337-.2833-.3512-.6447-.3289-1.0113-.0364-2.7631.048-5.5402.2476-8.2964.0229-1.1322.1543-2.2595.3923-3.3667.3524-1.2217 1.141-2.2715 2.2161-2.9504 1.3158-.8532 2.699-1.5977 4.1358-2.2261 1.365-.6585 2.7353-1.3154 4.1413-1.8818 2.9799-1.3324 6.2001-2.0433 9.464-2.0892 2.221.1346 4.4337.3838 6.6293.7467 4.963.6353 9.92 1.3154 14.876 2.0002.475.1144.975.044 1.399-.1968.424-.2409.741-.6342.886-1.1001.128-.4748.063-.9808-.18-1.4084-.243-.4275-.644-.7422-1.117-.8757-4.946-.6833-9.893-1.3619-14.845-2.0026-2.3673-.3095-4.7559-.7033-7.1384-.8573-3.6831-.2375-7.4181.7877-10.8073 2.1418-1.6613.6631-3.2877 1.4075-4.9003 2.182-1.5333.668-3.0105 1.458-4.4175 2.3624-1.4571.9121-2.6351 2.2078-3.4046 3.745-.5763 1.4767-.8973 3.0406-.9494 4.6249-.2383 2.8382-.3234 5.6802-.3366 8.5277-.0739.8365.0204 1.6793.2776 2.4787.2572.799.6719 1.539 1.2197 2.176.5757.614 1.2769 1.099 2.056 1.419s1.6179.47 2.4597.438c4.0855-.112 5.8528-4.106 7.8438-7.0765.4745-.7073.9479-1.4153 1.4199-2.124.2273-.442.5032-.8572.8225-1.2381-.0581.0526-.2631.185-.0828.1115.2569-.1053.5362-.1734.8016-.2554 1.8454-.5749 3.7141-1.0833 5.6021-1.5034 2.3314-.52 1.3449-4.101-.9873-3.5818z"/><path d="m75.4724 128.085c-1.1402 1.119-1.8234 2.621-1.9166 4.216-.0389.79.0823 1.579.3562 2.321.274.741.6949 1.42 1.2377 1.995 2.2401 2.199 5.6617 1.612 8.2121.376.5693-.281 1.1226-.593 1.6574-.935.7615-.424 1.4653-.944 2.0939-1.548.7179-.766 1.2199-1.709 1.4549-2.732s.1945-2.09-.1174-3.093c-.3118-1.002-.8838-1.904-1.6577-2.613-.774-.709-1.7221-1.201-2.7479-1.425-1.6845-.338-3.1724.2-4.7022.87-1.429.626-2.7381 1.496-3.8689 2.571-.3443.35-.5372.822-.5372 1.313s.1929.963.5372 1.313c.3529.339.8235.529 1.3131.529.4897 0 .9603-.19 1.3131-.529.1803-.173.3645-.34.5564-.5.0371-.03.3095-.245.14-.115-.2081.154.2399-.169.2198-.155.4246-.295.8676-.562 1.3262-.801.2082-.109.4202-.21.633-.309.3288-.155.1207-.058.0464-.027.1099-.047.2221-.09.3335-.134.2546-.099.5123-.19.7738-.275.1099-.036.2197-.074.3312-.104.0634-.018.5238-.093.236-.065-.2693.025.3095.007.3776.008h.0696c.2115.021.1857.017-.0774-.011.0927.01.1838.031.2716.062.1664.045.568.232.2128.053.2105.108.4109.222.6105.349.2793.178.0093.011-.0387-.034.0697.064.1424.123.2105.188.0734.093.155.178.2437.256.1974.121-.1454-.248-.027-.046.1067.183.2228.358.3273.542.0673.118.0518.27-.0209-.056.0247.111.0673.228.1029.337s.0719.442.0217-.006c.0123.107.0201.214.0255.321.0108.208 0 .414-.0062.619-.0163.355-.0101.025.0077-.042-.0255.097-.0402.196-.0665.293 0 0-.1455.476-.0534.206.082-.239-.0774.146-.1021.195-.065.116-.1416.223-.2128.336-.1393.222.1888-.162-.0202.014-.0882.078-.1601.174-.2437.254-.2321.223.3528-.216-.1671.129-.4852.323-.968.647-1.4702.945-.4086.245-.8256.475-1.2558.68.0224-.011-.4929.217-.2484.115.2012-.084-.1277.047-.1733.064-.2647.098-.534.187-.8079.259-.1145.03-.2282.057-.3443.077-.0936.019-.4712.061-.1037.026-.2221.022-.4453.032-.6685.029-.1083 0-.2167-.009-.325-.016-.3645-.021-.0472-.012.0232.005-.2484-.06-.4875-.122-.7304-.202.3559.117.1315.063.0472.007-.1184-.077-.2422-.145-.3598-.224.328.221.1191.099.058.023-.0498-.048-.097-.098-.1416-.15-.0882-.103-.0609-.069.082.102-.0513-.103-.1092-.202-.1733-.297-.2492-.444.0271.192-.1215-.271-.0379-.118-.0774-.232-.1037-.355-.0224-.091-.0379-.55-.0441-.206 0-.115-.0108-.232-.01-.344 0-.098.0773-.572 0-.174.0524-.241.1185-.48.198-.714.0852-.268-.2135.327.0472-.077.0736-.115.1331-.238.2082-.352.0511-.077.2778-.347.0495-.082.1068-.124.2182-.243.3335-.359.1747-.172.3137-.376.4089-.602s.1448-.469.1458-.714c.0009-.245-.0466-.488-.14-.715-.0933-.226-.2306-.432-.404-.606-.1733-.173-.3793-.31-.6059-.404-.2267-.093-.4696-.14-.7148-.139-.2451.001-.4876.05-.7135.145s-.4308.234-.6027.409z"/><path d="m65.6388 121.897c-1.152 1.19-1.8364 2.756-1.9274 4.41-.0632 1.675.5404 3.306 1.6783 4.536 2.3453 2.393 6.0857 1.691 8.7437.321.638-.336 1.2556-.709 1.8493-1.118.8018-.477 1.5395-1.055 2.1952-1.718 1.055-1.171 1.6285-2.697 1.6056-4.273-.0247-1.427-.531-2.803-1.4368-3.905-.9058-1.103-2.1578-1.867-3.5525-2.168-1.8022-.352-3.3605.227-4.9793.984-1.5555.72-2.9704 1.712-4.1784 2.929-.3488.348-.5451.82-.5455 1.313-.0005.493.195.966.5432 1.315.3483.349.8208.545 1.3138.546.4929 0 .9659-.195 1.3147-.544.1896-.193.3869-.381.5858-.561.0902-.081.1821-.16.2754-.238.0542-.045.3614-.283.1277-.107.4496-.336.9208-.642 1.4106-.916.4124-.232 1.0415-.541 1.3371-.671.4736-.207.9659-.369 1.4702-.482-.4055.077.0773.013.2437.019.0983.004.1965.011.294.022-.4325-.045-.0944-.01.0163.024.0719.021.6144.188.4132.115-.2662-.098.1733.089.1849.095.1107.059.2151.127.3234.19.0883.05.3537.262.0511.016.0774.063.1548.128.2275.196.1478.137.2762.289.414.435-.2391-.252-.0712-.102-.0209-.017.0634.107.13.214.195.32.0301.048.181.332.0696.113-.1114-.218.0696.21.0867.271.0183.098.0421.196.0712.292.0982.232-.0101-.419.0116.077.0093.226.0247.45.0147.677-.0047.107-.0101.221-.0256.329.0542-.38.0055-.078-.017-.011-.0451.129-.083.26-.1137.393-.0387.178.1261-.189-.0418.092-.0735.124-.1439.249-.2182.372-.1548.252.1602-.179-.0333.06-.1308.173-.2835.329-.4542.464-.4929.387-1.0314.738-1.5599 1.078-.4643.295-.934.575-1.423.823-.1385.07-.2786.135-.4186.203-.041.02-.3281.137-.065.031-.2861.116-.5783.217-.8752.302-.243.07-.49.125-.7397.166.3033-.048 0 0-.0549 0-.1494.004-.2979.016-.448.016-.1169 0-.2322 0-.3513-.012-.0557 0-.4094-.058-.178-.013.2731.052-.2538-.067-.2437-.064-.1308-.034-.2562-.083-.3869-.121-.2569-.078.3165.219-.0565-.038-.0387-.027-.4047-.246-.1935-.105.2275.155-.1462-.141-.1547-.147-.2445-.199.0371.128-.0387-.031-.0696-.146-.1741-.293-.2553-.434l-.0929-.185c.0402.103.0387.096-.0046-.021-.0553-.152-.102-.307-.1401-.464-.0116-.046-.0774-.511-.0627-.302.0209.258 0-.327 0-.296 0-.045.0318-.513.0055-.282-.0295.266.0642-.284.0603-.268.0348-.141.0774-.278.1254-.415.0982-.295-.209.348.0479-.112.0704-.125.1347-.253.2105-.375.0735-.124.1536-.243.2399-.357-.1927.25.1021-.094.1547-.149.3489-.349.5451-.821.5456-1.314.0004-.493-.195-.966-.5433-1.315-.3482-.349-.8208-.545-1.3137-.545-.493-.001-.9659.194-1.3148.543z"/><path d="m57.8309 114.413c-1.2425 1.012-2.0795 2.437-2.3582 4.015s.0195 3.204.84 4.58c1.8409 2.835 5.6896 2.964 8.5959 2.003 2.9798-.984 6.5067-2.613 7.1404-6.035.3241-1.521.1013-3.107-.6291-4.479-.7716-1.356-1.9917-2.4-3.4502-2.953-1.6629-.656-3.3977-.303-5.0466.211-1.6994.503-3.2962 1.303-4.7162 2.363-.4132.26-.712.667-.8358 1.139-.1237.472-.0631.973.1696 1.402.2507.423.6579.73 1.1334.855s.981.057 1.4069-.188c.421-.328.863-.628 1.3232-.897.2646-.155.5341-.299.8086-.433.123-.06.2476-.118.3729-.176.1254-.058.1254-.056.0325-.02l.1943-.077c.528-.208 1.0665-.389 1.6133-.542.279-.077.5599-.147.8426-.211.1432-.032.2863-.065.4302-.092-.3745.07.1045-.005.195-.005.1153 0 .2322.005.3428.012-.335-.021-.0696-.013.0124.008.2226.05.4413.116.6546.197-.2987-.123.2221.137.3227.2.1006.064.1957.125.2863.195-.2801-.215.1361.143.1547.154.0828.082.4496.542.2716.285.129.192.248.39.3567.594.1741.314.0441.11.0178.032.0372.109.0774.218.1045.33.0271.111.0557.223.0774.337-.0705-.378 0 .145 0 .2.0037.239-.0092.478-.0387.715.0479-.376-.0774.264-.1022.349-.0317.107-.0673.216-.1083.321.1199-.303.0101-.036-.024.02-.058.097-.1184.199-.1741.298-.2112.375.171-.127-.1447.189-.8957.763-1.922 1.358-3.0293 1.755-.2708.119-.9115.352-1.3417.479-.2621.077-.527.144-.7947.201-.1331.028-.267.055-.4008.077.2321-.037-.1432.013-.2174.017-.2965.015-.5935.015-.8899 0-.048 0-.3668-.043-.0774 0-.1222-.018-.2453-.045-.3652-.073-.2344-.052-.4642-.123-.6871-.212.0952.039.2383.142-.0279-.031-.1176-.077-.2414-.14-.3582-.218-.2322-.155.1818.184-.0085-.015-.0929-.097-.1935-.186-.2794-.29.274.332-.1408-.331-.1153-.267-.2318-.489-.3101-1.037-.2243-1.572.0239-.309-.0573.242.0123-.057.0348-.148.0774-.294.1138-.442.0688-.309.0449-.166 0-.063.07-.166.1523-.326.246-.479.0604-.103.1262-.202.1912-.302.2561-.395-.185.143.1547-.184.2167-.208.4194-.417.6539-.607.345-.35.5384-.822.5384-1.313s-.1934-.963-.5384-1.313c-.3553-.337-.8268-.523-1.3162-.521-.4894.003-.959.194-1.3108.534z"/><path d="m53.6337 117.831 2.9814.626c.4836.121.9948.054 1.4315-.186.2106-.123.3949-.287.5424-.481s.2553-.416.3171-.652c.0619-.236.0767-.482.0435-.723-.0332-.242-.1137-.475-.2368-.685-.245-.418-.6435-.723-1.1104-.852l-2.9813-.626c-.4835-.12-.9946-.053-1.4308.188-.4252.248-.7342.656-.8592 1.132-.1249.476-.0555.983.193 1.408.2443.418.6427.723 1.1096.851z"/></g></svg>