<svg width="140" height="110" viewBox="0 0 140 110" fill="none" xmlns="http://www.w3.org/2000/svg">
<g clip-path="url(#clip0_1171_88133)">
<path d="M61.8891 73.8598C58.3003 74.8013 55.6479 75.6811 55.6479 75.6811C48.6725 77.1649 43.9425 72.3642 43.9816 67.9867C44.0891 64.7143 44.5523 61.4634 45.363 58.2917C46.4375 54.4443 47.2043 47.6733 47.2043 38.2859C46.7457 24.4358 50.3805 14.3918 56.1096 8.8932C59.5633 5.57846 67.3459 1.06255 76.0899 1.06255C80.4426 0.993723 84.7629 1.82342 88.7821 3.50004L89.9167 3.96196L92.2231 5.21718C94.2805 6.33704 94.8299 7.19012 96.7203 9.01846C101.092 13.2469 104.129 20.8547 104.615 27.6675C104.754 29.633 105.075 34.7466 104.766 38.2859C104.921 49.9816 107.072 56.528 108.182 59.75C109.056 62.0944 109.512 64.5741 109.53 67.0765C109.57 71.454 104.143 77.1227 97.904 74.8791C97.904 74.8791 83.2613 71.7986 75.8522 71.6175C71.8163 71.5186 66.1824 72.7334 61.8891 73.8598Z" fill="#1A5E9D"/>
<path d="M57.3346 74.9917C57.7414 74.8528 64.4262 71.7183 64.5682 71.6677C66.6818 70.9025 66.5981 69.5405 66.8646 68.0163C67.0875 66.8071 67.2328 65.5848 67.2995 64.357C64.535 62.9698 62.1036 60.9979 60.1728 58.5775C58.1091 56.0343 56.6208 53.0722 55.8107 49.896L55.5542 49.9202C54.239 50.2498 53.2026 49.5861 52.4692 48.9998C51.5493 48.2169 50.8089 47.2441 50.2986 46.1479C49.2175 43.9788 48.752 41.5534 48.9532 39.1369C48.9812 38.5194 49.1384 37.9146 49.4144 37.3618C49.6524 36.9607 49.977 36.6183 50.3645 36.3597C50.752 36.101 51.1924 35.9328 51.6533 35.8675C52.1228 35.7986 52.6015 35.8322 53.0569 35.9657C53.5123 36.0993 53.9336 36.3298 54.2921 36.6414L54.9387 37.1077C59.2951 33.0305 66.5564 26.1733 70.4626 22.3272C70.1903 24.6333 68.7436 29.5135 70.2785 29.056C76.7322 27.2101 81.9286 23.426 86.0207 18.0908C86.88 20.9595 87.9646 25.0231 88.9619 26.8976C90.3284 29.4661 94.1715 36.3557 98.1084 37.8909C98.4508 37.4095 98.9204 37.0333 99.4644 36.8047C100.008 36.576 100.605 36.504 101.188 36.5966C101.648 36.6617 102.089 36.8296 102.476 37.0878C102.864 37.346 103.188 37.6881 103.427 38.0887C103.703 38.6416 103.86 39.2466 103.888 39.8643C104.089 42.2808 103.623 44.7061 102.542 46.8753C102.033 47.9716 101.293 48.9447 100.374 49.7281C99.6068 50.3434 98.2206 50.2995 97.2574 50.4687C97.0711 51.1227 96.88 51.6641 96.7787 51.9713C96.0246 54.0234 91.7839 61.3306 86.4639 63.9478C86.5227 65.3123 86.6722 66.6713 86.9115 68.0159C87.1781 69.5401 87.0948 70.9021 89.2079 71.6673C89.3477 71.7178 95.3416 74.5764 95.5555 74.6647C95.5555 74.6647 86.7436 83.5163 74.9343 83.5163C71.5437 83.552 68.1908 82.801 65.1377 81.3222C62.0846 79.8434 59.4139 77.6768 57.3346 74.9917Z" fill="white"/>
<path d="M99.2936 38.1165C100.242 37.3069 101.897 37.4951 102.519 38.6211C102.814 39.3198 102.939 40.0793 102.883 40.8362C102.895 41.6836 102.815 42.5299 102.646 43.3602C102.342 44.9908 101.681 46.5336 100.711 47.8775C100.372 48.4127 99.8841 48.8368 99.3077 49.0971C98.5855 49.2702 97.85 49.3817 97.1091 49.4302C96.841 49.5061 96.6135 49.6848 96.4759 49.9277C96.3384 50.1706 96.3019 50.458 96.3743 50.7277C96.4545 50.9935 96.6336 51.2182 96.8745 51.3553C97.1154 51.4924 97.3997 51.5314 97.6685 51.4643C98.3559 51.4049 99.0395 51.3076 99.7162 51.1729C100.491 50.9551 101.188 50.5192 101.724 49.9168C102.848 48.6776 103.695 47.2109 104.206 45.6158C104.784 43.9567 105.046 42.2033 104.978 40.4472C104.907 38.7367 104.492 37.1114 102.961 36.1484C102.163 35.6687 101.233 35.4563 100.306 35.542C99.3786 35.6276 98.5029 36.0069 97.8052 36.6248C97.6101 36.8238 97.5007 37.0916 97.5007 37.3707C97.5007 37.6497 97.6101 37.9176 97.8052 38.1165C98.0053 38.3091 98.2719 38.4166 98.5492 38.4166C98.8266 38.4166 99.0932 38.3091 99.2932 38.1165H99.2936Z" fill="#1A5E9D"/>
<path d="M96.7025 47.6189C96.647 48.5764 96.4684 49.5227 96.1712 50.4344C96.0659 50.786 95.952 51.1332 95.834 51.4804C95.7981 51.589 95.5863 52.1063 95.7231 51.803C95.2942 52.7395 94.8063 53.6478 94.2623 54.5222C92.7047 57.1519 90.716 59.4995 88.3798 61.4664C87.1309 62.5259 85.6575 63.286 84.0716 63.689C82.7525 63.9935 83.3106 66.028 84.631 65.723C87.9375 64.9591 90.6893 62.5353 92.8485 60.0209C94.7045 57.9249 96.2571 55.5775 97.4605 53.0477C98.2527 51.3413 98.7098 49.4981 98.8068 47.6185C98.8507 46.2604 96.7463 46.2626 96.7025 47.6189Z" fill="#1A5E9D"/>
<path d="M55.0363 35.896C54.401 35.3361 53.6182 34.9716 52.7817 34.846C51.9451 34.7205 51.0901 34.8392 50.3191 35.1879C48.6308 35.9562 48.0127 37.5819 47.8864 39.3298C47.6422 42.7057 48.6821 46.5263 50.9947 49.0556C52.2472 50.426 53.9482 51.3468 55.832 50.9371C57.1547 50.6493 56.5949 48.6152 55.2726 48.9031C53.9504 49.191 52.7224 47.9801 52.0254 47.0027C51.1032 45.6603 50.4732 44.1385 50.1762 42.536C50.0197 41.7362 49.9463 40.9223 49.957 40.1073C49.9004 39.3505 50.0253 38.5911 50.3213 37.8926C50.9425 36.7666 52.5984 36.5785 53.5462 37.3877C53.747 37.5797 54.0139 37.6869 54.2915 37.6869C54.569 37.6869 54.8359 37.5797 55.0368 37.3877C55.2319 37.1887 55.3412 36.9208 55.3412 36.6418C55.3412 36.3628 55.2314 36.095 55.0363 35.896Z" fill="#1A5E9D"/>
<path d="M53.8291 44.9238C54.1694 48.2679 55.0427 51.5357 56.4157 54.6025C58.2761 58.501 61.1737 61.8091 64.7892 64.1626C66.6448 65.3931 68.7405 66.2134 70.9369 66.5689C71.2057 66.6342 71.4892 66.5943 71.7296 66.4573C71.9701 66.3204 72.1494 66.0967 72.2311 65.8319C72.3033 65.5622 72.2667 65.2749 72.1292 65.0321C71.9917 64.7893 71.7643 64.6105 71.4963 64.5344C67.7607 63.9789 64.5919 61.8064 62.0404 59.1004C59.4516 56.3217 57.6205 52.9213 56.7234 49.2269C56.5205 48.431 56.3521 47.6263 56.2118 46.8167C56.1513 46.4651 56.0958 46.1135 56.0452 45.7619C56.0347 45.6894 56.0246 45.6164 56.0145 45.5421C55.9659 45.1905 56.0395 45.7421 55.9961 45.4055C55.9757 45.2443 55.9557 45.0832 55.9361 44.922C55.9276 44.6449 55.814 44.3815 55.6185 44.1855C55.423 43.9895 55.1603 43.8757 54.8839 43.8672C54.6053 43.8688 54.3387 43.9805 54.1417 44.1779C53.9447 44.3754 53.8333 44.6427 53.8317 44.922L53.8291 44.9238Z" fill="#1A5E9D"/>
<path d="M85.0821 18.6281C86.0212 21.7961 86.7594 25.1702 88.4026 28.0652C89.866 30.7288 91.684 33.1804 93.8068 35.3526C94.9454 36.58 96.3558 37.522 97.9243 38.1026C99.2176 38.5153 99.7713 36.479 98.4837 36.0681C97.3591 35.6228 96.3433 34.9402 95.5052 34.0666C94.4299 33.0174 93.45 31.8742 92.5771 30.6508C90.9909 28.5738 89.7329 26.2646 88.8471 23.8042C88.2106 21.9103 87.6792 19.9827 87.111 18.0673C86.7261 16.769 84.6946 17.3202 85.0821 18.6281Z" fill="#1A5E9D"/>
<path d="M85.2644 17.36C82.932 20.4534 80.0438 23.0829 76.7484 25.1133C75.1353 26.0849 73.4275 26.889 71.6515 27.513C71.2158 27.6657 70.7763 27.8079 70.3333 27.9398C70.2185 27.9608 70.1062 27.9938 69.9983 28.0382C69.876 28.1195 70.0259 28.0202 70.0965 28.0303C70.2147 28.0388 70.3297 28.0727 70.4337 28.1297C70.445 28.1362 70.7454 28.4742 70.6388 28.3274C70.7958 28.5437 70.6511 28.4259 70.6423 28.2769C70.6309 28.091 70.6458 28.2958 70.6476 28.3248C70.6441 28.2672 70.6375 28.2083 70.6375 28.149C70.636 27.8349 70.6517 27.5209 70.6844 27.2085C70.8444 25.7014 71.3144 23.9465 71.5143 22.3251C71.6314 21.3732 70.3113 20.9952 69.7169 21.578C65.4893 25.7388 61.1987 29.8653 56.6147 33.6327C56.4192 33.8315 56.3096 34.0995 56.3096 34.3788C56.3096 34.658 56.4192 34.926 56.6147 35.1248C56.815 35.3169 57.0815 35.4241 57.3587 35.4241C57.6359 35.4241 57.9024 35.3169 58.1027 35.1248C62.6866 31.3569 66.9773 27.2304 71.2048 23.0701L69.4073 22.3229C69.3674 22.6446 69.4262 22.2043 69.3955 22.4073C69.3815 22.5011 69.3669 22.5944 69.3517 22.6873C69.3254 22.8467 69.2976 23.0061 69.2684 23.1655C69.1895 23.5992 69.1044 24.0322 69.0207 24.4651C68.8532 25.3353 68.6923 26.2073 68.5906 27.0885C68.478 27.7334 68.5031 28.3949 68.6642 29.0293C68.7736 29.4078 69.025 29.7292 69.3656 29.9258C69.7062 30.1225 70.1096 30.1793 70.4911 30.0841C72.5633 29.5564 74.5575 28.7585 76.4227 27.7108C78.2977 26.7113 80.0634 25.5182 81.691 24.1508C83.5656 22.5755 85.2628 20.7995 86.7524 18.8544C86.9414 18.6523 87.0466 18.3856 87.0466 18.1085C87.0466 17.8315 86.9414 17.5648 86.7524 17.3627C86.5542 17.1666 86.2869 17.0566 86.0084 17.0566C85.7299 17.0566 85.4626 17.1666 85.2644 17.3627V17.36Z" fill="#1A5E9D"/>
<path d="M89.0606 2.48246C84.5796 0.659659 79.7599 -0.175392 74.9286 0.033977C69.9929 0.310338 65.1877 1.72634 60.8879 4.17147C57.6674 5.90676 54.8651 8.32801 52.6779 11.2651C50.4567 14.432 48.8257 17.9759 47.8638 21.7253C46.3938 27.0969 45.9751 32.7357 46.1509 38.2862C46.1947 39.6403 48.2991 39.6465 48.2553 38.2862C47.9878 29.8478 49.0286 20.721 53.7068 13.4793C55.4746 10.7734 57.8196 8.49482 60.5727 6.80806C64.3973 4.3731 68.716 2.82501 73.2136 2.27677C78.4157 1.74823 83.6675 2.51827 88.5008 4.51824C88.7701 4.5908 89.0571 4.55397 89.2996 4.41574C89.542 4.27752 89.7203 4.04904 89.7958 3.77987C89.8631 3.51027 89.8243 3.22503 89.6874 2.98336C89.5505 2.74169 89.3261 2.56259 89.0606 2.48246Z" fill="#1A5E9D"/>
<path d="M105.82 38.2858C105.994 35.7557 106.002 33.217 105.846 30.6858C105.781 28.4224 105.559 26.1663 105.181 23.9337C104.22 18.799 102.117 13.6546 98.7367 9.63799C97.8564 8.5924 96.8489 7.65318 95.8827 6.68847C94.9582 5.75021 93.9056 4.94818 92.7564 4.30636C91.5688 3.6515 90.5061 5.4728 91.6942 6.12766C92.6083 6.626 93.4493 7.24883 94.1931 7.97842C95.0484 8.81655 95.923 9.65381 96.731 10.5377C98.3155 12.3304 99.6233 14.351 100.611 16.5321C101.694 18.8512 102.501 21.2899 103.016 23.7979C103.415 25.8967 103.65 28.0235 103.718 30.1589C103.9 32.8647 103.9 35.5799 103.718 38.2858C103.72 38.5649 103.831 38.832 104.028 39.0293C104.225 39.2267 104.492 39.3385 104.77 39.3406C105.047 39.3349 105.312 39.222 105.508 39.0254C105.704 38.8288 105.817 38.5638 105.822 38.2858H105.82Z" fill="#1A5E9D"/>
<path d="M46.1506 38.2857C46.1506 42.1322 46.0348 45.9836 45.6863 49.8152C45.4916 52.3894 45.0936 54.944 44.496 57.4551C43.6708 60.5788 43.1568 63.7769 42.9616 67.0024C42.8503 68.2942 43.0222 69.5948 43.4653 70.8129C43.9669 72.0895 44.7428 73.2395 45.738 74.1813C48.4855 76.7691 52.318 77.4402 55.9287 76.6983C56.1978 76.624 56.4265 76.4455 56.5643 76.2021C56.7021 75.9588 56.7379 75.6705 56.6637 75.4007C56.5895 75.1309 56.4115 74.9017 56.1687 74.7635C55.926 74.6254 55.6384 74.5895 55.3693 74.6639C52.635 75.226 49.6153 74.7856 47.4684 72.9094C46.6224 72.1813 45.9485 71.2736 45.4956 70.2521C45.0811 69.1965 44.9353 68.054 45.0712 66.9277C45.264 63.9161 45.7511 60.9308 46.5254 58.0146C47.1052 55.5751 47.5031 53.0958 47.7157 50.5971C48.1256 46.5097 48.2531 42.3924 48.2549 38.2843C48.2549 36.9272 46.1506 36.925 46.1506 38.2843V38.2857Z" fill="#1A5E9D"/>
<path d="M103.716 38.2853C103.803 44.5109 104.433 50.7958 106.143 56.799C106.77 59.0027 107.656 61.1378 108.116 63.3872C108.295 64.273 108.407 65.1711 108.451 66.0739C108.508 66.7388 108.486 67.4082 108.386 68.0679C108.125 69.2676 107.571 70.3834 106.772 71.3141C105.812 72.4928 104.554 73.3913 103.129 73.9155C101.524 74.4658 99.7787 74.4467 98.1858 73.8614C98.0525 73.8246 97.9133 73.8145 97.7762 73.8316C97.639 73.8487 97.5065 73.8927 97.3863 73.9611C97.2661 74.0295 97.1606 74.121 97.0756 74.2303C96.9907 74.3397 96.9281 74.4647 96.8914 74.5983C96.8546 74.7319 96.8445 74.8714 96.8616 75.0089C96.8786 75.1464 96.9225 75.2792 96.9908 75.3997C97.059 75.5202 97.1503 75.626 97.2593 75.7112C97.3684 75.7963 97.4931 75.8591 97.6263 75.8959C99.2093 76.4323 100.904 76.5463 102.545 76.2268C104.185 75.9073 105.714 75.1653 106.981 74.0737C108.119 73.136 109.044 71.9666 109.696 70.6429C110.353 69.2837 110.652 67.7783 110.565 66.2703C110.47 64.2558 110.108 62.2629 109.489 60.344C109.196 59.4211 108.865 58.51 108.575 57.5857C107.874 55.3336 107.318 53.0388 106.91 50.7154C106.213 46.6083 105.849 42.4513 105.823 38.2853C105.803 36.929 103.699 36.9251 103.718 38.2853H103.716Z" fill="#1A5E9D"/>
<path d="M66.2249 64.7095C66.1544 65.6904 66.0342 66.6671 65.865 67.6358C65.7914 68.2281 65.6865 68.8161 65.5507 69.3973C65.5058 69.6081 65.416 69.8067 65.2873 69.9795C65.1587 70.1522 64.9943 70.295 64.8054 70.3981C64.492 70.5639 64.17 70.7131 63.8409 70.845C62.1662 71.6084 60.5029 72.3974 58.8313 73.1682C58.3993 73.3672 57.967 73.5651 57.5345 73.762C57.3801 73.8319 57.2254 73.9005 57.0711 73.9699C56.794 74.0943 57.3034 73.8864 57.0579 73.9743C56.7927 74.0546 56.5685 74.2341 56.4317 74.4757C56.2949 74.7172 56.256 75.0022 56.3232 75.2717C56.3993 75.5402 56.5777 75.7679 56.8198 75.9057C57.0619 76.0435 57.3483 76.0803 57.6173 76.0083C58.2749 75.7719 58.9146 75.44 59.5502 75.1478C60.5782 74.6749 61.6047 74.1993 62.63 73.7212C63.3876 73.3695 64.1453 73.0179 64.9032 72.6663C64.9435 72.6474 65.0584 72.6197 65.0855 72.5837C65.0781 72.5934 64.6831 72.7441 64.9277 72.654C65.0478 72.6101 65.1653 72.5587 65.2824 72.5086C65.506 72.4172 65.7222 72.3086 65.929 72.1838C66.6188 71.7562 67.1511 71.1152 67.4455 70.3576C67.653 69.7262 67.792 69.0741 67.8602 68.4128C68.0627 67.1822 68.2477 65.9542 68.3324 64.7091C68.3324 64.4294 68.2215 64.1611 68.0242 63.9632C67.8269 63.7654 67.5592 63.6543 67.2802 63.6543C67.0011 63.6543 66.7335 63.7654 66.5362 63.9632C66.3389 64.1611 66.228 64.4294 66.228 64.7091L66.2249 64.7095Z" fill="#1A5E9D"/>
<path d="M85.4192 64.1482C85.5191 65.9501 85.7437 67.7429 86.0912 69.5137C86.2205 70.2237 86.5366 70.8863 87.0067 71.4329C87.4768 71.9796 88.084 72.3905 88.7655 72.6232C89.1816 72.7889 88.5025 72.4913 88.7979 72.6329C88.9097 72.6869 89.0228 72.7379 89.1346 72.7902C89.488 72.9563 89.8411 73.1232 90.1938 73.2908C91.1498 73.7435 92.1057 74.1969 93.0614 74.6511C93.7133 74.9587 94.36 75.2923 95.0242 75.574C95.2671 75.7061 95.5511 75.7404 95.8184 75.6701C96.0858 75.5999 96.3164 75.4302 96.4634 75.1956C96.6025 74.9536 96.6409 74.6664 96.5702 74.3963C96.4996 74.1261 96.3256 73.8947 96.086 73.7523C94.6783 73.1506 93.3087 72.4399 91.9251 71.7842C91.2539 71.4655 90.5849 71.1403 89.9084 70.8318C89.5578 70.6963 89.2178 70.5347 88.8913 70.3483C88.726 70.2484 88.5825 70.1159 88.4695 69.959C88.3565 69.802 88.2763 69.6238 88.2337 69.435C88.0735 68.7743 87.9533 68.1044 87.8738 67.4291C87.6952 66.342 87.5781 65.2456 87.5231 64.1452C87.4529 62.7941 85.3481 62.7862 85.4187 64.1452L85.4192 64.1482Z" fill="#1A5E9D"/>
<path d="M108.29 153.945H44.645L44.6998 153.638L44.8313 152.898C44.9949 151.873 48.6086 134.64 48.5968 129.525C48.5968 128.94 48.5152 126.581 48.4013 123.758L48.2141 124.026L45.6301 128.109C44.8962 129.685 42.7476 132.661 41.0518 134.593C39.3351 136.548 39.0216 137.117 36.6332 138.995C32.8984 141.931 28.143 143.145 23.556 140.189C19.0685 137.297 18.1329 132.614 16.6042 128.226C13.5946 119.589 10.8519 105.557 10.25 101.155C12.3504 100.32 24.065 96.2024 25.3684 96.165C25.8918 97.2524 28.0667 104.081 30.0444 110.043C30.5528 108.242 31.1716 106.473 31.8971 104.748C33.3802 100.032 34.7388 93.4744 35.816 90.4036C36.7897 87.6281 38.8357 84.3072 40.8195 82.5984C45.5008 79.1606 54.4591 75.9206 60.8668 73.5732C60.8668 73.5732 60.9519 73.542 61.1119 73.4813C62.1162 72.0838 63.271 70.8015 64.5556 69.6577C65.8769 73.2801 66.9059 75.8626 68.4942 79.3755C71.5429 86.1193 74.5499 92.5919 77.5806 99.2192C82.56 91.1587 87.3167 78.1959 88.8134 69.248C90.1736 70.2576 91.3788 71.4617 92.3903 72.8221C98.4134 75.4036 104.296 78.3037 110.012 81.5102C111.143 82.1255 112.389 82.7764 113.286 83.3399C113.859 83.6522 114.406 84.0087 114.923 84.4061C116.658 85.8596 118.062 88.6728 118.769 91.2057C119.853 95.0861 123.881 113.318 125.054 120.064C126.168 126.472 126.664 134.032 123.548 136.637C121.253 138.593 118.085 139.266 115.077 139.101C112.024 138.934 109.071 137.987 106.16 137.059C106.1 136.268 107.728 149.717 108.164 152.939L108.31 153.944" fill="white"/>
<path d="M71.8037 79.072C70.5107 78.9062 69.2448 78.5725 68.0378 78.0792L67.9062 78.0598C68.0927 78.4844 68.2881 78.9226 68.4924 79.3744C71.5411 86.1182 74.5481 92.5907 77.5788 99.2185C81.1653 93.417 84.5235 85.0093 86.6818 77.4155C83.9308 79.4917 76.7769 79.8341 71.8037 79.072Z" fill="#79C6E0"/>
<path d="M45.7149 153.917C46.2814 150.716 46.9605 147.534 47.5532 144.336C48.0205 141.815 48.4677 139.289 48.8587 136.755C49.2233 134.629 49.4795 132.486 49.6264 130.335C49.6943 128.998 49.6014 127.649 49.5523 126.313C49.4646 123.958 49.3671 121.603 49.2599 119.249C49.0999 115.719 48.9622 112.196 48.48 108.693C47.8048 103.79 47.0021 98.8809 45.9986 94.0336C45.9236 93.6719 45.846 93.3106 45.7619 92.9506C45.4523 91.6295 43.423 92.1885 43.7325 93.5114C44.8057 98.0937 45.4966 102.799 46.191 107.451C46.3603 108.583 46.4791 109.404 46.5983 110.395C46.6689 110.985 46.7215 111.576 46.7711 112.167C46.9201 113.943 46.9903 115.727 47.0744 117.508C47.2643 121.469 47.5071 125.444 47.5435 129.411C47.5105 131.127 47.3542 132.838 47.0757 134.531C46.722 137.036 46.2945 139.531 45.8451 142.02C45.2108 145.536 44.4637 149.034 43.8285 152.552C43.7798 152.819 43.7342 153.088 43.6869 153.356C43.6204 153.625 43.6596 153.91 43.7963 154.151C43.933 154.393 44.1568 154.572 44.4216 154.653C44.6906 154.725 44.9771 154.688 45.2192 154.55C45.4613 154.413 45.6397 154.185 45.7158 153.916L45.7149 153.917Z" fill="#1A5E9D"/>
<path d="M92.5089 74.0078C96.2748 75.6186 99.9679 77.388 103.601 79.2774C106.895 80.9915 110.239 82.6862 113.402 84.6337C113.66 84.7919 113.923 84.9488 114.164 85.1303C114.01 85.0143 114.18 85.151 114.234 85.1993C114.404 85.3527 114.572 85.507 114.731 85.6709C115.28 86.2614 115.756 86.9166 116.147 87.6223C116.896 88.9461 117.468 90.3631 117.848 91.8367C118.331 93.6387 118.745 95.4587 119.163 97.2756C120.42 102.712 121.61 108.164 122.732 113.63C123.875 119.186 125.238 124.945 124.779 130.65C124.716 131.974 124.409 133.276 123.874 134.488C123.652 134.981 123.329 135.422 122.926 135.781C122.289 136.339 121.569 136.794 120.791 137.129C117.218 138.734 113.139 138.023 109.521 136.989C108.531 136.706 107.548 136.394 106.569 136.082C105.275 135.67 104.722 137.706 106.01 138.116C110.072 139.41 114.257 140.649 118.556 139.958C120.458 139.673 122.261 138.921 123.804 137.77C124.954 136.876 125.8 135.648 126.228 134.254C127.306 131.027 127.053 127.339 126.679 124.014C126.368 121.253 125.857 118.524 125.317 115.802C124.194 110.144 122.966 104.506 121.691 98.8806C121.193 96.6831 120.692 94.4891 120.145 92.3048C119.439 89.492 118.422 86.6862 116.487 84.4711C115.563 83.4123 114.364 82.7306 113.163 82.0349C111.356 80.988 109.497 80.0224 107.656 79.0362C104.029 77.0918 100.362 75.223 96.6128 73.5239C95.6042 73.0665 94.5902 72.6203 93.5708 72.1852C93.3278 72.053 93.0438 72.0186 92.7764 72.0889C92.5091 72.1592 92.2785 72.3289 92.1315 72.5636C91.9925 72.8056 91.9542 73.0927 92.0249 73.3629C92.0955 73.633 92.2694 73.8644 92.5089 74.0069V74.0078Z" fill="#1A5E9D"/>
<path d="M78.6085 99.5547C80.7579 95.9416 82.621 92.1649 84.1806 88.2594C85.8369 84.2559 87.2411 80.1523 88.3849 75.9726C88.9614 73.848 89.4603 71.7011 89.8273 69.5295L88.2815 70.1602C91.2164 72.4638 93.3883 75.6028 94.5125 79.1656C94.6075 79.4803 94.693 79.7976 94.769 80.1176C94.7992 80.3968 94.8536 80.6728 94.9316 80.9425C94.8628 80.9087 95.3455 80.5562 94.8773 80.8076C94.7637 80.8687 94.6471 80.9232 94.5322 80.9834C94.21 81.1469 93.89 81.3165 93.5678 81.484C92.3661 82.1107 93.4288 83.932 94.6296 83.3053C95.2723 82.9704 96.1017 82.6856 96.5954 82.1358C97.2153 81.4458 97.0197 80.5536 96.8365 79.7317C96.4773 78.1939 95.925 76.7079 95.1929 75.3094C93.807 72.5636 91.8041 70.1779 89.342 68.3402C89.2026 68.2595 89.0466 68.2118 88.886 68.2007C88.7254 68.1897 88.5644 68.2155 88.4153 68.2763C88.2662 68.3371 88.1329 68.4312 88.0256 68.5515C87.9183 68.6718 87.8398 68.8151 87.7962 68.9704C87.0916 72.9139 86.0863 76.7973 84.7891 80.5865C83.4365 84.6986 81.8213 88.7191 79.9535 92.6232C78.9891 94.6265 77.9465 96.5942 76.7896 98.4933C76.0816 99.6553 77.9009 100.716 78.6068 99.5582L78.6085 99.5547Z" fill="#1A5E9D"/>
<path d="M71.089 99.9685C69.2258 98.0421 67.3271 96.1448 65.5406 94.1464C64.7733 93.2879 64.0307 92.4089 63.3126 91.5093C62.9034 90.9986 62.5011 90.4832 62.1057 89.9632C61.8686 89.652 61.6329 89.3398 61.3985 89.0266C61.1742 88.6671 60.9216 88.3261 60.6431 88.0069C60.612 87.9595 60.5782 87.9139 60.5419 87.8702L60.5515 88.09L60.6317 87.9621C60.7701 87.7882 60.8972 87.6056 61.0123 87.4154C61.2275 87.1218 61.4612 86.844 61.6979 86.5658C62.324 85.8353 62.9882 85.1383 63.6431 84.4338C64.1328 83.9064 64.0035 82.8076 63.1789 82.6705C62.7637 82.6019 58.3564 81.7211 58.3398 81.7761C58.375 81.7982 58.4047 81.8282 58.4263 81.8637C58.448 81.8992 58.4612 81.9394 58.4647 81.9809C58.4655 81.9087 58.4767 81.8371 58.498 81.7682C58.5463 81.5995 58.5821 81.4274 58.6054 81.2535C58.6844 80.9081 58.7739 80.5652 58.8742 80.2251C59.095 79.4709 59.3673 78.7328 59.6892 78.0161C61.0079 75.1126 62.9196 72.5187 65.3007 70.4021L63.5419 69.9367C65.5954 75.5584 68.0627 80.9832 70.5533 86.4208C73.1789 92.1545 75.8299 97.8764 78.4362 103.619C79.6997 106.403 81.0417 109.131 81.242 112.234C81.4323 115.178 81.2902 118.13 81.288 121.077C81.2841 126.776 81.452 132.475 81.6545 138.17C81.8374 143.306 82.103 148.447 82.1061 153.588C82.1061 154.945 84.2104 154.947 84.2104 153.588C84.2074 149.111 83.9947 144.635 83.8308 140.163C83.6221 134.463 83.4323 128.763 83.3981 123.059C83.3797 120.079 83.4884 117.096 83.4178 114.117C83.4245 112.559 83.2763 111.003 82.9755 109.474C82.6095 108.021 82.1047 106.606 81.4682 105.25C78.9093 99.4283 76.1885 93.6748 73.5331 87.8962C70.7273 81.7831 67.8777 75.7021 65.5699 69.3781C65.5172 69.2031 65.4207 69.0445 65.2895 68.9175C65.1583 68.7905 64.9968 68.6993 64.8205 68.6526C64.6442 68.606 64.4588 68.6054 64.2822 68.6509C64.1056 68.6964 63.9435 68.7865 63.8115 68.9127C61.0023 71.4215 58.8105 74.5481 57.4077 78.0478C57.0734 78.8799 56.8021 79.7361 56.5962 80.6092C56.3696 81.5853 56.153 82.587 56.9619 83.3609C57.648 84.0175 58.9079 84.0356 59.8005 84.2052C60.7384 84.3834 61.6781 84.5507 62.6195 84.7071L62.1552 82.9443C60.989 84.1982 59.7335 85.4424 58.815 86.8998C58.5352 87.2949 58.4183 87.783 58.4888 88.2623C58.613 88.7409 58.8489 89.1831 59.1771 89.5522C59.6892 90.2417 60.2072 90.927 60.7313 91.6082C62.3358 93.6924 64.0479 95.6911 65.8606 97.596C67.0965 98.8952 68.3529 100.175 69.5993 101.464C70.5441 102.44 72.0311 100.947 71.0872 99.9694L71.089 99.9685Z" fill="#1A5E9D"/>
<path d="M67.5066 78.9901C69.8336 80.0348 72.4978 80.3157 75.0186 80.4475C77.915 80.6457 80.8247 80.4299 83.6605 79.8067C84.9309 79.5532 86.1386 79.0502 87.2142 78.3265C87.4488 78.1795 87.6185 77.9482 87.6887 77.6799C87.7588 77.4116 87.7241 77.1266 87.5916 76.8831C87.4494 76.6431 87.2186 76.4688 86.9492 76.398C86.6797 76.3272 86.3934 76.3655 86.1519 76.5047C85.362 77.0746 84.4613 77.4714 83.5083 77.6694C82.3201 77.9779 81.1067 78.1789 79.8827 78.2702C77.208 78.5068 74.5148 78.4227 71.8599 78.0197C71.2124 77.9147 70.568 77.7863 69.9336 77.6184C69.6705 77.549 69.411 77.473 69.1537 77.3872C69.0221 77.3433 68.888 77.2958 68.7569 77.2457L68.6315 77.1965C68.3593 77.0893 68.8249 77.2844 68.568 77.1684C68.3251 77.0356 68.0408 77.0008 67.7732 77.0711C67.5056 77.1414 67.2749 77.3116 67.1282 77.5468C66.9895 77.7889 66.9514 78.0759 67.022 78.346C67.0926 78.616 67.2664 78.8474 67.5057 78.9901H67.5066Z" fill="#1A5E9D"/>
<path d="M23.6601 96.5693C20.5282 97.4804 14.1906 99.6928 11.3581 100.735L11.1336 100.106C10.6733 98.5681 10.4392 97.1345 9.49748 95.8458C8.55579 94.5572 7.35763 93.3653 6.32212 92.165C3.14807 88.485 1.47249 82.7095 1.24277 81.3927C1.07179 80.7467 0.966571 79.0678 1.36114 78.5272C1.51578 78.2733 1.72094 78.0541 1.96381 77.8832C2.20669 77.7123 2.48207 77.5934 2.7728 77.5339C3.50245 77.4803 4.23228 77.6357 4.87714 77.9822L5.35587 78.3004C5.34184 78.2261 5.33132 78.1518 5.32212 78.0771C5.23797 77.5583 5.29977 77.0263 5.50058 76.5407C5.70139 76.0552 6.03325 75.6354 6.4589 75.3285C6.9635 75.0138 8.43172 74.8534 9.24934 75.7302C9.16561 75.2151 9.10379 74.8336 9.10379 74.8336C9.00208 74.2051 8.90388 72.4603 9.66846 71.7201C10.33 71.078 11.6321 70.5867 12.2485 70.86C12.7192 71.0526 13.1617 71.3084 13.5637 71.6204C13.5198 71.4885 13.497 71.4142 13.497 71.4142C12.3366 67.7664 11.1025 63.3348 10.7719 61.9548C10.4567 60.6398 10.0003 58.2269 11.3624 57.5786C12.9512 56.8223 13.8548 57.6389 14.6281 58.5508C16.0341 60.2082 21.0165 76.2189 20.4063 74.9685C20.4238 74.9685 20.4409 74.9725 20.4536 74.9725L20.6509 74.9988C20.7518 75.0164 20.8526 75.0296 20.9534 75.0516C21.02 75.0605 21.0858 75.0737 21.1507 75.0911C21.2208 75.1043 21.291 75.1219 21.3611 75.1395C21.497 75.1702 21.6286 75.2098 21.7601 75.2494C22.0858 75.3497 22.398 75.4899 22.6895 75.6669C22.7299 75.6861 22.7682 75.7097 22.8035 75.7372C23.1232 75.9406 23.4014 76.2031 23.6233 76.5107C24.7412 78.0842 25.1314 80.2421 25.298 81.7496C25.3816 83.0787 25.1549 84.409 24.636 85.6348C24.0052 87.1456 23.4779 88.6977 23.0578 90.2804C22.7684 91.998 23.4339 94.8512 23.803 96.528L23.6601 96.5693Z" fill="white"/>
<path d="M5.40777 77.0716C4.68818 76.6636 3.87317 76.455 3.04653 76.4673C2.59018 76.4742 2.14146 76.5858 1.73487 76.7937C1.32827 77.0015 0.974615 77.3 0.701065 77.6663C-0.131903 78.7004 -0.129711 80.3974 0.21882 81.6381C0.522196 82.7237 1.44021 83.6932 2.10396 84.5718C3.01058 85.7734 3.91632 87.2426 5.42969 87.7243C5.86621 87.8717 6.33084 87.9158 6.78719 87.8531C7.24354 87.7904 7.67922 87.6227 8.06012 87.3631C8.91018 86.7078 9.2688 85.6086 9.37533 84.5792C9.37349 84.3001 9.26205 84.0328 9.06513 83.8354C8.8682 83.638 8.60165 83.5263 8.32316 83.5244C8.04604 83.5306 7.78197 83.6437 7.58596 83.8402C7.38996 84.0367 7.27713 84.3014 7.27099 84.5792C7.24456 84.8023 7.1844 85.02 7.09256 85.2249C7.03681 85.3456 6.97188 85.4618 6.89835 85.5725C6.88914 85.5853 6.66424 85.7747 6.81461 85.6771C6.70182 85.7403 6.57297 85.7687 6.44416 85.7589C6.35086 85.7606 6.25761 85.7531 6.16577 85.7365C6.1066 85.7249 6.04806 85.7102 5.99041 85.6925C5.95841 85.682 5.82996 85.6169 5.92334 85.6648C5.05267 85.2156 4.49502 84.2681 3.92246 83.5113C3.34653 82.7789 2.81031 82.016 2.31615 81.2258C2.24293 81.1041 2.26354 80.9714 2.29072 81.2096C2.28458 81.1559 2.25126 81.0988 2.24118 81.0448C2.22496 80.9612 2.20698 80.8786 2.19252 80.7947C2.19252 80.7846 2.17016 80.6281 2.18419 80.7389C2.19822 80.8496 2.17542 80.6347 2.17366 80.6158C2.15438 80.3653 2.14035 80.1156 2.14341 79.8647C2.14341 79.7487 2.15131 79.6335 2.15744 79.5179C2.15744 79.5179 2.17366 79.3329 2.16095 79.4392C2.15043 79.5307 2.17805 79.3404 2.18243 79.3215C2.2026 79.23 2.29861 79.0076 2.19602 79.1896C2.2461 79.0993 2.30738 79.0157 2.3784 78.9408C2.51493 78.7598 2.70826 78.6301 2.92728 78.5725C3.15733 78.5641 3.3875 78.5855 3.61207 78.6363C3.87039 78.6791 4.11923 78.767 4.34727 78.896C5.5051 79.6071 6.56341 77.7832 5.40953 77.0743L5.40777 77.0716Z" fill="#1A5E9D"/>
<path d="M0.228005 81.6735C0.665096 83.7297 1.35424 85.7238 2.27974 87.6104C2.88675 88.9671 3.619 90.2641 4.46694 91.4841C5.45641 92.8826 6.66992 94.0847 7.78215 95.3812C8.3877 96.0295 8.88842 96.7688 9.26615 97.5722C9.60235 98.4937 9.88631 99.4335 10.1167 100.387C10.4985 101.687 12.5301 101.134 12.146 99.8264C11.6585 98.1672 11.2968 96.4892 10.2315 95.0832C9.15611 93.6641 7.86808 92.4348 6.75541 91.049C5.09189 88.8526 3.81989 86.3843 2.99565 83.7533C2.68384 82.8939 2.43633 82.0125 2.25519 81.1162C2.17964 80.848 2.00209 80.6201 1.76074 80.4817C1.51938 80.3433 1.23348 80.3054 0.964524 80.3761C0.698432 80.4552 0.473173 80.6344 0.335894 80.8763C0.198614 81.1181 0.159954 81.4038 0.228005 81.6735Z" fill="#1A5E9D"/>
<path d="M10.0012 74.9931C9.41011 74.4203 8.63439 74.0778 7.81376 74.0275C6.99313 73.9771 6.18153 74.2221 5.52513 74.7184C3.96134 76.0189 4.07138 78.2516 4.7132 79.9925C5.11519 80.9707 5.58393 81.9199 6.1161 82.8334C6.53873 83.6968 7.0222 84.5288 7.56283 85.3232C8.65139 86.8035 10.6444 88.4037 12.5549 87.392C13.8702 86.6971 14.4125 85.1312 14.3261 83.7129C14.2441 82.364 12.1389 82.3548 12.2218 83.7129C12.2323 83.8865 12.2279 84.0588 12.2218 84.2324C12.2178 84.293 12.213 84.3532 12.2064 84.4139C12.2219 84.3111 12.2231 84.2992 12.2099 84.3783C12.188 84.5014 12.1626 84.6231 12.1288 84.7431C12.0411 85.0591 11.8057 85.59 11.3121 85.6006C10.6211 85.6151 9.93504 84.9176 9.53039 84.4425C9.0232 83.7839 8.58772 83.0728 8.2314 82.3214C7.76888 81.4574 7.2406 80.6025 6.8513 79.702C6.49818 78.9922 6.32873 78.2048 6.35853 77.4122C6.39485 77.0842 6.51573 76.7714 6.70926 76.5046C6.79134 76.4039 6.88695 76.3152 6.99334 76.2409C7.09008 76.1899 7.08365 76.1889 6.97405 76.2378C7.03806 76.2149 7.10338 76.1938 7.16958 76.178C7.40187 76.1129 7.64671 76.1069 7.88189 76.1606C8.11708 76.2143 8.33516 76.3261 8.51636 76.4857C9.47646 77.446 10.9648 75.9548 10.0043 74.994L10.0012 74.9931Z" fill="#1A5E9D"/>
<path d="M16.1696 73.8684C15.736 72.7032 15.1836 71.5641 14.1889 70.78C13.2529 70.042 12.1876 69.5436 10.985 69.8425C10.3356 69.9709 9.7321 70.2708 9.23693 70.7112C8.74175 71.1516 8.37284 71.7166 8.16828 72.3477C7.91293 73.2721 7.89198 74.2457 8.10734 75.1803C8.54263 76.5154 9.06893 77.819 9.68253 79.0818C10.3151 80.5488 10.9228 82.1583 11.8693 83.4605C12.7518 84.6723 14.3984 85.4484 15.8886 85.0757C17.4668 84.6802 18.4519 83.1678 18.5462 81.6036C18.6282 80.2473 16.5238 80.2522 16.4418 81.6036C16.3954 82.3732 15.7588 83.1727 14.9267 83.054C14.5065 82.9787 14.1173 82.7823 13.8066 82.4888C13.818 82.4994 13.4848 82.1504 13.6369 82.3301C13.7593 82.4743 13.5444 82.1917 13.5054 82.1324C12.8054 80.9581 12.199 79.7303 11.6917 78.4603C11.1977 77.3325 10.7465 76.2628 10.2888 75.0454C10.2386 74.9123 10.1902 74.7786 10.1437 74.6441C10.1345 74.6177 10.1288 74.59 10.1196 74.5641C10.1012 74.5083 10.142 74.8529 10.1196 74.5747C10.1113 74.4652 10.0999 74.3549 10.0942 74.2463C10.06 73.6047 10.0477 72.7419 10.5326 72.3543C10.9111 72.0862 11.3462 71.9093 11.804 71.8374C12.0069 71.7935 11.9355 71.8572 11.8684 71.8418C11.7448 71.8128 12.0438 71.9227 12.0876 71.9447C12.2746 72.0352 12.4567 72.1357 12.633 72.2457C13.3459 72.8015 13.8707 73.5639 14.1363 74.4292C14.217 74.6948 14.3962 74.9192 14.6371 75.0563C14.8779 75.1933 15.1621 75.2325 15.4309 75.1658C15.6987 75.0895 15.9259 74.9107 16.0634 74.668C16.2009 74.4252 16.2376 74.138 16.1657 73.8684H16.1696Z" fill="#1A5E9D"/>
<path d="M21.43 74.503C21.0289 72.8329 20.4656 71.1949 19.9395 69.563C19.1609 67.1409 18.3525 64.7284 17.4638 62.3428C17.0898 61.3399 16.7019 60.3404 16.2648 59.363C15.9856 58.6781 15.5913 58.0463 15.0991 57.4951C13.8781 56.1911 11.9263 55.7397 10.4357 56.9351C9.15736 57.9605 9.3073 59.8416 9.55894 61.2862C9.83756 62.6709 10.1864 64.0404 10.6041 65.3895C11.198 67.5008 11.8243 69.6028 12.4831 71.6955C12.8921 72.9845 14.9246 72.4334 14.5125 71.1346C13.5567 68.1214 12.6466 65.0827 11.872 62.0167C11.6208 61.023 11.2836 59.7792 11.5874 58.8545C11.6162 58.7506 11.6693 58.6551 11.7422 58.5758C12.0107 58.398 12.3306 58.3149 12.6514 58.3398C13.1398 58.4031 13.4844 58.8799 13.8404 59.2452C14.021 59.4311 13.7733 59.1059 13.8062 59.1955C13.8297 59.2389 13.8569 59.2802 13.8873 59.319C13.9531 59.4311 14.0188 59.5427 14.0789 59.6574C14.2428 59.9682 14.3858 60.289 14.5287 60.6107C14.5676 60.7004 14.6061 60.7902 14.6444 60.8801C14.6913 60.99 14.6282 60.8415 14.6234 60.83C14.6466 60.8858 14.6699 60.9412 14.6927 60.9975C14.7835 61.2193 14.8731 61.4421 14.9614 61.666C15.1508 62.1468 15.3336 62.6302 15.5133 63.1163C16.3297 65.3222 17.0798 67.5553 17.8031 69.7915C18.366 71.5333 18.9719 73.2843 19.4002 75.0656C19.7176 76.3841 21.747 75.8259 21.4296 74.5043L21.43 74.503Z" fill="#1A5E9D"/>
<path d="M24.8189 96.2513C24.4523 94.8116 24.1988 93.3453 24.0605 91.8659C24.0366 91.5161 24.0339 91.1652 24.0526 90.815C24.0631 90.648 24.0763 90.554 24.0925 90.4221C24.1451 89.9888 24.0258 90.601 24.0955 90.4252C24.238 90.0635 24.3112 89.6556 24.4301 89.2825C24.7523 88.2716 25.0912 87.2652 25.4879 86.2829C25.5116 86.2235 25.4029 86.4481 25.5024 86.2556C25.5462 86.1712 25.5901 86.0855 25.6282 85.9994C25.7972 85.6373 25.9326 85.2603 26.0329 84.8734C26.2275 84.1084 26.3398 83.3247 26.3678 82.5357C26.3837 81.0359 26.1241 79.5461 25.6019 78.1406C25.0009 76.4472 24.0929 75.0223 22.3669 74.3477C20.6927 73.6933 18.7672 73.7878 17.0096 73.9183C16.1155 73.9488 15.2271 74.0745 14.3595 74.2932C13.9682 74.3927 13.6045 74.5796 13.2954 74.8398C12.9863 75.1001 12.74 75.4271 12.5747 75.7963C12.333 76.2509 12.1993 76.7553 12.1841 77.2702C12.1689 77.7851 12.2726 78.2966 12.487 78.7647C12.6456 79.1538 12.9006 79.4958 13.228 79.7583C13.5554 80.0209 13.9443 80.1952 14.3577 80.2647C14.9794 80.3781 16.1403 80.2907 16.5239 80.8897C16.6785 81.2518 16.7841 81.633 16.8378 82.0232C16.9973 82.5566 17.1225 83.0998 17.2126 83.6494C17.2883 83.9181 17.4666 84.1462 17.7088 84.2841C17.9511 84.422 18.2378 84.4586 18.5068 84.386C18.7719 84.3055 18.996 84.1259 19.1327 83.8844C19.2695 83.643 19.3084 83.358 19.2415 83.0886C19.0926 82.2351 18.8918 81.3916 18.64 80.5627C18.5425 80.1949 18.3729 79.8502 18.1411 79.5488C17.9092 79.2474 17.6198 78.9954 17.2898 78.8073C16.5818 78.4906 15.8235 78.3019 15.05 78.2501C14.9228 78.2303 14.797 78.2061 14.672 78.1775C14.5177 78.1411 14.6335 78.2026 14.5107 78.12C14.6826 78.2351 14.4844 78.0553 14.4279 77.9442C14.3421 77.798 14.2849 77.6367 14.2595 77.4691C14.2554 77.2261 14.3159 76.9864 14.4349 76.7746C14.4884 76.6626 14.6607 76.3791 14.6607 76.3791C14.5291 76.4912 14.7299 76.3839 14.779 76.3668C15.479 76.1614 16.2025 76.0477 16.9316 76.0284C18.4708 75.9123 20.1692 75.762 21.6475 76.3158C22.9653 76.8098 23.4844 78.2496 23.8272 79.511C24.1888 80.7022 24.3203 81.9516 24.2148 83.1923C24.0499 84.1778 23.7524 85.1363 23.3305 86.0416C22.9658 86.9883 22.6405 87.9521 22.3371 88.9195C22.2202 89.2566 22.124 89.6007 22.0491 89.9497C22.0315 90.0442 22.0228 90.1474 22.0101 90.2428C22.007 90.263 22.0539 89.8952 22.007 90.2621C21.9802 90.4674 21.9561 90.6718 21.9456 90.8774C21.9296 91.2571 21.9371 91.6374 21.968 92.0162C22.1279 93.6296 22.4029 95.2293 22.7909 96.8033C23.0828 98.1284 25.1118 97.5676 24.8198 96.2425L24.8189 96.2513Z" fill="#1A5E9D"/>
<path d="M31.0478 110.361C31.3718 109.135 31.7644 107.928 32.2236 106.747C32.3341 106.444 32.4472 106.143 32.5651 105.844C32.6936 105.518 32.6638 105.602 32.8049 105.279C33.1403 104.406 33.4145 103.51 33.6256 102.598C34.5695 99.205 35.3253 95.7601 36.2999 92.3755C37.2166 89.1939 38.7624 86.0146 41.1763 83.6971C42.2359 82.6801 43.6949 81.9654 44.982 81.2798C46.534 80.4531 48.1307 79.7108 49.7431 79.0093C53.4818 77.3831 57.3187 75.9921 61.1456 74.5905C61.4107 74.51 61.6348 74.3305 61.7715 74.089C61.9083 73.8475 61.9472 73.5626 61.8803 73.2931C61.8042 73.0247 61.6258 72.797 61.3837 72.6592C61.1416 72.5214 60.8551 72.4845 60.5862 72.5565C57.0916 73.8364 53.5945 75.114 50.1627 76.556C46.9185 77.9185 43.6261 79.3618 40.7247 81.3765C39.2368 82.4098 38.103 83.9045 37.1298 85.4155C36.1117 86.9799 35.2941 88.6665 34.6962 90.4355C33.6107 93.6954 32.9158 97.0901 32.0386 100.41C31.7703 101.424 31.4932 102.437 31.1955 103.442C30.9706 104.203 30.7247 104.792 30.427 105.569C29.8689 106.948 29.399 108.362 29.0202 109.801C28.7001 111.119 30.73 111.683 31.0491 110.362L31.0478 110.361Z" fill="#1A5E9D"/>
<path d="M34.1399 118.412C34.1037 118.338 34.0685 118.264 34.0343 118.189C34.0053 118.126 33.8765 117.827 33.9466 117.996C34.0167 118.165 33.8826 117.839 33.8558 117.773C33.8029 117.64 33.7508 117.507 33.6993 117.374C33.4464 116.72 33.2079 116.061 32.9738 115.4C32.3526 113.648 31.7625 111.886 31.1763 110.123C29.9488 106.431 28.7629 102.722 27.5192 99.0334C27.1711 97.876 26.7555 96.7401 26.2745 95.6316C26.1837 95.4709 26.0515 95.3377 25.8917 95.2459C25.7318 95.154 25.5503 95.1069 25.3662 95.1095C24.6744 95.181 23.9934 95.3339 23.3372 95.5648C22.2285 95.8878 21.1294 96.2443 20.0325 96.6051C17.5415 97.4255 15.062 98.2799 12.5941 99.1683C11.7173 99.483 10.8357 99.7946 9.96808 100.137C9.70557 100.222 9.48431 100.402 9.3482 100.642C9.21209 100.883 9.17109 101.166 9.23332 101.435C9.82955 105.767 10.7572 110.069 11.7195 114.331C12.3447 117.1 13.0181 119.858 13.7726 122.594C14.4815 125.166 15.332 127.683 16.1592 130.218C17.0049 132.811 17.8537 135.488 19.4722 137.716C21.3328 140.279 24.143 142.287 27.3087 142.79C30.5174 143.299 33.6989 142.336 36.346 140.507C37.5376 139.692 38.65 138.766 39.6682 137.742C40.488 136.907 41.2324 135.993 41.9953 135.105C43.7236 133.104 45.2472 130.934 46.5433 128.628C47.2478 127.37 48.0957 126.175 48.8668 124.957L49.1206 124.556C49.8484 123.406 48.0281 122.346 47.3039 123.491L45.1347 126.919C44.8252 127.408 44.5648 127.909 44.2772 128.41C43.5793 129.587 42.8093 130.719 41.9716 131.8C41.1693 132.861 40.2916 133.855 39.4258 134.863C38.7414 135.683 37.9987 136.453 37.2035 137.166C35.0413 139.051 32.4841 140.687 29.5389 140.824C26.5634 140.962 23.7555 139.52 21.8168 137.305C20.1228 135.371 19.2478 132.883 18.4569 130.476C17.6608 128.054 16.8295 125.647 16.1285 123.195C15.3732 120.553 14.7024 117.886 14.0794 115.21C13.0488 110.784 12.1027 106.322 11.4052 101.829C11.3558 101.511 11.3089 101.192 11.2644 100.873L10.5297 102.171C12.3811 101.439 14.2715 100.798 16.1513 100.145C18.5669 99.3063 20.9882 98.473 23.4372 97.7351C23.8852 97.6002 24.3346 97.4674 24.7883 97.351C24.9479 97.3101 25.1079 97.2696 25.2706 97.2371C25.3363 97.2235 25.4087 97.2187 25.4727 97.1993C25.6143 97.1554 25.1373 97.2283 25.3692 97.2182L24.4604 96.6957C24.4841 96.7453 24.5016 96.8016 24.5292 96.8486C24.3863 96.6055 24.4639 96.6882 24.5292 96.8583C24.6055 97.056 24.6799 97.2548 24.7524 97.4547C24.9646 98.0392 25.1658 98.6277 25.3662 99.2166C25.9361 100.89 26.4836 102.57 27.0343 104.249C28.2715 108.023 29.4893 111.804 30.8046 115.552C31.2325 116.889 31.7402 118.199 32.3249 119.476C32.4678 119.715 32.6985 119.889 32.9677 119.96C33.2369 120.03 33.523 119.992 33.7647 119.854C34.0013 119.709 34.1728 119.478 34.2432 119.209C34.3136 118.939 34.2773 118.654 34.1421 118.411L34.1399 118.412Z" fill="#1A5E9D"/>
<path d="M104.888 143.164C109.579 129.803 120.564 96.4888 122.216 90.5963C117.816 89.1513 89.7651 79.2466 84.663 78.3096C82.705 84.1466 67.8817 125.709 65.958 131.621C74.1969 134.627 95.7883 141.265 104.888 143.162" fill="white"/>
<path d="M105.167 142.146C100.169 141.099 95.242 139.675 90.3398 138.255C84.637 136.602 78.9615 134.857 73.3131 133.018C70.9457 132.245 68.5783 131.458 66.2368 130.605L66.9715 131.902C67.7396 129.546 68.5726 127.21 69.3902 124.87C70.7841 120.881 72.1852 116.896 73.5936 112.913C75.2087 108.337 76.8254 103.761 78.4437 99.1852C79.9018 95.0606 81.3581 90.9354 82.8124 86.8097C83.7195 84.2324 84.6331 81.6574 85.5152 79.0713C85.5695 78.9109 85.6243 78.75 85.6782 78.5879L84.3841 79.3245C86.1759 79.7081 87.9445 80.1935 89.6813 80.7783C92.4814 81.6393 95.2661 82.5517 98.0469 83.4743C104.086 85.4788 110.103 87.5511 116.119 89.6242C118.057 90.2919 119.991 90.9726 121.938 91.613L121.203 90.3156C120.483 92.8731 119.66 95.4033 118.858 97.9357C117.498 102.231 116.121 106.521 114.725 110.805C113.814 113.612 112.898 116.418 111.979 119.222C111.555 120.514 113.586 121.068 114.008 119.783C116.779 111.331 119.548 102.877 122.178 94.3792C122.539 93.2146 122.901 92.0499 123.231 90.8755C123.299 90.606 123.261 90.3203 123.124 90.0784C122.987 89.8365 122.762 89.6572 122.496 89.5781C118.09 88.1277 113.721 86.5662 109.333 85.0644C103.283 82.9934 97.2271 80.9212 91.121 79.0164C89.097 78.3197 87.0338 77.7431 84.9422 77.2896C84.6734 77.2235 84.3896 77.263 84.149 77.4C83.9084 77.5369 83.7291 77.761 83.648 78.0262C82.8615 80.3665 82.0316 82.6928 81.2127 85.0222C79.813 89.0032 78.4089 92.9828 77.0005 96.9609C75.3836 101.536 73.7668 106.112 72.15 110.687C70.6924 114.816 69.2388 118.947 67.7892 123.079C66.8834 125.666 65.9689 128.251 65.1022 130.851C65.0478 131.013 64.9942 131.175 64.9413 131.338C64.8728 131.608 64.9111 131.893 65.0481 132.135C65.185 132.377 65.4101 132.556 65.6761 132.635C70.3617 134.343 75.1276 135.841 79.8896 137.317C85.5932 139.086 91.3209 140.786 97.0886 142.332C99.5805 143 102.081 143.65 104.606 144.178C105.928 144.455 106.491 142.42 105.166 142.144L105.167 142.146Z" fill="#1A5E9D"/>
<path d="M74.6944 122.817C75.8838 122.936 77.5405 122.947 78.6312 123.261C79.4375 123.498 80.2393 123.783 80.9986 124.069C82.3384 121.033 85.0499 115.741 87.2573 111.731C87.3748 111.581 87.3314 111.593 87.3476 111.544C87.3564 111.443 87.3695 111.337 87.3827 111.236C87.4353 110.836 87.5186 110.441 87.6019 110.058C87.9833 108.331 88.3472 106.248 87.3125 104.731C86.3911 103.44 85.3031 102.277 84.0771 101.273C82.6922 100.045 81.1806 99.1167 79.8509 99.3286C78.3165 99.5725 77.3664 100.916 77.5615 101.941L77.6707 102.517C76.5681 101.857 75.6404 101.307 74.9583 100.881C72.0429 99.0662 67.1021 101.549 69.9254 104.573C69.1319 104.45 67.4835 105.835 67.5317 106.749C67.5799 107.672 67.957 108.353 67.5887 109.254C67.2599 110.054 66.142 110.779 65.9973 111.32C65.6422 112.66 66.7601 113.812 66.7031 114.031C66.4752 114.91 65.857 117.099 66.6111 118.114C67.3146 119.022 68.1426 119.826 69.0705 120.501C70.9425 121.753 72.284 122.54 74.5243 122.799L74.6944 122.817Z" fill="white"/>
<path d="M80.886 103.235C79.27 102.237 77.6317 101.277 76.0096 100.291C74.768 99.4466 73.2598 99.0904 71.7728 99.29C70.4791 99.4799 69.1148 100.139 68.4357 101.309C67.6277 102.701 68.1775 104.21 69.181 105.32L69.9263 103.518C68.9408 103.43 67.9035 104.201 67.2959 104.904C66.9307 105.291 66.668 105.764 66.5317 106.279C66.3936 106.919 66.6194 107.547 66.6865 108.179C66.8079 109.297 65.5751 109.806 65.1218 110.7C64.5493 111.828 65.0429 113.137 65.6128 114.151C65.6434 114.219 65.6799 114.284 65.722 114.345L65.74 114.379C65.6533 114.212 65.628 114.02 65.6685 113.836C65.5992 113.873 65.5554 114.276 65.5335 114.366C65.3862 114.959 65.2827 115.561 65.224 116.168C65.1544 116.733 65.208 117.305 65.3811 117.847C65.5541 118.388 65.8425 118.885 66.2262 119.304C67.8289 121.147 69.8793 122.543 72.1788 123.358C73.531 123.751 74.9287 123.964 76.3362 123.992C77.8431 124.14 79.3202 124.508 80.7202 125.086C80.9892 125.158 81.2757 125.121 81.5178 124.984C81.7599 124.846 81.9382 124.618 82.0144 124.35C82.0826 124.08 82.0443 123.795 81.9073 123.553C81.7704 123.311 81.5455 123.132 81.2796 123.052C80.0829 122.556 78.8322 122.202 77.5532 121.997C76.462 121.859 75.3502 121.882 74.2652 121.707C72.2532 121.328 70.3875 120.391 68.8798 119.003C68.3002 118.478 67.4068 117.745 67.3169 117.035C67.2086 116.178 67.4817 115.313 67.6742 114.492C67.7335 114.298 67.7538 114.094 67.7338 113.892C67.7139 113.69 67.6541 113.494 67.558 113.315C67.3738 113.009 67.2126 112.689 67.0758 112.359C67.0203 112.182 66.9894 111.998 66.9841 111.812C66.9789 111.724 67.0788 111.49 66.9841 111.675C66.9841 111.679 67.0802 111.532 67.028 111.602C67.3222 111.203 67.7294 110.884 68.039 110.494C68.5043 109.941 68.7726 109.248 68.8018 108.525C68.8211 107.892 68.5883 107.285 68.5874 106.656C68.5874 106.871 68.6751 106.589 68.597 106.692C68.6694 106.597 68.7137 106.48 68.7886 106.385C68.9166 106.235 69.0579 106.098 69.2108 105.974C69.3584 105.854 69.5193 105.752 69.6904 105.669C69.5808 105.72 69.7408 105.649 69.7514 105.645C69.9118 105.579 69.6742 105.605 69.9267 105.628C70.896 105.716 71.2318 104.448 70.672 103.826C70.483 103.628 70.3277 103.4 70.2126 103.152C70.1765 103.037 70.1518 102.92 70.1389 102.8C70.1179 102.54 70.1223 102.838 70.1472 102.648C70.1534 102.602 70.2503 102.343 70.1657 102.54C70.2168 102.372 70.3173 102.223 70.4541 102.113C70.7283 101.862 71.0482 101.668 71.3963 101.539C71.8438 101.372 72.3201 101.298 72.797 101.319C73.8123 101.341 74.6119 101.909 75.544 102.469C76.9736 103.328 78.4068 104.18 79.8259 105.056C80.982 105.77 82.0398 103.946 80.8877 103.234L80.886 103.235Z" fill="#1A5E9D"/>
<path d="M78.5753 101.66C78.5893 101.754 78.5897 101.587 78.602 101.532C78.6112 101.492 78.6927 101.274 78.673 101.317C78.7729 101.104 78.9193 100.917 79.1013 100.768C79.3136 100.596 79.5614 100.473 79.8267 100.409C80.0921 100.344 80.3685 100.34 80.6358 100.396C82.1531 100.703 83.4446 102.071 84.52 103.099C85.5564 104.09 86.8116 105.282 86.9207 106.798C86.9591 107.518 86.9046 108.239 86.7585 108.945C86.6822 109.353 86.5867 109.757 86.5042 110.164C86.4648 110.361 86.4275 110.559 86.3959 110.756C86.3723 110.915 86.3502 111.075 86.3297 111.236C86.3037 111.421 86.3037 111.44 86.3297 111.294C86.2646 111.563 86.3044 111.847 86.4409 112.088C86.5774 112.329 86.8004 112.509 87.0645 112.591C87.3335 112.663 87.6202 112.627 87.8624 112.489C88.1046 112.351 88.2829 112.123 88.3587 111.854C88.5779 110.316 89.0452 108.794 89.0413 107.229C89.0499 106.436 88.9 105.651 88.6002 104.918C88.2202 104.129 87.7215 103.404 87.1215 102.767C86.0336 101.506 84.7945 100.384 83.4323 99.427C82.1399 98.5282 80.5051 97.8935 78.9518 98.4794C77.3986 99.0652 76.2951 100.522 76.5476 102.222C76.6235 102.491 76.8019 102.718 77.0442 102.856C77.2865 102.994 77.5732 103.031 77.8422 102.958C78.1075 102.878 78.3318 102.699 78.4686 102.457C78.6054 102.216 78.6442 101.93 78.577 101.661L78.5753 101.66Z" fill="#1A5E9D"/>
<path d="M114.22 118.87C107.242 116.033 100.265 113.186 93.3407 110.22C91.9417 109.62 90.5428 109.018 89.1596 108.383C88.9171 108.249 88.6323 108.213 88.3642 108.283C88.0961 108.354 87.8653 108.525 87.7199 108.762C86.1653 111.453 84.7059 114.201 83.2863 116.965C81.9996 119.47 80.7173 121.99 79.6388 124.594C79.5777 124.818 79.5918 125.056 79.679 125.272C79.7661 125.487 79.9215 125.667 80.121 125.785C87.3045 130.146 94.8778 133.826 102.743 136.777C105 137.637 107.285 138.427 109.603 139.107C110.905 139.489 111.462 137.454 110.163 137.072C101.951 134.661 94.032 131.066 86.5046 127.013C84.7041 126.043 82.9242 125.035 81.1815 123.963L81.6638 125.154C81.71 125.044 81.71 125.041 81.6638 125.148C81.6892 125.087 81.7151 125.027 81.7409 124.967C81.7962 124.839 81.8517 124.712 81.9075 124.584C82.0151 124.341 82.1244 124.099 82.2355 123.856C82.5077 123.262 82.7883 122.67 83.0728 122.081C83.7523 120.672 84.456 119.275 85.1715 117.884C86.5682 115.169 88.0031 112.47 89.5309 109.826L88.0912 110.204C94.6809 113.229 101.442 115.907 108.148 118.656C109.983 119.407 111.818 120.157 113.655 120.903C113.924 120.976 114.21 120.939 114.453 120.801C114.695 120.663 114.873 120.435 114.949 120.166C115.016 119.897 114.977 119.612 114.84 119.37C114.704 119.129 114.479 118.949 114.214 118.869L114.22 118.87Z" fill="#1A5E9D"/>
<path d="M72.0854 54.0836C73.3401 55.3142 75.3243 55.6741 77.0083 55.6733C78.6922 55.6724 80.6768 55.3151 81.932 54.0836C82.9017 53.1325 81.4133 51.6413 80.444 52.5919C80.4024 52.6328 80.1889 52.8169 80.3261 52.7049C80.4633 52.5928 80.3261 52.7049 80.2884 52.729C80.2323 52.7655 80.177 52.8033 80.12 52.8389C80.0118 52.9057 79.9008 52.9672 79.7864 53.0244C79.7101 53.0626 79.6325 53.0991 79.5545 53.1334C79.697 53.0705 79.5856 53.1202 79.5036 53.1496C78.7035 53.437 77.8581 53.5772 77.0083 53.5636C76.174 53.5826 75.3433 53.4486 74.5571 53.1681C74.5352 53.1597 74.2445 53.0362 74.4616 53.1347C74.3961 53.1054 74.3312 53.0751 74.2669 53.0437C74.1406 52.9817 74.0166 52.9119 73.8969 52.8402C73.8057 52.7835 73.7215 52.7119 73.629 52.6587C73.9017 52.8165 73.6531 52.6715 73.5734 52.5932C72.6049 51.6426 71.1157 53.1334 72.0854 54.0849V54.0836Z" fill="#1A5E9D"/>
<path d="M76.5898 44.418C76.7858 45.128 76.9429 45.8483 77.0602 46.5755L77.0225 46.2951C77.0365 46.3938 77.0392 46.4938 77.0304 46.5931L77.0681 46.3127C77.0615 46.3583 77.0505 46.4032 77.0352 46.4467L77.1413 46.1945C77.1285 46.2252 77.1128 46.2546 77.0944 46.2824L77.2588 46.0692C77.238 46.0948 77.2145 46.1181 77.1886 46.1386L77.4013 45.9734C77.3467 46.0074 77.2899 46.0377 77.2312 46.0639L77.4824 45.9576C77.3905 45.9973 77.294 46.0255 77.1952 46.0415L77.4749 46.0042C77.3854 46.0147 77.2949 46.0147 77.2053 46.0042L77.485 46.0415C77.3833 46.0275 77.2833 46.0028 77.1816 45.9888C76.9075 45.9248 76.6195 45.9626 76.371 46.0951C76.2517 46.165 76.1472 46.2578 76.0637 46.3682C75.9801 46.4786 75.9191 46.6044 75.884 46.7384C75.849 46.8724 75.8406 47.0121 75.8594 47.1494C75.8782 47.2866 75.9238 47.4189 75.9936 47.5385C76.0604 47.6574 76.1505 47.7616 76.2585 47.8447C76.3666 47.9278 76.4903 47.9881 76.6222 48.0219C76.8493 48.0527 77.0694 48.1098 77.3 48.1208C77.6451 48.123 77.9856 48.0421 78.293 47.8848C78.4867 47.7971 78.6584 47.6671 78.7954 47.5042C78.9324 47.3412 79.0313 47.1496 79.0847 46.9434C79.1548 46.6067 79.1514 46.2589 79.0747 45.9237C78.9572 45.2289 78.7972 44.5402 78.6187 43.8581C78.5445 43.5883 78.3665 43.3592 78.1238 43.221C77.8811 43.0829 77.5936 43.0471 77.3246 43.1214C77.0555 43.1958 76.8269 43.3743 76.6891 43.6176C76.5513 43.8609 76.5156 44.1491 76.5898 44.4189V44.418Z" fill="#1A5E9D"/>
<path d="M65.1596 38.3219C64.8001 39.4928 65.0342 42.186 67.2468 42.415C70.1714 42.3979 70.3271 39.1412 69.3424 37.6104C68.5366 36.3565 66.1666 35.8352 65.1596 38.3219Z" fill="#1A5E9D"/>
<path d="M88.5774 38.322C88.9369 39.4928 88.7028 42.1861 86.4901 42.4151C83.5655 42.3975 83.4099 39.1412 84.3946 37.61C85.2004 36.3565 87.5704 35.8353 88.5774 38.322Z" fill="#1A5E9D"/>
</g>
<defs>
<clipPath id="clip0_1171_88133">
<rect width="140" height="110" fill="white"/>
</clipPath>
</defs>
</svg>
