<svg width="148" height="151" viewBox="0 0 148 151" fill="none" xmlns="http://www.w3.org/2000/svg">
<path d="M131.038 120.685C140.283 108.141 147.394 90.9587 145.768 71.7505C143.703 47.3571 134.381 29.094 120.354 17.3667C106.336 5.64748 87.8244 0.625737 67.695 2.32116C47.5652 4.01614 30.1586 12.0623 18.309 25.9602C6.45116 39.8676 0.330875 59.4314 2.39603 83.8248C6.21517 128.944 44.3427 151.745 80.0865 148.735C95.0007 147.479 109.653 142.676 121.372 133.023L133.729 135.698C134.45 135.854 135.199 135.601 135.676 135.038C136.154 134.476 136.284 133.697 136.014 133.011L135.433 133.239C136.014 133.011 136.014 133.011 136.014 133.011L136.013 133.01L136.013 133.008L136.01 133L135.998 132.971L135.952 132.854L135.779 132.415C135.629 132.036 135.416 131.497 135.16 130.851C134.648 129.559 133.965 127.843 133.282 126.143C132.6 124.446 131.913 122.757 131.396 121.525C131.268 121.219 131.147 120.936 131.038 120.685Z" fill="white" stroke="#0066C5" stroke-width="4" stroke-linejoin="round"/>
<path d="M99.1168 102.164C103.934 103.882 109.479 100.922 111.026 96.1131C112.293 92.1723 110.719 87.0651 109.545 83.0958C107.523 76.2555 106.712 69.308 106.616 62.1859C106.751 58.0746 106.464 53.1999 106.318 51.1589C105.812 44.0836 102.631 36.1831 98.0542 31.7917C96.2318 30.0427 95.6002 29.1531 93.8293 28.1152C93.8293 28.1152 92.804 27.5145 91.7786 26.913C90.7604 26.4995 89.7422 26.0861 89.7422 26.0861C85.9571 24.549 82.0142 23.5293 76.413 23.5293C67.2309 23.5293 59.0576 28.2667 55.4309 31.7441C49.4144 37.5123 45.5984 48.049 46.0801 62.5787C46.0801 72.4258 45.2743 79.5272 44.1452 83.5656C43.3774 86.3279 42.7213 90.9289 42.6935 93.7364C42.6603 97.8136 47.2045 103.475 54.3279 102.292" fill="#0066C5"/>
<path d="M105.655 62.3099C105.306 61.7037 104.495 60.6705 102.589 60.6038C101.982 60.5824 101.304 60.7078 100.693 61.0331C95.7894 57.0813 91.0099 50.3108 88.2191 43.6133C82.8421 48.1063 79.9222 49.9965 70.2077 54.6181C64.2205 57.4662 57.6256 59.2683 52.5386 60.8665C52.0275 60.6657 51.4911 60.5872 51.0014 60.6046C49.0949 60.6721 48.2836 61.7045 47.9349 62.3107C46.8929 64.1208 46.9365 67.4561 47.6362 69.5193C48.1314 70.981 48.9428 73.2164 50.8992 74.8194C51.747 75.5137 53.0156 75.9597 54.201 75.6835C55.0995 78.5926 56.6708 82.0342 59.3443 85.2394C61.5574 87.8914 64.0803 90.0189 66.814 91.3322C66.7862 92.54 66.8282 92.928 66.7213 94.3841C66.6721 95.0214 66.6222 95.7078 66.3869 96.3275C66.0747 97.1401 65.6468 97.8488 64.967 98.4034C64.0478 99.1414 63.116 99.6311 62.0875 100.068C62.7309 102.839 63.4329 105.652 64.1643 108.474C68.1357 110.388 72.569 111.261 77.0158 111.141C81.3493 111.258 85.6724 110.438 89.5646 108.625C90.3189 105.702 91.0313 102.789 91.6905 99.9255C90.7896 99.5231 89.9568 99.0621 89.1399 98.4034C88.46 97.8488 88.0321 97.1409 87.7199 96.3275C87.4838 95.707 87.4347 95.0206 87.3855 94.3841C87.2762 92.7979 87.3229 92.4789 87.3023 90.9878C93.0019 88.2286 97.5525 80.3988 98.3591 78.2062C98.5152 77.7309 98.9787 76.7691 99.3488 75.6867C99.4875 75.7097 99.5643 75.7232 99.5643 75.7232C100.699 75.9152 101.885 75.4796 102.691 74.8194C104.647 73.2164 105.459 70.981 105.954 69.5193C106.654 67.4561 106.697 64.12 105.655 62.3099Z" fill="white"/>
<path d="M72.2872 81.2964C73.7698 82.0804 75.364 82.4169 77.0415 82.4066C78.799 82.3955 80.5176 82.0249 81.9185 80.9322C82.5754 80.4196 82.4962 79.2189 81.9185 78.6881C81.2212 78.0477 80.3781 78.1413 79.6777 78.6881C80.2228 78.2627 79.6397 78.6904 79.4653 78.7817C79.3306 78.8523 78.9661 78.9642 79.4582 78.8007C79.3275 78.8444 79.2015 78.8999 79.0699 78.942C78.9043 78.9952 78.7371 79.0404 78.5676 79.0801C78.402 79.1182 78.1294 79.1118 77.9836 79.1904C78.1302 79.1118 78.2364 79.1602 77.9876 79.1848C77.8814 79.1951 77.7744 79.2046 77.6674 79.211C77.4107 79.2277 77.1532 79.234 76.8957 79.2324C76.6651 79.2308 76.4345 79.2229 76.2047 79.2078C76.0993 79.2007 75.9932 79.192 75.8878 79.1816C75.8276 79.1761 75.7673 79.1689 75.7071 79.1618C75.5835 79.1467 75.6279 79.1531 75.8418 79.1793C75.7222 79.2158 75.4448 79.1094 75.322 79.0824C75.1556 79.0452 74.9908 79.0031 74.8276 78.9539C74.6857 78.911 74.5471 78.8603 74.4068 78.8118C74.0447 78.6881 74.7317 78.9682 74.4037 78.8134C74.2293 78.7309 74.0582 78.646 73.8878 78.5555C73.1549 78.1683 72.1311 78.3452 71.7199 79.1253C71.3332 79.8585 71.506 80.883 72.2888 81.2964H72.2872Z" fill="#0066C5"/>
<path d="M76.0519 70.3199C76.25 71.0778 76.4409 71.8475 76.5542 72.6228L76.498 72.2006C76.5114 72.307 76.517 72.4117 76.5067 72.5189L76.563 72.0967C76.5558 72.1459 76.5447 72.1927 76.5281 72.2395L76.6882 71.8602C76.6731 71.8935 76.658 71.9221 76.6374 71.9523L76.8854 71.6309C76.8617 71.6594 76.8395 71.6817 76.8102 71.7047L77.1311 71.4563C77.0732 71.4936 77.0114 71.5238 76.9488 71.5531L77.3276 71.3928C77.227 71.4349 77.1279 71.465 77.0209 71.4825L77.4425 71.4261C77.3458 71.4373 77.2515 71.4373 77.1541 71.4261L77.5756 71.4825C77.467 71.4674 77.3601 71.4412 77.2515 71.4261C77.0408 71.3603 76.83 71.3508 76.6192 71.3976C76.4084 71.4071 76.2119 71.4698 76.0297 71.5856C75.7009 71.7785 75.3871 72.1554 75.3015 72.5339C75.2088 72.9402 75.2294 73.3965 75.4616 73.7568C75.6676 74.0766 76.0123 74.4329 76.4084 74.486C76.6913 74.5241 76.9663 74.5956 77.2547 74.6083C77.7159 74.6281 78.1382 74.4837 78.5478 74.2932C79.0629 74.0544 79.4686 73.5679 79.6057 73.0132C79.7229 72.5395 79.6746 72.1554 79.5946 71.6801C79.4694 70.9381 79.2982 70.2033 79.1081 69.4756C79.0074 69.0923 78.7198 68.7265 78.3799 68.5273C78.0399 68.3282 77.5392 68.244 77.1588 68.367C76.7753 68.4916 76.4053 68.7297 76.2119 69.0963C76.0115 69.4772 75.9409 69.8962 76.0519 70.3199Z" fill="#0066C5"/>
<path d="M64.2853 63.691C63.901 64.9408 64.1514 67.815 66.5158 68.0602C69.6401 68.0412 69.8065 64.5663 68.755 62.9316C67.8937 61.5936 65.3613 61.0374 64.2861 63.691H64.2853Z" fill="#0066C5"/>
<path d="M89.3068 63.691C89.6911 64.9408 89.4407 67.815 87.0771 68.0602C83.9527 68.0412 83.7863 64.5655 84.8378 62.9316C85.6991 61.5936 88.2308 61.0374 89.3068 63.691Z" fill="#0066C5"/>
<path d="M62.1731 101.746C64.1746 100.918 66.3251 99.8749 67.4067 97.8863C68.3718 96.1111 68.3718 94.0455 68.3861 92.0728C68.3924 91.2427 67.6531 90.4476 66.8013 90.4857C65.9376 90.5246 65.2229 91.1832 65.2166 92.0728C65.2118 92.7433 65.1999 93.4123 65.1556 94.082C65.1397 94.3209 65.1223 94.5605 65.1009 94.7994C65.0969 94.8399 65.0589 95.2239 65.0834 95.0105C65.1072 94.8018 65.0462 95.2239 65.0462 95.2216C65.005 95.4311 64.9519 95.6382 64.8806 95.8397C64.8275 95.9881 64.7713 96.0905 64.8679 95.8858C64.8228 95.9818 64.7784 96.0786 64.73 96.173C64.6437 96.3412 64.5494 96.5047 64.4448 96.6618C64.4186 96.7007 64.2015 96.9673 64.3465 96.8047C64.4955 96.6372 64.2253 96.9293 64.2237 96.9308C64.1651 96.9927 64.1041 97.0531 64.0415 97.111C64.0462 97.107 63.7538 97.3594 63.8917 97.2467C64.0359 97.1276 63.7404 97.3578 63.7111 97.3784C63.6168 97.4459 63.5217 97.5117 63.425 97.576C63.0684 97.8141 62.6968 98.0291 62.3157 98.2251C62.116 98.3283 61.9132 98.4251 61.7095 98.5187C61.6271 98.5568 61.5439 98.5933 61.4615 98.6298C61.0455 98.8163 61.7586 98.5092 61.3316 98.6854C60.5685 99.0012 59.9386 99.7527 60.2246 100.637C60.4623 101.373 61.353 102.086 62.1731 101.746Z" fill="#0066C5"/>
<path d="M85.7227 92.0728C85.7227 93.9154 85.7393 95.8262 86.5166 97.5268C87.3542 99.3591 89.1156 100.492 90.8881 101.301C91.6409 101.644 92.629 101.541 93.0561 100.731C93.4237 100.034 93.293 98.9274 92.4871 98.56C91.732 98.2156 91.0014 97.8228 90.3287 97.3332C90.2344 97.2641 90.0902 97.1372 90.2582 97.2816C90.1798 97.2141 90.1013 97.1483 90.026 97.0769C89.9056 96.9626 89.7344 96.8245 89.6568 96.6777C89.7471 96.8499 89.7622 96.8182 89.6584 96.6618C89.614 96.5952 89.572 96.5277 89.5316 96.4595C89.4278 96.2857 89.3462 96.104 89.2527 95.9246C89.1505 95.7278 89.3383 96.1778 89.2685 95.9643C89.2329 95.8548 89.1885 95.7477 89.156 95.6374C89.0958 95.4318 89.0601 95.2216 89.0197 95.0113C88.9841 94.8224 89.0387 95.2485 89.015 94.9398C89.0078 94.8462 88.9975 94.7534 88.9904 94.6605C88.9706 94.428 88.9555 94.1947 88.9413 93.9614C88.904 93.3321 88.8921 92.7036 88.8921 92.0728C88.8921 91.2427 88.1632 90.4476 87.3074 90.4857C86.4516 90.5238 85.7227 91.1832 85.7227 92.0728Z" fill="#0066C5"/>
<path d="M98.295 73.3274C98.1175 74.6011 97.6484 75.7843 97.1571 76.9635C97.0216 77.288 96.894 77.6142 96.7696 77.9435C96.6856 78.1657 96.9257 77.6245 96.7253 78.0371C96.6722 78.1466 96.6223 78.2577 96.5692 78.3664C95.8323 79.8805 94.925 81.32 93.9512 82.6912C91.7 85.8622 88.6288 89.3078 84.6939 90.2331C82.709 90.6997 83.5489 93.7612 85.5362 93.2938C90.1684 92.2042 93.7372 88.35 96.4345 84.6442C97.4962 83.1864 98.4804 81.6477 99.2767 80.0257C100.163 78.2204 101.074 76.158 101.351 74.1702C101.469 73.3227 101.145 72.4657 100.244 72.2181C99.5025 72.0141 98.4138 72.4728 98.295 73.3274Z" fill="#0066C5"/>
<path d="M52.1281 74.0805C53.2184 78.7497 55.4148 83.1102 58.5455 86.7406C61.6762 90.3711 65.8559 93.4556 70.6934 94.1952C71.538 94.3245 72.397 93.9817 72.6426 93.0866C72.8486 92.3359 72.3867 91.2646 71.5357 91.1345C62.9654 89.8251 57.0337 81.1565 55.1843 73.2369C54.7199 71.2483 51.663 72.0902 52.1281 74.0805Z" fill="#0066C5"/>
<path d="M54.781 60.4568C53.1051 58.9594 50.7422 58.6086 48.6932 59.5458C47.2217 60.2195 46.3216 61.6098 45.9072 63.135C44.9508 66.6528 45.8486 70.7641 47.862 73.7645C49.2344 75.8103 51.3983 77.6513 54.0258 77.3101C54.8745 77.1998 55.6106 76.6594 55.6106 75.723C55.6106 74.9509 54.8808 74.0248 54.0258 74.1359C52.144 74.3803 50.9039 72.8226 50.0877 71.3149C49.419 70.0801 48.8833 68.6271 48.7589 67.1718C48.6345 65.7164 48.6781 64.0246 49.4729 62.843C49.2193 63.2199 49.8841 62.4756 49.6836 62.6256C49.9792 62.4042 50.1583 62.3327 50.4871 62.2589C51.2066 62.0971 51.9783 62.1994 52.5401 62.7017C53.1788 63.2723 54.1518 63.3318 54.781 62.7017C55.361 62.1209 55.422 61.0305 54.781 60.4576V60.4568Z" fill="#0066C5"/>
<path d="M101.05 62.7013C101.579 62.2284 102.311 62.1046 102.996 62.2355C103.38 62.3085 103.585 62.3847 103.907 62.6259C103.704 62.4736 104.367 63.2156 104.118 62.8434C104.912 64.0289 104.957 65.712 104.832 67.1722C104.707 68.6323 104.17 70.0813 103.503 71.3152C102.687 72.823 101.448 74.3807 99.5652 74.1363C98.715 74.026 97.9805 74.9449 97.9805 75.7234C97.9805 76.6725 98.7126 77.1994 99.5652 77.3105C103.848 77.8667 106.472 73.2269 107.542 69.7615C108.499 66.6603 108.471 61.8276 105.439 59.839C103.386 58.4924 100.593 58.8638 98.8101 60.4572C98.1714 61.0278 98.2293 62.1197 98.8101 62.7013C99.4448 63.337 100.41 63.2735 101.05 62.7013Z" fill="#0066C5"/>
<path d="M62.1731 101.745C64.1746 100.917 66.3251 99.8739 67.4067 97.8853C68.3718 96.1101 68.3718 94.0445 68.3861 92.0718C68.3924 91.2418 67.6531 90.4466 66.8013 90.4847C65.9376 90.5236 65.2229 91.1822 65.2166 92.0718C65.2118 92.7423 65.1999 93.4113 65.1556 94.081C65.1397 94.3199 65.1223 94.5596 65.1009 94.7984C65.0969 94.8389 65.0589 95.223 65.0834 95.0095C65.1072 94.8008 65.0462 95.223 65.0462 95.2206C65.005 95.4301 64.9519 95.6372 64.8806 95.8387C64.8275 95.9871 64.7713 96.0895 64.8679 95.8848C64.8228 95.9808 64.7784 96.0776 64.73 96.172C64.6437 96.3403 64.5494 96.5037 64.4448 96.6609C64.4186 96.6997 64.2015 96.9664 64.3465 96.8037C64.4955 96.6363 64.2253 96.9283 64.2237 96.9299C64.1651 96.9918 64.1041 97.0521 64.0415 97.11C64.0462 97.106 63.7538 97.3584 63.8917 97.2457C64.0359 97.1267 63.7404 97.3568 63.7111 97.3774C63.6168 97.4449 63.5217 97.5107 63.425 97.575C63.0684 97.8131 62.6968 98.0281 62.3157 98.2241C62.116 98.3273 61.9132 98.4241 61.7095 98.5177C61.6271 98.5558 61.5439 98.5923 61.4615 98.6288C61.0455 98.8153 61.7586 98.5082 61.3316 98.6844C60.5685 99.0002 59.9386 99.7517 60.2246 100.637C60.4623 101.372 61.353 102.085 62.1731 101.745Z" fill="#0066C5"/>
<path d="M85.7227 92.0718C85.7227 93.9144 85.7393 95.8253 86.5166 97.5258C87.3542 99.3581 89.1156 100.491 90.8881 101.3C91.6409 101.644 92.629 101.54 93.0561 100.73C93.4237 100.033 93.293 98.9264 92.4871 98.559C91.732 98.2146 91.0014 97.8218 90.3287 97.3322C90.2344 97.2632 90.0902 97.1362 90.2582 97.2806C90.1798 97.2132 90.1013 97.1473 90.026 97.0759C89.9056 96.9616 89.7344 96.8235 89.6568 96.6767C89.7471 96.8489 89.7622 96.8172 89.6584 96.6609C89.614 96.5942 89.572 96.5267 89.5316 96.4585C89.4278 96.2847 89.3462 96.103 89.2527 95.9237C89.1505 95.7269 89.3383 96.1768 89.2685 95.9633C89.2329 95.8538 89.1885 95.7467 89.156 95.6364C89.0958 95.4309 89.0601 95.2206 89.0197 95.0103C88.9841 94.8214 89.0387 95.2476 89.015 94.9389C89.0078 94.8452 88.9975 94.7524 88.9904 94.6595C88.9706 94.427 88.9555 94.1937 88.9413 93.9604C88.904 93.3312 88.8921 92.7027 88.8921 92.0718C88.8921 91.2418 88.1632 90.4466 87.3074 90.4847C86.4516 90.5228 85.7227 91.1822 85.7227 92.0718Z" fill="#0066C5"/>
<path d="M44.4972 62.579C44.4901 69.3257 44.4228 76.416 42.6637 82.981C41.7643 86.3385 41.2018 89.8975 41.1178 93.3756C41.0504 96.1475 42.3309 98.786 44.2825 100.713C47.093 103.487 50.9194 104.409 54.7505 103.822C55.5976 103.692 56.0651 102.627 55.8575 101.87C55.6087 100.963 54.7577 100.631 53.9082 100.761C51.1349 101.186 48.3228 100.331 46.3617 98.3043C44.6549 96.5403 44.1898 94.6389 44.3356 92.3361C44.5297 89.2698 45.1066 86.2885 45.853 83.3151C46.5035 80.7226 46.845 78.0468 47.1089 75.3908C47.532 71.135 47.662 66.8538 47.6667 62.579C47.6691 60.5364 44.4996 60.5333 44.4972 62.579Z" fill="#0066C5"/>
<path d="M105.03 62.1861C105.139 69.3883 105.984 76.5937 108.015 83.5182C109.485 88.5286 111.822 95.2594 107.033 99.2224C104.929 100.963 102.114 101.507 99.537 100.634C97.6004 99.9786 96.7692 103.043 98.6947 103.695C104.386 105.622 110.871 102.106 112.597 96.3902C113.591 93.101 112.92 89.4777 112.083 86.2321C111.156 82.6437 110.034 79.1442 109.38 75.4867C108.594 71.0968 108.268 66.6419 108.2 62.1861C108.169 60.1452 104.999 60.1396 105.03 62.1861Z" fill="#0066C5"/>
<path d="M93.0308 29.4847C94.2471 30.2156 95.1876 31.1853 96.1876 32.1804C97.2121 33.2009 98.2335 34.196 99.0845 35.3736C100.915 37.9066 102.279 40.7578 103.234 43.7288C105.126 49.6074 105.215 56.0605 105.032 62.185C104.971 64.2284 108.141 64.226 108.202 62.185C108.512 51.7634 107.596 40.6697 100.688 32.3058C98.9926 30.2521 96.9229 28.123 94.6306 26.7446C92.877 25.6908 91.282 28.4333 93.0308 29.4847Z" fill="#0066C5"/>
<path d="M90.1657 24.5567C80.4116 20.631 69.503 21.2285 60.2909 26.3326C56.8369 28.2466 53.8418 30.7011 51.494 33.8863C49.0788 37.1629 47.4449 41.01 46.3586 44.9174C44.7675 50.6412 44.3166 56.6602 44.4989 62.5801C44.5615 64.6179 47.731 64.6266 47.6684 62.5801C47.399 53.8082 48.4544 44.3389 53.322 36.8058C57.5921 30.198 65.6513 26.1707 73.323 25.2931C78.7761 24.6693 84.2562 25.5779 89.3242 27.6174C90.1189 27.9371 91.065 27.269 91.2734 26.5088C91.5222 25.6033 90.9628 24.8772 90.1657 24.5567Z" fill="#0066C5"/>
<path d="M87.1002 42.4912C83.2326 45.7177 79.1456 48.3904 74.6576 50.6782C71.3051 52.3874 67.9161 54.0356 64.3892 55.3553C60.9559 56.64 57.4457 57.6994 53.9418 58.7723C51.9965 59.3682 52.8261 62.4329 54.7841 61.833C60.6064 60.0499 66.3733 58.2105 71.8779 55.5735C76.0054 53.596 80.1487 51.5685 83.9157 48.949C85.796 47.6413 87.5828 46.2026 89.341 44.7353C90.9099 43.4268 88.6572 41.1914 87.1002 42.4912Z" fill="#0066C5"/>
<path d="M99.119 57.4468C95.1588 53.376 91.9481 48.4266 89.7476 43.19C89.4156 42.4005 88.7001 41.8331 87.7984 42.0815C87.0552 42.2862 86.3571 43.2385 86.6915 44.0336C89.113 49.7963 92.5114 55.2027 96.8774 59.691C98.3029 61.1567 100.545 58.9109 99.119 57.4468Z" fill="#0066C5"/>
<path d="M92.1912 101.301C93.7934 102.02 95.3607 102.808 96.9486 103.556C98.6665 104.364 100.478 104.995 102.235 105.715C105.452 107.036 108.639 108.455 111.638 110.226C113.399 111.267 114.996 108.523 113.238 107.485C110.206 105.694 106.981 104.272 103.733 102.924C102.013 102.211 100.242 101.589 98.5484 100.814C96.9526 100.084 95.3924 99.2779 93.791 98.5589C93.0106 98.209 92.0874 98.3328 91.6231 99.1287C91.2269 99.8064 91.4068 100.948 92.192 101.3L92.1912 101.301Z" fill="#0066C5"/>
<path d="M55.5008 119.571C55.0325 118.682 54.5666 117.792 54.1047 116.899C53.8764 116.458 53.6482 116.017 53.4216 115.575C53.3091 115.355 53.1966 115.136 53.0841 114.916C52.9922 115.283 53.046 115.323 53.2441 115.037C53.5769 114.898 54.0001 114.241 54.2584 113.977C54.6023 113.627 54.9501 113.281 55.3011 112.938C55.9984 112.255 56.7076 111.585 57.4191 110.916C58.1616 110.218 57.9635 108.918 57.0982 108.423C55.7068 107.628 54.2298 106.903 52.9034 106.003L53.4723 106.573L53.3368 106.364L53.5532 107.165C53.5365 107.552 53.8091 106.852 53.8978 106.715C54.0373 106.5 54.1839 106.287 54.3416 106.085C54.7259 105.592 55.1585 105.13 55.5943 104.683C56.5436 103.71 57.5697 102.811 58.6259 101.956C59.1536 101.528 59.694 101.117 60.2432 100.717C60.3002 100.675 60.9294 100.285 60.9365 100.221C60.8343 100.233 60.7344 100.222 60.6378 100.188C60.4389 99.9116 60.3858 99.9037 60.4785 100.162C60.4159 100.481 60.6996 101.112 60.7748 101.432C60.8604 101.796 60.9468 102.161 61.0339 102.525C61.2384 103.38 61.446 104.234 61.6568 105.088C63.3017 111.74 65.1392 118.344 67.1598 124.892C67.7604 126.837 70.8205 126.007 70.216 124.048C68.0655 117.08 66.121 110.048 64.3984 102.96C64.1916 102.11 63.9879 101.258 63.7882 100.407C63.5925 99.572 63.4808 98.6674 62.8889 98.0032C61.8295 96.8152 60.2257 96.843 58.9936 97.7246C56.6228 99.422 54.2568 101.284 52.367 103.521C51.4819 104.568 49.9193 106.292 50.5208 107.777C50.8924 108.695 51.8749 109.094 52.68 109.554C53.6197 110.091 54.5595 110.628 55.4992 111.166L55.1783 108.673C54.2433 109.552 53.3131 110.434 52.4066 111.343C51.5691 112.181 50.3995 113.108 50.0398 114.279C49.6769 115.458 50.3377 116.502 50.8551 117.508C51.4851 118.734 52.1229 119.955 52.7647 121.174C53.7164 122.982 56.4532 121.379 55.5016 119.572L55.5008 119.571Z" fill="#0066C5"/>
<path d="M101.487 120.135C102.06 119.041 102.636 117.946 103.192 116.844C103.697 115.842 104.024 114.821 103.444 113.76C102.914 112.792 101.947 111.985 101.171 111.211C100.305 110.348 99.4186 109.509 98.5287 108.672L98.2078 111.165C98.982 110.723 99.7553 110.28 100.529 109.838C101.241 109.431 102.137 109.083 102.723 108.496C103.892 107.325 103.052 105.797 102.258 104.694C100.532 102.299 98.234 100.378 95.9012 98.6007C94.7935 97.7571 93.6517 96.7414 92.1557 97.1548C90.4473 97.6278 90.1859 99.2752 89.8333 100.769C89.0052 104.278 88.1201 107.774 87.1836 111.256C86.1273 115.183 85.0053 119.09 83.8191 122.978C83.2217 124.936 86.2803 125.773 86.8753 123.822C88.8206 117.444 90.5955 111.013 92.185 104.537C92.3791 103.745 92.5709 102.952 92.7595 102.159C92.8459 101.795 92.9322 101.431 93.017 101.067C93.0733 100.825 93.1303 100.583 93.1858 100.341C93.3387 99.964 93.3332 99.8775 93.1691 100.082C93.1105 100.18 93.0233 100.227 92.9077 100.221C92.685 100.192 92.7151 100.245 92.9972 100.38C93.1937 100.576 93.4774 100.725 93.6992 100.888C94.2095 101.265 94.7103 101.653 95.2016 102.053C96.2531 102.91 97.2728 103.812 98.215 104.79C98.6135 105.203 99.0105 105.629 99.3639 106.082C99.5216 106.285 99.6682 106.497 99.8076 106.713C99.8964 106.85 100.169 107.549 100.152 107.162L100.369 106.362L100.233 106.57L100.802 106C99.4764 106.9 97.9987 107.626 96.6072 108.421C95.742 108.915 95.5439 110.216 96.2863 110.913C97.5779 112.127 98.8623 113.349 100.085 114.634C100.212 114.767 100.337 114.899 100.461 115.033C100.659 115.32 100.713 115.279 100.621 114.913C100.572 115.265 100.199 115.737 100.034 116.057C99.6088 116.883 99.1801 117.707 98.7498 118.53C97.8045 120.337 100.539 121.944 101.487 120.132L101.487 120.135Z" fill="#0066C5"/>
<path d="M88.3097 93.3906C89.4 94.6119 90.7438 96.4021 91.8104 97.6393C92.4379 98.3677 92.8999 99.7048 92.5433 100.67C92.1337 101.49 87.6029 108.765 84.5522 110.722C83.5879 109.436 79.5952 103.885 77.6855 101.734C78.4019 101.225 87.8469 93.7676 88.3097 93.3922V93.3906Z" fill="white"/>
<path d="M65.3951 93.3906C64.3048 94.6119 62.9609 96.4021 61.8944 97.6393C61.2668 98.3677 60.8049 99.7048 61.1614 100.67C61.5711 101.49 66.1019 108.765 69.1525 110.722C70.1168 109.436 74.1096 103.885 76.0192 101.734C75.3029 101.225 65.8578 93.7676 65.3951 93.3922V93.3906Z" fill="white"/>
<path d="M87.1884 94.5111C87.9871 95.4166 88.7336 96.3657 89.4903 97.3052C90.0394 97.9877 90.8872 98.709 91.0497 99.612C91.0663 99.7033 91.0956 100.112 91.1186 99.9596C91.1384 99.8318 91.1138 99.9644 91.0893 100.023C91.0196 100.191 90.8967 100.356 90.8032 100.511C90.4942 101.024 90.1709 101.529 89.8429 102.03C88.942 103.407 87.9998 104.765 86.9713 106.05C86.0308 107.225 84.801 108.656 83.7511 109.35L85.9191 109.919C83.5855 106.797 81.3827 103.538 78.8043 100.61L78.4834 103.102C82.2369 100.404 85.8319 97.4147 89.4285 94.5119C90.0956 93.9739 89.9879 92.828 89.4285 92.2678C88.7692 91.6076 87.8556 91.7282 87.1876 92.2678C85.4872 93.6406 83.759 94.9809 82.042 96.3323C80.878 97.2489 79.7132 98.1646 78.546 99.0772C78.3305 99.2462 78.115 99.4144 77.8987 99.5827C77.7877 99.6692 77.1221 100.184 77.5175 99.8795C77.3076 100.041 77.0992 100.206 76.8836 100.361C76.0231 100.98 75.8417 102.035 76.5627 102.854C78.9636 105.579 81.0095 108.615 83.1822 111.522C83.6735 112.179 84.5704 112.606 85.3501 112.091C86.9547 111.032 88.2344 109.539 89.415 108.04C90.6376 106.487 91.7834 104.875 92.8523 103.212C93.7627 101.797 94.5385 100.56 94.1051 98.7701C93.7865 97.456 92.9133 96.5204 92.0861 95.5031C91.2058 94.4207 90.3524 93.3145 89.4285 92.2678C88.0751 90.7339 85.8398 92.9867 87.1876 94.5127L87.1884 94.5111Z" fill="#0066C5"/>
<path d="M64.2747 92.2657C63.3508 93.3124 62.4974 94.4178 61.6171 95.5002C60.7859 96.5223 59.9182 97.4475 59.5981 98.7672C59.1647 100.556 59.9412 101.795 60.8509 103.209C61.9198 104.872 63.0655 106.484 64.2882 108.037C65.4688 109.536 66.7485 111.029 68.353 112.088C69.1256 112.599 70.0313 112.175 70.521 111.519C72.6937 108.612 74.7396 105.577 77.1405 102.851C77.8615 102.032 77.6809 100.977 76.8196 100.358C76.604 100.204 76.3956 100.038 76.1857 99.8766C76.5779 100.179 75.9083 99.6599 75.8045 99.5798C75.5882 99.4116 75.3727 99.2433 75.1572 99.0743C73.99 98.1617 72.8252 97.246 71.6612 96.3294C69.9441 94.9772 68.216 93.6369 66.5155 92.2649C65.8499 91.7277 64.9252 91.6142 64.2747 92.2657C63.7193 92.822 63.6052 93.9686 64.2747 94.509C67.8713 97.4126 71.4663 100.401 75.2197 103.099L74.8988 100.607C72.3197 103.535 70.1177 106.795 67.7841 109.916L69.9521 109.347C69.479 109.034 68.9766 108.569 68.4458 108.019C67.8657 107.418 67.323 106.782 66.7992 106.132C65.7446 104.822 64.7802 103.434 63.8595 102.027C63.5315 101.526 63.209 101.021 62.8992 100.508C62.8088 100.358 62.7018 100.207 62.629 100.049C62.6068 100.001 62.5608 99.952 62.5473 99.9004C62.629 100.225 62.6329 99.7068 62.6408 99.6536C62.7843 98.7291 63.6559 97.9951 64.2129 97.3031C64.9696 96.3628 65.716 95.4137 66.5147 94.509C67.861 92.9839 65.6281 90.7302 64.2739 92.2649L64.2747 92.2657Z" fill="#0066C5"/>
<path d="M33.62 65.4046C32.8657 67.0235 32.5765 68.9335 32.9116 70.7872C33.1525 72.1236 33.6866 73.3869 34.2159 74.6328C34.5518 75.4239 36.5882 79.5591 36.5621 78.8076C38.5779 77.7204 40.7886 76.9316 43.1095 76.2921C43.722 76.123 44.7172 75.9461 45.3218 76.1429C45.3741 76.1603 45.4264 76.1778 45.4779 76.1968C45.7314 76.0088 45.874 75.9008 45.874 75.9008L47.1807 74.9153C48.7044 73.5004 49.282 72.6299 49.4049 71.8181C49.6259 70.3595 49.45 69.7898 48.8122 68.4185C48.1878 67.0758 47.0325 65.2658 46.3106 64.0342C45.9937 63.493 45.6704 62.9447 45.2402 62.5114C44.6974 61.9646 44.0143 61.6321 43.3266 61.3957C40.6705 60.4807 37.6976 60.9338 35.593 62.7494C34.7729 63.4565 34.1018 64.3715 33.6208 65.4046H33.62Z" fill="white"/>
<path d="M60.936 109.128C58.6539 109.663 55.9543 109.234 53.8743 107.839C52.7476 107.084 51.8213 106.197 50.8919 105.213C50.399 104.691 48.6645 102.032 48.3634 100.905C48.3634 100.905 48.2691 100.551 48.1328 100.04C49.2033 99.5061 50.1866 98.9634 51.3546 98.2047C52.6406 97.3699 53.3854 96.4986 53.1065 94.8211C53.0939 94.7441 53.0748 94.6584 53.0487 94.5687C54.0146 94.0783 54.6437 93.7593 54.6437 93.7593L55.9329 93.1046C57.837 92.2714 58.8449 92.2651 59.6373 92.4769C61.0612 92.8571 61.4835 93.2094 62.512 94.318C63.466 95.3464 64.7069 97.097 65.5452 98.2516C65.9136 98.7586 66.2869 99.2744 66.5119 99.8434C66.7956 100.56 66.8265 101.32 66.7686 102.046C66.5444 104.85 64.9422 107.398 62.4383 108.605C61.9684 108.831 61.4637 109.006 60.936 109.13V109.128Z" fill="white"/>
<path d="M33.9709 103.155C32.6128 99.0267 31.2555 94.8979 29.8973 90.7691C29.3205 89.0161 29.4909 85.1492 30.822 83.4899C31.9322 82.106 33.1944 80.9656 34.5771 80.0102C34.8322 79.8341 35.0914 79.6634 35.3552 79.5C37.684 78.0478 40.317 77.0622 43.1086 76.2925C43.7211 76.1234 44.7163 75.9465 45.3209 76.1433C46.3201 76.4678 47.0506 77.0725 47.3272 78.043C47.6037 79.0127 47.4563 80.061 47.1378 81.018L47.0332 81.4926C47.4809 81.4172 47.9444 81.3934 48.2883 81.4926C49.2986 81.7822 50.0498 82.3607 50.3596 83.3209C50.6694 84.2811 50.5593 85.3333 50.274 86.3006C50.274 86.3006 50.1345 86.7982 49.9705 87.3838C50.0783 87.3933 50.1805 87.4108 50.2732 87.4378C51.2534 87.7187 51.9824 88.2805 52.2835 89.2121C52.5846 90.1438 52.4768 91.1651 52.2003 92.1038C52.2003 92.1038 52.0624 92.641 51.9055 93.256C52.7066 93.5481 53.0251 94.3432 53.1044 94.8225C53.3833 96.5 52.6384 97.3714 51.3524 98.2062C49.5934 99.3481 48.255 100.001 46.4041 100.873C46.4651 102.004 46.8193 103.09 47.0752 104.19C47.3137 105.216 47.4666 106.293 47.2162 107.316C46.9167 108.54 45.9302 109.675 44.5824 109.629L33.9701 103.157L33.9709 103.155Z" fill="white"/>
<path d="M34.5561 78.129C32.6077 79.3661 30.6363 80.9238 29.3296 82.8561C28.29 84.394 28.0056 86.481 28 88.2974C27.9945 90.4416 28.752 92.3516 29.4128 94.3617C30.2924 97.0351 31.1711 99.7094 32.0506 102.383C32.6861 104.314 35.7478 103.487 35.1068 101.539C34.3501 99.2388 33.5934 96.9375 32.8367 94.637C32.2519 92.8595 31.3145 90.9479 31.1925 89.0632C31.103 87.6888 31.1751 86.0715 31.8367 84.8296C32.7139 83.183 34.6195 81.8435 36.1551 80.8683C37.873 79.7772 36.2851 77.0291 34.5553 78.1274L34.5561 78.129Z" fill="#0066C5"/>
<path d="M48.6651 81.4385C49.2063 79.734 49.2863 77.7128 48.15 76.2289C47.154 74.9283 45.5455 74.3236 43.941 74.5283C42.3364 74.7331 40.7382 75.3044 39.2248 75.8789C37.6059 76.4931 36.0299 77.2192 34.5553 78.1286C32.8216 79.1975 34.4119 81.9448 36.1551 80.8695C38.3809 79.4975 40.8103 78.581 43.3213 77.8803C43.8847 77.7231 44.166 77.6708 44.6747 77.643C45.1145 77.6192 44.6272 77.5993 44.8268 77.6533C44.8926 77.6708 45.1771 77.7771 44.998 77.6985C45.097 77.7422 45.1945 77.7953 45.288 77.8501C45.2935 77.8533 45.6113 78.0834 45.5146 77.9977C45.3981 77.8945 45.6675 78.1651 45.6889 78.1929C45.5526 78.0231 45.7087 78.2397 45.7468 78.3183C45.8506 78.5365 45.7 78.016 45.7999 78.4635C45.8308 78.6024 45.8791 78.7412 45.8934 78.8833C45.9488 79.4507 45.7832 80.0506 45.6105 80.5942C45.3514 81.4107 45.9156 82.3257 46.7174 82.5463C47.5724 82.7812 48.4068 82.2574 48.6667 81.4377L48.6651 81.4385Z" fill="#0066C5"/>
<path d="M51.803 86.7217C52.3022 84.9363 52.3156 82.8603 51.0463 81.3836C49.8886 80.0361 48.1684 79.6751 46.4877 79.9822C44.9442 80.2647 43.4126 80.936 41.9728 81.5415C40.3358 82.2303 38.7399 83.0095 37.2582 83.9951C36.5459 84.4689 36.24 85.3965 36.6893 86.1662C37.1029 86.8749 38.1417 87.2121 38.8572 86.736C41.0838 85.2545 43.5615 84.2014 46.0971 83.3785C46.3602 83.2936 46.6225 83.2079 46.8911 83.1405C47.0361 83.104 47.1819 83.0691 47.3292 83.0437C47.353 83.0397 47.609 83.0143 47.4584 83.0254C47.6026 83.0143 47.7532 83.0064 47.8974 83.0191C48.0194 83.0246 48.0091 83.0262 47.8657 83.0222L48.0416 83.0762C48.204 83.1675 48.2888 83.1643 48.5218 83.3269C48.5408 83.3404 48.7341 83.5603 48.7436 83.5761C48.765 83.6118 48.8886 83.8999 48.8308 83.7412C48.8783 83.8721 48.9172 84.0197 48.9386 84.1578C49.0281 84.7379 48.9013 85.3195 48.7452 85.8774C48.1945 87.8478 51.2515 88.6881 51.8014 86.7209L51.803 86.7217Z" fill="#0066C5"/>
<path d="M53.731 92.5228C54.223 90.7698 54.2191 88.7709 52.9988 87.3124C51.9315 86.0371 50.281 85.6396 48.6994 85.8943C47.2882 86.122 45.8698 86.6918 44.5466 87.2195C43.087 87.802 41.6909 88.4868 40.3811 89.3597C39.6695 89.8342 39.3629 90.7611 39.8122 91.5308C40.2258 92.2387 41.2646 92.5775 41.9801 92.1006C44.0791 90.7016 46.064 89.9612 48.4601 89.2153C49.0362 89.0359 49.3491 88.9717 49.7723 88.9598C49.991 88.9534 49.5108 88.8463 49.8531 88.9653C49.8864 88.9772 50.2651 89.1073 50.1067 89.0423C49.9632 88.9836 50.3254 89.1597 50.323 89.1581C50.3578 89.1788 50.6589 89.4018 50.5171 89.2811C50.3784 89.1637 50.6708 89.4517 50.6669 89.447C50.5179 89.2819 50.6431 89.4311 50.7073 89.5319C50.7889 89.6605 50.6811 89.3605 50.7572 89.6295C50.7802 89.7096 50.8578 89.9874 50.8578 89.9874C50.9553 90.5484 50.8372 91.096 50.674 91.6776C50.1209 93.6472 53.1779 94.4884 53.7302 92.5212L53.731 92.5228Z" fill="#0066C5"/>
<path d="M44.8374 101.103C44.9254 101.983 45.1021 102.835 45.32 103.691C45.4238 104.099 45.5307 104.507 45.6179 104.921C45.6615 105.128 45.7027 105.337 45.732 105.546C45.69 105.251 45.7471 105.772 45.751 105.833C45.7613 106.016 45.7653 106.2 45.7589 106.383C45.755 106.488 45.7486 106.592 45.7383 106.696C45.7629 106.533 45.7581 106.548 45.7249 106.74C45.6821 106.91 45.6361 107.075 45.5846 107.244C45.4943 107.54 45.7122 107.013 45.5181 107.367C45.4491 107.493 45.3723 107.613 45.2899 107.73C45.5204 107.403 45.194 107.799 45.1361 107.861C45.003 107.975 45.0165 107.967 45.1765 107.838C45.1116 107.883 45.0442 107.926 44.9745 107.965C44.8168 108.044 44.835 108.041 45.0292 107.956C44.9539 107.985 44.877 108.008 44.7994 108.028C44.003 108.257 43.427 109.159 43.6924 109.98C43.9547 110.792 44.7883 111.333 45.6417 111.089C47.6575 110.511 48.7501 108.61 48.9134 106.617C48.9958 105.615 48.8009 104.584 48.5687 103.613C48.4641 103.177 48.3468 102.745 48.2414 102.309C48.186 102.079 48.1329 101.848 48.0869 101.616C48.0616 101.487 48.0418 101.357 48.018 101.228C47.9665 100.948 48.0552 101.596 48.0061 101.102C47.9245 100.279 47.3358 99.4739 46.4214 99.5152C45.633 99.5509 44.7487 100.217 44.8366 101.102L44.8374 101.103Z" fill="#0066C5"/>
<path d="M48.0439 101.842C49.5383 101.125 51.0295 100.36 52.3932 99.4125C53.7363 98.4793 54.7164 97.243 54.7473 95.5392C54.7767 93.9101 53.9772 92.3278 52.3924 91.7485C51.2815 91.3422 49.8537 91.5406 48.7356 91.8056C47.0471 92.2056 45.4504 93.0316 43.9687 93.9149C43.2564 94.3394 42.9339 95.3623 43.3998 96.086C43.8617 96.8041 44.8055 97.1097 45.5677 96.6558C46.2032 96.2772 46.8506 95.917 47.5193 95.5988C47.6556 95.5337 47.7919 95.471 47.9298 95.4099C47.9852 95.3853 48.0431 95.3528 48.1009 95.3353C47.78 95.4337 47.9797 95.3853 48.0566 95.3567C48.3188 95.2583 48.5795 95.1575 48.8466 95.0718C49.3117 94.9227 49.7792 94.8274 50.257 94.7354C50.4289 94.7021 50.0319 94.7624 50.0518 94.7632C50.1056 94.7632 50.1666 94.7505 50.2213 94.7449C50.318 94.7354 50.4147 94.7282 50.5113 94.7235C50.7102 94.7132 50.9091 94.7108 51.1072 94.7179C51.1286 94.7179 51.4091 94.7219 51.413 94.7362C51.421 94.7655 51.108 94.6552 51.2863 94.7267C51.3528 94.7536 51.5794 94.7663 51.3568 94.733C51.1888 94.7076 51.2863 94.6901 51.3568 94.7409C51.5485 94.8806 51.2807 94.6862 51.2791 94.6608C51.2791 94.6687 51.375 94.7536 51.3845 94.7568C51.6016 94.8417 51.3758 94.8639 51.3473 94.6806C51.3592 94.7552 51.4653 94.8735 51.5073 94.9441C51.6864 95.2409 51.4408 94.6822 51.4907 94.9036C51.5089 94.9838 51.5351 95.0671 51.5573 95.1472C51.5691 95.1901 51.6056 95.3416 51.5652 95.1575C51.5161 94.9361 51.5723 95.2845 51.5731 95.3123C51.5794 95.4408 51.558 95.5773 51.5691 95.7043C51.585 95.8741 51.5707 95.5567 51.5961 95.5432C51.5882 95.5472 51.5628 95.7122 51.5565 95.7408C51.5398 95.809 51.402 96.1622 51.5137 95.9193C51.6214 95.6853 51.4368 96.036 51.3964 96.109C51.2205 96.4264 51.566 95.9463 51.3845 96.1344C51.3037 96.2185 51.2268 96.305 51.1421 96.386C51.1016 96.4248 50.9329 96.6224 50.8679 96.6256C50.9558 96.6208 51.108 96.4534 50.9297 96.5764C50.852 96.6296 50.776 96.6859 50.6975 96.7391C49.3505 97.6485 47.9052 98.4023 46.4425 99.1046C45.6929 99.4649 45.4362 100.596 45.8736 101.276C46.3696 102.046 47.2404 102.23 48.0415 101.846L48.0439 101.842Z" fill="#0066C5"/>
<path d="M37.5472 77.6973C37.8618 78.087 37.5504 77.6672 37.4791 77.5497C37.361 77.3561 37.2509 77.1561 37.1415 76.957C36.8642 76.4515 36.6019 75.9373 36.3444 75.4215C35.8626 74.4565 35.4134 73.4828 35.0402 72.4695C34.0592 69.8063 34.0743 66.7123 36.0805 64.4944C37.8563 62.5311 40.8887 61.9503 43.2935 63.0787C44.5486 63.6675 45.1183 65.1292 45.799 66.2608C46.5232 67.4646 47.3782 68.7255 47.7958 70.0801C48.4289 72.1354 46.593 73.386 45.0756 74.5303C44.3925 75.0453 44.0391 75.9008 44.5066 76.7014C44.8997 77.3752 45.9868 77.7894 46.6746 77.2712C48.8298 75.646 50.9764 73.8955 51.0778 70.9863C51.142 69.1437 50.1444 67.4194 49.2529 65.8736C48.3877 64.3714 47.5375 62.4835 46.257 61.2916C43.4869 58.7134 38.5813 58.8102 35.5394 60.8171C32.2352 62.997 30.7487 67.0893 31.3398 70.9332C31.625 72.7853 32.4214 74.574 33.2288 76.2539C33.8334 77.5117 34.4245 78.8496 35.3056 79.9415C35.8436 80.6088 36.9862 80.5025 37.5464 79.9415C38.2049 79.282 38.0868 78.3655 37.5472 77.6973Z" fill="#0066C5"/>
<path d="M46.8352 101.327C47.6846 104.165 49.8708 106.761 52.1623 108.542C55.1496 110.863 59.2667 111.685 62.8102 110.162C66.1913 108.709 68.4274 105.089 68.3759 101.416C68.3465 99.289 67.1659 97.7805 65.9655 96.145C64.952 94.7642 63.9235 93.2676 62.5852 92.1772C61.2794 91.1131 59.548 90.6124 57.8825 90.8552C56.43 91.0671 55.1361 91.7321 53.8429 92.3883C52.0229 93.312 53.6258 96.0513 55.4427 95.1292C56.1812 94.7539 56.8888 94.373 57.6883 94.1373C58.1764 93.9937 58.5457 93.9103 59.033 93.9587C58.7549 93.9318 59.2873 94.0278 59.3515 94.0452C59.6344 94.1222 59.9086 94.204 60.1677 94.3404C61.1225 94.8436 61.8824 95.9664 62.525 96.8028C62.9632 97.3734 63.3831 97.9574 63.8054 98.5399C64.2444 99.1461 64.7912 99.7627 65.0542 100.47C65.4908 101.643 65.0812 103.242 64.5471 104.323C63.9782 105.475 63.1216 106.426 61.9941 107.049C59.6249 108.358 56.5473 107.809 54.4166 106.294C53.7399 105.813 53.1322 105.237 52.549 104.649C52.3192 104.418 52.0855 104.188 51.8771 103.937C52.0736 104.173 51.698 103.679 51.6433 103.6C51.259 103.042 50.8977 102.466 50.5617 101.878C50.2844 101.392 50.0102 100.885 49.8906 100.486C49.3066 98.5335 46.2465 99.3652 46.8344 101.329L46.8352 101.327Z" fill="#0066C5"/>
</svg>
