<svg width="73" height="222" viewBox="0 0 73 222" fill="none" xmlns="http://www.w3.org/2000/svg">
<path fill-rule="evenodd" clip-rule="evenodd" d="M72.0192 0.920044H1.14063V162.907L65.0191 162.907L72.0192 155.544V0.920044ZM72.0192 155.544L72.0194 155.544V162.907H65.0191L72.0192 162.907V155.544Z" fill="white"/>
<path d="M9 221.5L71.8334 155.305V0.920059H1.50182V163.083H64.6775" stroke="#1A5E9D" stroke-width="1.2664" stroke-miterlimit="10"/>
<path d="M72.2041 0.920059L72.2041 11.718L61.9381 0.920059L72.2041 0.920059Z" fill="#1A5E9D"/>
<path d="M1.19556 163.788L1.19556 152.99L11.4616 163.788L1.19556 163.788Z" fill="#1A5E9D"/>
<path d="M59.9185 144.51L59.6692 145.766C59.4476 145.783 59.226 145.792 59.0044 145.792C56.8159 145.792 54.6828 144.969 54.6828 142.933C54.6828 141.695 55.5323 140.577 56.6035 139.91C55.5416 139.945 53.8148 140.058 52.6421 140.101L52.6144 138.914C54.4981 138.888 58.2841 138.854 60.5003 138.741L60.6019 139.858H60.1217C59.8631 139.858 58.9951 139.876 58.4965 140.049C57.2868 140.465 55.9479 141.487 55.9479 142.812C55.9479 143.756 56.8621 144.562 58.9213 144.562C59.226 144.562 59.5584 144.545 59.9185 144.51ZM60.1679 141.989L59.4384 142.362C59.2075 141.868 58.6719 141.132 58.3857 140.811L59.0967 140.482C59.3276 140.759 59.9462 141.504 60.1679 141.989ZM61.3683 141.452L60.685 141.851C60.4633 141.392 59.937 140.707 59.6138 140.335L60.2879 140.006C60.5742 140.309 61.1282 140.984 61.3683 141.452Z" fill="#1A5E9D"/>
<path d="M61.3299 133.753L60.6287 135.041C59.9276 134.392 59.1874 133.84 58.4181 133.443C58.1844 134.683 57.2397 135.216 56.0321 135.216C54.0552 135.216 53.4904 134.218 53.4904 133.404C53.4904 132 55.0388 131.642 56.1587 131.642C56.4898 131.642 56.821 131.671 57.1618 131.729L57.1423 130.799L53.7923 130.809V129.647H57.1229L57.1131 128.697H53.5098V127.545L57.0839 127.535C57.0742 127.041 57.0644 126.634 57.0644 126.402H58.4473V127.535H61.3689V128.697H58.4473L58.457 129.637H61.0572V130.799H58.457C58.457 131.235 58.4668 131.661 58.4668 132.078C59.4017 132.417 60.3561 132.978 61.3299 133.753ZM57.1521 132.949C56.9183 132.891 56.4606 132.794 56.0029 132.794C55.6621 132.794 54.8245 132.862 54.8245 133.375C54.8245 133.85 55.4381 134.005 55.964 134.005C56.6749 134.005 57.0644 133.647 57.1521 132.949Z" fill="#1A5E9D"/>
<path d="M62.0538 122.639H60.2451V115.845H58.3658C58.2386 118.81 57.7865 120.779 56.868 122.37L55.4408 120.779C56.3734 118.999 56.6278 117.26 56.6278 113.822V110.641C58.5071 110.641 61.0647 110.533 62.8027 109.899L63.7353 111.598C61.4321 112.285 58.4082 112.285 58.4082 112.285V114.146H63.7636V115.845H62.0538V122.639ZM54.5365 122.639H52.7561V115.925C52.417 117.139 51.9224 118.42 51.2724 119.309L50.3822 117.233C51.1876 116.438 51.9507 115.197 52.5583 113.768H50.8061V112.137H52.7561V109.899H54.5365V112.137H56.1474V113.768H54.6919C55.1724 114.685 55.7658 115.454 56.543 116.101L55.7658 118.042C55.2854 117.22 54.8615 116.289 54.5365 115.224V122.639Z" fill="#1A5E9D"/>
<path d="M57.798 106.611H57.389L56.7544 104.818C57.2339 104.845 57.9814 104.885 58.3903 104.885C59.2929 104.872 59.4481 104.656 59.5045 103.861C59.5468 103.079 59.6596 101.407 59.6596 100.733H57.4172C57.0929 103.47 55.4569 105.829 51.6632 106.894L50.4926 105.303C53.9902 104.495 55.2454 102.742 55.5274 100.733H52.9325V99.5603C52.4389 99.9648 51.9312 100.329 51.4234 100.625L50.1542 99.1154C52.2132 97.983 53.6799 96.4731 54.5966 94.1138L56.3736 94.7879C55.7672 96.4461 54.6953 97.9426 53.4543 99.102H60.8584C59.6878 97.9426 58.6442 96.5135 57.7416 94.8014L59.5186 94.1138C60.4494 96.0686 62.0007 97.7403 64.0174 99.0211L62.6354 100.625C62.2828 100.369 61.9443 100.1 61.6199 99.8165C61.5635 100.895 61.4648 102.89 61.4225 103.524C61.2533 105.856 60.8866 106.611 57.798 106.611Z" fill="#1A5E9D"/>
<path d="M56.4992 84.0661C57.0142 83.6159 57.3231 83.2389 57.3231 82.5061C57.3231 81.836 56.7624 81.2392 55.95 80.8414L56.6365 79.6897C58.0555 80.3912 58.7421 81.4172 58.7421 82.5375C58.7421 83.5321 58.3301 84.2964 57.4833 85.0083C56.957 85.4585 56.6594 85.8459 56.6594 86.5683C56.6594 87.2384 57.2201 87.8352 58.0326 88.233L57.346 89.3847C55.9271 88.6832 55.2405 87.6572 55.2405 86.5369C55.2405 85.5423 55.6525 84.778 56.4992 84.0661Z" fill="#1A5E9D"/>
<path d="M63.8803 70.7557L63.2454 72.7105C62.7233 72.387 62.1589 72.0634 61.5804 71.7668C60.762 73.8025 59.2663 75.3799 56.7123 75.9596L55.2589 74.5036C57.7 74.0722 59.1534 72.8858 59.8871 70.9984C58.8571 70.5805 57.8129 70.2704 56.7828 70.1221C56.289 71.2006 55.7669 72.1982 55.2166 72.9802C54.0737 74.5845 52.6485 74.6384 52.5639 74.6384C51.5902 74.6384 50.6307 73.9104 50.6307 72.5218C50.6307 70.2165 52.8037 68.4774 55.146 68.4774H55.5552C55.7669 67.9785 55.9503 67.5471 56.0632 67.2236C56.2325 66.7652 56.8393 65.498 56.8393 65.498L55.2871 65.6058L53.0013 65.6732L53.0154 64.0554L58.9841 63.9341L59.0546 65.08C58.5184 66.172 57.9963 67.4123 57.4601 68.6257C58.4055 68.7605 59.365 68.9762 60.3245 69.2728C60.4374 68.6257 60.4797 67.9111 60.4797 67.1427C60.4797 66.8865 60.4797 66.6304 60.4656 66.3743L62.4834 66.536C62.4693 67.682 62.3705 68.8414 62.1307 69.9199C62.7374 70.176 63.3159 70.4456 63.8803 70.7557ZM54.8215 70.0682C53.6927 70.2434 52.2393 70.8231 52.2393 72.1308C52.2393 72.4813 52.4086 72.6971 52.6485 72.6971C53.5516 72.6971 54.5675 70.5939 54.8215 70.0682Z" fill="#1A5E9D"/>
<path d="M63.5302 55.1323L62.2179 56.7906C61.0185 55.8199 59.7768 54.3774 59.1136 52.099C58.2811 54.647 57.0817 55.9143 55.6425 56.8849L54.4008 55.1323C57.0676 53.8246 57.9707 51.2092 58.2106 48.6747V48.5534H55.191V46.9087H60.059V48.5129C60.059 51.3171 61.2584 53.7437 63.5302 55.1323ZM62.8952 59.042H56.475C54.8946 59.042 53.8928 58.7454 53.0321 57.7477C52.6229 58.3409 52.002 58.9745 51.3247 59.3116L50.1536 57.7882C50.7744 57.532 51.5505 57.0063 52.0726 56.3322V53.2584H50.5063V51.5598H53.8505V56.1165C54.4431 57.0332 55.2192 57.3298 56.348 57.3298H56.4327L63.516 57.2354L62.8952 59.042ZM53.7517 49.0252L52.3124 50.1442C51.9032 49.6049 51.0848 48.6343 50.3934 47.8928L51.875 46.7604C52.3971 47.2996 53.3284 48.4186 53.7517 49.0252Z" fill="#1A5E9D"/>
<path d="M60.908 36.5959L62.5025 38.1463C60.908 41.0043 58.3963 42.7569 55.1933 42.7569C53.2884 42.7569 51.5811 41.9345 51.5811 39.1034C51.5811 36.3532 51.6375 33.6165 51.6375 30.8663L53.7823 30.9337C53.6412 33.5356 53.5565 36.151 53.5565 38.7664C53.5565 40.2224 54.1491 40.856 55.3626 40.856C58.8479 40.856 60.6258 37.216 60.908 36.5959Z" fill="#1A5E9D"/>
<path d="M62.0521 25.9653H60.1896V24.9542H57.0571V28.7155H55.0534V24.9542H52.1608V25.9653H50.2982V17.2023H55.0534V15.962H57.0571V17.2023H62.0521V25.9653ZM60.1896 23.4308V21.7591H57.0571V23.4308H60.1896ZM60.1896 20.2761V18.7257H57.0571V20.2761H60.1896ZM55.0534 23.4308V21.7591H52.1608V23.4308H55.0534ZM55.0534 20.2761V18.7257H52.1608V20.2761H55.0534Z" fill="#1A5E9D"/>
<path d="M41.2773 131.448H25.3285V127.965H30.9666V125.009H24.7678V123.868C23.2103 126.356 21.0298 129.312 19.2542 131.507C20.0641 131.478 20.8117 131.419 21.497 131.361L20.9675 129.78L23.6464 128.756C24.394 130.658 25.2662 133.263 25.7023 134.902L22.7119 135.985L22.3692 134.522L20.9986 134.639V146.024H17.2606V134.902C15.6097 134.99 13.9899 135.048 12.775 135.048L12.3389 131.624C13.1177 131.653 14.021 131.653 14.9555 131.653L16.6999 129.37C15.4539 128.053 13.7095 126.443 12.3078 125.36L14.3637 122.17L15.3293 123.019C16.2327 121.526 17.0426 119.887 17.6033 118.365L21.0609 119.682C20.251 121.468 19.0673 123.663 17.8525 125.507C18.1951 125.858 18.4755 126.18 18.7558 126.502C19.8772 124.892 20.874 123.282 21.6216 121.907L24.7678 123.399V121.526H30.9666V118.365H35.0161V121.526H41.6511V125.009H35.0161V127.965H41.2773V131.448ZM40.3428 146.024H36.4179V144.356H30.1567V146.024H26.2318V133.497H40.3428V146.024ZM15.6408 144.795L12.2766 143.829C12.8685 141.546 13.3669 137.975 13.5226 135.809L16.7311 136.424C16.5442 138.824 16.1392 142.57 15.6408 144.795ZM36.4179 141.048V136.775H30.1567V141.048H36.4179ZM25.6088 143.566L22.3381 144.209C22.2135 141.985 21.8085 138.648 21.4347 136.775L24.2694 136.131C24.7989 138.297 25.2973 141.312 25.6088 143.566Z" fill="#1A5E9D"/>
<path d="M37.3525 111.286H31.5897C28.8797 111.286 28.4436 110.086 28.4436 108.388V101.335H25.0482C24.9236 107.452 21.466 110.349 15.6098 112.018L12.1521 108.827C17.5411 107.949 21.0299 106.105 21.0922 101.335H14.0834V97.8223H39.9068V101.335H32.3685V107.188C32.3685 107.51 32.3996 107.627 32.9915 107.627H35.8884C37.4459 107.627 37.6328 107.481 37.7886 103.559L41.7135 105.432C41.2462 110.73 40.0314 111.286 37.3525 111.286ZM40.8724 93.5491H36.9475V90.3295H16.9492V93.5491H13.0243V86.788H24.7367V84.2417H29.16V86.788H40.8724V93.5491ZM36.3868 95.9199H17.5722V92.3783H36.3868V95.9199Z" fill="#1A5E9D"/>
<path d="M36.6065 67.0937V57.5521H28.8501C28.7878 58.518 28.6632 59.6888 28.4452 60.7424C31.6225 62.9668 34.5506 65.2498 36.6065 67.0937ZM24.9875 57.5521H17.4492V67.6206C23.1185 65.1327 24.7072 61.0644 24.9875 57.5521ZM33.3357 77.7768L31.5913 73.884C36.5442 73.884 36.6065 73.8548 36.6065 72.0694V67.9132L34.426 71.1035C32.4635 68.7328 29.7223 66.362 27.0746 64.3425C25.7663 66.6547 23.43 69.1425 19.2559 71.2791L17.4492 68.4693V77.7768H13.5243V53.8643H25.081V50.1179H29.0059C29.0059 50.7911 28.9747 52.5472 28.9747 53.8643H40.5314V71.3669C40.5314 76.7816 40.5314 77.7768 33.3357 77.7768Z" fill="#1A5E9D"/>
<path d="M40.657 43.653L36.7321 43.6238V42.3945H17.1699V43.6238H13.245V16.7259H40.657V43.653ZM36.7321 38.8822V20.2381H17.1699V38.8822H36.7321ZM35.5796 37.1847H18.3848V33.9359H25.0197V30.6578H19.6308V27.526H25.0197V25.0967H18.7586V21.7894H35.1435V25.0967H28.6954V27.526H34.3024V30.6578H32.6203C33.2122 31.2724 34.1155 32.2675 34.5516 32.8822L32.8695 33.9359H35.5796V37.1847ZM28.6954 33.9359H31.312C30.8136 33.2627 30.1595 32.4724 29.7234 32.0041L31.9973 30.6578H28.6954V33.9359Z" fill="#1A5E9D"/>
</svg>
