<svg width="674" height="592" viewBox="0 0 674 592" fill="none" xmlns="http://www.w3.org/2000/svg">
<rect x="2.00195" y="504" width="216" height="88" rx="6" fill="#FBFCE7"/>
<path d="M34.7263 536.834C33.2632 539.406 30.5691 544.249 29.7248 545.796C27.0272 550.737 29.6449 556.494 33.8631 558.949C38.9106 561.885 44.8032 560.811 47.2946 556.346C48.0821 554.934 50.9845 549.803 52.4871 547.168C47.428 544.224 39.5814 539.659 34.7263 536.834Z" fill="#0052A0"/>
<path d="M46.0643 523.51C48.3592 523.033 50.7355 523.533 52.7785 524.722C58.5459 528.077 60.3142 533.14 57.1952 538.584C56.3108 540.128 54.226 544.117 52.8974 546.436C52.776 546.648 52.6358 546.893 52.4802 547.166C47.4419 544.236 39.5516 539.646 34.7211 536.835C34.8181 536.665 34.9094 536.504 34.9949 536.356C36.3668 533.961 39.5135 528.701 39.5135 528.701C41.271 525.633 43.6212 524.019 46.0646 523.511L46.0643 523.51Z" fill="#FBFCE7"/>
<path d="M35.2122 538.813C39.6052 541.368 43.9977 543.925 48.3908 546.48C49.2332 546.971 50.0748 547.46 50.9173 547.951C52.5408 548.895 53.9956 546.357 52.3714 545.412C47.9141 542.819 43.4558 540.225 38.9985 537.631L36.667 536.275C35.0434 535.33 33.5879 537.868 35.2122 538.813Z" fill="#0053A0"/>
<path d="M75.3902 564.443C75.7631 562.087 75.6519 559.926 74.6432 557.735C73.771 555.841 72.0943 554.138 70.2728 553.147C66.2889 550.979 61.1431 551.373 57.947 554.804C55.0171 557.949 53.905 562.503 55.5255 566.547C57.0254 570.29 61.0815 572.899 65.0527 572.964C69.9588 573.046 74.4573 569.296 75.39 564.442C75.5579 563.569 75.1413 562.667 74.2455 562.42C73.4436 562.199 72.4069 562.697 72.2393 563.573C71.6731 566.518 69.3993 569.024 66.4336 569.558C63.6964 570.051 60.7861 568.748 59.1732 566.481C57.4839 564.108 57.6932 560.619 59.3602 558.281C61.2493 555.632 64.3405 554.289 67.4872 555.499C70.8966 556.809 72.8203 559.908 72.2393 563.573C72.1004 564.45 72.4681 565.343 73.3838 565.595C74.1628 565.81 75.251 565.324 75.39 564.442L75.3902 564.443Z" fill="#0052A0"/>
<path d="M65.0524 559.313C64.1973 560.806 63.3428 562.298 62.4877 563.79C62.2781 564.156 62.2159 564.631 62.3243 565.039C62.4281 565.429 62.7237 565.848 63.0853 566.038C63.4598 566.235 63.9099 566.335 64.3244 566.203C64.739 566.07 65.0947 565.822 65.3158 565.436L65.4717 565.164C65.6813 564.798 65.7435 564.323 65.6351 563.915C65.5313 563.525 65.2357 563.106 64.8741 562.916C64.4996 562.719 64.0495 562.619 63.635 562.751C63.2205 562.884 62.8647 563.132 62.6436 563.518L62.4877 563.79L65.3158 565.436C66.1709 563.943 67.0254 562.452 67.8805 560.959C68.0901 560.593 68.1523 560.118 68.0439 559.71C67.9401 559.32 67.6446 558.901 67.2829 558.711C66.9084 558.514 66.4583 558.414 66.0438 558.546C65.6293 558.679 65.2735 558.927 65.0524 559.313Z" fill="#0052A0"/>
<path d="M33.7324 535.622C32.0796 538.511 30.4624 541.421 28.8558 544.337C27.9547 545.974 27.2956 547.629 27.1808 549.519C27.0616 551.477 27.5554 553.439 28.4204 555.183C31.9858 562.373 43.0846 564.885 48.0731 557.825C48.8301 556.754 49.4148 555.527 50.0599 554.385C50.9163 552.869 51.7736 551.354 52.6328 549.84C54.3673 546.785 56.0486 543.705 57.7292 540.62C58.6333 538.961 59.5908 537.327 59.9541 535.443C60.3596 533.341 60.1382 531.246 59.2485 529.298C57.5834 525.651 53.53 522.672 49.6126 522.03C44.7601 521.235 40.7024 523.876 38.2507 527.968C36.7282 530.509 35.207 533.053 33.7321 535.623C32.7937 537.258 35.3124 538.724 36.2506 537.089C37.6201 534.702 39.0333 532.341 40.4437 529.979C41.9156 527.513 43.8056 525.287 46.7983 524.86C50.1072 524.388 53.4782 526.359 55.5439 528.845C56.5967 530.112 57.2541 531.687 57.2587 533.35C57.264 535.156 56.5558 536.731 55.6939 538.274C52.7274 543.587 49.7938 548.916 46.8072 554.219C46.2191 555.263 45.6923 556.334 44.8262 557.179C43.743 558.236 42.2918 558.873 40.8028 559.069C37.5178 559.5 33.9846 557.99 31.9541 555.37C30.8956 554.005 30.1707 552.278 30.0838 550.539C29.9995 548.848 30.4943 547.402 31.2967 545.944C32.9269 542.981 34.5709 540.024 36.2505 537.088C37.1871 535.452 34.6684 533.986 33.7321 535.623L33.7324 535.622Z" fill="#0053A0"/>
<path d="M116.954 531.182C116.954 538.374 115.214 542.753 108.225 545.827L105.122 542.898C110.719 540.955 113.184 538.461 113.184 531.327V530.225H106.311V534.169C106.311 535.445 106.398 536.634 106.427 537.214H102.367C102.454 536.634 102.541 535.474 102.541 534.169V530.225H100.076C98.626 530.225 97.582 530.283 96.944 530.341V526.397C97.437 526.484 98.626 526.658 100.076 526.658H102.541V523.787C102.541 522.946 102.454 522.047 102.367 521.177H106.485C106.398 521.728 106.311 522.656 106.311 523.787V526.658H113.184V523.613C113.184 522.453 113.097 521.496 113.01 520.916H117.157C117.07 521.496 116.954 522.453 116.954 523.613V526.658H119.1C120.637 526.658 121.507 526.6 122.29 526.455V530.312C121.652 530.254 120.637 530.225 119.1 530.225H116.954V531.182ZM149.318 522.743C149.318 523.642 150.072 524.396 151 524.396C151.899 524.396 152.653 523.642 152.653 522.743C152.653 521.815 151.899 521.061 151 521.061C150.072 521.061 149.318 521.815 149.318 522.743ZM147.52 522.743C147.52 520.829 149.086 519.263 151 519.263C152.885 519.263 154.451 520.829 154.451 522.743C154.451 524.628 152.885 526.194 151 526.194C150.884 526.194 150.739 526.194 150.623 526.165C150.536 526.484 150.478 526.774 150.391 527.035C149.724 529.877 148.477 534.372 146.041 537.591C143.431 541.071 139.545 543.942 134.383 545.624L131.222 542.144C136.964 540.81 140.241 538.287 142.59 535.329C144.504 532.922 145.606 529.645 145.983 527.151H132.498C131.164 527.151 129.772 527.209 129.047 527.267V523.178C129.888 523.294 131.541 523.41 132.498 523.41H145.925C146.331 523.41 146.969 523.381 147.578 523.294C147.549 523.12 147.52 522.946 147.52 522.743ZM180.029 521.496C179.971 522.308 179.913 523.236 179.913 524.396V530.138C179.913 536.373 178.695 539.07 176.549 541.448C174.635 543.536 171.619 544.957 169.502 545.624L166.486 542.434C169.357 541.767 171.706 540.665 173.446 538.78C175.447 536.605 175.824 534.43 175.824 529.906V524.396C175.824 523.236 175.766 522.308 175.65 521.496H180.029ZM166.573 521.728C166.515 522.395 166.486 523.033 166.486 523.961V533.763C166.486 534.488 166.515 535.619 166.573 536.286H162.368C162.397 535.735 162.513 534.604 162.513 533.734V523.961C162.513 523.41 162.484 522.395 162.397 521.728H166.573ZM119.709 553.685C119.332 554.352 118.781 555.628 118.491 556.295C117.621 558.586 116.316 561.515 114.605 564.183C117.157 566.271 119.593 568.504 121.565 570.592L118.578 573.898C116.548 571.52 114.46 569.49 112.14 567.489C109.588 570.563 106.253 573.782 101.352 576.45L98.104 573.521C102.831 571.23 106.253 568.417 109.124 564.966C107.036 563.313 104.252 561.254 101.294 559.456L103.759 556.498C106.079 557.919 109.124 560.007 111.473 561.747C112.952 559.427 113.938 557.136 114.692 554.845C114.953 554.091 115.272 552.931 115.388 552.177L119.709 553.685ZM132.991 552.96C135.021 554.323 138.791 557.339 140.473 559.108L137.515 562.124C136.007 560.5 132.382 557.339 130.265 555.86L132.991 552.96ZM129.366 572.274C133.89 571.636 137.66 570.157 140.473 568.475C145.432 565.546 149.202 561.109 151.029 557.194L153.291 561.283C151.087 565.198 147.23 569.2 142.561 572.013C139.632 573.782 135.891 575.406 131.802 576.102L129.366 572.274ZM165.848 572.216V555.541C165.848 554.526 165.761 553.076 165.558 552.061H170.082C169.966 553.076 169.821 554.352 169.821 555.541V559.833C173.707 560.964 179.275 563.023 181.943 564.328L180.29 568.33C177.303 566.764 172.953 565.082 169.821 564.009V572.216C169.821 573.057 169.966 575.087 170.082 576.276H165.558C165.732 575.116 165.848 573.376 165.848 572.216Z" fill="#0053A0"/>
<rect x="230.002" y="504" width="216" height="88" rx="6" fill="#FBFCE7"/>
<path d="M330.502 538.78H340.102V542.02H330.502V538.78ZM330.712 533.5L334.222 534.01C333.352 539.29 331.732 544.12 329.332 547.15C328.732 546.61 327.172 545.56 326.332 545.14C328.672 542.5 330.082 538.12 330.712 533.5ZM334.912 540.07H336.652V545.05C336.652 548.02 337.822 554.89 342.952 558.55C342.322 559.36 341.272 560.86 340.732 561.76C336.982 559.09 335.242 553.93 334.882 551.29C334.432 553.87 332.362 558.97 328.102 561.73C327.682 560.92 326.662 559.42 326.032 558.73C331.852 555.01 333.082 548.14 333.082 545.05V540.07H334.912ZM339.232 538.78H339.772L340.342 538.63L342.742 539.2C342.292 542.17 341.452 545.41 340.552 547.54L337.702 546.61C338.362 544.78 338.962 541.72 339.232 539.35V538.78ZM320.512 539.26H323.692V542.71H320.512V539.26ZM316.702 541.6H319.912V558.31H316.702V541.6ZM318.682 545.5H325.612V547.9H318.682V545.5ZM314.572 557.32C317.212 556.75 321.262 555.67 325.132 554.59L325.552 557.47C322.162 558.58 318.592 559.75 315.712 560.65L314.572 557.32ZM322.252 553L325.162 551.98C326.152 553.93 327.292 556.51 327.742 558.13L324.622 559.39C324.262 557.74 323.242 555.01 322.252 553ZM318.682 541.6H327.112V551.86H318.682V549.4H323.962V544.09H318.682V541.6ZM319.882 533.53H321.802V534.19H322.852V535.15C321.532 537.46 319.492 540.49 316.102 543.1C315.682 542.35 314.722 541.12 314.062 540.61C316.912 538.57 318.832 535.84 319.882 533.53ZM320.812 533.53H323.242C325.012 535.12 327.262 537.37 328.462 538.9L326.002 541.24C325.012 539.8 322.942 537.31 321.382 535.9H320.812V533.53ZM351.172 533.68H354.502V561.64H351.172V533.68ZM346.642 543.52H358.942V546.88H346.642V543.52ZM350.542 545.32L352.522 546.28C351.562 550.3 349.702 555.52 347.722 558.4C347.392 557.29 346.612 555.7 346.072 554.68C347.872 552.46 349.702 548.29 350.542 545.32ZM354.442 547.06C355.312 547.84 358.222 551.32 358.882 552.16L356.662 554.98C355.882 553.27 353.872 549.94 352.792 548.47L354.442 547.06ZM346.582 535.99L349.102 535.33C349.882 537.52 350.482 540.37 350.632 542.26L347.932 542.98C347.872 541.09 347.302 538.18 346.582 535.99ZM356.482 535.18L359.512 535.84C358.732 538.27 357.832 541.12 357.082 542.89L354.832 542.26C355.432 540.34 356.152 537.31 356.482 535.18ZM367.822 533.5H371.212V561.67H367.822V533.5ZM358.852 552.28L374.272 549.52L374.812 552.85L359.422 555.64L358.852 552.28ZM360.562 537.61L362.332 535.15C364.012 536.17 366.142 537.67 367.132 538.78L365.242 541.51C364.342 540.34 362.242 538.69 360.562 537.61ZM359.212 545.17L360.892 542.59C362.632 543.52 364.882 544.96 365.962 546.07L364.162 548.92C363.142 547.81 360.952 546.19 359.212 545.17ZM378.832 540.88H387.202V544.51H378.832V540.88ZM390.502 533.56H394.312V557.05C394.312 559.21 393.862 560.29 392.602 560.95C391.312 561.58 389.332 561.73 386.602 561.73C386.452 560.62 385.732 558.79 385.162 557.71C387.142 557.8 389.032 557.8 389.692 557.8C390.292 557.77 390.502 557.59 390.502 557.02V533.56ZM385.972 540.88H386.722L387.352 540.76L389.842 541.66C388.462 549.85 385.162 555.97 380.872 559.12C380.242 558.28 378.772 556.81 377.902 556.27C382.012 553.51 384.952 548.29 385.972 541.66V540.88ZM394.102 537.94C396.022 545.89 399.952 552.97 406.672 556.18C405.772 556.93 404.512 558.43 403.912 559.54C396.952 555.61 393.382 547.81 391.252 538.54L394.102 537.94ZM402.502 538.21L405.892 540.58C403.342 543.28 400.132 546.31 397.612 548.2L395.032 546.16C397.462 544.15 400.642 540.88 402.502 538.21Z" fill="#0053A0"/>
<path d="M288.231 541.093C284.948 542.121 280.675 542.596 277.322 539.933C273.119 536.596 267.968 537.171 264.475 538.176L263.723 530.898H289.282L288.231 541.093Z" fill="#FBFCE7"/>
<path fill-rule="evenodd" clip-rule="evenodd" d="M277.322 539.933C280.675 542.596 284.948 542.121 288.231 541.093L285.913 566.293H267.091L264.475 538.176C267.968 537.171 273.119 536.596 277.322 539.933Z" fill="#0052A0"/>
<path fill-rule="evenodd" clip-rule="evenodd" d="M291.669 528.811C291.424 528.548 291.078 528.398 290.711 528.398H262.295C261.931 528.398 261.582 528.548 261.336 528.811C261.094 529.071 260.972 529.421 261.008 529.773L264.883 567.273C264.95 567.913 265.506 568.398 266.17 568.398H286.836C287.5 568.398 288.055 567.913 288.12 567.273L291.995 529.773C292.034 529.421 291.915 529.071 291.669 528.811ZM264.475 538.176L263.723 530.898H289.282L288.231 541.093L285.913 566.293H267.091L264.475 538.176Z" fill="#0B59A2"/>
<rect x="458.002" y="504" width="216" height="88" rx="6" fill="#FBFCE7"/>
<path d="M550.987 535.31H554.647V556.91C554.647 558.71 554.857 559.01 556.327 559.01C556.987 559.01 559.987 559.01 560.707 559.01C562.177 559.01 562.417 557.96 562.627 553.73C563.497 554.36 564.967 555.02 565.987 555.23C565.537 560.42 564.577 562.34 561.037 562.34C560.167 562.34 556.687 562.34 555.877 562.34C552.097 562.34 550.987 561.14 550.987 556.88V535.31ZM562.237 540.32L564.877 543.47C561.487 545.87 557.197 548.12 553.297 549.95C553.057 549.11 552.367 547.85 551.857 547.07C555.577 545.3 559.567 542.6 562.237 540.32ZM545.197 534.92L548.737 536.12C546.487 541.46 542.797 547.01 539.017 550.49C538.657 549.56 537.607 547.58 536.947 546.68C540.187 543.89 543.337 539.45 545.197 534.92ZM542.017 543.38L545.557 539.84L545.617 539.9V562.64H542.017V543.38ZM589.207 542.39H592.597V560H589.207V542.39ZM587.767 534.56H591.397V539.72H587.767V534.56ZM585.847 547.88H596.617V551.15H585.847V547.88ZM583.687 538.4H597.487V541.73H583.687V538.4ZM584.257 558.35H597.547V561.62H584.257V558.35ZM581.827 538.4H585.217V546.89C585.217 551.57 584.647 558.5 581.377 562.76C580.837 562.07 579.427 560.84 578.677 560.42C581.557 556.61 581.827 551 581.827 546.86V538.4ZM573.817 534.5H577.147V562.67H573.817V534.5ZM569.587 544.76H580.837V548.12H569.587V544.76ZM573.607 546.38L575.887 547.31C574.867 551.36 573.007 556.52 570.817 559.34C570.457 558.23 569.647 556.64 569.077 555.65C570.937 553.4 572.797 549.41 573.607 546.38ZM576.847 548.48C577.717 549.23 580.627 552.44 581.257 553.19L579.097 556.1C578.257 554.48 576.157 551.45 575.107 550.1L576.847 548.48ZM569.557 537.11L572.047 536.48C572.857 538.61 573.427 541.37 573.547 543.2L570.847 543.92C570.817 542.06 570.247 539.24 569.557 537.11ZM578.617 536.27L581.737 536.96C580.957 539.33 580.027 542.09 579.277 543.8L576.937 543.17C577.567 541.31 578.287 538.37 578.617 536.27ZM609.967 539.15V543.2H620.527V539.15H609.967ZM606.487 535.73H624.217V546.62H606.487V535.73ZM602.377 549.14H613.837V562.52H610.237V552.56H605.767V562.7H602.377V549.14ZM616.387 549.14H628.267V562.55H624.637V552.56H619.837V562.7H616.387V549.14ZM603.877 557.75H611.737V561.2H603.877V557.75ZM618.037 557.75H626.437V561.2H618.037V557.75Z" fill="#0053A0"/>
<path d="M514.727 551.018V540.686H512.73C512.73 540.686 512.73 525.188 512.73 522.482C512.73 519.776 510.233 518.792 508.484 519.776C502.861 522.942 497.248 529.862 497.248 531.583V540.686H495.25V551.018H494.002V571.311C494.002 572.467 494.953 573.403 496.125 573.403H513.852C515.026 573.403 515.976 572.467 515.976 571.311V551.018H514.727ZM497.997 570.943H496.499V553.478H497.998L497.997 570.943ZM512.98 551.018H496.999V542.408H512.98V551.018H512.98Z" fill="#0052A0"/>
<path d="M673.999 442.946L662.042 457.053C651.292 443.814 641.09 434.481 631.327 427.428C616.957 442.837 599.295 452.278 584.047 457.487L573.188 444.031C614.434 432.637 632.095 406.592 637.141 385.649L585.254 386.083V371.216H658.312C655.351 389.338 648.879 403.988 640.651 416.033C651.182 422.544 663.797 432.094 673.999 442.946Z" fill="#FBFCE7"/>
<path d="M553.974 437.086L552.641 454.231C535.865 456.185 523.644 457.27 511.645 457.27C505.09 457.27 498.535 456.944 491.425 456.293C480.092 455.317 470.871 449.565 470.871 435.675V366.007L486.981 366.115L486.647 400.515C506.645 393.896 524.31 385.649 536.531 378.486L545.419 392.702C526.199 402.686 504.646 410.607 486.536 415.816C486.425 422.978 486.425 428.947 486.425 431.877C486.425 436.977 489.536 440.884 495.758 441.318C500.202 441.643 504.534 441.86 508.978 441.86C522.644 441.86 536.642 440.233 553.974 437.086ZM548.419 377.727L538.975 379.897C537.42 373.929 533.643 365.139 530.754 359.821L539.975 358.302C542.308 362.751 546.752 371.216 548.419 377.727ZM564.64 375.665L555.307 377.835C553.641 372.192 549.974 364.271 546.752 358.302L555.752 357C558.751 362.1 562.973 369.805 564.64 375.665Z" fill="#FBFCE7"/>
<path d="M448.981 419.376H372.299V403.352H448.981V419.376Z" fill="#FBFCE7"/>
<path d="M354.788 399.43H333.195C333.195 436.109 322.453 451.301 286.32 460.525L273.951 447.178C305.743 442.62 318.004 431.334 318.004 399.43H289.684V426.234H274.276V399.43H252.901V385.323H274.276V364.379H289.684V385.323H317.896C317.896 378.921 317.787 371.975 317.787 364.379H333.303V385.323H354.788V399.43Z" fill="#FBFCE7"/>
<path d="M216.283 462.852H202.076V409.565H187.314C186.315 432.825 182.764 448.261 175.549 460.737L164.339 448.261C171.664 434.305 173.662 420.667 173.662 393.706V368.755C188.424 368.755 208.514 367.909 222.166 362.94L229.492 376.261C211.4 381.653 187.647 381.653 187.647 381.653V396.244H229.714V409.565H216.283V462.852ZM157.235 462.852H143.25V410.2C140.586 419.715 136.702 429.759 131.596 436.737L124.604 420.455C130.93 414.217 136.924 404.49 141.696 393.283H127.933V380.49H143.25V362.94H157.235V380.49H169.889V393.283H158.456C162.23 400.473 166.892 406.499 172.996 411.574L166.892 426.799C163.118 420.349 159.788 413.054 157.235 404.702V462.852Z" fill="#FBFCE7"/>
<path d="M59.9553 461.761H56.7474L51.7697 447.583C55.5307 447.796 61.3932 448.116 64.6011 448.116C71.6804 448.009 72.8972 446.304 73.3397 440.014C73.6715 433.831 74.5564 420.612 74.5564 415.282H56.9686C54.4245 436.923 41.5932 455.578 11.8378 464L2.65671 451.421C30.0892 445.025 39.934 431.166 42.1463 415.282H21.7931V406.008C17.9216 409.206 13.9394 412.084 9.9573 414.429L0.00195312 402.49C16.1517 393.535 27.6557 381.595 34.8457 362.94L48.7831 368.27C44.0267 381.382 35.62 393.215 25.8859 402.383H83.9587C74.7777 393.215 66.5921 381.915 59.5128 368.376L73.4503 362.94C80.7509 378.397 92.9185 391.616 108.736 401.743L97.8962 414.429C95.1308 412.404 92.476 410.272 89.9319 408.033C89.4894 416.561 88.7151 432.339 88.3833 437.349C87.0559 455.791 84.1799 461.761 59.9553 461.761Z" fill="#FBFCE7"/>
<path d="M672 300.687L662.562 317.701C642.113 316.508 619.462 312.627 603.575 308.001L615.215 296.061H578.408L590.048 308.001C572.902 312.776 551.824 316.358 531.061 317.701L521.623 300.687C537.825 300.09 559.217 298.3 573.217 296.061H537.982V232.93C536.724 234.721 535.465 236.363 533.892 238.153L521.623 219.05C527.6 211.439 529.645 201.29 529.645 187.261V180.395C544.589 180.395 569.284 179.649 584.385 176.664L592.093 192.634C579.981 194.126 561.891 195.32 548.206 195.469L548.049 199.648H592.407V214.274H577.621V226.214H558.274V214.274H546.476C545.218 219.05 543.33 224.274 540.184 229.646H604.991L592.722 218.155C598.699 210.543 600.587 201.141 600.587 188.007V180.395C619.62 180.097 644.001 179.201 660.36 176.664L668.067 193.081C649.978 194.424 632.518 195.32 619.305 195.469V199.648H668.067V214.274H652.023V226.363H632.204V214.274H617.575C616.159 219.647 614.114 225.02 611.126 229.646H655.641V296.061H621.507C635.664 298.3 652.967 299.941 672 300.687ZM635.821 282.479V276.36H557.802V282.479H635.821ZM635.821 265.316V259.645H557.802V265.316H635.821ZM635.821 248.601V243.228H557.802V248.601H635.821Z" fill="#FBFCE7"/>
<path d="M445.043 297.852H448.661C471.154 297.404 472.255 292.33 473.514 242.034L474.143 215.468H470.525C467.379 244.273 461.402 273.077 445.043 297.852ZM451.807 318L444.414 298.747C440.953 303.822 437.021 308.896 432.459 313.672L415.943 300.09C441.74 277.256 450.234 246.064 453.852 215.468H448.818C443.313 242.482 433.403 267.555 418.145 285.017L402.415 272.629C418.302 256.958 428.055 236.213 432.459 215.468H427.897C424.594 223.527 420.976 230.84 417.358 235.766L403.044 223.527H394.078V249.048C399.741 247.108 404.617 245.317 407.449 243.974V263.675C403.831 265.316 399.112 267.256 394.078 269.197V317.851H375.045V275.913C367.023 278.45 359.158 280.689 353.338 282.032L349.248 261.585C356.012 260.093 365.45 257.705 375.045 254.869V223.527H367.81C367.023 232.631 365.607 240.691 363.72 246.362L348.305 237.109C351.923 226.214 353.338 210.394 353.338 196.962C353.338 193.38 353.181 190.096 353.024 187.111L369.383 189.35C369.383 194.723 369.225 200.245 369.068 205.618H375.045V176.813H394.078V205.618H405.404V218.752C412.64 206.961 417.516 193.678 420.662 177.261L439.223 181.291C437.965 186.216 436.234 192.186 434.189 198.305H493.963L493.019 242.034C491.76 302.628 489.086 316.657 451.807 318Z" fill="#FBFCE7"/>
<path d="M319.413 314.716L174.699 314.567V295.613H194.361V204.573H216.698V295.613H243.281V176.963H266.247V222.632H314.223V242.332H266.247V295.613H319.413V314.716Z" fill="#FBFCE7"/>
<path d="M150.12 212.49L140.211 230.101C133.604 226.221 125.739 220.102 118.975 211.296V231.594H100.257V211.147C94.7515 219.057 87.8304 226.519 80.9093 230.4L70.8422 213.834L64.0784 224.579C58.8876 221.147 53.6968 216.818 49.1351 210.998V231.594H30.2594V211.595C24.7539 219.953 17.6755 228.012 10.5971 232.34L1.00195 214.58C8.39496 212.192 18.7766 206.819 27.7426 198.312H6.66464V181.746H30.2594V171H49.1351V181.746H71.9433V198.312H51.8092C58.1011 203.237 65.1795 207.117 73.5163 209.655L71.3141 213.087C78.3925 210.998 89.0888 205.774 96.9537 198.312H76.8195V181.746H100.257V171H118.975V181.746H144.143V198.312H121.335C130.773 205.924 141.312 209.953 150.12 212.49ZM149.177 293.531L132.031 308.903C119.29 303.978 103.403 294.576 92.7066 286.367L110.009 275.323H88.4596V283.084C88.4596 307.56 85.6282 311.291 54.3259 312.037L46.461 293.382H53.0676C65.3368 293.382 67.3817 292.038 67.3817 284.128V275.323H36.8659L54.6406 285.472C45.0454 294.874 31.8323 303.083 18.6193 308.754L1.94574 292.486C14.3723 289.203 28.0572 282.337 36.0794 275.323H5.0917V258.458H145.716V275.323H111.268C121.335 282.188 137.379 289.053 149.177 293.531ZM134.233 251.294H16.5745V235.026H134.233V251.294Z" fill="#FBFCE7"/>
<path d="M671.001 24.6631L659.727 27.5143C653.046 66.8607 636.9 121.318 559.928 137L544.061 118.182C606.696 109.629 626.182 75.9845 635.925 43.0533H593.89C584.008 59.1625 570.507 74.4164 554.221 84.6807L536.684 69.5693C564.939 54.6006 582.338 26.3738 588.323 5.56009L609.48 9.97943C607.948 14.8265 606 19.816 603.634 24.8056C614.769 24.8056 626.043 24.6631 637.178 24.6631C634.951 17.5351 631.332 9.26664 628.548 3.84937L640.101 1.85354C642.746 6.98569 647.478 16.5372 649.984 24.5205H658.335C655.969 17.3925 652.071 8.6964 648.592 1.85354L659.866 0.142822C663.624 6.84313 668.913 16.9649 671.001 24.6631Z" fill="#FBFCE7"/>
<path d="M416.646 133.151L404.258 113.62C466.615 104.068 491.947 75.699 503.361 25.3755L521.595 36.9228C513.104 70.7094 496.262 117.041 416.646 133.151ZM456.176 43.6231L441.978 61.8707C430.843 49.8957 411.357 37.7781 401.057 32.646L415.672 17.107C424.58 21.2412 445.319 32.646 456.176 43.6231Z" fill="#FBFCE7"/>
<path d="M367.553 105.352L365.883 127.876C344.865 130.442 329.554 131.868 314.522 131.868C306.31 131.868 298.098 131.44 289.189 130.585C274.992 129.302 263.439 121.746 263.439 103.498V11.975L283.622 12.1176L283.204 57.309C306.866 49.1831 326.214 39.9167 341.385 30.9354L353.773 48.7554C330.111 61.5858 305.335 70.7096 283.065 77.4099C282.926 86.8188 282.926 94.6596 282.926 98.5087C282.926 105.209 286.823 110.341 294.618 110.911C300.185 111.339 305.614 111.624 311.181 111.624C328.302 111.624 345.839 109.486 367.553 105.352ZM380.915 20.386C380.915 31.6482 372.007 40.772 361.011 40.772C350.015 40.772 341.107 31.6482 341.107 20.386C341.107 9.12382 350.015 0 361.011 0C372.007 0 380.915 9.12382 380.915 20.386ZM370.197 20.386C370.197 15.2539 366.022 10.9771 361.011 10.9771C356 10.9771 351.824 15.2539 351.824 20.386C351.824 25.5182 356 29.795 361.011 29.795C366.022 29.795 370.197 25.5182 370.197 20.386Z" fill="#FBFCE7"/>
<path d="M236.813 81.1165H141.623V61.4433H236.813V81.1165Z" fill="#FBFCE7"/>
<path d="M115.307 73.5609L107.095 95.23C84.5458 82.5422 56.4294 72.1353 33.7413 64.8648V136.002L13.002 135.859V7.1281H33.7413V43.9085C52.6712 49.4683 92.6189 62.0136 115.307 73.5609ZM90.8094 39.4891L78.2823 45.1915C74.9417 36.3528 66.7295 22.9522 62.2754 17.1073L74.5241 12.1177C78.0039 17.1073 87.608 30.793 90.8094 39.4891ZM110.714 30.3653L98.8825 36.638C95.5419 28.5121 87.608 15.8242 82.458 9.12394L94.15 3.99179C98.6041 9.69418 107.095 21.9543 110.714 30.3653Z" fill="#FBFCE7"/>
</svg>
