<svg width="888" height="213" viewBox="0 0 888 213" fill="none" xmlns="http://www.w3.org/2000/svg">
<rect x="495" y="139.055" width="128.02" height="67.8895" rx="3.8794" fill="#FBFCE7"/>
<path d="M517.824 165.769C516.923 167.369 515.265 170.383 514.745 171.345C513.085 174.419 514.695 178.001 517.291 179.528C520.398 181.355 524.024 180.686 525.558 177.908C526.043 177.029 527.829 173.837 528.754 172.197C525.641 170.366 520.812 167.526 517.824 165.769Z" fill="#0052A0"/>
<path d="M524.804 157.479C526.217 157.182 527.679 157.494 528.937 158.233C532.486 160.321 533.575 163.471 531.655 166.858C531.111 167.819 529.828 170.3 529.01 171.743C528.935 171.875 528.849 172.028 528.753 172.197C525.652 170.374 520.796 167.518 517.823 165.77C517.882 165.664 517.939 165.564 517.991 165.472C518.835 163.982 520.772 160.709 520.772 160.709C521.854 158.8 523.3 157.796 524.804 157.48L524.804 157.479Z" fill="#FBFCE7"/>
<path d="M518.126 167C520.829 168.59 523.533 170.181 526.237 171.771C526.755 172.076 527.273 172.38 527.792 172.685C528.791 173.273 529.686 171.694 528.687 171.106C525.943 169.493 523.199 167.879 520.456 166.265L519.021 165.421C518.022 164.833 517.126 166.413 518.126 167Z" fill="#0053A0"/>
<path d="M542.849 182.946C543.078 181.481 543.01 180.137 542.389 178.773C541.852 177.595 540.82 176.535 539.699 175.919C537.247 174.57 534.08 174.815 532.113 176.949C530.31 178.906 529.625 181.74 530.622 184.256C531.546 186.585 534.042 188.207 536.486 188.248C539.506 188.299 542.275 185.966 542.849 182.946C542.952 182.403 542.696 181.842 542.144 181.688C541.651 181.55 541.013 181.86 540.909 182.406C540.561 184.238 539.161 185.797 537.336 186.129C535.651 186.436 533.86 185.625 532.868 184.214C531.828 182.738 531.957 180.567 532.983 179.113C534.145 177.465 536.048 176.629 537.985 177.382C540.083 178.197 541.267 180.125 540.909 182.406C540.824 182.951 541.05 183.507 541.614 183.664C542.093 183.797 542.763 183.495 542.849 182.946L542.849 182.946Z" fill="#0052A0"/>
<path d="M536.49 179.755C535.964 180.684 535.438 181.612 534.912 182.541C534.783 182.768 534.745 183.064 534.811 183.318C534.875 183.56 535.057 183.821 535.28 183.939C535.51 184.062 535.787 184.124 536.042 184.042C536.298 183.959 536.517 183.805 536.653 183.564L536.749 183.395C536.878 183.168 536.916 182.872 536.849 182.618C536.785 182.375 536.603 182.115 536.381 181.997C536.15 181.874 535.873 181.812 535.618 181.894C535.363 181.976 535.144 182.131 535.008 182.371L534.912 182.541L536.653 183.564C537.179 182.636 537.705 181.708 538.231 180.779C538.36 180.551 538.398 180.256 538.332 180.002C538.268 179.759 538.086 179.499 537.863 179.38C537.633 179.258 537.356 179.196 537.101 179.278C536.846 179.36 536.627 179.515 536.49 179.755Z" fill="#0052A0"/>
<path d="M517.213 165.015C516.196 166.812 515.201 168.623 514.212 170.437C513.657 171.455 513.252 172.485 513.181 173.661C513.108 174.879 513.412 176.1 513.944 177.186C516.138 181.658 522.97 183.222 526.04 178.829C526.506 178.162 526.866 177.399 527.263 176.689C527.79 175.746 528.318 174.803 528.846 173.861C529.914 171.96 530.949 170.044 531.983 168.125C532.54 167.093 533.129 166.076 533.352 164.904C533.602 163.596 533.466 162.292 532.918 161.08C531.893 158.812 529.399 156.958 526.987 156.558C524.001 156.064 521.503 157.707 519.994 160.253C519.057 161.834 518.121 163.417 517.213 165.016C516.636 166.033 518.186 166.945 518.763 165.928C519.606 164.443 520.476 162.974 521.344 161.504C522.25 159.97 523.413 158.585 525.255 158.319C527.292 158.026 529.367 159.252 530.638 160.798C531.286 161.587 531.691 162.567 531.693 163.601C531.697 164.725 531.261 165.705 530.73 166.665C528.905 169.971 527.099 173.286 525.261 176.585C524.899 177.235 524.575 177.901 524.041 178.427C523.375 179.085 522.482 179.481 521.565 179.603C519.543 179.871 517.369 178.932 516.119 177.302C515.467 176.452 515.021 175.378 514.968 174.296C514.916 173.244 515.22 172.344 515.714 171.437C516.718 169.593 517.73 167.754 518.763 165.927C519.34 164.909 517.79 163.997 517.213 165.016L517.213 165.015Z" fill="#0053A0"/>
<path d="M563.747 162.904C563.747 167.216 562.699 169.852 558.475 171.72L556.607 169.957C559.994 168.787 561.46 167.269 561.46 162.974V158.331C561.46 157.632 561.425 157.056 561.355 156.724H563.852C563.817 157.074 563.747 157.632 563.747 158.331V162.904ZM557.427 156.864C557.392 157.196 557.323 157.754 557.323 158.453V164.685C557.323 165.471 557.375 166.186 557.41 166.518H554.966C555.001 166.186 555.053 165.471 555.053 164.685V158.435C555.053 157.946 555.018 157.405 554.948 156.864H557.427ZM551.684 160.006C551.998 160.059 552.714 160.181 553.569 160.181H565.021C565.946 160.181 566.47 160.129 566.959 160.059V162.381C566.575 162.328 565.946 162.328 565.039 162.328H553.569C552.696 162.328 552.085 162.363 551.684 162.381V160.006ZM583.212 157.807C583.212 158.365 583.666 158.819 584.224 158.819C584.783 158.819 585.237 158.365 585.237 157.807C585.237 157.248 584.783 156.794 584.224 156.794C583.666 156.794 583.212 157.248 583.212 157.807ZM582.129 157.807C582.129 156.655 583.072 155.712 584.224 155.712C585.376 155.712 586.319 156.655 586.319 157.807C586.319 158.959 585.376 159.902 584.224 159.902C583.072 159.902 582.129 158.959 582.129 157.807ZM584.259 159.186C584.085 159.518 583.962 160.024 583.875 160.39C583.474 162.101 582.705 164.825 581.239 166.762C579.668 168.857 577.346 170.586 574.221 171.581L572.318 169.486C575.792 168.683 577.765 167.164 579.162 165.401C580.331 163.952 580.995 161.962 581.222 160.46C580.157 160.46 574.396 160.46 573.086 160.46C572.283 160.46 571.463 160.513 571.009 160.548V158.069C571.533 158.139 572.51 158.226 573.086 158.226C574.396 158.226 580.192 158.226 581.169 158.226C581.518 158.226 582.077 158.208 582.531 158.086L584.259 159.186ZM601.699 157.056C601.664 157.545 601.647 158.104 601.647 158.819C601.647 159.71 601.647 161.403 601.647 162.258C601.647 166.029 600.913 167.635 599.604 169.067C598.452 170.341 596.654 171.179 595.379 171.598L593.546 169.66C595.292 169.259 596.689 168.595 597.754 167.461C598.941 166.151 599.185 164.842 599.185 162.119C599.185 161.246 599.185 159.57 599.185 158.819C599.185 158.104 599.133 157.545 599.063 157.056H601.699ZM593.616 157.213C593.581 157.615 593.546 157.999 593.546 158.54C593.546 159.308 593.546 163.463 593.546 164.441C593.546 164.877 593.581 165.558 593.616 165.959H591.067C591.102 165.645 591.155 164.964 591.155 164.423C591.155 163.428 591.155 159.308 591.155 158.54C591.155 158.226 591.137 157.615 591.085 157.213H593.616ZM565.405 175.772C565.161 176.173 564.829 176.942 564.672 177.361C564.009 179.089 562.944 181.393 561.495 183.279C559.871 185.373 557.724 187.625 554.337 189.493L552.4 187.713C555.577 186.194 557.759 184.256 559.609 181.847C560.989 180.031 561.774 178.233 562.385 176.488C562.542 176.034 562.717 175.318 562.804 174.882L565.405 175.772ZM555.804 177.465C557.532 178.548 559.924 180.206 561.39 181.358C563.258 182.807 565.091 184.448 566.505 185.95L564.707 187.957C563.188 186.176 561.652 184.745 559.801 183.209C558.545 182.161 556.502 180.59 554.302 179.246L555.804 177.465ZM573.401 175.335C574.605 176.156 576.875 177.972 577.905 179.036L576.124 180.852C575.216 179.874 573.017 177.972 571.742 177.099L573.401 175.335ZM571.201 186.962C573.942 186.578 576.194 185.688 577.887 184.693C580.872 182.912 583.142 180.258 584.259 177.902L585.603 180.346C584.294 182.72 581.972 185.129 579.162 186.822C577.381 187.887 575.129 188.847 572.685 189.266L571.201 186.962ZM593.162 186.945C593.162 185.6 593.162 178.373 593.162 176.907C593.162 176.278 593.11 175.423 592.988 174.794H595.711C595.641 175.423 595.554 176.173 595.554 176.907C595.554 178.827 595.571 185.653 595.571 186.945C595.571 187.433 595.641 188.655 595.729 189.371H592.988C593.11 188.69 593.162 187.625 593.162 186.945ZM595.048 179.316C597.37 179.962 601.14 181.341 602.851 182.179L601.874 184.605C599.883 183.575 596.951 182.458 595.048 181.83V179.316Z" fill="#0053A0"/>
<rect x="630.779" y="139.055" width="121.231" height="67.8895" rx="3.8794" fill="#FBFCE7"/>
<path d="M683.234 175.956L684.893 175.363C685.416 176.375 685.992 177.684 686.307 178.627C688.925 176.392 689.519 172.988 689.519 171.382V169.619H688.925C688.489 170.771 687.948 171.784 687.337 172.569C687.075 172.342 686.516 171.958 686.062 171.679V175.31H681.872V177.719C682.484 177.545 683.129 177.37 683.775 177.196C683.601 176.759 683.409 176.34 683.234 175.956ZM684.229 173.006H681.872V173.861H684.229V173.006ZM684.229 170.789H681.872V171.627H684.229V170.789ZM691.544 169.619V171.382C691.544 173.093 692.242 177.038 695.21 179.186C694.843 179.64 694.25 180.495 693.935 181.019C691.753 179.482 690.758 176.497 690.531 174.978C690.269 176.48 689.082 179.413 686.621 181.019C686.359 180.565 685.818 179.727 685.451 179.325L684.613 179.657C684.561 179.413 684.474 179.116 684.369 178.802C682.641 179.36 680.895 179.936 679.446 180.373L678.8 178.487C679.167 178.4 679.568 178.295 680.022 178.191V169.951C679.9 170.038 679.795 170.143 679.673 170.23C679.411 169.811 678.87 169.095 678.486 168.799C680.127 167.611 681.244 166.04 681.855 164.714H683.81C684.823 165.621 686.115 166.913 686.813 167.821L685.399 169.165C684.893 168.432 683.95 167.262 683.095 166.424C682.518 167.332 681.75 168.38 680.703 169.357H682.222V168.013H684.072V169.357H686.062V170.841C687.145 169.287 687.791 167.035 688.122 164.696L690.147 164.975C689.99 165.936 689.798 166.861 689.554 167.734H693.377L693.691 167.664L695.088 167.996C694.808 169.706 694.337 171.574 693.813 172.796L692.172 172.273C692.417 171.574 692.661 170.597 692.836 169.619H691.544ZM709.28 167.751L708.216 169.305C707.674 168.624 706.47 167.681 705.51 167.035L706.505 165.639C707.482 166.215 708.722 167.105 709.28 167.751ZM704.707 171.417L705.684 169.933C706.697 170.474 707.989 171.312 708.617 171.941L707.57 173.599C706.994 172.953 705.719 172.028 704.707 171.417ZM703.135 165.656L704.881 166.04C704.427 167.437 703.921 169.095 703.485 170.108L702.175 169.741C702.524 168.641 702.943 166.878 703.135 165.656ZM699.749 169.741L698.195 170.16C698.16 169.078 697.811 167.385 697.409 166.128L698.858 165.744C699.312 167 699.661 168.659 699.749 169.741ZM704.515 175.485L703.24 177.091C702.978 176.532 702.49 175.624 701.983 174.821V180.949H700.063V174.786C699.504 176.41 698.806 178.033 698.055 179.081C697.881 178.452 697.427 177.51 697.113 176.934C697.986 175.869 698.876 174.001 699.417 172.412H697.427V170.474H700.063V164.766H701.983V170.474H704.567V172.412H701.983V172.534C702.49 173.041 704.148 174.996 704.515 175.485ZM713.75 175.886L711.655 176.27V180.984H709.699V176.619L704.829 177.492L704.515 175.555L709.699 174.629V164.679H711.655V174.28L713.435 173.948L713.75 175.886ZM721.134 168.886L722.548 169.41C721.745 174.14 719.825 177.684 717.363 179.5C716.997 179.011 716.159 178.173 715.635 177.859C717.66 176.497 719.196 174.106 719.982 171.051H716.194V168.956H720.75L721.134 168.886ZM729.88 167.419L731.818 168.781C730.421 170.265 728.675 171.906 727.261 173.006C728.501 175.101 730.142 176.794 732.289 177.807C731.765 178.243 731.05 179.116 730.683 179.744C728.152 178.313 726.389 176.008 725.132 173.163V178.313C725.132 179.57 724.852 180.198 724.137 180.547C723.386 180.931 722.251 181.019 720.663 181.019C720.575 180.355 720.174 179.308 719.842 178.697C720.994 178.749 722.094 178.732 722.461 178.732C722.81 178.732 722.932 178.61 722.932 178.313V164.714H725.132V167.786C725.463 169.008 725.865 170.178 726.371 171.295C727.611 170.143 728.99 168.659 729.88 167.419Z" fill="#0053A0"/>
<path d="M668.183 167.425C666.129 168.073 663.455 168.372 661.357 166.694C658.727 164.59 655.504 164.952 653.319 165.586L652.849 160.998H668.841L668.183 167.425Z" fill="#FBFCE7"/>
<path fill-rule="evenodd" clip-rule="evenodd" d="M661.357 166.694C663.455 168.372 666.129 168.073 668.183 167.425L666.733 183.311H654.956L653.319 165.586C655.504 164.952 658.727 164.59 661.357 166.694Z" fill="#0052A0"/>
<path fill-rule="evenodd" clip-rule="evenodd" d="M670.335 159.682C670.181 159.517 669.964 159.422 669.735 159.422H651.955C651.727 159.422 651.509 159.517 651.355 159.682C651.203 159.846 651.127 160.067 651.15 160.289L653.574 183.929C653.616 184.332 653.964 184.638 654.379 184.638H667.31C667.726 184.638 668.073 184.332 668.114 183.929L670.538 160.289C670.562 160.067 670.488 159.846 670.335 159.682ZM653.319 165.586L652.849 160.998H668.841L668.183 167.425L666.733 183.311H654.956L653.319 165.586Z" fill="#0B59A2"/>
<rect x="759.769" y="139.055" width="121.231" height="67.8895" rx="3.8794" fill="#FBFCE7"/>
<path d="M809.624 164.923L811.684 165.604C811.178 166.791 810.567 167.978 809.868 169.13V180.966H807.791V172.063C807.232 172.744 806.639 173.372 806.063 173.914C805.836 173.39 805.242 172.238 804.858 171.714C806.743 170.125 808.576 167.559 809.624 164.923ZM816.048 178.854H818.614C819.452 178.854 819.592 178.26 819.732 175.799C820.22 176.166 821.093 176.567 821.652 176.689C821.408 179.692 820.866 180.792 818.806 180.792H815.821C813.622 180.792 812.993 180.093 812.993 177.632V165.15H815.088V171.12C816.729 170.178 818.335 169.06 819.487 168.065L821.024 169.881C819.295 171.103 817.131 172.273 815.088 173.25V177.649C815.088 178.679 815.21 178.854 816.048 178.854ZM826.139 169.724L824.585 170.125C824.567 169.06 824.236 167.419 823.834 166.197L825.283 165.831C825.754 167.053 826.069 168.659 826.139 169.724ZM830.608 175.502L829.351 177.161C829.106 176.689 828.67 176.026 828.233 175.38V180.984H826.296V175.799C825.789 177.056 825.196 178.225 824.55 179.046C824.358 178.418 823.904 177.492 823.572 176.916C824.445 175.851 825.335 174.106 825.877 172.552H823.852V170.614H826.296V164.696H828.233V169.322C828.565 168.257 828.914 166.774 829.089 165.709L830.887 166.11C830.416 167.472 829.892 169.078 829.455 170.055L828.233 169.741V170.614H830.363V172.552H828.233V172.953C828.879 173.582 830.276 175.118 830.608 175.502ZM832.877 168.868V171.854C832.877 174.559 832.563 178.557 830.677 181.019C830.363 180.635 829.543 179.936 829.124 179.692C830.8 177.475 830.939 174.228 830.939 171.836V166.948H834.396V164.714H836.473V166.948H839.982V168.868H832.877ZM837.172 178.487H840.017V180.355H832.336V178.487H835.199V174.315H833.244V172.43H835.199V169.235H837.172V172.43H839.493V174.315H837.172V178.487ZM853.442 169.724V167.367H847.332V169.724H853.442ZM855.554 165.377V171.696H845.324V165.377H855.554ZM847.489 175.136H844.888V178.138H847.489V175.136ZM842.932 181.001V173.145H849.566V180.914H847.489V180.128H844.888V181.001H842.932ZM853.04 178.138H855.816V175.136H853.04V178.138ZM851.05 173.145H857.911V180.931H855.816V180.128H853.04V181.001H851.05V173.145Z" fill="#0053A0"/>
<path d="M793.912 172.908V166.599H792.678C792.678 166.599 792.678 157.136 792.678 155.483C792.678 153.831 791.135 153.23 790.054 153.831C786.58 155.764 783.111 159.989 783.111 161.041V166.599H781.877V172.908H781.105V185.3C781.105 186.006 781.693 186.578 782.418 186.578H793.371C794.096 186.578 794.683 186.006 794.683 185.3V172.908H793.912ZM783.574 185.076H782.648V174.411H783.574L783.574 185.076ZM792.832 172.908H782.957V167.651H792.832V172.908H792.832Z" fill="#0052A0"/>
<path d="M481 196.941L472.315 207.929C464.507 197.617 457.098 190.348 450.007 184.854C439.569 196.856 426.742 204.21 415.667 208.267L407.78 197.786C437.737 188.911 450.564 168.626 454.229 152.314L416.544 152.652V141.072H469.607C467.455 155.187 462.755 166.598 456.779 175.98C464.428 181.051 473.59 188.489 481 196.941Z" fill="#FBFCE7"/>
<path d="M394.152 192.377L393.195 205.731C381.149 207.252 372.374 208.098 363.759 208.098C359.052 208.098 354.346 207.844 349.241 207.337C341.104 206.576 334.483 202.097 334.483 191.278V137.015L346.05 137.1L345.81 163.893C360.169 158.737 372.853 152.314 381.628 146.735L388.009 157.808C374.209 165.583 358.733 171.754 345.731 175.811C345.651 181.389 345.651 186.038 345.651 188.32C345.651 192.292 347.884 195.335 352.352 195.673C355.542 195.927 358.654 196.096 361.844 196.096C371.656 196.096 381.708 194.828 394.152 192.377ZM390.163 146.144L383.383 147.834C382.266 143.185 379.554 136.339 377.48 132.198L384.101 131.014C385.776 134.48 388.967 141.072 390.163 146.144ZM401.81 144.538L395.109 146.228C393.913 141.833 391.28 135.663 388.967 131.014L395.428 130C397.582 133.972 400.613 139.974 401.81 144.538Z" fill="#FBFCE7"/>
<path d="M317.92 177.766H263.689V166.102H317.92V177.766Z" fill="#FBFCE7"/>
<path d="M250.209 163.048H234.572C234.572 191.616 226.793 203.449 200.627 210.633L191.669 200.237C214.692 196.687 223.571 187.897 223.571 163.048H203.063V183.925H191.905V163.048H176.425V152.06H191.905V135.747H203.063V152.06H223.493C223.493 147.073 223.414 141.664 223.414 135.747H234.651V152.06H250.209V163.048Z" fill="#FBFCE7"/>
<path d="M152.295 212.07H142.237V169.472H131.786C131.079 188.066 128.564 200.406 123.457 210.38L115.521 200.406C120.707 189.25 122.121 178.346 122.121 156.793V136.846C132.572 136.846 146.794 136.17 156.459 132.198L161.645 142.847C148.837 147.158 132.022 147.158 132.022 147.158V158.822H161.802V169.472H152.295V212.07ZM110.492 212.07H100.591V169.979C98.7052 177.586 95.9551 185.615 92.3405 191.193L87.3902 178.177C91.8691 173.19 96.1122 165.414 99.491 156.455H89.7475V146.228H100.591V132.198H110.492V146.228H119.449V156.455H111.356C114.028 162.203 117.328 167.02 121.65 171.077L117.328 183.248C114.656 178.093 112.299 172.261 110.492 165.584V212.07Z" fill="#FBFCE7"/>
<path d="M42.5886 211.225H40.3098L36.7739 199.984C39.4455 200.153 43.6101 200.406 45.8888 200.406C50.9177 200.322 51.782 198.969 52.0963 193.983C52.3321 189.08 52.9607 178.6 52.9607 174.374H40.467C38.6597 191.532 29.5448 206.323 8.4077 213L1.88584 203.026C21.3729 197.955 28.3662 186.967 29.9377 174.374H15.4796V167.02C12.7294 169.556 9.90066 171.838 7.0719 173.698L0 164.231C11.4722 157.131 19.6442 147.665 24.7517 132.874L34.6523 137.1C31.2735 147.496 25.3017 156.878 18.3869 164.147H59.6397C53.1178 156.878 47.3032 147.919 42.2742 137.184L52.1749 132.874C57.361 145.129 66.0044 155.61 77.2409 163.64L69.5404 173.698C67.5759 172.092 65.6901 170.401 63.8828 168.626C63.5685 175.388 63.0185 187.897 62.7828 191.87C61.8398 206.492 59.7968 211.225 42.5886 211.225Z" fill="#FBFCE7"/>
<path d="M888 82.7935L882.318 93.8068C870.006 93.034 856.369 90.5221 846.804 87.5273L853.812 79.7986H831.651L838.659 87.5273C828.337 90.6187 815.646 92.9373 803.145 93.8068L797.463 82.7935C807.218 82.407 820.097 81.2477 828.526 79.7986H807.312V38.9333C806.555 40.0926 805.797 41.1553 804.85 42.3146L797.463 29.9487C801.062 25.0216 802.293 18.4523 802.293 9.37109V4.9271C811.29 4.9271 826.158 4.44406 835.25 2.51189L839.89 12.849C832.598 13.8151 821.707 14.5879 813.468 14.6846L813.373 17.3896H840.08V26.8572H831.178V34.5859H819.529V26.8572H812.426C811.669 29.9487 810.532 33.33 808.638 36.8079H847.656L840.269 29.369C843.868 24.442 845.004 18.3557 845.004 9.85413V4.9271C856.464 4.73389 871.143 4.15424 880.992 2.51189L885.632 13.1388C874.741 14.0083 864.229 14.5879 856.274 14.6846V17.3896H885.632V26.8572H875.973V34.6825H864.04V26.8572H855.232C854.38 30.3351 853.149 33.813 851.35 36.8079H878.151V79.7986H857.6C866.123 81.2477 876.541 82.3104 888 82.7935ZM866.218 71.0072V67.0463H819.245V71.0072H866.218ZM866.218 59.8973V56.2262H819.245V59.8973H866.218ZM866.218 49.0771V45.5992H819.245V49.0771H866.218Z" fill="#FBFCE7"/>
<path d="M751.541 80.9578H753.719C767.262 80.668 767.925 77.3833 768.683 44.8263L769.061 27.63H766.883C764.989 46.2754 761.39 64.9208 751.541 80.9578ZM755.614 94L751.162 81.5375C749.079 84.8222 746.711 88.1069 743.965 91.1983L734.021 82.407C749.552 67.6259 754.666 47.4347 756.845 27.63H753.814C750.5 45.1161 744.533 61.3463 735.347 72.6495L725.876 64.631C735.442 54.4871 741.313 41.0586 743.965 27.63H741.219C739.23 32.8469 737.052 37.5807 734.873 40.7687L726.255 32.8469H720.857V49.3669C724.266 48.111 727.202 46.9517 728.907 46.0822V58.8345C726.729 59.8972 723.888 61.1531 720.857 62.409V93.9034H709.398V66.7564C704.568 68.3988 699.833 69.8479 696.329 70.7173L693.867 57.482C697.939 56.5159 703.621 54.9702 709.398 53.1346V32.8469H705.042C704.568 38.74 703.716 43.9568 702.579 47.6279L693.298 41.6382C695.477 34.5858 696.329 24.3453 696.329 15.6506C696.329 13.332 696.234 11.2066 696.139 9.27441L705.989 10.7235C705.989 14.2014 705.894 17.7759 705.799 21.2539H709.398V2.60843H720.857V21.2539H727.676V29.7554C732.032 22.1233 734.968 13.5252 736.862 2.89826L748.037 5.50668C747.28 8.69476 746.238 12.5591 745.007 16.52H780.994L780.426 44.8263C779.668 84.0493 778.058 93.1305 755.614 94Z" fill="#FBFCE7"/>
<path d="M678.9 91.8746L591.772 91.778V79.5087H603.61V20.5776H617.058V79.5087H633.063V2.70509H646.89V32.2673H675.774V45.0196H646.89V79.5087H678.9V91.8746Z" fill="#FBFCE7"/>
<path d="M577.677 29.4656L571.711 40.8654C567.734 38.3535 562.998 34.3926 558.926 28.6927V41.8314H547.656V28.5961C544.342 33.7163 540.175 38.5467 536.008 41.0586L529.947 30.335L525.874 37.2908C522.749 35.0688 519.624 32.2672 516.878 28.4995V41.8314H505.513V28.8859C502.198 34.296 497.937 39.5128 493.675 42.3145L487.898 30.8181C492.349 29.2723 498.6 25.7944 503.998 20.2878H491.308V9.56424H505.513V2.60843H516.878V9.56424H530.61V20.2878H518.488C522.276 23.4758 526.537 25.9877 531.557 27.63L530.231 29.852C534.493 28.4995 540.932 25.1182 545.668 20.2878H533.545V9.56424H547.656V2.60843H558.926V9.56424H574.079V20.2878H560.347C566.029 25.2148 572.374 27.8232 577.677 29.4656ZM577.109 81.9239L566.787 91.8746C559.116 88.6865 549.55 82.6002 543.111 77.2867L553.528 70.1377H540.554V75.1613C540.554 91.0051 538.849 93.4203 520.003 93.9034L515.268 81.8273H519.245C526.632 81.8273 527.863 80.9578 527.863 75.8376V70.1377H509.491L520.192 76.7071C514.415 82.7934 506.46 88.1069 498.505 91.778L488.466 81.2477C495.948 79.1223 504.187 74.6783 509.017 70.1377H490.36V59.2209H575.026V70.1377H554.286C560.347 74.5817 570.006 79.0257 577.109 81.9239ZM568.112 54.5837H497.274V44.0534H568.112V54.5837Z" fill="#FBFCE7"/>
<path d="M477.386 16.7135L469.715 18.6456C465.169 45.3096 454.183 82.214 401.812 92.8409L391.016 80.0886C433.633 74.2921 446.891 51.4925 453.52 29.176H424.92C418.196 40.0927 409.01 50.4298 397.929 57.3856L385.997 47.1451C405.221 37.0012 417.059 17.8728 421.132 3.76796L435.527 6.76281C434.485 10.0475 433.159 13.4288 431.549 16.8101C439.125 16.8101 446.797 16.7135 454.373 16.7135C452.858 11.8831 450.395 6.27977 448.501 2.60865L456.362 1.25614C458.161 4.73404 461.381 11.2068 463.086 16.6169H468.768C467.158 11.7865 464.506 5.89334 462.139 1.25614L469.81 0.0968323C472.367 4.63743 475.965 11.4966 477.386 16.7135Z" fill="#FBFCE7"/>
<path d="M300.754 90.2322L292.325 76.9968C334.752 70.5241 351.989 51.299 359.754 17.1962L372.161 25.0215C366.384 47.9177 354.924 79.3154 300.754 90.2322ZM327.65 29.5621L317.99 41.928C310.414 33.8129 297.155 25.6012 290.147 22.1233L300.091 11.5929C306.152 14.3946 320.263 22.1233 327.65 29.5621Z" fill="#FBFCE7"/>
<path d="M266.032 71.3936L264.895 86.6577C250.595 88.3967 240.177 89.3627 229.949 89.3627C224.362 89.3627 218.774 89.0729 212.713 88.4933C203.053 87.6238 195.193 82.5035 195.193 70.1377V8.11509L208.925 8.2117L208.641 38.8366C224.741 33.3299 237.904 27.0503 248.227 20.964L256.656 33.0401C240.556 41.7348 223.699 47.9177 208.546 52.4583C208.452 58.8345 208.452 64.148 208.452 66.7564C208.452 71.297 211.103 74.7749 216.407 75.1613C220.195 75.4511 223.888 75.6443 227.676 75.6443C239.325 75.6443 251.258 74.1952 266.032 71.3936ZM275.123 13.815C275.123 21.447 269.062 27.63 261.58 27.63C254.099 27.63 248.038 21.447 248.038 13.815C248.038 6.18292 254.099 -1.52588e-05 261.58 -1.52588e-05C269.062 -1.52588e-05 275.123 6.18292 275.123 13.815ZM267.831 13.815C267.831 10.3371 264.99 7.43883 261.58 7.43883C258.171 7.43883 255.33 10.3371 255.33 13.815C255.33 17.2929 258.171 20.1911 261.58 20.1911C264.99 20.1911 267.831 17.2929 267.831 13.815Z" fill="#FBFCE7"/>
<path d="M172.918 54.9703H102.709V41.6383H172.918V54.9703Z" fill="#FBFCE7"/>
<path d="M80.6074 49.85L75.0198 64.5345C59.6778 55.9363 40.5476 48.8839 25.1109 43.9569V92.1645L11 92.0679V4.83047H25.1109V29.7554C37.9906 33.5232 65.1706 42.0247 80.6074 49.85ZM63.9395 26.7606L55.4161 30.6249C53.1432 24.6352 47.5557 15.554 44.5252 11.5931L52.8591 8.21177C55.2267 11.5931 61.7613 20.8675 63.9395 26.7606ZM77.4822 20.5776L69.4323 24.8284C67.1594 19.3217 61.7613 10.7236 58.2573 6.18299L66.2124 2.70509C69.2429 6.56942 75.0199 14.8777 77.4822 20.5776Z" fill="#FBFCE7"/>
</svg>
