<svg width="211" height="193" viewBox="0 0 211 193" fill="none" xmlns="http://www.w3.org/2000/svg">
<path d="M134.061 67.037C134.61 66.502 135.262 66.0786 135.98 65.7912C136.697 65.5038 137.466 65.3581 138.241 65.3625C139.224 65.2944 140.208 65.4881 141.087 65.9229C141.967 66.3577 142.709 67.0174 143.234 67.8315C145.006 70.5824 145.139 75.7685 144.151 79.0171C143.451 81.3182 142.293 84.8414 139.273 87.4501C138.609 88.0334 137.828 88.476 136.98 88.7499C136.131 89.0239 135.234 89.1233 134.345 89.0419L133.863 88.9814C133.455 90.549 132.941 92.0888 132.327 93.5908C131.197 96.9816 124.711 108.929 116.091 113.897C116.169 116.141 116.463 118.373 116.968 120.563C117.164 121.308 117.509 122.008 117.984 122.622C118.459 123.236 119.053 123.752 119.733 124.14C121.767 125.462 125.85 126.463 129.131 127.02C129.065 127.085 129.034 127.119 129.034 127.119C122.935 133.562 111.479 137.134 99.6129 137.615C87.4984 138.033 74.6603 134.776 69.1064 129.005C71.9389 128.185 75.3666 127.372 77.7076 125.983C79.2122 124.92 80.2694 123.359 80.6821 121.591C80.8255 119.465 80.8419 117.332 80.7312 115.205C76.6172 113.191 72.9558 110.397 69.9611 106.985C65.9002 102.552 62.8114 97.3549 60.8848 91.7127C59.9498 91.9423 58.9737 91.9609 58.0303 91.7672C57.0869 91.5734 56.2011 91.1724 55.4401 90.5946C52.2235 88.2206 50.7981 84.7943 49.9143 82.5528C48.6729 79.3868 48.3989 74.206 49.9498 71.3307C50.4097 70.4795 51.0976 69.7662 51.9401 69.2669C52.7827 68.7676 53.7482 68.5009 54.7338 68.4955C55.5065 68.433 56.2843 68.5207 57.0222 68.7535C57.76 68.9863 58.4433 69.3596 59.0325 69.8518C59.0325 69.8518 53.9037 30.6299 96.8241 30.6299C134.356 30.6299 134.061 67.037 134.061 67.037Z" fill="white"/>
<path d="M138.51 37.3349C136.434 31.859 133.197 27.071 128.637 23.778L123.449 18.8585C117.505 11.7872 108.153 8.18398 94.9936 8.11377C77.8822 8.19021 65.5584 16.1325 60.2475 23.2972L61.438 24.4099C50.2336 34.6694 46.7058 52.4072 52.9806 68.8215C53.5486 68.6409 54.1375 68.5302 54.7336 68.4918C55.5063 68.4293 56.2841 68.517 57.022 68.7498C57.7598 68.9826 58.4431 69.3559 59.0324 69.8481L64.8348 64.7064C69.1417 59.6402 76.7936 51.9637 82.2547 48.9C82.8918 48.5444 83.752 48.9622 84.0587 50.019C84.309 50.8442 84.4015 51.7074 84.3317 52.5654C84.2981 52.8086 84.3339 53.0562 84.4351 53.2809C84.5364 53.5056 84.6992 53.6986 84.9056 53.8386C85.112 53.9787 85.354 54.0604 85.605 54.0748C85.8559 54.0891 86.106 54.0355 86.3278 53.9199C90.2215 51.609 97.1398 47.0024 102.086 44.7457L109.575 45.3599C112.131 46.2819 114.508 47.6204 116.606 49.3186C121.281 52.9511 125.823 58.0039 127.93 62.6506L134.062 67.0306C134.611 66.4959 135.263 66.0726 135.98 65.7852C136.698 65.4978 137.466 65.352 138.242 65.3561C138.915 65.3481 139.587 65.4343 140.235 65.6121C142.191 56.637 141.835 46.1065 138.51 37.3349Z" fill="#1A5E9D"/>
<path d="M21.916 192C22.8388 186.79 24.0614 166.574 25.7205 160.319C28.6862 152.653 32.0975 147.31 37.7281 143.239C45.1921 137.844 53.0455 133.894 68.2975 128.773C73.702 135.32 87.0356 139.035 99.6014 138.571C111.952 138.035 123.869 133.956 129.911 126.593C139.168 128.699 148.697 131.118 156.922 136.13C160.259 138.013 163.279 140.455 165.863 143.358C168.391 146.32 170.561 149.596 172.322 153.114C176.144 160.676 177.987 183.628 179.202 191.996L21.916 192Z" fill="#FAFBBB"/>
<path d="M69.4748 129.244C70.3522 126.272 71.8043 123.49 73.7526 121.051C75.317 118.941 77.1162 117.006 79.1173 115.283C81.4152 113.602 84.1465 112.579 87.0058 112.327C91.2722 111.778 95.5844 111.653 99.8767 111.952C100.763 111.99 101.6 112.359 102.215 112.983C102.83 113.607 103.175 114.438 103.18 115.304C103.135 116.058 102.827 116.774 102.307 117.332C101.786 117.891 101.085 118.258 100.321 118.371C98.363 118.667 95.6607 118.752 92.4077 119.329C88.6851 119.989 88.585 120.327 86.7482 121.995L86.578 122.244C90.2351 122.171 94.5876 122.379 96.519 123.24C97.2472 123.563 99.8867 125.063 100.541 125.506C103.626 127.589 105.232 129.105 106.191 131.049C106.561 132.126 106.493 133.3 106.001 134.329C105.622 135.082 104.34 136.072 102.321 135.452C102.887 135.954 103.305 136.595 103.529 137.309C103.753 138.022 103.776 138.782 103.595 139.507C103.347 140.291 102.856 140.979 102.19 141.478C101.524 141.977 100.715 142.26 99.8758 142.29C100.695 143.046 100.246 145.067 99.6091 145.94C98.9428 146.854 97.0506 146.928 96.0594 146.582C95.226 146.248 94.3664 145.981 93.489 145.782C93.4335 146.061 93.4026 146.221 93.4026 146.221C93.2078 147.21 92.8109 149.51 92.486 150.464C91.5704 153.251 90.257 156.337 87.6466 157.833C86.3451 158.421 85.0139 158.945 83.6582 159.401C82.5304 159.917 81.5283 162.438 80.9276 164.208C80.9216 164.225 80.9086 164.24 80.8916 164.249C80.8746 164.257 80.8548 164.259 80.8366 164.253C75.1734 162.436 68.5391 160.218 63.2291 158.547C63.1425 158.52 63.0624 158.475 62.9936 158.417C62.9248 158.359 62.8687 158.288 62.8287 158.208C62.7887 158.128 62.7656 158.041 62.7607 157.952C62.7559 157.863 62.7694 157.775 62.8005 157.691C63.6715 155.301 64.2376 154.012 64.7764 152.427C65.532 149.779 66.1397 147.093 66.5968 144.381C67.669 137.276 67.9994 134.484 68.9551 130.926C69.1289 130.332 69.301 129.77 69.4748 129.244Z" fill="white"/>
<path d="M55.013 68.0652C50.8262 56.8281 50.8517 43.8267 57.0528 33.2758C58.6497 30.5542 60.6473 28.0765 62.9817 25.9218C65.0278 24.0305 61.935 21.0174 59.8925 22.9052C50.3556 31.7257 46.5311 45.1253 48.0274 57.6689C48.4881 61.6049 49.4189 65.4747 50.8007 69.1993C50.9675 69.7368 51.3393 70.1911 51.8394 70.4683C52.3395 70.7456 52.9295 70.8246 53.4876 70.689C54.0435 70.5345 54.515 70.1729 54.8004 69.6821C55.0858 69.1912 55.1622 68.6105 55.013 68.0652Z" fill="#1A5E9D"/>
<path d="M127.537 25.6233C136.675 32.3089 139.446 44.8445 139.235 55.391C139.177 58.5671 138.822 61.7314 138.174 64.8443C138.034 65.3894 138.115 65.9661 138.399 66.4547C138.683 66.9433 139.149 67.3062 139.7 67.4681C140.259 67.6132 140.853 67.5384 141.356 67.2598C141.858 66.9812 142.229 66.5211 142.387 65.9784C144.904 53.9796 143.944 40.0032 136.967 29.4985C135.037 26.5813 132.59 24.0231 129.741 21.9437C129.24 21.6615 128.646 21.5837 128.086 21.7269C127.527 21.8702 127.048 22.223 126.753 22.7089C126.474 23.2003 126.4 23.7778 126.546 24.3213C126.692 24.8648 127.047 25.3325 127.537 25.6269V25.6233Z" fill="#1A5E9D"/>
<path d="M60.58 68.3434C59.2978 67.2864 57.7263 66.6196 56.0601 66.4256C54.3938 66.2317 52.7059 66.5189 51.2051 67.2519C50.1046 67.8451 49.1583 68.6771 48.439 69.6838C47.7198 70.6906 47.2468 71.8451 47.0565 73.0584C46.5494 75.8443 46.631 78.702 47.2962 81.4559C47.9614 84.2099 49.1963 86.802 50.9248 89.0729C53.3878 92.2992 56.7891 94.5834 61.0633 93.8724C61.6194 93.7182 62.0911 93.3566 62.3765 92.8657C62.6619 92.3748 62.7381 91.794 62.5888 91.2487C62.4238 90.7101 62.0523 90.2544 61.5517 89.9767C61.0512 89.6991 60.4601 89.6207 59.9019 89.7581C57.1595 90.2176 54.9141 87.4668 53.6899 85.4501C52.392 83.3917 51.5418 81.0945 51.1924 78.7014C50.9193 76.5417 50.8629 73.813 52.1299 71.9288C52.4084 71.5155 52.048 71.9883 52.3429 71.6755C52.3784 71.6373 52.7979 71.2551 52.6032 71.4088C53.0329 71.0874 53.5303 70.8631 54.0595 70.752C54.6418 70.5896 55.2547 70.5606 55.8505 70.6671C56.4462 70.7736 57.0088 71.0128 57.4945 71.3662C57.9117 71.752 58.4645 71.967 59.0391 71.967C59.6137 71.967 60.1664 71.752 60.5836 71.3662C60.9893 70.9641 61.2167 70.4223 61.2167 69.8579C61.2167 69.2934 60.9893 68.7517 60.5836 68.3496L60.58 68.3434Z" fill="#1A5E9D"/>
<path d="M135.612 68.545C136.064 68.1242 136.612 67.8135 137.21 67.6382C137.808 67.4629 138.44 67.428 139.055 67.5362C139.503 67.5775 139.937 67.7129 140.326 67.9332C140.716 68.1535 141.052 68.4535 141.312 68.8126C141.096 68.5459 141.261 68.7406 141.354 68.9077C141.488 69.1476 141.639 69.3716 141.753 69.6187C141.994 70.1861 142.174 70.7757 142.293 71.3785C142.565 72.6983 142.657 74.0473 142.566 75.3906C142.407 77.7054 141.774 79.9656 140.706 82.0379C139.47 84.4901 137.469 87.193 134.355 86.905C133.776 86.9089 133.223 87.135 132.814 87.5341C132.406 87.9333 132.174 88.4736 132.17 89.0381C132.182 89.6002 132.416 90.1361 132.823 90.5336C133.23 90.9312 133.779 91.1596 134.355 91.1712C141.057 91.7827 144.874 84.6519 146.345 79.3128C147.108 76.396 147.176 73.3471 146.543 70.4008C146.356 69.1846 145.915 68.0188 145.248 66.9758C144.581 65.9327 143.701 65.0347 142.664 64.3374C141.069 63.4401 139.22 63.0708 137.393 63.2848C135.566 63.4989 133.859 64.2847 132.527 65.5249C130.504 67.4385 133.595 70.4542 135.616 68.5415L135.612 68.545Z" fill="#1A5E9D"/>
<path d="M132.362 85.6981C132.074 87.3014 131.675 88.8835 131.167 90.4336C130.773 91.6646 130.438 92.4965 130.098 93.3773C130.045 93.5116 129.992 93.644 129.94 93.7809C129.785 94.1853 129.932 93.8093 129.91 93.8591C129.737 94.2386 129.563 94.6172 129.379 94.9914C128.957 95.8518 128.502 96.6961 128.026 97.5298C125.56 102.034 122.332 106.101 118.481 109.557C116.424 111.428 113.957 112.816 111.267 113.614C108.559 114.336 109.708 118.453 112.429 117.728C118.136 116.207 122.755 112.002 126.354 107.585C129.507 103.821 132.097 99.6398 134.049 95.1665C134.176 94.8652 134.297 94.5612 134.406 94.2537C134.187 94.8759 134.641 93.6733 134.717 93.4751C134.848 93.1383 134.969 92.7978 135.087 92.4565C135.735 90.6232 136.233 88.7425 136.577 86.8322C136.714 86.2872 136.632 85.7118 136.348 85.224C136.064 84.7361 135.6 84.3728 135.05 84.2085C134.492 84.0621 133.896 84.1363 133.393 84.415C132.89 84.6938 132.52 85.1547 132.362 85.6981Z" fill="#1A5E9D"/>
<path d="M57.9219 89.4986C60.9164 100.455 68.2752 111.217 78.7132 116.602C81.1971 117.883 83.4079 114.202 80.9177 112.918C71.4372 108.029 64.853 98.3102 62.1342 88.3645C61.4061 85.7141 57.1947 86.8384 57.9219 89.4986Z" fill="#1A5E9D"/>
<path d="M94.4684 99.4799C94.7415 99.327 95.0082 99.1777 95.2876 99.0417C95.4595 98.9801 95.6258 98.9043 95.7845 98.8151C95.4341 99.0817 95.4651 98.943 95.7254 98.847C95.831 98.8079 95.9384 98.7706 96.0448 98.7351C96.577 98.5591 97.1211 98.4195 97.6732 98.3173C97.8552 98.2827 98.0436 98.2542 98.2293 98.2284C97.8998 98.2818 98.1783 98.2347 98.3549 98.216C98.7657 98.1733 99.1774 98.1437 99.59 98.1271C100.336 98.0961 101.083 98.1163 101.826 98.1876C102.068 98.2115 102.19 98.2444 101.876 98.1876C102.041 98.2169 102.207 98.2409 102.372 98.2764C102.621 98.3253 102.868 98.3822 103.112 98.4489C103.357 98.5155 103.577 98.5902 103.807 98.6684C104.213 98.807 103.687 98.6684 103.666 98.6044C103.759 98.6552 103.856 98.6992 103.955 98.7359C104.231 98.8689 104.495 99.0237 104.745 99.199C105.246 99.4821 105.841 99.5605 106.401 99.4172C106.961 99.2739 107.44 98.9204 107.734 98.4338C108.011 97.9418 108.084 97.3648 107.938 96.8218C107.793 96.2787 107.439 95.811 106.951 95.5149C104.898 94.0733 102.036 93.7729 99.59 93.8626C97.0216 93.9072 94.5046 94.5726 92.264 95.7993C92.0162 95.9408 91.7995 96.1284 91.626 96.3516C91.4526 96.5748 91.3258 96.8292 91.2531 97.1003C91.1803 97.3713 91.1629 97.6537 91.2019 97.9313C91.2409 98.2089 91.3355 98.4763 91.4803 98.7182C91.6251 98.9601 91.8173 99.1718 92.0459 99.3411C92.2744 99.5105 92.535 99.6342 92.8125 99.7053C93.0901 99.7764 93.3792 99.7934 93.6635 99.7553C93.9478 99.7172 94.2216 99.6248 94.4693 99.4834L94.4684 99.4799Z" fill="#1A5E9D"/>
<path d="M97.8562 80.8863C98.0427 81.4871 98.2202 82.0924 98.3804 82.6985C98.5723 83.3333 98.7242 83.9788 98.8355 84.6317L98.7572 84.0646C98.7732 84.1941 98.7759 84.3248 98.7654 84.4548L98.8428 83.8878C98.8318 83.9672 98.812 84.0453 98.7836 84.1206L99.0039 83.6113C98.9789 83.6637 98.9484 83.7135 98.9129 83.7598L99.2551 83.3278C99.2296 83.3579 99.2009 83.3853 99.1696 83.4096L99.611 83.0763C99.4958 83.1529 99.374 83.2195 99.2469 83.2754L99.7684 83.0603C99.6151 83.1242 99.4543 83.1696 99.2897 83.1954L99.8704 83.1198C99.702 83.1394 99.5318 83.1394 99.3634 83.1198L99.9441 83.1963C99.6092 83.1518 99.2769 83.0932 98.9429 83.0621C98.6558 83.0614 98.3713 83.116 98.1058 83.2227C97.8403 83.3295 97.599 83.4863 97.3956 83.6842C96.986 84.0842 96.7559 84.6268 96.7559 85.1925C96.7559 85.7582 96.986 86.3008 97.3956 86.7008C97.8219 87.0771 98.3689 87.2971 98.9429 87.323L99.0339 87.3319L98.4532 87.2563C98.8624 87.3367 99.2776 87.3845 99.6947 87.3994C100.365 87.3788 101.02 87.2027 101.606 86.8857C101.964 86.7029 102.278 86.4474 102.527 86.1364C102.776 85.8253 102.954 85.4659 103.049 85.0823C103.174 84.4387 103.151 83.776 102.982 83.142C102.737 81.999 102.419 80.8685 102.072 79.7513C101.912 79.2197 101.555 78.7654 101.071 78.4767C100.696 78.2626 100.264 78.1625 99.8304 78.1893C99.3969 78.2161 98.9813 78.3685 98.6369 78.6271C98.2925 78.8856 98.0349 79.2386 97.8969 79.6409C97.759 80.0431 97.747 80.4764 97.8625 80.8854L97.8562 80.8863Z" fill="#1A5E9D"/>
<path d="M78.0673 71.3333C77.5212 73.3277 78.1074 77.8473 81.9465 78.0881C86.9998 77.8686 87.0535 72.3758 85.2505 69.8623C83.7742 67.8056 79.6428 67.0812 78.0673 71.3333Z" fill="#1A5E9D"/>
<path d="M118.546 69.8151C119.245 71.7624 119.019 76.3131 115.21 76.8419C110.154 77.0019 109.669 71.5296 111.269 68.888C112.579 66.7247 116.641 65.6937 118.546 69.8151Z" fill="#1A5E9D"/>
<path d="M77.0624 59.4535C76.7116 59.8152 76.3294 60.1465 75.9201 60.4437L76.3615 60.1095C75.4544 60.8358 74.4575 61.4482 73.3943 61.9324L73.9168 61.7173C73.8148 61.7599 73.7102 61.7964 73.6037 61.8266C73.0584 61.9811 72.5925 62.3301 72.2985 62.8043C72.0062 63.2927 71.9245 63.8745 72.0715 64.4218C72.2184 64.969 72.582 65.4368 73.0821 65.7222C73.5932 66.0046 74.1968 66.0818 74.7651 65.9373C75.278 65.7814 75.7714 65.5698 76.2359 65.3063C76.6855 65.0645 77.1197 64.7952 77.5438 64.5144C78.1154 64.1357 78.667 63.7278 79.2058 63.3056C79.5439 63.0518 79.8602 62.7715 80.1515 62.4675C80.5507 62.0598 80.7782 61.5204 80.7886 60.9565C80.7862 60.391 80.5576 59.8488 80.1515 59.4455C79.7419 59.0455 79.1863 58.8208 78.6069 58.8208C78.0276 58.8208 77.472 59.0455 77.0624 59.4455V59.4535Z" fill="#1A5E9D"/>
<path d="M69.0258 126.799C68.2303 127.034 67.4339 127.266 66.6503 127.537C66.1127 127.706 65.6516 128.051 65.3451 128.514C65.1874 128.752 65.0979 129.026 65.0856 129.308C65.0203 129.59 65.0338 129.884 65.1248 130.159C65.2782 130.693 65.6368 131.15 66.126 131.433C66.3772 131.578 66.6558 131.671 66.945 131.708C67.2342 131.745 67.528 131.725 67.8089 131.648C68.5926 131.382 69.389 131.144 70.1845 130.911C70.7288 130.754 71.194 130.406 71.4897 129.933C71.6473 129.696 71.7369 129.422 71.7491 129.14C71.8144 128.858 71.8009 128.564 71.7099 128.289C71.5566 127.754 71.198 127.298 70.7088 127.014C70.1985 126.729 69.594 126.652 69.0258 126.799Z" fill="#1A5E9D"/>
<path d="M129.684 124.957C127.981 124.673 126.294 124.298 124.633 123.834C123.829 123.604 123.039 123.343 122.261 123.044C122.61 123.178 122.261 123.044 122.114 122.977C121.968 122.91 121.803 122.834 121.651 122.757C121.371 122.619 121.1 122.465 120.838 122.297C120.691 122.202 120.548 122.1 120.405 121.999C120.807 122.285 120.335 121.928 120.285 121.885C120.146 121.765 120.012 121.639 119.885 121.509C119.849 121.472 119.453 121.017 119.741 121.383C119.626 121.235 119.521 121.081 119.425 120.92C119.401 120.88 119.124 120.336 119.304 120.75C119.156 120.362 119.045 119.96 118.972 119.551C118.874 119.117 118.786 118.681 118.709 118.242C118.672 118.026 118.638 117.809 118.603 117.593C118.579 117.494 118.565 117.392 118.561 117.289C118.446 116.296 118.361 115.301 118.3 114.303C118.3 113.737 118.07 113.195 117.661 112.795C117.251 112.395 116.695 112.17 116.116 112.17C115.537 112.17 114.981 112.395 114.571 112.795C114.162 113.195 113.932 113.737 113.932 114.303C114.037 116.448 114.313 118.582 114.759 120.686C115.216 122.717 116.446 124.503 118.2 125.681C119.659 126.64 121.271 127.356 122.97 127.799C124.791 128.336 126.646 128.761 128.522 129.07C129.08 129.208 129.671 129.129 130.171 128.852C130.672 128.574 131.043 128.119 131.209 127.581C131.355 127.035 131.278 126.456 130.993 125.965C130.708 125.475 130.238 125.113 129.683 124.956L129.684 124.957Z" fill="#1A5E9D"/>
<path d="M108.994 47.42C112.584 48.9314 115.836 51.1155 118.565 53.8487C121.669 56.6574 124.206 60.0099 126.045 63.7322C126.34 64.2177 126.819 64.5703 127.378 64.7135C127.937 64.8567 128.532 64.7791 129.033 64.4974C129.523 64.2029 129.878 63.7353 130.024 63.1919C130.17 62.6484 130.095 62.0709 129.817 61.5795C127.751 57.4384 124.902 53.7164 121.419 50.6099C119.661 48.9401 117.761 47.4176 115.742 46.0584C113.991 44.9396 112.117 44.0154 110.156 43.3031C109.596 43.157 109 43.2324 108.497 43.5127C107.994 43.7931 107.624 44.2559 107.468 44.8007C107.328 45.3458 107.408 45.9229 107.692 46.4116C107.976 46.9004 108.443 47.2632 108.994 47.4245V47.42Z" fill="#1A5E9D"/>
<path d="M66.3825 66.2208C70.5915 61.0743 75.4199 56.4414 80.7634 52.4222C81.3495 52.0036 81.9466 51.5983 82.5619 51.2205C82.7439 51.1085 83.2327 50.9281 83.3619 50.7477C84.3258 49.4065 81.7108 51.2943 81.9338 50.545C81.8983 50.6624 82.064 50.9779 82.094 51.1396C82.2388 51.9022 82.0622 52.6782 82.236 53.4372C82.3432 53.9241 82.5521 54.3842 82.8496 54.7888C83.1472 55.1933 83.527 55.5335 83.9654 55.7881C85.7257 56.7711 87.2839 55.8769 88.7893 54.9526C90.1419 54.1242 91.4844 53.2808 92.8333 52.4462C96.1617 50.2894 99.623 48.3347 103.197 46.5934C103.694 46.3043 104.054 45.8365 104.201 45.2905C104.347 44.7446 104.268 44.1643 103.981 43.6746C103.68 43.1956 103.201 42.8487 102.644 42.7061C102.087 42.5635 101.495 42.6363 100.992 42.9093C97.831 44.4367 94.7661 46.1472 91.8139 48.0315C90.3576 48.9256 88.9076 49.834 87.4541 50.7335C86.8588 51.1014 86.2636 51.4685 85.6638 51.8285C85.611 51.8596 85.2323 52.0773 85.2351 52.0844C85.5894 52.0987 85.9419 52.1415 86.2891 52.2124C86.5621 52.3289 86.3509 52.6853 86.5339 52.4311C86.6249 52.2978 86.5494 51.8845 86.5412 51.7085C86.4593 49.842 85.8959 47.6458 83.9299 46.8912C82.1732 46.2166 80.6851 47.2858 79.2952 48.2244C76.4146 50.2356 73.7055 52.4714 71.1946 54.9099C68.4158 57.5352 65.7817 60.3027 63.3034 63.2007C62.908 63.608 62.6877 64.1478 62.6877 64.709C62.6877 65.2701 62.908 65.8099 63.3034 66.2173C63.7156 66.6146 64.2715 66.8374 64.8507 66.8374C65.4299 66.8374 65.9857 66.6146 66.398 66.2173L66.3825 66.2208Z" fill="#1A5E9D"/>
<path d="M62.1354 24.377C63.1059 23.1429 64.1744 21.9854 65.3311 20.9151C66.6912 19.6618 68.1559 18.5214 69.7099 17.5057C73.3944 15.1038 77.4382 13.2748 81.697 12.084C91.1547 9.4096 102.101 9.40872 111.348 12.9195C115.46 14.4824 119.095 17.0467 121.906 20.3685C122.318 20.7647 122.873 20.9867 123.451 20.9867C124.029 20.9867 124.583 20.7647 124.995 20.3685C125.393 19.9627 125.616 19.4223 125.616 18.8602C125.616 18.2981 125.393 17.7578 124.995 17.3519C118.703 9.94555 109.123 6.87297 99.5693 6.16015C88.8119 5.36023 77.6786 7.53423 68.4903 13.1941C64.5622 15.5538 61.1268 18.6181 58.3654 22.2252C58.077 22.7145 57.9975 23.2951 58.1442 23.8412C58.2909 24.3873 58.6519 24.855 59.1491 25.1432C59.6522 25.4163 60.2438 25.4892 60.8006 25.3466C61.3574 25.2041 61.8362 24.857 62.1372 24.3779L62.1354 24.377Z" fill="#1A5E9D"/>
<path d="M25.0928 189.299C25.5685 186.593 26.1025 172.557 26.6947 169.872C27.2688 166.879 27.9857 163.92 28.8427 161.004C30.2933 156.613 32.5655 152.579 35.5225 149.144C38.1872 146.317 41.2221 143.913 44.5333 142.006C47.7183 140.031 51.0221 138.28 54.4233 136.766C59.6314 134.424 65.0097 132.506 70.3961 130.688C73.0657 129.787 71.9252 125.306 69.2347 126.213C60.3268 129.221 51.3615 132.52 43.2126 137.456C39.7256 139.438 36.4777 141.861 33.5402 144.674C30.1654 148.26 27.4864 152.515 25.6552 157.197C24.4265 160.431 23.4734 163.776 22.8073 167.191C22.0864 170.348 21.4442 184.867 20.8804 188.066C20.742 188.659 20.8231 189.285 21.107 189.816C21.3908 190.347 21.8558 190.742 22.4059 190.919C22.9643 191.077 23.5588 190.996 24.0613 190.693C24.5638 190.39 24.9342 189.89 25.0928 189.299Z" fill="#1A5E9D"/>
<path d="M126.546 128.499C136.045 130.665 145.805 132.837 154.363 137.916C158.381 140.182 161.947 143.252 164.862 146.955C167.878 150.969 170.269 155.468 171.944 160.282C173.881 166.021 178.444 183.268 179.222 189.307C179.379 189.896 179.75 190.396 180.253 190.699C180.756 191.001 181.351 191.081 181.91 190.922C182.46 190.746 182.926 190.353 183.21 189.823C183.494 189.293 183.575 188.668 183.435 188.077C181.838 177.052 175.77 154.733 169.398 145.658C166.473 141.448 162.797 137.885 158.579 135.17C154.16 132.368 149.443 130.13 144.526 128.504C139.019 126.625 133.358 125.323 127.708 124.037C124.966 123.412 123.794 127.871 126.546 128.499Z" fill="#1A5E9D"/>
<path d="M103.551 139.469C113.159 138.491 123.74 135.736 130.572 128.625C132.494 126.624 129.411 123.601 127.483 125.609C121.476 131.866 112.01 134.341 103.551 135.208C102.977 135.223 102.43 135.453 102.024 135.849C101.618 136.246 101.383 136.78 101.367 137.341C101.371 137.905 101.602 138.446 102.011 138.845C102.42 139.244 102.973 139.47 103.551 139.474V139.469Z" fill="#1A5E9D"/>
<path d="M82.2137 124.622C84.765 124.37 87.3314 124.292 89.8938 124.391C91.1483 124.413 92.4001 124.512 93.642 124.687C94.1808 124.776 94.7023 124.903 95.2302 125.036C95.3567 125.074 95.4823 125.115 95.6061 125.159C95.3822 125.061 95.3592 125.052 95.537 125.134C95.7326 125.222 95.9238 125.327 96.1149 125.429C98.4896 126.584 100.681 128.069 102.622 129.835C103.301 130.497 104.235 131.435 104.252 132.36C104.249 132.655 104.201 132.948 104.11 133.229C103.994 133.644 104.24 133.153 104.068 133.34C104.025 133.396 103.964 133.436 103.895 133.455C103.644 133.524 103.379 133.524 103.128 133.455C100.386 132.875 99.2141 136.987 101.966 137.57C105.503 138.319 108.268 136.356 108.594 132.852C108.867 129.877 106.555 127.388 104.352 125.634C102.358 124.033 100.187 122.652 97.8816 121.518C95.6453 120.603 93.242 120.143 90.8177 120.164C87.949 120.005 85.0719 120.069 82.2137 120.356C81.6395 120.372 81.0931 120.602 80.6869 120.998C80.2807 121.395 80.0454 121.929 80.0293 122.489C80.0333 123.054 80.2648 123.594 80.6736 123.993C81.0824 124.392 81.6356 124.619 82.2137 124.622Z" fill="#1A5E9D"/>
<path d="M87.4745 131.965C89.6068 131.94 91.7249 132.307 93.7183 133.047C93.6473 133.02 94.4774 133.349 94.1124 133.198C94.329 133.287 94.5439 133.382 94.7577 133.478C95.2074 133.678 95.6528 133.886 96.0939 134.1C97.0223 134.558 97.9352 135.048 98.8244 135.58C99.2113 135.813 99.5944 136.055 99.9676 136.309C100.028 136.351 100.502 136.69 100.324 136.556C100.145 136.422 100.561 136.75 100.606 136.788C100.874 136.995 101.102 137.25 101.276 137.538C101.406 137.757 101.494 137.999 101.534 138.249C101.543 138.358 101.529 138.866 101.541 138.766C101.57 138.556 101.435 139.122 101.439 139.144C101.388 139.29 101.412 139.239 101.513 138.99C101.478 139.064 101.438 139.137 101.396 139.207C101.359 139.258 101.043 139.687 101.214 139.493C101.385 139.298 100.974 139.707 100.922 139.751C100.81 139.846 100.824 139.836 100.965 139.723C100.874 139.781 100.789 139.836 100.692 139.886C100.44 140.015 100.168 140.105 99.8875 140.153C99.3131 140.168 98.7665 140.398 98.3602 140.795C97.9539 141.191 97.7187 141.725 97.7031 142.286C97.7069 142.851 97.9383 143.391 98.3471 143.79C98.7559 144.189 99.3094 144.415 99.8875 144.419C102.502 144.166 105.018 142.696 105.713 140.07C106.504 137.08 104.894 134.57 102.512 132.871C98.1753 129.658 92.9183 127.851 87.4772 127.702C84.6657 127.688 84.662 131.955 87.4772 131.968L87.4745 131.965Z" fill="#1A5E9D"/>
<path d="M88.9299 139.794C89.0109 139.804 89.3622 139.848 88.9472 139.794L89.2421 139.835C89.4687 139.868 89.6971 139.903 89.922 139.942C90.4007 140.023 90.8767 140.119 91.3482 140.228C91.7869 140.332 92.2214 140.451 92.6516 140.583C92.8694 140.652 93.0851 140.724 93.2987 140.802C93.3898 140.835 93.4808 140.87 93.5718 140.905C93.7156 140.96 93.9786 141.078 93.6947 140.952C95.2312 141.662 96.6822 142.536 98.0208 143.559C98.0599 143.588 98.3994 143.84 98.2155 143.703C98.0471 143.577 98.3311 143.792 98.3348 143.792C98.4203 143.828 98.6624 144.278 98.1955 143.614C98.2328 143.668 98.3384 143.881 98.1809 143.564C98.0235 143.246 98.1418 143.487 98.1582 143.589C98.1946 143.812 98.1345 143.318 98.1272 143.331C98.1013 143.508 98.1013 143.687 98.1272 143.864C98.1272 144.183 98.0426 143.75 98.1536 143.708C98.1345 143.776 98.1208 143.844 98.1127 143.914C98.069 144.068 98.0371 144.226 97.9871 144.379C97.9661 144.443 97.9352 144.507 97.9197 144.57C97.8551 144.836 98.1373 144.2 97.988 144.416C97.9234 144.51 97.6503 144.932 97.8915 144.648C98.1109 144.389 97.9652 144.559 97.9133 144.608C97.6621 144.859 98.0362 144.485 98.0672 144.497C98.0093 144.522 97.9536 144.552 97.9006 144.586C97.6621 144.713 98.3311 144.48 98.0572 144.521C97.9043 144.544 97.7386 144.604 97.5884 144.639C97.5247 144.654 97.2698 144.698 97.5975 144.639C97.9616 144.575 97.5211 144.631 97.4628 144.632C97.3026 144.632 97.1324 144.606 96.975 144.619C96.7538 144.636 97.2052 144.649 97.2234 144.658C97.1423 144.635 97.0591 144.62 96.975 144.612C96.7066 144.543 96.4433 144.457 96.1867 144.354C95.1668 143.964 94.1004 143.701 93.0129 143.572C91.8251 143.485 90.6414 143.788 89.6507 144.435C89.1504 144.72 88.7868 145.188 88.6397 145.735C88.4927 146.282 88.5743 146.864 88.8666 147.353C89.1589 147.841 89.638 148.197 90.1985 148.34C90.759 148.484 91.3549 148.404 91.8552 148.119C91.9535 148.059 92.0563 148.005 92.1537 147.941C92.5023 147.726 92.161 147.903 92.1055 147.941C92.3055 147.864 92.512 147.805 92.7226 147.763C92.7463 147.84 92.1565 147.729 92.5406 147.803C92.6552 147.824 92.8018 147.82 92.9155 147.83C92.8245 147.822 92.4868 147.746 92.8955 147.837C93.0475 147.871 93.2013 147.9 93.3506 147.937C94.1525 148.133 94.8979 148.492 95.6907 148.7C97.7313 149.233 100.309 148.789 101.524 146.969C102.553 145.428 102.944 142.986 101.903 141.369C101.463 140.8 100.921 140.313 100.303 139.935C99.8611 139.608 99.4142 139.288 98.9582 138.981C98.1898 138.456 97.3847 137.983 96.549 137.568C94.1462 136.461 91.5653 135.77 88.9208 135.523C88.3414 135.523 87.7858 135.748 87.3761 136.148C86.9665 136.548 86.7363 137.091 86.7363 137.657C86.753 138.217 86.9886 138.75 87.3946 139.147C87.8007 139.543 88.3467 139.773 88.9208 139.79L88.9299 139.794Z" fill="#1A5E9D"/>
<path d="M91.3022 145.657C90.6423 148.97 90.057 152.956 87.382 155.381C85.7946 156.822 83.3617 156.725 81.7635 158.122C80.2007 159.489 79.468 161.766 78.8236 163.646L79.8248 162.37L79.7338 162.415L81.4167 162.2C78.4331 161.241 75.4559 160.264 72.4778 159.291C71.0173 158.813 69.5561 158.338 68.0944 157.864C67.3662 157.627 66.6347 157.392 65.8999 157.159C65.2786 157.02 64.6718 156.825 64.0877 156.575L64.8714 157.341L64.8641 157.39V158.525C65.0908 156.934 66.0537 155.287 66.6053 153.767C67.1004 152.405 67.4181 150.961 67.7713 149.557C68.6814 145.96 69.0892 142.269 69.6526 138.611C70.5628 132.729 71.8753 126.961 75.6407 122.129C75.9296 121.64 76.0094 121.059 75.8627 120.513C75.716 119.966 75.3546 119.498 74.857 119.21C74.3536 118.938 73.7624 118.866 73.2061 119.009C72.6497 119.151 72.1708 119.497 71.8689 119.976C68.6059 124.163 66.9057 129.202 65.9618 134.334C64.9606 139.771 64.4018 145.227 62.9901 150.589C62.6773 151.764 62.2987 152.921 61.856 154.056C61.3481 155.37 60.3032 157.1 60.6518 158.527C61.1169 160.431 63.1011 160.749 64.7385 161.275C66.355 161.792 67.9697 162.314 69.5825 162.842C72.8355 163.901 76.0858 164.975 79.3424 166.023C79.7493 166.226 80.1982 166.338 80.6554 166.347C81.1127 166.357 81.5662 166.266 81.9819 166.079C82.8775 165.575 83.0741 164.618 83.4036 163.742C83.6074 163.189 83.8507 162.651 84.1317 162.132C84.2746 161.797 84.4891 161.496 84.7607 161.249C85.6325 160.878 86.5257 160.557 87.4357 160.287C88.2698 159.956 89.0534 159.515 89.7649 158.976C91.081 157.934 92.1516 156.626 92.9041 155.144C94.1828 152.498 95.0615 149.685 95.5126 146.793C95.6516 146.248 95.5707 145.672 95.2868 145.183C95.0029 144.695 94.5376 144.332 93.9872 144.169C93.4286 144.024 92.8341 144.098 92.3316 144.377C91.829 144.656 91.4587 145.116 91.3003 145.659L91.3022 145.657Z" fill="#1A5E9D"/>
<path d="M88.2973 123.503C88.5558 123.268 88.8107 123.029 89.071 122.792C89.1529 122.718 89.8283 122.176 89.4041 122.478C89.5893 122.35 89.7813 122.232 89.9793 122.123C90.3088 121.935 90.044 122.076 89.9593 122.111C90.1578 122.033 90.3605 121.965 90.5664 121.908C92.5634 121.381 94.6077 121.042 96.671 120.896C98.5505 120.708 100.73 120.776 102.433 119.884C103.393 119.397 104.181 118.639 104.694 117.709C105.207 116.779 105.421 115.719 105.31 114.669C105.182 113.624 104.75 112.638 104.064 111.827C103.378 111.017 102.467 110.416 101.441 110.097C99.713 109.7 97.9342 109.554 96.1622 109.663C91.7151 109.602 86.811 109.718 82.5714 111.125C77.8976 112.677 74.7493 116.218 71.8658 119.975C71.5771 120.464 71.4975 121.045 71.6442 121.591C71.7908 122.138 72.152 122.605 72.6495 122.894C73.1528 123.166 73.7441 123.238 74.3006 123.096C74.8571 122.953 75.336 122.607 75.6376 122.128C77.549 119.633 79.8199 116.843 82.8189 115.575C86.2567 114.121 90.3261 114.015 94.0187 113.937C95.5915 113.903 97.1652 113.937 98.7353 114.015C99.6336 114.062 100.657 113.958 100.947 114.943C101.255 115.985 100.086 116.27 99.3287 116.365C97.4729 116.597 95.607 116.721 93.752 116.974C91.907 117.141 90.0927 117.546 88.3565 118.178C87.1751 118.762 86.1082 119.544 85.2045 120.489C83.1466 122.368 86.2403 125.378 88.2937 123.506L88.2973 123.503Z" fill="#1A5E9D"/>
<path d="M162.461 65.3092C161.808 64.3329 161.043 63.3636 160.585 62.2758C160.058 61.0256 159.905 59.5715 159.904 58.2275C159.901 55.7044 161.135 53.0439 163.289 51.6353C168.98 47.9146 174.915 54.957 177.455 59.3223C178.225 60.6451 179.073 62.1985 178.578 63.7711C178.071 65.3829 176.526 66.2303 174.876 66.0366C173.615 65.8883 172.469 65.2034 171.554 64.3666C170.274 63.1941 169.084 61.9274 168.007 60.5657C164.899 56.6362 161.721 51.2502 162.692 46.0027C163.177 43.3873 164.743 41.067 167.29 40.0508C170.141 38.914 173.258 39.5238 175.865 40.949C178.438 42.3566 180.594 44.4979 182.721 46.4814C184.63 48.2613 186.472 50.1274 187.99 52.2548C189.633 54.5547 190.905 57.0763 191.817 59.7481C192.252 61.0197 192.84 62.4417 192.75 63.8106C192.642 65.4555 191.38 66.8097 189.75 67.0644C186.811 67.5244 184.4 65.1319 182.413 63.3769C180.335 61.5417 178.346 59.6031 176.548 57.4943C172.944 53.2673 169.966 48.3073 167.744 43.2221C165.599 38.3147 166.505 31.2383 172.528 29.6385C175.058 28.9672 178.037 29.7969 180.339 30.8872C182.817 32.0605 185.054 33.7028 187.141 35.461C191.495 39.128 195.644 43.3431 199.019 47.9258C201.565 51.3815 205.055 56.4406 203.793 61.0125C203.3 62.7977 201.931 64.3707 199.961 64.3019C198.758 64.2594 197.639 63.6842 196.659 63.0341C193.717 61.0831 191.33 58.1265 189.155 55.3987C186.243 51.7454 183.587 47.8854 181.087 43.9428C178.56 39.961 176.059 35.8821 174.027 31.6205C172.09 27.5574 172.515 20.7048 177.153 18.5314C179.221 17.5623 181.668 18.072 183.732 18.7512C186.084 19.5256 188.372 20.7366 190.37 22.1879C192.855 23.9938 195.112 26.2316 197.303 28.3727C199.513 30.5332 201.613 32.8127 203.493 35.2661C205.309 37.6385 206.916 40.179 208.245 42.8546C209.425 45.2331 205.635 46.9235 204.457 44.5489C202.233 40.0686 199.116 36.1391 195.642 32.5563C192.473 29.2879 189.03 25.7143 184.879 23.6918C183.306 22.9254 181.567 22.1838 179.789 22.1193C179.327 22.1029 179.089 22.1337 178.769 22.3344C178.149 22.7238 177.776 23.375 177.509 24.0893C176.202 27.5917 178.156 30.7136 179.787 33.6865C183.507 40.4654 187.756 47.0436 192.609 53.0739C193.628 54.3406 194.681 55.5821 195.799 56.7638C196.254 57.2468 196.72 57.7206 197.204 58.1758C196.946 57.9337 197.549 58.4827 197.652 58.5711C197.912 58.7945 198.177 59.0119 198.45 59.22C198.807 59.4911 199.178 59.732 199.558 59.9691C199.952 60.2144 199.138 59.792 199.546 59.9613C199.62 59.9924 199.689 60.0321 199.765 60.0594C199.923 60.1174 200.666 60.4242 199.961 60.1586C200.013 60.178 200.099 60.1799 200.15 60.1862C200.479 60.2253 200.15 60.204 200.149 60.2008C200.124 60.1425 199.829 60.2348 200.134 60.1813C200.454 60.1254 199.799 60.3075 199.706 60.3407C199.348 60.4671 199.634 60.5961 199.576 60.3913C199.572 60.3761 199.751 60.1382 199.777 60.0926C199.553 60.4835 199.809 59.9708 199.824 59.9029C199.919 59.4822 199.821 60.1753 199.868 59.6887C199.928 59.0549 199.926 58.8413 199.755 58.0184C199.605 57.3041 199.311 56.5383 198.955 55.7499C198.12 53.8983 197.018 52.1914 195.815 50.5586C193.027 46.771 189.688 43.2729 186.202 40.1171C183.222 37.4195 179.803 34.5085 175.745 33.6967C173.779 33.3036 171.998 33.8358 171.168 35.806C170.483 37.4295 170.695 39.3709 171.308 40.9784C172.14 43.1573 173.335 45.2656 174.482 47.2929C175.525 49.1356 176.675 50.9114 177.949 52.6044C180.636 56.1766 183.861 59.4596 187.411 62.1884C187.655 62.3749 189.058 63.1398 189.069 63.0013C189.07 62.9829 188.45 63.5998 188.632 63.6137C188.639 63.6144 188.504 62.9519 188.485 62.8796C188.327 62.2766 188.118 61.6823 187.91 61.0947C187.208 59.1054 186.327 57.1457 185.139 55.3949C182.646 51.717 179.158 48.4507 175.642 45.7514C174.01 44.4988 172.037 43.3275 169.884 43.6084C168.217 43.8262 167.137 44.9114 166.815 46.4368C166 50.2947 168.54 54.3956 170.738 57.3129C171.478 58.297 172.276 59.2387 173.126 60.1306C173.493 60.5161 173.86 60.9154 174.261 61.2657C174.289 61.2899 175.335 61.938 175.334 61.9288C175.339 61.9729 174.773 62.3237 174.741 62.3559C174.24 62.8568 174.817 62.8151 174.4 62.3891C174.039 62.02 173.841 61.2938 173.569 60.8452C172.892 59.7282 172.068 58.6888 171.181 57.7319C170.082 56.5475 168.063 54.3393 166.207 54.7608C164.754 55.0908 163.991 57.0129 164.024 58.3674C164.034 58.8228 164.108 59.3015 164.178 59.7531C164.248 60.209 164.307 60.4292 164.373 60.5777C164.718 61.3595 165.14 61.8846 165.666 62.6714C166.284 63.5963 166.306 64.8165 165.379 65.5772C164.581 66.2324 163.084 66.2361 162.461 65.3053L162.461 65.3092Z" fill="#1A5E9D"/>
</svg>
