<svg width="206" height="190" viewBox="0 0 206 190" fill="none" xmlns="http://www.w3.org/2000/svg">
<path d="M159.808 70.4116C160.32 69.8997 160.929 69.4945 161.6 69.2194C162.27 68.9444 162.988 68.8049 163.713 68.8091C164.631 68.744 165.55 68.9293 166.372 69.3455C167.193 69.7616 167.887 70.3929 168.378 71.172C170.033 73.8046 170.158 78.7676 169.234 81.8765C168.58 84.0786 167.498 87.4503 164.677 89.9467C164.056 90.505 163.326 90.9285 162.534 91.1907C161.741 91.4529 160.903 91.548 160.072 91.4701L159.622 91.4123C159.241 92.9124 158.761 94.386 158.187 95.8233C157.131 99.0683 151.071 110.502 143.017 115.256C143.091 117.404 143.365 119.54 143.837 121.636C144.02 122.349 144.343 123.018 144.786 123.606C145.23 124.193 145.785 124.687 146.421 125.058C148.32 126.324 152.135 127.282 155.201 127.815C155.14 127.877 155.11 127.91 155.11 127.91C149.412 134.075 138.709 137.494 127.622 137.954C116.303 138.354 104.309 135.237 99.1195 129.714C101.766 128.929 104.968 128.152 107.156 126.822C108.561 125.805 109.549 124.311 109.935 122.619C110.069 120.584 110.084 118.544 109.981 116.508C106.137 114.581 102.716 111.907 99.918 108.641C96.1239 104.399 93.238 99.4256 91.4379 94.0261C90.5644 94.2457 89.6524 94.2635 88.771 94.0781C87.8896 93.8927 87.062 93.509 86.3509 92.956C83.3456 90.6842 82.0139 87.4052 81.1882 85.2601C80.0283 82.2303 79.7723 77.2723 81.2213 74.5207C81.651 73.7061 82.2937 73.0235 83.0809 72.5456C83.8681 72.0678 84.7702 71.8126 85.691 71.8074C86.413 71.7476 87.1397 71.8315 87.8291 72.0543C88.5185 72.2771 89.1569 72.6343 89.7074 73.1054C89.7074 73.1054 84.9154 35.5704 125.016 35.5704C160.083 35.5704 159.808 70.4116 159.808 70.4116Z" fill="white"/>
<path d="M163.964 41.9871C162.025 36.7467 159 32.1647 154.739 29.0133L149.892 24.3054C144.339 17.5382 135.601 14.09 123.306 14.0228C107.319 14.096 95.8048 21.6967 90.8427 28.5532L91.9551 29.6181C81.4868 39.4362 78.1906 56.4111 84.0532 72.1195C84.584 71.9467 85.1341 71.8407 85.6911 71.804C86.4131 71.7441 87.1398 71.8281 87.8292 72.0508C88.5186 72.2736 89.1569 72.6309 89.7075 73.1019L95.1287 68.1814C99.1527 63.3331 106.302 55.9867 111.404 53.0548C112 52.7145 112.803 53.1143 113.09 54.1256C113.324 54.9154 113.41 55.7415 113.345 56.5625C113.313 56.7953 113.347 57.0323 113.441 57.2473C113.536 57.4623 113.688 57.647 113.881 57.781C114.074 57.9151 114.3 57.9933 114.534 58.007C114.769 58.0207 115.003 57.9694 115.21 57.8588C118.848 55.6473 125.312 51.2388 129.933 49.0792L136.93 49.6669C139.318 50.5493 141.539 51.8303 143.499 53.4554C147.866 56.9317 152.111 61.7672 154.079 66.214L159.808 70.4056C160.321 69.8939 160.931 69.4888 161.601 69.2138C162.271 68.9387 162.989 68.7992 163.713 68.8031C164.343 68.7954 164.97 68.8779 165.576 69.0481C167.403 60.459 167.071 50.3814 163.964 41.9871Z" fill="#1A5E9D"/>
<path d="M55.0293 190C55.8914 185.014 57.0337 165.667 58.5838 159.682C61.3547 152.345 64.542 147.232 69.8026 143.336C76.7763 138.173 84.1139 134.393 98.3639 129.492C103.413 135.758 115.871 139.313 127.611 138.869C139.151 138.356 150.285 134.453 155.93 127.406C164.578 129.421 173.482 131.737 181.167 136.533C184.284 138.335 187.106 140.672 189.52 143.45C191.882 146.284 193.909 149.42 195.555 152.787C199.125 160.023 200.848 181.988 201.983 189.996L55.0293 190Z" fill="#FAFBBB"/>
<path d="M99.4634 129.943C100.283 127.099 101.64 124.437 103.46 122.103C104.922 120.083 106.603 118.232 108.472 116.582C110.619 114.974 113.171 113.995 115.843 113.753C119.829 113.229 123.858 113.109 127.868 113.395C128.696 113.431 129.478 113.784 130.053 114.381C130.627 114.979 130.95 115.774 130.954 116.603C130.913 117.324 130.625 118.009 130.139 118.544C129.652 119.078 128.997 119.429 128.283 119.538C126.454 119.821 123.929 119.902 120.89 120.454C117.412 121.086 117.318 121.409 115.602 123.006L115.443 123.244C118.86 123.174 122.926 123.373 124.731 124.198C125.411 124.506 127.877 125.942 128.489 126.366C131.371 128.359 132.872 129.811 133.768 131.671C134.113 132.701 134.05 133.825 133.59 134.809C133.236 135.53 132.038 136.477 130.151 135.885C130.681 136.364 131.071 136.978 131.28 137.661C131.49 138.344 131.511 139.071 131.342 139.765C131.111 140.515 130.652 141.174 130.029 141.651C129.407 142.128 128.651 142.4 127.867 142.428C128.633 143.152 128.213 145.085 127.618 145.921C126.996 146.796 125.228 146.866 124.302 146.535C123.523 146.216 122.72 145.96 121.9 145.77C121.848 146.037 121.819 146.19 121.819 146.19C121.637 147.137 121.267 149.337 120.963 150.251C120.107 152.917 118.88 155.871 116.441 157.303C115.225 157.866 113.982 158.366 112.715 158.803C111.661 159.297 110.725 161.71 110.164 163.403C110.158 163.42 110.146 163.434 110.13 163.442C110.114 163.45 110.096 163.452 110.079 163.446C104.788 161.708 98.5892 159.585 93.628 157.986C93.547 157.96 93.4722 157.917 93.4079 157.862C93.3436 157.806 93.2913 157.738 93.2539 157.661C93.2165 157.585 93.1949 157.502 93.1904 157.417C93.1858 157.332 93.1984 157.247 93.2275 157.167C94.0413 154.88 94.5702 153.646 95.0737 152.129C95.7795 149.595 96.3473 147.025 96.7744 144.429C97.7762 137.63 98.0849 134.958 98.9778 131.553C99.1402 130.984 99.3009 130.447 99.4634 129.943Z" fill="white"/>
<path d="M85.9534 71.3957C82.0416 60.6419 82.0654 48.1997 87.8591 38.1026C89.3512 35.4981 91.2176 33.1269 93.3986 31.0649C95.3102 29.2549 92.4206 26.3715 90.5123 28.1781C81.602 36.6192 78.0286 49.4424 79.4267 61.4465C79.8571 65.2132 80.7267 68.9165 82.0178 72.481C82.1736 72.9953 82.521 73.4301 82.9882 73.6954C83.4555 73.9608 84.0068 74.0364 84.5282 73.9066C85.0476 73.7588 85.4881 73.4127 85.7548 72.943C86.0214 72.4733 86.0927 71.9176 85.9534 71.3957Z" fill="#1A5E9D"/>
<path d="M153.711 30.7792C162.249 37.1772 164.838 49.1737 164.641 59.2666C164.587 62.3061 164.255 65.3343 163.65 68.3133C163.519 68.835 163.594 69.3869 163.86 69.8544C164.125 70.322 164.561 70.6693 165.076 70.8242C165.597 70.9631 166.153 70.8915 166.622 70.6249C167.092 70.3583 167.438 69.9179 167.586 69.3987C169.937 57.9159 169.04 44.5407 162.522 34.4877C160.718 31.696 158.432 29.2478 155.771 27.2579C155.303 26.9879 154.747 26.9134 154.224 27.0504C153.702 27.1875 153.254 27.5252 152.979 27.9902C152.718 28.4604 152.649 29.0131 152.785 29.5333C152.922 30.0534 153.253 30.5009 153.711 30.7826V30.7792Z" fill="#1A5E9D"/>
<path d="M91.1525 71.6619C89.9545 70.6504 88.4863 70.0123 86.9295 69.8267C85.3727 69.641 83.7957 69.9159 82.3935 70.6174C81.3653 71.1851 80.4811 71.9813 79.8091 72.9447C79.1371 73.9081 78.6952 75.013 78.5174 76.1742C78.0436 78.8402 78.1198 81.575 78.7414 84.2105C79.3629 86.846 80.5166 89.3266 82.1316 91.4998C84.4327 94.5874 87.6106 96.7734 91.604 96.0929C92.1236 95.9453 92.5643 95.5993 92.8309 95.1295C93.0976 94.6597 93.1689 94.1039 93.0293 93.582C92.8752 93.0666 92.5281 92.6306 92.0604 92.3648C91.5927 92.0991 91.0405 92.0241 90.5189 92.1556C87.9567 92.5954 85.8588 89.9628 84.715 88.0329C83.5024 86.0631 82.7081 83.8646 82.3816 81.5745C82.1265 79.5076 82.0737 76.8963 83.2575 75.0931C83.5177 74.6976 83.1809 75.1501 83.4565 74.8507C83.4896 74.8141 83.8817 74.4484 83.6997 74.5955C84.1012 74.288 84.5659 74.0733 85.0603 73.967C85.6044 73.8116 86.1771 73.7837 86.7337 73.8857C87.2903 73.9876 87.8159 74.2166 88.2697 74.5547C88.6595 74.9239 89.1759 75.1297 89.7128 75.1297C90.2496 75.1297 90.7661 74.9239 91.1559 74.5547C91.5349 74.1699 91.7474 73.6514 91.7474 73.1113C91.7474 72.5711 91.5349 72.0526 91.1559 71.6679L91.1525 71.6619Z" fill="#1A5E9D"/>
<path d="M161.255 71.8549C161.677 71.4522 162.189 71.1548 162.748 70.9871C163.306 70.8193 163.897 70.7859 164.471 70.8895C164.89 70.929 165.295 71.0586 165.659 71.2695C166.023 71.4803 166.337 71.7673 166.58 72.111C166.379 71.8558 166.533 72.0421 166.619 72.202C166.744 72.4316 166.885 72.646 166.993 72.8824C167.217 73.4254 167.386 73.9896 167.497 74.5666C167.751 75.8295 167.837 77.1206 167.752 78.406C167.603 80.6213 167.012 82.7843 166.014 84.7675C164.859 87.1142 162.99 89.7008 160.08 89.4252C159.54 89.429 159.023 89.6453 158.641 90.0273C158.259 90.4093 158.043 90.9264 158.039 91.4666C158.05 92.0045 158.269 92.5173 158.649 92.8978C159.029 93.2783 159.542 93.4969 160.08 93.508C166.342 94.0932 169.909 87.269 171.283 82.1596C171.996 79.3683 172.059 76.4505 171.467 73.6309C171.293 72.467 170.881 71.3513 170.258 70.3532C169.634 69.355 168.812 68.4956 167.843 67.8283C166.353 66.9695 164.626 66.6162 162.919 66.821C161.212 67.0258 159.617 67.7779 158.372 68.9647C156.482 70.796 159.37 73.682 161.258 71.8515L161.255 71.8549Z" fill="#1A5E9D"/>
<path d="M158.22 88.2702C157.952 89.8045 157.579 91.3186 157.104 92.802C156.736 93.98 156.424 94.7762 156.105 95.6191C156.056 95.7475 156.006 95.8743 155.958 96.0053C155.813 96.3923 155.95 96.0325 155.929 96.0801C155.768 96.4433 155.605 96.8057 155.434 97.1637C155.039 97.9871 154.614 98.7951 154.17 99.593C151.865 103.904 148.85 107.795 145.251 111.103C143.33 112.894 141.025 114.222 138.512 114.986C135.981 115.676 137.055 119.616 139.597 118.922C144.93 117.467 149.245 113.443 152.608 109.216C155.553 105.613 157.973 101.612 159.797 97.3313C159.915 97.043 160.028 96.7521 160.13 96.4578C159.925 97.0532 160.35 95.9023 160.421 95.7127C160.544 95.3903 160.657 95.0645 160.766 94.7379C161.372 92.9834 161.838 91.1836 162.159 89.3555C162.286 88.834 162.21 88.2833 161.945 87.8164C161.679 87.3496 161.246 87.0018 160.732 86.8446C160.21 86.7045 159.654 86.7755 159.184 87.0423C158.714 87.309 158.368 87.7501 158.22 88.2702Z" fill="#1A5E9D"/>
<path d="M88.6703 91.9072C91.4681 102.392 98.3435 112.692 108.096 117.845C110.416 119.071 112.482 115.548 110.155 114.319C101.298 109.641 95.146 100.34 92.6059 90.8219C91.9256 88.2855 87.9909 89.3615 88.6703 91.9072Z" fill="#1A5E9D"/>
<path d="M122.815 101.459C123.07 101.313 123.319 101.17 123.58 101.04C123.741 100.981 123.896 100.908 124.045 100.823C123.717 101.078 123.746 100.946 123.989 100.854C124.088 100.816 124.188 100.781 124.288 100.747C124.785 100.578 125.293 100.445 125.809 100.347C125.979 100.314 126.155 100.286 126.329 100.262C126.021 100.313 126.281 100.268 126.446 100.25C126.83 100.209 127.215 100.181 127.6 100.165C128.297 100.135 128.995 100.154 129.69 100.223C129.916 100.246 130.03 100.277 129.736 100.223C129.89 100.251 130.045 100.274 130.2 100.308C130.432 100.354 130.662 100.409 130.891 100.473C131.12 100.536 131.325 100.608 131.54 100.683C131.919 100.815 131.428 100.683 131.408 100.622C131.495 100.67 131.585 100.712 131.679 100.747C131.936 100.875 132.183 101.023 132.417 101.191C132.885 101.461 133.441 101.537 133.964 101.399C134.487 101.262 134.935 100.924 135.209 100.458C135.468 99.9874 135.536 99.4352 135.4 98.9156C135.264 98.3959 134.934 97.9483 134.477 97.6649C132.56 96.2853 129.885 95.9978 127.6 96.0837C125.2 96.1263 122.849 96.7631 120.755 97.9371C120.524 98.0724 120.321 98.252 120.159 98.4656C119.997 98.6792 119.879 98.9227 119.811 99.1821C119.743 99.4415 119.727 99.7117 119.763 99.9773C119.799 100.243 119.888 100.499 120.023 100.73C120.158 100.962 120.338 101.164 120.552 101.327C120.765 101.489 121.009 101.607 121.268 101.675C121.527 101.743 121.797 101.759 122.063 101.723C122.329 101.686 122.584 101.598 122.816 101.463L122.815 101.459Z" fill="#1A5E9D"/>
<path d="M125.981 83.6652C126.155 84.2402 126.321 84.8195 126.471 85.3996C126.65 86.007 126.792 86.6248 126.896 87.2495L126.823 86.7069C126.838 86.8308 126.84 86.9559 126.831 87.0803L126.903 86.5376C126.893 86.6137 126.874 86.6884 126.848 86.7605L127.053 86.2731C127.03 86.3232 127.002 86.3708 126.968 86.4151L127.288 86.0018C127.264 86.0306 127.238 86.0568 127.208 86.08L127.621 85.761C127.513 85.8343 127.399 85.8981 127.281 85.9516L127.768 85.7457C127.625 85.8069 127.474 85.8503 127.321 85.875L127.863 85.8027C127.706 85.8214 127.547 85.8214 127.389 85.8027L127.932 85.8759C127.619 85.8333 127.309 85.7772 126.997 85.7474C126.728 85.7468 126.462 85.799 126.214 85.9012C125.966 86.0033 125.741 86.1534 125.551 86.3428C125.168 86.7257 124.953 87.2449 124.953 87.7863C124.953 88.3276 125.168 88.8468 125.551 89.2297C125.949 89.5898 126.46 89.8003 126.997 89.8251L127.082 89.8336L126.539 89.7613C126.921 89.8382 127.309 89.884 127.699 89.8982C128.325 89.8785 128.937 89.71 129.485 89.4066C129.819 89.2317 130.113 88.9872 130.345 88.6895C130.578 88.3918 130.744 88.0479 130.833 87.6808C130.949 87.0649 130.928 86.4307 130.771 85.824C130.541 84.7301 130.244 83.6482 129.92 82.579C129.771 82.0704 129.437 81.6356 128.985 81.3593C128.634 81.1544 128.231 81.0586 127.826 81.0843C127.421 81.1099 127.032 81.2557 126.711 81.5032C126.389 81.7506 126.148 82.0884 126.019 82.4734C125.89 82.8584 125.879 83.273 125.987 83.6644L125.981 83.6652Z" fill="#1A5E9D"/>
<path d="M107.491 74.5232C106.981 76.4319 107.529 80.7571 111.116 80.9876C115.837 80.7775 115.887 75.521 114.203 73.1155C112.823 71.1473 108.964 70.4541 107.491 74.5232Z" fill="#1A5E9D"/>
<path d="M145.312 73.0703C145.965 74.934 145.753 79.2889 142.194 79.795C137.47 79.9481 137.018 74.7111 138.513 72.1832C139.736 70.1129 143.532 69.1262 145.312 73.0703Z" fill="#1A5E9D"/>
<path d="M106.554 63.1546C106.226 63.5007 105.869 63.8177 105.487 64.1021L105.899 63.7823C105.052 64.4774 104.12 65.0635 103.127 65.5268L103.615 65.321C103.52 65.3618 103.422 65.3967 103.323 65.4256C102.813 65.5734 102.378 65.9074 102.103 66.3612C101.83 66.8287 101.754 67.3854 101.891 67.9091C102.028 68.4328 102.368 68.8805 102.835 69.1537C103.313 69.4239 103.877 69.4978 104.408 69.3595C104.887 69.2103 105.348 69.0078 105.782 68.7556C106.202 68.5243 106.608 68.2665 107.004 67.9977C107.538 67.6354 108.053 67.245 108.557 66.841C108.873 66.5981 109.168 66.3299 109.44 66.0389C109.813 65.6488 110.026 65.1326 110.036 64.5929C110.033 64.0517 109.82 63.5328 109.44 63.1469C109.058 62.7641 108.538 62.5491 107.997 62.5491C107.456 62.5491 106.937 62.7641 106.554 63.1469V63.1546Z" fill="#1A5E9D"/>
<path d="M99.0436 127.603C98.3003 127.828 97.5563 128.051 96.8241 128.309C96.3219 128.471 95.891 128.802 95.6046 129.245C95.4573 129.472 95.3736 129.734 95.3622 130.004C95.3012 130.274 95.3138 130.555 95.3988 130.818C95.5422 131.33 95.8772 131.767 96.3342 132.038C96.569 132.177 96.8292 132.266 97.0994 132.302C97.3696 132.337 97.6442 132.317 97.9066 132.244C98.6388 131.989 99.3829 131.762 100.126 131.538C100.635 131.388 101.069 131.055 101.346 130.602C101.493 130.376 101.577 130.114 101.588 129.844C101.649 129.574 101.636 129.293 101.551 129.03C101.408 128.518 101.073 128.081 100.616 127.809C100.139 127.537 99.5744 127.463 99.0436 127.603Z" fill="#1A5E9D"/>
<path d="M155.718 125.841C154.126 125.569 152.55 125.21 150.998 124.766C150.247 124.546 149.509 124.296 148.782 124.01C149.108 124.138 148.782 124.01 148.645 123.946C148.508 123.882 148.354 123.809 148.212 123.736C147.951 123.603 147.697 123.456 147.453 123.295C147.315 123.204 147.181 123.107 147.048 123.01C147.424 123.284 146.983 122.942 146.936 122.9C146.806 122.786 146.681 122.666 146.562 122.541C146.528 122.506 146.158 122.07 146.428 122.421C146.321 122.279 146.222 122.131 146.132 121.978C146.11 121.939 145.851 121.419 146.02 121.815C145.881 121.443 145.777 121.059 145.709 120.668C145.618 120.252 145.536 119.834 145.464 119.415C145.429 119.208 145.397 119.001 145.364 118.794C145.342 118.698 145.329 118.601 145.325 118.503C145.218 117.552 145.139 116.6 145.082 115.645C145.082 115.104 144.867 114.584 144.484 114.202C144.101 113.819 143.582 113.604 143.041 113.604C142.5 113.604 141.981 113.819 141.598 114.202C141.215 114.584 141 115.104 141 115.645C141.098 117.698 141.357 119.74 141.773 121.753C142.2 123.697 143.349 125.406 144.988 126.534C146.351 127.452 147.857 128.137 149.444 128.561C151.146 129.075 152.879 129.481 154.632 129.777C155.153 129.909 155.705 129.834 156.173 129.568C156.64 129.303 156.988 128.867 157.142 128.352C157.279 127.83 157.207 127.275 156.941 126.806C156.674 126.336 156.235 125.99 155.717 125.84L155.718 125.841Z" fill="#1A5E9D"/>
<path d="M136.388 51.6385C139.742 53.0849 142.78 55.175 145.33 57.7907C148.23 60.4786 150.6 63.6869 152.318 67.2491C152.594 67.7137 153.041 68.0511 153.564 68.1882C154.086 68.3252 154.642 68.2509 155.11 67.9814C155.568 67.6995 155.899 67.252 156.035 66.732C156.172 66.2119 156.103 65.6593 155.842 65.189C153.912 61.226 151.25 57.6641 147.996 54.6912C146.353 53.0932 144.579 51.6362 142.692 50.3354C141.056 49.2647 139.305 48.3803 137.473 47.6986C136.95 47.5589 136.393 47.6309 135.923 47.8993C135.453 48.1676 135.107 48.6105 134.962 49.1319C134.83 49.6535 134.905 50.2057 135.171 50.6735C135.437 51.1412 135.872 51.4884 136.388 51.6427V51.6385Z" fill="#1A5E9D"/>
<path d="M96.5751 69.6307C100.508 64.7055 105.019 60.2719 110.011 56.4255C110.559 56.0249 111.117 55.6371 111.692 55.2756C111.862 55.1684 112.318 54.9957 112.439 54.823C113.34 53.5395 110.897 55.3462 111.105 54.6291C111.072 54.7414 111.226 55.0434 111.255 55.1982C111.39 55.9279 111.225 56.6705 111.387 57.3969C111.487 57.8629 111.682 58.3032 111.96 58.6903C112.238 59.0774 112.593 59.403 113.003 59.6467C114.648 60.5874 116.103 59.7317 117.51 58.8471C118.774 58.0544 120.028 57.2472 121.288 56.4485C124.398 54.3844 127.632 52.5139 130.972 50.8475C131.435 50.5708 131.772 50.1231 131.909 49.6006C132.046 49.0782 131.972 48.5228 131.704 48.0542C131.422 47.5958 130.975 47.2638 130.454 47.1274C129.934 46.9909 129.381 47.0606 128.911 47.3218C125.958 48.7836 123.094 50.4204 120.336 52.2237C118.975 53.0794 117.621 53.9487 116.262 54.8094C115.706 55.1616 115.15 55.5129 114.59 55.8573C114.54 55.8871 114.187 56.0955 114.189 56.1023C114.52 56.1159 114.85 56.1569 115.174 56.2248C115.429 56.3362 115.232 56.6773 115.403 56.434C115.488 56.3065 115.417 55.9109 115.41 55.7425C115.333 53.9563 114.807 51.8546 112.97 51.1324C111.329 50.4868 109.938 51.5101 108.64 52.4083C105.948 54.333 103.417 56.4727 101.071 58.8063C98.4749 61.3186 96.0138 63.9671 93.6982 66.7404C93.3289 67.1302 93.123 67.6468 93.123 68.1839C93.123 68.7209 93.3289 69.2375 93.6982 69.6273C94.0834 70.0075 94.6028 70.2207 95.1439 70.2207C95.6851 70.2207 96.2044 70.0075 96.5896 69.6273L96.5751 69.6307Z" fill="#1A5E9D"/>
<path d="M92.6068 29.5866C93.5135 28.4056 94.5118 27.2978 95.5925 26.2736C96.8632 25.0742 98.2317 23.9828 99.6837 23.0108C103.126 20.7122 106.904 18.9619 110.883 17.8223C119.72 15.263 129.947 15.2621 138.587 18.6219C142.429 20.1175 145.825 22.5716 148.451 25.7505C148.836 26.1296 149.354 26.3421 149.894 26.3421C150.434 26.3421 150.953 26.1296 151.337 25.7505C151.709 25.3621 151.917 24.845 151.917 24.3071C151.917 23.7692 151.709 23.2521 151.337 22.8637C145.459 15.7759 136.507 12.8354 127.582 12.1533C117.531 11.3877 107.129 13.4682 98.5442 18.8847C94.8741 21.1429 91.6644 24.0754 89.0845 27.5274C88.815 27.9956 88.7407 28.5512 88.8778 29.0738C89.0148 29.5965 89.3521 30.0441 89.8167 30.3198C90.2867 30.5812 90.8394 30.651 91.3596 30.5145C91.8798 30.3781 92.3272 30.0459 92.6085 29.5875L92.6068 29.5866Z" fill="#1A5E9D"/>
<path d="M57.9973 187.416C58.4417 184.825 58.9406 171.393 59.4939 168.824C60.0303 165.96 60.7002 163.127 61.5009 160.338C62.8561 156.135 64.9791 152.274 67.7419 148.987C70.2315 146.282 73.067 143.981 76.1607 142.156C79.1365 140.266 82.2233 138.591 85.4011 137.141C90.267 134.9 95.2919 133.065 100.325 131.325C102.819 130.463 101.753 126.174 99.2395 127.043C90.9167 129.921 82.5404 133.079 74.9268 137.802C71.6688 139.698 68.6343 142.018 65.8897 144.709C62.7366 148.141 60.2336 152.213 58.5228 156.694C57.3748 159.789 56.4842 162.99 55.8619 166.258C55.1884 169.28 54.5883 183.174 54.0617 186.235C53.9323 186.802 54.0081 187.402 54.2733 187.91C54.5385 188.418 54.9729 188.796 55.4869 188.966C56.0086 189.117 56.564 189.039 57.0335 188.749C57.5031 188.459 57.8491 187.98 57.9973 187.416Z" fill="#1A5E9D"/>
<path d="M152.785 129.23C161.66 131.303 170.778 133.381 178.775 138.242C182.529 140.411 185.86 143.348 188.584 146.892C191.402 150.734 193.636 155.039 195.201 159.646C197.01 165.139 201.273 181.643 202 187.422C202.147 187.987 202.493 188.465 202.963 188.754C203.433 189.044 203.99 189.121 204.512 188.969C205.026 188.8 205.461 188.423 205.727 187.916C205.992 187.409 206.067 186.811 205.937 186.245C204.444 175.695 198.775 154.335 192.821 145.651C190.089 141.622 186.655 138.212 182.714 135.615C178.585 132.933 174.177 130.791 169.584 129.235C164.439 127.437 159.149 126.191 153.87 124.96C151.309 124.362 150.213 128.63 152.785 129.23Z" fill="#1A5E9D"/>
<path d="M131.303 139.728C140.279 138.793 150.165 136.156 156.548 129.351C158.344 127.436 155.463 124.543 153.662 126.464C148.049 132.452 139.205 134.821 131.303 135.65C130.766 135.665 130.255 135.885 129.876 136.265C129.496 136.644 129.276 137.155 129.262 137.692C129.266 138.232 129.482 138.749 129.864 139.131C130.246 139.513 130.763 139.729 131.303 139.733V139.728Z" fill="#1A5E9D"/>
<path d="M111.365 125.52C113.749 125.278 116.147 125.204 118.541 125.299C119.713 125.32 120.882 125.415 122.043 125.582C122.546 125.667 123.033 125.789 123.527 125.916C123.645 125.952 123.762 125.992 123.878 126.034C123.669 125.94 123.647 125.932 123.813 126.009C123.996 126.094 124.175 126.195 124.353 126.292C126.572 127.398 128.619 128.818 130.433 130.509C131.067 131.143 131.939 132.04 131.956 132.925C131.952 133.207 131.908 133.487 131.823 133.756C131.715 134.154 131.945 133.684 131.784 133.863C131.744 133.916 131.687 133.955 131.622 133.973C131.388 134.039 131.14 134.039 130.905 133.973C128.344 133.418 127.249 137.353 129.819 137.911C133.125 138.628 135.708 136.749 136.013 133.396C136.268 130.549 134.107 128.166 132.049 126.488C130.186 124.956 128.158 123.635 126.004 122.549C123.914 121.674 121.669 121.233 119.404 121.254C116.724 121.101 114.036 121.163 111.365 121.438C110.829 121.453 110.318 121.672 109.939 122.052C109.559 122.432 109.339 122.942 109.324 123.479C109.328 124.019 109.544 124.536 109.926 124.918C110.308 125.3 110.825 125.517 111.365 125.52Z" fill="#1A5E9D"/>
<path d="M116.279 132.548C118.272 132.524 120.251 132.875 122.113 133.583C122.047 133.557 122.822 133.872 122.481 133.727C122.684 133.812 122.884 133.903 123.084 133.995C123.504 134.187 123.92 134.385 124.333 134.591C125.2 135.029 126.053 135.497 126.884 136.007C127.245 136.23 127.603 136.461 127.952 136.704C128.008 136.744 128.451 137.069 128.284 136.941C128.118 136.812 128.506 137.126 128.548 137.163C128.799 137.361 129.011 137.605 129.174 137.881C129.296 138.091 129.378 138.321 129.415 138.561C129.424 138.665 129.41 139.151 129.422 139.056C129.449 138.854 129.323 139.396 129.327 139.418C129.279 139.557 129.302 139.508 129.396 139.27C129.363 139.341 129.326 139.411 129.286 139.478C129.252 139.526 128.956 139.937 129.116 139.751C129.276 139.565 128.892 139.956 128.844 139.999C128.738 140.089 128.752 140.08 128.884 139.971C128.799 140.027 128.719 140.079 128.629 140.128C128.393 140.251 128.139 140.337 127.877 140.383C127.34 140.398 126.83 140.617 126.45 140.997C126.07 141.377 125.851 141.888 125.836 142.424C125.84 142.965 126.056 143.482 126.438 143.864C126.82 144.246 127.337 144.462 127.877 144.466C130.319 144.223 132.671 142.816 133.32 140.304C134.058 137.443 132.554 135.041 130.329 133.414C126.277 130.339 121.366 128.61 116.282 128.467C113.655 128.455 113.652 132.537 116.282 132.55L116.279 132.548Z" fill="#1A5E9D"/>
<path d="M117.639 140.039C117.715 140.049 118.043 140.091 117.655 140.039L117.931 140.079C118.143 140.11 118.356 140.144 118.566 140.181C119.014 140.258 119.458 140.351 119.899 140.454C120.309 140.554 120.715 140.668 121.117 140.795C121.32 140.86 121.522 140.93 121.721 141.004C121.806 141.035 121.891 141.069 121.976 141.103C122.111 141.155 122.356 141.268 122.091 141.148C123.527 141.827 124.882 142.664 126.133 143.642C126.17 143.67 126.487 143.911 126.315 143.78C126.158 143.659 126.423 143.865 126.426 143.865C126.506 143.9 126.733 144.331 126.296 143.695C126.331 143.746 126.43 143.95 126.283 143.647C126.136 143.343 126.246 143.574 126.261 143.671C126.295 143.884 126.239 143.412 126.232 143.424C126.208 143.593 126.208 143.765 126.232 143.934C126.232 144.24 126.153 143.825 126.257 143.785C126.239 143.85 126.226 143.915 126.219 143.982C126.178 144.13 126.148 144.28 126.102 144.427C126.082 144.488 126.053 144.549 126.039 144.61C125.978 144.865 126.242 144.256 126.102 144.462C126.042 144.553 125.787 144.957 126.012 144.684C126.217 144.437 126.081 144.599 126.033 144.646C125.798 144.886 126.147 144.529 126.176 144.54C126.122 144.564 126.07 144.592 126.021 144.625C125.798 144.746 126.423 144.524 126.167 144.563C126.024 144.585 125.869 144.643 125.729 144.676C125.67 144.69 125.431 144.732 125.738 144.676C126.078 144.615 125.666 144.668 125.612 144.669C125.462 144.669 125.303 144.644 125.156 144.656C124.949 144.673 125.371 144.685 125.388 144.694C125.312 144.672 125.234 144.657 125.156 144.65C124.905 144.584 124.659 144.502 124.419 144.403C123.467 144.029 122.47 143.778 121.454 143.655C120.344 143.571 119.238 143.862 118.313 144.48C117.845 144.753 117.506 145.201 117.368 145.725C117.231 146.249 117.307 146.806 117.58 147.273C117.853 147.741 118.301 148.08 118.825 148.218C119.348 148.355 119.905 148.279 120.372 148.006C120.464 147.949 120.56 147.897 120.651 147.836C120.977 147.63 120.658 147.799 120.606 147.836C120.793 147.762 120.986 147.705 121.183 147.666C121.205 147.74 120.654 147.633 121.013 147.704C121.12 147.724 121.257 147.72 121.363 147.729C121.278 147.722 120.963 147.649 121.344 147.736C121.486 147.769 121.63 147.797 121.77 147.832C122.519 148.019 123.215 148.363 123.956 148.562C125.863 149.072 128.271 148.647 129.406 146.905C130.367 145.431 130.733 143.094 129.76 141.547C129.349 141.002 128.843 140.536 128.265 140.174C127.852 139.862 127.435 139.555 127.009 139.261C126.291 138.759 125.539 138.307 124.758 137.909C122.513 136.85 120.102 136.188 117.631 135.952C117.089 135.952 116.57 136.167 116.188 136.55C115.805 136.933 115.59 137.452 115.59 137.994C115.605 138.53 115.825 139.04 116.205 139.42C116.584 139.799 117.094 140.02 117.631 140.035L117.639 140.039Z" fill="#1A5E9D"/>
<path d="M119.856 145.65C119.24 148.821 118.693 152.636 116.194 154.956C114.711 156.335 112.438 156.242 110.944 157.579C109.484 158.887 108.8 161.066 108.198 162.865L109.133 161.645L109.048 161.687L110.62 161.482C107.833 160.564 105.051 159.629 102.269 158.698C100.904 158.241 99.5389 157.785 98.1731 157.332C97.4928 157.106 96.8094 156.88 96.1228 156.657C95.5423 156.524 94.9754 156.338 94.4297 156.099L95.1619 156.831L95.1551 156.879V157.964C95.3668 156.442 96.2666 154.866 96.7819 153.411C97.2445 152.108 97.5413 150.726 97.8712 149.383C98.7216 145.94 99.1026 142.408 99.629 138.907C100.479 133.278 101.706 127.759 105.224 123.134C105.494 122.666 105.568 122.11 105.431 121.587C105.294 121.064 104.956 120.617 104.492 120.341C104.021 120.081 103.469 120.012 102.949 120.148C102.429 120.284 101.982 120.616 101.7 121.073C98.6511 125.08 97.0625 129.903 96.1807 134.814C95.2452 140.017 94.7231 145.239 93.4041 150.37C93.1119 151.495 92.7582 152.602 92.3446 153.688C91.87 154.946 90.8938 156.601 91.2195 157.967C91.654 159.789 93.5079 160.093 95.0377 160.597C96.548 161.091 98.0566 161.591 99.5635 162.096C102.603 163.109 105.64 164.137 108.682 165.14C109.062 165.335 109.482 165.441 109.909 165.451C110.336 165.46 110.76 165.372 111.148 165.194C111.985 164.711 112.169 163.796 112.477 162.957C112.667 162.428 112.894 161.914 113.157 161.417C113.29 161.096 113.491 160.808 113.745 160.571C114.559 160.216 115.394 159.909 116.244 159.651C117.023 159.334 117.755 158.912 118.42 158.396C119.65 157.399 120.65 156.148 121.353 154.729C122.548 152.197 123.369 149.505 123.79 146.738C123.92 146.216 123.844 145.665 123.579 145.197C123.314 144.73 122.879 144.382 122.365 144.226C121.843 144.087 121.288 144.159 120.818 144.426C120.349 144.692 120.003 145.133 119.855 145.652L119.856 145.65Z" fill="#1A5E9D"/>
<path d="M117.05 124.449C117.292 124.224 117.53 123.995 117.773 123.769C117.85 123.698 118.481 123.179 118.084 123.469C118.257 123.346 118.437 123.232 118.622 123.128C118.93 122.948 118.682 123.083 118.603 123.117C118.788 123.042 118.978 122.977 119.17 122.923C121.036 122.418 122.946 122.093 124.874 121.954C126.63 121.774 128.667 121.839 130.258 120.986C131.154 120.519 131.89 119.794 132.37 118.904C132.849 118.014 133.049 117 132.945 115.995C132.826 114.995 132.422 114.051 131.781 113.276C131.14 112.5 130.289 111.925 129.331 111.62C127.716 111.24 126.054 111.1 124.398 111.204C120.243 111.146 115.662 111.257 111.7 112.603C107.334 114.088 104.392 117.477 101.698 121.073C101.428 121.541 101.354 122.097 101.491 122.62C101.628 123.142 101.966 123.59 102.43 123.866C102.9 124.126 103.453 124.196 103.973 124.059C104.493 123.923 104.94 123.591 105.222 123.133C107.008 120.745 109.13 118.076 111.932 116.862C115.144 115.471 118.946 115.369 122.396 115.295C123.865 115.262 125.336 115.295 126.802 115.369C127.642 115.415 128.598 115.314 128.869 116.257C129.156 117.254 128.064 117.527 127.357 117.618C125.623 117.84 123.88 117.959 122.147 118.201C120.423 118.361 118.728 118.749 117.105 119.354C116.002 119.912 115.005 120.661 114.161 121.565C112.238 123.363 115.128 126.243 117.047 124.452L117.05 124.449Z" fill="#1A5E9D"/>
<path d="M56.0602 66.8299C56.7132 65.8536 57.4785 64.8843 57.937 63.7966C58.4634 62.5464 58.6161 61.0923 58.6172 59.7482C58.6204 57.2252 57.3865 54.5647 55.2324 53.1561C49.5413 49.4353 43.6065 56.4777 41.0663 60.843C40.2961 62.1658 39.4483 63.7192 39.9435 65.2919C40.4505 66.9037 41.9958 67.7511 43.6453 67.5574C44.906 67.409 46.0527 66.7241 46.9671 65.8874C48.2478 64.7148 49.4379 63.4482 50.5144 62.0864C53.6229 58.1569 56.8009 52.7709 55.829 47.5234C55.344 44.9081 53.7789 42.5878 51.2313 41.5715C48.3806 40.4347 45.2634 41.0446 42.6564 42.4697C40.0837 43.8773 37.9271 46.0186 35.8005 48.0021C33.8918 49.782 32.0497 51.6481 30.5311 53.7756C28.8889 56.0755 27.6162 58.5971 26.7045 61.2689C26.2698 62.5404 25.6816 63.9625 25.7717 65.3313C25.8793 66.9762 27.1419 68.3304 28.7716 68.5851C31.7102 69.0452 34.1213 66.6526 36.1088 64.8977C38.1861 63.0625 40.1753 61.1238 41.9735 59.0151C45.5779 54.788 48.5557 49.8281 50.7779 44.7428C52.9224 39.8354 52.0161 32.759 45.9932 31.1593C43.4637 30.4879 40.4848 31.3177 38.183 32.408C35.7048 33.5812 33.4675 35.2235 31.3801 36.9818C27.0262 40.6487 22.8777 44.8639 19.5024 49.4466C16.9564 52.9022 13.4663 57.9614 14.7283 62.5332C15.2212 64.3184 16.5903 65.8915 18.5609 65.8226C19.7639 65.7801 20.8823 65.2049 21.8628 64.5549C24.8046 62.6039 27.1916 59.6473 29.3664 56.9194C32.2783 53.2662 34.9343 49.4062 37.4349 45.4635C39.9617 41.4817 42.4627 37.4028 44.4943 33.1412C46.4313 29.0782 46.0064 22.2255 41.3683 20.0522C39.3007 19.0831 36.8534 19.5927 34.7896 20.2719C32.4379 21.0463 30.1493 22.2573 28.1519 23.7087C25.6662 25.5146 23.4096 27.7523 21.219 29.8935C19.0084 32.0539 16.9083 34.3334 15.0288 36.7869C13.212 39.1592 11.6051 41.6998 10.2768 44.3753C9.09658 46.7539 12.8862 48.4443 14.0647 46.0696C16.2889 41.5893 19.4059 37.6599 22.8793 34.077C26.048 30.8086 29.4916 27.2351 33.6428 25.2125C35.2152 24.4461 36.9546 23.7046 38.7329 23.64C39.1948 23.6236 39.432 23.6545 39.7523 23.8551C40.3726 24.2446 40.7451 24.8957 41.0126 25.6101C42.3196 29.1124 40.3653 32.2343 38.7343 35.2073C35.0143 41.9862 30.7657 48.5644 25.9128 54.5947C24.893 55.8614 23.8401 57.1028 22.723 58.2846C22.2672 58.7676 21.8013 59.2413 21.3171 59.6966C21.5752 59.4544 20.9724 60.0034 20.8693 60.0919C20.6093 60.3152 20.3443 60.5326 20.0712 60.7407C19.714 61.0119 19.3438 61.2528 18.963 61.4899C18.5691 61.7352 19.3833 61.3128 18.9751 61.4821C18.9015 61.5131 18.8326 61.5529 18.7569 61.5802C18.5983 61.6382 17.8558 61.9449 18.56 61.6794C18.5087 61.6987 18.4226 61.7007 18.3715 61.707C18.0423 61.7461 18.3711 61.7247 18.3725 61.7216C18.3977 61.6632 18.6926 61.7556 18.3879 61.7021C18.0672 61.6462 18.7225 61.8283 18.8157 61.8615C19.1739 61.9879 18.888 62.1168 18.9455 61.912C18.9495 61.8969 18.7709 61.6589 18.7449 61.6134C18.9687 62.0042 18.7123 61.4915 18.6972 61.4236C18.6023 61.0029 18.7003 61.696 18.6538 61.2095C18.5937 60.5757 18.5956 60.362 18.7669 59.5391C18.9161 58.8249 19.2106 58.059 19.5663 57.2706C20.4017 55.419 21.5039 53.7121 22.7064 52.0793C25.4947 48.2917 28.8335 44.7936 32.3193 41.6379C35.2999 38.9402 38.7187 36.0293 42.7769 35.2175C44.742 34.8243 46.5231 35.3566 47.3537 37.3267C48.0383 38.9502 47.8266 40.8917 47.2132 42.4991C46.3818 44.6781 45.1862 46.7863 44.0392 48.8137C42.9966 50.6563 41.8465 52.4321 40.5725 54.1252C37.8853 57.6974 34.6608 60.9803 31.1104 63.7091C30.8668 63.8957 29.4636 64.6606 29.4527 64.5221C29.4515 64.5036 30.0713 65.1206 29.8899 65.1345C29.883 65.1351 30.0175 64.4727 30.0367 64.4003C30.1948 63.7974 30.4039 63.2031 30.6111 62.6155C31.313 60.6261 32.1949 58.6664 33.3821 56.9157C35.875 53.2378 39.3639 49.9715 42.8794 47.2722C44.5113 46.0196 46.4847 44.8483 48.6378 45.1292C50.3048 45.347 51.3847 46.4322 51.7069 47.9576C52.5213 51.8154 49.981 55.9163 47.7839 58.8337C47.0432 59.8177 46.2457 60.7595 45.3956 61.6514C45.0289 62.0368 44.6617 62.4362 44.2606 62.7865C44.2327 62.8107 43.1868 63.4588 43.1871 63.4495C43.1825 63.4936 43.7482 63.8445 43.7802 63.8767C44.2815 64.3775 43.7044 64.3358 44.1215 63.9098C44.4827 63.5407 44.6808 62.8145 44.9527 62.3659C45.6298 61.2489 46.453 60.2096 47.3407 59.2526C48.4391 58.0682 50.4589 55.8601 52.3142 56.2816C53.7672 56.6116 54.5303 58.5336 54.4979 59.8882C54.4873 60.3435 54.4132 60.8223 54.3437 61.2738C54.2732 61.7297 54.2144 61.9499 54.1489 62.0984C53.8037 62.8802 53.3811 63.4054 52.8556 64.1922C52.2371 65.117 52.2156 66.3372 53.1424 67.098C53.9402 67.7531 55.4379 67.7569 56.06 66.8261L56.0602 66.8299Z" fill="#1A5E9D"/>
</svg>
