<svg width="197" height="190" viewBox="0 0 197 190" fill="none" xmlns="http://www.w3.org/2000/svg">
<g clip-path="url(#clip0_3002_1908)">
<path d="M3.00951 50.0305C3.80254 44.0119 8.49689 40.5917 13.7065 39.9919C19.5839 39.3154 25.5393 42.2308 30.0694 45.603C31.8623 46.9376 33.5145 48.4463 35.0214 50.0785C35.3819 50.4689 35.5237 50.6211 35.8676 51.0263C36.4278 51.6856 36.572 52.3427 35.8156 52.7238C34.7082 53.2824 33.7675 53.754 32.6541 54.3012C27.8842 56.6442 22.6674 59.206 17.3384 60.2888C11.1454 61.5479 1.96947 57.9125 3.00951 50.0305Z" fill="white"/>
<path d="M23.518 17.7836C26.7232 15.0788 30.6954 15.3959 33.6158 17.3681C36.9097 19.5922 38.5714 23.6728 39.297 27.3609C39.5842 28.8203 39.719 30.3072 39.7225 31.793C39.7225 32.1489 39.7249 32.2874 39.7107 32.6423C39.687 33.2215 39.4542 33.6175 38.894 33.4802C38.0726 33.2799 37.3753 33.1082 36.5563 32.8987C33.0473 32.0024 29.2087 31.0226 26.0035 29.2438C22.2771 27.1766 19.3189 21.3252 23.5168 17.7836H23.518Z" fill="white"/>
<path d="M0.503571 49.3609C1.38878 43.4064 6.16823 38.7179 12.2761 37.6683C19.7147 36.3897 26.878 39.8855 32.5238 44.2924C33.9467 45.4027 35.2739 46.6217 36.5114 47.9243C37.7488 49.227 39.2722 50.7116 38.8443 52.6494C38.4212 54.5656 36.5043 55.2215 34.8887 56.0227C33.1702 56.8743 31.4494 57.7225 29.7097 58.5318C23.8229 61.2687 17.2328 64.1383 10.5955 62.5404C4.62827 61.1038 -0.291821 56.294 0.412571 50.0316C0.565029 48.6798 1.49871 47.5134 3.01268 47.5134C4.30091 47.5134 5.76521 48.6706 5.61275 50.0316C5.34329 52.4285 6.01577 54.403 7.9812 55.8945C9.69963 57.1994 12.1012 57.9183 14.2214 58.0041C17.3675 58.1323 20.7276 56.8858 23.7721 55.6461C25.7103 54.8575 27.6001 53.9543 29.4781 53.0421C31.2225 52.195 33.2269 51.4418 34.813 50.3373L33.8805 51.2404L33.8321 51.3102V52.6494C33.7517 52.2706 32.9599 51.6147 32.6597 51.3011C32.0085 50.6223 31.3313 49.9675 30.6281 49.3391C29.3055 48.1567 27.892 47.0968 26.3852 46.1444C23.5428 44.3496 20.3128 42.8135 16.8936 42.4781C14.1966 42.2137 11.4027 42.7059 9.17608 44.266C6.96364 45.8159 5.90231 48.1418 5.52176 50.7001C5.32202 52.0474 3.55515 52.7868 2.32365 52.4594C0.829773 52.0622 0.306225 50.7127 0.507141 49.362L0.503571 49.3609Z" fill="#1A5E9D"/>
<path d="M21.6778 16.0023C23.6727 14.3701 26.0223 13.3216 28.672 13.3033C30.992 13.2861 33.3687 14.0622 35.2242 15.4025C38.9152 18.0684 40.9161 22.2819 41.78 26.5777C42.0471 27.9032 42.222 29.2562 42.2906 30.6046C42.3497 31.7767 42.4442 33.069 41.9644 34.1679C41.6015 35.0001 40.857 35.6731 39.9446 35.9169C39.1102 36.139 38.271 35.9272 37.4603 35.7269C36.2867 35.4385 35.1155 35.1409 33.9478 34.8318C31.4848 34.1816 29.0667 33.4273 26.7337 32.4177C24.838 31.597 23.0487 30.5474 21.712 28.9792C20.1189 27.1089 19.0576 24.9352 18.8803 22.4948C18.703 20.0544 19.8104 17.6335 21.6766 16.0023C22.719 15.0912 24.3251 15.0065 25.3533 16.0023C26.3094 16.9284 26.3993 18.6488 25.3533 19.5633C25.1146 19.7728 24.8924 19.9891 24.6761 20.2215C24.9657 19.9102 24.6419 20.2696 24.5509 20.4115C24.4362 20.5889 24.3393 20.7732 24.2424 20.9587C24.526 20.4184 24.1892 21.1624 24.1514 21.3021C24.1112 21.4532 24.0355 22.0461 24.0982 21.4097C24.0793 21.6065 24.0651 21.8023 24.0627 22.0003C24.0604 22.2304 24.1029 22.4639 24.097 22.6917C24.1171 22.8817 24.11 22.8233 24.0745 22.5154C24.0982 22.647 24.1266 22.7787 24.1573 22.908C24.2046 23.1049 24.2613 23.2995 24.3239 23.4918C24.3476 23.5639 24.6336 24.2564 24.4906 23.9542C24.3452 23.6474 24.6927 24.3308 24.7269 24.3926C24.8286 24.5735 24.9361 24.752 25.0496 24.926C25.182 25.1298 25.3356 25.3186 25.4691 25.5201C25.5802 25.6655 25.553 25.63 25.3876 25.4148C25.4762 25.5201 25.5684 25.6231 25.6618 25.7238C25.9561 26.042 26.3543 26.303 26.625 26.6315C26.7704 26.7483 26.7266 26.7185 26.4938 26.5423C26.6002 26.619 26.7078 26.6934 26.8177 26.7655C26.9796 26.8708 27.145 26.9704 27.3128 27.0654C27.8884 27.3916 28.4888 27.68 29.0939 27.9502C29.1518 27.9765 29.8255 28.2615 29.5324 28.1425C29.7995 28.2512 30.0713 28.352 30.3432 28.4515C30.979 28.685 31.6219 28.9002 32.2696 29.1017C33.4621 29.4749 34.6699 29.8011 35.8802 30.1159C36.5326 30.2853 37.1861 30.4524 37.8397 30.6172C38.1257 30.6893 38.4117 30.7603 38.6977 30.8313C38.8916 30.8793 39.0854 30.9263 39.2792 30.9743C39.6916 31.0751 39.6822 31.0728 39.252 30.9663L37.9401 31.3097C37.4059 31.6543 37.1282 32.0972 37.1081 32.6375C37.1129 32.5276 37.1164 32.4189 37.1176 32.309C37.1235 32.0366 37.1223 31.763 37.1176 31.4906C37.1081 30.8965 37.0798 30.3024 37.0266 29.7095C36.9415 28.7469 36.7618 27.7625 36.477 26.6556C36.2182 25.6483 35.8991 24.6444 35.4795 23.6875C35.6686 24.119 35.2668 23.2651 35.2266 23.1873C35.1155 22.971 35.0009 22.758 34.8791 22.5474C34.6191 22.0942 34.3343 21.6523 34.0235 21.23C33.9525 21.1327 33.8805 21.0365 33.806 20.9415C33.9608 21.1395 33.9419 21.1235 33.7516 20.8957C33.585 20.7217 33.429 20.5409 33.2576 20.3703C33.0862 20.1998 32.9113 20.0372 32.7293 19.8793C32.6076 19.774 32.4847 19.6709 32.3582 19.5713C32.5308 19.6973 32.5438 19.7087 32.3972 19.6057C31.9658 19.3092 31.5179 19.0597 31.0487 18.825C30.3975 18.5 31.4789 18.9407 30.7864 18.7174C30.5216 18.6316 30.2581 18.548 29.9862 18.4816C29.8728 18.4542 29.0502 18.3122 29.6222 18.3832C29.3858 18.3534 29.1459 18.3409 28.9072 18.3351C28.6661 18.3294 28.4274 18.3466 28.1874 18.3512C27.8766 18.3809 27.8672 18.3786 28.1567 18.3443C28.0362 18.3637 27.9156 18.3866 27.7962 18.413C27.5114 18.4736 27.2384 18.5606 26.9595 18.6385C26.4737 18.7747 27.1297 18.5068 26.6368 18.7667C26.404 18.8903 26.1688 19.007 25.9431 19.1432C25.7882 19.2371 25.637 19.3356 25.4892 19.4386C25.6441 19.3184 25.5968 19.3573 25.3498 19.5565C24.2778 20.4333 22.7249 20.5752 21.673 19.5565C20.7441 18.6568 20.5952 16.8768 21.673 15.9955L21.6778 16.0023Z" fill="#1A5E9D"/>
<path d="M76.7363 121.679C65.7736 123.902 58.3656 115.691 58.1545 109.571C58.1137 104.413 58.6478 99.2654 59.7475 94.2187C61.2363 88.0882 62.0245 77.3815 61.3922 62.6044C59.7081 40.8316 64.9425 24.7816 73.8945 15.7486C79.29 10.3035 91.6504 2.68191 105.881 2.107C112.961 1.71255 120.048 2.73407 126.703 5.10809L129.913 6.22139L133.168 7.89603C135.98 9.33967 137.016 10.6381 139.953 13.1484C147.328 19.4512 152.767 31.1074 154.009 41.6919C154.367 44.749 155.125 52.042 155.182 58.22C155.65 68.8318 157.631 79.3296 161.071 89.4139C163.145 95.2963 165.915 102.862 164.206 108.855C162.12 116.168 153.716 120.958 146.14 118.681L76.7363 121.679Z" fill="#1A5E9D"/>
<path d="M125.582 39.3811C124.281 36.3316 122.947 32.4405 121.898 29.1057C116.276 37.3122 108.125 43.5876 98.6078 47.0367C97.9705 47.2847 97.2716 47.3438 96.5997 47.2065C95.8307 46.8906 95.6048 46.5654 95.6276 45.5998C95.6854 43.1957 96.5033 39.1943 96.6881 36.8658C88.8063 45.0258 80.0067 53.7573 72.2957 59.8189C71.2366 59.1589 69.9839 58.8529 68.7287 58.9476C67.7804 58.9529 66.8514 59.2076 66.0407 59.6847C65.2301 60.1618 64.5682 60.8433 64.1257 61.6566C62.6369 64.4038 62.8997 69.3538 64.0916 72.3787C64.9376 74.5204 66.3134 77.7941 69.4083 80.0623C70.1405 80.6145 70.9929 80.9975 71.9006 81.1824C72.8084 81.3672 73.7477 81.3489 74.6471 81.1289C76.5 86.5206 79.472 91.4872 83.3801 95.7225C86.2615 98.9824 89.7845 101.652 93.7429 103.576C93.8494 105.609 93.8336 107.646 93.6956 109.677C93.2985 111.367 92.2813 112.859 90.8337 113.874C88.5812 115.201 85.2831 115.977 82.5578 116.762C87.8999 122.275 100.254 125.387 111.911 124.988C123.328 124.528 134.352 121.115 140.218 114.96C140.218 114.96 140.25 114.926 140.313 114.865C137.155 114.333 133.226 113.377 131.27 112.113C130.616 111.742 130.043 111.249 129.587 110.663C129.13 110.076 128.798 109.408 128.609 108.696C128.123 106.603 127.841 104.471 127.765 102.327C136.06 97.5797 142.303 86.1647 143.387 82.925C143.978 81.4897 144.473 80.0186 144.867 78.521L145.329 78.5787C146.184 78.6565 147.048 78.5616 147.864 78.2998C148.68 78.038 149.431 77.6152 150.071 77.0578C152.977 74.5654 154.09 71.1983 154.764 69.0005C155.715 65.8967 155.586 60.9416 153.882 58.3133C153.376 57.5354 152.662 56.9051 151.816 56.4897C150.97 56.0742 150.024 55.8892 149.078 55.9542C148.326 55.9496 147.581 56.0912 146.887 56.3707C146.193 56.6502 145.564 57.0618 145.037 57.5813C138.858 56.1071 131.678 50.1439 127.303 42.8815C126.652 41.7521 126.077 40.5828 125.582 39.3811Z" fill="white"/>
<path d="M153.081 58.2199C153.577 69.0116 155.583 79.6879 159.045 89.9556C160.622 94.4428 162.411 99.0718 162.618 103.855C162.766 105.766 162.46 107.683 161.722 109.46C160.984 111.237 159.834 112.826 158.362 114.104C156.805 115.461 154.918 116.412 152.878 116.869C150.839 117.326 148.713 117.273 146.7 116.716C144.101 115.967 142.991 119.899 145.582 120.646C154.515 123.221 164.659 117.353 166.467 108.437C167.509 103.303 166.165 98.0103 164.565 93.1205C162.851 87.8843 161.014 82.7483 159.824 77.3627C158.469 71.0549 157.62 64.6548 157.284 58.2199C157.133 55.612 152.928 55.595 153.08 58.2199H153.081Z" fill="#1A5E9D"/>
<path d="M132.106 9.65642C133.528 10.419 134.845 11.3522 136.026 12.4342C137.405 13.6596 138.841 14.84 140.142 16.1444C142.66 18.7423 144.783 21.6746 146.448 24.853C149.724 31.1287 151.7 37.9663 152.264 44.9791C152.701 49.3806 153.033 53.7998 153.082 58.2267C153.112 60.8482 157.316 60.855 157.286 58.2267C157.24 54.0996 156.946 49.9759 156.554 45.8666C156.292 42.3891 155.776 38.9341 155.01 35.5275C153.197 27.6935 149.447 20.404 144.085 14.2863C142.549 12.7008 140.93 11.1926 139.235 9.76767C137.73 8.36159 136.049 7.14396 134.231 6.14325C131.851 4.89492 129.727 8.41318 132.109 9.66321L132.106 9.65642Z" fill="#1A5E9D"/>
<path d="M127.265 3.14306C119.814 0.554843 111.877 -0.45319 103.99 0.18699C95.9967 0.92618 88.2843 3.43083 81.4443 7.50884C76.3061 10.4155 71.8719 14.3587 68.442 19.0716C64.8994 24.2776 62.3851 30.0764 61.0269 36.1729C59.083 44.8481 58.4984 53.7578 59.2929 62.6019C59.3058 63.1385 59.5314 63.6497 59.9228 64.0292C60.3142 64.4087 60.8414 64.6275 61.3947 64.64C61.9508 64.6356 62.4827 64.4194 62.8759 64.0382C63.2691 63.6569 63.492 63.1411 63.4965 62.6019C62.4956 49.3543 63.5228 34.8694 70.7067 23.1988C77.0384 12.9106 89.4286 6.39128 101.571 4.54171C109.853 3.39884 118.298 4.26872 126.147 7.07319C126.685 7.21689 127.259 7.14762 127.744 6.88063C128.229 6.61363 128.585 6.17078 128.733 5.6495C128.881 5.12822 128.81 4.57121 128.534 4.101C128.259 3.63079 127.802 3.28676 127.265 3.14306Z" fill="#1A5E9D"/>
<path d="M59.2915 62.6045C59.5481 68.695 59.6225 74.8008 59.3073 80.8905C59.1765 84.9432 58.7023 88.9786 57.8894 92.956C56.7185 98.0171 56.0977 103.183 56.0372 108.37C56.0301 110.431 56.4628 112.471 57.3079 114.363C58.1531 116.254 59.3926 117.955 60.9484 119.359C63.1087 121.309 65.7266 122.718 68.5752 123.465C71.4239 124.211 74.4173 124.273 77.2962 123.645C77.8306 123.496 78.2838 123.151 78.5584 122.682C78.833 122.213 78.9071 121.659 78.7648 121.138C78.607 120.622 78.2496 120.186 77.7674 119.921C77.2853 119.656 76.7159 119.582 76.1787 119.714C74.039 120.168 71.8183 120.119 69.7022 119.571C67.586 119.023 65.6358 117.992 64.0145 116.564C62.6899 115.394 61.6388 113.962 60.9318 112.365C60.6602 111.666 60.4512 110.945 60.3074 110.211C60.1962 109.571 60.324 110.596 60.2802 109.956C60.2715 109.826 60.2627 109.696 60.2575 109.566C60.2277 108.93 60.2364 108.293 60.2478 107.651C60.3743 103.008 60.9555 98.3864 61.9836 93.8493C62.7851 89.8745 63.2789 85.8471 63.461 81.8008C63.8358 75.408 63.7649 68.9948 63.4951 62.6003C63.3848 59.9864 59.1803 59.9728 59.2915 62.6003V62.6045Z" fill="#1A5E9D"/>
<path d="M35.2031 211.968C37.1981 202.814 46.7552 139.798 50.9299 133.713C58.0875 123.241 70.1502 120.57 82.3696 116.551C87.5961 122.198 100.112 125.393 111.913 124.988C123.701 124.515 135.071 120.891 140.776 114.351C153.673 117.909 162.875 121.217 170.132 128.131C175.287 133.627 190.375 197.686 192.863 211.968H35.2031Z" fill="#C4EDFB"/>
<path d="M38.2536 199.523C39.2374 194.963 45.6434 150.496 47.2217 146.097C48.5335 142.245 50.3052 138.555 52.5008 135.103C56.8341 128.583 63.8681 124.929 71.1903 122.335C75.6304 120.761 80.1677 119.461 84.6288 117.947C85.1589 117.792 85.6072 117.446 85.8806 116.979C86.1541 116.512 86.2317 115.961 86.0975 115.44C85.9449 114.922 85.5884 114.482 85.1048 114.215C84.6211 113.949 84.0489 113.878 83.5114 114.016C75.3975 116.77 66.7844 118.784 59.3921 123.188C55.7401 125.338 52.5494 128.15 49.9944 131.471C47.4809 134.969 45.4668 138.78 44.0068 142.802C42.0249 147.897 35.3371 193.109 34.1997 198.442C33.6384 201.001 37.6896 202.094 38.2536 199.526V199.523Z" fill="#1A5E9D"/>
<path d="M139.705 116.175C148.221 118.517 157.001 121.015 164.314 126.034C167.143 127.954 169.578 130.368 171.495 133.153C173.679 136.359 174.491 139.777 175.949 143.35C178.083 148.576 191.931 206.963 192.887 212.507C193.04 213.026 193.396 213.466 193.88 213.732C194.364 213.998 194.936 214.07 195.474 213.93C196.004 213.776 196.453 213.429 196.726 212.962C197 212.495 197.077 211.944 196.941 211.423C195.307 202.177 180.922 139.917 175.706 131.959C173.734 128.859 171.22 126.116 168.277 123.853C164.816 121.274 161.023 119.147 156.993 117.523C151.724 115.436 146.324 113.672 140.826 112.244C138.219 111.527 137.106 115.459 139.709 116.175H139.705Z" fill="#1A5E9D"/>
<path d="M74.3512 58.8041C73.1175 57.7942 71.6055 57.1572 70.0022 56.9718C68.399 56.7865 66.775 57.061 65.3309 57.7613C64.2721 58.3281 63.3615 59.123 62.6694 60.0849C61.9774 61.0468 61.5223 62.1499 61.3392 63.3092C60.8513 65.9709 60.9298 68.7013 61.5699 71.3326C62.2099 73.9638 63.398 76.4404 65.0612 78.6102C67.431 81.6928 70.7037 83.8752 74.8162 83.1959C75.3513 83.0485 75.8051 82.703 76.0797 82.234C76.3544 81.765 76.4277 81.21 76.284 80.689C76.1253 80.1744 75.7678 79.7391 75.2862 79.4738C74.8046 79.2084 74.2359 79.1336 73.6988 79.2649C71.0601 79.7039 68.8996 77.0756 67.7217 75.1488C66.4729 73.1821 65.6549 70.9872 65.3187 68.7008C65.0559 66.6372 65.0017 64.0301 66.2207 62.2298C66.4887 61.8349 66.1419 62.2867 66.4256 61.9878C66.4598 61.9513 66.8635 61.5861 66.6761 61.733C67.0896 61.426 67.5681 61.2116 68.0773 61.1055C68.6377 60.9503 69.2274 60.9226 69.8006 61.0243C70.3738 61.1261 70.9151 61.3547 71.3824 61.6923C71.7838 62.0609 72.3157 62.2664 72.8686 62.2664C73.4214 62.2664 73.9533 62.0609 74.3547 61.6923C74.745 61.3081 74.9638 60.7905 74.9638 60.2512C74.9638 59.7119 74.745 59.1942 74.3547 58.8101L74.3512 58.8041Z" fill="#1A5E9D"/>
<path d="M146.543 58.9968C146.978 58.5947 147.504 58.2978 148.08 58.1303C148.655 57.9628 149.264 57.9295 149.855 58.0329C150.286 58.0724 150.704 58.2017 151.079 58.4122C151.453 58.6227 151.777 58.9093 152.027 59.2524C151.819 58.9976 151.978 59.1836 152.067 59.3432C152.196 59.5725 152.341 59.7865 152.452 60.0226C152.683 60.5647 152.857 61.128 152.971 61.704C153.233 62.965 153.321 64.2539 153.234 65.5374C153.08 67.7491 152.471 69.9085 151.444 71.8886C150.254 74.2315 148.329 76.8139 145.333 76.5388C144.776 76.5426 144.244 76.7585 143.851 77.1399C143.457 77.5213 143.235 78.0375 143.231 78.5769C143.242 79.114 143.467 79.626 143.859 80.0058C144.251 80.3857 144.779 80.6039 145.333 80.615C151.782 81.1992 155.455 74.3861 156.87 69.2849C157.604 66.498 157.669 63.585 157.06 60.7699C156.88 59.6078 156.456 58.494 155.814 57.4974C155.172 56.5008 154.326 55.6428 153.327 54.9766C151.793 54.1192 150.014 53.7664 148.256 53.9709C146.498 54.1754 144.856 54.9263 143.574 56.1112C141.627 57.9395 144.601 60.8209 146.546 58.9934L146.543 58.9968Z" fill="#1A5E9D"/>
<path d="M143.422 75.3858C143.145 76.9176 142.761 78.4293 142.272 79.9104C141.893 81.0865 141.571 81.8814 141.244 82.7229C141.193 82.8512 141.141 82.9777 141.091 83.1085C140.942 83.4949 141.083 83.1356 141.062 83.1832C140.896 83.5458 140.729 83.9076 140.552 84.2651C140.145 85.0871 139.708 85.8939 139.25 86.6904C136.877 90.9944 133.772 94.8794 130.066 98.1819C128.087 99.9698 125.713 101.296 123.125 102.058C120.519 102.748 121.625 106.682 124.243 105.989C129.734 104.536 134.178 100.518 137.642 96.2975C140.675 92.7011 143.167 88.7064 145.045 84.4324C145.167 84.1445 145.284 83.8541 145.389 83.5602C145.178 84.1547 145.615 83.0057 145.688 82.8163C145.814 82.4945 145.931 82.1692 146.044 81.8431C146.667 80.0915 147.147 78.2946 147.477 76.4694C147.609 75.9487 147.53 75.3989 147.257 74.9328C146.984 74.4667 146.537 74.1195 146.009 73.9625C145.471 73.8227 144.898 73.8935 144.414 74.1599C143.93 74.4262 143.574 74.8666 143.422 75.3858Z" fill="#1A5E9D"/>
<path d="M71.8 79.0129C75.486 92.3658 86.3375 106.071 101.338 107.666C101.895 107.662 102.427 107.447 102.821 107.065C103.214 106.684 103.437 106.167 103.44 105.628C103.428 105.091 103.202 104.58 102.811 104.2C102.419 103.82 101.892 103.602 101.338 103.59C94.8227 102.897 89.4456 99.128 85.1264 94.5576C80.7044 89.8164 77.5238 84.1132 75.853 77.9293C75.1524 75.3978 71.0985 76.4721 71.8 79.0129Z" fill="#1A5E9D"/>
<path d="M106.959 88.5537C107.222 88.4076 107.479 88.265 107.748 88.135C107.913 88.0762 108.073 88.0037 108.226 87.9185C107.889 88.1733 107.918 88.0408 108.169 87.9491C108.27 87.9117 108.374 87.876 108.476 87.8421C108.988 87.6739 109.512 87.5406 110.043 87.4429C110.218 87.4098 110.399 87.3826 110.578 87.358C110.261 87.409 110.529 87.364 110.699 87.3461C111.094 87.3054 111.49 87.2771 111.887 87.2612C112.605 87.2316 113.324 87.2509 114.039 87.3189C114.272 87.3419 114.389 87.3733 114.087 87.3189C114.246 87.347 114.405 87.3699 114.565 87.4039C114.804 87.4506 115.041 87.5049 115.277 87.5686C115.512 87.6323 115.723 87.7036 115.945 87.7784C116.335 87.9108 115.829 87.7784 115.809 87.7172C115.898 87.7658 115.992 87.8078 116.087 87.8429C116.353 87.9699 116.607 88.1179 116.848 88.2853C117.33 88.5558 117.902 88.6308 118.441 88.4938C118.979 88.3569 119.441 88.0192 119.724 87.5542C119.99 87.0841 120.06 86.5328 119.92 86.014C119.78 85.4952 119.44 85.0483 118.97 84.7654C116.995 83.388 114.241 83.1009 111.887 83.1867C109.416 83.2293 106.994 83.865 104.838 85.0371C104.6 85.1722 104.391 85.3515 104.225 85.5648C104.058 85.7781 103.936 86.0211 103.866 86.2801C103.796 86.5391 103.779 86.8089 103.816 87.0741C103.854 87.3393 103.945 87.5948 104.084 87.8259C104.224 88.057 104.409 88.2593 104.629 88.4211C104.848 88.583 105.099 88.7012 105.366 88.7691C105.633 88.837 105.911 88.8532 106.185 88.8168C106.459 88.7805 106.722 88.6922 106.96 88.5571L106.959 88.5537Z" fill="#1A5E9D"/>
<path d="M110.217 70.7882C110.397 71.3622 110.567 71.9405 110.722 72.5197C110.906 73.1261 111.052 73.743 111.16 74.3667L111.084 73.8249C111.1 73.9486 111.102 74.0735 111.092 74.1977L111.167 73.6559C111.156 73.7319 111.137 73.8065 111.11 73.8784L111.322 73.3918C111.298 73.4419 111.268 73.4894 111.234 73.5336L111.563 73.1209C111.539 73.1497 111.511 73.1759 111.481 73.199L111.906 72.8806C111.795 72.9538 111.678 73.0174 111.555 73.0708L112.057 72.8653C111.91 72.9264 111.755 72.9697 111.597 72.9944L112.155 72.9222C111.993 72.9409 111.83 72.9409 111.668 72.9222L112.226 72.9952C111.904 72.9528 111.584 72.8967 111.263 72.867C110.987 72.8663 110.713 72.9185 110.457 73.0205C110.202 73.1225 109.97 73.2723 109.774 73.4614C109.38 73.8437 109.158 74.362 109.158 74.9026C109.158 75.4431 109.38 75.9614 109.774 76.3437C110.184 76.7032 110.711 76.9134 111.263 76.9381L111.35 76.9466L110.792 76.8744C111.185 76.9512 111.585 76.9969 111.986 77.0111C112.631 76.9914 113.261 76.8232 113.826 76.5203C114.17 76.3456 114.472 76.1015 114.712 75.8043C114.951 75.5072 115.122 75.1638 115.214 74.7972C115.334 74.1823 115.312 73.5492 115.15 72.9434C114.913 71.8514 114.608 70.7712 114.274 69.7037C114.12 69.1958 113.777 68.7617 113.311 68.486C112.95 68.2814 112.534 68.1858 112.117 68.2113C111.7 68.2369 111.3 68.3825 110.968 68.6296C110.637 68.8766 110.389 69.2139 110.256 69.5982C110.124 69.9826 110.112 70.3966 110.223 70.7873L110.217 70.7882Z" fill="#1A5E9D"/>
<path d="M91.1818 61.661C90.6563 63.5667 91.2203 67.8849 94.9146 68.115C99.7771 67.9052 99.8288 62.6572 98.0938 60.2556C96.6732 58.2905 92.6979 57.5984 91.1818 61.661Z" fill="#1A5E9D"/>
<path d="M130.128 60.2104C130.8 62.071 130.582 66.419 126.917 66.9242C122.052 67.0771 121.586 61.8485 123.125 59.3247C124.386 57.2577 128.295 56.2726 130.128 60.2104Z" fill="#1A5E9D"/>
<path d="M90.2131 50.3103C89.8756 50.6559 89.5078 50.9724 89.1139 51.2564L89.5387 50.9371C88.6658 51.631 87.7066 52.2162 86.6835 52.6788L87.1862 52.4733C87.0881 52.514 86.9875 52.5489 86.8849 52.5777C86.3603 52.7253 85.912 53.0587 85.629 53.5119C85.3477 53.9785 85.2691 54.5344 85.4106 55.0572C85.552 55.5801 85.9018 56.027 86.3831 56.2998C86.8749 56.5696 87.4556 56.6433 88.0025 56.5053C88.4961 56.3564 88.9708 56.1541 89.4178 55.9024C89.8505 55.6714 90.2682 55.4141 90.6764 55.1457C91.2264 54.784 91.7571 54.3942 92.2756 53.9908C92.601 53.7484 92.9053 53.4805 93.1856 53.19C93.5697 52.8005 93.7886 52.2852 93.7987 51.7464C93.7964 51.206 93.5764 50.688 93.1856 50.3027C92.7914 49.9205 92.2568 49.7058 91.6993 49.7058C91.1419 49.7058 90.6073 49.9205 90.2131 50.3027V50.3103Z" fill="#1A5E9D"/>
<path d="M91.6427 103.551C91.725 105.071 91.7303 106.602 91.6891 108.124C91.6786 108.485 91.6654 108.848 91.6383 109.209C91.6295 109.329 91.626 109.456 91.6059 109.575C91.7084 108.973 91.5183 109.695 91.4789 109.813C91.1979 110.521 90.779 111.169 90.245 111.723C90.1064 111.865 89.9581 111.998 89.801 112.121C90.1425 111.866 89.5023 112.27 89.4314 112.308C89.0715 112.504 88.701 112.675 88.3271 112.843C88.0967 112.939 88.0643 112.953 88.2395 112.882C88.1052 112.934 87.9703 112.986 87.8349 113.037C87.6291 113.114 87.4215 113.188 87.214 113.26C86.7192 113.43 86.2209 113.59 85.7191 113.741C83.88 114.296 82.0076 114.74 80.1913 115.36C79.6612 115.514 79.213 115.861 78.9395 116.328C78.666 116.795 78.5884 117.346 78.7226 117.866C78.8752 118.385 79.2317 118.825 79.7154 119.091C80.1991 119.357 80.7713 119.429 81.3087 119.29C83.3388 118.598 85.4388 118.123 87.4828 117.472C89.5417 116.816 91.8616 116.047 93.3627 114.458C94.899 112.87 95.7916 110.798 95.8761 108.622C95.9497 106.936 95.9383 105.235 95.8472 103.551C95.8358 103.013 95.6107 102.501 95.219 102.122C94.8272 101.742 94.2992 101.524 93.7454 101.512C93.1896 101.518 92.658 101.734 92.265 102.115C91.8719 102.496 91.6488 103.012 91.6436 103.551H91.6427Z" fill="#1A5E9D"/>
<path d="M142.526 113.15C142.04 113.09 142.859 113.2 142.394 113.134L141.84 113.055C141.412 112.991 140.984 112.921 140.558 112.847C139.707 112.698 138.86 112.529 138.019 112.337C137.133 112.136 136.252 111.913 135.385 111.646C134.992 111.525 134.597 111.398 134.214 111.259C134.03 111.192 133.848 111.124 133.667 111.052C134.001 111.185 133.599 111.021 133.492 110.967C133.185 110.83 132.886 110.677 132.596 110.51C132.45 110.425 132.313 110.33 132.171 110.24C131.67 109.925 132.401 110.466 131.943 110.071C131.785 109.934 131.627 109.8 131.479 109.653C131.479 109.653 131.055 109.191 131.251 109.433C131.031 109.184 130.864 108.895 130.758 108.584C130.251 106.661 129.962 104.69 129.895 102.706C129.883 102.169 129.658 101.658 129.266 101.278C128.875 100.898 128.347 100.68 127.793 100.668C127.237 100.673 126.705 100.889 126.312 101.27C125.919 101.652 125.696 102.167 125.691 102.706C125.716 105.133 126.082 107.545 126.778 109.876C127.569 111.834 129.097 113.426 131.054 114.332C134.566 116.057 138.657 116.744 142.526 117.219C143.083 117.216 143.615 117.001 144.009 116.619C144.403 116.237 144.625 115.721 144.628 115.181C144.614 114.645 144.389 114.134 143.997 113.755C143.606 113.375 143.079 113.156 142.526 113.143V113.15Z" fill="#1A5E9D"/>
<path d="M81.4087 118.537C87.2316 124.045 96.1644 126.01 103.989 126.775C113.024 127.731 122.164 126.563 130.635 123.369C134.8 121.848 138.576 119.473 141.706 116.405C143.556 114.493 140.589 111.605 138.734 113.523C133.649 118.781 125.999 121.144 118.854 122.286C110.585 123.643 102.103 123.114 94.0809 120.743C90.5867 119.677 87.0363 118.17 84.381 115.658C82.443 113.825 79.4681 116.705 81.4087 118.541V118.537Z" fill="#1A5E9D"/>
<path d="M120.001 30.0678C121.066 33.4052 122.196 36.7341 123.573 39.9645C124.825 42.9147 126.485 45.686 128.507 48.2018C132.48 53.1654 137.906 57.8335 144.294 59.5047C146.909 60.1892 148.024 56.2582 145.411 55.5746C139.841 54.1173 135.068 49.8662 131.642 45.5191C127.794 40.6362 125.906 34.7886 124.054 28.9868C123.257 26.4884 119.198 27.5542 120.001 30.0704V30.0678Z" fill="#1A5E9D"/>
<path d="M120.051 28.1224C116.217 33.6197 111.195 38.2414 105.334 41.6664C103.856 42.5191 102.331 43.2936 100.767 43.9864C99.9784 44.3338 99.1903 44.6658 98.3767 44.952C98.0415 45.0111 97.7152 45.1107 97.4055 45.2483C97.1982 45.2297 97.204 45.2611 97.423 45.3426C97.544 45.4941 97.6452 45.6595 97.7242 45.8352C97.4168 45.6713 98.0211 42.5368 98.1122 41.9127C98.3574 40.2346 98.6438 38.5575 98.7892 36.8675C98.9407 35.0952 96.3922 34.1942 95.1986 35.4239C88.774 42.0723 82.2426 48.6545 75.2313 54.7246C73.2083 56.4749 76.1894 59.3494 78.2036 57.6068C85.2184 51.5367 91.7498 44.9537 98.1753 38.3069L94.5846 36.8633C94.3447 39.6563 93.6704 42.4078 93.5399 45.2101C93.4663 46.7803 93.9191 48.139 95.4192 48.911C97.1173 49.7848 98.9993 49.091 100.631 48.4431C106.579 46.1012 112.011 42.679 116.635 38.3604C119.263 35.8697 121.623 33.1272 123.68 30.1749C125.209 28.0035 121.568 25.962 120.05 28.1182L120.051 28.1224Z" fill="#1A5E9D"/>
<path d="M74.1526 116.992C74.9968 114.151 76.394 111.494 78.2686 109.164C79.7753 107.147 81.5082 105.298 83.4356 103.652C85.6463 102.047 88.274 101.069 91.0249 100.828C95.1299 100.304 99.2791 100.184 103.409 100.47C104.262 100.506 105.067 100.858 105.659 101.455C106.251 102.051 106.583 102.845 106.587 103.673C106.545 104.393 106.248 105.077 105.748 105.61C105.247 106.144 104.573 106.494 103.837 106.603C101.953 106.886 99.3534 106.967 96.2225 107.518C92.6407 108.149 92.5444 108.472 90.778 110.065L90.6133 110.303C94.1321 110.234 98.32 110.432 100.178 111.255C100.879 111.563 103.419 112.997 104.048 113.42C107.016 115.41 108.563 116.859 109.485 118.716C109.841 119.745 109.776 120.867 109.303 121.85C108.937 122.569 107.704 123.515 105.761 122.923C106.306 123.402 106.708 124.015 106.924 124.697C107.139 125.379 107.161 126.104 106.987 126.797C106.75 127.546 106.277 128.204 105.636 128.681C104.995 129.157 104.216 129.428 103.409 129.456C104.197 130.179 103.765 132.109 103.152 132.944C102.512 133.817 100.691 133.887 99.7369 133.557C98.9352 133.238 98.1081 132.982 97.2638 132.793C97.2113 133.059 97.1806 133.212 97.1806 133.212C96.9932 134.157 96.6114 136.354 96.2996 137.266C95.4177 139.929 94.1549 142.878 91.6432 144.307C90.3909 144.869 89.11 145.369 87.8056 145.805C86.7197 146.298 85.7555 148.707 85.1784 150.398C85.1754 150.406 85.1707 150.415 85.1644 150.422C85.1581 150.429 85.1505 150.434 85.1419 150.438C85.1333 150.442 85.124 150.445 85.1144 150.445C85.1049 150.446 85.0954 150.444 85.0864 150.441C79.6375 148.705 73.2549 146.586 68.1458 144.989C68.0623 144.963 67.9852 144.921 67.9189 144.865C67.8526 144.81 67.7985 144.742 67.7599 144.665C67.7214 144.589 67.699 144.506 67.6943 144.421C67.6896 144.336 67.7025 144.251 67.7324 144.171C68.5714 141.888 69.1161 140.656 69.6337 139.141C70.3607 136.612 70.9454 134.046 71.3852 131.454C72.416 124.666 72.7339 121.999 73.6543 118.598C73.8198 118.031 73.9862 117.494 74.1526 116.992Z" fill="white"/>
<path d="M86.4104 112.576C88.8652 112.334 91.3345 112.26 93.8 112.355C95.0071 112.376 96.2116 112.47 97.4064 112.638C97.9249 112.723 98.4267 112.844 98.9346 112.971C99.0563 113.007 99.1772 113.046 99.2972 113.089C99.0817 112.994 99.059 112.986 99.2306 113.064C99.4189 113.149 99.6019 113.249 99.7858 113.346C102.071 114.45 104.18 115.868 106.048 117.556C106.7 118.189 107.599 119.085 107.615 119.969C107.612 120.251 107.566 120.53 107.479 120.799C107.367 121.195 107.604 120.726 107.438 120.905C107.397 120.958 107.339 120.997 107.273 121.015C107.031 121.081 106.775 121.081 106.534 121.015C103.896 120.461 102.768 124.389 105.416 124.946C108.819 125.662 111.479 123.786 111.793 120.439C112.06 117.596 109.831 115.218 107.711 113.542C105.793 112.013 103.705 110.694 101.487 109.61C99.3346 108.736 97.0218 108.296 94.6889 108.316C91.9288 108.164 89.1605 108.225 86.4104 108.5C85.8579 108.515 85.3324 108.734 84.9415 109.113C84.5507 109.492 84.3243 110.002 84.3086 110.538C84.3125 111.077 84.5352 111.593 84.9285 111.975C85.3218 112.356 85.8542 112.572 86.4104 112.576Z" fill="#1A5E9D"/>
<path d="M91.4708 119.592C93.5224 119.568 95.5604 119.919 97.4785 120.625C97.411 120.6 98.2088 120.914 97.8585 120.77C98.067 120.855 98.2737 120.946 98.4795 121.037C98.9121 121.229 99.3406 121.427 99.7651 121.632C100.658 122.069 101.536 122.537 102.392 123.046C102.765 123.268 103.133 123.499 103.492 123.742C103.551 123.782 104.006 124.106 103.836 123.978C103.665 123.85 104.063 124.163 104.106 124.2C104.365 124.398 104.584 124.641 104.752 124.916C104.877 125.126 104.961 125.356 104.999 125.596C105.008 125.699 104.994 126.185 105.006 126.09C105.034 125.889 104.904 126.43 104.908 126.451C104.859 126.59 104.882 126.541 104.979 126.304C104.945 126.375 104.908 126.444 104.866 126.511C104.832 126.56 104.527 126.97 104.691 126.784C104.856 126.598 104.461 126.989 104.412 127.031C104.303 127.122 104.317 127.113 104.452 127.004C104.369 127.06 104.282 127.112 104.189 127.16C103.946 127.283 103.685 127.369 103.415 127.415C102.863 127.429 102.337 127.649 101.946 128.028C101.555 128.407 101.328 128.917 101.313 129.453C101.317 129.992 101.54 130.509 101.933 130.89C102.326 131.272 102.859 131.487 103.415 131.491C105.93 131.249 108.353 129.844 109.02 127.336C109.78 124.479 108.232 122.081 105.94 120.457C101.767 117.387 96.709 115.661 91.4734 115.518C88.7682 115.506 88.7647 119.582 91.4734 119.595L91.4708 119.592Z" fill="#1A5E9D"/>
<path d="M92.873 127.072C92.9509 127.081 93.289 127.123 92.8887 127.072L93.1725 127.111C93.3914 127.142 93.6098 127.176 93.8276 127.213C94.2873 127.29 94.7454 127.382 95.199 127.486C95.6223 127.586 96.0406 127.699 96.454 127.826C96.6624 127.891 96.8696 127.96 97.0757 128.035C97.1633 128.066 97.2509 128.099 97.3385 128.133C97.4768 128.186 97.7299 128.298 97.4576 128.178C98.9359 128.856 100.332 129.692 101.62 130.669C101.657 130.696 101.983 130.937 101.807 130.806C101.645 130.686 101.918 130.891 101.921 130.891C102.004 130.926 102.237 131.356 101.787 130.722C101.824 130.772 101.925 130.976 101.773 130.673C101.622 130.37 101.736 130.6 101.751 130.698C101.787 130.91 101.729 130.439 101.722 130.451C101.697 130.62 101.697 130.791 101.722 130.96C101.722 131.265 101.639 130.851 101.747 130.812C101.728 130.876 101.715 130.941 101.708 131.008C101.665 131.155 101.634 131.306 101.586 131.453C101.566 131.513 101.536 131.574 101.521 131.634C101.46 131.889 101.731 131.281 101.588 131.488C101.525 131.578 101.263 131.981 101.494 131.709C101.705 131.462 101.566 131.624 101.516 131.671C101.273 131.91 101.633 131.554 101.663 131.565C101.607 131.589 101.554 131.617 101.504 131.65C101.273 131.771 101.918 131.549 101.653 131.588C101.507 131.61 101.348 131.668 101.202 131.701C101.141 131.715 100.896 131.757 101.212 131.701C101.562 131.64 101.137 131.693 101.081 131.694C100.927 131.694 100.764 131.669 100.612 131.681C100.4 131.698 100.834 131.71 100.852 131.719C100.774 131.697 100.694 131.682 100.613 131.675C100.355 131.609 100.101 131.527 99.8545 131.428C98.8728 131.055 97.8465 130.805 96.7999 130.682C95.6569 130.598 94.518 130.888 93.5648 131.505C93.3265 131.64 93.1179 131.82 92.951 132.033C92.7841 132.246 92.6622 132.489 92.5922 132.748C92.5222 133.007 92.5054 133.277 92.5429 133.542C92.5805 133.808 92.6715 134.063 92.8108 134.294C92.9501 134.525 93.135 134.728 93.355 134.889C93.5749 135.051 93.8256 135.169 94.0926 135.237C94.3597 135.305 94.6379 135.321 94.9115 135.285C95.185 135.249 95.4484 135.16 95.6868 135.025C95.7805 134.968 95.8795 134.917 95.9732 134.855C96.3095 134.65 95.981 134.819 95.9267 134.855C96.1194 134.782 96.3184 134.725 96.5214 134.686C96.5433 134.76 95.9767 134.653 96.3462 134.724C96.4566 134.744 96.5985 134.74 96.707 134.749C96.6195 134.742 96.2946 134.669 96.6878 134.756C96.8349 134.788 96.982 134.816 97.1257 134.852C97.8963 135.039 98.6144 135.382 99.3772 135.581C101.34 136.09 103.821 135.666 104.989 133.926C105.979 132.455 106.355 130.121 105.353 128.576C104.931 128.032 104.409 127.567 103.814 127.206C103.389 126.894 102.959 126.588 102.52 126.295C101.781 125.793 101.007 125.341 100.203 124.944C97.8911 123.887 95.4078 123.227 92.8633 122.991C92.3059 122.991 91.7713 123.206 91.3771 123.588C90.983 123.97 90.7615 124.489 90.7615 125.029C90.7776 125.565 91.0042 126.074 91.395 126.453C91.7857 126.832 92.311 127.052 92.8633 127.067L92.873 127.072Z" fill="#1A5E9D"/>
<path d="M76.4603 108.135C69.9464 116.373 70.6541 127.123 68.096 136.711C67.8129 137.847 67.4695 138.969 67.067 140.071C66.4939 141.303 66.0252 142.579 65.6657 143.885C65.2375 146.08 67.172 146.823 68.9148 147.374C70.4538 147.86 71.9902 148.352 73.5239 148.851C76.7213 149.884 79.9169 150.929 83.1152 151.957C84.033 152.251 84.9368 152.673 85.894 152.305C86.2806 152.12 86.6176 151.85 86.8785 151.517C87.1395 151.184 87.3172 150.797 87.3976 150.386C87.6003 149.806 87.8401 149.239 88.1158 148.688C88.2524 148.423 88.3995 148.166 88.5589 147.914C88.5992 147.851 88.8785 147.52 88.6955 147.659C89.4253 147.279 90.2048 146.996 91.0128 146.818C91.8853 146.508 92.7103 146.085 93.4649 145.559C94.7853 144.571 95.864 143.312 96.6238 141.872C97.9055 139.31 98.7753 136.572 99.2029 133.755C99.3365 133.234 99.2586 132.684 98.9855 132.217C98.7123 131.751 98.2646 131.404 97.7351 131.248C97.1978 131.109 96.6257 131.181 96.1421 131.447C95.6586 131.713 95.3022 132.153 95.1499 132.672C94.5316 135.838 93.9492 139.65 91.3841 141.966C89.8594 143.343 87.5159 143.245 85.9772 144.581C84.4744 145.887 83.7703 148.063 83.1459 149.857L84.1092 148.639L84.0216 148.682L85.6409 148.477C82.771 147.562 79.9082 146.628 77.0427 145.698C75.638 145.242 74.2324 144.787 72.8259 144.335C72.1253 144.108 71.4215 143.883 70.7145 143.66C70.1173 143.526 69.5339 143.34 68.9717 143.103L69.7257 143.834L69.7179 143.885V144.969C69.9412 143.447 70.8616 141.879 71.3941 140.425C71.8693 139.007 72.2677 137.566 72.5877 136.108C73.4582 132.593 73.8436 128.983 74.4076 125.414C75.2667 119.979 76.575 114.638 80.0895 110.192C80.3677 109.725 80.4445 109.17 80.3034 108.648C80.1622 108.126 79.8144 107.679 79.3354 107.404C78.851 107.144 78.282 107.075 77.7464 107.211C77.2109 107.347 76.75 107.678 76.4594 108.135H76.4603Z" fill="#1A5E9D"/>
<path d="M80.089 110.191C81.095 108.878 82.1988 107.639 83.3914 106.482C84.3339 105.458 85.4779 104.627 86.7561 104.037C90.0086 102.576 93.9145 102.47 97.4403 102.377C98.9717 102.336 100.503 102.353 102.035 102.429C102.965 102.474 104.136 102.306 104.456 103.302C104.755 104.226 103.724 104.575 103.024 104.673C101.377 104.899 99.663 104.988 97.9956 105.205C96.0933 105.359 94.22 105.754 92.4231 106.379C91.2488 106.937 90.1885 107.696 89.294 108.621C87.3131 110.416 90.2906 113.292 92.2664 111.503C92.5221 111.271 92.7743 111.036 93.0326 110.807C93.1141 110.735 93.7674 110.23 93.3777 110.496C93.5638 110.369 93.7583 110.253 93.9601 110.15C94.299 109.976 94.0546 110.106 93.9758 110.137C94.1838 110.06 94.3957 109.994 94.6108 109.939C96.5981 109.447 98.6263 109.127 100.672 108.981C102.472 108.807 104.507 108.848 106.102 107.921C107.041 107.383 107.784 106.574 108.225 105.605C108.665 104.637 108.782 103.56 108.559 102.524C108.336 101.594 107.857 100.74 107.173 100.054C106.489 99.367 105.626 98.873 104.676 98.6242C102.981 98.3006 101.251 98.1865 99.5273 98.2845C95.2492 98.2488 90.5245 98.3694 86.4671 99.7816C82.1128 101.299 79.1659 104.633 76.4581 108.137C76.1803 108.604 76.1037 109.159 76.2449 109.681C76.386 110.203 76.7335 110.65 77.2121 110.925C77.6964 111.185 78.2656 111.255 78.8013 111.118C79.3369 110.982 79.7978 110.651 80.0881 110.194L80.089 110.191Z" fill="#1A5E9D"/>
</g>
<defs>
<clipPath id="clip0_3002_1908">
<rect width="211" height="190" fill="white" transform="translate(-13.9961)"/>
</clipPath>
</defs>
</svg>
