<svg width="207" height="443" viewBox="0 0 207 443" fill="none" xmlns="http://www.w3.org/2000/svg">
<path d="M71.4364 186.865L71.4382 186.862C71.5619 186.689 71.6454 186.553 71.7055 186.429L71.7068 186.427C72.0577 185.704 72.3579 185.036 72.5385 184.39L71.4364 186.865ZM71.4364 186.865C71.384 186.939 71.333 187.011 71.2832 187.082M71.4364 186.865L71.2832 187.082M72.8745 181.508L72.8745 181.508C72.8037 180.631 72.7231 179.816 72.5514 179.07L72.551 179.069C72.417 178.485 72.1739 177.931 71.8754 177.251C71.8004 177.08 71.7218 176.901 71.6407 176.712L71.6398 176.71C71.5131 176.413 71.391 176.175 71.253 175.972L71.2523 175.971C70.779 175.274 70.3321 174.655 69.8379 174.164L69.8369 174.163C68.7585 173.09 67.6656 172.526 66.1028 171.927C65.9116 171.854 65.7396 171.804 65.5762 171.773C64.7761 171.626 64.048 171.504 63.359 171.485L63.3573 171.485C63.0249 171.475 62.7117 171.519 62.2648 171.581C62.146 171.598 62.0178 171.615 61.8772 171.634L61.8744 171.634C61.8553 171.637 61.8308 171.641 61.7632 171.653L61.7547 171.655C61.698 171.665 61.6035 171.682 61.5021 171.695L61.4489 171.702L61.3954 171.705C61.0525 171.724 60.7145 171.778 60.3797 171.871L72.8745 181.508ZM72.8745 181.508C72.8926 181.732 72.8897 181.963 72.8666 182.205L72.8745 181.508ZM57.8356 172.908L57.8355 172.908C57.1558 173.243 56.5318 173.764 55.767 174.403C55.7264 174.437 55.6854 174.471 55.644 174.506L55.6427 174.507C55.0321 175.015 54.4975 175.749 53.946 176.599L53.9453 176.6C53.874 176.709 53.8049 176.843 53.7215 177.032C53.7213 177.032 53.7212 177.033 53.7211 177.033L52.3533 176.431L57.8356 172.908ZM57.8356 172.908C58.7073 172.479 59.5515 172.104 60.3789 171.872L57.8356 172.908ZM52.8971 183.567L52.8972 183.568C53.0481 184.551 53.4889 185.577 54.0178 186.667L54.0179 186.667C54.4148 187.486 55.0395 188.297 55.7364 188.977L55.7368 188.977C56.2013 189.431 56.7757 189.847 57.4163 190.29C57.569 190.395 57.7208 190.482 57.8781 190.556L57.8823 190.558C59.6124 191.376 61.3153 191.879 62.9637 191.693L62.9648 191.693C63.0341 191.685 63.1022 191.677 63.1692 191.67C64.1986 191.555 64.9658 191.469 65.7033 191.187L65.7034 191.187C65.7765 191.159 65.8488 191.132 65.9202 191.105C66.9057 190.729 67.7267 190.416 68.3698 189.946L68.8948 189.562C69.3455 189.227 69.7456 188.914 70.1036 188.568L52.8971 183.567ZM52.8971 183.567C52.6216 181.78 52.5845 180.715 52.9396 179.02L52.8971 183.567ZM71.2832 187.082C70.8545 187.689 70.5115 188.175 70.1041 188.568L71.2832 187.082ZM72.8666 182.205C72.7863 183.04 72.7157 183.754 72.5387 184.389L72.8666 182.205Z" fill="white" stroke="#4A7DAB" stroke-width="3"/>
<path d="M58.2538 182.577C58.0243 181.841 58.4702 180.999 59.1604 180.668L59.9862 183.796C59.212 183.871 58.4967 183.356 58.2538 182.577ZM61.9754 183.278L61.9665 183.281C62.3214 182.766 62.4722 182.11 62.2766 181.483C62.0876 180.877 61.6659 180.379 61.1276 180.107L61.1375 180.104L61.1487 180.101L61.16 180.098L61.1713 180.095L61.1825 180.092L61.1938 180.089L61.205 180.086L61.2163 180.083L61.2276 180.08L61.2388 180.076L61.2501 180.073L61.2614 180.07L61.2726 180.067L61.2839 180.064L61.2952 180.061L61.3064 180.058L61.3177 180.055L61.3289 180.052L61.3402 180.049L61.3515 180.046L61.3627 180.043L61.374 180.04L61.3853 180.037L61.3965 180.034L61.4078 180.031L61.4191 180.027L61.4303 180.024L61.4416 180.021L61.4528 180.018L61.4641 180.015L61.4754 180.012L61.4866 180.009L61.4979 180.006L61.5092 180.003L61.5204 180L61.5317 179.997L61.543 179.994L61.5542 179.991L61.5655 179.988L61.5767 179.985L61.588 179.982L61.5993 179.978L61.6105 179.975L61.6218 179.972L61.6331 179.969L61.6443 179.966L61.6556 179.963L61.6669 179.96L61.6781 179.957L61.6894 179.954L61.7006 179.951L61.7119 179.948L61.7232 179.945L61.7344 179.942L61.7457 179.939L61.757 179.936L61.7682 179.932L61.7795 179.929L61.7908 179.926L61.802 179.923L61.8133 179.92L61.8245 179.917L61.8358 179.914L61.8471 179.911L61.8583 179.908L61.8696 179.905L61.8809 179.902L61.8921 179.899L61.9034 179.896L61.9147 179.893L61.9259 179.89L61.9372 179.887L61.9484 179.883L61.9597 179.88L61.971 179.877L61.9822 179.874L61.9935 179.871L62.0048 179.868L62.016 179.865L62.0273 179.862L62.0386 179.859L62.0498 179.856L62.0611 179.853L62.0723 179.85L62.0836 179.847L62.0949 179.844L62.1061 179.841L62.1174 179.838L62.1287 179.834L62.1399 179.831L62.1512 179.828L62.1625 179.825L62.1737 179.822L62.185 179.819L62.1962 179.816L62.2075 179.813L62.2188 179.81L62.23 179.807L62.2413 179.804L62.2526 179.801L62.2638 179.798L62.2751 179.795L62.2864 179.792L62.2976 179.788L62.3089 179.785L62.3201 179.782L62.3314 179.779L62.3427 179.776L62.3539 179.773L62.3652 179.77L62.3765 179.767L62.3877 179.764L62.399 179.761L62.4102 179.758L62.4215 179.755L62.4328 179.752L62.444 179.749L62.4553 179.746L62.4666 179.743L62.4778 179.739L62.4891 179.736L62.5004 179.733L62.5116 179.73L62.5229 179.727L62.5341 179.724L62.5454 179.721L62.5567 179.718L62.5679 179.715L62.5792 179.712L62.5905 179.709L62.6017 179.706L62.613 179.703L62.6243 179.7L62.6355 179.697L62.6468 179.693L62.658 179.69L62.6693 179.687L62.6806 179.684L62.6918 179.681L62.7031 179.678L62.7144 179.675L62.7256 179.672L62.7369 179.669L62.7482 179.666L62.7594 179.663L62.7707 179.66L62.7819 179.657L62.7932 179.654L62.8045 179.651L62.8157 179.648L62.827 179.644L62.8383 179.641L62.8495 179.638L62.8608 179.635L62.8721 179.632L62.8833 179.629L62.8946 179.626L62.9058 179.623L62.9171 179.62L62.9284 179.617L62.9396 179.614L62.9509 179.611L62.9622 179.608L62.9734 179.605L62.9847 179.602L62.996 179.599L63.0072 179.595L63.0185 179.592L63.0297 179.589L63.041 179.586L63.0523 179.583L63.0635 179.58L63.0748 179.577L63.0861 179.574L63.0973 179.571L63.1086 179.568L63.1199 179.565L63.1311 179.562L63.1424 179.559L63.1536 179.556L63.1649 179.553L63.1762 179.549L63.1874 179.546L63.1987 179.543L63.21 179.54L63.2212 179.537L63.2325 179.534L63.2438 179.531L63.255 179.528L63.2663 179.525L63.2775 179.522L63.2888 179.519L63.3001 179.516L63.3113 179.513L63.3226 179.51L63.3339 179.507L63.3451 179.504L63.3564 179.5L63.3677 179.497L63.3789 179.494L63.3902 179.491L63.4014 179.488L63.4127 179.485L63.424 179.482L63.4352 179.479L63.4465 179.476L63.4578 179.473L63.469 179.47L63.4803 179.467L63.4916 179.464L63.5028 179.461L63.5141 179.458L63.5253 179.455L63.5366 179.451L63.5479 179.448L63.5591 179.445L63.5704 179.442L63.5817 179.439L63.5929 179.436L63.6042 179.433L63.6155 179.43L63.6267 179.427L63.638 179.424L63.6492 179.421L63.6605 179.418L63.6718 179.415L63.683 179.412L63.6943 179.409L63.7056 179.405L63.7168 179.402L63.7281 179.399L63.7394 179.396L63.7506 179.393L63.7619 179.39L63.7731 179.387L63.7844 179.384L63.7957 179.381L63.8069 179.378L63.8182 179.375L63.8295 179.372L63.8407 179.369L63.852 179.366L63.8632 179.363L63.8745 179.36L63.8858 179.356L63.897 179.353L63.9083 179.35L63.9196 179.347L63.9308 179.344L63.9421 179.341L63.9534 179.338L63.9646 179.335L63.9759 179.332L63.9871 179.329L63.9984 179.326L64.0097 179.323L64.0209 179.32L64.0322 179.317L64.0435 179.314L64.0547 179.31L64.066 179.307L64.0773 179.304L64.0885 179.301L64.0998 179.298L64.111 179.295L64.1223 179.292L64.1336 179.289L64.1448 179.286L64.1561 179.283L64.1674 179.28L64.1786 179.277L64.1899 179.274L64.2012 179.271L64.2124 179.268L64.2237 179.265L64.2349 179.261L64.2462 179.258L64.2575 179.255L64.2687 179.252L64.28 179.249L64.2913 179.246L64.3025 179.243L64.3138 179.24L64.3251 179.237L64.3363 179.234L64.3476 179.231L64.3588 179.228L64.3701 179.225L64.3814 179.222L64.3926 179.219L64.4039 179.216L64.4152 179.212L64.4264 179.209L64.4377 179.206L64.449 179.203L64.4602 179.2L64.4715 179.197L64.4827 179.194L64.494 179.191L64.5053 179.188L64.5165 179.185L64.5278 179.182L64.5391 179.179L64.5503 179.176L64.5616 179.173L64.5729 179.17L64.5841 179.166L64.5954 179.163L64.6066 179.16L64.6179 179.157L64.6292 179.154L64.6404 179.151L64.6517 179.148L64.663 179.145L64.6742 179.142L64.6855 179.139L64.6968 179.136L64.708 179.133L64.7193 179.13L64.7305 179.127L64.7418 179.124L64.7531 179.121L64.7643 179.117L64.7756 179.114L64.7869 179.111L64.7981 179.108L64.8094 179.105L64.8207 179.102L64.8319 179.099L64.8432 179.096L64.8544 179.093L64.8657 179.09L64.877 179.087L64.8882 179.084L64.8995 179.081L64.9108 179.078L64.922 179.075L64.9333 179.071L64.9446 179.068L64.9558 179.065L64.9671 179.062L64.9783 179.059L64.9896 179.056L65.0009 179.053L65.0121 179.05L65.0234 179.047L65.0347 179.044L65.0459 179.041L65.0572 179.038L65.0685 179.035L65.0797 179.032L65.091 179.029L65.1022 179.026L65.1135 179.022L65.1248 179.019L65.136 179.016L65.1473 179.013L65.1586 179.01L65.1698 179.007L65.1811 179.004C66.0523 178.767 66.9087 179.307 67.1793 180.174C67.4359 180.997 66.8483 181.953 66.019 182.178L66.0077 182.182L65.9964 182.185L65.9852 182.188L65.9739 182.191L65.9627 182.194L65.9514 182.197L65.9401 182.2L65.9289 182.203L65.9176 182.206L65.9063 182.209L65.8951 182.212L65.8838 182.215L65.8725 182.218L65.8613 182.221L65.85 182.224L65.8388 182.227L65.8275 182.231L65.8162 182.234L65.805 182.237L65.7937 182.24L65.7824 182.243L65.7712 182.246L65.7599 182.249L65.7486 182.252L65.7374 182.255L65.7261 182.258L65.7149 182.261L65.7036 182.264L65.6923 182.267L65.6811 182.27L65.6698 182.273L65.6585 182.277L65.6473 182.28L65.636 182.283L65.6247 182.286L65.6135 182.289L65.6022 182.292L65.591 182.295L65.5797 182.298L65.5684 182.301L65.5572 182.304L65.5459 182.307L65.5346 182.31L65.5234 182.313L65.5121 182.316L65.5008 182.319L65.4896 182.322L65.4783 182.326L65.4671 182.329L65.4558 182.332L65.4445 182.335L65.4333 182.338L65.422 182.341L65.4107 182.344L65.3995 182.347L65.3882 182.35L65.3769 182.353L65.3657 182.356L65.3544 182.359L65.3432 182.362L65.3319 182.365L65.3206 182.368L65.3094 182.371L65.2981 182.375L65.2868 182.378L65.2756 182.381L65.2643 182.384L65.253 182.387L65.2418 182.39L65.2305 182.393L65.2193 182.396L65.208 182.399L65.1967 182.402L65.1855 182.405L65.1742 182.408L65.1629 182.411L65.1517 182.414L65.1404 182.417L65.1292 182.421L65.1179 182.424L65.1066 182.427L65.0954 182.43L65.0841 182.433L65.0728 182.436L65.0616 182.439L65.0503 182.442L65.039 182.445L65.0278 182.448L65.0165 182.451L65.0053 182.454L64.994 182.457L64.9827 182.46L64.9715 182.463L64.9602 182.466L64.9489 182.47L64.9377 182.473L64.9264 182.476L64.9151 182.479L64.9039 182.482L64.8926 182.485L64.8814 182.488L64.8701 182.491L64.8588 182.494L64.8476 182.497L64.8363 182.5L64.825 182.503L64.8138 182.506L64.8025 182.509L64.7912 182.512L64.78 182.515L64.7687 182.519L64.7575 182.522L64.7462 182.525L64.7349 182.528L64.7237 182.531L64.7124 182.534L64.7011 182.537L64.6899 182.54L64.6786 182.543L64.6673 182.546L64.6561 182.549L64.6448 182.552L64.6336 182.555L64.6223 182.558L64.611 182.561L64.5998 182.565L64.5885 182.568L64.5772 182.571L64.566 182.574L64.5547 182.577L64.5434 182.58L64.5322 182.583L64.5209 182.586L64.5097 182.589L64.4984 182.592L64.4871 182.595L64.4759 182.598L64.4646 182.601L64.4533 182.604L64.4421 182.607L64.4308 182.61L64.4195 182.614L64.4083 182.617L64.397 182.62L64.3858 182.623L64.3745 182.626L64.3632 182.629L64.352 182.632L64.3407 182.635L64.3294 182.638L64.3182 182.641L64.3069 182.644L64.2956 182.647L64.2844 182.65L64.2731 182.653L64.2619 182.656L64.2506 182.66L64.2393 182.663L64.2281 182.666L64.2168 182.669L64.2055 182.672L64.1943 182.675L64.183 182.678L64.1717 182.681L64.1605 182.684L64.1492 182.687L64.138 182.69L64.1267 182.693L64.1154 182.696L64.1042 182.699L64.0929 182.702L64.0816 182.705L64.0704 182.709L64.0591 182.712L64.0478 182.715L64.0366 182.718L64.0253 182.721L64.0141 182.724L64.0028 182.727L63.9915 182.73L63.9803 182.733L63.969 182.736L63.9577 182.739L63.9465 182.742L63.9352 182.745L63.9239 182.748L63.9127 182.751L63.9014 182.754L63.8902 182.758L63.8789 182.761L63.8676 182.764L63.8564 182.767L63.8451 182.77L63.8338 182.773L63.8226 182.776L63.8113 182.779L63.8001 182.782L63.7888 182.785L63.7775 182.788L63.7663 182.791L63.755 182.794L63.7437 182.797L63.7325 182.8L63.7212 182.804L63.7099 182.807L63.6987 182.81L63.6874 182.813L63.6762 182.816L63.6649 182.819L63.6536 182.822L63.6424 182.825L63.6311 182.828L63.6198 182.831L63.6086 182.834L63.5973 182.837L63.586 182.84L63.5748 182.843L63.5635 182.846L63.5523 182.849L63.541 182.853L63.5297 182.856L63.5185 182.859L63.5072 182.862L63.4959 182.865L63.4847 182.868L63.4734 182.871L63.4621 182.874L63.4509 182.877L63.4396 182.88L63.4284 182.883L63.4171 182.886L63.4058 182.889L63.3946 182.892L63.3833 182.895L63.372 182.899L63.3608 182.902L63.3495 182.905L63.3382 182.908L63.327 182.911L63.3157 182.914L63.3045 182.917L63.2932 182.92L63.2819 182.923L63.2707 182.926L63.2594 182.929L63.2481 182.932L63.2369 182.935L63.2256 182.938L63.2143 182.941L63.2031 182.944L63.1918 182.948L63.1806 182.951L63.1693 182.954L63.158 182.957L63.1468 182.96L63.1355 182.963L63.1242 182.966L63.113 182.969L63.1017 182.972L63.0904 182.975L63.0792 182.978L63.0679 182.981L63.0567 182.984L63.0454 182.987L63.0341 182.99L63.0229 182.993L63.0116 182.997L63.0003 183L62.9891 183.003L62.9778 183.006L62.9665 183.009L62.9553 183.012L62.944 183.015L62.9328 183.018L62.9215 183.021L62.9102 183.024L62.899 183.027L62.8877 183.03L62.8764 183.033L62.8652 183.036L62.8539 183.039L62.8426 183.043L62.8314 183.046L62.8201 183.049L62.8089 183.052L62.7976 183.055L62.7863 183.058L62.7751 183.061L62.7638 183.064L62.7525 183.067L62.7413 183.07L62.73 183.073L62.7187 183.076L62.7075 183.079L62.6962 183.082L62.685 183.085L62.6737 183.088L62.6624 183.092L62.6512 183.095L62.6399 183.098L62.6286 183.101L62.6174 183.104L62.6061 183.107L62.5948 183.11L62.5836 183.113L62.5723 183.116L62.5611 183.119L62.5498 183.122L62.5385 183.125L62.5273 183.128L62.516 183.131L62.5047 183.134L62.4935 183.137L62.4822 183.141L62.471 183.144L62.4597 183.147L62.4484 183.15L62.4372 183.153L62.4259 183.156L62.4146 183.159L62.4034 183.162L62.3921 183.165L62.3808 183.168L62.3696 183.171L62.3583 183.174L62.3471 183.177L62.3358 183.18L62.3245 183.183L62.3133 183.187L62.302 183.19L62.2907 183.193L62.2795 183.196L62.2682 183.199L62.2569 183.202L62.2457 183.205L62.2344 183.208L62.2232 183.211L62.2119 183.214L62.2006 183.217L62.1894 183.22L62.1781 183.223L62.1668 183.226L62.1556 183.229L62.1443 183.232L62.133 183.236L62.1218 183.239L62.1105 183.242L62.0993 183.245L62.088 183.248L62.0767 183.251L62.0655 183.254L62.0542 183.257L62.0429 183.26L62.0317 183.263L62.0204 183.266L62.0091 183.269L61.9979 183.272L61.9866 183.275L61.9754 183.278ZM60.5121 183.676L59.6742 180.502L59.6845 180.499L59.6957 180.496L59.707 180.493L59.7183 180.49L59.7295 180.487L59.7408 180.484L59.752 180.481L59.7633 180.478L59.7648 180.477C60.6361 180.24 61.4925 180.78 61.763 181.647C62.0196 182.47 61.432 183.426 60.6027 183.652L60.6012 183.652L60.5899 183.655L60.5787 183.658L60.5674 183.661L60.5561 183.665L60.5449 183.668L60.5336 183.671L60.5224 183.674L60.5121 183.676Z" fill="#4A7DAB" stroke="#4A7DAB" stroke-width="0.539052"/>
<path d="M48.2021 215.827L47.4572 217.124C45.4507 220.618 43.0425 224.812 40.6508 228.977C38.2804 233.105 35.9261 237.204 33.9951 240.567L33.2394 241.883L31.9397 241.124C28.6113 239.178 22.4175 235.477 20.453 234.281C13.3411 229.954 12.6335 220.725 16.1318 214.632C20.2563 207.45 28.4939 204.196 35.1117 208.139L48.2021 215.827ZM48.2021 215.827L46.9202 215.079M48.2021 215.827L46.9202 215.079M46.9202 215.079C43.5148 213.093 36.9131 209.212 35.1118 208.139L46.9202 215.079Z" fill="#95C0E2" stroke="#4A7DAB" stroke-width="3"/>
<path d="M32.5672 241.538C34.1302 242.445 36.6563 243.867 38.7843 245.058C39.8504 245.655 40.8193 246.196 41.5217 246.587C41.8729 246.782 42.1575 246.941 42.3544 247.05L42.5812 247.176L42.6403 247.209L42.6485 247.214C46.81 249.625 50.8358 250.036 54.3185 248.968C57.7772 247.906 60.54 245.434 62.3001 242.369C64.6088 238.349 65.5282 234.343 64.7814 230.691C64.0281 227.007 61.6305 223.934 57.8112 221.717C56.9306 221.206 55.4563 220.297 53.8046 219.28C53.621 219.167 53.4351 219.052 53.2477 218.937C51.3903 217.793 49.3865 216.563 47.864 215.679C47.6125 215.533 47.3147 215.36 46.9943 215.173L46.9201 215.13L45.6212 214.373L44.8665 215.687C42.1441 220.427 38.6721 226.474 35.5106 231.98C34.0394 234.542 32.6354 236.988 31.4055 239.129L30.661 240.426L31.9417 241.174L31.9612 241.185C32.1725 241.309 32.3764 241.428 32.5672 241.538ZM32.5672 241.538C32.5665 241.537 32.5659 241.537 32.5652 241.537L33.3212 240.234M32.5672 241.538C32.5678 241.538 32.5685 241.539 32.5691 241.539L33.3212 240.234M33.3212 240.234C33.1337 240.126 32.9324 240.008 32.7191 239.884L32.7011 239.873M33.3212 240.234C36.4242 242.035 43.392 245.904 43.392 245.904C51.1007 250.378 57.8074 247.193 61.0045 241.625C65.3763 234.012 64.1103 227.115 57.0552 223.02C56.1564 222.498 54.6639 221.578 53.0201 220.565C51.142 219.408 49.0664 218.129 47.4529 217.183L32.7011 239.873M32.7011 239.873C33.9303 237.733 35.3335 235.289 36.8038 232.728C39.6823 227.715 42.8184 222.253 45.4119 217.737L45.4038 217.732L46.162 216.431L32.7011 239.873Z" fill="white" stroke="#4A7DAB" stroke-width="3"/>
<path d="M199.043 20.9494L154.354 4.7784C151.451 3.72806 148.222 5.20741 147.14 8.08639C138.244 31.7588 126.855 62.0644 122.346 74.0632C121.264 76.9421 122.737 80.1252 125.64 81.1756C136.18 84.9894 159.798 93.5358 170.338 97.3496C173.24 98.4 176.465 96.9205 177.547 94.0415C182.794 80.0793 197.101 42.0074 202.342 28.0608C203.424 25.1818 201.946 21.9997 199.043 20.9494Z" fill="white"/>
<path d="M199.535 19.6453C195.493 18.1829 191.452 16.7206 187.41 15.2582C180.066 12.6006 172.721 9.94284 165.377 7.28529L157.406 4.40117C155.74 3.79824 154.023 2.99921 152.21 3.06737C149.118 3.18403 146.738 5.18306 145.683 7.99108C144.535 11.0441 143.388 14.0978 142.24 17.1509C139.88 23.4323 137.519 29.7137 135.159 35.9944C131.093 46.8133 127.027 57.6329 122.961 68.4518C122.292 70.2328 121.536 72.0062 120.951 73.816C120.04 76.6327 120.986 79.7391 123.365 81.524C124.328 82.2464 125.491 82.6035 126.614 83.0096C127.63 83.3774 128.647 83.7454 129.664 84.1132C132.055 84.9786 134.448 85.8443 136.839 86.7097C147.078 90.4147 157.317 94.1195 167.556 97.8246C168.537 98.1796 169.524 98.6122 170.54 98.8555C171.999 99.2051 173.491 99.1067 174.895 98.559C176.203 98.048 177.395 97.0844 178.152 95.9081C178.718 95.0286 179.042 94.0382 179.406 93.0692C180.856 89.2113 182.305 85.3535 183.755 81.4956C187.511 71.5004 191.268 61.5052 195.024 51.5093C196.771 46.8597 198.518 42.2107 200.266 37.5611C200.979 35.6621 201.693 33.7638 202.406 31.8649C203.089 30.0494 204.125 28.069 204.094 26.1069C204.048 23.195 202.267 20.7 199.535 19.6453C197.856 18.9973 196.877 21.6039 198.555 22.252C200.883 23.1507 201.778 25.5628 200.939 27.825C200.349 29.4142 199.746 30.9986 199.15 32.5848C197.611 36.6818 196.071 40.7788 194.531 44.8758C190.846 54.6834 187.16 64.4909 183.474 74.2984C181.87 78.5688 180.265 82.8385 178.66 87.1089C178.025 88.8006 177.389 90.4923 176.753 92.184C176.446 93.0006 176.201 93.8728 175.679 94.5848C174.986 95.5302 173.918 96.1283 172.753 96.2733C171.683 96.407 170.742 96.0157 169.763 95.6612C168.797 95.3117 167.832 94.9624 166.866 94.6129C164.582 93.7865 162.298 92.9601 160.014 92.1337C154.789 90.2431 149.565 88.3528 144.341 86.4622C139.53 84.7214 134.719 82.9807 129.909 81.2401C128.952 80.8937 127.994 80.5473 127.037 80.2009C125.98 79.8186 125.017 79.4598 124.293 78.561C123.562 77.654 123.264 76.4705 123.446 75.3222C123.58 74.4721 124.001 73.6295 124.304 72.8247C127.933 63.1664 131.563 53.5087 135.192 43.8504C137.452 37.8362 139.712 31.822 141.973 25.8078C143.122 22.7495 144.271 19.6919 145.42 16.6337C145.981 15.142 146.541 13.6503 147.102 12.158C147.608 10.811 147.996 9.29526 148.687 8.02847C149.695 6.18139 151.921 5.4138 153.88 6.08566C154.248 6.21199 154.612 6.35052 154.978 6.4827L161.313 8.77531C168.252 11.2859 175.19 13.7965 182.128 16.3072L197.729 21.9522C198.004 22.0519 198.279 22.1515 198.555 22.2511C200.246 22.8631 201.228 20.2574 199.534 19.6444L199.535 19.6453Z" fill="#4A7DAB"/>
<path d="M165.229 20.8859C164.58 20.6355 162.539 19.8682 161.449 19.4701L158.605 27.0358C159.727 27.4438 161.902 28.245 162.498 28.468C164.381 29.1738 166.455 28.008 167.263 25.8584C167.938 24.0615 167.295 21.6823 165.229 20.8859Z" fill="#95C0E2"/>
<path d="M154.609 18.3299C153.787 18.7665 153.184 19.5151 152.857 20.3855C151.933 22.8428 152.662 24.8011 154.983 25.641C155.641 25.8791 157.28 26.5446 158.269 26.9023C158.36 26.9351 158.464 26.973 158.58 27.0148C159.387 24.8687 160.651 21.507 161.424 19.4487C161.352 19.4225 161.284 19.3977 161.22 19.3749C160.199 19.0055 157.917 18.2277 157.917 18.2277C156.609 17.7546 155.484 17.8652 154.609 18.3299Z" fill="white"/>
<path d="M159.926 19.5108C159.09 21.7373 158.255 23.9639 157.419 26.1904C157.163 26.8712 157.522 27.7418 158.241 27.967C158.961 28.1922 159.767 27.8698 160.041 27.1402C160.876 24.9137 161.712 22.6871 162.548 20.4606C162.803 19.7798 162.445 18.9092 161.726 18.684C161.006 18.4588 160.2 18.7812 159.926 19.5108Z" fill="#4A7DAB"/>
<path d="M160.743 20.686C161.897 21.105 163.046 21.5372 164.193 21.9725C165.189 22.3498 165.915 22.8716 166.08 23.991C166.236 25.0501 165.763 26.19 164.884 26.8345C164.057 27.4406 163.322 27.2854 162.438 26.958C160.154 26.1122 157.877 25.254 155.6 24.3921C154.704 24.0528 154.067 23.5977 153.915 22.7513C153.75 21.832 154.083 20.6829 154.693 20.0048C155.394 19.2263 156.459 19.2126 157.482 19.5524C158.573 19.9157 159.661 20.2959 160.744 20.6855C162.439 21.296 163.423 18.6856 161.725 18.0742C159.037 17.1068 155.929 15.5871 153.29 17.5392C150.633 19.5041 150.245 23.9781 152.856 26.0666C154.057 27.027 155.82 27.4804 157.248 28.021C158.599 28.5319 159.959 29.0148 161.314 29.5153C162.846 30.0825 164.342 30.3048 165.861 29.4895C167.522 28.5989 168.663 26.8703 168.886 25.0244C169.126 23.0448 168.215 20.9169 166.441 19.9188C164.997 19.1062 163.281 18.6388 161.726 18.0738C160.033 17.4587 159.049 20.0692 160.745 20.6851L160.743 20.686Z" fill="#4A7DAB"/>
<path d="M147.233 33.6501L185.312 47.4773C187.009 48.0935 187.995 45.4699 186.295 44.8528L148.216 31.0255C146.519 30.4094 145.533 33.033 147.233 33.6501Z" fill="#4A7DAB"/>
<path d="M138.397 57.2737L176.477 71.1009C178.173 71.7171 179.159 69.0935 177.459 68.4764L139.38 54.6491C137.683 54.033 136.698 56.6566 138.397 57.2737Z" fill="#4A7DAB"/>
<path d="M177.03 26.4825C176.208 26.9191 175.606 27.6676 175.279 28.5381C174.355 30.9954 175.084 32.9537 177.405 33.7936C178.063 34.0317 179.702 34.6972 180.691 35.0549C180.781 35.0877 180.886 35.1256 181.002 35.1674C181.809 33.0213 183.072 29.6596 183.846 27.6012C183.774 27.5751 183.705 27.5503 183.642 27.5275C182.621 27.1581 180.338 26.3803 180.338 26.3803C179.031 25.9072 177.906 26.0178 177.03 26.4825Z" fill="white"/>
<path d="M187.649 29.0386C187 28.7882 184.959 28.0209 183.869 27.6227L181.025 35.1885C182.147 35.5965 184.322 36.3976 184.918 36.6206C186.801 37.3265 188.875 36.1607 189.683 34.0111C190.358 32.2142 189.715 29.8349 187.649 29.0386Z" fill="#95C0E2"/>
<path d="M183.165 28.8385C184.319 29.2576 185.468 29.6897 186.615 30.1251C187.611 30.5024 188.337 31.0242 188.502 32.1436C188.658 33.2027 188.185 34.3426 187.306 34.9871C186.478 35.5932 185.744 35.438 184.86 35.1106C182.576 34.2648 180.299 33.4066 178.022 32.5447C177.125 32.2054 176.489 31.7503 176.337 30.9039C176.171 29.9846 176.505 28.8355 177.114 28.1574C177.816 27.3789 178.88 27.3652 179.903 27.705C180.995 28.0682 182.083 28.4485 183.166 28.8381C184.861 29.4486 185.844 26.8382 184.147 26.2268C181.459 25.2593 178.351 23.7397 175.711 25.6917C173.055 27.6567 172.667 32.1307 175.278 34.2192C176.479 35.1796 178.242 35.633 179.67 36.1736C181.02 36.6845 182.381 37.1674 183.736 37.6679C185.268 38.2351 186.764 38.4574 188.283 37.6421C189.943 36.7515 191.085 35.0229 191.308 33.177C191.547 31.1974 190.637 29.0695 188.863 28.0714C187.419 27.2588 185.703 26.7914 184.148 26.2264C182.454 25.6113 181.471 28.2217 183.167 28.8377L183.165 28.8385Z" fill="#4A7DAB"/>
<path d="M182.346 27.6634C181.51 29.8899 180.675 32.1165 179.839 34.343C179.583 35.0238 179.942 35.8944 180.661 36.1196C181.381 36.3448 182.187 36.0224 182.46 35.2928C183.296 33.0663 184.132 30.8397 184.968 28.6132C185.223 27.9324 184.865 27.0618 184.145 26.8366C183.426 26.6114 182.62 26.9338 182.346 27.6634Z" fill="#4A7DAB"/>
<path d="M156.352 44.6194C155.703 44.369 153.662 43.6017 152.572 43.2036L149.728 50.7693C150.85 51.1773 153.025 51.9784 153.621 52.2014C155.504 52.9073 157.578 51.7415 158.386 49.5919C159.061 47.795 158.418 45.4157 156.352 44.6194Z" fill="#95C0E2"/>
<path d="M145.734 42.0639C144.911 42.5004 144.309 43.249 143.982 44.1194C143.058 46.5768 143.787 48.535 146.108 49.3749C146.766 49.613 148.405 50.2785 149.394 50.6363C149.484 50.6691 149.589 50.7069 149.705 50.7488C150.512 48.6026 151.776 45.241 152.549 43.1826C152.477 43.1564 152.408 43.1317 152.345 43.1089C151.324 42.7394 149.042 41.9617 149.042 41.9617C147.734 41.4885 146.609 41.5991 145.734 42.0639Z" fill="white"/>
<path d="M151.049 43.2442C150.213 45.4708 149.378 47.6973 148.542 49.9239C148.286 50.6047 148.645 51.4753 149.364 51.7005C150.084 51.9257 150.89 51.6033 151.164 50.8737C151.999 48.6471 152.835 46.4206 153.671 44.194C153.926 43.5133 153.568 42.6427 152.848 42.4174C152.129 42.1922 151.323 42.5146 151.049 43.2442Z" fill="#4A7DAB"/>
<path d="M151.866 44.4201C153.02 44.8392 154.169 45.2713 155.316 45.7067C156.312 46.084 157.038 46.6057 157.203 47.7251C157.359 48.7842 156.886 49.9242 156.007 50.5686C155.179 51.1747 154.445 51.0195 153.561 50.6922C151.277 49.8463 149 48.9882 146.723 48.1263C145.826 47.7869 145.19 47.3319 145.038 46.4855C144.873 45.5662 145.206 44.4171 145.816 43.7389C146.517 42.9605 147.582 42.9467 148.604 43.2865C149.696 43.6498 150.784 44.0301 151.867 44.4197C153.562 45.0301 154.546 42.4197 152.848 41.8083C150.16 40.8409 147.052 39.3213 144.412 41.2733C141.756 43.2382 141.368 47.7122 143.979 49.8007C145.18 50.7611 146.943 51.2145 148.371 51.7551C149.721 52.266 151.082 52.7489 152.437 53.2494C153.969 53.8167 155.465 54.039 156.984 53.2236C158.645 52.3331 159.786 50.6044 160.009 48.7585C160.249 46.7789 159.338 44.6511 157.564 43.653C156.12 42.8404 154.404 42.3729 152.849 41.8079C151.156 41.1929 150.172 43.8033 151.868 44.4193L151.866 44.4201Z" fill="#4A7DAB"/>
<path d="M168.153 50.2166C167.331 50.6531 166.729 51.4017 166.402 52.2721C165.478 54.7295 166.207 56.6877 168.528 57.5276C169.186 57.7658 170.825 58.4312 171.814 58.789C171.904 58.8218 172.009 58.8596 172.125 58.9015C172.932 56.7554 174.195 53.3937 174.969 51.3353C174.897 51.3091 174.828 51.2844 174.765 51.2616C173.744 50.8922 171.461 50.1144 171.461 50.1144C170.154 49.6412 169.029 49.7518 168.153 50.2166Z" fill="white"/>
<path d="M178.772 52.772C178.123 52.5216 176.082 51.7543 174.992 51.3561L172.148 58.9219C173.27 59.3299 175.445 60.131 176.041 60.354C177.924 61.0599 179.998 59.8941 180.806 57.7445C181.481 55.9476 180.837 53.5683 178.772 52.772Z" fill="#95C0E2"/>
<path d="M174.288 52.5727C175.442 52.9918 176.59 53.4239 177.738 53.8593C178.734 54.2366 179.46 54.7584 179.625 55.8778C179.781 56.9369 179.308 58.0768 178.429 58.7213C177.601 59.3274 176.867 59.1722 175.983 58.8448C173.699 57.999 171.422 57.1408 169.145 56.2789C168.248 55.9395 167.612 55.4845 167.46 54.6381C167.294 53.7188 167.627 52.5697 168.237 51.8916C168.939 51.1131 170.003 51.0994 171.026 51.4392C172.118 51.8024 173.206 52.1827 174.289 52.5723C175.984 53.1828 176.967 50.5724 175.27 49.961C172.582 48.9935 169.473 47.4739 166.834 49.4259C164.178 51.3909 163.79 55.8649 166.401 57.9534C167.602 58.9138 169.365 59.3672 170.793 59.9077C172.143 60.4187 173.504 60.9016 174.858 61.4021C176.391 61.9693 177.886 62.1916 179.406 61.3763C181.066 60.4857 182.208 58.757 182.431 56.9111C182.67 54.9316 181.76 52.8037 179.986 51.8056C178.542 50.993 176.826 50.5256 175.271 49.9605C173.577 49.3455 172.594 51.9559 174.289 52.5719L174.288 52.5727Z" fill="#4A7DAB"/>
<path d="M173.471 51.3968C172.635 53.6234 171.799 55.8499 170.964 58.0765C170.708 58.7572 171.066 59.6278 171.786 59.853C172.506 60.0783 173.311 59.7559 173.585 59.0263C174.421 56.7997 175.257 54.5732 176.092 52.3466C176.348 51.6658 175.99 50.7952 175.27 50.57C174.551 50.3448 173.745 50.6672 173.471 51.3968Z" fill="#4A7DAB"/>
<path d="M147.475 68.3527C146.826 68.1023 144.785 67.335 143.695 66.9369L140.851 74.5026C141.973 74.9106 144.148 75.7118 144.744 75.9347C146.627 76.6406 148.701 75.4748 149.509 73.3252C150.184 71.5283 149.541 69.1491 147.475 68.3527Z" fill="#95C0E2"/>
<path d="M136.856 65.7973C136.034 66.2339 135.432 66.9825 135.105 67.8529C134.181 70.3103 134.91 72.2685 137.231 73.1084C137.889 73.3465 139.528 74.012 140.517 74.3697C140.607 74.4025 140.712 74.4404 140.828 74.4822C141.635 72.3361 142.898 68.9744 143.672 66.9161C143.6 66.8899 143.531 66.8652 143.468 66.8423C142.447 66.4729 140.164 65.6951 140.164 65.6951C138.857 65.222 137.732 65.3326 136.856 65.7973Z" fill="white"/>
<path d="M142.172 66.9776C141.336 69.2041 140.501 71.4307 139.665 73.6572C139.409 74.338 139.768 75.2086 140.487 75.4338C141.207 75.659 142.013 75.3366 142.286 74.607C143.122 72.3805 143.958 70.1539 144.794 67.9274C145.049 67.2466 144.691 66.376 143.971 66.1508C143.252 65.9256 142.446 66.248 142.172 66.9776Z" fill="#4A7DAB"/>
<path d="M142.991 68.1535C144.145 68.5726 145.294 69.0047 146.441 69.4401C147.437 69.8174 148.163 70.3392 148.328 71.4586C148.484 72.5177 148.011 73.6576 147.132 74.3021C146.304 74.9082 145.57 74.753 144.686 74.4256C142.402 73.5798 140.125 72.7216 137.848 71.8597C136.951 71.5204 136.315 71.0653 136.163 70.2189C135.997 69.2996 136.331 68.1505 136.94 67.4724C137.642 66.6939 138.706 66.6802 139.729 67.02C140.821 67.3832 141.909 67.7635 142.992 68.1531C144.687 68.7636 145.67 66.1532 143.973 65.5418C141.285 64.5743 138.177 63.0547 135.537 65.0067C132.881 66.9717 132.493 71.4457 135.104 73.5342C136.305 74.4946 138.068 74.948 139.496 75.4886C140.846 75.9995 142.207 76.4824 143.562 76.9829C145.094 77.5501 146.59 77.7724 148.109 76.9571C149.769 76.0665 150.911 74.3379 151.134 72.492C151.373 70.5124 150.463 68.3845 148.689 67.3864C147.245 66.5738 145.529 66.1064 143.974 65.5414C142.28 64.9263 141.297 67.5367 142.993 68.1527L142.991 68.1535Z" fill="#4A7DAB"/>
<path d="M159.276 73.95C158.454 74.3865 157.852 75.1351 157.525 76.0055C156.601 78.4629 157.33 80.4211 159.651 81.261C160.309 81.4991 161.948 82.1646 162.937 82.5224C163.027 82.5552 163.132 82.593 163.248 82.6349C164.055 80.4887 165.318 77.1271 166.092 75.0687C166.02 75.0425 165.951 75.0178 165.888 74.995C164.867 74.6256 162.584 73.8478 162.584 73.8478C161.277 73.3746 160.151 73.4852 159.276 73.95Z" fill="white"/>
<path d="M169.896 76.5053C169.247 76.2549 167.207 75.4876 166.116 75.0895L163.273 82.6552C164.394 83.0632 166.57 83.8644 167.166 84.0873C169.049 84.7932 171.123 83.6274 171.931 81.4778C172.606 79.6809 171.962 77.3017 169.896 76.5053Z" fill="#95C0E2"/>
<path d="M165.411 76.306C166.564 76.7251 167.713 77.1572 168.861 77.5926C169.857 77.9699 170.583 78.4916 170.748 79.611C170.904 80.6702 170.431 81.8101 169.552 82.4545C168.724 83.0606 167.99 82.9055 167.106 82.5781C164.822 81.7323 162.545 80.8741 160.268 80.0122C159.371 79.6728 158.735 79.2178 158.583 78.3714C158.417 77.4521 158.75 76.303 159.36 75.6249C160.062 74.8464 161.126 74.8327 162.149 75.1725C163.241 75.5357 164.329 75.916 165.411 76.3056C167.106 76.9161 168.09 74.3057 166.393 73.6942C163.705 72.7268 160.596 71.2072 157.957 73.1592C155.3 75.1242 154.913 79.5982 157.524 81.6866C158.725 82.6471 160.488 83.1004 161.916 83.641C163.266 84.152 164.627 84.6348 165.981 85.1353C167.514 85.7026 169.009 85.9249 170.529 85.1096C172.189 84.219 173.331 82.4903 173.554 80.6444C173.793 78.6648 172.883 76.537 171.109 75.5389C169.665 74.7263 167.949 74.2588 166.394 73.6938C164.7 73.0788 163.716 75.6892 165.412 76.3052L165.411 76.306Z" fill="#4A7DAB"/>
<path d="M164.594 75.1303C163.758 77.3568 162.922 79.5834 162.087 81.8099C161.831 82.4907 162.189 83.3613 162.909 83.5865C163.628 83.8117 164.434 83.4893 164.708 82.7597C165.544 80.5332 166.38 78.3066 167.215 76.0801C167.471 75.3993 167.113 74.5287 166.393 74.3035C165.674 74.0783 164.868 74.4007 164.594 75.1303Z" fill="#4A7DAB"/>
<path d="M177.118 380.211L186.737 417.046L136.759 430.103L127.14 393.267C127.046 392.907 126.977 392.546 126.927 392.186L127.74 392.037L175.987 379.433L176.775 379.164C176.908 379.502 177.024 379.85 177.118 380.211Z" fill="white"/>
<path d="M155.432 406.327L141.969 409.844C140.301 410.28 139.302 411.985 139.738 413.654L141.236 419.389C141.671 421.058 143.377 422.057 145.045 421.621L158.508 418.104C160.176 417.668 161.175 415.963 160.739 414.294L159.241 408.559C158.805 406.89 157.1 405.891 155.432 406.327Z" fill="#95C0E2"/>
<path d="M186.738 417.046L187.536 420.102C188.737 424.702 185.982 429.406 181.378 430.609L148.067 439.311C143.463 440.514 138.757 437.752 137.555 433.147L136.76 430.103L186.738 417.046Z" fill="white"/>
<path d="M176.779 379.163L175.991 379.432L127.744 392.036L126.931 392.186C126.482 388.703 128.207 385.323 131.195 383.614C131.569 383.402 131.841 383.066 131.994 382.685C132.153 382.302 132.186 381.871 132.076 381.451C131.829 380.505 131.813 379.524 132.011 378.589L165.694 369.789C165.793 369.902 165.886 370.017 165.973 370.133C166.463 370.775 166.828 371.52 167.036 372.318C167.255 373.157 168.001 373.765 168.868 373.772C172.304 373.802 175.468 375.906 176.779 379.163Z" fill="white"/>
<path d="M142.416 419.081L141.105 414.057C140.913 413.323 140.701 412.621 141.118 411.904C141.472 411.296 142.04 411.088 142.67 410.924C146.371 409.957 150.072 408.99 153.773 408.023C154.984 407.707 156.627 406.947 157.633 408.079C158.091 408.594 158.19 409.374 158.359 410.022L159.189 413.201C159.345 413.799 159.626 414.482 159.617 415.109C159.605 416.06 158.939 416.719 158.065 416.956C156.618 417.349 155.162 417.714 153.711 418.093L146.701 419.925C145.222 420.311 143.045 421.196 142.416 419.08C141.968 417.576 139.602 418.187 140.052 419.698C140.603 421.552 142.221 422.919 144.195 422.945C144.862 422.954 145.492 422.766 146.129 422.6L158.244 419.435C159.056 419.223 159.815 418.967 160.483 418.424C161.82 417.336 162.295 415.588 161.908 413.942C161.474 412.091 160.962 410.25 160.465 408.415C159.748 405.769 157.296 404.576 154.729 405.247C150.709 406.297 146.689 407.347 142.67 408.397C141.961 408.582 141.223 408.732 140.581 409.103C138.855 410.1 138.119 412.106 138.565 414.005C139.011 415.905 139.557 417.802 140.052 419.698C140.449 421.22 142.814 420.605 142.416 419.081Z" fill="#4A7DAB"/>
<path d="M128.053 393.218C140.605 389.939 153.156 386.66 165.707 383.381C169.237 382.459 172.767 381.537 176.298 380.615C177.819 380.217 177.204 377.851 175.68 378.25C163.128 381.529 150.577 384.807 138.026 388.086C134.496 389.009 130.966 389.931 127.435 390.853C125.914 391.25 126.529 393.616 128.053 393.218Z" fill="#4A7DAB"/>
<path d="M137.414 431.192C150.203 427.852 162.991 424.511 175.78 421.17C179.419 420.219 183.059 419.268 186.699 418.317C188.221 417.92 187.605 415.554 186.082 415.952C173.293 419.293 160.505 422.634 147.716 425.974C144.076 426.925 140.437 427.876 136.796 428.827C135.275 429.225 135.89 431.591 137.414 431.192Z" fill="#4A7DAB"/>
<path d="M136.165 399.971L172.527 390.472C174.048 390.075 173.433 387.709 171.909 388.107L135.547 397.606C134.026 398.004 134.641 400.369 136.165 399.971Z" fill="#4A7DAB"/>
<path d="M137.707 405.884L174.069 396.384C175.59 395.987 174.975 393.621 173.451 394.019L137.089 403.518C135.568 403.916 136.183 406.282 137.707 405.884Z" fill="#4A7DAB"/>
<path d="M165.884 408.977L176.08 406.313C177.601 405.916 176.986 403.55 175.462 403.948L165.267 406.612C163.745 407.009 164.361 409.375 165.884 408.977Z" fill="#4A7DAB"/>
<path d="M167.12 413.706L177.315 411.043C178.837 410.645 178.221 408.279 176.698 408.677L166.502 411.341C164.981 411.738 165.596 414.104 167.12 413.706Z" fill="#4A7DAB"/>
<path d="M131.673 376.108C130.935 377.437 130.551 378.941 130.683 380.465C130.726 380.958 131.032 381.671 130.889 382.159C130.754 382.621 130.064 382.865 129.705 383.129C127.613 384.669 126.164 386.978 125.768 389.554C125.446 391.647 125.947 393.534 126.465 395.516L135.696 430.864C136.086 432.359 136.398 433.929 137.072 435.329C139.101 439.538 143.969 441.604 148.433 440.478C153.12 439.296 157.787 438.034 162.464 436.813L180.218 432.174C182.72 431.521 185.067 430.65 186.769 428.549C188.95 425.855 189.435 422.54 188.574 419.245L179.589 384.836C179.177 383.261 178.769 381.684 178.354 380.109C177.281 376.036 173.931 373.048 169.717 372.597C169.293 372.551 168.695 372.672 168.382 372.319C168.049 371.943 167.971 371.225 167.768 370.776C167.139 369.383 166.068 368.257 164.775 367.46C163.433 366.632 162.2 368.742 163.54 369.568C164.729 370.302 165.413 371.322 165.851 372.625C166.32 374.016 167.368 374.892 168.848 374.993C171.193 375.153 173.349 376.066 174.762 378.028C175.759 379.414 176.076 381.055 176.498 382.669L185.581 417.454C185.89 418.636 186.267 419.823 186.49 421.027C187.202 424.856 184.618 428.484 180.949 429.457C176.275 430.696 171.591 431.901 166.912 433.124L149.432 437.69C148.909 437.827 148.386 437.966 147.862 438.1C146.306 438.501 144.709 438.447 143.202 437.867C141.159 437.082 139.508 435.337 138.852 433.248C138.731 432.859 138.636 432.46 138.533 432.067L128.399 393.256C128.12 392.19 127.988 391.109 128.151 390.008C128.317 388.886 128.757 387.82 129.39 386.884C130.081 385.861 130.991 385.243 131.98 384.553C133.122 383.757 133.51 382.467 133.257 381.139C132.999 379.789 133.101 378.562 133.779 377.342C134.542 375.967 132.436 374.728 131.671 376.107L131.673 376.108Z" fill="#4A7DAB"/>
<path d="M163.996 359.371L128.394 368.672C125.783 369.354 124.219 372.025 124.901 374.636L125.549 377.12C125.975 378.753 127.644 379.73 129.276 379.304L168.424 369.077C170.056 368.651 171.034 366.981 170.608 365.349L169.959 362.865C169.277 360.253 166.607 358.689 163.996 359.371Z" fill="#95C0E2"/>
<path d="M163.687 358.189C157.41 359.829 151.132 361.469 144.854 363.109L132.635 366.301C131.413 366.62 130.19 366.939 128.968 367.259C127.72 367.585 126.56 367.973 125.555 368.849C124.295 369.948 123.554 371.621 123.52 373.285C123.497 374.418 123.869 375.525 124.152 376.609C124.483 377.876 124.912 379.013 126.019 379.82C127.07 380.587 128.372 380.769 129.62 380.477C131.677 379.996 133.714 379.407 135.756 378.874C144.309 376.639 152.862 374.405 161.414 372.171C163.784 371.552 166.158 370.947 168.524 370.313C170.891 369.679 172.347 367.48 171.789 365.04C171.252 362.69 170.65 360.32 168.486 358.931C167.061 358.018 165.316 357.799 163.686 358.188C162.156 358.553 162.773 360.918 164.304 360.553C165.684 360.223 167.128 360.651 168.051 361.752C168.688 362.513 168.857 363.483 169.1 364.415C169.325 365.276 169.723 366.204 169.233 367.046C168.952 367.528 168.512 367.784 167.992 367.926C165.907 368.494 163.809 369.018 161.718 369.565L137.249 375.957C134.686 376.627 132.123 377.296 129.559 377.966C128.52 378.237 127.341 378.289 126.821 377.087C126.496 376.337 126.375 375.452 126.169 374.662C125.887 373.584 125.884 372.538 126.465 371.547C127.578 369.647 130.512 369.38 132.46 368.871L143.709 365.933C150.447 364.172 157.186 362.412 163.924 360.651L164.302 360.553C165.824 360.155 165.209 357.79 163.685 358.188L163.687 358.189Z" fill="#4A7DAB"/>
</svg>
