<svg width="192" height="214" viewBox="0 0 192 214" fill="none" xmlns="http://www.w3.org/2000/svg">
<path d="M2.59843 50.0306C3.37267 44.012 7.95578 40.5918 13.042 39.992C18.7801 39.3155 24.5944 42.231 29.0171 45.6031C30.7675 46.9378 32.3806 48.4464 33.8517 50.0787C34.2037 50.469 34.3421 50.6212 34.6779 51.0264C35.2248 51.6858 35.3656 52.3428 34.6271 52.724C33.546 53.2825 32.6275 53.7541 31.5406 54.3013C26.8836 56.6444 21.7905 59.2061 16.5878 60.2889C10.5416 61.548 1.58304 57.9126 2.59843 50.0306Z" fill="white"/>
<path d="M22.6202 17.7837C25.7494 15.0789 29.6275 15.396 32.4787 17.3682C35.6945 19.5923 37.3168 23.6729 38.0252 27.361C38.3056 28.8204 38.4372 30.3073 38.4407 31.7931C38.4407 32.1491 38.4429 32.2876 38.4291 32.6424C38.406 33.2216 38.1787 33.6177 37.6318 33.4803C36.8298 33.28 36.1491 33.1083 35.3495 32.8988C31.9237 32.0026 28.176 31.0227 25.0467 29.244C21.4086 27.1767 18.5205 21.3253 22.619 17.7837H22.6202Z" fill="white"/>
<path d="M0.150681 49.361C1.01492 43.4065 5.6811 38.7181 11.6442 37.6684C18.9066 36.3898 25.9001 39.8856 31.4121 44.2925C32.8013 45.4028 34.0971 46.6219 35.3052 47.9245C36.5133 49.2271 38.0006 50.7117 37.5829 52.6496C37.1698 54.5657 35.2983 55.2216 33.721 56.0228C32.0433 56.8745 30.3632 57.7227 28.6648 58.5319C22.9174 61.2688 16.4835 64.1384 10.0035 62.5405C4.17764 61.1039 -0.625862 56.2941 0.0618362 50.0318C0.210686 48.6799 1.12225 47.5135 2.60033 47.5135C3.85804 47.5135 5.28764 48.6708 5.13879 50.0318C4.87571 52.4286 5.53225 54.4032 7.45112 55.8946C9.12882 57.1995 11.4735 57.9184 13.5435 58.0042C16.615 58.1324 19.8955 56.8859 22.8678 55.6463C24.7601 54.8576 26.6051 53.9545 28.4386 53.0422C30.1417 52.1951 32.0986 51.442 33.6471 50.3374L32.7367 51.2405L32.6894 51.3103V52.6496C32.6109 52.2707 31.8379 51.6148 31.5448 51.3012C30.909 50.6224 30.2479 49.9677 29.5613 49.3392C28.2701 48.1568 26.8901 47.0969 25.419 46.1445C22.644 44.3497 19.4905 42.8136 16.1524 42.4782C13.5193 42.2138 10.7915 42.706 8.61768 44.2662C6.45767 45.816 5.42149 48.1419 5.04995 50.7002C4.85495 52.0475 3.12994 52.7869 1.92763 52.4596C0.469154 52.0624 -0.0419884 50.7128 0.154167 49.3621L0.150681 49.361Z" fill="#1A5E9D"/>
<path d="M20.824 16.0023C22.7717 14.3701 25.0656 13.3216 27.6525 13.3033C29.9175 13.2861 32.2379 14.0622 34.0494 15.4025C37.6529 18.0684 39.6064 22.2819 40.4499 26.5777C40.7106 27.9032 40.8814 29.2562 40.9483 30.6046C41.006 31.7767 41.0983 33.069 40.6299 34.1679C40.2757 35.0001 39.5487 35.6731 38.658 35.9169C37.8433 36.139 37.0241 35.9272 36.2325 35.7269C35.0868 35.4385 33.9433 35.1409 32.8033 34.8318C30.3987 34.1816 28.0379 33.4273 25.7602 32.4177C23.9094 31.597 22.1625 30.5474 20.8574 28.9792C19.302 27.1089 18.2659 24.9352 18.0928 22.4948C17.9197 20.0544 19.0009 17.6335 20.8228 16.0023C21.8405 15.0912 23.4086 15.0065 24.4125 16.0023C25.3459 16.9284 25.4336 18.6488 24.4125 19.5633C24.1794 19.7728 23.9625 19.9891 23.7513 20.2215C24.034 19.9102 23.7179 20.2696 23.629 20.4115C23.5171 20.5889 23.4225 20.7732 23.3278 20.9587C23.6048 20.4184 23.2759 21.1624 23.239 21.3021C23.1998 21.4532 23.1259 22.0461 23.1871 21.4097C23.1686 21.6065 23.1547 21.8023 23.1524 22.0003C23.1501 22.2304 23.1917 22.4639 23.1859 22.6917C23.2055 22.8817 23.1986 22.8233 23.164 22.5154C23.1871 22.647 23.2148 22.7787 23.2448 22.908C23.2909 23.1049 23.3463 23.2995 23.4075 23.4918C23.4305 23.5639 23.7098 24.2564 23.5701 23.9542C23.4282 23.6474 23.7675 24.3308 23.8009 24.3926C23.9002 24.5735 24.0052 24.752 24.1159 24.926C24.2452 25.1298 24.3951 25.3186 24.5255 25.5201C24.634 25.6655 24.6075 25.63 24.4459 25.4148C24.5325 25.5201 24.6225 25.6231 24.7136 25.7238C25.0009 26.042 25.3898 26.303 25.654 26.6315C25.7959 26.7483 25.7532 26.7185 25.5259 26.5423C25.6298 26.619 25.7348 26.6934 25.8421 26.7655C26.0002 26.8708 26.1617 26.9704 26.3255 27.0654C26.8875 27.3916 27.4736 27.68 28.0644 27.9502C28.121 27.9765 28.7787 28.2615 28.4925 28.1425C28.7533 28.2512 29.0187 28.352 29.2841 28.4515C29.9048 28.685 30.5325 28.9002 31.1648 29.1017C32.329 29.4749 33.5083 29.8011 34.6899 30.1159C35.3268 30.2853 35.9649 30.4524 36.6029 30.6172C36.8822 30.6893 37.1614 30.7603 37.4407 30.8313C37.6299 30.8793 37.8191 30.9263 38.0083 30.9743C38.411 31.0751 38.4018 31.0728 37.9818 30.9663L36.701 31.3097C36.1795 31.6543 35.9083 32.0972 35.8887 32.6375C35.8933 32.5276 35.8968 32.4189 35.8979 32.309C35.9037 32.0366 35.9026 31.763 35.8979 31.4906C35.8887 30.8965 35.861 30.3024 35.8091 29.7095C35.726 28.7469 35.5506 27.7625 35.2725 26.6556C35.0198 25.6483 34.7083 24.6444 34.2987 23.6875C34.4833 24.119 34.091 23.2651 34.0518 23.1873C33.9433 22.971 33.8314 22.758 33.7125 22.5474C33.4587 22.0942 33.1806 21.6523 32.8771 21.23C32.8079 21.1327 32.7375 21.0365 32.6648 20.9415C32.816 21.1395 32.7975 21.1235 32.6117 20.8957C32.449 20.7217 32.2967 20.5409 32.1294 20.3703C31.9621 20.1998 31.7914 20.0372 31.6137 19.8793C31.4948 19.774 31.3748 19.6709 31.2514 19.5713C31.4198 19.6973 31.4325 19.7087 31.2894 19.6057C30.8683 19.3092 30.431 19.0597 29.9729 18.825C29.3371 18.5 30.3929 18.9407 29.7168 18.7174C29.4583 18.6316 29.201 18.548 28.9356 18.4816C28.8248 18.4542 28.0217 18.3122 28.5802 18.3832C28.3494 18.3534 28.1152 18.3409 27.8821 18.3351C27.6467 18.3294 27.4137 18.3466 27.1794 18.3512C26.876 18.3809 26.8667 18.3786 27.1494 18.3443C27.0317 18.3637 26.914 18.3866 26.7975 18.413C26.5194 18.4736 26.2529 18.5606 25.9806 18.6385C25.5063 18.7747 26.1467 18.5068 25.6655 18.7667C25.4382 18.8903 25.2086 19.007 24.9882 19.1432C24.8371 19.2371 24.6894 19.3356 24.5451 19.4386C24.6963 19.3184 24.6502 19.3573 24.409 19.5565C23.3625 20.4333 21.8463 20.5752 20.8194 19.5565C19.9124 18.6568 19.7671 16.8768 20.8194 15.9955L20.824 16.0023Z" fill="#1A5E9D"/>
<path d="M74.5795 121.679C63.8766 123.902 56.6441 115.691 56.438 109.57C56.3982 104.412 56.9196 99.2653 57.9933 94.2185C59.4468 88.0881 60.2163 77.3813 59.599 62.6043C57.9548 40.8315 63.0652 24.7815 71.805 15.7485C77.0727 10.3034 89.1402 2.68179 103.034 2.10688C109.946 1.71242 116.865 2.73394 123.363 5.10797L126.496 6.22127L129.674 7.8959C132.419 9.33955 133.43 10.638 136.298 13.1483C143.499 19.4511 148.808 31.1073 150.021 41.6918C150.371 44.7489 151.111 52.0419 151.167 58.2199C151.623 68.8316 153.558 79.3294 156.916 89.4137C158.941 95.2962 161.645 102.862 159.976 108.855C157.94 116.168 149.735 120.957 142.339 118.681L74.5795 121.679Z" fill="#1A5E9D"/>
<path d="M122.268 39.3811C120.998 36.3316 119.695 32.4405 118.671 29.1057C113.182 37.3122 105.224 43.5876 95.9328 47.0367C95.3106 47.2847 94.6283 47.3438 93.9722 47.2065C93.2216 46.8906 93.001 46.5654 93.0232 45.5998C93.0796 43.1957 93.8782 39.1943 94.0586 36.8658C86.3636 45.0258 77.7725 53.7573 70.2442 59.8189C69.2102 59.1589 67.9872 58.8529 66.7617 58.9476C65.8359 58.9529 64.9289 59.2076 64.1375 59.6847C63.346 60.1618 62.6998 60.8433 62.2678 61.6566C60.8143 64.4038 61.0708 69.3538 62.2345 72.3787C63.0604 74.5204 64.4036 77.7941 67.4252 80.0623C68.1401 80.6145 68.9722 80.9975 69.8585 81.1824C70.7448 81.3672 71.6618 81.3489 72.5399 81.1289C74.3488 86.5206 77.2505 91.4872 81.066 95.7225C83.8791 98.9824 87.3186 101.652 91.1832 103.576C91.2871 105.609 91.2717 107.646 91.137 109.677C90.7493 111.367 89.7562 112.859 88.3429 113.874C86.1438 115.201 82.9239 115.977 80.2631 116.762C85.4786 122.275 97.5402 125.387 108.92 124.988C120.067 124.528 130.83 121.115 136.557 114.96C136.557 114.96 136.588 114.926 136.65 114.865C133.567 114.333 129.731 113.377 127.821 112.113C127.182 111.742 126.624 111.249 126.178 110.663C125.732 110.076 125.408 109.408 125.224 108.696C124.749 106.603 124.473 104.471 124.399 102.327C132.498 97.5797 138.592 86.1647 139.651 82.925C140.228 81.4897 140.711 80.0186 141.096 78.521L141.546 78.5787C142.382 78.6565 143.225 78.5616 144.022 78.2998C144.819 78.038 145.552 77.6152 146.176 77.0578C149.013 74.5654 150.101 71.1983 150.758 69.0005C151.687 65.8967 151.561 60.9416 149.897 58.3133C149.403 57.5354 148.706 56.9051 147.88 56.4897C147.054 56.0742 146.13 55.8892 145.207 55.9542C144.473 55.9496 143.746 56.0912 143.068 56.3707C142.391 56.6502 141.776 57.0618 141.262 57.5813C135.23 56.1071 128.219 50.1439 123.948 42.8815C123.312 41.7521 122.751 40.5828 122.268 39.3811Z" fill="white"/>
<path d="M149.115 58.22C149.599 69.0117 151.558 79.688 154.937 89.9557C156.476 94.4429 158.223 99.0719 158.426 103.855C158.57 105.766 158.271 107.683 157.55 109.46C156.83 111.237 155.708 112.826 154.271 114.104C152.75 115.461 150.908 116.412 148.917 116.869C146.925 117.326 144.85 117.273 142.884 116.716C140.348 115.967 139.264 119.9 141.793 120.646C150.515 123.221 160.418 117.354 162.184 108.437C163.2 103.303 161.889 98.0104 160.327 93.1207C158.653 87.8845 156.859 82.7485 155.698 77.3628C154.375 71.055 153.546 64.655 153.218 58.22C153.07 55.6121 148.965 55.5951 149.114 58.22H149.115Z" fill="#1A5E9D"/>
<path d="M128.637 9.65642C130.025 10.419 131.311 11.3522 132.464 12.4342C133.81 13.6596 135.212 14.84 136.482 16.1444C138.94 18.7423 141.013 21.6746 142.638 24.853C145.837 31.1287 147.766 37.9663 148.317 44.9791C148.744 49.3806 149.067 53.7998 149.116 58.2267C149.145 60.8482 153.249 60.855 153.22 58.2267C153.175 54.0996 152.888 49.9759 152.505 45.8666C152.249 42.3891 151.746 38.9341 150.998 35.5275C149.227 27.6935 145.567 20.404 140.332 14.2863C138.832 12.7008 137.252 11.1926 135.597 9.76767C134.127 8.36159 132.486 7.14396 130.711 6.14325C128.388 4.89492 126.314 8.41318 128.639 9.66321L128.637 9.65642Z" fill="#1A5E9D"/>
<path d="M123.91 3.14306C116.636 0.554843 108.887 -0.45319 101.187 0.18699C93.383 0.92618 85.8534 3.43083 79.1755 7.50884C74.159 10.4155 69.8299 14.3587 66.4812 19.0716C63.0227 24.2776 60.5679 30.0764 59.2419 36.1729C57.344 44.8481 56.7733 53.7578 57.549 62.6019C57.5616 63.1385 57.7818 63.6497 58.164 64.0292C58.5461 64.4087 59.0607 64.6275 59.601 64.64C60.1439 64.6356 60.6632 64.4194 61.0471 64.0382C61.4309 63.6569 61.6485 63.1411 61.653 62.6019C60.6757 49.3543 61.6787 34.8694 68.6923 23.1988C74.8739 12.9106 86.9706 6.39128 98.8252 4.54171C106.911 3.39884 115.156 4.26872 122.819 7.07319C123.344 7.21689 123.905 7.14762 124.378 6.88063C124.852 6.61363 125.199 6.17078 125.344 5.6495C125.488 5.12822 125.419 4.57121 125.15 4.101C124.881 3.63079 124.435 3.28676 123.91 3.14306Z" fill="#1A5E9D"/>
<path d="M57.5468 62.6044C57.7973 68.6949 57.87 74.8007 57.5622 80.8903C57.4345 84.9431 56.9715 88.9785 56.1779 92.9558C55.0348 98.017 54.4287 103.183 54.3696 108.37C54.3627 110.431 54.7851 112.471 55.6102 114.362C56.4354 116.254 57.6455 117.955 59.1645 119.359C61.2735 121.309 63.8294 122.718 66.6105 123.464C69.3917 124.211 72.3142 124.273 75.1248 123.644C75.6466 123.496 76.089 123.151 76.3571 122.682C76.6252 122.213 76.6976 121.659 76.5587 121.138C76.4046 120.622 76.0556 120.186 75.5849 119.921C75.1142 119.655 74.5583 119.581 74.0338 119.714C71.9448 120.168 69.7768 120.119 67.7108 119.571C65.6448 119.023 63.7408 117.992 62.1578 116.564C60.8646 115.393 59.8385 113.962 59.1482 112.365C58.883 111.666 58.679 110.945 58.5386 110.211C58.43 109.571 58.5548 110.596 58.5121 109.956C58.5035 109.826 58.495 109.696 58.4899 109.566C58.4608 108.929 58.4693 108.293 58.4805 107.651C58.604 103.008 59.1714 98.3862 60.1751 93.8492C60.9576 89.8744 61.4397 85.847 61.6175 81.8007C61.9834 75.4079 61.9141 68.9947 61.6508 62.6001C61.5431 59.9863 57.4382 59.9727 57.5468 62.6001V62.6044Z" fill="#1A5E9D"/>
<path d="M34.0297 211.968C35.9774 202.814 45.308 139.798 49.3838 133.713C56.3717 123.241 68.1486 120.57 80.0785 116.551C85.1811 122.198 97.4 125.393 108.922 124.988C120.43 124.515 131.531 120.891 137.101 114.351C149.692 117.909 158.676 121.217 165.761 128.131C170.794 133.627 185.525 197.686 187.954 211.968H34.0297Z" fill="#C4EDFB"/>
<path d="M37.0082 199.523C37.9687 194.963 44.2229 150.497 45.7638 146.097C47.0445 142.245 48.7742 138.555 50.9178 135.103C55.1484 128.583 62.0158 124.929 69.1645 122.335C73.4993 120.762 77.9291 119.461 82.2845 117.947C82.802 117.792 83.2397 117.446 83.5066 116.979C83.7736 116.512 83.8494 115.961 83.7183 115.44C83.5694 114.922 83.2214 114.482 82.7492 114.216C82.2769 113.949 81.7183 113.878 81.1935 114.016C73.2719 116.77 64.8629 118.784 57.6458 123.188C54.0804 125.338 50.9653 128.15 48.4708 131.471C46.0169 134.969 44.0505 138.78 42.6251 142.802C40.6901 147.897 34.1608 193.109 33.0504 198.442C32.5023 201.001 36.4576 202.094 37.0082 199.526V199.523Z" fill="#1A5E9D"/>
<path d="M136.055 116.175C144.369 118.517 152.941 121.015 160.081 126.034C162.842 127.954 165.22 130.368 167.092 133.153C169.224 136.359 170.017 139.777 171.44 143.35C173.524 148.576 187.044 206.963 187.977 212.507C188.126 213.026 188.474 213.466 188.946 213.732C189.419 213.998 189.977 214.07 190.502 213.93C191.02 213.776 191.458 213.429 191.725 212.962C191.992 212.495 192.067 211.944 191.935 211.423C190.34 202.177 176.295 139.917 171.203 131.959C169.277 128.859 166.823 126.116 163.95 123.853C160.572 121.274 156.868 119.147 152.934 117.523C147.789 115.436 142.517 113.672 137.15 112.244C134.604 111.527 133.517 115.459 136.059 116.175H136.055Z" fill="#1A5E9D"/>
<path d="M72.2504 58.8041C71.0459 57.7942 69.5697 57.1572 68.0045 56.9718C66.4393 56.7865 64.8537 57.061 63.4439 57.7613C62.4101 58.3281 61.5211 59.123 60.8455 60.0849C60.1698 61.0468 59.7255 62.1499 59.5468 63.3092C59.0704 65.9709 59.1471 68.7013 59.7719 71.3326C60.3968 73.9638 61.5568 76.4404 63.1805 78.6102C65.4942 81.6928 68.6893 83.8752 72.7044 83.1959C73.2268 83.0485 73.6699 82.703 73.938 82.234C74.2061 81.765 74.2777 81.21 74.1374 80.689C73.9824 80.1744 73.6335 79.7391 73.1632 79.4738C72.693 79.2084 72.1378 79.1336 71.6134 79.2649C69.0373 79.7039 66.928 77.0756 65.778 75.1488C64.5588 73.1821 63.7602 70.9872 63.4319 68.7008C63.1754 66.6372 63.1224 64.0301 64.3126 62.2298C64.5742 61.8349 64.2356 62.2867 64.5126 61.9878C64.546 61.9513 64.9401 61.5861 64.7572 61.733C65.1609 61.426 65.6281 61.2116 66.1252 61.1055C66.6723 60.9503 67.248 60.9226 67.8076 61.0243C68.3673 61.1261 68.8957 61.3547 69.352 61.6923C69.7439 62.0609 70.2631 62.2664 70.8029 62.2664C71.3427 62.2664 71.8619 62.0609 72.2539 61.6923C72.6349 61.3081 72.8485 60.7905 72.8485 60.2512C72.8485 59.7119 72.6349 59.1942 72.2539 58.8101L72.2504 58.8041Z" fill="#1A5E9D"/>
<path d="M142.731 58.9968C143.156 58.5947 143.67 58.2978 144.232 58.1303C144.794 57.9628 145.388 57.9295 145.965 58.0329C146.386 58.0724 146.794 58.2017 147.16 58.4122C147.526 58.6227 147.841 58.9093 148.085 59.2524C147.883 58.9976 148.038 59.1836 148.125 59.3432C148.25 59.5725 148.392 59.7865 148.5 60.0226C148.726 60.5647 148.896 61.128 149.007 61.704C149.263 62.965 149.349 64.2539 149.264 65.5374C149.114 67.7491 148.52 69.9085 147.516 71.8886C146.355 74.2315 144.476 76.8139 141.55 76.5388C141.007 76.5426 140.487 76.7585 140.103 77.1399C139.719 77.5213 139.502 78.0375 139.498 78.5769C139.509 79.114 139.729 79.626 140.111 80.0058C140.494 80.3857 141.009 80.6039 141.55 80.615C147.846 81.1992 151.432 74.3861 152.814 69.2849C153.53 66.498 153.594 63.585 152.999 60.7699C152.824 59.6078 152.41 58.494 151.783 57.4974C151.156 56.5008 150.33 55.6428 149.355 54.9766C147.857 54.1192 146.12 53.7664 144.404 53.9709C142.688 54.1754 141.084 54.9263 139.833 56.1112C137.932 57.9395 140.836 60.8209 142.735 58.9934L142.731 58.9968Z" fill="#1A5E9D"/>
<path d="M139.683 75.3858C139.413 76.9176 139.038 78.4293 138.561 79.9104C138.191 81.0865 137.877 81.8814 137.557 82.7229C137.507 82.8512 137.457 82.9777 137.408 83.1085C137.263 83.4949 137.4 83.1356 137.38 83.1832C137.217 83.5458 137.054 83.9076 136.881 84.2651C136.485 85.0871 136.057 85.8939 135.611 86.6904C133.293 90.9944 130.262 94.8794 126.644 98.1819C124.712 99.9698 122.394 101.296 119.868 102.058C117.323 102.748 118.403 106.682 120.959 105.989C126.32 104.536 130.659 100.518 134.04 96.2975C137.001 92.7011 139.435 88.7064 141.268 84.4324C141.387 84.1445 141.501 83.8541 141.604 83.5602C141.397 84.1547 141.824 83.0057 141.896 82.8163C142.019 82.4945 142.133 82.1692 142.243 81.8431C142.852 80.0915 143.32 78.2946 143.643 76.4694C143.771 75.9487 143.694 75.3989 143.428 74.9328C143.161 74.4667 142.725 74.1195 142.209 73.9625C141.684 73.8227 141.125 73.8935 140.652 74.1599C140.18 74.4262 139.832 74.8666 139.683 75.3858Z" fill="#1A5E9D"/>
<path d="M69.7593 79.0128C73.3581 92.3657 83.9524 106.071 98.5978 107.666C99.1409 107.662 99.6608 107.446 100.045 107.065C100.429 106.684 100.646 106.167 100.65 105.628C100.638 105.091 100.418 104.58 100.035 104.2C99.6531 103.82 99.1382 103.602 98.5978 103.59C92.2366 102.897 86.9868 99.1279 82.77 94.5575C78.4528 89.8163 75.3476 84.113 73.7163 77.9292C73.0323 75.3977 69.0745 76.472 69.7593 79.0128Z" fill="#1A5E9D"/>
<path d="M104.086 88.5537C104.342 88.4076 104.593 88.265 104.855 88.135C105.017 88.0762 105.173 88.0037 105.322 87.9185C104.993 88.1733 105.022 88.0408 105.267 87.9491C105.366 87.9117 105.467 87.876 105.567 87.8421C106.067 87.6739 106.578 87.5406 107.096 87.4429C107.267 87.4098 107.444 87.3826 107.619 87.358C107.309 87.409 107.571 87.364 107.737 87.3461C108.123 87.3054 108.509 87.2771 108.897 87.2612C109.598 87.2316 110.3 87.2509 110.998 87.3189C111.225 87.3419 111.34 87.3733 111.045 87.3189C111.2 87.347 111.355 87.3699 111.511 87.4039C111.744 87.4506 111.976 87.5049 112.206 87.5686C112.436 87.6323 112.642 87.7036 112.858 87.7784C113.24 87.9108 112.745 87.7784 112.726 87.7172C112.813 87.7658 112.904 87.8078 112.998 87.8429C113.257 87.9699 113.505 88.1179 113.74 88.2853C114.21 88.5558 114.769 88.6308 115.295 88.4938C115.821 88.3569 116.271 88.0192 116.548 87.5542C116.808 87.0841 116.876 86.5328 116.739 86.014C116.602 85.4952 116.27 85.0483 115.811 84.7654C113.883 83.388 111.194 83.1009 108.897 83.1867C106.484 83.2293 104.12 83.865 102.015 85.0371C101.782 85.1722 101.579 85.3515 101.416 85.5648C101.253 85.7781 101.134 86.0211 101.066 86.2801C100.997 86.5391 100.981 86.8089 101.017 87.0741C101.054 87.3393 101.143 87.5948 101.279 87.8259C101.415 88.057 101.596 88.2593 101.81 88.4211C102.025 88.583 102.27 88.7012 102.53 88.7691C102.791 88.837 103.063 88.8532 103.33 88.8168C103.597 88.7805 103.854 88.6922 104.087 88.5571L104.086 88.5537Z" fill="#1A5E9D"/>
<path d="M107.266 70.7882C107.442 71.3622 107.608 71.9405 107.759 72.5197C107.939 73.1261 108.082 73.743 108.187 74.3667L108.113 73.8249C108.128 73.9486 108.131 74.0735 108.121 74.1977L108.193 73.6559C108.183 73.7319 108.164 73.8065 108.138 73.8784L108.345 73.3918C108.321 73.4419 108.293 73.4894 108.259 73.5336L108.581 73.1209C108.557 73.1497 108.53 73.1759 108.5 73.199L108.915 72.8806C108.807 72.9538 108.692 73.0174 108.573 73.0708L109.063 72.8653C108.919 72.9264 108.768 72.9697 108.613 72.9944L109.159 72.9222C109.001 72.9409 108.841 72.9409 108.682 72.9222L109.228 72.9952C108.913 72.9528 108.601 72.8967 108.287 72.867C108.018 72.8663 107.75 72.9185 107.501 73.0205C107.252 73.1225 107.025 73.2723 106.834 73.4614C106.449 73.8437 106.233 74.362 106.233 74.9026C106.233 75.4431 106.449 75.9614 106.834 76.3437C107.234 76.7032 107.748 76.9134 108.287 76.9381L108.373 76.9466L107.827 76.8744C108.212 76.9512 108.602 76.9969 108.994 77.0111C109.623 76.9914 110.239 76.8232 110.789 76.5203C111.126 76.3456 111.421 76.1015 111.655 75.8043C111.888 75.5072 112.055 75.1638 112.145 74.7972C112.262 74.1823 112.241 73.5492 112.082 72.9434C111.851 71.8514 111.553 70.7712 111.227 69.7037C111.077 69.1958 110.742 68.7617 110.287 68.486C109.934 68.2814 109.529 68.1858 109.121 68.2113C108.714 68.2369 108.324 68.3825 108 68.6296C107.676 68.8766 107.434 69.2139 107.305 69.5982C107.175 69.9826 107.164 70.3966 107.272 70.7873L107.266 70.7882Z" fill="#1A5E9D"/>
<path d="M88.6822 61.6609C88.1692 63.5665 88.7198 67.8847 92.3265 68.1149C97.0739 67.9051 97.1243 62.657 95.4304 60.2555C94.0435 58.2904 90.1623 57.5983 88.6822 61.6609Z" fill="#1A5E9D"/>
<path d="M126.705 60.2104C127.362 62.071 127.149 66.419 123.57 66.9242C118.821 67.0771 118.366 61.8485 119.869 59.3247C121.099 57.2577 124.916 56.2726 126.705 60.2104Z" fill="#1A5E9D"/>
<path d="M87.7367 50.3103C87.4072 50.6559 87.0481 50.9724 86.6636 51.2564L87.0783 50.9371C86.226 51.631 85.2896 52.2162 84.2907 52.6788L84.7815 52.4733C84.6857 52.514 84.5875 52.5489 84.4874 52.5777C83.9752 52.7253 83.5375 53.0587 83.2612 53.5119C82.9866 53.9785 82.9099 54.5344 83.048 55.0572C83.186 55.5801 83.5276 56.027 83.9975 56.2998C84.4776 56.5696 85.0446 56.6433 85.5785 56.5053C86.0604 56.3564 86.5239 56.1541 86.9603 55.9024C87.3827 55.6714 87.7905 55.4141 88.189 55.1457C88.726 54.784 89.2442 54.3942 89.7504 53.9908C90.068 53.7484 90.3651 53.4805 90.6388 53.19C91.0138 52.8005 91.2275 52.2852 91.2373 51.7464C91.2351 51.206 91.0203 50.688 90.6388 50.3027C90.2539 49.9205 89.732 49.7058 89.1877 49.7058C88.6435 49.7058 88.1215 49.9205 87.7367 50.3027V50.3103Z" fill="#1A5E9D"/>
<path d="M89.1321 103.551C89.2125 105.071 89.2176 106.602 89.1774 108.124C89.1672 108.485 89.1543 108.848 89.1278 109.209C89.1193 109.329 89.1159 109.456 89.0962 109.575C89.1962 108.973 89.0107 109.695 88.9722 109.813C88.6979 110.521 88.2889 111.169 87.7675 111.723C87.6322 111.865 87.4874 111.998 87.334 112.121C87.6675 111.866 87.0425 112.27 86.9732 112.308C86.6218 112.504 86.2602 112.675 85.8951 112.843C85.6702 112.939 85.6386 112.953 85.8096 112.882C85.6785 112.934 85.5468 112.986 85.4146 113.037C85.2136 113.114 85.011 113.188 84.8084 113.26C84.3253 113.43 83.8388 113.59 83.3489 113.741C81.5534 114.296 79.7254 114.74 77.9521 115.36C77.4346 115.514 76.9969 115.861 76.73 116.328C76.463 116.795 76.3872 117.346 76.5182 117.866C76.6672 118.385 77.0152 118.825 77.4875 119.091C77.9597 119.357 78.5184 119.429 79.0431 119.29C81.025 118.598 83.0753 118.123 85.0708 117.472C87.081 116.816 89.3459 116.047 90.8113 114.458C92.3112 112.87 93.1827 110.798 93.2652 108.622C93.337 106.936 93.3259 105.235 93.237 103.551C93.2258 103.013 93.0061 102.501 92.6236 102.122C92.2412 101.742 91.7257 101.524 91.185 101.512C90.6423 101.518 90.1234 101.734 89.7397 102.115C89.3559 102.496 89.1381 103.012 89.133 103.551H89.1321Z" fill="#1A5E9D"/>
<path d="M138.809 113.15C138.335 113.09 139.134 113.2 138.68 113.134L138.14 113.055C137.721 112.991 137.304 112.921 136.888 112.847C136.057 112.698 135.23 112.529 134.408 112.337C133.544 112.136 132.684 111.913 131.837 111.646C131.454 111.525 131.068 111.398 130.694 111.259C130.515 111.192 130.337 111.124 130.16 111.052C130.487 111.185 130.093 111.021 129.989 110.967C129.69 110.83 129.398 110.677 129.114 110.51C128.972 110.425 128.838 110.33 128.7 110.24C128.211 109.925 128.924 110.466 128.477 110.071C128.323 109.934 128.169 109.8 128.024 109.653C128.024 109.653 127.609 109.191 127.801 109.433C127.587 109.184 127.423 108.895 127.32 108.584C126.825 106.661 126.542 104.69 126.477 102.706C126.466 102.169 126.246 101.658 125.863 101.278C125.481 100.898 124.966 100.68 124.425 100.668C123.883 100.673 123.363 100.889 122.98 101.27C122.596 101.652 122.378 102.167 122.373 102.706C122.398 105.133 122.755 107.545 123.434 109.876C124.206 111.834 125.698 113.426 127.609 114.332C131.038 116.057 135.032 116.744 138.809 117.219C139.352 117.216 139.873 117.001 140.257 116.619C140.641 116.237 140.858 115.721 140.861 115.181C140.848 114.645 140.627 114.134 140.246 113.755C139.864 113.375 139.349 113.156 138.809 113.143V113.15Z" fill="#1A5E9D"/>
<path d="M79.1402 118.537C84.8252 124.044 93.5462 126.01 101.186 126.775C110.007 127.731 118.93 126.563 127.2 123.368C131.266 121.848 134.953 119.473 138.009 116.405C139.815 114.493 136.918 111.604 135.107 113.523C130.142 118.781 122.674 121.144 115.699 122.286C107.625 123.643 99.3444 123.114 91.5121 120.743C88.1007 119.677 84.6345 118.17 82.0421 115.658C80.15 113.825 77.2455 116.705 79.1402 118.541V118.537Z" fill="#1A5E9D"/>
<path d="M116.819 30.0678C117.859 33.4052 118.962 36.7341 120.307 39.9645C121.529 42.9147 123.149 45.686 125.124 48.2018C129.002 53.1654 134.3 57.8335 140.536 59.5047C143.089 60.1892 144.179 56.2582 141.627 55.5746C136.189 54.1173 131.529 49.8662 128.184 45.5191C124.427 40.6362 122.585 34.7886 120.776 28.9868C119.998 26.4884 116.035 27.5542 116.819 30.0704V30.0678Z" fill="#1A5E9D"/>
<path d="M116.868 28.1224C113.125 33.6197 108.222 38.2414 102.499 41.6664C101.056 42.5191 99.5678 43.2936 98.0404 43.9864C97.2709 44.3338 96.5014 44.6658 95.7071 44.952C95.3798 45.0111 95.0613 45.1107 94.7589 45.2483C94.5566 45.2297 94.5623 45.2611 94.776 45.3426C94.8942 45.4941 94.993 45.6595 95.0701 45.8352C94.77 45.6713 95.36 42.5368 95.4489 41.9127C95.6883 40.2346 95.9679 38.5575 96.1098 36.8675C96.2577 35.0952 93.7697 34.1942 92.6043 35.4239C86.332 42.0723 79.9554 48.6545 73.1102 54.7246C71.1351 56.4749 74.0456 59.3494 76.0121 57.6068C82.8607 51.5367 89.2373 44.9537 95.5105 38.3069L92.0049 36.8633C91.7707 39.6563 91.1123 42.4078 90.9849 45.2101C90.9131 46.7803 91.3551 48.139 92.8198 48.911C94.4776 49.7848 96.315 49.091 97.9079 48.4431C103.715 46.1012 109.019 42.679 113.533 38.3604C116.098 35.8697 118.402 33.1272 120.411 30.1749C121.904 28.0035 118.349 25.962 116.867 28.1182L116.868 28.1224Z" fill="#1A5E9D"/>
<path d="M72.0565 116.992C72.8807 114.152 74.2448 111.494 76.0751 109.164C77.546 107.147 79.2378 105.298 81.1196 103.652C83.2779 102.047 85.8433 101.069 88.529 100.828C92.5368 100.304 96.5876 100.184 100.62 100.47C101.452 100.506 102.239 100.858 102.816 101.455C103.394 102.051 103.719 102.845 103.722 103.673C103.681 104.393 103.392 105.077 102.903 105.611C102.414 106.144 101.756 106.495 101.038 106.603C99.1986 106.886 96.6601 106.967 93.6035 107.518C90.1065 108.149 90.0125 108.472 88.2879 110.066L88.1272 110.303C91.5626 110.234 95.6512 110.432 97.4655 111.255C98.1495 111.564 100.629 112.997 101.244 113.42C104.141 115.41 105.651 116.859 106.552 118.716C106.899 119.745 106.835 120.867 106.374 121.85C106.016 122.569 104.813 123.515 102.916 122.923C103.448 123.402 103.84 124.015 104.051 124.697C104.262 125.379 104.283 126.105 104.113 126.797C103.881 127.546 103.42 128.205 102.794 128.681C102.168 129.158 101.408 129.429 100.62 129.456C101.389 130.179 100.968 132.109 100.369 132.944C99.7441 133.817 97.9657 133.888 97.0346 133.557C96.2518 133.238 95.4444 132.983 94.6201 132.793C94.5688 133.06 94.5389 133.212 94.5389 133.212C94.3559 134.158 93.9831 136.354 93.6787 137.266C92.8178 139.929 91.5848 142.878 89.1327 144.307C87.91 144.869 86.6595 145.369 85.386 145.805C84.3258 146.298 83.3845 148.707 82.821 150.398C82.8182 150.407 82.8135 150.415 82.8074 150.422C82.8013 150.429 82.7938 150.434 82.7854 150.438C82.777 150.442 82.7679 150.445 82.7586 150.445C82.7493 150.446 82.74 150.444 82.7313 150.441C77.4114 148.705 71.1801 146.586 66.1921 144.989C66.1106 144.963 66.0352 144.921 65.9705 144.865C65.9058 144.81 65.853 144.742 65.8154 144.665C65.7777 144.589 65.7559 144.506 65.7513 144.421C65.7467 144.336 65.7593 144.251 65.7885 144.171C66.6076 141.888 67.1394 140.657 67.6447 139.142C68.3545 136.612 68.9253 134.046 69.3547 131.455C70.3611 124.666 70.6714 121.999 71.57 118.598C71.7316 118.031 71.8941 117.494 72.0565 116.992Z" fill="white"/>
<path d="M84.0231 112.576C86.4197 112.334 88.8305 112.26 91.2376 112.355C92.416 112.376 93.592 112.471 94.7585 112.638C95.2647 112.723 95.7546 112.844 96.2505 112.971C96.3693 113.007 96.4873 113.046 96.6045 113.089C96.3941 112.995 96.3719 112.986 96.5395 113.064C96.7233 113.149 96.902 113.249 97.0816 113.346C99.3125 114.45 101.371 115.868 103.195 117.557C103.832 118.189 104.71 119.085 104.725 119.969C104.722 120.251 104.678 120.53 104.593 120.799C104.483 121.195 104.714 120.727 104.553 120.905C104.513 120.959 104.456 120.997 104.391 121.015C104.155 121.081 103.905 121.081 103.669 121.015C101.094 120.461 99.9929 124.389 102.578 124.946C105.901 125.662 108.498 123.786 108.805 120.439C109.065 117.596 106.888 115.218 104.819 113.542C102.946 112.013 100.908 110.694 98.742 109.61C96.641 108.736 94.383 108.296 92.1054 108.316C89.4107 108.164 86.708 108.226 84.0231 108.5C83.4837 108.515 82.9706 108.735 82.589 109.113C82.2075 109.492 81.9864 110.002 81.9711 110.538C81.9749 111.077 82.1923 111.593 82.5763 111.975C82.9603 112.356 83.48 112.572 84.0231 112.576Z" fill="#1A5E9D"/>
<path d="M88.9643 119.592C90.9673 119.568 92.957 119.919 94.8296 120.625C94.7638 120.6 95.5427 120.914 95.2007 120.77C95.4042 120.855 95.606 120.945 95.8069 121.037C96.2293 121.229 96.6476 121.427 97.062 121.632C97.9341 122.069 98.7909 122.537 99.6271 123.046C99.9913 123.268 100.35 123.499 100.701 123.742C100.758 123.782 101.203 124.106 101.036 123.978C100.869 123.85 101.258 124.163 101.3 124.2C101.553 124.398 101.767 124.641 101.93 124.916C102.053 125.126 102.135 125.356 102.172 125.596C102.181 125.699 102.167 126.185 102.179 126.09C102.207 125.889 102.079 126.43 102.083 126.451C102.035 126.59 102.058 126.541 102.153 126.304C102.119 126.374 102.083 126.444 102.042 126.511C102.009 126.56 101.711 126.97 101.871 126.784C102.032 126.598 101.647 126.988 101.599 127.031C101.493 127.121 101.506 127.112 101.638 127.004C101.557 127.06 101.472 127.112 101.382 127.16C101.144 127.283 100.889 127.369 100.626 127.415C100.086 127.429 99.5726 127.649 99.191 128.028C98.8093 128.407 98.5884 128.917 98.5737 129.453C98.5773 129.992 98.7946 130.509 99.1787 130.89C99.5627 131.271 100.083 131.487 100.626 131.491C103.081 131.249 105.446 129.844 106.098 127.336C106.84 124.479 105.328 122.081 103.091 120.457C99.017 117.387 94.0783 115.66 88.9669 115.518C86.3257 115.505 86.3223 119.582 88.9669 119.594L88.9643 119.592Z" fill="#1A5E9D"/>
<path d="M90.3333 127.072C90.4094 127.081 90.7394 127.123 90.3487 127.072L90.6257 127.111C90.8394 127.142 91.0526 127.176 91.2652 127.213C91.7141 127.29 92.1613 127.382 92.6042 127.486C93.0174 127.586 93.4258 127.699 93.8294 127.826C94.0329 127.891 94.2352 127.96 94.4364 128.035C94.5219 128.066 94.6074 128.099 94.6929 128.133C94.828 128.186 95.0751 128.298 94.8092 128.178C96.2525 128.856 97.6155 129.692 98.873 130.669C98.909 130.696 99.2279 130.937 99.056 130.806C98.8978 130.686 99.1637 130.891 99.1672 130.891C99.2475 130.926 99.475 131.356 99.0364 130.722C99.0723 130.772 99.1706 130.976 99.0227 130.673C98.8747 130.37 98.9859 130.6 99.0013 130.698C99.0364 130.91 98.9791 130.439 98.9722 130.451C98.9484 130.62 98.9484 130.791 98.9722 130.96C98.9722 131.265 98.8919 130.851 98.997 130.812C98.9782 130.876 98.9654 130.941 98.9585 131.008C98.9166 131.155 98.8867 131.306 98.8397 131.453C98.82 131.513 98.791 131.574 98.7764 131.634C98.7166 131.889 98.9816 131.281 98.8414 131.488C98.7799 131.578 98.5242 131.981 98.7499 131.709C98.956 131.462 98.82 131.624 98.7713 131.671C98.5345 131.91 98.8859 131.554 98.9149 131.565C98.8607 131.589 98.8087 131.617 98.7593 131.65C98.5345 131.771 99.1637 131.549 98.9055 131.588C98.7627 131.61 98.6071 131.668 98.4652 131.701C98.4054 131.715 98.166 131.757 98.4746 131.701C98.8166 131.64 98.4019 131.693 98.3472 131.694C98.1967 131.694 98.0377 131.669 97.8889 131.681C97.682 131.698 98.1053 131.71 98.1232 131.719C98.0469 131.697 97.9688 131.682 97.8898 131.675C97.6377 131.609 97.3903 131.527 97.1494 131.428C96.1909 131.055 95.1889 130.805 94.1671 130.682C93.0512 130.598 91.9393 130.888 91.0087 131.505C90.776 131.64 90.5724 131.82 90.4095 132.033C90.2465 132.246 90.1275 132.489 90.0591 132.748C89.9908 133.007 89.9744 133.277 90.011 133.542C90.0477 133.808 90.1365 134.063 90.2726 134.294C90.4086 134.525 90.5891 134.728 90.8038 134.889C91.0186 135.051 91.2633 135.169 91.524 135.237C91.7847 135.305 92.0564 135.321 92.3234 135.285C92.5905 135.249 92.8477 135.16 93.0804 135.025C93.1719 134.968 93.2685 134.917 93.36 134.855C93.6883 134.65 93.3677 134.819 93.3147 134.855C93.5028 134.782 93.6971 134.725 93.8952 134.686C93.9166 134.76 93.3634 134.653 93.7242 134.724C93.8319 134.744 93.9705 134.74 94.0765 134.749C93.991 134.742 93.6738 134.669 94.0577 134.756C94.2013 134.788 94.3449 134.816 94.4852 134.852C95.2376 135.039 95.9387 135.382 96.6834 135.581C98.5994 136.09 101.022 135.666 102.162 133.926C103.128 132.455 103.496 130.121 102.518 128.576C102.106 128.032 101.596 127.567 101.015 127.206C100.6 126.894 100.18 126.588 99.752 126.295C99.0305 125.793 98.2746 125.341 97.4896 124.944C95.2324 123.887 92.808 123.227 90.3239 122.991C89.7796 122.991 89.2577 123.206 88.8729 123.588C88.488 123.97 88.2719 124.489 88.2719 125.029C88.2875 125.565 88.5088 126.074 88.8903 126.453C89.2717 126.832 89.7846 127.052 90.3239 127.067L90.3333 127.072Z" fill="#1A5E9D"/>
<path d="M74.3089 108.135C67.9494 116.373 68.6403 127.123 66.1428 136.711C65.8665 137.847 65.5311 138.969 65.1382 140.071C64.5787 141.303 64.1211 142.579 63.7701 143.885C63.352 146.08 65.2408 146.823 66.9422 147.374C68.4447 147.86 69.9447 148.352 71.4421 148.851C74.5637 149.884 77.6836 150.929 80.8061 151.957C81.7022 152.251 82.5845 152.673 83.519 152.305C83.8965 152.12 84.2255 151.85 84.4803 151.517C84.735 151.184 84.9085 150.797 84.9871 150.386C85.1849 149.806 85.4191 149.239 85.6882 148.688C85.8216 148.423 85.9652 148.166 86.1208 147.914C86.1601 147.851 86.4329 147.52 86.2542 147.659C86.9667 147.279 87.7277 146.996 88.5165 146.818C89.3684 146.508 90.1738 146.085 90.9105 145.559C92.1996 144.571 93.2528 143.312 93.9946 141.872C95.246 139.31 96.0951 136.572 96.5125 133.755C96.643 133.234 96.567 132.684 96.3003 132.217C96.0336 131.751 95.5965 131.404 95.0796 131.248C94.555 131.109 93.9965 131.181 93.5243 131.447C93.0522 131.713 92.7043 132.153 92.5556 132.672C91.952 135.838 91.3834 139.65 88.8791 141.966C87.3905 143.343 85.1025 143.245 83.6003 144.581C82.1331 145.887 81.4457 148.063 80.836 149.857L81.7765 148.639L81.691 148.682L83.2719 148.477C80.4701 147.562 77.6751 146.628 74.8775 145.698C73.5061 145.242 72.1338 144.787 70.7607 144.335C70.0767 144.108 69.3895 143.883 68.6992 143.66C68.1162 143.526 67.5467 143.34 66.9978 143.103L67.7339 143.834L67.7262 143.885V144.969C67.9443 143.447 68.8429 141.879 69.3627 140.425C69.8267 139.007 70.2157 137.566 70.5281 136.108C71.378 132.593 71.7542 128.983 72.3048 125.414C73.1436 119.979 74.4209 114.638 77.8521 110.192C78.1237 109.725 78.1987 109.17 78.0609 108.648C77.9231 108.126 77.5835 107.679 77.1159 107.404C76.643 107.144 76.0874 107.075 75.5646 107.211C75.0417 107.347 74.5917 107.678 74.3081 108.135H74.3089Z" fill="#1A5E9D"/>
<path d="M77.8522 110.191C78.8344 108.878 79.912 107.639 81.0764 106.482C81.9966 105.458 83.1134 104.627 84.3613 104.037C87.5368 102.576 91.3501 102.47 94.7924 102.377C96.2875 102.336 97.7826 102.353 99.2777 102.429C100.186 102.474 101.33 102.306 101.642 103.302C101.933 104.226 100.927 104.575 100.244 104.673C98.6356 104.899 96.9624 104.988 95.3344 105.205C93.4773 105.359 91.6484 105.754 89.8941 106.379C88.7475 106.937 87.7124 107.696 86.8391 108.621C84.9051 110.416 87.8121 113.292 89.741 111.503C89.9907 111.271 90.2369 111.036 90.4891 110.807C90.5687 110.735 91.2065 110.23 90.826 110.496C91.0077 110.369 91.1976 110.253 91.3946 110.15C91.7255 109.976 91.4869 110.106 91.41 110.137C91.613 110.06 91.8199 109.994 92.0299 109.939C93.9701 109.447 95.9503 109.127 97.9473 108.981C99.7052 108.807 101.691 108.848 103.248 107.921C104.166 107.383 104.891 106.574 105.321 105.605C105.751 104.637 105.866 103.56 105.648 102.524C105.43 101.594 104.962 100.74 104.294 100.054C103.627 99.367 102.784 98.873 101.856 98.6242C100.202 98.3006 98.5131 98.1865 96.8299 98.2845C92.6532 98.2488 88.0404 98.3694 84.0792 99.7816C79.8281 101.299 76.951 104.633 74.3073 108.137C74.0362 108.604 73.9614 109.159 74.0992 109.681C74.237 110.203 74.5762 110.65 75.0435 110.925C75.5163 111.185 76.072 111.255 76.595 111.118C77.118 110.982 77.568 110.651 77.8513 110.194L77.8522 110.191Z" fill="#1A5E9D"/>
</svg>
