<svg width="168" height="428" viewBox="0 0 168 428" fill="none" xmlns="http://www.w3.org/2000/svg">
<path d="M61.0112 24.2108L70.5623 61.0461L20.9365 74.1026L11.3854 37.2673C11.2919 36.9067 11.2234 36.5458 11.1741 36.1862L11.9817 36.0369L59.8879 23.4328L60.6707 23.1637C60.8023 23.5017 60.9177 23.8502 61.0112 24.2108Z" fill="white"/>
<path d="M39.4781 50.3269L26.1104 53.8439C24.4541 54.2797 23.4621 55.9854 23.8947 57.6538L25.3819 63.3892C25.8145 65.0576 27.5078 66.0568 29.1641 65.6211L42.5318 62.104C44.1881 61.6683 45.1801 59.9625 44.7475 58.2942L43.2603 52.5587C42.8277 50.8904 41.1344 49.8911 39.4781 50.3269Z" fill="#95C0E2"/>
<path d="M70.5634 61.0462L71.3559 64.1025C72.5484 68.7017 69.8125 73.4063 65.2408 74.6091L32.1647 83.3113C27.593 84.5141 22.9211 81.7523 21.727 77.1471L20.9376 74.1027L70.5634 61.0462Z" fill="white"/>
<path d="M60.6743 23.1631L59.8915 23.4322L11.9852 36.0363L11.1776 36.1856C10.7323 32.7033 12.4449 29.3226 15.4121 27.6136C15.7836 27.4022 16.0538 27.0659 16.2057 26.6849C16.3636 26.3024 16.3958 25.8708 16.287 25.4511C16.0418 24.5052 16.0257 23.5243 16.2219 22.5886L49.6676 13.7891C49.7659 13.9022 49.8583 14.0168 49.9449 14.133C50.4312 14.7754 50.7935 15.52 51.0004 16.318C51.2181 17.1575 51.9586 17.7647 52.8193 17.7719C56.2313 17.8025 59.3722 19.9062 60.6743 23.1631Z" fill="white"/>
<path d="M26.5543 63.0805L25.2518 58.0574C25.0613 57.3226 24.8505 56.6209 25.2647 55.9045C25.616 55.2961 26.1808 55.0881 26.8059 54.9237C30.4809 53.9568 34.1558 52.9899 37.8302 52.0232C39.0327 51.7068 40.6643 50.9467 41.6637 52.0787C42.1183 52.5937 42.2164 53.3737 42.3844 54.0216L43.209 57.2015C43.3638 57.7985 43.642 58.4825 43.6338 59.1085C43.6211 60.0604 42.9599 60.7187 42.0923 60.9558C40.6552 61.3491 39.2102 61.7141 37.7694 62.0932L30.8085 63.9246C29.3396 64.311 27.1787 65.1959 26.5536 63.0801C26.109 61.576 23.7597 62.1865 24.2061 63.6977C24.7539 65.5516 26.3604 66.9192 28.3205 66.9447C28.9829 66.9536 29.6082 66.7663 30.2403 66.6L42.2706 63.4349C43.0764 63.2229 43.83 62.9671 44.4935 62.4238C45.8214 61.3362 46.2928 59.588 45.9085 57.9417C45.477 56.0913 44.9688 54.2497 44.4755 52.415C43.7638 49.7693 41.3292 48.5761 38.7798 49.2468C34.7885 50.2969 30.7972 51.347 26.8059 52.3971C26.1016 52.5824 25.3693 52.7321 24.7315 53.1033C23.0184 54.1002 22.2872 56.1062 22.7301 58.0054C23.173 59.9046 23.7146 61.8025 24.2062 63.6983C24.6008 65.22 26.9495 64.6046 26.5543 63.0805Z" fill="#4A7DAB"/>
<path d="M12.2922 37.2183C24.7552 33.9393 37.2177 30.6605 49.6807 27.3815C53.1861 26.4592 56.691 25.5371 60.1964 24.6148C61.7071 24.2174 61.0961 21.8515 59.5831 22.2495C47.1201 25.5285 34.6577 28.8074 22.1946 32.0864C18.6892 33.0087 15.1843 33.9308 11.6789 34.8531C10.1683 35.2505 10.7792 37.6164 12.2922 37.2183Z" fill="#4A7DAB"/>
<path d="M21.5871 75.1925C34.2855 71.8515 46.9839 68.5106 59.6822 65.1697C63.2962 64.2189 66.9103 63.268 70.5249 62.317C72.0355 61.9196 71.4245 59.5537 69.9116 59.9517C57.2132 63.2927 44.5148 66.6336 31.8165 69.9745C28.2024 70.9253 24.5884 71.8762 20.9738 72.8272C19.4632 73.2246 20.0741 75.5905 21.5871 75.1925Z" fill="#4A7DAB"/>
<path d="M20.3469 43.9714L56.4524 34.4721C57.9631 34.0747 57.3521 31.7088 55.8391 32.1069L19.7336 41.6062C18.223 42.0036 18.8339 44.3695 20.3469 43.9714Z" fill="#4A7DAB"/>
<path d="M21.8781 49.8836L57.9837 40.3843C59.4943 39.9869 58.8834 37.621 57.3704 38.019L21.2648 47.5183C19.7542 47.9158 20.3652 50.2817 21.8781 49.8836Z" fill="#4A7DAB"/>
<path d="M49.8567 52.977L59.9804 50.3135C61.491 49.916 60.88 47.5501 59.3671 47.9482L49.2434 50.6117C47.7327 51.0092 48.3437 53.3751 49.8567 52.977Z" fill="#4A7DAB"/>
<path d="M51.0832 57.7063L61.2069 55.0427C62.7176 54.6453 62.1066 52.2794 60.5936 52.6774L50.4699 55.341C48.9593 55.7384 49.5702 58.1043 51.0832 57.7063Z" fill="#4A7DAB"/>
<path d="M15.8866 20.1078C15.1535 21.4368 14.7725 22.9414 14.9036 24.4648C14.9461 24.9576 15.2503 25.6713 15.1084 26.1589C14.9738 26.6212 14.2891 26.8651 13.9326 27.1294C11.8554 28.6686 10.4168 30.9782 10.0234 33.554C9.70344 35.647 10.2014 37.5336 10.7155 39.5163L19.8808 74.8637C20.2686 76.3593 20.5779 77.9293 21.2473 79.3288C23.2622 83.538 28.0959 85.6037 32.5284 84.4779C37.1819 83.2959 41.8168 82.0342 46.4601 80.8125L64.0891 76.1744C66.5733 75.5208 68.904 74.6499 70.5936 72.549C72.7601 69.8553 73.2409 66.5404 72.3865 63.2452L63.4644 28.8361C63.0559 27.2606 62.6508 25.6836 62.2388 24.1091C61.1725 20.0355 57.8465 17.0484 53.6627 16.597C53.2414 16.5512 52.6477 16.672 52.3369 16.3193C52.0062 15.9435 51.9284 15.2251 51.7273 14.776C51.1021 13.3826 50.0391 12.2571 48.7547 11.4597C47.423 10.6323 46.1985 12.7422 47.5285 13.5681C48.7093 14.3019 49.3882 15.3219 49.8238 16.625C50.2891 18.0156 51.3296 18.8925 52.7995 18.9932C55.1278 19.153 57.2684 20.0656 58.6712 22.028C59.6618 23.4136 59.9764 25.0548 60.395 26.6693L69.4144 61.4539C69.7209 62.6362 70.0952 63.8234 70.317 65.0268C71.0241 68.8564 68.4585 72.4843 64.815 73.4568C60.1737 74.6956 55.5231 75.9015 50.8774 77.1237L33.5207 81.6902C33.0008 81.827 32.4814 81.9662 31.9614 82.1005C30.4164 82.5007 28.8308 82.4468 27.334 81.8674C25.306 81.0818 23.6662 79.3371 23.0153 77.2476C22.8945 76.8588 22.8006 76.4605 22.6985 76.0667L12.6353 37.2563C12.3587 36.1899 12.2277 35.1091 12.3891 34.0077C12.5539 32.8857 12.9911 31.8203 13.6197 30.8839C14.3061 29.8609 15.2097 29.243 16.1919 28.5533C17.3253 27.7575 17.711 26.4669 17.4594 25.1388C17.2034 23.789 17.3047 22.5619 17.9775 21.3417C18.7357 19.967 16.6441 18.7283 15.8844 20.1065L15.8866 20.1078Z" fill="#4A7DAB"/>
<path d="M47.9814 3.37102L12.6306 12.6717C10.0378 13.3539 8.48473 16.0245 9.16194 18.6363L9.80604 21.1204C10.2293 22.7526 11.8865 23.7305 13.5068 23.3041L52.3788 13.077C53.9991 12.6507 54.9699 10.9814 54.5467 9.34915L53.9026 6.86508C53.2254 4.25333 50.5742 2.68886 47.9814 3.37102Z" fill="#95C0E2"/>
<path d="M47.6748 2.18875C41.4416 3.82868 35.2079 5.46876 28.9747 7.1087L16.8417 10.3009C15.6281 10.6202 14.4144 10.9395 13.2008 11.2588C11.9619 11.5847 10.8093 11.9726 9.81169 12.8495C8.56071 13.9484 7.82535 15.6215 7.79149 17.2849C7.76873 18.4181 8.13777 19.5246 8.41904 20.6094C8.74753 21.8763 9.17339 23.0133 10.2721 23.8199C11.316 24.5866 12.6088 24.7687 13.8484 24.4767C15.8903 23.9956 17.9131 23.4072 19.9413 22.8736C28.4333 20.6394 36.9259 18.405 45.4179 16.1708C47.7713 15.5516 50.1285 14.9472 52.478 14.3133C54.8275 13.6793 56.2734 11.4802 55.7197 9.03995C55.1867 6.68957 54.5891 4.31957 52.4399 2.93119C51.0251 2.01771 49.2927 1.79907 47.674 2.18832C46.1544 2.55339 46.7675 4.91804 48.2872 4.55296C49.658 4.22325 51.0917 4.65118 52.0078 5.75207C52.6409 6.51317 52.8083 7.48268 53.05 8.41494C53.2732 9.27568 53.6682 10.2042 53.1813 11.0466C52.9031 11.5283 52.4653 11.7837 51.9492 11.9258C49.8791 12.4938 47.7959 13.0185 45.7202 13.5646L21.4237 19.957C18.8784 20.6267 16.3332 21.2963 13.7879 21.966C12.7562 22.2374 11.5854 22.2891 11.0688 21.0875C10.7463 20.3369 10.6258 19.4516 10.4212 18.6624C10.1416 17.5842 10.1388 16.5385 10.7149 15.5471C11.8201 13.6466 14.7338 13.3801 16.6682 12.8712L27.8375 9.9326C34.5284 8.17223 41.2193 6.41187 47.9102 4.6515L48.2858 4.55267C49.7964 4.15524 49.1857 1.78997 47.6727 2.18803L47.6748 2.18875Z" fill="#4A7DAB"/>
<path d="M71.4365 356.865L71.4382 356.862C71.5619 356.689 71.6455 356.553 71.7056 356.429L71.7068 356.427C72.0577 355.704 72.358 355.036 72.5385 354.39L71.4365 356.865ZM71.4365 356.865C71.3841 356.939 71.3331 357.011 71.2833 357.082M71.4365 356.865L71.2833 357.082M72.8746 351.508L72.8746 351.508C72.8038 350.631 72.7231 349.816 72.5514 349.07L72.5511 349.069C72.4171 348.485 72.1739 347.931 71.8754 347.251C71.8004 347.08 71.7219 346.901 71.6407 346.712L71.6399 346.71C71.5131 346.413 71.3911 346.175 71.2531 345.972L71.2524 345.971C70.7791 345.274 70.3322 344.655 69.8379 344.164L69.8369 344.163C68.7585 343.09 67.6657 342.526 66.1028 341.927C65.9117 341.854 65.7396 341.804 65.5762 341.773C64.7761 341.626 64.048 341.504 63.359 341.485L63.3574 341.485C63.025 341.475 62.7118 341.519 62.2648 341.581C62.146 341.598 62.0178 341.615 61.8773 341.634L61.8744 341.634C61.8554 341.637 61.8308 341.641 61.7632 341.653L61.7548 341.655C61.698 341.665 61.6035 341.682 61.5021 341.695L61.449 341.702L61.3955 341.705C61.0525 341.724 60.7146 341.778 60.3798 341.871L72.8746 351.508ZM72.8746 351.508C72.8927 351.732 72.8897 351.963 72.8667 352.205L72.8746 351.508ZM57.8356 342.908L57.8355 342.908C57.1559 343.243 56.5318 343.764 55.7671 344.403C55.7265 344.437 55.6855 344.471 55.6441 344.506L55.6428 344.507C55.0321 345.015 54.4975 345.749 53.9461 346.599L53.9453 346.6C53.8741 346.709 53.8049 346.843 53.7215 347.032C53.7214 347.032 53.7213 347.033 53.7211 347.033L52.3534 346.431L57.8356 342.908ZM57.8356 342.908C58.7074 342.479 59.5515 342.104 60.379 341.872L57.8356 342.908ZM52.8971 353.567L52.8973 353.568C53.0482 354.551 53.4889 355.577 54.0178 356.667L54.018 356.667C54.4149 357.486 55.0395 358.297 55.7364 358.977L55.7368 358.977C56.2014 359.431 56.7757 359.847 57.4164 360.29C57.5691 360.395 57.7208 360.482 57.8781 360.556L57.8823 360.558C59.6125 361.376 61.3154 361.879 62.9638 361.693L62.9649 361.693C63.0341 361.685 63.1022 361.677 63.1692 361.67C64.1987 361.555 64.9658 361.469 65.7033 361.187L65.7035 361.187C65.7766 361.159 65.8489 361.132 65.9202 361.105C66.9057 360.729 67.7267 360.416 68.3698 359.946L68.8949 359.562C69.3456 359.227 69.7456 358.914 70.1037 358.568L52.8971 353.567ZM52.8971 353.567C52.6216 351.78 52.5845 350.715 52.9397 349.02L52.8971 353.567ZM71.2833 357.082C70.8546 357.689 70.5116 358.175 70.1041 358.568L71.2833 357.082ZM72.8666 352.205C72.7864 353.04 72.7157 353.754 72.5388 354.389L72.8666 352.205Z" fill="white" stroke="#4A7DAB" stroke-width="3"/>
<path d="M58.2538 352.577C58.0243 351.841 58.4702 350.999 59.1604 350.668L59.9862 353.796C59.212 353.871 58.4967 353.356 58.2538 352.577ZM61.9754 353.278L61.9665 353.281C62.3214 352.766 62.4722 352.11 62.2766 351.483C62.0876 350.877 61.6659 350.379 61.1276 350.107L61.1375 350.104L61.1487 350.101L61.16 350.098L61.1713 350.095L61.1825 350.092L61.1938 350.089L61.205 350.086L61.2163 350.083L61.2276 350.08L61.2388 350.076L61.2501 350.073L61.2614 350.07L61.2726 350.067L61.2839 350.064L61.2952 350.061L61.3064 350.058L61.3177 350.055L61.3289 350.052L61.3402 350.049L61.3515 350.046L61.3627 350.043L61.374 350.04L61.3853 350.037L61.3965 350.034L61.4078 350.031L61.4191 350.027L61.4303 350.024L61.4416 350.021L61.4528 350.018L61.4641 350.015L61.4754 350.012L61.4866 350.009L61.4979 350.006L61.5092 350.003L61.5204 350L61.5317 349.997L61.543 349.994L61.5542 349.991L61.5655 349.988L61.5767 349.985L61.588 349.982L61.5993 349.978L61.6105 349.975L61.6218 349.972L61.6331 349.969L61.6443 349.966L61.6556 349.963L61.6669 349.96L61.6781 349.957L61.6894 349.954L61.7006 349.951L61.7119 349.948L61.7232 349.945L61.7344 349.942L61.7457 349.939L61.757 349.936L61.7682 349.932L61.7795 349.929L61.7908 349.926L61.802 349.923L61.8133 349.92L61.8245 349.917L61.8358 349.914L61.8471 349.911L61.8583 349.908L61.8696 349.905L61.8809 349.902L61.8921 349.899L61.9034 349.896L61.9147 349.893L61.9259 349.89L61.9372 349.887L61.9484 349.883L61.9597 349.88L61.971 349.877L61.9822 349.874L61.9935 349.871L62.0048 349.868L62.016 349.865L62.0273 349.862L62.0386 349.859L62.0498 349.856L62.0611 349.853L62.0723 349.85L62.0836 349.847L62.0949 349.844L62.1061 349.841L62.1174 349.838L62.1287 349.834L62.1399 349.831L62.1512 349.828L62.1625 349.825L62.1737 349.822L62.185 349.819L62.1962 349.816L62.2075 349.813L62.2188 349.81L62.23 349.807L62.2413 349.804L62.2526 349.801L62.2638 349.798L62.2751 349.795L62.2864 349.792L62.2976 349.788L62.3089 349.785L62.3201 349.782L62.3314 349.779L62.3427 349.776L62.3539 349.773L62.3652 349.77L62.3765 349.767L62.3877 349.764L62.399 349.761L62.4102 349.758L62.4215 349.755L62.4328 349.752L62.444 349.749L62.4553 349.746L62.4666 349.743L62.4778 349.739L62.4891 349.736L62.5004 349.733L62.5116 349.73L62.5229 349.727L62.5341 349.724L62.5454 349.721L62.5567 349.718L62.5679 349.715L62.5792 349.712L62.5905 349.709L62.6017 349.706L62.613 349.703L62.6243 349.7L62.6355 349.697L62.6468 349.693L62.658 349.69L62.6693 349.687L62.6806 349.684L62.6918 349.681L62.7031 349.678L62.7144 349.675L62.7256 349.672L62.7369 349.669L62.7482 349.666L62.7594 349.663L62.7707 349.66L62.7819 349.657L62.7932 349.654L62.8045 349.651L62.8157 349.648L62.827 349.644L62.8383 349.641L62.8495 349.638L62.8608 349.635L62.8721 349.632L62.8833 349.629L62.8946 349.626L62.9058 349.623L62.9171 349.62L62.9284 349.617L62.9396 349.614L62.9509 349.611L62.9622 349.608L62.9734 349.605L62.9847 349.602L62.996 349.599L63.0072 349.595L63.0185 349.592L63.0297 349.589L63.041 349.586L63.0523 349.583L63.0635 349.58L63.0748 349.577L63.0861 349.574L63.0973 349.571L63.1086 349.568L63.1199 349.565L63.1311 349.562L63.1424 349.559L63.1536 349.556L63.1649 349.553L63.1762 349.549L63.1874 349.546L63.1987 349.543L63.21 349.54L63.2212 349.537L63.2325 349.534L63.2438 349.531L63.255 349.528L63.2663 349.525L63.2775 349.522L63.2888 349.519L63.3001 349.516L63.3113 349.513L63.3226 349.51L63.3339 349.507L63.3451 349.504L63.3564 349.5L63.3677 349.497L63.3789 349.494L63.3902 349.491L63.4014 349.488L63.4127 349.485L63.424 349.482L63.4352 349.479L63.4465 349.476L63.4578 349.473L63.469 349.47L63.4803 349.467L63.4916 349.464L63.5028 349.461L63.5141 349.458L63.5253 349.455L63.5366 349.451L63.5479 349.448L63.5591 349.445L63.5704 349.442L63.5817 349.439L63.5929 349.436L63.6042 349.433L63.6155 349.43L63.6267 349.427L63.638 349.424L63.6492 349.421L63.6605 349.418L63.6718 349.415L63.683 349.412L63.6943 349.409L63.7056 349.405L63.7168 349.402L63.7281 349.399L63.7394 349.396L63.7506 349.393L63.7619 349.39L63.7731 349.387L63.7844 349.384L63.7957 349.381L63.8069 349.378L63.8182 349.375L63.8295 349.372L63.8407 349.369L63.852 349.366L63.8632 349.363L63.8745 349.36L63.8858 349.356L63.897 349.353L63.9083 349.35L63.9196 349.347L63.9308 349.344L63.9421 349.341L63.9534 349.338L63.9646 349.335L63.9759 349.332L63.9871 349.329L63.9984 349.326L64.0097 349.323L64.0209 349.32L64.0322 349.317L64.0435 349.314L64.0547 349.31L64.066 349.307L64.0773 349.304L64.0885 349.301L64.0998 349.298L64.111 349.295L64.1223 349.292L64.1336 349.289L64.1448 349.286L64.1561 349.283L64.1674 349.28L64.1786 349.277L64.1899 349.274L64.2012 349.271L64.2124 349.268L64.2237 349.265L64.2349 349.261L64.2462 349.258L64.2575 349.255L64.2687 349.252L64.28 349.249L64.2913 349.246L64.3025 349.243L64.3138 349.24L64.3251 349.237L64.3363 349.234L64.3476 349.231L64.3588 349.228L64.3701 349.225L64.3814 349.222L64.3926 349.219L64.4039 349.216L64.4152 349.212L64.4264 349.209L64.4377 349.206L64.449 349.203L64.4602 349.2L64.4715 349.197L64.4827 349.194L64.494 349.191L64.5053 349.188L64.5165 349.185L64.5278 349.182L64.5391 349.179L64.5503 349.176L64.5616 349.173L64.5729 349.17L64.5841 349.166L64.5954 349.163L64.6066 349.16L64.6179 349.157L64.6292 349.154L64.6404 349.151L64.6517 349.148L64.663 349.145L64.6742 349.142L64.6855 349.139L64.6968 349.136L64.708 349.133L64.7193 349.13L64.7305 349.127L64.7418 349.124L64.7531 349.121L64.7643 349.117L64.7756 349.114L64.7869 349.111L64.7981 349.108L64.8094 349.105L64.8207 349.102L64.8319 349.099L64.8432 349.096L64.8544 349.093L64.8657 349.09L64.877 349.087L64.8882 349.084L64.8995 349.081L64.9108 349.078L64.922 349.075L64.9333 349.071L64.9446 349.068L64.9558 349.065L64.9671 349.062L64.9783 349.059L64.9896 349.056L65.0009 349.053L65.0121 349.05L65.0234 349.047L65.0347 349.044L65.0459 349.041L65.0572 349.038L65.0685 349.035L65.0797 349.032L65.091 349.029L65.1022 349.026L65.1135 349.022L65.1248 349.019L65.136 349.016L65.1473 349.013L65.1586 349.01L65.1698 349.007L65.1811 349.004C66.0523 348.767 66.9087 349.307 67.1793 350.174C67.4359 350.997 66.8483 351.953 66.019 352.178L66.0077 352.182L65.9964 352.185L65.9852 352.188L65.9739 352.191L65.9627 352.194L65.9514 352.197L65.9401 352.2L65.9289 352.203L65.9176 352.206L65.9063 352.209L65.8951 352.212L65.8838 352.215L65.8725 352.218L65.8613 352.221L65.85 352.224L65.8388 352.227L65.8275 352.231L65.8162 352.234L65.805 352.237L65.7937 352.24L65.7824 352.243L65.7712 352.246L65.7599 352.249L65.7486 352.252L65.7374 352.255L65.7261 352.258L65.7149 352.261L65.7036 352.264L65.6923 352.267L65.6811 352.27L65.6698 352.273L65.6585 352.277L65.6473 352.28L65.636 352.283L65.6247 352.286L65.6135 352.289L65.6022 352.292L65.591 352.295L65.5797 352.298L65.5684 352.301L65.5572 352.304L65.5459 352.307L65.5346 352.31L65.5234 352.313L65.5121 352.316L65.5008 352.319L65.4896 352.322L65.4783 352.326L65.4671 352.329L65.4558 352.332L65.4445 352.335L65.4333 352.338L65.422 352.341L65.4107 352.344L65.3995 352.347L65.3882 352.35L65.3769 352.353L65.3657 352.356L65.3544 352.359L65.3432 352.362L65.3319 352.365L65.3206 352.368L65.3094 352.371L65.2981 352.375L65.2868 352.378L65.2756 352.381L65.2643 352.384L65.253 352.387L65.2418 352.39L65.2305 352.393L65.2193 352.396L65.208 352.399L65.1967 352.402L65.1855 352.405L65.1742 352.408L65.1629 352.411L65.1517 352.414L65.1404 352.417L65.1292 352.421L65.1179 352.424L65.1066 352.427L65.0954 352.43L65.0841 352.433L65.0728 352.436L65.0616 352.439L65.0503 352.442L65.039 352.445L65.0278 352.448L65.0165 352.451L65.0053 352.454L64.994 352.457L64.9827 352.46L64.9715 352.463L64.9602 352.466L64.9489 352.47L64.9377 352.473L64.9264 352.476L64.9151 352.479L64.9039 352.482L64.8926 352.485L64.8814 352.488L64.8701 352.491L64.8588 352.494L64.8476 352.497L64.8363 352.5L64.825 352.503L64.8138 352.506L64.8025 352.509L64.7912 352.512L64.78 352.515L64.7687 352.519L64.7575 352.522L64.7462 352.525L64.7349 352.528L64.7237 352.531L64.7124 352.534L64.7011 352.537L64.6899 352.54L64.6786 352.543L64.6673 352.546L64.6561 352.549L64.6448 352.552L64.6336 352.555L64.6223 352.558L64.611 352.561L64.5998 352.565L64.5885 352.568L64.5772 352.571L64.566 352.574L64.5547 352.577L64.5434 352.58L64.5322 352.583L64.5209 352.586L64.5097 352.589L64.4984 352.592L64.4871 352.595L64.4759 352.598L64.4646 352.601L64.4533 352.604L64.4421 352.607L64.4308 352.61L64.4195 352.614L64.4083 352.617L64.397 352.62L64.3858 352.623L64.3745 352.626L64.3632 352.629L64.352 352.632L64.3407 352.635L64.3294 352.638L64.3182 352.641L64.3069 352.644L64.2956 352.647L64.2844 352.65L64.2731 352.653L64.2619 352.656L64.2506 352.66L64.2393 352.663L64.2281 352.666L64.2168 352.669L64.2055 352.672L64.1943 352.675L64.183 352.678L64.1717 352.681L64.1605 352.684L64.1492 352.687L64.138 352.69L64.1267 352.693L64.1154 352.696L64.1042 352.699L64.0929 352.702L64.0816 352.705L64.0704 352.709L64.0591 352.712L64.0478 352.715L64.0366 352.718L64.0253 352.721L64.0141 352.724L64.0028 352.727L63.9915 352.73L63.9803 352.733L63.969 352.736L63.9577 352.739L63.9465 352.742L63.9352 352.745L63.9239 352.748L63.9127 352.751L63.9014 352.754L63.8902 352.758L63.8789 352.761L63.8676 352.764L63.8564 352.767L63.8451 352.77L63.8338 352.773L63.8226 352.776L63.8113 352.779L63.8001 352.782L63.7888 352.785L63.7775 352.788L63.7663 352.791L63.755 352.794L63.7437 352.797L63.7325 352.8L63.7212 352.804L63.7099 352.807L63.6987 352.81L63.6874 352.813L63.6762 352.816L63.6649 352.819L63.6536 352.822L63.6424 352.825L63.6311 352.828L63.6198 352.831L63.6086 352.834L63.5973 352.837L63.586 352.84L63.5748 352.843L63.5635 352.846L63.5523 352.849L63.541 352.853L63.5297 352.856L63.5185 352.859L63.5072 352.862L63.4959 352.865L63.4847 352.868L63.4734 352.871L63.4621 352.874L63.4509 352.877L63.4396 352.88L63.4284 352.883L63.4171 352.886L63.4058 352.889L63.3946 352.892L63.3833 352.895L63.372 352.899L63.3608 352.902L63.3495 352.905L63.3382 352.908L63.327 352.911L63.3157 352.914L63.3045 352.917L63.2932 352.92L63.2819 352.923L63.2707 352.926L63.2594 352.929L63.2481 352.932L63.2369 352.935L63.2256 352.938L63.2143 352.941L63.2031 352.944L63.1918 352.948L63.1806 352.951L63.1693 352.954L63.158 352.957L63.1468 352.96L63.1355 352.963L63.1242 352.966L63.113 352.969L63.1017 352.972L63.0904 352.975L63.0792 352.978L63.0679 352.981L63.0567 352.984L63.0454 352.987L63.0341 352.99L63.0229 352.993L63.0116 352.997L63.0003 353L62.9891 353.003L62.9778 353.006L62.9665 353.009L62.9553 353.012L62.944 353.015L62.9328 353.018L62.9215 353.021L62.9102 353.024L62.899 353.027L62.8877 353.03L62.8764 353.033L62.8652 353.036L62.8539 353.039L62.8426 353.043L62.8314 353.046L62.8201 353.049L62.8089 353.052L62.7976 353.055L62.7863 353.058L62.7751 353.061L62.7638 353.064L62.7525 353.067L62.7413 353.07L62.73 353.073L62.7187 353.076L62.7075 353.079L62.6962 353.082L62.685 353.085L62.6737 353.088L62.6624 353.092L62.6512 353.095L62.6399 353.098L62.6286 353.101L62.6174 353.104L62.6061 353.107L62.5948 353.11L62.5836 353.113L62.5723 353.116L62.5611 353.119L62.5498 353.122L62.5385 353.125L62.5273 353.128L62.516 353.131L62.5047 353.134L62.4935 353.137L62.4822 353.141L62.471 353.144L62.4597 353.147L62.4484 353.15L62.4372 353.153L62.4259 353.156L62.4146 353.159L62.4034 353.162L62.3921 353.165L62.3808 353.168L62.3696 353.171L62.3583 353.174L62.3471 353.177L62.3358 353.18L62.3245 353.183L62.3133 353.187L62.302 353.19L62.2907 353.193L62.2795 353.196L62.2682 353.199L62.2569 353.202L62.2457 353.205L62.2344 353.208L62.2232 353.211L62.2119 353.214L62.2006 353.217L62.1894 353.22L62.1781 353.223L62.1668 353.226L62.1556 353.229L62.1443 353.232L62.133 353.236L62.1218 353.239L62.1105 353.242L62.0993 353.245L62.088 353.248L62.0767 353.251L62.0655 353.254L62.0542 353.257L62.0429 353.26L62.0317 353.263L62.0204 353.266L62.0091 353.269L61.9979 353.272L61.9866 353.275L61.9754 353.278ZM60.5121 353.676L59.6742 350.502L59.6845 350.499L59.6957 350.496L59.707 350.493L59.7183 350.49L59.7295 350.487L59.7408 350.484L59.752 350.481L59.7633 350.478L59.7648 350.477C60.6361 350.24 61.4925 350.78 61.763 351.647C62.0196 352.47 61.432 353.426 60.6027 353.652L60.6012 353.652L60.5899 353.655L60.5787 353.658L60.5674 353.661L60.5561 353.665L60.5449 353.668L60.5336 353.671L60.5224 353.674L60.5121 353.676Z" fill="#4A7DAB" stroke="#4A7DAB" stroke-width="0.539052"/>
<path d="M48.2022 385.827L47.4572 387.124C45.4507 390.618 43.0425 394.812 40.6508 398.977C38.2804 403.105 35.9262 407.204 33.9951 410.567L33.2394 411.883L31.9397 411.124C28.6114 409.178 22.4175 405.477 20.453 404.281C13.3412 399.954 12.6335 390.725 16.1318 384.632C20.2563 377.45 28.494 374.196 35.1117 378.139L48.2022 385.827ZM48.2022 385.827L46.9203 385.079M48.2022 385.827L46.9203 385.079M46.9203 385.079C43.5148 383.093 36.9131 379.212 35.1119 378.139L46.9203 385.079Z" fill="#95C0E2" stroke="#4A7DAB" stroke-width="3"/>
<path d="M32.5672 411.538C34.1302 412.445 36.6563 413.867 38.7843 415.058C39.8504 415.655 40.8193 416.196 41.5217 416.587C41.8729 416.782 42.1575 416.941 42.3544 417.05L42.5812 417.176L42.6403 417.209L42.6485 417.214C46.81 419.625 50.8358 420.036 54.3185 418.968C57.7772 417.906 60.54 415.434 62.3001 412.369C64.6088 408.349 65.5282 404.343 64.7814 400.691C64.0281 397.007 61.6305 393.934 57.8112 391.717C56.9306 391.206 55.4563 390.297 53.8046 389.28C53.621 389.167 53.4351 389.052 53.2477 388.937C51.3903 387.793 49.3865 386.563 47.864 385.679C47.6125 385.533 47.3147 385.36 46.9943 385.173L46.9201 385.13L45.6212 384.373L44.8665 385.687C42.1441 390.427 38.6721 396.474 35.5106 401.98C34.0394 404.542 32.6354 406.988 31.4055 409.129L30.661 410.426L31.9417 411.174L31.9612 411.185C32.1725 411.309 32.3764 411.428 32.5672 411.538ZM32.5672 411.538C32.5665 411.537 32.5659 411.537 32.5652 411.537L33.3212 410.234M32.5672 411.538C32.5678 411.538 32.5685 411.539 32.5691 411.539L33.3212 410.234M33.3212 410.234C33.1337 410.126 32.9324 410.008 32.7191 409.884L32.7011 409.873M33.3212 410.234C36.4242 412.035 43.392 415.904 43.392 415.904C51.1007 420.378 57.8074 417.193 61.0045 411.625C65.3763 404.012 64.1103 397.115 57.0552 393.02C56.1564 392.498 54.6639 391.578 53.0201 390.565C51.142 389.408 49.0664 388.129 47.4529 387.183L32.7011 409.873M32.7011 409.873C33.9303 407.733 35.3335 405.289 36.8038 402.728C39.6823 397.715 42.8184 392.253 45.4119 387.737L45.4038 387.732L46.162 386.431L32.7011 409.873Z" fill="white" stroke="#4A7DAB" stroke-width="3"/>
<path d="M162.072 185.561L162.075 169.308L161.906 168.894L161.893 168.89C161.825 168.674 161.662 168.491 161.425 168.428L103.019 152.862C102.653 152.764 102.276 152.98 102.178 153.345L81.9039 228.602C81.8057 228.966 82.0234 229.341 82.3898 229.439L140.796 245.005C141.162 245.103 141.539 244.886 141.638 244.522L157.602 185.26L161.208 186.221C161.644 186.337 162.073 186.01 162.073 185.561L162.072 185.561Z" fill="white"/>
<path d="M161.782 167.108C159.203 166.42 156.624 165.733 154.045 165.046C148.158 163.477 142.273 161.908 136.386 160.339C129.97 158.63 123.553 156.919 117.137 155.209L104.629 151.876C103.18 151.489 101.511 151.056 100.851 152.996C100.653 153.578 100.528 154.197 100.368 154.79C99.3309 158.639 98.2943 162.487 97.2575 166.335L92.3976 184.375C90.6379 190.907 88.8782 197.44 87.1183 203.973C85.6621 209.378 84.2058 214.784 82.7496 220.189C82.0418 222.816 81.2392 225.437 80.622 228.087C80.3471 229.268 80.8275 230.353 82.0358 230.761C82.2185 230.822 82.4121 230.861 82.598 230.91L86.6426 231.988C91.9496 233.403 97.2559 234.817 102.563 236.231L122.195 241.464C127.183 242.793 132.172 244.122 137.16 245.452C138.202 245.73 139.242 246.046 140.294 246.287C141.483 246.56 142.564 246.062 142.968 244.871C143.026 244.703 143.062 244.524 143.108 244.353L145.587 235.15C147.105 229.515 148.623 223.879 150.141 218.244L155.441 198.571C157.007 192.758 158.573 186.945 160.139 181.132L162.949 170.7C163.286 169.452 163.704 167.955 162.123 167.249C161.447 166.947 160.646 167.051 160.242 167.736C159.899 168.319 160.051 169.303 160.732 169.607C160.455 169.484 160.78 168.711 160.558 169.019C160.509 169.087 160.498 169.239 160.476 169.32L160.16 170.495C159.768 171.949 159.376 173.403 158.985 174.858C157.653 179.799 156.323 184.74 154.991 189.681C153.292 195.988 151.593 202.295 149.894 208.602L144.91 227.103C143.718 231.526 142.527 235.95 141.335 240.373L140.458 243.629C140.42 243.769 140.301 244.011 140.316 244.158C140.236 243.373 141.464 243.893 141.072 243.663C140.986 243.612 140.839 243.601 140.744 243.575C137.304 242.659 133.865 241.742 130.426 240.826L112.201 235.968C106.07 234.335 99.9402 232.701 93.8095 231.067L83.2579 228.255C83.1537 228.227 82.9866 228.145 82.8783 228.154C82.3696 228.193 83.5164 228.83 83.2344 228.955C83.2878 228.931 83.3411 228.559 83.3552 228.506L84.1946 225.39C85.3754 221.007 86.5561 216.624 87.737 212.241C89.3854 206.122 91.0338 200.003 92.6822 193.884L97.7915 174.918C99.1372 169.923 100.483 164.927 101.829 159.931L103.038 155.442C103.095 155.23 103.64 153.898 103.507 153.703C103.668 153.94 102.406 153.932 102.77 154.21C102.845 154.267 103.035 154.28 103.125 154.304L104.561 154.687C106.336 155.16 108.11 155.633 109.885 156.106C115.588 157.626 121.291 159.146 126.995 160.666C133.331 162.355 139.668 164.044 146.004 165.732L159.178 169.243C159.809 169.412 160.441 169.58 161.072 169.748C162.781 170.203 163.495 167.564 161.784 167.108L161.782 167.108Z" fill="#4A7DAB"/>
<path d="M160.701 169.318C160.701 171.835 160.701 174.352 160.701 176.868L160.7 182.387L160.7 184.382C160.7 184.65 160.588 185.214 160.7 185.465C160.708 185.485 160.685 185.545 160.7 185.562C160.498 185.34 161.862 185.183 161.427 184.863C161.162 184.669 160.55 184.629 160.234 184.545L157.959 183.939C156.251 183.484 155.537 186.124 157.248 186.58L159.368 187.145C160.171 187.359 161.16 187.776 161.991 187.52C163.66 187.005 163.449 185.276 163.449 183.924L163.451 172.617L163.452 169.299C163.452 167.542 160.703 167.555 160.703 169.319L160.701 169.318Z" fill="#4A7DAB"/>
<path d="M141.029 203.319C141.136 202.92 141.244 202.52 141.352 202.12C122.994 197.228 103.469 192.024 103.469 192.024C101.929 197.738 100.39 203.453 98.8506 209.167C118.397 214.376 136.734 219.263 136.734 219.263C136.734 219.263 138.839 211.447 141.029 203.319Z" fill="#95C0E2"/>
<path d="M134.481 227.631C122.728 224.499 110.974 221.366 99.221 218.234L96.5987 217.535C94.8903 217.08 94.1763 219.72 95.8873 220.176C104.487 222.468 113.087 224.76 121.687 227.052C125.715 228.125 129.742 229.199 133.77 230.272C135.479 230.727 136.192 228.087 134.481 227.631Z" fill="#4A7DAB"/>
<path d="M142.357 203.672C142.464 203.273 142.572 202.873 142.68 202.474C142.872 201.76 142.427 200.992 141.708 200.8C129.954 197.668 118.201 194.535 106.448 191.403C105.574 191.17 104.7 190.937 103.825 190.704C103.108 190.513 102.335 190.955 102.142 191.67C100.603 197.385 99.0636 203.099 97.5242 208.813C97.332 209.527 97.7765 210.295 98.496 210.487C110.295 213.632 122.093 216.776 133.891 219.921L136.379 220.584C137.096 220.775 137.869 220.333 138.062 219.617C139.494 214.302 140.925 208.987 142.357 203.672C142.815 201.973 140.161 201.263 139.703 202.965C138.271 208.28 136.839 213.595 135.407 218.909L137.09 217.943C128.65 215.693 120.209 213.444 111.769 211.194C107.582 210.079 103.395 208.963 99.208 207.847L100.18 209.521C101.719 203.807 103.258 198.092 104.798 192.378L103.115 193.345C111.714 195.637 120.314 197.928 128.914 200.221C132.942 201.294 136.97 202.367 140.998 203.441L140.026 201.767C139.918 202.166 139.811 202.566 139.703 202.965C139.246 204.664 141.9 205.374 142.358 203.673L142.357 203.672Z" fill="#4A7DAB"/>
<path d="M141.742 186.046C132.238 183.513 122.733 180.98 113.228 178.447C112.556 178.268 111.884 178.089 111.212 177.909C109.504 177.454 108.79 180.094 110.501 180.55C117.334 182.371 124.168 184.193 131.001 186.014C134.344 186.905 137.688 187.796 141.031 188.687C142.74 189.142 143.454 186.502 141.742 186.046Z" fill="#4A7DAB"/>
<path d="M119.473 171.816C119.45 171.603 119.429 171.385 119.378 171.176C119.326 170.967 119.227 170.764 119.138 170.57C119.109 170.508 119.079 170.448 119.041 170.391C118.919 170.211 118.787 170.027 118.634 169.872C118.481 169.716 118.294 169.584 118.117 169.459C118.047 169.409 117.973 169.366 117.895 169.329C117.682 169.229 117.458 169.129 117.231 169.06C116.993 168.988 116.733 168.972 116.49 168.944C116.39 168.933 116.29 168.927 116.189 168.935C115.962 168.953 115.723 168.976 115.502 169.037C115.031 169.166 114.701 169.383 114.329 169.683C114.272 169.729 114.219 169.779 114.17 169.836C114.028 170.002 113.882 170.176 113.766 170.363C113.684 170.495 113.631 170.641 113.57 170.783C113.557 170.814 113.548 170.847 113.534 170.878C113.48 170.984 113.436 171.097 113.405 171.217C113.337 171.477 113.307 171.753 113.288 172.018C113.269 172.289 113.322 172.569 113.367 172.834C113.413 173.108 113.536 173.377 113.66 173.621C113.69 173.679 113.726 173.733 113.765 173.786C113.891 173.957 114.015 174.149 114.177 174.293C114.568 174.641 114.867 174.796 115.35 174.981C115.661 175.1 116.012 175.136 116.339 175.158C116.639 175.178 116.959 175.132 117.245 175.051C117.449 174.993 117.651 174.901 117.841 174.81C117.904 174.78 117.964 174.746 118.022 174.705C118.47 174.396 118.89 174.014 119.114 173.507C119.23 173.243 119.35 172.99 119.397 172.707C119.443 172.423 119.503 172.109 119.473 171.816Z" fill="#4A7DAB"/>
<path d="M131.389 174.991C131.366 174.778 131.345 174.561 131.294 174.352C131.242 174.142 131.143 173.94 131.054 173.745C131.025 173.683 130.995 173.624 130.957 173.567C130.835 173.387 130.703 173.203 130.55 173.047C130.397 172.892 130.21 172.76 130.033 172.635C129.963 172.585 129.889 172.541 129.811 172.505C129.598 172.405 129.374 172.304 129.147 172.236C128.909 172.164 128.649 172.148 128.406 172.12C128.306 172.109 128.206 172.103 128.105 172.11C127.878 172.128 127.639 172.152 127.418 172.212C126.947 172.342 126.617 172.559 126.245 172.859C126.188 172.905 126.135 172.955 126.086 173.011C125.944 173.177 125.798 173.351 125.682 173.539C125.601 173.67 125.547 173.817 125.486 173.959C125.473 173.99 125.464 174.022 125.45 174.053C125.396 174.16 125.352 174.273 125.321 174.392C125.253 174.652 125.223 174.928 125.204 175.193C125.185 175.465 125.238 175.745 125.283 176.01C125.329 176.284 125.452 176.552 125.576 176.796C125.606 176.854 125.642 176.909 125.681 176.961C125.807 177.133 125.931 177.324 126.093 177.469C126.484 177.817 126.783 177.972 127.266 178.157C127.577 178.276 127.928 178.312 128.255 178.334C128.555 178.354 128.875 178.308 129.161 178.226C129.365 178.168 129.567 178.076 129.757 177.986C129.82 177.956 129.88 177.921 129.938 177.881C130.386 177.571 130.806 177.19 131.03 176.682C131.146 176.418 131.266 176.166 131.313 175.883C131.359 175.599 131.42 175.285 131.389 174.992L131.389 174.991Z" fill="#4A7DAB"/>
<path d="M143.303 178.167C143.28 177.954 143.259 177.737 143.208 177.528C143.157 177.318 143.057 177.115 142.968 176.921C142.939 176.859 142.909 176.799 142.871 176.742C142.749 176.563 142.617 176.378 142.464 176.223C142.311 176.067 142.124 175.935 141.947 175.811C141.877 175.761 141.803 175.717 141.725 175.681C141.512 175.581 141.288 175.48 141.061 175.412C140.823 175.34 140.563 175.324 140.32 175.296C140.22 175.284 140.12 175.278 140.019 175.286C139.792 175.304 139.553 175.327 139.332 175.388C138.861 175.517 138.531 175.734 138.159 176.034C138.102 176.081 138.049 176.131 138 176.187C137.858 176.353 137.712 176.527 137.596 176.714C137.515 176.846 137.461 176.992 137.401 177.135C137.387 177.166 137.378 177.198 137.364 177.229C137.31 177.336 137.266 177.448 137.235 177.568C137.167 177.828 137.137 178.104 137.118 178.369C137.099 178.641 137.152 178.921 137.197 179.185C137.243 179.459 137.366 179.728 137.491 179.972C137.52 180.03 137.556 180.084 137.595 180.137C137.721 180.308 137.845 180.5 138.007 180.644C138.398 180.993 138.698 181.148 139.18 181.333C139.491 181.452 139.842 181.487 140.169 181.509C140.469 181.53 140.789 181.483 141.075 181.402C141.28 181.344 141.481 181.252 141.671 181.162C141.734 181.131 141.794 181.097 141.852 181.056C142.3 180.747 142.72 180.366 142.944 179.858C143.061 179.594 143.18 179.341 143.227 179.058C143.274 178.774 143.333 178.46 143.303 178.167Z" fill="#4A7DAB"/>
</svg>
