<svg width="140" height="230" viewBox="0 0 140 230" fill="none" xmlns="http://www.w3.org/2000/svg">
<path d="M15.8156 129.518C15.7744 129.13 15.7641 128.742 15.7916 128.354C15.8668 127.293 15.9611 126.188 16.1921 125.147C16.3881 124.259 16.7615 123.4 17.124 122.565C17.2065 122.375 17.2884 122.187 17.3676 121.999C17.5428 121.583 17.7398 121.182 17.9934 120.808C18.5641 119.965 19.182 119.095 19.9099 118.377C21.4588 116.845 23.0426 116.07 25.0455 115.326M15.8156 129.518L17.142 129.401M15.8156 129.518L17.1421 129.402C17.1421 129.402 17.1421 129.402 17.142 129.401M15.8156 129.518L15.8204 129.563C15.9233 130.527 16.0317 131.543 16.3044 132.486M17.142 129.401C17.1085 129.085 17.1011 128.778 17.1224 128.479L17.1224 128.479C17.1975 127.419 17.287 126.404 17.4942 125.469L17.4944 125.468C17.6599 124.718 17.9692 124.005 18.3263 123.18C18.4138 122.979 18.5041 122.77 18.596 122.553L18.5967 122.551C18.7532 122.179 18.9113 121.864 19.0986 121.588L19.0992 121.587C19.6668 120.748 20.2231 119.974 20.8515 119.354L20.8524 119.353C22.2145 118.006 23.6044 117.31 25.5274 116.596M17.142 129.401C17.2492 130.405 17.3471 131.312 17.5839 132.13L16.3044 132.486M25.5274 116.596C25.5268 116.596 25.5263 116.596 25.5258 116.596L25.0455 115.326M25.5274 116.596C25.5277 116.596 25.528 116.595 25.5284 116.595L25.0455 115.326M25.5274 116.596C25.7799 116.502 26.0172 116.435 26.2507 116.394M25.0455 115.326C25.3557 115.212 25.6709 115.12 25.9988 115.063M25.9988 115.063L26.2498 116.395C26.2501 116.395 26.2504 116.394 26.2507 116.394M25.9988 115.063C26.9682 114.896 27.9763 114.735 28.9692 114.719L32.7971 116.599C32.3512 116.471 31.9031 116.395 31.4517 116.365L31.4047 116.361L31.3579 116.355C31.2479 116.34 31.1442 116.32 31.0745 116.306L31.0658 116.305C30.9855 116.289 30.943 116.281 30.9051 116.276L30.9026 116.276C30.7441 116.253 30.5957 116.231 30.4552 116.21C29.9022 116.127 29.4704 116.062 29.0207 116.07L29.0192 116.07C28.139 116.084 27.2211 116.227 26.2507 116.394M25.9988 115.063L26.2516 116.394C26.2513 116.394 26.251 116.394 26.2507 116.394M16.3044 132.486C16.5816 133.441 17.0207 134.382 17.4619 135.273L17.5841 132.131M16.3044 132.486L17.5841 132.131M17.5841 132.131C17.8244 132.959 18.2146 133.805 18.6519 134.687L18.653 134.69C18.7444 134.875 18.8649 135.064 19.0257 135.288L19.0273 135.29M17.5841 132.131L19.0273 135.29M19.0273 135.29C19.0921 135.38 19.1557 135.47 19.2182 135.557M19.0273 135.29L19.2182 135.557M35.991 117.924L35.991 117.924C36.8784 118.367 37.6879 119.044 38.6073 119.812C38.6634 119.859 38.72 119.907 38.7769 119.954L38.7781 119.955C39.5899 120.632 40.2837 121.583 40.9669 122.622L40.9676 122.623C41.076 122.788 41.174 122.977 41.2828 123.218C41.3719 123.415 41.4584 123.603 41.5412 123.782C41.8763 124.507 42.1509 125.101 42.2891 125.727L35.991 117.924ZM35.991 117.924C34.9184 117.389 33.8533 116.905 32.7978 116.6L35.991 117.924ZM42.404 131.394L42.4039 131.395C42.2223 132.654 41.6721 133.942 41.0418 135.255L41.0417 135.256C40.5425 136.297 39.7588 137.311 38.8912 138.152L38.8909 138.152C38.3012 138.724 37.5788 139.238 36.8051 139.766C36.6012 139.904 36.3953 140.021 36.1796 140.119L36.1759 140.121C34.0525 141.1 31.8892 141.729 29.7462 141.463L29.7452 141.463C29.6541 141.452 29.5643 141.441 29.4756 141.43C28.2442 141.28 27.248 141.158 26.2845 140.782L26.2843 140.782C26.1891 140.744 26.0945 140.708 26.0007 140.671C24.8189 140.212 23.7538 139.797 22.9078 139.176L22.257 138.699C21.6998 138.283 21.1894 137.883 20.7298 137.441L42.404 131.394ZM42.404 131.394C42.7219 129.199 42.7574 127.853 42.2892 125.728L42.404 131.394ZM19.2182 135.557C19.7413 136.291 20.1928 136.924 20.7294 137.44L19.2182 135.557Z" fill="white" stroke="#4A7DAB" stroke-width="2.68714"/>
<path d="M35.4553 130.045C35.7461 129.092 35.1223 127.991 34.1926 127.599L33.1849 131.524C34.2086 131.687 35.1521 131.038 35.4553 130.045ZM31.0904 130.951L31.1013 130.954C30.5813 130.329 30.3288 129.479 30.5739 128.676C30.8123 127.895 31.3856 127.278 32.1089 126.999L32.1053 126.998L32.0916 126.994L32.078 126.99L32.0643 126.986L32.0506 126.982L32.037 126.978L32.0233 126.975L32.0096 126.971L31.9959 126.967L31.9823 126.963L31.9686 126.959L31.9549 126.955L31.9413 126.952L31.9276 126.948L31.9139 126.944L31.9003 126.94L31.8866 126.936L31.8729 126.932L31.8593 126.929L31.8456 126.925L31.8319 126.921L31.8183 126.917L31.8046 126.913L31.7909 126.909L31.7773 126.906L31.7636 126.902L31.7499 126.898L31.7363 126.894L31.7226 126.89L31.7089 126.886L31.6953 126.883L31.6816 126.879L31.6679 126.875L31.6542 126.871L31.6406 126.867L31.6269 126.863L31.6132 126.86L31.5996 126.856L31.5859 126.852L31.5722 126.848L31.5586 126.844L31.5449 126.841L31.5312 126.837L31.5176 126.833L31.5039 126.829L31.4902 126.825L31.4766 126.821L31.4629 126.818L31.4492 126.814L31.4356 126.81L31.4219 126.806L31.4082 126.802L31.3946 126.798L31.3809 126.795L31.3672 126.791L31.3536 126.787L31.3399 126.783L31.3262 126.779L31.3125 126.775L31.2989 126.772L31.2852 126.768L31.2715 126.764L31.2579 126.76L31.2442 126.756L31.2305 126.752L31.2169 126.749L31.2032 126.745L31.1895 126.741L31.1759 126.737L31.1622 126.733L31.1485 126.729L31.1349 126.726L31.1212 126.722L31.1075 126.718L31.0939 126.714L31.0802 126.71L31.0665 126.706L31.0529 126.703L31.0392 126.699L31.0255 126.695L31.0119 126.691L30.9982 126.687L30.9845 126.683L30.9709 126.68L30.9572 126.676L30.9435 126.672L30.9298 126.668L30.9162 126.664L30.9025 126.66L30.8888 126.657L30.8752 126.653L30.8615 126.649L30.8478 126.645L30.8342 126.641L30.8205 126.637L30.8068 126.634L30.7932 126.63L30.7795 126.626L30.7658 126.622L30.7522 126.618L30.7385 126.614L30.7248 126.611L30.7112 126.607L30.6975 126.603L30.6838 126.599L30.6702 126.595L30.6565 126.591L30.6428 126.588L30.6292 126.584L30.6155 126.58L30.6018 126.576L30.5881 126.572L30.5745 126.568L30.5608 126.565L30.5471 126.561L30.5335 126.557L30.5198 126.553L30.5061 126.549L30.4925 126.545L30.4788 126.542L30.4651 126.538L30.4515 126.534L30.4378 126.53L30.4241 126.526L30.4105 126.522L30.3968 126.519L30.3831 126.515L30.3695 126.511L30.3558 126.507L30.3421 126.503L30.3285 126.499L30.3148 126.496L30.3011 126.492L30.2875 126.488L30.2738 126.484L30.2601 126.48L30.2464 126.476L30.2328 126.473L30.2191 126.469L30.2054 126.465L30.1918 126.461L30.1781 126.457L30.1644 126.453L30.1508 126.45L30.1371 126.446L30.1234 126.442L30.1098 126.438L30.0961 126.434L30.0824 126.43L30.0688 126.427L30.0551 126.423L30.0414 126.419L30.0278 126.415L30.0141 126.411L30.0004 126.407L29.9868 126.404L29.9731 126.4L29.9594 126.396L29.9458 126.392L29.9321 126.388L29.9184 126.384L29.9047 126.381L29.8911 126.377L29.8774 126.373L29.8637 126.369L29.8501 126.365L29.8364 126.361L29.8227 126.358L29.8091 126.354L29.7954 126.35L29.7817 126.346L29.7681 126.342L29.7544 126.338L29.7407 126.335L29.7271 126.331L29.7134 126.327L29.6997 126.323L29.6861 126.319L29.6724 126.315L29.6587 126.312L29.6451 126.308L29.6314 126.304L29.6177 126.3L29.6041 126.296L29.5904 126.292L29.5767 126.289L29.5631 126.285L29.5494 126.281L29.5357 126.277L29.522 126.273L29.5084 126.269L29.4947 126.266L29.481 126.262L29.4674 126.258L29.4537 126.254L29.44 126.25L29.4264 126.246L29.4127 126.243L29.399 126.239L29.3854 126.235L29.3717 126.231L29.358 126.227L29.3444 126.223L29.3307 126.22L29.317 126.216L29.3034 126.212L29.2897 126.208L29.276 126.204L29.2624 126.2L29.2487 126.197L29.235 126.193L29.2214 126.189L29.2077 126.185L29.194 126.181L29.1803 126.178L29.1667 126.174L29.153 126.17L29.1393 126.166L29.1257 126.162L29.112 126.158L29.0983 126.155L29.0847 126.151L29.071 126.147L29.0573 126.143L29.0437 126.139L29.03 126.135L29.0163 126.132L29.0027 126.128L28.989 126.124L28.9753 126.12L28.9617 126.116L28.948 126.112L28.9343 126.109L28.9207 126.105L28.907 126.101L28.8933 126.097L28.8797 126.093L28.866 126.089L28.8523 126.086L28.8386 126.082L28.825 126.078L28.8113 126.074L28.7976 126.07L28.784 126.066L28.7703 126.063L28.7566 126.059L28.743 126.055L28.7293 126.051L28.7156 126.047L28.702 126.043L28.6883 126.04L28.6746 126.036L28.661 126.032L28.6473 126.028L28.6336 126.024L28.62 126.02L28.6063 126.017L28.5926 126.013L28.579 126.009L28.5653 126.005L28.5516 126.001L28.538 125.997L28.5243 125.994L28.5106 125.99L28.497 125.986L28.4833 125.982L28.4696 125.978L28.4559 125.974L28.4423 125.971L28.4286 125.967L28.4149 125.963L28.4013 125.959L28.3876 125.955L28.3739 125.951L28.3603 125.948L28.3466 125.944L28.3329 125.94L28.3193 125.936L28.3056 125.932L28.2919 125.928L28.2783 125.925L28.2646 125.921L28.2509 125.917L28.2373 125.913L28.2236 125.909L28.2099 125.905L28.1963 125.902L28.1826 125.898L28.1689 125.894L28.1553 125.89L28.1416 125.886L28.1279 125.882L28.1142 125.879L28.1006 125.875L28.0869 125.871L28.0732 125.867L28.0596 125.863L28.0459 125.859L28.0322 125.856L28.0186 125.852L28.0049 125.848L27.9912 125.844L27.9776 125.84L27.9639 125.836L27.9502 125.833L27.9366 125.829L27.9229 125.825L27.9092 125.821L27.8956 125.817L27.8819 125.813L27.8682 125.81L27.8546 125.806L27.8409 125.802L27.8272 125.798L27.8136 125.794L27.7999 125.79L27.7862 125.787L27.7725 125.783L27.7589 125.779L27.7452 125.775L27.7315 125.771L27.7179 125.767L27.7042 125.764L27.6905 125.76L27.6769 125.756L27.6632 125.752L27.6495 125.748L27.6359 125.744L27.6222 125.741L27.6085 125.737L27.5949 125.733L27.5812 125.729L27.5675 125.725L27.5539 125.721L27.5402 125.718L27.5265 125.714L27.5129 125.71L27.4992 125.706L27.4855 125.702L27.4719 125.698L27.4582 125.695L27.4445 125.691L27.4308 125.687L27.4172 125.683L27.4035 125.679L27.3898 125.675L27.3762 125.672L27.3625 125.668L27.3488 125.664L27.3352 125.66L27.3215 125.656L27.3078 125.652L27.2942 125.649L27.2805 125.645L27.2668 125.641L27.2532 125.637L27.2395 125.633L27.2258 125.629L27.2122 125.626L27.1985 125.622L27.1848 125.618L27.1712 125.614L27.1575 125.61L27.1438 125.606L27.1302 125.603L27.1165 125.599L27.1028 125.595L27.0892 125.591L27.0755 125.587L27.0618 125.583L27.0481 125.58L27.0345 125.576L27.0208 125.572L27.0071 125.568L26.9935 125.564L26.9798 125.56L26.9661 125.557C25.8547 125.245 24.7864 125.916 24.4601 126.984C24.146 128.013 24.8986 129.215 25.9512 129.51L25.9649 129.514L25.9786 129.518L25.9922 129.522L26.0059 129.526L26.0196 129.53L26.0332 129.533L26.0469 129.537L26.0606 129.541L26.0743 129.545L26.0879 129.549L26.1016 129.553L26.1153 129.556L26.1289 129.56L26.1426 129.564L26.1563 129.568L26.1699 129.572L26.1836 129.576L26.1973 129.579L26.2109 129.583L26.2246 129.587L26.2383 129.591L26.2519 129.595L26.2656 129.599L26.2793 129.602L26.2929 129.606L26.3066 129.61L26.3203 129.614L26.3339 129.618L26.3476 129.622L26.3613 129.625L26.3749 129.629L26.3886 129.633L26.4023 129.637L26.416 129.641L26.4296 129.645L26.4433 129.648L26.457 129.652L26.4706 129.656L26.4843 129.66L26.498 129.664L26.5116 129.668L26.5253 129.671L26.539 129.675L26.5526 129.679L26.5663 129.683L26.58 129.687L26.5936 129.691L26.6073 129.694L26.621 129.698L26.6346 129.702L26.6483 129.706L26.662 129.71L26.6756 129.714L26.6893 129.717L26.703 129.721L26.7166 129.725L26.7303 129.729L26.744 129.733L26.7577 129.737L26.7713 129.74L26.785 129.744L26.7987 129.748L26.8123 129.752L26.826 129.756L26.8397 129.76L26.8533 129.763L26.867 129.767L26.8807 129.771L26.8943 129.775L26.908 129.779L26.9217 129.783L26.9353 129.786L26.949 129.79L26.9627 129.794L26.9763 129.798L26.99 129.802L27.0037 129.806L27.0173 129.809L27.031 129.813L27.0447 129.817L27.0583 129.821L27.072 129.825L27.0857 129.829L27.0993 129.832L27.113 129.836L27.1267 129.84L27.1404 129.844L27.154 129.848L27.1677 129.852L27.1814 129.855L27.195 129.859L27.2087 129.863L27.2224 129.867L27.236 129.871L27.2497 129.875L27.2634 129.878L27.277 129.882L27.2907 129.886L27.3044 129.89L27.318 129.894L27.3317 129.897L27.3454 129.901L27.359 129.905L27.3727 129.909L27.3864 129.913L27.4 129.917L27.4137 129.92L27.4274 129.924L27.441 129.928L27.4547 129.932L27.4684 129.936L27.4821 129.94L27.4957 129.943L27.5094 129.947L27.5231 129.951L27.5367 129.955L27.5504 129.959L27.5641 129.963L27.5777 129.966L27.5914 129.97L27.6051 129.974L27.6187 129.978L27.6324 129.982L27.6461 129.986L27.6597 129.989L27.6734 129.993L27.6871 129.997L27.7007 130.001L27.7144 130.005L27.7281 130.009L27.7417 130.012L27.7554 130.016L27.7691 130.02L27.7827 130.024L27.7964 130.028L27.8101 130.032L27.8238 130.035L27.8374 130.039L27.8511 130.043L27.8648 130.047L27.8784 130.051L27.8921 130.055L27.9058 130.058L27.9194 130.062L27.9331 130.066L27.9468 130.07L27.9604 130.074L27.9741 130.078L27.9878 130.081L28.0014 130.085L28.0151 130.089L28.0288 130.093L28.0424 130.097L28.0561 130.101L28.0698 130.104L28.0834 130.108L28.0971 130.112L28.1108 130.116L28.1244 130.12L28.1381 130.124L28.1518 130.127L28.1655 130.131L28.1791 130.135L28.1928 130.139L28.2065 130.143L28.2201 130.147L28.2338 130.15L28.2475 130.154L28.2611 130.158L28.2748 130.162L28.2885 130.166L28.3021 130.17L28.3158 130.173L28.3295 130.177L28.3431 130.181L28.3568 130.185L28.3705 130.189L28.3841 130.193L28.3978 130.196L28.4115 130.2L28.4251 130.204L28.4388 130.208L28.4525 130.212L28.4661 130.216L28.4798 130.219L28.4935 130.223L28.5071 130.227L28.5208 130.231L28.5345 130.235L28.5482 130.239L28.5618 130.242L28.5755 130.246L28.5892 130.25L28.6028 130.254L28.6165 130.258L28.6302 130.262L28.6438 130.265L28.6575 130.269L28.6712 130.273L28.6848 130.277L28.6985 130.281L28.7122 130.285L28.7258 130.288L28.7395 130.292L28.7532 130.296L28.7668 130.3L28.7805 130.304L28.7942 130.308L28.8078 130.311L28.8215 130.315L28.8352 130.319L28.8488 130.323L28.8625 130.327L28.8762 130.331L28.8899 130.334L28.9035 130.338L28.9172 130.342L28.9309 130.346L28.9445 130.35L28.9582 130.354L28.9719 130.357L28.9855 130.361L28.9992 130.365L29.0129 130.369L29.0265 130.373L29.0402 130.377L29.0539 130.38L29.0675 130.384L29.0812 130.388L29.0949 130.392L29.1085 130.396L29.1222 130.4L29.1359 130.403L29.1495 130.407L29.1632 130.411L29.1769 130.415L29.1905 130.419L29.2042 130.423L29.2179 130.426L29.2316 130.43L29.2452 130.434L29.2589 130.438L29.2726 130.442L29.2862 130.446L29.2999 130.449L29.3136 130.453L29.3272 130.457L29.3409 130.461L29.3546 130.465L29.3682 130.469L29.3819 130.472L29.3956 130.476L29.4092 130.48L29.4229 130.484L29.4366 130.488L29.4502 130.492L29.4639 130.495L29.4776 130.499L29.4912 130.503L29.5049 130.507L29.5186 130.511L29.5322 130.515L29.5459 130.518L29.5596 130.522L29.5732 130.526L29.5869 130.53L29.6006 130.534L29.6143 130.538L29.6279 130.541L29.6416 130.545L29.6553 130.549L29.6689 130.553L29.6826 130.557L29.6963 130.56L29.7099 130.564L29.7236 130.568L29.7373 130.572L29.7509 130.576L29.7646 130.58L29.7783 130.583L29.7919 130.587L29.8056 130.591L29.8193 130.595L29.8329 130.599L29.8466 130.603L29.8603 130.606L29.8739 130.61L29.8876 130.614L29.9013 130.618L29.9149 130.622L29.9286 130.626L29.9423 130.629L29.956 130.633L29.9696 130.637L29.9833 130.641L29.997 130.645L30.0106 130.649L30.0243 130.652L30.038 130.656L30.0516 130.66L30.0653 130.664L30.079 130.668L30.0926 130.672L30.1063 130.675L30.12 130.679L30.1336 130.683L30.1473 130.687L30.161 130.691L30.1746 130.695L30.1883 130.698L30.202 130.702L30.2156 130.706L30.2293 130.71L30.243 130.714L30.2566 130.718L30.2703 130.721L30.284 130.725L30.2977 130.729L30.3113 130.733L30.325 130.737L30.3387 130.741L30.3523 130.744L30.366 130.748L30.3797 130.752L30.3933 130.756L30.407 130.76L30.4207 130.764L30.4343 130.767L30.448 130.771L30.4617 130.775L30.4753 130.779L30.489 130.783L30.5027 130.787L30.5163 130.79L30.53 130.794L30.5437 130.798L30.5573 130.802L30.571 130.806L30.5847 130.81L30.5983 130.813L30.612 130.817L30.6257 130.821L30.6394 130.825L30.653 130.829L30.6667 130.833L30.6804 130.836L30.694 130.84L30.7077 130.844L30.7214 130.848L30.735 130.852L30.7487 130.856L30.7624 130.859L30.776 130.863L30.7897 130.867L30.8034 130.871L30.817 130.875L30.8307 130.879L30.8444 130.882L30.858 130.886L30.8717 130.89L30.8854 130.894L30.899 130.898L30.9127 130.902L30.9264 130.905L30.94 130.909L30.9537 130.913L30.9674 130.917L30.981 130.921L30.9947 130.925L31.0084 130.928L31.0221 130.932L31.0357 130.936L31.0494 130.94L31.0631 130.944L31.0767 130.948L31.0904 130.951ZM32.717 131.407L33.7319 127.454L33.7318 127.454L33.7181 127.45L33.7044 127.446L33.6908 127.442L33.6771 127.438L33.6634 127.435L33.6498 127.431L33.6361 127.427L33.6224 127.423L33.6088 127.419L33.5951 127.415L33.5814 127.412L33.5678 127.408L33.5541 127.404L33.5404 127.4L33.5386 127.4C32.4271 127.088 31.3588 127.758 31.0325 128.827C30.7185 129.856 31.4711 131.058 32.5237 131.353L32.5255 131.354L32.5392 131.358L32.5529 131.361L32.5665 131.365L32.5802 131.369L32.5939 131.373L32.6075 131.377L32.6212 131.381L32.6349 131.384L32.6485 131.388L32.6622 131.392L32.6759 131.396L32.6895 131.4L32.7032 131.404L32.7169 131.407L32.717 131.407Z" fill="#4A7DAB" stroke="#4A7DAB" stroke-width="0.482837"/>
<path d="M43.8778 162.339L44.5682 163.522C47.0543 167.784 50.0519 172.922 53.027 178.022C55.9532 183.038 58.8576 188.016 61.2318 192.086L61.9115 193.251L63.0531 192.597C67.0739 190.29 74.5572 185.898 76.9285 184.48L43.8778 162.339ZM43.8778 162.339L45.038 161.674M43.8778 162.339L45.038 161.674M45.038 161.674C49.155 159.318 57.1361 154.712 59.3145 153.437M45.038 161.674L59.3145 153.437M59.3145 153.437C67.0149 148.932 76.7807 152.79 81.7873 161.373M59.3145 153.437L81.7873 161.373M81.7873 161.373C86.0214 168.631 85.2607 179.498 76.9288 184.48L81.7873 161.373Z" fill="#95C0E2" stroke="#4A7DAB" stroke-width="2.68714"/>
<path d="M45.04 162.03L46.1808 161.377L46.8596 162.541C50.2318 168.32 54.5333 175.695 58.4489 182.407C60.2664 185.523 62.0008 188.496 63.5205 191.101L64.2106 192.284L63.0514 192.949L63.0282 192.962C62.7722 193.109 62.5267 193.25 62.2971 193.379C60.4116 194.453 57.3605 196.138 54.7873 197.55C53.4988 198.257 52.3278 198.898 51.4788 199.361C51.0543 199.593 50.7103 199.78 50.4724 199.91L50.1983 200.059L50.1269 200.098L50.1133 200.106C45.1806 202.912 40.4309 203.323 36.3343 202.029C32.2585 200.741 28.9637 197.807 26.8374 194.162C24.0204 189.333 22.8958 184.587 23.7313 180.316C24.5726 176.014 27.3557 172.426 31.8789 169.85C32.949 169.24 34.736 168.158 36.729 166.951C36.9515 166.816 37.1766 166.68 37.4036 166.543C39.6489 165.183 42.0646 163.726 43.8985 162.682C44.2022 162.509 44.5617 162.303 44.9478 162.082L45.04 162.03Z" fill="white" stroke="#4A7DAB" stroke-width="2.68714"/>
<path d="M97.2524 16.8407L90.0197 3.12011L89.6934 2.84502L89.6807 2.8479C89.5277 2.69469 89.31 2.61228 89.0835 2.66362L33.2419 15.3175C32.8916 15.3969 32.6723 15.7461 32.7523 16.0971L49.2758 88.5787C49.3558 88.9297 49.705 89.1501 50.0553 89.0707L105.897 76.4168C106.247 76.3375 106.467 75.9882 106.387 75.6372L93.375 18.5612L96.8226 17.7799C97.2395 17.6854 97.453 17.2198 97.2531 16.8405L97.2524 16.8407Z" fill="white"/>
<path d="M88.7949 1.3918C86.3289 1.95058 83.863 2.50937 81.3971 3.06815C75.7692 4.34346 70.1419 5.61863 64.5139 6.89394C58.3796 8.284 52.2446 9.6742 46.1103 11.0643L34.1513 13.7742C32.7654 14.0883 31.175 14.4594 31.4861 16.3888C31.5793 16.9674 31.7496 17.5447 31.8799 18.1163C32.7249 21.823 33.5698 25.5291 34.4148 29.2358L38.3756 46.6104C39.8099 52.9017 41.2441 59.193 42.6784 65.4849C43.8652 70.6909 45.0522 75.8975 46.2389 81.1034C46.8158 83.6339 47.3102 86.2005 47.973 88.7102C48.2687 89.8287 49.1538 90.5321 50.3472 90.3426C50.5275 90.3138 50.707 90.2611 50.8847 90.2208L54.7517 89.3446C59.8257 88.1948 64.899 87.0451 69.973 85.8954L88.7427 81.6421C93.5121 80.5613 98.2815 79.4806 103.051 78.3998C104.047 78.174 105.059 77.9822 106.047 77.7208C107.165 77.4255 107.848 76.5277 107.656 75.3442C107.63 75.1771 107.58 75.0104 107.543 74.8451L105.522 65.982C104.285 60.5542 103.047 55.1269 101.81 49.6991L97.4908 30.7521C96.2144 25.1532 94.9382 19.555 93.6618 13.9561L91.3714 3.90913C91.0973 2.70683 90.7811 1.25799 89.1434 1.3603C88.4426 1.40408 87.8178 1.84522 87.7848 2.60225C87.7567 3.24584 88.3219 4.00974 89.0279 3.96544C88.7411 3.98363 88.669 3.18755 88.6199 3.54572C88.6092 3.62502 88.6683 3.75808 88.686 3.83564L88.944 4.96737C89.2633 6.36805 89.5826 7.76872 89.9019 9.1694C90.9868 13.9284 92.0715 18.6867 93.1564 23.4457C94.5412 29.5202 95.926 35.5947 97.3108 41.6691L101.373 59.4875C102.344 63.7481 103.315 68.0086 104.286 72.2685L105.001 75.4042C105.032 75.5397 105.039 75.7962 105.118 75.9142C104.701 75.2863 105.961 75.1834 105.531 75.1619C105.436 75.1573 105.308 75.2124 105.217 75.2331C101.928 75.9782 98.64 76.7234 95.3516 77.4685L77.9272 81.417C72.0657 82.7452 66.2049 84.0733 60.3434 85.4015L50.2551 87.6876C50.1555 87.7101 49.979 87.7147 49.8922 87.7698C49.4839 88.0281 50.7274 88.0586 50.547 88.2887C50.5811 88.2449 50.46 87.9073 50.4486 87.857L49.7645 84.856C48.802 80.6343 47.8398 76.4132 46.8773 72.1915C45.5339 66.2982 44.1904 60.4049 42.8469 54.5117L38.6827 36.245C37.5859 31.4339 36.489 26.6221 35.3922 21.811L34.4066 17.4875C34.3599 17.2828 34.223 15.9184 34.0248 15.8128C34.2655 15.9408 33.2052 16.4914 33.6338 16.5654C33.7221 16.5808 33.8864 16.5082 33.9727 16.4886L35.3459 16.1774C37.0427 15.7929 38.7389 15.4086 40.4357 15.0241C45.8885 13.7885 51.3413 12.5528 56.7947 11.3171C62.8529 9.94426 68.9111 8.57145 74.9686 7.19879L87.5641 4.34462C88.1682 4.20773 88.7723 4.07084 89.3757 3.93409C91.0091 3.56396 90.4319 1.02017 88.796 1.39088L88.7949 1.3918Z" fill="#4A7DAB"/>
<path d="M88.8736 3.73537C89.9939 5.85989 91.1135 7.98455 92.2338 10.1091L94.69 14.768L95.5777 16.4517C95.6975 16.6787 95.8553 17.2039 96.0598 17.3662C96.0761 17.3792 96.0834 17.4404 96.1031 17.448C95.8352 17.3502 96.9082 16.6149 96.4013 16.5372C96.0929 16.4901 95.5624 16.7273 95.261 16.7956L93.0857 17.2885C91.4524 17.6587 92.0296 20.2025 93.6655 19.8318L95.6923 19.3725C96.4601 19.1985 97.4739 19.1139 98.0557 18.5307C99.2247 17.3591 98.2786 15.9928 97.6765 14.8508L92.6451 5.30593L91.1683 2.50462C90.3862 1.0209 88.0896 2.24609 88.8748 3.73509L88.8736 3.73537Z" fill="#4A7DAB"/>
<path d="M87.5335 41.1246C87.4459 40.7406 87.3581 40.3553 87.2704 39.9706C69.7184 43.948 51.0508 48.1781 51.0508 48.1781C52.3054 53.6816 53.56 59.1851 54.8147 64.6887C73.5026 60.4539 91.0343 56.4812 91.0343 56.4812C91.0343 56.4812 89.3182 48.9532 87.5335 41.1246Z" fill="#95C0E2"/>
<path d="M92.8779 64.5385C81.64 67.085 70.4021 69.6316 59.1649 72.178L56.6577 72.7461C55.0242 73.1162 55.6017 75.6612 57.2377 75.2905C65.46 73.4273 73.6823 71.5641 81.9053 69.7008C85.7566 68.8281 89.6072 67.9555 93.4585 67.0828C95.092 66.7126 94.5138 64.1678 92.8779 64.5385Z" fill="#4A7DAB"/>
<path d="M88.8024 40.8373C88.7147 40.4526 88.627 40.068 88.5393 39.6833C88.3826 38.996 87.6681 38.5434 86.9803 38.6993C75.7428 41.2457 64.5053 43.7922 53.2685 46.3385C52.4328 46.5279 51.597 46.7172 50.7613 46.9066C50.0754 47.0621 49.625 47.7766 49.7821 48.4658C51.0367 53.9693 52.2913 59.4729 53.546 64.9764C53.7026 65.6637 54.4171 66.1163 55.105 65.9604C66.3856 63.4042 77.6656 60.8481 88.9462 58.2918L91.3246 57.7529C92.0105 57.5975 92.4609 56.8829 92.3038 56.1937C91.1369 51.0749 89.9693 45.9561 88.8024 40.8373C88.4293 39.2007 85.8911 39.7732 86.2647 41.4123C87.4317 46.5312 88.5986 51.65 89.7655 56.7689L90.7448 55.2097C82.675 57.0383 74.6047 58.8671 66.5349 60.6957C62.5321 61.6028 58.5287 62.51 54.5258 63.417L56.0848 64.401C54.8302 58.8975 53.5756 53.394 52.321 47.8905L51.3417 49.4497C59.5638 47.5866 67.7858 45.7234 76.0085 43.8601C79.8596 42.9874 83.7102 42.1149 87.5613 41.2422L86.0023 40.2582C86.09 40.6429 86.1777 41.0275 86.2654 41.4122C86.6385 43.0487 89.1773 42.4761 88.8036 40.837L88.8024 40.8373Z" fill="#4A7DAB"/>
<path d="M80.4423 26.2296C71.3545 28.289 62.2672 30.3482 53.1793 32.4075C52.5365 32.5532 51.8936 32.6988 51.2514 32.8444C49.618 33.2145 50.1955 35.7595 51.8315 35.3888C58.3652 33.9082 64.8989 32.4277 71.4326 30.9471C74.629 30.2228 77.826 29.4984 81.0224 28.774C82.6558 28.4039 82.0783 25.8589 80.4423 26.2296Z" fill="#4A7DAB"/>
<path d="M55.4586 24.0523C55.345 23.882 55.2306 23.7079 55.0947 23.5541C54.9581 23.3997 54.7849 23.2724 54.6237 23.1477C54.5719 23.1079 54.5201 23.0708 54.4623 23.0398C54.2805 22.9419 54.088 22.8443 53.8907 22.7807C53.6933 22.717 53.4779 22.6882 53.2741 22.6608C53.1928 22.6498 53.1117 22.6454 53.0305 22.6491C52.8072 22.6589 52.5747 22.6728 52.3542 22.7154C52.1234 22.7597 51.8982 22.8609 51.6824 22.9446C51.5935 22.9794 51.507 23.0184 51.4259 23.0696C51.2434 23.1852 51.0543 23.3103 50.8961 23.4592C50.5586 23.7765 50.3794 24.1055 50.2016 24.5231C50.1742 24.5875 50.1519 24.6534 50.1363 24.7225C50.0911 24.9254 50.0465 25.1369 50.0328 25.346C50.023 25.4934 50.0433 25.6407 50.0561 25.7876C50.0588 25.8198 50.0652 25.8511 50.0679 25.8833C50.0698 25.9972 50.0833 26.1119 50.1102 26.2269C50.1691 26.4765 50.2672 26.7225 50.3696 26.9548C50.4745 27.1926 50.6432 27.4059 50.7984 27.6096C50.9593 27.8206 51.1821 27.9929 51.3948 28.1441C51.4457 28.18 51.4999 28.2099 51.5556 28.2374C51.7374 28.3267 51.9273 28.4335 52.127 28.4839C52.6098 28.6053 52.9291 28.6038 53.416 28.547C53.7286 28.5103 54.0391 28.3851 54.3221 28.2594C54.5828 28.1441 54.83 27.9637 55.0337 27.7683C55.1788 27.6291 55.307 27.4623 55.4253 27.3023C55.4651 27.2485 55.4999 27.1931 55.5303 27.1334C55.768 26.6741 55.9493 26.1667 55.911 25.6389C55.8912 25.3644 55.8786 25.0984 55.7919 24.8384C55.7045 24.5779 55.6147 24.2865 55.4586 24.0523Z" fill="#4A7DAB"/>
<path d="M66.8511 21.4704C66.7376 21.3001 66.6231 21.126 66.4873 20.9722C66.3507 20.8178 66.1775 20.6905 66.0162 20.5658C65.9645 20.526 65.9126 20.4889 65.8548 20.4579C65.673 20.3599 65.4806 20.2624 65.2832 20.1987C65.0858 20.1351 64.8704 20.1063 64.6666 20.0789C64.5854 20.0679 64.5043 20.0635 64.423 20.0672C64.1997 20.077 63.9673 20.0909 63.7467 20.1335C63.5159 20.1778 63.2907 20.279 63.0749 20.3627C62.9861 20.3975 62.8995 20.4365 62.8184 20.4877C62.6359 20.6033 62.4469 20.7284 62.2886 20.8773C61.9512 21.1946 61.7719 21.5236 61.5941 21.9412C61.5668 22.0056 61.5444 22.0715 61.5288 22.1406C61.4837 22.3435 61.4391 22.5549 61.4254 22.7641C61.4156 22.9115 61.4358 23.0587 61.4486 23.2057C61.4513 23.2379 61.4578 23.2692 61.4604 23.3014C61.4624 23.4153 61.4758 23.53 61.5027 23.645C61.5616 23.8945 61.6598 24.1406 61.7621 24.3729C61.867 24.6107 62.0358 24.824 62.191 25.0276C62.3519 25.2387 62.5747 25.411 62.7873 25.5621C62.8383 25.5981 62.8924 25.628 62.9481 25.6555C63.1299 25.7447 63.3198 25.8516 63.5195 25.902C64.0023 26.0234 64.3216 26.0219 64.8086 25.9651C65.1212 25.9284 65.4317 25.8032 65.7147 25.6775C65.9754 25.5622 66.2225 25.3818 66.4263 25.1864C66.5714 25.0472 66.6995 24.8803 66.8179 24.7204C66.8577 24.6666 66.8924 24.6112 66.9228 24.5514C67.1605 24.0922 67.3418 23.5848 67.3036 23.057C67.2837 22.7825 67.2711 22.5165 67.1845 22.2565C67.0971 21.996 67.0079 21.7044 66.8518 21.4702L66.8511 21.4704Z" fill="#4A7DAB"/>
<path d="M78.2437 18.8894C78.1301 18.7192 78.0157 18.5451 77.8799 18.3912C77.7432 18.2369 77.5701 18.1096 77.4088 17.9849C77.357 17.9451 77.3052 17.908 77.2474 17.877C77.0656 17.779 76.8732 17.6815 76.6758 17.6178C76.4784 17.5542 76.263 17.5254 76.0592 17.498C75.9779 17.487 75.8969 17.4826 75.8156 17.4863C75.5923 17.4961 75.3599 17.5099 75.1393 17.5526C74.9085 17.5968 74.6833 17.698 74.4675 17.7817C74.3787 17.8166 74.2921 17.8556 74.211 17.9067C74.0285 18.0224 73.8395 18.1475 73.6812 18.2964C73.3438 18.6137 73.1645 18.9426 72.9867 19.3602C72.9594 19.4246 72.937 19.4906 72.9214 19.5597C72.8762 19.7626 72.8317 19.974 72.818 20.1832C72.8082 20.3305 72.8284 20.4778 72.8412 20.6248C72.8439 20.6569 72.8504 20.6882 72.853 20.7204C72.855 20.8344 72.8684 20.9491 72.8953 21.0641C72.9542 21.3136 73.0523 21.5596 73.1547 21.792C73.2596 22.0298 73.4284 22.2431 73.5836 22.4467C73.7445 22.6578 73.9673 22.83 74.1799 22.9812C74.2308 23.0172 74.285 23.047 74.3407 23.0746C74.5225 23.1638 74.7124 23.2706 74.9121 23.321C75.3949 23.4424 75.7142 23.441 76.2011 23.3842C76.5138 23.3474 76.8242 23.2222 77.1073 23.0966C77.3679 22.9813 77.6151 22.8008 77.8188 22.6055C77.964 22.4663 78.0921 22.2994 78.2105 22.1395C78.2502 22.0856 78.285 22.0303 78.3154 21.9705C78.5531 21.5113 78.7344 21.0039 78.6962 20.4761C78.6763 20.2016 78.6637 19.9355 78.5771 19.6755C78.4897 19.415 78.3999 19.1237 78.2437 18.8894Z" fill="#4A7DAB"/>
</svg>
