<svg fill="none" height="207" viewBox="0 0 215 207" width="215" xmlns="http://www.w3.org/2000/svg"><path d="m99.803 123.672c-10.682 2.224-17.9003-5.991-18.1059-12.114-.0398-5.16.4806-10.31 1.5522-15.3589 1.4506-6.1331 2.2186-16.8447 1.6025-31.6283-1.6409-21.7825 3.4594-37.8397 12.1822-46.8767 5.257-5.4475 17.301-13.07256 31.168-13.64773 6.898-.39463 13.804.62734 20.289 3.00243l3.127 1.11379 3.172 1.67539c2.739 1.44432 3.749 2.74332 6.611 5.25472 7.186 6.3056 12.486 17.967 13.696 28.5562.349 3.0585 1.088 10.3547 1.143 16.5355.456 10.6165 2.387 21.119 5.738 31.2078 2.021 5.8851 4.72 13.4538 3.055 19.4498-2.033 7.316-10.221 12.108-17.604 9.83z" fill="#1a5e9d"/><path d="m147.398 41.3372c-1.267-3.0508-2.567-6.9436-3.59-10.2799-5.478 8.2101-13.42 14.4883-22.693 17.9389-.621.2481-1.302.3073-1.957.1699-.749-.316-.969-.6414-.947-1.6074.056-2.4051.853-6.4084 1.033-8.7379-7.68 8.1636-16.254 16.899-23.7675 22.9634-1.032-.6604-2.2526-.9665-3.4756-.8717-.924.0052-1.8293.2601-2.6192.7374s-1.4348 1.1591-1.866 1.9728c-1.4506 2.7484-1.1946 7.7006-.0332 10.7268.8243 2.1427 2.1649 5.4178 5.1805 7.6871.7135.5524 1.544.9356 2.4285 1.1205.8846.1849 1.7998.1666 2.6762-.0535 1.8054 5.3942 4.7013 10.363 8.5093 14.6002 2.808 3.2612 6.24 5.9322 10.098 7.8572.103 2.034.088 4.072-.047 6.104-.387 1.69-1.378 3.182-2.788 4.199-2.195 1.327-5.409 2.103-8.064 2.888 5.205 5.517 17.243 8.629 28.601 8.23 11.125-.459 21.866-3.874 27.583-10.033 0 0 .031-.033.092-.094-3.077-.533-6.905-1.489-8.811-2.753-.638-.371-1.196-.864-1.641-1.451s-.768-1.256-.952-1.968c-.474-2.094-.749-4.227-.822-6.372 8.082-4.7492 14.165-16.1693 15.221-19.4105.576-1.4359 1.058-2.9077 1.442-4.4059l.45.0577c.834.0779 1.675-.0171 2.47-.279.796-.2619 1.528-.685 2.151-1.2426 2.831-2.4935 3.917-5.8621 4.573-8.0608.927-3.1053.801-8.0626-.859-10.692-.493-.7783-1.189-1.4088-2.013-1.8245-.825-.4156-1.747-.6007-2.669-.5357-.732-.0046-1.458.1371-2.134.4167s-1.29.6914-1.803 1.2111c-6.02-1.4749-13.017-7.4406-17.28-14.7063-.635-1.1299-1.195-2.2997-1.677-3.502z" fill="#fff"/><path d="m174.194 60.1845c.483 10.7965 2.438 21.4776 5.811 31.7498 1.536 4.4892 3.28 9.1207 3.482 13.9057.144 1.911-.155 3.83-.874 5.608s-1.839 3.367-3.273 4.645c-1.518 1.358-3.356 2.31-5.344 2.767-1.987.457-4.059.404-6.02-.154-2.532-.749-3.614 3.186-1.089 3.932 8.704 2.576 18.588-3.294 20.35-12.214 1.015-5.136-.294-10.4314-1.853-15.3233-1.67-5.2385-3.461-10.3768-4.62-15.7649-1.321-6.3105-2.148-12.7135-2.475-19.1513-.147-2.6091-4.244-2.6261-4.096 0z" fill="#1a5e9d"/><path d="m153.757 11.5994c1.385.7629 2.669 1.6966 3.82 2.779 1.343 1.2259 2.742 2.4069 4.01 3.7118 2.453 2.5992 4.522 5.5328 6.144 8.7125 3.193 6.2785 5.118 13.1192 5.667 20.1352.427 4.4034.749 8.8246.798 13.2535.029 2.6226 4.125 2.6294 4.096 0-.045-4.129-.331-8.2546-.713-12.3657-.256-3.479-.758-6.9356-1.505-10.3437-1.767-7.8375-5.42-15.1303-10.645-21.2507-1.497-1.5862-3.074-3.0951-4.726-4.5206-1.467-1.4067-3.105-2.62489-4.876-3.62605-2.318-1.24889-4.388 2.27095-2.067 3.52155z" fill="#1a5e9d"/><path d="m149.037 5.08307c-7.26-2.58938-14.993-3.59786-22.679-2.9574-7.788.73952-15.303 3.24529-21.968 7.32512-5.0063 2.90791-9.3269 6.85291-12.669 11.56791-3.4518 5.2083-5.9018 11.0097-7.2252 17.109-1.8941 8.679-2.4637 17.5927-1.6896 26.4407.0126.5369.2324 1.0483.6138 1.428s.895.5985 1.4342.611c.5418-.0044 1.0601-.2207 1.4433-.6021.3831-.3814.6003-.8974.6047-1.4369-.9753-13.2535.0256-27.7448 7.0255-39.4207 6.1693-10.2927 18.2423-16.81497 30.0743-18.66537 8.069-1.14337 16.298-.27311 23.947 2.53262.523.14376 1.083.07446 1.556-.19265.472-.26712.819-.71017.963-1.23168s.075-1.07878-.193-1.54919c-.269-.47042-.714-.81461-1.238-.95836z" fill="#1a5e9d"/><path d="m82.8066 64.5708c.25 6.0933.3225 12.2018.0153 18.2942-.1274 4.0545-.5894 8.0917-1.3815 12.0708-1.1409 5.0634-1.7458 10.2322-1.8048 15.4212-.0069 2.062.4147 4.103 1.2382 5.995.8236 1.892 2.0313 3.594 3.5473 4.999 2.1049 1.95 4.6558 3.36 7.4315 4.107s5.6925.809 8.4974.18c.521-.148.963-.494 1.23-.963.268-.469.34-1.023.201-1.545-.154-.515-.502-.952-.972-1.217-.469-.266-1.0242-.34-1.5477-.207-2.0849.454-4.2487.405-6.3106-.143-2.062-.549-3.9622-1.58-5.5421-3.009-1.2907-1.171-2.3148-2.603-3.0037-4.2-.2647-.7-.4683-1.421-.6085-2.155-.1083-.641.0163.384-.0264-.255-.0085-.13-.0171-.26-.0222-.39-.029-.637-.0205-1.275-.0094-1.916.1233-4.646.6896-9.269 1.6913-13.8084.781-3.9766 1.2622-8.0058 1.4396-12.0539.3652-6.3957.2961-12.8117.0333-19.2091-.1076-2.615-4.2044-2.6286-4.096 0z" fill="#1a5e9d"/><path d="m62.3232 204.997c1.9439-11.175 8.2634-57.59 12.3313-65.018 6.9742-12.785 18.728-16.046 30.6345-20.953 5.093 6.895 17.288 10.795 28.787 10.301 11.486-.578 22.565-5.002 28.124-12.986 12.566 4.344 21.533 8.382 28.604 16.823 5.023 6.71 19.728 50.74 22.152 68.175z" fill="#ffd7b8"/><g fill="#1a5e9d"><path d="m63.7924 205.219c.9586-5.535 5.7147-44.92 7.2527-50.26 1.2781-4.675 3.0045-9.154 5.1439-13.344 4.2223-7.914 11.0763-12.348 18.211-15.497 4.3263-1.91 8.747-3.488 13.094-5.326.517-.188.954-.609 1.22-1.176.266-.566.342-1.235.211-1.867-.148-.63-.496-1.163-.967-1.487-.471-.323-1.029-.41-1.553-.242-7.9056 3.343-16.2982 5.787-23.5012 11.132-3.5584 2.61-6.6675 6.024-9.1571 10.054-2.4491 4.246-4.4116 8.872-5.8342 13.754-1.9312 6.184-6.9619 46.474-8.0702 52.947-.547 3.105 3.4005 4.432 3.9501 1.315z"/><path d="m161.158 119.099c8.298 2.888 16.854 5.968 23.979 12.155 2.756 2.368 5.129 5.344 6.997 8.777 2.129 3.953 3.918 8.166 5.338 12.572 2.08 6.443 12.583 37.762 13.514 44.596.149.64.496 1.183.967 1.511.472.328 1.03.416 1.553.244.517-.19.954-.617 1.221-1.193.266-.576.341-1.256.209-1.898-1.592-11.399-13.616-47.493-18.699-57.304-1.921-3.822-4.371-7.204-7.239-9.994-3.371-3.179-7.067-5.802-10.994-7.803-5.134-2.574-10.396-4.748-15.753-6.509-2.541-.884-3.625 3.964-1.089 4.846z"/><path d="m97.4819 60.769c-1.2022-1.0104-2.6755-1.6477-4.2376-1.8331-1.5622-.1855-3.1447.0891-4.5517.7898-1.0318.567-1.919 1.3623-2.5934 2.3246-.6743.9623-1.1177 2.0659-1.2961 3.2257-.4754 2.6629-.3989 5.3945.2247 8.027.6237 2.6324 1.7814 5.1101 3.402 7.2808 2.3091 3.084 5.498 5.2674 9.5052 4.5878.5213-.1474.9635-.4931 1.2311-.9623s.3391-1.0244.1991-1.5457c-.1547-.5148-.503-.9504-.9723-1.2158s-1.0234-.3403-1.5468-.2089c-2.571.4392-4.6762-2.1903-5.8239-4.118-1.2169-1.9675-2.0139-4.1634-2.3416-6.4509-.256-2.0645-.3089-4.6727.879-6.4738.2611-.3951-.0768.0569.1996-.2421.0333-.0366.4267-.4019.2441-.2549.4029-.3072.8692-.5217 1.3653-.6279.546-.1552 1.1206-.183 1.6792-.0811.5585.1018 1.0859.3305 1.5413.6682.3911.3688.9094.5743 1.4481.5743s1.0569-.2055 1.4481-.5743c.3803-.3843.5935-.9022.5935-1.4417 0-.5396-.2132-1.0575-.5935-1.4418z"/><path d="m167.821 60.9617c.424-.4023.937-.6993 1.498-.8669.561-.1675 1.153-.2009 1.73-.0974.42.0395.827.1689 1.192.3795s.68.4973.924.8405c-.202-.2549-.048-.0688.039.0909.126.2294.267.4435.375.6797.225.5423.394 1.1059.506 1.6822.255 1.2615.341 2.551.256 3.835-.15 2.2127-.743 4.3731-1.744 6.354-1.159 2.344-3.035 4.9276-5.955 4.6523-.542.0038-1.061.2199-1.444.6014-.383.3816-.6.898-.604 1.4377.011.5373.23 1.0495.612 1.4295s.896.5984 1.436.6095c6.284.5845 9.863-6.2317 11.242-11.3352.715-2.7881.779-5.7025.185-8.5188-.175-1.1626-.588-2.2769-1.214-3.2739-.626-.9971-1.45-1.8554-2.423-2.522-1.495-.8577-3.228-1.2107-4.941-1.0061s-3.314.9558-4.563 2.1412c-1.896 1.8291 1.001 4.7118 2.897 2.8835z"/><path d="m164.781 77.358c-.27 1.5325-.644 3.0449-1.121 4.5266-.368 1.1767-.682 1.9719-1.002 2.8138-.049.1283-.099.2549-.148.3857-.145.3866-.008.0272-.028.0748-.162.3628-.325.7247-.498 1.0824-.396.8224-.822 1.6295-1.268 2.4264-2.313 4.3059-5.338 8.1926-8.949 11.4963-1.929 1.789-4.242 3.116-6.763 3.879-2.54.689-1.462 4.625 1.089 3.931 5.351-1.453 9.681-5.473 13.056-9.695 2.955-3.5979 5.384-7.5944 7.214-11.8704.118-.288.232-.5785.334-.8725-.205.5947.22-.5548.292-.7442.123-.322.236-.6474.347-.9736.607-1.7525 1.074-3.5502 1.396-5.3762.129-.5209.052-1.0709-.214-1.5373-.266-.4663-.702-.8136-1.217-.9707-.523-.1399-1.081-.069-1.553.1975-.472.2664-.819.707-.967 1.2264z"/><path d="m94.9911 80.9866c3.5916 13.3588 14.1649 27.0704 28.7819 28.6654.542-.003 1.061-.219 1.444-.601.384-.381.6-.898.604-1.438-.012-.537-.232-1.048-.613-1.428-.382-.38-.896-.598-1.435-.611-6.349-.693-11.588-4.463-15.797-9.0358-4.308-4.7433-7.408-10.4491-9.0357-16.6357-.6827-2.5326-4.6328-1.4579-3.9492 1.0841z"/><path d="m129.25 90.5317c.256-.1461.506-.2889.768-.4189.162-.0589.317-.1313.466-.2166-.328.2549-.299.1223-.055.0306.099-.0374.199-.0731.299-.1071.499-.1682 1.009-.3016 1.527-.3993.171-.0331.347-.0603.521-.0849-.309.0509-.048.0059.118-.0119.385-.0408.771-.0691 1.158-.085.699-.0296 1.4-.0103 2.097.0578.227.0229.341.0544.047 0 .154.028.309.051.465.0849.233.0468.464.1011.693.1649.23.0637.436.135.651.2098.381.1325-.112 0-.132-.0612.087.0486.178.0906.272.1258.258.127.506.2751.74.4426.47.2706 1.028.3456 1.553.2086s.974-.4749 1.25-.9401c.259-.4703.328-1.0218.191-1.5408-.137-.5191-.468-.9662-.926-1.2492-1.924-1.378-4.608-1.6652-6.901-1.5794-2.408.0426-4.768.6786-6.868 1.8512-.233.1352-.436.3146-.599.528-.162.2133-.281.4565-.349.7156-.068.259-.085.529-.048.7943.036.2654.125.521.261.7522s.316.4336.53.5955.459.2801.719.3481c.26.0679.531.0841.798.0477.266-.0364.523-.1247.755-.2598z"/><path d="m132.428 72.7584c.175.5743.341 1.1529.492 1.7323.179.6068.322 1.2238.426 1.8479l-.073-.5421c.015.1238.017.2487.008.373l.072-.542c-.01.076-.029.1506-.055.2226l.206-.4869c-.023.0501-.052.0977-.085.1419l.321-.4129c-.024.0288-.051.055-.081.0782l.414-.3186c-.108.0732-.222.1369-.341.1903l.489-.2056c-.144.0611-.295.1045-.449.1291l.545-.0722c-.158.0187-.318.0187-.476 0l.545.0731c-.314-.0425-.626-.0986-.939-.1283-.269-.0007-.536.0515-.785.1536-.249.102-.475.2519-.666.4411-.384.3824-.599.901-.599 1.4418 0 .5407.215 1.0593.599 1.4417.4.3597.913.57 1.451.5947l.085.0085-.544-.0722c.384.0768.773.1225 1.164.1368.628-.0197 1.242-.1881 1.792-.4911.336-.1747.63-.4189.863-.7162.234-.2974.4-.6409.489-1.0076.118-.6152.096-1.2486-.062-1.8546-.23-1.0926-.528-2.1733-.853-3.2412-.15-.5081-.485-.9424-.939-1.2183-.352-.2047-.756-.3003-1.163-.2747-.406.0256-.796.1712-1.119.4184-.323.2471-.564.5845-.694.9691-.129.3845-.14.7987-.032 1.1896z"/><path d="m113.877 63.6271c-.512 1.9065.037 6.2266 3.636 6.4568 4.738-.2098 4.788-5.4603 3.098-7.8629-1.384-1.9659-5.257-2.6583-6.734 1.4061z"/><path d="m151.828 62.1759c.655 1.8614.443 6.2113-3.129 6.7168-4.74.1529-5.194-5.078-3.694-7.603 1.228-2.0679 5.037-3.0534 6.823.8862z"/><path d="m112.934 52.2714c-.329.3457-.687.6624-1.071.9465l.414-.3195c-.851.6943-1.785 1.2797-2.782 1.7425l.49-.2056c-.096.0408-.194.0757-.294.1045-.511.1477-.948.4812-1.224.9346-.274.4668-.35 1.023-.212 1.5461.137.523.478.9702.947 1.2431.479.2699 1.045.3436 1.578.2056.481-.1491.943-.3514 1.379-.6032.422-.2311.829-.4886 1.226-.757.536-.362 1.053-.7519 1.558-1.1555.317-.2425.614-.5105.887-.8011.374-.3897.587-.9053.597-1.4443-.002-.5406-.216-1.0589-.597-1.4443-.384-.3824-.905-.5972-1.448-.5972s-1.064.2148-1.448.5972z"/><path d="m114.329 105.535c.08 1.522.085 3.053.045 4.575-.01.362-.023.725-.05 1.086-.008.12-.011.247-.031.366.1-.602-.085.12-.124.239-.274.708-.682 1.357-1.202 1.911-.135.142-.28.275-.433.397.333-.255-.291.15-.36.188-.351.196-.712.367-1.076.535-.224.096-.256.11-.085.039-.131.052-.263.104-.395.155-.2.077-.402.151-.605.224-.482.169-.967.329-1.456.48-1.792.556-3.617.999-5.386 1.62-.517.155-.954.501-1.22.968-.267.467-.342 1.019-.211 1.54.148.519.496.958.967 1.225.471.266 1.029.338 1.552.199 1.978-.693 4.025-1.168 6.016-1.819 2.007-.656 4.267-1.425 5.73-3.016 1.497-1.588 2.366-3.661 2.449-5.838.071-1.686.06-3.388-.028-5.074-.012-.537-.231-1.049-.613-1.429-.381-.38-.896-.599-1.435-.61-.542.005-1.06.222-1.443.603s-.6.897-.605 1.436z"/><path d="m163.906 115.139c-.474-.06.324.05-.129-.016l-.539-.079c-.418-.064-.834-.134-1.25-.208-.829-.149-1.654-.319-2.474-.51-.863-.201-1.721-.425-2.566-.692-.383-.12-.768-.248-1.141-.387-.179-.066-.357-.134-.534-.207.326.133-.066-.031-.17-.084-.299-.138-.59-.291-.873-.458-.142-.085-.276-.18-.414-.27-.488-.315.224.226-.222-.17-.154-.136-.308-.271-.452-.418 0 0-.414-.462-.223-.22-.214-.249-.377-.538-.48-.849-.494-1.924-.776-3.896-.841-5.88-.012-.537-.231-1.049-.613-1.429-.381-.38-.895-.599-1.435-.61-.542.004-1.06.221-1.443.602s-.6.897-.605 1.437c.024 2.428.381 4.841 1.059 7.173.77 1.958 2.26 3.552 4.166 4.458 3.423 1.725 7.409 2.412 11.179 2.888.542-.003 1.061-.219 1.445-.6.383-.382.6-.899.603-1.439-.013-.536-.233-1.048-.615-1.427-.381-.38-.894-.599-1.433-.612z"/><path d="m104.355 120.529c5.674 5.509 14.378 7.476 22.003 8.241 8.803.957 17.709-.212 25.963-3.408 4.058-1.521 7.738-3.898 10.788-6.966 1.802-1.914-1.089-4.803-2.896-2.884-4.956 5.261-12.409 7.624-19.371 8.767-8.057 1.357-16.322.829-24.139-1.544-3.405-1.066-6.864-2.574-9.451-5.087-1.889-1.834-4.788 1.047-2.897 2.884z"/><path d="m141.962 32.0199c1.037 3.3389 2.138 6.6692 3.481 9.901 1.219 2.9516 2.836 5.7241 4.807 8.241 3.871 4.9658 9.158 9.636 15.382 11.308 2.548.6848 3.636-3.248 1.089-3.9319-5.428-1.4579-10.079-5.7109-13.417-10.0599-3.749-4.8851-5.588-10.7354-7.393-16.5397-.777-2.4995-4.732-1.4333-3.949 1.084z"/><path d="m142.008 30.0735c-3.735 5.4997-8.628 10.1236-14.34 13.55-1.44.8531-2.926 1.6279-4.45 2.3211-.768.3475-1.536.6797-2.329.966-.326.0591-.644.1587-.946.2965-.202-.0187-.196.0127.017.0943.118.1515.217.317.294.4927-.3-.1639.289-3.2997.378-3.9242.239-1.6788.518-3.3567.659-5.0474.148-1.773-2.335-2.6745-3.498-1.4443-6.26 6.6514-12.625 13.2366-19.4563 19.3094-1.9712 1.751.9335 4.6268 2.8963 2.8835 6.835-6.0728 13.199-12.6588 19.46-19.3085l-3.499-1.4443c-.233 2.7943-.89 5.5469-1.018 8.3505-.071 1.5709.37 2.9303 1.832 3.7025 1.654.8743 3.488.1802 5.078-.4681 5.796-2.3428 11.089-5.7666 15.594-10.0871 2.56-2.4918 4.86-5.2356 6.865-8.1892 1.49-2.1723-2.058-4.2147-3.537-2.0576z"/></g><path d="m97.2864 118.982c.8226-2.841 2.184-5.499 4.0106-7.831 1.468-2.018 3.157-3.867 5.035-5.514 2.154-1.606 4.714-2.585 7.395-2.826 4-.524 8.042-.644 12.067-.357.83.035 1.616.388 2.192.984.577.597.901 1.392.904 2.22-.041.72-.33 1.404-.818 1.938-.487.534-1.145.885-1.861.993-1.836.283-4.369.364-7.42.915-3.49.632-3.584.955-5.305 2.549l-.16.238c3.428-.07 7.509.129 9.32.952.682.309 3.157 1.743 3.771 2.166 2.891 1.992 4.398 3.441 5.297 5.299.347 1.029.283 2.151-.177 3.135-.357.72-1.559 1.666-3.451 1.074.531.479.922 1.092 1.132 1.774.211.682.232 1.408.062 2.102-.231.749-.691 1.407-1.316 1.884s-1.384.748-2.17.776c.768.723.347 2.654-.25 3.489-.624.873-2.399.944-3.328.613-.782-.319-1.588-.575-2.41-.764-.051.266-.081.419-.081.419-.183.946-.555 3.144-.859 4.056-.859 2.664-2.09 5.614-4.537 7.044-1.22.562-2.468 1.062-3.739 1.499-1.058.493-1.998 2.903-2.56 4.594-.003.009-.008.017-.014.024s-.013.013-.022.017c-.008.004-.017.006-.026.007-.01 0-.019-.001-.028-.004-5.309-1.737-11.5282-3.857-16.5066-5.455-.0813-.026-.1565-.068-.2211-.123-.0645-.056-.1172-.124-.1548-.201-.0376-.076-.0593-.159-.064-.244-.0046-.085.0081-.17.0372-.25.8175-2.284 1.3482-3.516 1.8525-5.032.7084-2.531 1.2782-5.098 1.7067-7.69 1.0044-6.792 1.3141-9.46 2.211-12.862.1613-.568.3234-1.105.4855-1.608z" fill="#fff"/><path d="m109.228 114.565c2.392-.242 4.798-.316 7.201-.221 1.176.021 2.35.115 3.514.283.505.085.994.206 1.489.333.118.036.236.075.353.118-.21-.094-.232-.103-.065-.025.184.085.362.186.541.282 2.227 1.105 4.282 2.524 6.102 4.213.635.633 1.512 1.529 1.527 2.413-.003.282-.047.562-.132.83-.109.397.121-.072-.04.107-.04.053-.097.092-.162.11-.235.066-.484.066-.72 0-2.57-.555-3.669 3.375-1.089 3.933 3.316.716 5.908-1.161 6.214-4.51.261-2.843-1.912-5.223-3.977-6.899-1.87-1.531-3.904-2.85-6.066-3.935-2.096-.874-4.35-1.314-6.623-1.294-2.69-.152-5.387-.091-8.067.184-.538.015-1.05.235-1.431.614s-.601.889-.617 1.425c.004.539.221 1.056.604 1.437.384.382.902.598 1.444.602z" fill="#1a5e9d"/><path d="m114.161 121.584c1.999-.024 3.985.327 5.854 1.034-.066-.026.711.289.37.144.203.085.405.176.605.268.422.191.839.39 1.253.595.87.437 1.725.905 2.56 1.414.363.223.722.454 1.072.697.057.04.5.364.334.236s.222.185.264.222c.252.198.465.441.629.717.122.209.204.44.241.679.009.104-.005.59.007.495.027-.201-.1.34-.096.361-.048.139-.025.09.069-.147-.033.071-.07.14-.11.207-.033.049-.331.459-.17.273.16-.186-.225.205-.272.247-.106.091-.093.082.039-.027-.081.056-.166.108-.256.156-.237.124-.491.21-.755.255-.538.015-1.051.234-1.432.614-.38.379-.601.889-.616 1.425.004.54.221 1.057.604 1.438.384.382.902.598 1.444.601 2.451-.242 4.811-1.647 5.462-4.157.74-2.858-.768-5.257-3.001-6.881-4.066-3.072-8.995-4.799-14.097-4.942-2.636-.012-2.639 4.066 0 4.078z" fill="#1a5e9d"/><path d="m115.524 129.067c.076.009.405.052.015 0l.276.039c.214.031.426.065.639.102.448.077.894.17 1.336.274.412.099.82.213 1.223.339.203.066.405.135.606.209.085.032.17.065.256.099.135.053.381.165.116.045 1.44.679 2.801 1.514 4.056 2.492.035.027.354.268.182.137-.158-.12.108.085.111.085.08.035.307.465-.13-.169.035.05.134.254-.014-.049s-.037-.073-.021.025c.035.212-.023-.259-.029-.248-.024.17-.024.341 0 .51 0 .305-.081-.108.024-.148-.018.064-.031.129-.038.196-.042.148-.072.298-.119.445-.019.06-.048.122-.063.182-.06.255.205-.354.065-.147-.061.09-.317.493-.091.222.205-.248.07-.085.021-.039-.236.24.114-.117.143-.106-.054.024-.106.052-.155.085-.224.122.404-.101.146-.062-.142.022-.298.08-.439.113-.06.015-.299.056.009 0 .341-.061-.073-.008-.127-.007-.15 0-.309-.024-.458-.012-.206.017.216.028.234.037-.076-.022-.154-.036-.233-.043-.251-.066-.498-.149-.739-.248-.956-.372-1.956-.623-2.976-.746-1.114-.084-2.224.206-3.152.824-.233.135-.436.314-.598.528-.163.213-.282.456-.35.715s-.085.529-.048.795c.037.265.125.52.261.752.136.231.316.433.53.595.215.162.459.28.719.348s.531.084.798.048c.266-.036.523-.125.755-.26.092-.057.188-.109.279-.17.328-.205.008-.036-.045 0 .188-.073.382-.13.58-.17.021.074-.531-.032-.171.039.107.02.246.016.351.025-.085-.008-.401-.08-.018.007.143.032.286.06.426.096.751.187 1.451.53 2.194.729 1.913.51 4.33.085 5.468-1.655.965-1.472 1.332-3.807.355-5.353-.411-.544-.92-1.009-1.5-1.371-.414-.312-.833-.617-1.26-.911-.72-.503-1.475-.954-2.258-1.351-2.253-1.058-4.673-1.719-7.152-1.954-.543 0-1.064.215-1.448.597s-.6.901-.6 1.442c.016.536.237 1.045.617 1.424.381.379.893.599 1.431.615z" fill="#1a5e9d"/><path d="m99.5335 110.122c-6.347 8.241-5.6575 18.996-8.1501 28.589-.2758 1.137-.6105 2.258-1.0027 3.361-.5584 1.233-1.015 2.509-1.3653 3.816-.4173 2.195 1.4677 2.939 3.1659 3.49 1.4995.487 2.9966.979 4.491 1.478 3.1155 1.033 6.2297 2.079 9.3457 3.107.894.294 1.775.717 2.708.349.376-.186.705-.456.959-.789s.427-.72.506-1.131c.197-.581.431-1.148.7-1.7.133-.265.276-.521.431-.774.04-.062.312-.394.133-.254.712-.381 1.471-.664 2.258-.842.851-.31 1.654-.734 2.39-1.259 1.286-.989 2.337-2.249 3.078-3.689 1.249-2.564 2.096-5.302 2.513-8.121.13-.521.054-1.071-.212-1.538s-.703-.814-1.219-.97c-.523-.139-1.08-.067-1.552.199-.471.266-.818.706-.967 1.225-.602 3.168-1.169 6.982-3.669 9.299-1.486 1.378-3.769 1.279-5.268 2.616-1.465 1.306-2.151 3.483-2.759 5.278l.939-1.218-.086.043 1.578-.205c-2.796-.916-5.586-1.85-8.378-2.78-1.3687-.457-2.7383-.911-4.1088-1.365-.6826-.226-1.3684-.451-2.0574-.674-.5819-.134-1.1503-.321-1.6981-.557l.7347.731-.0077.051v1.084c.2176-1.522 1.1145-3.092 1.6333-4.546.4631-1.418.8513-2.86 1.1631-4.318.8482-3.517 1.2237-7.129 1.7732-10.699.8372-5.438 2.112-10.782 5.5367-15.229.271-.468.346-1.023.208-1.545-.137-.522-.476-.969-.943-1.244-.472-.26-1.026-.33-1.548-.193-.522.136-.9712.467-1.2543.924z" fill="#1a5e9d"/><path d="m103.071 112.179c.98-1.314 2.056-2.554 3.218-3.711.918-1.025 2.033-1.856 3.278-2.446 3.169-1.461 6.975-1.567 10.411-1.661 1.492-.041 2.984-.023 4.476.052.907.045 2.048-.122 2.36.873.291.925-.714 1.275-1.395 1.372-1.606.226-3.276.316-4.9.532-1.854.155-3.679.55-5.43 1.175-1.144.558-2.177 1.318-3.049 2.243-1.93 1.796.971 4.673 2.896 2.884.249-.232.495-.468.747-.697.079-.072.716-.577.336-.311.181-.128.371-.243.568-.346.33-.175.092-.044.015-.013.203-.077.409-.143.619-.198 1.936-.492 3.912-.813 5.906-.959 1.754-.174 3.736-.133 5.29-1.06.916-.538 1.639-1.348 2.069-2.317.429-.968.543-2.047.326-3.083-.218-.93-.685-1.784-1.351-2.471s-1.507-1.181-2.433-1.43c-1.651-.324-3.337-.438-5.017-.34-4.168-.036-8.772.085-12.725 1.498-4.243 1.518-7.115 4.853-9.7532 8.359-.2706.467-.3453 1.022-.2078 1.545.1376.522.4762.969.943 1.244.471.261 1.026.33 1.548.194.522-.137.971-.468 1.254-.926z" fill="#1a5e9d"/><path d="m58.0464 72.163c-1.6355.6946-3.4602.5751-4.8836-.3199-2.2107-1.5367-2.725-4.2045-2.0794-6.0399.4183-1.1888 1.3755-2.151 2.7682-2.7838l.1021-.0452c.6481-.2754 2.9165-1.0765 4.8931.1784 2.0991 1.3327 2.9417 4.3533 1.841 6.5971-.5161 1.0522-1.4543 1.9088-2.6414 2.4133z" fill="#fff"/><path d="m57.3886 70.5075c-.1584.0647-.3209.1169-.4796.1786-.0479.0186-.3291.0968-.0402.0228-.2646.0674-.5469.1028-.8199.1217-.1092.0075-.2185.0111-.3277.0133.4028-.0089-.1178-.0149-.1731-.0214-.267-.0303-.5343-.0786-.7925-.1523.3999.1141-.1008-.0526-.1509-.0733-.0995-.0419-.197-.0865-.2933-.1347-.0028-.0012-.4165-.271-.2191-.1185.2014.1561-.1758-.152-.1704-.1474-.0754-.0621-.1497-.1263-.2215-.1922-.0065-.0063-.3245-.344-.147-.1386.1774.2055-.1151-.1469-.1194-.1528-.0857-.1079-.1672-.2188-.2444-.3328-.0638-.0939-.1203-.1911-.1808-.2868-.1424-.2238.1593.3792.0021-.0139-.0818-.203-.1752-.3981-.2457-.6061-.0191-.0569-.0827-.1964-.0766-.2464-.0384.3023.0397.2031.0091.0142-.0362-.2265-.0758-.4498-.092-.6791-.0074-.1.0013-.2064-.0123-.3051-.0345-.2516-.0431.4475.0028.0559.0228-.1948.037-.3871.0731-.5804.0144-.0749.0339-.1489.0475-.2238.0689-.3648-.1479.2722-.0249.0799.125-.1958.2002-.4735.3049-.6889-.1647.3384-.0426.0681.0247-.0245.0695-.0968.143-.1907.2198-.2811.063-.0738.1297-.1426.1947-.2147-.2673.2975.0542-.046.109-.0905.1799-.1474.3707-.2818.5674-.4064.0673-.0425.3731-.2036.0959-.0634.1163-.0587.2338-.1164.3535-.1686.2388-.1044.4841-.1831.732-.2643.1627-.0536.2439-.168-.0512.0061.0519-.0307.1847-.0404.2512-.0531.2774-.0526.5589-.0882.8415-.1011.1005-.005.2023-.0084.3034-.0066-.4327-.0071.0948.0232.1536.031.1089.0143.2149.0378.3234.0542.4896.0722-.1613-.0891.114.0203.2513.0996.4991.1972.7335.3338-.3131-.182.0571.0539.0993.0868.1069.082.2055.174.3094.2607.2398.1996.0158.0048-.0292-.045.0906.1004.1779.2025.2608.3084.125.1605.2285.334.3434.5012.1517.2215-.173-.3777.0064.0174.0378.0823.0772.1634.1133.247.0538.1252.1028.252.1472.3802.0333.0966.1363.5005.0387.0757.0561.2439.0999.4888.1252.7375.0114.1126.0152.2262.0243.3392.0364.4428.0405-.3753.002.0661-.0219.248-.0493.4929-.1014.7369-.0791.3729-.0204-.004.0125.0019.0037.0006-.1336.3658-.1405.3819-.0447.1067-.0935.2105-.1458.313-.2017.3947.1112-.0902-.1016.1748-.1562.1938-.3072.3877-.4761.5712.2658-.2879-.0696.0579-.1183.0973-.1198.0971-.2433.189-.3705.2752-.0861.0582-.1746.1123-.2626.168.3124-.1946-.242.1114-.3104.1417-.8477.3741-1.4005 1.3964-.9952 2.3002.3813.8492 1.4029 1.4104 2.3109 1.01 2.8018-1.2353 4.553-3.9383 4.1989-7.0388-.3317-2.906-2.4624-5.504-5.4189-5.9979-2.5306-.4228-5.3639.6249-7.0126 2.5636-1.6486 1.9386-1.84 4.8847-.7101 7.1454.7447 1.4904 1.9605 2.7993 3.5436 3.403 1.7555.6699 3.6683.6297 5.3982-.0747.859-.3498 1.3934-1.4133.9953-2.3002-.3904-.8693-1.391-1.3853-2.3108-1.0107z" fill="#1a5e9d"/><path d="m51.6563 56.4118c-1.3395.5687-2.53.6857-3.5382.3473-.5956-.199-1.1222-.5016-1.5649-.8972-1.5769-1.411-2.977-4.4322-3.9424-8.5079-1.2415-5.242.3736-8.4477 2.2428-12.1603.4372-.8686.8902-1.7668 1.3126-2.7103.8907-1.9381.886-4.0081-.0155-5.8249-.8452-1.7038-2.4265-2.9673-4.2284-3.3811-1.581-.4447-3.3535-.3157-4.9658.3699s-2.944 1.8856-3.6512 3.2922c-1.312 2.301-1.598 4.8526-1.7031 7.043-.0267.5563-.2016 1.6243-1.0731 2.5311-.4724.4925-1.1184.9269-1.8185 1.224-.7708.3271-1.5802.4834-2.3408.4522-2.0408-.0849-3.4446-1.2627-4.2904-3.5998-.8906-2.4624-1.0052-5.3116-.3227-8.0228 1.3383-5.3173 5.8907-10.3191 11.5968-12.7437 3.242-1.3774 8.3022-2.5272 14.0007-.1857 4.0168 1.6503 7.416 5.0806 9.0936 9.1755 1.5308 3.7371 1.5324 7.7307.0061 11.2453-.9632 2.2185-1.7935 3.8174-2.526 5.2275-.4327.8333-.806 1.5526-1.1442 2.2781-.8213 1.7627-.9105 3.9668-.2316 5.7521l.2882.7513c.4683 1.2154.8725 2.265 1.1796 3.4698.1702.6683.1801 1.7647-.1836 2.7078-.3639.9437-1.1577 1.7342-2.1787 2.1676z" fill="#fff"/><path d="m50.9987 54.7576c-1.0618.4255-2.1164.6403-3.0997-.0795-.5531-.4048-1.1257-1.2296-1.543-2.0051-1.2486-2.3184-2.097-5.1034-2.349-7.714-.2322-2.4053.3885-4.6309 1.3794-6.7941 1.1201-2.4458 2.8603-4.8886 3.1614-7.6182.3047-2.7642-.7743-5.5475-2.9278-7.3468-2.2249-1.8585-5.3443-2.3371-8.0874-1.6171-2.7431.7201-4.8273 2.5771-6.0942 5.0753-.6607 1.3024-1.0704 2.7508-1.3113 4.19-.1949 1.1599-.0413 2.5163-.3976 3.6326-.58 1.8189-3.4388 2.451-4.7499 1.4488-.8289-.6341-1.2224-1.7695-1.4906-2.7362-.3463-1.2477-.4691-2.5993-.3728-3.8862.3691-4.9183 3.4944-9.1499 7.4405-11.9083 3.8337-2.6796 8.6077-3.9561 13.2615-3.0073 4.9449 1.0084 9.1701 4.5237 11.0366 9.2179.9976 2.5093 1.2255 5.2096.6152 7.8311-.5613 2.4123-1.9258 4.7133-3.0572 6.8976-1.3051 2.5176-2.4784 4.9828-1.9685 7.9163.1581.9111.4754 1.762.805 2.6209.4248 1.1068 1.1113 2.427 1.1196 3.6332.0067 1.0084-.4541 1.8246-1.3692 2.2478-2.0618.9528-.7639 4.2714 1.3157 3.3102 2.9826-1.3789 4.134-4.3818 3.2709-7.4999-.6358-2.2971-2.0388-4.4439-1.6103-6.8959.2407-1.3779 1.0518-2.6385 1.6873-3.8641.593-1.1433 1.1741-2.2921 1.7169-3.4606 1.3551-2.916 2.1892-5.8554 1.9418-9.1096-.4487-5.8979-4.1667-11.2226-9.2102-14.2013-4.9795-2.9409-11.1811-3.19393-16.5164-1.2249-5.1931 1.9167-9.7444 5.8441-12.2434 10.7892-1.3374 2.6465-1.9627 5.6241-1.7735 8.5944.17 2.6665 1.0372 5.9656 3.3424 7.616 2.4548 1.7572 5.9305 1.3918 8.218-.4548 1.1904-.9611 2.0174-2.3016 2.1996-3.8384.1615-1.3604.1812-2.7059.4902-4.0498.6131-2.6645 2.2155-5.0153 5.0433-5.5618 2.5054-.4844 5.1673.6948 5.9708 3.2317.8553 2.7-1.175 5.388-2.298 7.695-1.2149 2.4967-2.1007 5.0844-2.1329 7.8917-.0354 3.0905.883 6.3236 2.1183 9.1503 1.0642 2.436 2.6118 4.8804 5.3225 5.6392 1.503.4204 3.0461.1212 4.4627-.4464 2.1179-.8481.811-4.1614-1.3157-3.3102z" fill="#1a5e9d"/></svg>