<svg width="140" height="230" viewBox="0 0 140 230" fill="none" xmlns="http://www.w3.org/2000/svg">
<path d="M106.566 17.6269L66.5589 3.31795C63.9604 2.38854 61.0847 3.65677 60.1352 6.15386C52.3272 26.6863 42.3313 52.9719 38.3737 63.3791C37.4241 65.8762 38.758 68.652 41.3565 69.5814C50.7919 72.9561 71.9355 80.5183 81.3709 83.893C83.9695 84.8224 86.8412 83.5541 87.7908 81.057C92.396 68.9468 104.953 35.925 109.553 23.8283C110.503 21.3312 109.164 18.5563 106.566 17.6269Z" fill="white"/>
<path d="M106.994 16.4965C103.376 15.2025 99.7584 13.9086 96.1406 12.6146C89.5663 10.2631 82.9913 7.91146 76.4169 5.55999L69.282 3.00805C67.7905 2.47456 66.2523 1.7703 64.634 1.81945C61.8733 1.90363 59.7588 3.62832 58.8327 6.06376C57.8257 8.71171 56.8185 11.3602 55.8116 14.0082C53.7398 19.4561 51.6681 24.9041 49.5966 30.3514C46.0282 39.7348 42.4597 49.1188 38.8914 58.5022C38.304 60.0469 37.6391 61.5844 37.1268 63.1547C36.3298 65.5984 37.1923 68.3044 39.3278 69.8696C40.1921 70.5029 41.2328 70.8199 42.2374 71.1792C43.1472 71.5047 44.0577 71.8303 44.9676 72.1558C47.1085 72.9215 49.2499 73.6874 51.3908 74.4532C60.5566 77.7315 69.7218 81.0096 78.8876 84.288C79.7657 84.602 80.6495 84.9837 81.5585 85.2009C82.8636 85.513 84.1952 85.4358 85.4457 84.9674C86.6114 84.5304 87.6698 83.6993 88.339 82.6809C88.8398 81.9193 89.1231 81.0601 89.4427 80.2197C90.7151 76.8737 91.9875 73.5277 93.2599 70.1818C96.5566 61.5128 99.8532 52.8437 103.15 44.1742C104.684 40.1415 106.217 36.1094 107.751 32.0767C108.377 30.4297 109.003 28.7833 109.629 27.1363C110.228 25.5617 111.143 23.8457 111.103 22.1397C111.045 19.6078 109.44 17.4286 106.994 16.4965C105.491 15.9237 104.631 18.1845 106.134 18.7573C108.219 19.5516 109.032 21.6537 108.295 23.6158C107.778 24.9942 107.249 26.3683 106.726 27.744C105.374 31.2974 104.023 34.8508 102.672 38.4042C99.4369 46.9104 96.2022 55.4166 92.9674 63.9229C91.559 67.6266 90.1507 71.3298 88.7423 75.0335C88.1843 76.5008 87.6263 77.968 87.0684 79.4353C86.7991 80.1435 86.5854 80.9005 86.1232 81.5166C85.5095 82.3346 84.559 82.8486 83.52 82.9682C82.5647 83.0785 81.7226 82.733 80.8456 82.4194C79.981 82.1101 79.117 81.8011 78.2524 81.4919C76.208 80.7606 74.1636 80.0294 72.1192 79.2982C67.4422 77.6253 62.7658 75.9527 58.0888 74.2799C53.7823 72.7396 49.4758 71.1993 45.17 69.6592C44.313 69.3527 43.4561 69.0462 42.5992 68.7397C41.6534 68.4014 40.7912 68.0841 40.1391 67.2987C39.4811 66.506 39.2082 65.4754 39.3637 64.4781C39.4787 63.7397 39.8499 63.0096 40.1154 62.3115C43.3009 53.9347 46.4862 45.5585 49.6717 37.1817C51.6554 31.9655 53.639 26.7493 55.6226 21.5331C56.6313 18.8806 57.6398 16.2287 58.6484 13.5762C59.1404 12.2825 59.6324 10.9888 60.1246 9.69447C60.5689 8.52621 60.9062 7.21053 61.516 6.11303C62.4058 4.51278 64.3894 3.85784 66.1428 4.4529C66.4718 4.56477 66.798 4.68725 67.125 4.80421L72.7966 6.83276C79.0075 9.05422 85.2184 11.2757 91.4293 13.4971L105.394 18.4921C105.641 18.5802 105.887 18.6683 106.134 18.7565C107.648 19.298 108.51 17.038 106.993 16.4957L106.994 16.4965Z" fill="#4A7DAB"/>
<path d="M76.5076 17.3354C75.9272 17.1144 74.1019 16.4368 73.127 16.0851L70.633 22.6405C71.6359 23.001 73.5814 23.7087 74.1142 23.9056C75.7985 24.5289 77.642 23.5277 78.3506 21.6652C78.943 20.1082 78.3553 18.0383 76.5076 17.3354Z" fill="#95C0E2"/>
<path d="M67.0536 15.0907C66.3227 15.4654 65.7894 16.1123 65.5025 16.8664C64.6925 18.9956 65.3536 20.7003 67.4295 21.4425C68.018 21.6529 69.4837 22.2398 70.3679 22.5559C70.449 22.5849 70.5425 22.6183 70.646 22.6553C71.3541 20.7958 72.4622 17.883 73.1407 16.0996C73.0761 16.0765 73.0149 16.0546 72.9585 16.0344C72.0455 15.708 70.0044 15.02 70.0044 15.02C68.8351 14.602 67.8318 14.6919 67.0536 15.0907Z" fill="white"/>
<path d="M71.7875 16.1185C71.0504 18.054 70.3134 19.9894 69.5763 21.9249C69.3509 22.5167 69.6772 23.2772 70.3241 23.4774C70.971 23.6775 71.6922 23.4011 71.9338 22.7668C72.6708 20.8314 73.4079 18.8959 74.145 16.9605C74.3704 16.3687 74.0441 15.6082 73.3972 15.408C72.7503 15.2078 72.0291 15.4843 71.7875 16.1185Z" fill="#4A7DAB"/>
<path d="M72.5232 17.1591C73.5531 17.5285 74.5787 17.9092 75.6032 18.2927C76.4917 18.625 77.1416 19.0811 77.2946 20.0519C77.4396 20.9704 77.0247 21.9555 76.2455 22.5091C75.5122 23.0298 74.8575 22.8913 74.0685 22.6028C72.0299 21.8575 69.9974 21.1016 67.9647 20.3423C67.1643 20.0434 66.595 19.6457 66.4546 18.9115C66.3023 18.114 66.5924 17.1202 67.1317 16.536C67.7519 15.8653 68.6998 15.8592 69.6126 16.1592C70.5869 16.4799 71.5577 16.8153 72.524 17.1588C74.0368 17.697 74.8981 15.4405 73.383 14.9015C70.9843 14.0486 68.2073 12.715 65.8683 14.392C63.5136 16.08 63.1937 19.9544 65.5306 21.7782C66.6054 22.6169 68.1779 23.0193 69.4527 23.4955C70.6581 23.9456 71.8727 24.3714 73.0815 24.8124C74.4494 25.3123 75.7824 25.513 77.131 24.8149C78.6043 24.0523 79.611 22.5607 79.7994 20.9625C80.0012 19.2486 79.1786 17.4 77.5929 16.5255C76.3023 15.8136 74.7717 15.3992 73.3838 14.9012C71.8724 14.359 71.0111 16.6155 72.5248 17.1584L72.5232 17.1591Z" fill="#4A7DAB"/>
<path d="M60.5194 28.3982L94.4045 40.4759C95.9145 41.0141 96.775 38.766 95.2627 38.227L61.3776 26.1493C59.8676 25.6111 59.0071 27.8592 60.5194 28.3982Z" fill="#4A7DAB"/>
<path d="M52.66 48.9711L86.5451 61.0488C88.0551 61.587 88.9156 59.3389 87.4032 58.7999L53.5181 46.7222C52.0081 46.184 51.1476 48.4321 52.66 48.9711Z" fill="#4A7DAB"/>
<path d="M86.995 22.1908C86.2641 22.5655 85.7308 23.2124 85.4439 23.9665C84.6339 26.0957 85.295 27.8004 87.3709 28.5426C87.9594 28.753 89.4251 29.3399 90.3093 29.656C90.3904 29.685 90.4839 29.7184 90.5874 29.7554C91.2955 27.8959 92.4036 24.9831 93.0822 23.1997C93.0175 23.1766 92.9563 23.1547 92.8999 23.1345C91.9869 22.8081 89.9458 22.1201 89.9458 22.1201C88.7765 21.7021 87.7732 21.792 86.995 22.1908Z" fill="white"/>
<path d="M96.4471 24.435C95.8666 24.214 94.0413 23.5364 93.0665 23.1847L90.5725 29.7401C91.5754 30.1006 93.5208 30.8083 94.0536 31.0052C95.738 31.6285 97.5815 30.6273 98.2901 28.7648C98.8824 27.2078 98.2948 25.1379 96.4471 24.435Z" fill="#95C0E2"/>
<path d="M92.4646 24.259C93.4945 24.6284 94.5201 25.0091 95.5446 25.3926C96.4331 25.7249 97.083 26.1809 97.236 27.1517C97.381 28.0702 96.9661 29.0554 96.1869 29.609C95.4536 30.1296 94.7989 29.9911 94.0099 29.7027C91.9713 28.9574 89.9388 28.2014 87.9062 27.4422C87.1057 27.1433 86.5364 26.7455 86.396 26.0113C86.2437 25.2139 86.5338 24.2201 87.0731 23.6358C87.6933 22.9652 88.6412 22.9591 89.554 23.2591C90.5284 23.5797 91.4991 23.9152 92.4654 24.2586C93.9782 24.7968 94.8396 22.5404 93.3244 22.0014C90.9257 21.1485 88.1487 19.8149 85.8097 21.4918C83.455 23.1799 83.1351 27.0543 85.472 28.8781C86.5468 29.7168 88.1193 30.1192 89.3941 30.5954C90.5995 31.0454 91.8141 31.4712 93.0229 31.9123C94.3908 32.4121 95.7238 32.6129 97.0724 31.9147C98.5458 31.1521 99.5524 29.6605 99.7409 28.0624C99.9426 26.3485 99.12 24.4998 97.5343 23.6254C96.2437 22.9134 94.7131 22.499 93.3252 22.001C91.8138 21.4589 90.9525 23.7153 92.4662 24.2583L92.4646 24.259Z" fill="#4A7DAB"/>
<path d="M91.727 23.218C90.9899 25.1535 90.2528 27.0889 89.5157 29.0244C89.2903 29.6162 89.6167 30.3767 90.2635 30.5769C90.9104 30.777 91.6317 30.5005 91.8732 29.8663C92.6103 27.9309 93.3474 25.9954 94.0845 24.06C94.3098 23.4682 93.9835 22.7077 93.3367 22.5075C92.6898 22.3073 91.9685 22.5838 91.727 23.218Z" fill="#4A7DAB"/>
<path d="M68.6131 38.0038C68.0326 37.7829 66.2073 37.1053 65.2325 36.7535L62.7385 43.3089C63.7414 43.6694 65.6868 44.3771 66.2197 44.574C67.904 45.1974 69.7475 44.1962 70.4561 42.3336C71.0484 40.7767 70.4608 38.7068 68.6131 38.0038Z" fill="#95C0E2"/>
<path d="M59.1591 35.7597C58.4282 36.1344 57.8949 36.7812 57.608 37.5354C56.7979 39.6646 57.4591 41.3693 59.5349 42.1114C60.1234 42.3218 61.5892 42.9087 62.4734 43.2248C62.5545 43.2538 62.648 43.2873 62.7514 43.3243C63.4596 41.4647 64.5677 38.552 65.2462 36.7685C65.1815 36.7454 65.1204 36.7235 65.064 36.7034C64.151 36.377 62.1099 35.689 62.1099 35.689C60.9406 35.2709 59.9373 35.3608 59.1591 35.7597Z" fill="white"/>
<path d="M63.891 36.7867C63.1539 38.7222 62.4168 40.6576 61.6797 42.5931C61.4543 43.1849 61.7807 43.9454 62.4275 44.1456C63.0744 44.3458 63.7957 44.0693 64.0372 43.4351C64.7743 41.4996 65.5114 39.5642 66.2485 37.6287C66.4738 37.0369 66.1475 36.2764 65.5007 36.0762C64.8538 35.876 64.1325 36.1525 63.891 36.7867Z" fill="#4A7DAB"/>
<path d="M64.5765 37.8141C65.5487 38.1629 66.5166 38.523 67.4834 38.8859C68.3218 39.2003 68.9311 39.6419 69.0584 40.6037C69.1789 41.5136 68.766 42.4997 68.0148 43.0634C67.3078 43.5936 66.688 43.4676 65.9433 43.195C64.0192 42.4905 62.1011 41.7754 60.1829 41.057C59.4275 40.7742 58.8937 40.3891 58.7741 39.6622C58.6443 38.8726 58.9388 37.8802 59.4625 37.2903C60.0647 36.613 60.966 36.5902 61.8282 36.8721C62.7485 37.1735 63.665 37.4896 64.5773 37.8137C66.0054 38.3217 66.8667 36.0648 65.4364 35.556C63.1719 34.7511 60.5569 33.4752 58.3016 35.1825C56.0313 36.9012 55.6543 40.7559 57.8417 42.5265C58.8478 43.3408 60.3352 43.7128 61.5382 44.1634C62.6757 44.5892 63.8225 44.9908 64.9634 45.4076C66.2545 45.88 67.518 46.0559 68.8133 45.3385C70.2284 44.5549 71.2135 43.0552 71.4226 41.4642C71.6467 39.7579 70.8994 37.9358 69.4082 37.0951C68.1947 36.4106 66.7473 36.0259 65.4371 35.5557C64.0105 35.0438 63.1492 37.3007 64.5781 37.8134L64.5765 37.8141Z" fill="#4A7DAB"/>
<path d="M79.1006 42.8598C78.3696 43.2345 77.8364 43.8813 77.5494 44.6355C76.7394 46.7647 77.4005 48.4694 79.4764 49.2115C80.0649 49.4219 81.5306 50.0088 82.4148 50.3249C82.496 50.3539 82.5894 50.3874 82.6929 50.4244C83.401 48.5648 84.5092 45.6521 85.1877 43.8686C85.123 43.8455 85.0619 43.8236 85.0054 43.8035C84.0924 43.4771 82.0514 42.7891 82.0514 42.7891C80.882 42.371 79.8788 42.4609 79.1006 42.8598Z" fill="white"/>
<path d="M88.5525 45.1035C87.9721 44.8825 86.1468 44.2049 85.1719 43.8531L82.678 50.4086C83.6809 50.769 85.6263 51.4767 86.1591 51.6736C87.8434 52.297 89.6869 51.2958 90.3956 49.4332C90.9879 47.8763 90.4002 45.8064 88.5525 45.1035Z" fill="#95C0E2"/>
<path d="M84.5681 44.9281C85.598 45.2975 86.6236 45.6781 87.6481 46.0616C88.5366 46.3939 89.1865 46.85 89.3396 47.8208C89.4845 48.7393 89.0696 49.7244 88.2904 50.278C87.5571 50.7987 86.9025 50.6602 86.1134 50.3718C84.0748 49.6264 82.0423 48.8705 80.0097 48.1113C79.2092 47.8123 78.6399 47.4146 78.4996 46.6804C78.3472 45.883 78.6373 44.8891 79.1766 44.3049C79.7968 43.6342 80.7447 43.6281 81.6575 43.9281C82.6319 44.2488 83.6026 44.5842 84.5689 44.9277C86.0818 45.4659 86.9431 43.2094 85.4279 42.6704C83.0292 41.8176 80.2523 40.484 77.9132 42.1609C75.5586 43.849 75.2386 47.7234 77.5755 49.5471C78.6503 50.3858 80.2228 50.7883 81.4977 51.2644C82.703 51.7145 83.9176 52.1403 85.1264 52.5814C86.4943 53.0812 87.8273 53.282 89.176 52.5838C90.6493 51.8212 91.6559 50.3296 91.8444 48.7315C92.0461 47.0175 91.2235 45.1689 89.6378 44.2944C88.3472 43.5825 86.8167 43.1681 85.4287 42.6701C83.9174 42.128 83.0561 44.3844 84.5697 44.9274L84.5681 44.9281Z" fill="#4A7DAB"/>
<path d="M83.8325 43.8865C83.0954 45.8219 82.3583 47.7574 81.6212 49.6928C81.3958 50.2846 81.7221 51.0451 82.369 51.2453C83.0159 51.4455 83.7371 51.169 83.9787 50.5348C84.7158 48.5993 85.4529 46.6639 86.1899 44.7284C86.4153 44.1367 86.089 43.3761 85.4421 43.1759C84.7953 42.9758 84.074 43.2523 83.8325 43.8865Z" fill="#4A7DAB"/>
<path d="M60.7166 58.6723C60.1361 58.4513 58.3108 57.7737 57.336 57.422L54.842 63.9774C55.8449 64.3379 57.7903 65.0456 58.3232 65.2425C60.0075 65.8658 61.851 64.8647 62.5596 63.0021C63.1519 61.4452 62.5643 59.3752 60.7166 58.6723Z" fill="#95C0E2"/>
<path d="M51.2646 56.4281C50.5337 56.8028 50.0004 57.4497 49.7135 58.2038C48.9035 60.333 49.5646 62.0377 51.6405 62.7799C52.229 62.9903 53.6947 63.5772 54.5789 63.8933C54.66 63.9223 54.7535 63.9557 54.857 63.9927C55.5651 62.1332 56.6732 59.2204 57.3517 57.437C57.2871 57.4139 57.2259 57.392 57.1695 57.3718C56.2565 57.0454 54.2154 56.3574 54.2154 56.3574C53.0461 55.9394 52.0428 56.0293 51.2646 56.4281Z" fill="white"/>
<path d="M55.9965 57.4552C55.2594 59.3907 54.5223 61.3261 53.7852 63.2616C53.5598 63.8533 53.8861 64.6139 54.533 64.814C55.1799 65.0142 55.9011 64.7377 56.1427 64.1035C56.8798 62.1681 57.6169 60.2326 58.3539 58.2972C58.5793 57.7054 58.253 56.9448 57.6061 56.7447C56.9593 56.5445 56.238 56.821 55.9965 57.4552Z" fill="#4A7DAB"/>
<path d="M56.7341 58.4965C57.764 58.8659 58.7896 59.2466 59.8141 59.6301C60.7026 59.9624 61.3525 60.4185 61.5056 61.3893C61.6505 62.3078 61.2356 63.2929 60.4564 63.8465C59.7231 64.3672 59.0685 64.2287 58.2794 63.9402C56.2408 63.1949 54.2083 62.439 52.1757 61.6797C51.3752 61.3808 50.8059 60.9831 50.6656 60.2489C50.5133 59.4514 50.8034 58.4576 51.3426 57.8734C51.9629 57.2027 52.9107 57.1966 53.8236 57.4966C54.7979 57.8173 55.7686 58.1527 56.7349 58.4962C58.2478 59.0344 59.1091 56.7779 57.5939 56.2389C55.1952 55.386 52.4183 54.0524 50.0792 55.7294C47.7246 57.4174 47.4047 61.2918 49.7415 63.1156C50.8163 63.9543 52.3888 64.3568 53.6637 64.8329C54.869 65.283 56.0836 65.7088 57.2924 66.1498C58.6604 66.6497 59.9933 66.8504 61.342 66.1523C62.8153 65.3897 63.822 63.8981 64.0104 62.2999C64.2122 60.586 63.3895 58.7374 61.8038 57.8629C60.5133 57.151 58.9827 56.7366 57.5947 56.2386C56.0834 55.6965 55.2221 57.9529 56.7357 58.4958L56.7341 58.4965Z" fill="#4A7DAB"/>
<path d="M71.2041 63.528C70.4731 63.9027 69.9399 64.5495 69.653 65.3037C68.8429 67.4329 69.504 69.1376 71.5799 69.8797C72.1684 70.0901 73.6341 70.677 74.5184 70.9931C74.5995 71.0222 74.693 71.0556 74.7964 71.0926C75.5045 69.233 76.6127 66.3203 77.2912 64.5368C77.2265 64.5137 77.1654 64.4919 77.1089 64.4717C76.1959 64.1453 74.1549 63.4573 74.1549 63.4573C72.9855 63.0392 71.9823 63.1292 71.2041 63.528Z" fill="white"/>
<path d="M80.658 65.7719C80.0775 65.5509 78.2523 64.8733 77.2774 64.5216L74.7834 71.077C75.7863 71.4375 77.7317 72.1452 78.2646 72.3421C79.9489 72.9654 81.7924 71.9643 82.501 70.1017C83.0934 68.5448 82.5057 66.4748 80.658 65.7719Z" fill="#95C0E2"/>
<path d="M76.6736 65.5964C77.7035 65.9658 78.729 66.3465 79.7535 66.73C80.642 67.0623 81.292 67.5183 81.445 68.4891C81.59 69.4076 81.1751 70.3928 80.3959 70.9464C79.6626 71.467 79.0079 71.3285 78.2188 71.0401C76.1803 70.2948 74.1478 69.5388 72.1151 68.7796C71.3147 68.4807 70.7454 68.0829 70.605 67.3487C70.4527 66.5513 70.7428 65.5575 71.2821 64.9733C71.9023 64.3026 72.8502 64.2965 73.763 64.5965C74.7373 64.9171 75.7081 65.2526 76.6744 65.596C78.1872 66.1342 79.0485 63.8778 77.5334 63.3388C75.1347 62.4859 72.3577 61.1523 70.0187 62.8292C67.664 64.5173 67.3441 68.3917 69.681 70.2155C70.7558 71.0542 72.3283 71.4566 73.6031 71.9328C74.8085 72.3829 76.0231 72.8087 77.2319 73.2497C78.5998 73.7495 79.9327 73.9503 81.2814 73.2521C82.7547 72.4895 83.7614 70.998 83.9498 69.3998C84.1516 67.6859 83.329 65.8373 81.7433 64.9628C80.4527 64.2508 78.9221 63.8364 77.5342 63.3384C76.0228 62.7963 75.1615 65.0527 76.6752 65.5957L76.6736 65.5964Z" fill="#4A7DAB"/>
<path d="M75.9379 64.5551C75.2008 66.4905 74.4637 68.426 73.7266 70.3614C73.5012 70.9532 73.8276 71.7137 74.4744 71.9139C75.1213 72.1141 75.8426 71.8376 76.0841 71.2034C76.8212 69.2679 77.5583 67.3325 78.2954 65.397C78.5207 64.8052 78.1944 64.0447 77.5475 63.8445C76.9007 63.6444 76.1794 63.9208 75.9379 64.5551Z" fill="#4A7DAB"/>
<path d="M104.032 155.412L115.564 198.653L55.6447 213.98L44.1124 170.739C43.9995 170.316 43.9168 169.892 43.8572 169.47L44.8324 169.295L102.675 154.498L103.621 154.182C103.779 154.579 103.919 154.988 104.032 155.412Z" fill="white"/>
<path d="M78.0349 186.07L61.8944 190.199C59.8946 190.71 58.6969 192.712 59.2192 194.671L61.0148 201.404C61.5371 203.362 63.5817 204.535 65.5815 204.024L81.722 199.895C83.7218 199.384 84.9196 197.381 84.3972 195.423L82.6016 188.69C82.0793 186.731 80.0347 185.558 78.0349 186.07Z" fill="#95C0E2"/>
<path d="M115.568 198.653L116.525 202.241C117.964 207.64 114.661 213.163 109.141 214.575L69.2043 224.791C63.6843 226.203 58.0433 222.96 56.6016 217.554L55.6484 213.98L115.568 198.653Z" fill="white"/>
<path d="M103.627 154.182L102.682 154.498L44.8388 169.294L43.8636 169.469C43.326 165.381 45.3937 161.412 48.9765 159.406C49.425 159.158 49.7512 158.763 49.9347 158.316C50.1252 157.867 50.1642 157.36 50.0328 156.868C49.7367 155.757 49.7172 154.606 49.9542 153.507L90.3373 143.177C90.456 143.31 90.5676 143.445 90.672 143.581C91.2592 144.335 91.6967 145.209 91.9466 146.146C92.2094 147.132 93.1034 147.844 94.1427 147.853C98.2625 147.889 102.055 150.358 103.627 154.182Z" fill="white"/>
<path d="M62.4279 201.041L60.8553 195.145C60.6252 194.282 60.3707 193.458 60.8708 192.617C61.295 191.903 61.977 191.659 62.7316 191.466C67.1689 190.331 71.6062 189.196 76.0427 188.061C77.4946 187.69 79.4647 186.797 80.6714 188.126C81.2202 188.731 81.3387 189.646 81.5416 190.407L82.5371 194.14C82.724 194.841 83.06 195.644 83.0501 196.379C83.0347 197.496 82.2364 198.269 81.1888 198.547C79.4537 199.009 77.7089 199.437 75.9693 199.882L67.5646 202.032C65.7909 202.486 63.1818 203.525 62.427 201.041C61.8903 199.275 59.0536 199.992 59.5926 201.766C60.254 203.942 62.1938 205.548 64.5604 205.578C65.3602 205.588 66.1153 205.368 66.8785 205.173L81.4041 201.457C82.377 201.209 83.287 200.908 84.088 200.27C85.6914 198.994 86.2606 196.941 85.7966 195.009C85.2756 192.837 84.6619 190.675 84.0663 188.521C83.207 185.415 80.2674 184.014 77.1892 184.802C72.37 186.035 67.5508 187.267 62.7316 188.5C61.8813 188.718 60.9972 188.893 60.227 189.329C58.1585 190.499 57.2757 192.854 57.8105 195.084C58.3453 197.313 58.9992 199.541 59.5928 201.767C60.0692 203.553 62.905 202.831 62.4279 201.041Z" fill="#4A7DAB"/>
<path d="M45.2096 170.683C60.2581 166.833 75.306 162.984 90.3546 159.135C94.5873 158.052 98.8193 156.97 103.052 155.887C104.876 155.42 104.138 152.642 102.311 153.109C87.2625 156.958 72.2146 160.807 57.166 164.657C52.9333 165.74 48.7014 166.822 44.4687 167.905C42.6447 168.371 43.3827 171.15 45.2096 170.683Z" fill="#4A7DAB"/>
<path d="M56.4303 215.261C71.763 211.339 87.0958 207.417 102.429 203.495C106.792 202.379 111.156 201.262 115.521 200.146C117.345 199.679 116.607 196.901 114.78 197.368C99.447 201.29 84.1142 205.212 68.7814 209.134C64.4177 210.25 60.0539 211.367 55.6894 212.483C53.8654 212.95 54.6034 215.728 56.4303 215.261Z" fill="#4A7DAB"/>
<path d="M54.9322 178.61L98.5282 167.458C100.352 166.992 99.6142 164.213 97.7873 164.68L54.1914 175.832C52.3673 176.299 53.1054 179.077 54.9322 178.61Z" fill="#4A7DAB"/>
<path d="M56.7838 185.551L100.38 174.399C102.204 173.933 101.466 171.154 99.6389 171.621L56.0429 182.773C54.2189 183.24 54.9569 186.018 56.7838 185.551Z" fill="#4A7DAB"/>
<path d="M90.565 189.182L102.789 186.055C104.613 185.589 103.875 182.81 102.048 183.277L89.8242 186.404C88.0001 186.871 88.7382 189.649 90.565 189.182Z" fill="#4A7DAB"/>
<path d="M92.0455 194.734L104.269 191.607C106.093 191.14 105.355 188.362 103.529 188.829L91.3046 191.956C89.4806 192.423 90.2186 195.201 92.0455 194.734Z" fill="#4A7DAB"/>
<path d="M49.5483 150.595C48.6632 152.155 48.2032 153.921 48.3615 155.71C48.4128 156.288 48.7801 157.126 48.6088 157.699C48.4462 158.241 47.6195 158.528 47.1891 158.838C44.681 160.645 42.9441 163.356 42.469 166.38C42.0827 168.837 42.6839 171.051 43.3047 173.379L54.3711 214.874C54.8393 216.63 55.2127 218.473 56.021 220.115C58.4538 225.057 64.2901 227.482 69.642 226.16C75.2608 224.773 80.857 223.291 86.4635 221.857L107.749 216.412C110.749 215.645 113.563 214.623 115.603 212.157C118.219 208.994 118.799 205.103 117.768 201.235L106.995 160.841C106.502 158.992 106.013 157.141 105.515 155.292C104.228 150.51 100.212 147.004 95.16 146.474C94.6514 146.42 93.9345 146.562 93.5592 146.148C93.1599 145.706 93.066 144.863 92.8232 144.336C92.0683 142.7 90.7849 141.379 89.234 140.443C87.6261 139.472 86.1476 141.948 87.7535 142.918C89.1792 143.779 89.9989 144.977 90.5249 146.506C91.0867 148.139 92.343 149.168 94.1178 149.287C96.9291 149.474 99.5136 150.545 101.207 152.849C102.403 154.476 102.783 156.402 103.289 158.298L114.179 199.132C114.549 200.52 115.001 201.913 115.269 203.326C116.123 207.822 113.025 212.081 108.626 213.222C103.022 214.676 97.4064 216.092 91.7971 217.527L70.8402 222.888C70.2124 223.048 69.5853 223.212 68.9575 223.369C67.092 223.839 65.1775 223.776 63.3702 223.096C60.9215 222.173 58.9416 220.125 58.1558 217.672C58.0098 217.216 57.8965 216.748 57.7732 216.286L45.6226 170.726C45.2887 169.474 45.1305 168.205 45.3254 166.912C45.5244 165.595 46.0523 164.345 46.8112 163.245C47.64 162.044 48.7311 161.319 49.917 160.509C51.2854 159.575 51.7511 158.06 51.4474 156.501C51.1383 154.916 51.2605 153.476 52.073 152.043C52.9884 150.43 50.463 148.976 49.5456 150.594L49.5483 150.595Z" fill="#4A7DAB"/>
<path d="M88.3013 130.948L45.618 141.866C42.4874 142.667 40.6122 145.802 41.4299 148.868L42.2076 151.784C42.7186 153.7 44.7195 154.848 46.676 154.348L93.6108 142.342C95.5673 141.842 96.7394 139.882 96.2284 137.966L95.4507 135.05C94.633 131.984 91.4319 130.147 88.3013 130.948Z" fill="#95C0E2"/>
<path d="M87.9278 129.56C80.4017 131.485 72.875 133.41 65.3489 135.335L50.6992 139.082C49.2339 139.457 47.7685 139.832 46.3031 140.207C44.8072 140.59 43.4155 141.045 42.211 142.074C40.7005 143.364 39.8126 145.328 39.7717 147.281C39.7442 148.611 40.1898 149.91 40.5294 151.184C40.926 152.671 41.4402 154.006 42.7668 154.953C44.0272 155.853 45.5882 156.066 47.0849 155.724C49.5503 155.159 51.9926 154.468 54.4416 153.842C64.6951 151.219 74.9492 148.596 85.2027 145.973C88.0442 145.247 90.8903 144.537 93.7272 143.793C96.5641 143.049 98.3099 140.467 97.6413 137.603C96.9978 134.843 96.2763 132.061 93.6814 130.431C91.9731 129.359 89.8813 129.102 87.9269 129.559C86.0921 129.988 86.8323 132.764 88.6672 132.335C90.3223 131.948 92.0535 132.451 93.1596 133.743C93.924 134.636 94.126 135.774 94.4179 136.869C94.6874 137.879 95.1643 138.969 94.5764 139.958C94.2405 140.524 93.7119 140.823 93.0888 140.99C90.5893 141.657 88.074 142.273 85.5676 142.914L56.2315 150.418C53.1583 151.204 50.0851 151.99 47.0119 152.776C45.7662 153.095 44.3525 153.156 43.7288 151.745C43.3394 150.864 43.1939 149.825 42.9469 148.898C42.6093 147.632 42.6059 146.405 43.3015 145.241C44.636 143.01 48.1541 142.697 50.4896 142.1L63.9758 138.65C72.0545 136.584 80.1333 134.517 88.2121 132.451L88.6656 132.335C90.4895 131.868 89.7521 129.092 87.9253 129.559L87.9278 129.56Z" fill="#4A7DAB"/>
</svg>
