<svg width="201" height="190" viewBox="0 0 201 190" fill="none" xmlns="http://www.w3.org/2000/svg">
<g clip-path="url(#clip0_3002_1988)">
<path d="M79.938 121.672C68.9968 123.896 61.6033 115.681 61.3926 109.558C61.3519 104.398 61.8849 99.2482 62.9825 94.1992C64.4683 88.0661 65.255 77.3545 64.6239 62.5709C62.9431 40.7884 68.1673 24.7312 77.1018 15.6942C82.4867 10.2467 94.8229 2.62166 109.026 2.04649C116.092 1.65186 123.165 2.67384 129.807 5.04892L133.011 6.16272L136.26 7.8381C139.065 9.28239 140.099 10.5814 143.031 13.0928C150.392 19.3984 155.82 31.0598 157.059 41.649C157.417 44.7075 158.174 52.0038 158.23 58.1845C158.697 68.801 160.675 79.3035 164.107 89.3923C166.178 95.2774 168.943 102.846 167.236 108.842C165.154 116.158 156.767 120.95 149.206 118.672L79.938 121.672Z" fill="#1A5E9D"/>
<path d="M128.688 39.3376C127.39 36.2867 126.058 32.3939 125.011 29.0576C119.4 37.2678 111.265 43.5459 101.767 46.9966C101.131 47.2447 100.433 47.3038 99.7624 47.1665C98.995 46.8505 98.7695 46.5251 98.7922 45.5591C98.8499 43.1539 99.6662 39.1507 99.8507 36.8211C91.9843 44.9848 83.2019 53.7202 75.506 59.7845C74.449 59.1242 73.1987 58.8181 71.946 58.9129C70.9996 58.9181 70.0724 59.1729 69.2633 59.6502C68.4543 60.1276 67.7937 60.8094 67.352 61.623C65.8662 64.3714 66.1284 69.3237 67.318 72.3499C68.1623 74.4926 69.5354 77.7677 72.6243 80.0369C73.355 80.5894 74.2057 80.9726 75.1117 81.1575C76.0177 81.3424 76.9552 81.3241 77.8528 81.104C79.7021 86.4981 82.6683 91.4669 86.5687 95.7041C89.4445 98.9655 92.9606 101.637 96.9113 103.561C97.0175 105.595 97.0017 107.633 96.8641 109.665C96.4677 111.355 95.4525 112.848 94.0077 113.864C91.7597 115.191 88.468 115.968 85.748 116.753C91.0797 122.269 103.41 125.382 115.043 124.983C126.438 124.523 137.441 121.108 143.296 114.95C143.296 114.95 143.327 114.917 143.39 114.855C140.238 114.323 136.317 113.366 134.365 112.102C133.712 111.731 133.141 111.238 132.685 110.651C132.229 110.064 131.898 109.395 131.71 108.683C131.224 106.59 130.942 104.456 130.867 102.311C139.146 97.5622 145.376 86.1421 146.458 82.9009C147.048 81.4649 147.542 79.9932 147.935 78.4949L148.396 78.5527C149.25 78.6306 150.112 78.5355 150.926 78.2736C151.741 78.0118 152.491 77.5887 153.129 77.0311C156.029 74.5376 157.141 71.169 157.813 68.9702C158.762 65.865 158.633 60.9077 156.933 58.2782C156.428 57.5 155.715 56.8694 154.871 56.4538C154.026 56.0382 153.082 55.853 152.138 55.9181C151.388 55.9135 150.644 56.0552 149.951 56.3348C149.259 56.6144 148.631 57.0262 148.105 57.5459C141.938 56.071 134.772 50.1052 130.405 42.8396C129.755 41.7097 129.182 40.5399 128.688 39.3376Z" fill="white"/>
<path d="M156.136 58.1846C156.631 68.9812 158.633 79.6622 162.088 89.9345C163.661 94.4237 165.447 99.0547 165.654 103.84C165.802 105.752 165.496 107.67 164.759 109.448C164.023 111.226 162.875 112.815 161.406 114.093C159.852 115.451 157.969 116.403 155.933 116.86C153.897 117.317 151.776 117.264 149.767 116.707C147.173 115.957 146.065 119.892 148.651 120.638C157.566 123.214 167.691 117.345 169.495 108.424C170.535 103.288 169.194 97.9928 167.597 93.1008C165.886 87.8623 164.053 82.724 162.865 77.336C161.512 71.0254 160.665 64.6224 160.33 58.1846C160.179 55.5755 155.983 55.5586 156.135 58.1846L156.136 58.1846Z" fill="#1A5E9D"/>
<path d="M135.202 9.59951C136.621 10.3624 137.935 11.2961 139.114 12.3785C140.49 13.6045 141.923 14.7854 143.222 16.0903C145.735 18.6895 147.854 21.6231 149.515 24.8028C152.785 31.0814 154.757 37.922 155.32 44.938C155.757 49.3414 156.087 53.7626 156.137 58.1915C156.167 60.8142 160.362 60.821 160.332 58.1915C160.286 54.0625 159.993 49.9369 159.602 45.8258C159.34 42.3468 158.825 38.8903 158.061 35.4821C156.251 27.6446 152.509 20.3519 147.157 14.2314C145.624 12.6452 144.008 11.1363 142.317 9.71081C140.814 8.3041 139.136 7.08593 137.322 6.08478C134.948 4.83589 132.827 8.35572 135.205 9.60631L135.202 9.59951Z" fill="#1A5E9D"/>
<path d="M130.369 3.08319C122.933 0.493812 115.011 -0.514672 107.14 0.125794C99.1623 0.865314 91.465 3.37108 84.6384 7.45091C79.5102 10.3588 75.0847 14.3038 71.6615 19.0189C68.1259 24.2271 65.6165 30.0285 64.261 36.1278C62.3209 44.8068 61.7375 53.7205 62.5304 62.5686C62.5433 63.1054 62.7684 63.6168 63.1591 63.9965C63.5497 64.3762 64.0758 64.595 64.6281 64.6076C65.183 64.6031 65.714 64.3869 66.1064 64.0054C66.4988 63.624 66.7212 63.108 66.7258 62.5686C65.7268 49.315 66.752 34.8237 73.9218 23.1478C80.2411 12.8551 92.6071 6.33285 104.726 4.48246C112.991 3.33908 121.42 4.20934 129.254 7.01507C129.79 7.15883 130.364 7.08953 130.848 6.82242C131.332 6.55531 131.687 6.11226 131.834 5.59074C131.982 5.06923 131.911 4.51197 131.636 4.04155C131.361 3.57113 130.906 3.22694 130.369 3.08319Z" fill="#1A5E9D"/>
<path d="M62.531 62.5712C62.7871 68.6644 62.8614 74.7729 62.5468 80.8653C62.4163 84.9198 61.943 88.9571 61.1317 92.9362C59.9631 97.9996 59.3435 103.168 59.2831 108.357C59.276 110.419 59.7078 112.46 60.5514 114.352C61.3949 116.244 62.6319 117.946 64.1847 119.351C66.3407 121.302 68.9535 122.711 71.7966 123.458C74.6397 124.205 77.6273 124.267 80.5005 123.639C81.0339 123.49 81.4862 123.144 81.7602 122.675C82.0343 122.207 82.1082 121.652 81.9662 121.131C81.8088 120.615 81.452 120.179 80.9708 119.913C80.4896 119.648 79.9213 119.574 79.3852 119.707C77.2496 120.161 75.0333 120.111 72.9213 119.563C70.8093 119.015 68.863 117.983 67.2447 116.555C65.9228 115.384 64.8738 113.952 64.1681 112.354C63.897 111.655 63.6885 110.933 63.5449 110.199C63.4339 109.558 63.5615 110.584 63.5178 109.944C63.5091 109.814 63.5004 109.684 63.4951 109.554C63.4654 108.917 63.4741 108.28 63.4855 107.638C63.6118 102.993 64.1918 98.369 65.2178 93.83C66.0178 89.8533 66.5107 85.8241 66.6924 81.7761C67.0665 75.3804 66.9956 68.9643 66.7264 62.567C66.6163 59.9519 62.42 59.9383 62.531 62.567L62.531 62.5712Z" fill="#1A5E9D"/>
<path d="M41.5486 202.997C43.5397 191.822 50.0127 145.407 54.1792 137.979C61.3228 125.194 73.3618 121.933 85.5573 117.027C90.7736 123.921 103.265 127.821 115.043 127.328C126.808 126.749 138.155 122.325 143.85 114.341C156.721 118.685 165.905 122.723 173.148 131.165C178.293 137.874 193.355 181.904 195.838 199.34L41.5486 202.997Z" fill="#FFD7B8"/>
<path d="M43.054 203.219C44.0358 197.684 48.9074 158.299 50.4827 152.959C51.7918 148.284 53.5601 143.805 55.7514 139.615C60.0762 131.701 67.0966 127.267 74.4044 124.118C78.8358 122.208 83.3642 120.63 87.8166 118.792C88.3456 118.604 88.793 118.183 89.0659 117.616C89.3388 117.05 89.4163 116.381 89.2824 115.749C89.1301 115.119 88.7743 114.586 88.2916 114.262C87.8089 113.939 87.2378 113.852 86.7013 114.02C78.6033 117.363 70.0071 119.807 62.6293 125.152C58.9844 127.762 55.7999 131.176 53.2499 135.206C50.7414 139.452 48.7312 144.078 47.2741 148.96C45.296 155.144 40.1432 195.434 39.008 201.907C38.4478 205.012 42.4911 206.339 43.054 203.222L43.054 203.219Z" fill="#1A5E9D"/>
<path d="M142.784 117.099C151.283 119.987 160.046 123.067 167.345 129.255C170.168 131.622 172.598 134.598 174.512 138.031C176.692 141.984 178.524 146.197 179.979 150.603C182.109 157.046 192.867 188.365 193.821 195.2C193.973 195.839 194.329 196.382 194.812 196.71C195.295 197.038 195.866 197.126 196.402 196.954C196.932 196.764 197.38 196.337 197.653 195.761C197.925 195.185 198.002 194.506 197.867 193.864C196.236 182.464 183.92 146.37 178.714 136.559C176.746 132.737 174.237 129.355 171.3 126.565C167.846 123.386 164.06 120.763 160.038 118.762C154.779 116.188 149.39 114.014 143.903 112.253C141.301 111.369 140.19 116.217 142.787 117.099L142.784 117.099Z" fill="#1A5E9D"/>
<path d="M77.5612 58.7691C76.3298 57.7587 74.8208 57.1214 73.2207 56.936C71.6206 56.7505 69.9997 57.0251 68.5585 57.7258C67.5017 58.2928 66.5929 59.0881 65.9022 60.0504C65.2115 61.0127 64.7573 62.1163 64.5746 63.2761C64.0877 65.9391 64.166 68.6707 64.8048 71.3031C65.4436 73.9355 66.6294 76.4132 68.2893 78.5839C70.6545 81.6679 73.9208 83.8514 78.0253 83.1717C78.5593 83.0243 79.0122 82.6786 79.2863 82.2094C79.5604 81.7402 79.6336 81.185 79.4902 80.6637C79.3317 80.1489 78.975 79.7134 78.4943 79.4479C78.0136 79.1825 77.4461 79.1076 76.91 79.239C74.2765 79.6782 72.1202 77.0487 70.9446 75.121C69.6983 73.1535 68.8819 70.9576 68.5463 68.6701C68.2841 66.6056 68.2299 63.9974 69.4465 62.1963C69.714 61.8013 69.3679 62.2532 69.6511 61.9542C69.6852 61.9176 70.0881 61.5523 69.901 61.6993C70.3137 61.3921 70.7913 61.1777 71.2995 61.0715C71.8588 60.9162 72.4473 60.8885 73.0194 60.9903C73.5915 61.0921 74.1318 61.3208 74.5982 61.6585C74.9988 62.0273 75.5296 62.2329 76.0814 62.2329C76.6332 62.2329 77.164 62.0273 77.5646 61.6585C77.9542 61.2742 78.1726 60.7563 78.1726 60.2168C78.1726 59.6772 77.9542 59.1594 77.5646 58.775L77.5612 58.7691Z" fill="#1A5E9D"/>
<path d="M149.608 58.9619C150.042 58.5596 150.568 58.2627 151.142 58.0951C151.716 57.9275 152.323 57.8941 152.914 57.9976C153.344 58.0371 153.761 58.1666 154.135 58.3771C154.509 58.5877 154.832 58.8744 155.081 59.2177C154.874 58.9628 155.032 59.1488 155.121 59.3086C155.25 59.5379 155.395 59.752 155.505 59.9882C155.736 60.5306 155.909 61.0941 156.024 61.6704C156.285 62.9319 156.373 64.2214 156.286 65.5054C156.132 67.7181 155.525 69.8786 154.499 71.8595C153.312 74.2035 151.391 76.7871 148.4 76.5118C147.845 76.5156 147.314 76.7316 146.921 77.1132C146.529 77.4948 146.306 78.0112 146.302 78.5508C146.314 79.0881 146.538 79.6003 146.929 79.9803C147.32 80.3604 147.847 80.5787 148.4 80.5898C154.837 81.1743 158.502 74.3581 159.915 69.2546C160.648 66.4665 160.712 63.5522 160.104 60.7359C159.925 59.5733 159.502 58.4589 158.861 57.4619C158.22 56.4649 157.376 55.6065 156.379 54.94C154.848 54.0822 153.073 53.7292 151.318 53.9338C149.563 54.1384 147.924 54.8896 146.645 56.075C144.702 57.9042 147.67 60.7868 149.612 58.9585L149.608 58.9619Z" fill="#1A5E9D"/>
<path d="M146.494 75.3581C146.218 76.8907 145.835 78.403 145.346 79.8847C144.969 81.0614 144.647 81.8566 144.32 82.6986C144.27 82.8268 144.218 82.9534 144.168 83.0843C144.02 83.4708 144.16 83.1114 144.139 83.159C143.973 83.5218 143.806 83.8837 143.63 84.2414C143.224 85.0638 142.787 85.8709 142.331 86.6678C139.962 90.9737 136.863 94.8604 133.164 98.1644C131.189 99.9531 128.82 101.28 126.237 102.043C123.636 102.733 124.74 106.668 127.352 105.975C132.834 104.521 137.268 100.502 140.725 96.2792C143.752 92.6812 146.24 88.6847 148.114 84.4088C148.236 84.1208 148.352 83.8302 148.457 83.5362C148.246 84.1309 148.683 82.9815 148.756 82.792C148.882 82.47 148.998 82.1446 149.111 81.8184C149.733 80.0659 150.212 78.2682 150.542 76.4422C150.673 75.9213 150.594 75.3713 150.322 74.9049C150.049 74.4386 149.604 74.0913 149.076 73.9342C148.539 73.7943 147.968 73.8652 147.485 74.1317C147.002 74.3981 146.646 74.8387 146.494 75.3581Z" fill="#1A5E9D"/>
<path d="M75.0086 78.9869C78.6874 92.3458 89.5177 106.057 104.489 107.653C105.044 107.649 105.576 107.433 105.968 107.052C106.361 106.67 106.583 106.153 106.587 105.614C106.574 105.077 106.349 104.565 105.959 104.185C105.568 103.806 105.042 103.587 104.489 103.575C97.9863 102.881 92.6197 99.111 88.3089 94.5386C83.8956 89.7952 80.7212 84.0895 79.0537 77.9029C78.3544 75.3703 74.3085 76.445 75.0086 78.9869Z" fill="#1A5E9D"/>
<path d="M110.101 88.5319C110.363 88.3858 110.62 88.2431 110.888 88.1131C111.053 88.0542 111.213 87.9817 111.365 87.8964C111.029 88.1513 111.058 88.0188 111.308 87.927C111.41 87.8896 111.513 87.854 111.615 87.82C112.126 87.6518 112.649 87.5183 113.179 87.4207C113.354 87.3875 113.534 87.3603 113.713 87.3357C113.396 87.3867 113.664 87.3417 113.833 87.3238C114.228 87.283 114.623 87.2547 115.019 87.2389C115.736 87.2092 116.453 87.2285 117.167 87.2966C117.399 87.3196 117.517 87.351 117.215 87.2966C117.373 87.3247 117.532 87.3476 117.691 87.3816C117.93 87.4283 118.167 87.4827 118.402 87.5464C118.637 87.6101 118.848 87.6815 119.069 87.7562C119.459 87.8888 118.954 87.7563 118.933 87.6951C119.023 87.7437 119.116 87.7857 119.211 87.8208C119.476 87.9479 119.73 88.0959 119.97 88.2634C120.451 88.5341 121.023 88.609 121.56 88.472C122.098 88.335 122.558 87.9972 122.84 87.532C123.106 87.0617 123.176 86.5102 123.036 85.9911C122.896 85.472 122.557 85.0249 122.088 84.7419C120.117 83.3639 117.368 83.0767 115.019 83.1625C112.553 83.2051 110.136 83.8412 107.984 85.0138C107.746 85.149 107.538 85.3283 107.372 85.5417C107.205 85.7551 107.083 85.9982 107.014 86.2573C106.944 86.5164 106.927 86.7863 106.964 87.0517C107.002 87.317 107.093 87.5726 107.232 87.8038C107.371 88.035 107.555 88.2374 107.775 88.3993C107.994 88.5612 108.245 88.6795 108.511 88.7474C108.778 88.8153 109.055 88.8316 109.328 88.7952C109.601 88.7588 109.864 88.6705 110.102 88.5353L110.101 88.5319Z" fill="#1A5E9D"/>
<path d="M113.355 70.7585C113.534 71.3329 113.705 71.9114 113.859 72.4908C114.043 73.0976 114.189 73.7147 114.296 74.3387L114.221 73.7966C114.236 73.9204 114.238 74.0454 114.228 74.1696L114.303 73.6276C114.292 73.7036 114.273 73.7782 114.246 73.8502L114.457 73.3634C114.433 73.4135 114.404 73.461 114.37 73.5052L114.699 73.0923C114.674 73.1211 114.647 73.1473 114.617 73.1705L115.04 72.8519C114.93 72.9251 114.813 72.9888 114.691 73.0422L115.192 72.8366C115.044 72.8977 114.89 72.9411 114.732 72.9658L115.29 72.8935C115.128 72.9122 114.964 72.9122 114.803 72.8935L115.36 72.9666C115.039 72.9241 114.72 72.8681 114.399 72.8383C114.123 72.8377 113.85 72.8898 113.595 72.9919C113.34 73.0939 113.108 73.2438 112.913 73.433C112.52 73.8154 112.299 74.334 112.299 74.8748C112.299 75.4155 112.52 75.9341 112.913 76.3165C113.322 76.6763 113.848 76.8865 114.399 76.9112L114.486 76.9197L113.929 76.8475C114.322 76.9243 114.72 76.9701 115.121 76.9843C115.764 76.9646 116.393 76.7963 116.956 76.4932C117.3 76.3185 117.602 76.0743 117.841 75.777C118.08 75.4797 118.25 75.1361 118.342 74.7694C118.462 74.1542 118.44 73.5208 118.278 72.9148C118.042 71.8222 117.737 70.7415 117.404 69.6736C117.25 69.1655 116.907 68.7312 116.442 68.4553C116.082 68.2506 115.667 68.155 115.251 68.1806C114.835 68.2062 114.436 68.3519 114.105 68.599C113.774 68.8462 113.527 69.1836 113.394 69.5681C113.262 69.9526 113.25 70.3668 113.361 70.7577L113.355 70.7585Z" fill="#1A5E9D"/>
<path d="M94.3535 61.6272C93.829 63.5337 94.3919 67.8538 98.0786 68.084C102.931 67.8742 102.983 62.6238 101.251 60.2211C99.8337 58.2552 95.8664 57.5628 94.3535 61.6272Z" fill="#1A5E9D"/>
<path d="M133.225 60.1762C133.896 62.0377 133.678 66.3875 130.021 66.893C125.165 67.046 124.7 61.8151 126.237 59.2901C127.495 57.2222 131.395 56.2367 133.225 60.1762Z" fill="#1A5E9D"/>
<path d="M93.3866 50.2716C93.0497 50.6172 92.6827 50.9339 92.2896 51.218L92.7136 50.8986C91.8424 51.5928 90.8852 52.1782 89.8642 52.641L90.3659 52.4355C90.2679 52.4762 90.1675 52.5111 90.0652 52.54C89.5416 52.6876 89.0942 53.0212 88.8118 53.4745C88.5311 53.9414 88.4527 54.4975 88.5938 55.0206C88.735 55.5436 89.0841 55.9908 89.5644 56.2637C90.0552 56.5336 90.6348 56.6074 91.1805 56.4693C91.6731 56.3203 92.1468 56.1179 92.5929 55.8661C93.0247 55.635 93.4416 55.3776 93.8489 55.1091C94.3978 54.7472 94.9275 54.3572 95.4449 53.9537C95.7696 53.7111 96.0733 53.4432 96.3531 53.1525C96.7364 52.7629 96.9548 52.2473 96.9649 51.7082C96.9626 51.1676 96.743 50.6493 96.3531 50.2639C95.9597 49.8816 95.4261 49.6667 94.8698 49.6667C94.3135 49.6667 93.78 49.8816 93.3866 50.2639L93.3866 50.2716Z" fill="#1A5E9D"/>
<path d="M94.8181 103.536C94.9003 105.057 94.9055 106.588 94.8644 108.111C94.8539 108.473 94.8408 108.835 94.8137 109.196C94.805 109.316 94.8015 109.444 94.7814 109.563C94.8837 108.96 94.694 109.682 94.6547 109.801C94.3742 110.509 93.9561 111.158 93.4232 111.712C93.2848 111.854 93.1368 111.987 92.98 112.11C93.3209 111.855 92.682 112.259 92.6112 112.297C92.2519 112.493 91.8822 112.664 91.509 112.832C91.2791 112.929 91.2468 112.942 91.4216 112.871C91.2876 112.923 91.153 112.975 91.0178 113.026C90.8124 113.104 90.6052 113.178 90.3981 113.25C89.9043 113.42 89.4069 113.579 88.9061 113.731C87.0706 114.286 85.2019 114.73 83.3891 115.35C82.8601 115.505 82.4127 115.852 82.1398 116.319C81.8669 116.786 81.7894 117.337 81.9234 117.858C82.0756 118.377 82.4315 118.817 82.9142 119.083C83.397 119.349 83.9681 119.421 84.5044 119.282C86.5305 118.589 88.6264 118.114 90.6664 117.463C92.7213 116.807 95.0366 116.038 96.5347 114.448C98.068 112.859 98.9589 110.786 99.0432 108.609C99.1167 106.923 99.1053 105.221 99.0144 103.536C99.003 102.998 98.7783 102.486 98.3874 102.106C97.9964 101.726 97.4695 101.508 96.9167 101.497C96.362 101.502 95.8315 101.718 95.4392 102.099C95.0469 102.481 94.8242 102.996 94.819 103.536L94.8181 103.536Z" fill="#1A5E9D"/>
<path d="M145.596 113.139C145.111 113.08 145.929 113.189 145.464 113.123L144.912 113.044C144.484 112.98 144.058 112.911 143.632 112.836C142.783 112.687 141.938 112.517 141.098 112.326C140.214 112.125 139.335 111.901 138.47 111.634C138.077 111.514 137.683 111.386 137.301 111.247C137.117 111.181 136.936 111.113 136.755 111.041C137.089 111.173 136.686 111.009 136.58 110.956C136.274 110.818 135.975 110.665 135.686 110.498C135.541 110.413 135.403 110.318 135.262 110.228C134.762 109.913 135.491 110.454 135.035 110.058C134.876 109.922 134.719 109.787 134.571 109.64C134.571 109.64 134.147 109.178 134.343 109.42C134.124 109.171 133.957 108.882 133.851 108.571C133.345 106.647 133.057 104.675 132.99 102.691C132.978 102.154 132.753 101.642 132.362 101.262C131.972 100.882 131.445 100.664 130.892 100.652C130.338 100.657 129.807 100.873 129.414 101.254C129.022 101.636 128.8 102.152 128.795 102.691C128.82 105.119 129.184 107.532 129.879 109.864C130.668 111.822 132.194 113.416 134.147 114.322C137.652 116.047 141.735 116.734 145.596 117.21C146.152 117.207 146.684 116.992 147.076 116.61C147.469 116.228 147.691 115.711 147.694 115.171C147.681 114.635 147.455 114.124 147.065 113.744C146.674 113.364 146.149 113.145 145.596 113.132L145.596 113.139Z" fill="#1A5E9D"/>
<path d="M84.6007 118.529C90.4122 124.039 99.3274 126.005 107.137 126.77C116.154 127.727 125.276 126.558 133.731 123.362C137.887 121.841 141.656 119.465 144.78 116.396C146.626 114.482 143.665 111.593 141.814 113.512C136.738 118.773 129.103 121.136 121.973 122.279C113.72 123.637 105.255 123.108 97.2481 120.735C93.7606 119.669 90.2173 118.161 87.5672 115.648C85.6329 113.815 82.6638 116.696 84.6007 118.532L84.6007 118.529Z" fill="#1A5E9D"/>
<path d="M123.122 30.0201C124.184 33.359 125.312 36.6894 126.687 39.9212C127.936 42.8727 129.592 45.6452 131.611 48.1622C135.576 53.128 140.991 57.7982 147.367 59.4701C149.977 60.1549 151.09 56.2222 148.482 55.5383C142.922 54.0804 138.159 49.8273 134.739 45.4783C130.899 40.5932 129.015 34.743 127.167 28.9386C126.371 26.4391 122.32 27.5054 123.122 30.0227L123.122 30.0201Z" fill="#1A5E9D"/>
<path d="M123.168 28.0738C119.343 33.5735 114.33 38.1973 108.48 41.6238C107.005 42.4769 105.483 43.2517 103.922 43.9448C103.135 44.2923 102.349 44.6245 101.537 44.9108C101.202 44.97 100.877 45.0696 100.567 45.2073C100.361 45.1886 100.366 45.2201 100.585 45.3016C100.706 45.4532 100.807 45.6187 100.886 45.7944C100.579 45.6304 101.182 42.4946 101.273 41.8702C101.518 40.1914 101.803 38.5135 101.948 36.8228C102.1 35.0497 99.5562 34.1483 98.3649 35.3785C91.9529 42.0299 85.4343 48.615 78.4367 54.6878C76.4177 56.4388 79.3929 59.3147 81.4032 57.5713C88.4043 51.4985 94.9229 44.9125 101.336 38.2628L97.7521 36.8185C97.5127 39.6128 96.8397 42.3655 96.7094 45.1691C96.636 46.74 97.0879 48.0993 98.5851 48.8716C100.28 49.7458 102.158 49.0517 103.787 48.4035C109.723 46.0606 115.145 42.6369 119.76 38.3163C122.382 35.8245 124.737 33.0808 126.79 30.1272C128.317 27.9548 124.683 25.9124 123.168 28.0695L123.168 28.0738Z" fill="#1A5E9D"/>
<path d="M77.3605 116.983C78.203 114.141 79.5974 111.483 81.4685 109.151C82.9721 107.133 84.7017 105.284 86.6253 103.637C88.8317 102.031 91.4542 101.053 94.1997 100.812C98.2967 100.287 102.438 100.168 106.56 100.454C107.411 100.49 108.215 100.842 108.805 101.439C109.396 102.035 109.728 102.83 109.731 103.658C109.689 104.378 109.393 105.063 108.894 105.596C108.394 106.13 107.721 106.481 106.987 106.59C105.107 106.873 102.512 106.953 99.3872 107.505C95.8123 108.136 95.7162 108.459 93.9533 110.053L93.7889 110.291C97.3008 110.222 101.481 110.42 103.335 111.244C104.034 111.552 106.569 112.986 107.198 113.409C110.16 115.401 111.703 116.85 112.624 118.708C112.979 119.737 112.914 120.859 112.442 121.843C112.077 122.563 110.846 123.509 108.907 122.917C109.451 123.396 109.852 124.009 110.067 124.691C110.283 125.374 110.305 126.1 110.131 126.793C109.894 127.542 109.422 128.201 108.782 128.677C108.142 129.154 107.365 129.425 106.56 129.453C107.346 130.176 106.915 132.107 106.303 132.942C105.665 133.815 103.847 133.886 102.895 133.556C102.094 133.236 101.269 132.981 100.426 132.791C100.374 133.058 100.343 133.211 100.343 133.211C100.156 134.156 99.7753 136.354 99.4641 137.267C98.5839 139.93 97.3236 142.881 94.8168 144.31C93.5669 144.872 92.2886 145.373 90.9868 145.809C89.903 146.302 88.9406 148.712 88.3646 150.404C88.3617 150.412 88.357 150.421 88.3507 150.428C88.3444 150.435 88.3368 150.44 88.3282 150.444C88.3197 150.448 88.3104 150.451 88.3008 150.451C88.2913 150.452 88.2818 150.45 88.2729 150.447C82.8346 148.71 76.4646 146.59 71.3654 144.993C71.2821 144.967 71.2051 144.924 71.1389 144.869C71.0728 144.813 71.0188 144.745 70.9803 144.669C70.9418 144.592 70.9195 144.509 70.9148 144.424C70.9101 144.339 70.923 144.254 70.9529 144.174C71.7902 141.89 72.3338 140.658 72.8504 139.142C73.576 136.612 74.1595 134.044 74.5985 131.452C75.6272 124.66 75.9445 121.992 76.8631 118.59C77.0283 118.023 77.1944 117.486 77.3605 116.983Z" fill="white"/>
<path d="M89.5935 112.565C92.0435 112.323 94.508 112.249 96.9687 112.344C98.1733 112.365 99.3755 112.46 100.568 112.627C101.085 112.712 101.586 112.834 102.093 112.96C102.215 112.997 102.335 113.036 102.455 113.078C102.24 112.984 102.217 112.975 102.389 113.054C102.577 113.139 102.759 113.239 102.943 113.336C105.223 114.44 107.328 115.859 109.192 117.548C109.843 118.181 110.741 119.077 110.757 119.962C110.754 120.243 110.708 120.523 110.621 120.792C110.509 121.188 110.745 120.719 110.58 120.898C110.539 120.951 110.481 120.99 110.415 121.008C110.174 121.074 109.918 121.074 109.677 121.008C107.045 120.453 105.919 124.384 108.562 124.941C111.958 125.657 114.613 123.78 114.927 120.431C115.193 117.588 112.968 115.208 110.853 113.532C108.938 112.002 106.854 110.682 104.64 109.597C102.492 108.723 100.184 108.283 97.8558 108.304C95.1011 108.151 92.3382 108.213 89.5935 108.487C89.0421 108.502 88.5176 108.722 88.1275 109.101C87.7374 109.48 87.5114 109.99 87.4958 110.526C87.4997 111.066 87.7219 111.582 88.1145 111.964C88.5071 112.345 89.0383 112.561 89.5935 112.565Z" fill="#1A5E9D"/>
<path d="M94.6445 119.584C96.6922 119.56 98.7262 119.911 100.64 120.618C100.573 120.592 101.369 120.907 101.02 120.762C101.228 120.847 101.434 120.938 101.639 121.03C102.071 121.221 102.499 121.42 102.923 121.625C103.814 122.062 104.69 122.53 105.545 123.039C105.917 123.262 106.284 123.493 106.643 123.736C106.701 123.776 107.156 124.1 106.985 123.972C106.815 123.844 107.212 124.157 107.255 124.194C107.514 124.392 107.732 124.635 107.899 124.911C108.024 125.121 108.108 125.351 108.147 125.591C108.155 125.694 108.141 126.18 108.154 126.085C108.182 125.884 108.051 126.425 108.056 126.446C108.006 126.585 108.03 126.536 108.127 126.299C108.093 126.37 108.055 126.439 108.014 126.506C107.98 126.555 107.675 126.965 107.839 126.779C108.003 126.593 107.609 126.984 107.56 127.026C107.452 127.117 107.465 127.108 107.6 126.999C107.517 127.055 107.431 127.107 107.338 127.156C107.096 127.279 106.835 127.365 106.566 127.41C106.014 127.425 105.489 127.644 105.099 128.024C104.709 128.403 104.483 128.913 104.468 129.449C104.472 129.989 104.694 130.506 105.086 130.887C105.479 131.269 106.01 131.485 106.566 131.488C109.076 131.246 111.493 129.841 112.159 127.331C112.918 124.473 111.373 122.074 109.085 120.45C104.921 117.379 99.8725 115.651 94.6472 115.509C91.9472 115.496 91.9437 119.574 94.6472 119.587L94.6445 119.584Z" fill="#1A5E9D"/>
<path d="M96.0407 127.067C96.1185 127.076 96.4559 127.119 96.0565 127.067L96.3396 127.106C96.5581 127.137 96.7761 127.171 96.9934 127.208C97.4523 127.285 97.9094 127.378 98.3622 127.482C98.7846 127.581 99.2021 127.695 99.6147 127.822C99.8227 127.887 100.03 127.956 100.235 128.031C100.323 128.062 100.41 128.095 100.497 128.129C100.636 128.182 100.888 128.294 100.616 128.174C102.092 128.853 103.485 129.688 104.771 130.666C104.807 130.693 105.133 130.934 104.958 130.804C104.796 130.683 105.068 130.889 105.071 130.889C105.153 130.923 105.386 131.353 104.938 130.719C104.974 130.77 105.075 130.974 104.924 130.67C104.772 130.367 104.886 130.597 104.902 130.695C104.938 130.907 104.879 130.436 104.872 130.448C104.848 130.617 104.848 130.788 104.872 130.957C104.872 131.262 104.79 130.849 104.897 130.809C104.878 130.873 104.865 130.939 104.858 131.005C104.815 131.153 104.785 131.303 104.737 131.45C104.716 131.51 104.687 131.572 104.672 131.632C104.611 131.887 104.882 131.279 104.738 131.485C104.675 131.575 104.414 131.979 104.645 131.707C104.855 131.459 104.716 131.622 104.667 131.668C104.425 131.908 104.784 131.551 104.813 131.562C104.758 131.586 104.705 131.615 104.654 131.647C104.425 131.769 105.068 131.546 104.804 131.585C104.658 131.607 104.499 131.665 104.354 131.698C104.293 131.713 104.048 131.754 104.363 131.698C104.713 131.637 104.289 131.691 104.233 131.691C104.079 131.691 103.917 131.667 103.765 131.679C103.553 131.696 103.986 131.708 104.004 131.716C103.926 131.694 103.846 131.68 103.766 131.673C103.508 131.607 103.255 131.524 103.009 131.425C102.029 131.053 101.004 130.802 99.9599 130.679C98.8192 130.595 97.6825 130.885 96.7312 131.503C96.4933 131.638 96.2852 131.817 96.1186 132.031C95.952 132.244 95.8304 132.487 95.7605 132.746C95.6906 133.005 95.6739 133.275 95.7113 133.541C95.7488 133.806 95.8396 134.062 95.9787 134.293C96.1177 134.524 96.3023 134.726 96.5218 134.888C96.7413 135.05 96.9914 135.169 97.258 135.236C97.5245 135.304 97.8022 135.321 98.0752 135.284C98.3482 135.248 98.6111 135.159 98.849 135.024C98.9425 134.967 99.0413 134.916 99.1348 134.854C99.4705 134.649 99.1427 134.818 99.0885 134.854C99.2808 134.781 99.4794 134.724 99.682 134.684C99.7038 134.758 99.1383 134.652 99.5072 134.723C99.6173 134.743 99.7589 134.739 99.8673 134.748C99.7799 134.741 99.4556 134.668 99.848 134.755C99.9949 134.787 100.142 134.815 100.285 134.851C101.054 135.038 101.771 135.381 102.532 135.58C104.491 136.09 106.967 135.665 108.133 133.925C109.121 132.453 109.497 130.118 108.497 128.573C108.075 128.028 107.554 127.563 106.96 127.201C106.536 126.89 106.107 126.584 105.669 126.29C104.932 125.788 104.159 125.336 103.356 124.939C101.049 123.882 98.5706 123.22 96.0311 122.985C95.4748 122.985 94.9412 123.2 94.5478 123.582C94.1544 123.964 93.9334 124.483 93.9334 125.024C93.9495 125.56 94.1756 126.069 94.5656 126.448C94.9556 126.827 95.4798 127.047 96.0311 127.063L96.0407 127.067Z" fill="#1A5E9D"/>
<path d="M79.6635 108.122C73.1624 116.363 73.8686 127.118 71.3155 136.711C71.033 137.848 70.6902 138.97 70.2885 140.072C69.7166 141.305 69.2488 142.581 68.89 143.888C68.4626 146.084 70.3934 146.827 72.1327 147.378C73.6687 147.865 75.2021 148.357 76.7328 148.856C79.924 149.89 83.1133 150.936 86.3053 151.964C87.2213 152.258 88.1233 152.68 89.0787 152.312C89.4645 152.126 89.8009 151.857 90.0613 151.523C90.3217 151.19 90.4991 150.803 90.5794 150.392C90.7817 149.811 91.021 149.244 91.2961 148.693C91.4325 148.428 91.5793 148.171 91.7384 147.919C91.7786 147.856 92.0574 147.524 91.8747 147.664C92.6031 147.283 93.3811 147 94.1874 146.822C95.0583 146.512 95.8816 146.089 96.6348 145.563C97.9526 144.574 99.0292 143.314 99.7874 141.874C101.067 139.311 101.935 136.572 102.361 133.754C102.495 133.233 102.417 132.682 102.145 132.215C101.872 131.748 101.425 131.401 100.897 131.246C100.36 131.107 99.7894 131.178 99.3067 131.444C98.8241 131.711 98.4685 132.151 98.3164 132.669C97.6994 135.838 97.1181 139.651 94.558 141.968C93.0363 143.346 90.6974 143.248 89.1617 144.584C87.6619 145.891 86.9591 148.067 86.3359 149.863L87.2974 148.644L87.21 148.688L88.8261 148.482C85.9618 147.566 83.1046 146.632 80.2447 145.702C78.8428 145.246 77.4399 144.791 76.0362 144.338C75.337 144.111 74.6345 143.886 73.9289 143.663C73.3329 143.529 72.7507 143.343 72.1896 143.106L72.9421 143.837L72.9342 143.888L72.9342 144.972C73.1571 143.45 74.0757 141.881 74.6072 140.426C75.0814 139.008 75.4791 137.566 75.7985 136.108C76.6673 132.591 77.0519 128.98 77.6147 125.409C78.4722 119.972 79.778 114.628 83.2855 110.18C83.5632 109.713 83.6399 109.157 83.499 108.635C83.3581 108.113 83.011 107.666 82.533 107.391C82.0495 107.131 81.4816 107.062 80.9471 107.198C80.4126 107.334 79.9526 107.665 79.6626 108.122L79.6635 108.122Z" fill="#1A5E9D"/>
<path d="M83.2844 110.179C84.2884 108.866 85.3901 107.625 86.5804 106.468C87.521 105.444 88.6627 104.612 89.9384 104.022C93.1846 102.561 97.0828 102.455 100.602 102.361C102.13 102.321 103.659 102.338 105.187 102.413C106.115 102.458 107.285 102.291 107.604 103.287C107.902 104.211 106.873 104.561 106.175 104.659C104.531 104.885 102.82 104.974 101.156 105.19C99.2574 105.345 97.3877 105.74 95.5944 106.365C94.4223 106.923 93.3642 107.683 92.4714 108.608C90.4943 110.404 93.4661 113.281 95.4379 111.492C95.6931 111.26 95.9449 111.025 96.2027 110.795C96.284 110.723 96.936 110.218 96.5471 110.484C96.7328 110.357 96.927 110.241 97.1283 110.138C97.4665 109.963 97.2227 110.094 97.144 110.125C97.3516 110.048 97.5631 109.982 97.7777 109.927C99.7612 109.435 101.785 109.114 103.827 108.969C105.624 108.794 107.654 108.835 109.246 107.908C110.184 107.37 110.925 106.56 111.365 105.591C111.805 104.623 111.922 103.545 111.699 102.508C111.476 101.578 110.998 100.724 110.315 100.037C109.633 99.3502 108.772 98.8559 107.823 98.607C106.132 98.2833 104.405 98.1691 102.685 98.2672C98.4149 98.2315 93.6994 98.3521 89.65 99.765C85.3043 101.283 82.3631 104.619 79.6606 108.124C79.3834 108.592 79.3069 109.147 79.4478 109.669C79.5886 110.191 79.9355 110.638 80.4131 110.913C80.8965 111.174 81.4646 111.243 81.9992 111.107C82.5338 110.971 82.9938 110.639 83.2835 110.182L83.2844 110.179Z" fill="#1A5E9D"/>
<path d="M42.0513 70.1632C40.4158 70.8579 38.5911 70.7383 37.1677 69.8433C34.957 68.3066 34.4427 65.6389 35.0882 63.8035C35.5066 62.6146 36.4638 61.6524 37.8564 61.0196L37.9586 60.9744C38.6067 60.699 40.8751 59.8979 42.8517 61.1529C44.9507 62.4855 45.7934 65.5061 44.6927 67.75C44.1765 68.8021 43.2384 69.6588 42.0513 70.1632Z" fill="white"/>
<path d="M41.3935 68.5077C41.2351 68.5725 41.0726 68.6246 40.9139 68.6863C40.866 68.7049 40.5848 68.7832 40.8736 68.7091C40.609 68.7765 40.3268 68.812 40.0538 68.8309C39.9446 68.8383 39.8352 68.8419 39.7261 68.8441C40.1289 68.8353 39.6083 68.8293 39.553 68.8227C39.286 68.7925 39.0187 68.7442 38.7605 68.6704C39.1604 68.7846 38.6597 68.6178 38.6095 68.5971C38.5101 68.5552 38.4126 68.5106 38.3163 68.4624C38.3135 68.4613 37.8997 68.1915 38.0972 68.344C38.2986 68.5001 37.9214 68.1919 37.9267 68.1965C37.8514 68.1344 37.7771 68.0703 37.7053 68.0043C37.6987 67.998 37.3808 67.6603 37.5582 67.8658C37.7357 68.0712 37.4432 67.7189 37.4389 67.7129C37.3532 67.6051 37.2717 67.4942 37.1945 67.3802C37.1307 67.2863 37.0742 67.189 37.0137 67.0934C36.8713 66.8695 37.173 67.4726 37.0158 67.0795C36.934 66.8765 36.8406 66.6813 36.7701 66.4733C36.751 66.4164 36.6874 66.2769 36.6935 66.227C36.6551 66.5292 36.7332 66.4301 36.7026 66.2411C36.6664 66.0146 36.6268 65.7913 36.6105 65.562C36.6032 65.4621 36.6119 65.3557 36.5983 65.257C36.5637 65.0053 36.5552 65.7044 36.6011 65.3128C36.6239 65.1181 36.6381 64.9258 36.6742 64.7324C36.6886 64.6576 36.708 64.5836 36.7217 64.5087C36.7905 64.1439 36.5738 64.7809 36.6968 64.5885C36.8218 64.3928 36.897 64.1151 37.0017 63.8996C36.837 64.238 36.9591 63.9677 37.0264 63.8751C37.0959 63.7783 37.1694 63.6844 37.2462 63.5941C37.3092 63.5202 37.3759 63.4514 37.4408 63.3794C37.1736 63.6769 37.4951 63.3333 37.5499 63.2889C37.7298 63.1415 37.9206 63.007 38.1173 62.8825C38.1845 62.84 38.4904 62.6788 38.2132 62.8191C38.3294 62.7604 38.447 62.7026 38.5667 62.6505C38.8054 62.5461 39.0507 62.4674 39.2987 62.3861C39.4614 62.3325 39.5425 62.2181 39.2475 62.3922C39.2994 62.3615 39.4322 62.3518 39.4987 62.3392C39.776 62.2865 40.0576 62.251 40.3402 62.2381C40.4407 62.233 40.5425 62.2297 40.6436 62.2314C40.2109 62.2243 40.7383 62.2546 40.7972 62.2625C40.9061 62.2767 41.0121 62.3002 41.1206 62.3166C41.6102 62.3888 40.9593 62.2275 41.2346 62.3369C41.4859 62.4365 41.7337 62.5341 41.9681 62.6707C41.655 62.4887 42.0251 62.7247 42.0674 62.7575C42.1743 62.8396 42.2729 62.9315 42.3768 63.0183C42.6166 63.2179 42.3926 63.023 42.3476 62.9733C42.4382 63.0736 42.5255 63.1758 42.6084 63.2817C42.7334 63.4422 42.8369 63.6157 42.9518 63.7828C43.1035 64.0044 42.7788 63.4052 42.9582 63.8003C42.9959 63.8826 43.0354 63.9637 43.0715 64.0472C43.1253 64.1725 43.1743 64.2992 43.2186 64.4275C43.252 64.524 43.355 64.928 43.2574 64.5032C43.3134 64.747 43.3573 64.992 43.3826 65.2407C43.394 65.3533 43.3978 65.4669 43.4069 65.5798C43.4432 66.0226 43.4474 65.2045 43.4089 65.646C43.387 65.894 43.3596 66.1388 43.3075 66.3828C43.2284 66.7557 43.2871 66.3788 43.32 66.3848C43.3236 66.3854 43.1864 66.7506 43.1795 66.7667C43.1348 66.8734 43.086 66.9772 43.0337 67.0796C42.8319 67.4743 43.1449 66.9895 42.9321 67.2544C42.7759 67.4482 42.6249 67.6421 42.4559 67.8257C42.7218 67.5377 42.3864 67.8835 42.3376 67.923C42.2179 68.02 42.0943 68.112 41.9672 68.1981C41.8811 68.2563 41.7926 68.3104 41.7046 68.3661C42.017 68.1716 41.4626 68.4775 41.3942 68.5079C40.5465 68.8819 39.9936 69.9043 40.399 70.8081C40.7803 71.6572 41.8019 72.2185 42.7099 71.818C45.5116 70.5827 47.2628 67.8797 46.9088 64.7793C46.577 61.8732 44.4464 59.2753 41.4899 58.7813C38.9593 58.3585 36.126 59.4063 34.4773 61.3449C32.8286 63.2836 32.6373 66.2296 33.7671 68.4903C34.5119 69.9807 35.7276 71.2896 37.3108 71.8933C39.0663 72.5632 40.9791 72.5231 42.709 71.8187C43.568 71.4689 44.1024 70.4054 43.7042 69.5184C43.3139 68.6492 42.3132 68.1331 41.3935 68.5077Z" fill="#1A5E9D"/>
<path d="M35.6602 54.4121C34.3207 54.9807 33.1302 55.0977 32.122 54.7593C31.5264 54.5603 30.9998 54.2577 30.5571 53.8622C28.9802 52.4512 27.5801 49.43 26.6147 45.3542C25.3732 40.1122 26.9883 36.9065 28.8575 33.1939C29.2947 32.3254 29.7477 31.4271 30.1701 30.4836C31.0608 28.5456 31.0561 26.4755 30.1546 24.6588C29.3094 22.955 27.7281 21.6915 25.9262 21.2777C24.3452 20.833 22.5728 20.9619 20.9605 21.6475C19.3481 22.3332 18.0164 23.5332 17.3092 24.9397C15.9972 27.2407 15.7112 29.7924 15.6061 31.9827C15.5794 32.539 15.4046 33.607 14.533 34.5139C14.0606 35.0064 13.4146 35.4408 12.7145 35.7379C11.9437 36.0649 11.1343 36.2213 10.3737 36.19C8.33286 36.1051 6.92912 34.9273 6.08328 32.5903C5.19268 30.1279 5.07815 27.2787 5.76056 24.5675C7.09893 19.2502 11.6513 14.2483 17.3574 11.8238C20.5994 10.4463 25.6596 9.29659 31.3581 11.638C35.3749 13.2884 38.7742 16.7186 40.4517 20.8135C41.9825 24.5506 41.9841 28.5442 40.4579 32.0589C39.4946 34.2774 38.6643 35.8763 37.9318 37.2863C37.4991 38.1197 37.1258 38.8389 36.7876 39.5645C35.9663 41.3272 35.8771 43.5313 36.5561 45.3166L36.8442 46.0679C37.3125 47.2832 37.7167 48.3328 38.0239 49.5376C38.194 50.2059 38.204 51.3024 37.8402 52.2454C37.4763 53.1892 36.6825 53.9796 35.6615 54.413L35.6602 54.4121Z" fill="white"/>
<path d="M35.0036 52.7579C33.9418 53.1834 32.8872 53.3982 31.9039 52.6783C31.3508 52.2735 30.7782 51.4488 30.3609 50.6733C29.1123 48.3548 28.2639 45.5698 28.0118 42.9593C27.7797 40.5539 28.4004 38.3284 29.3913 36.1652C30.5114 33.7193 32.2516 31.2765 32.5526 28.5469C32.8574 25.7827 31.7784 22.9994 29.6248 21.2001C27.4 19.3416 24.2806 18.8631 21.5375 19.5831C18.7944 20.3031 16.7102 22.1601 15.4433 24.6583C14.7826 25.9608 14.3729 27.4092 14.1319 28.8484C13.9371 30.0082 14.0907 31.3646 13.7344 32.4809C13.1544 34.2998 10.2956 34.9319 8.98452 33.9297C8.15556 33.2956 7.76213 32.1602 7.49391 31.1935C7.14755 29.9458 7.02479 28.5943 7.12108 27.3073C7.49021 22.389 10.6155 18.1574 14.5616 15.3991C18.3953 12.7195 23.1693 11.4429 27.8231 12.3917C32.768 13.4001 36.9932 16.9154 38.8597 21.6097C39.8572 24.1189 40.0852 26.8192 39.4749 29.4408C38.9136 31.8531 37.5491 34.154 36.4177 36.3384C35.1126 38.856 33.9392 41.3211 34.4492 44.2546C34.6073 45.1657 34.9246 46.0167 35.2542 46.8756C35.679 47.9823 36.3655 49.3025 36.3738 50.5087C36.3805 51.5171 35.9197 52.3333 35.0046 52.7565C32.9428 53.7093 34.2407 57.0279 36.3203 56.0667C39.3029 54.6879 40.4543 51.6849 39.5912 48.5668C38.9554 46.2697 37.5524 44.1229 37.9809 41.6709C38.2216 40.2931 39.0327 39.0324 39.6682 37.8068C40.2612 36.6636 40.8423 35.5147 41.3851 34.3463C42.7401 31.4302 43.5743 28.4908 43.3268 25.2366C42.8782 19.3388 39.1602 14.014 34.1167 11.0353C29.1372 8.09441 22.9356 7.84141 17.6002 9.81046C12.4072 11.7272 7.85586 15.6546 5.35689 20.5996C4.01948 23.2461 3.39417 26.2238 3.58336 29.1941C3.7534 31.8605 4.62055 35.1596 6.92577 36.81C9.38062 38.5672 12.8562 38.2018 15.1438 36.3553C16.3342 35.3941 17.1612 34.0536 17.3434 32.5169C17.5049 31.1564 17.5246 29.8109 17.8336 28.4671C18.4466 25.8026 20.0491 23.4517 22.8769 22.9053C25.3823 22.4208 28.0442 23.6 28.8477 26.137C29.703 28.837 27.6727 31.525 26.5496 33.8319C25.3348 36.3287 24.449 38.9164 24.4168 41.7237C24.3814 44.8141 25.2998 48.0473 26.5351 50.874C27.5993 53.3099 29.1469 55.7543 31.8576 56.5132C33.3605 56.9336 34.9037 56.6344 36.3203 56.0667C38.4382 55.2186 37.1313 51.9053 35.0046 52.7565L35.0036 52.7579Z" fill="#1A5E9D"/>
</g>
<defs>
<clipPath id="clip0_3002_1988">
<rect width="211" height="190" fill="white" transform="translate(-9.99609)"/>
</clipPath>
</defs>
</svg>
