<svg width="460" height="570" viewBox="0 0 460 570" fill="none" xmlns="http://www.w3.org/2000/svg">
<g clip-path="url(#clip0_1171_102401)">
<mask id="mask0_1171_102401" style="mask-type:alpha" maskUnits="userSpaceOnUse" x="-101" y="0" width="561" height="570">
<rect x="-100.035" width="560" height="570" fill="url(#paint0_linear_1171_102401)"/>
</mask>
<g mask="url(#mask0_1171_102401)">
<mask id="mask1_1171_102401" style="mask-type:alpha" maskUnits="userSpaceOnUse" x="239" y="203" width="727" height="675">
<rect x="239.605" y="203.665" width="726.35" height="673.471" fill="url(#paint1_linear_1171_102401)"/>
</mask>
<g mask="url(#mask1_1171_102401)">
<g opacity="0.15">
<path d="M482.326 611.901H544.217L575.157 555.29L544.217 498.693H482.326L451.387 555.29L482.326 611.901Z" fill="#19B5FF"/>
<path d="M452.113 555.29L482.704 611.264H543.84L574.431 555.29L543.84 499.33H482.704L452.113 555.29Z" stroke="white" stroke-opacity="0.3" stroke-width="1.2741"/>
</g>
<g opacity="0.15">
<path d="M482.326 611.901H544.217L575.157 555.29L544.217 498.694H482.326L451.387 555.29L482.326 611.901Z" fill="#63CEFF"/>
<path d="M452.113 555.29L482.704 611.264H543.84L574.431 555.29L543.84 499.331H482.704L452.113 555.29Z" stroke="white" stroke-opacity="0.3" stroke-width="1.2741"/>
<path d="M389.512 555.291H451.39L482.33 498.694L451.39 442.083H389.512L358.573 498.694L389.512 555.291Z" fill="#63CEFF"/>
<path d="M359.299 498.694L389.89 554.653H451.013L481.604 498.694L451.013 442.72H389.89L359.299 498.694Z" stroke="white" stroke-opacity="0.3" stroke-width="1.2741"/>
<path d="M389.512 442.083H451.39L482.33 385.486L451.39 328.876H389.512L358.573 385.486L389.512 442.083Z" fill="#63CEFF"/>
<path d="M359.299 385.486L389.89 441.446H451.013L481.604 385.486L451.013 329.513H389.89L359.299 385.486Z" stroke="white" stroke-opacity="0.3" stroke-width="1.2741"/>
<path d="M296.681 385.487H358.572L389.511 328.876L358.572 272.279H296.681L265.741 328.876L296.681 385.487Z" fill="#63CEFF"/>
<path d="M266.467 328.876L297.058 384.85H358.194L388.785 328.876L358.194 272.916H297.058L266.467 328.876Z" stroke="white" stroke-opacity="0.3" stroke-width="1.2741"/>
<path d="M389.512 328.876H451.39L482.33 272.279L451.39 215.669H389.512L358.573 272.279L389.512 328.876Z" fill="#63CEFF"/>
<path d="M359.299 272.279L389.89 328.239H451.013L481.604 272.279L451.013 216.306H389.89L359.299 272.279Z" stroke="white" stroke-opacity="0.3" stroke-width="1.2741"/>
</g>
<path d="M389.511 668.498H451.389L482.328 611.901L451.389 555.29H389.511L358.572 611.901L389.511 668.498Z" stroke="white" stroke-opacity="0.3" stroke-width="0.382231" stroke-miterlimit="10"/>
<path d="M482.328 611.901H544.219L575.159 555.29L544.219 498.693H482.328L451.389 555.29L482.328 611.901Z" stroke="white" stroke-opacity="0.3" stroke-width="0.382231" stroke-miterlimit="10"/>
<path d="M389.511 555.29H451.389L482.328 498.693L451.389 442.082H389.511L358.572 498.693L389.511 555.29Z" stroke="white" stroke-opacity="0.3" stroke-width="0.382231" stroke-miterlimit="10"/>
<path d="M482.328 498.694H544.219L575.159 442.083L544.219 385.487H482.328L451.389 442.083L482.328 498.694Z" stroke="white" stroke-opacity="0.3" stroke-width="0.382231" stroke-miterlimit="10"/>
</g>
<g opacity="0.15">
<path d="M13.7711 478.121H-43.5841L-72.2738 427.279L-43.5841 376.424H13.7711L42.4487 427.279L13.7711 478.121Z" fill="#19B5FF"/>
<path d="M41.7184 427.278L13.3996 477.485H-43.2127L-71.5434 427.279L-43.2126 377.06H13.3995L41.7184 427.278Z" stroke="white" stroke-opacity="0.3" stroke-width="1.27231"/>
<path d="M185.848 478.121H128.493L99.8034 427.279L128.493 376.424H185.848L214.526 427.279L185.848 478.121Z" fill="#19B5FF"/>
<path d="M213.796 427.278L185.477 477.485H128.864L100.534 427.279L128.865 377.06H185.477L213.796 427.278Z" stroke="white" stroke-opacity="0.3" stroke-width="1.27231"/>
<path d="M99.8047 325.582H42.4495L13.7719 274.727L42.4495 223.884H99.8047L128.494 274.727L99.8047 325.582Z" fill="#19B5FF"/>
<path d="M127.764 274.727L99.4332 324.945H42.8211L14.5022 274.727L42.821 224.52H99.4333L127.764 274.727Z" stroke="white" stroke-opacity="0.3" stroke-width="1.27231"/>
<path d="M271.894 325.582H214.527L185.849 274.727L214.527 223.884H271.894L300.572 274.727L271.894 325.582Z" fill="#19B5FF"/>
<path d="M299.841 274.727L271.523 324.945H214.898L186.58 274.727L214.898 224.52H271.523L299.841 274.727Z" stroke="white" stroke-opacity="0.3" stroke-width="1.27231"/>
<path d="M13.7711 274.726H-43.5841L-72.2738 223.884L-43.5841 173.029H13.7711L42.4487 223.884L13.7711 274.726Z" fill="#19B5FF"/>
<path d="M41.7184 223.883L13.3996 274.09H-43.2127L-71.5434 223.883L-43.2126 173.665H13.3995L41.7184 223.883Z" stroke="white" stroke-opacity="0.3" stroke-width="1.27231"/>
<path d="M185.848 274.726H128.493L99.8031 223.884L128.493 173.029H185.848L214.526 223.884L185.848 274.726Z" fill="#19B5FF"/>
<path d="M213.795 223.883L185.476 274.09H128.864L100.534 223.883L128.864 173.665H185.476L213.795 223.883Z" stroke="white" stroke-opacity="0.3" stroke-width="1.27231"/>
<path d="M185.848 173.029H128.493L99.8031 122.186L128.493 71.3314H185.848L214.526 122.186L185.848 173.029Z" fill="#19B5FF"/>
<path d="M213.795 122.186L185.476 172.393H128.864L100.534 122.186L128.864 71.9675H185.476L213.795 122.186Z" stroke="white" stroke-opacity="0.3" stroke-width="1.27231"/>
<path d="M271.894 122.186H214.527L185.849 71.3312L214.527 20.4886H271.894L300.572 71.3312L271.894 122.186Z" fill="#19B5FF"/>
<path d="M299.841 71.3312L271.523 121.55H214.898L186.58 71.3312L214.898 21.1248H271.523L299.841 71.3312Z" stroke="white" stroke-opacity="0.3" stroke-width="1.27231"/>
<path d="M13.7711 71.3315H-43.5841L-72.2738 20.489L-43.5841 -30.3658H13.7711L42.4487 20.489L13.7711 71.3315Z" fill="#19B5FF"/>
<path d="M41.7184 20.489L13.3996 70.6954H-43.2127L-71.5434 20.489L-43.2126 -29.7297H13.3995L41.7184 20.489Z" stroke="white" stroke-opacity="0.3" stroke-width="1.27231"/>
<path d="M185.848 71.3315H128.493L99.8031 20.489L128.493 -30.3658H185.848L214.526 20.489L185.848 71.3315Z" fill="#19B5FF"/>
<path d="M213.795 20.489L185.476 70.6954H128.864L100.534 20.489L128.864 -29.7297H185.476L213.795 20.489Z" stroke="white" stroke-opacity="0.3" stroke-width="1.27231"/>
</g>
<g opacity="0.15">
<path d="M13.7616 274.726H-43.5937L-72.2833 223.884L-43.5937 173.029H13.7616L42.4392 223.884L13.7616 274.726Z" fill="#63CEFF"/>
<path d="M41.7089 223.883L13.3901 274.09H-43.2222L-71.5529 223.883L-43.2221 173.665H13.39L41.7089 223.883Z" stroke="white" stroke-opacity="0.3" stroke-width="1.27231"/>
<path d="M99.7957 223.884H42.4404L13.7628 173.029L42.4404 122.186H99.7957L128.485 173.029L99.7957 223.884Z" fill="#63CEFF"/>
<path d="M127.755 173.029L99.4242 223.247H42.812L14.4932 173.029L42.812 122.822H99.4242L127.755 173.029Z" stroke="white" stroke-opacity="0.3" stroke-width="1.27231"/>
<path d="M185.841 274.726H128.486L99.796 223.884L128.486 173.029H185.841L214.519 223.884L185.841 274.726Z" fill="#63CEFF"/>
<path d="M213.788 223.883L185.469 274.09H128.857L100.526 223.883L128.857 173.665H185.469L213.788 223.883Z" stroke="white" stroke-opacity="0.3" stroke-width="1.27231"/>
<path d="M357.918 274.726H300.563L271.885 223.884L300.563 173.029H357.918L386.596 223.884L357.918 274.726Z" fill="#63CEFF"/>
<path d="M385.865 223.883L357.547 274.09H300.934L272.616 223.883L300.934 173.665H357.546L385.865 223.883Z" stroke="white" stroke-opacity="0.3" stroke-width="1.27231"/>
<path d="M13.7616 173.029H-43.5937L-72.2833 122.186L-43.5937 71.3311H13.7616L42.4392 122.186L13.7616 173.029Z" fill="#63CEFF"/>
<path d="M41.7089 122.186L13.3901 172.392H-43.2222L-71.5529 122.186L-43.2221 71.9673H13.39L41.7089 122.186Z" stroke="white" stroke-opacity="0.3" stroke-width="1.27231"/>
<path d="M271.887 122.186H214.52L185.842 71.3314L214.52 20.4888H271.887L300.564 71.3314L271.887 122.186Z" fill="#63CEFF"/>
<path d="M299.834 71.3314L271.515 121.55H214.891L186.572 71.3314L214.891 21.125H271.515L299.834 71.3314Z" stroke="white" stroke-opacity="0.3" stroke-width="1.27231"/>
<path d="M185.841 71.3313H128.486L99.796 20.4888L128.486 -30.3661H185.841L214.519 20.4888L185.841 71.3313Z" fill="#63CEFF"/>
<path d="M213.788 20.4887L185.469 70.6951H128.857L100.526 20.4887L128.857 -29.7299H185.469L213.788 20.4887Z" stroke="white" stroke-opacity="0.3" stroke-width="1.27231"/>
<path d="M357.918 71.3313H300.563L271.885 20.4888L300.563 -30.3661H357.918L386.596 20.4888L357.918 71.3313Z" fill="#63CEFF"/>
<path d="M385.865 20.4887L357.547 70.6951H300.934L272.616 20.4887L300.934 -29.7299H357.546L385.865 20.4887Z" stroke="white" stroke-opacity="0.3" stroke-width="1.27231"/>
</g>
<path d="M13.7672 376.424H-43.588L-72.2777 325.581L-43.588 274.726H13.7672L42.4448 325.581L13.7672 376.424Z" stroke="white" stroke-opacity="0.3" stroke-width="0.381693" stroke-miterlimit="10"/>
<path d="M271.891 427.279H214.523L185.846 376.424L214.523 325.581H271.891L300.568 376.424L271.891 427.279Z" stroke="white" stroke-opacity="0.3" stroke-width="0.381693" stroke-miterlimit="10"/>
<path d="M357.924 376.424H300.568L271.891 325.581L300.568 274.726H357.924L386.601 325.581L357.924 376.424Z" stroke="white" stroke-opacity="0.3" stroke-width="0.381693" stroke-miterlimit="10"/>
<path d="M13.7672 274.726H-43.588L-72.2777 223.883L-43.588 173.028H13.7672L42.4448 223.883L13.7672 274.726Z" stroke="white" stroke-opacity="0.3" stroke-width="0.381693" stroke-miterlimit="10"/>
<path d="M99.8011 325.582H42.4458L13.7682 274.727L42.4458 223.884H99.8011L128.491 274.727L99.8011 325.582Z" stroke="white" stroke-opacity="0.3" stroke-width="0.381693" stroke-miterlimit="10"/>
<path d="M185.846 274.726H128.491L99.8014 223.883L128.491 173.028H185.846L214.524 223.883L185.846 274.726Z" stroke="white" stroke-opacity="0.3" stroke-width="0.381693" stroke-miterlimit="10"/>
<path d="M271.89 325.581H214.523L185.846 274.726L214.523 223.884H271.89L300.568 274.726L271.89 325.581Z" stroke="white" stroke-opacity="0.3" stroke-width="0.381693" stroke-miterlimit="10"/>
<path d="M357.924 274.726H300.568L271.891 223.884L300.568 173.029H357.924L386.601 223.884L357.924 274.726Z" stroke="white" stroke-opacity="0.3" stroke-width="0.381693" stroke-miterlimit="10"/>
<path d="M13.7672 173.029H-43.588L-72.2777 122.186L-43.588 71.3314H13.7672L42.4448 122.186L13.7672 173.029Z" stroke="white" stroke-opacity="0.3" stroke-width="0.381693" stroke-miterlimit="10"/>
<path d="M99.8011 223.884H42.4458L13.7682 173.029L42.4458 122.186H99.8011L128.491 173.029L99.8011 223.884Z" stroke="white" stroke-opacity="0.3" stroke-width="0.381693" stroke-miterlimit="10"/>
<path d="M185.846 173.029H128.491L99.8014 122.186L128.491 71.3314H185.846L214.524 122.186L185.846 173.029Z" stroke="white" stroke-opacity="0.3" stroke-width="0.381693" stroke-miterlimit="10"/>
<path d="M271.89 223.884H214.523L185.846 173.029L214.523 122.186H271.89L300.568 173.029L271.89 223.884Z" stroke="white" stroke-opacity="0.3" stroke-width="0.381693" stroke-miterlimit="10"/>
<path d="M357.924 173.029H300.568L271.891 122.186L300.568 71.3314H357.924L386.601 122.186L357.924 173.029Z" stroke="white" stroke-opacity="0.3" stroke-width="0.381693" stroke-miterlimit="10"/>
<path d="M13.7672 71.3318H-43.588L-72.2777 20.4892L-43.588 -30.3656H13.7672L42.4448 20.4892L13.7672 71.3318Z" stroke="white" stroke-opacity="0.3" stroke-width="0.381693" stroke-miterlimit="10"/>
<path d="M99.8011 122.186H42.4458L13.7682 71.3311L42.4458 20.4886H99.8011L128.491 71.3311L99.8011 122.186Z" stroke="white" stroke-opacity="0.3" stroke-width="0.381693" stroke-miterlimit="10"/>
<path d="M185.846 71.3318H128.491L99.8014 20.4892L128.491 -30.3656H185.846L214.524 20.4892L185.846 71.3318Z" stroke="white" stroke-opacity="0.3" stroke-width="0.381693" stroke-miterlimit="10"/>
<path d="M271.89 122.186H214.523L185.846 71.3311L214.523 20.4886H271.89L300.568 71.3311L271.89 122.186Z" stroke="white" stroke-opacity="0.3" stroke-width="0.381693" stroke-miterlimit="10"/>
<path d="M357.924 71.3315H300.568L271.891 20.489L300.568 -30.3658H357.924L386.601 20.489L357.924 71.3315Z" stroke="white" stroke-opacity="0.3" stroke-width="0.381693" stroke-miterlimit="10"/>
<path d="M99.8011 20.489H42.4458L13.7682 -30.3658L42.4458 -81.2084H99.8011L128.491 -30.3658L99.8011 20.489Z" stroke="white" stroke-opacity="0.3" stroke-width="0.381693" stroke-miterlimit="10"/>
<path d="M271.89 20.489H214.523L185.846 -30.3658L214.523 -81.2084H271.89L300.568 -30.3658L271.89 20.489Z" stroke="white" stroke-opacity="0.3" stroke-width="0.381693" stroke-miterlimit="10"/>
</g>
</g>
<defs>
<linearGradient id="paint0_linear_1171_102401" x1="386.951" y1="535.768" x2="-195.133" y2="68.2466" gradientUnits="userSpaceOnUse">
<stop stop-color="#BCBDEF" stop-opacity="0"/>
<stop offset="1"/>
</linearGradient>
<linearGradient id="paint1_linear_1171_102401" x1="871.252" y1="836.69" x2="351.3" y2="377.926" gradientUnits="userSpaceOnUse">
<stop/>
<stop offset="1" stop-color="#BCBDEF" stop-opacity="0"/>
</linearGradient>
<clipPath id="clip0_1171_102401">
<rect width="460" height="570" fill="white" transform="translate(-0.0351562)"/>
</clipPath>
</defs>
</svg>
