<svg width="220" height="198" viewBox="0 0 220 198" fill="none" xmlns="http://www.w3.org/2000/svg">
<g clip-path="url(#clip0_1171_87369)">
<path d="M82.2329 80.8955C82.354 80.483 82.4904 80.0761 82.6422 79.6746C84.0526 75.9436 86.7766 72.6999 90.2508 70.752C90.7162 71.3437 91.2575 71.9124 91.8901 72.4304C93.0166 73.3522 94.7141 73.9352 96.2841 73.5282C97.4348 77.4384 99.5196 82.1582 103.181 86.5393C106.188 90.1371 109.355 92.7594 112.916 94.3125C112.818 95.5158 112.648 96.6729 112.432 97.9279C112.311 98.5989 112.24 99.2479 112.109 99.8561C109.662 100.782 107.07 101.763 107.07 101.763L104.073 103.099L93.1211 107.979C89.4851 109.543 86.1682 111.119 83.189 112.962L83.552 112.201C85.6423 107.812 85.6973 102.774 84.5642 98.0445C83.431 93.3258 81.1427 88.4201 81.6818 83.6024C81.7874 82.6862 81.9733 81.781 82.2318 80.8966L82.2329 80.8955Z" fill="#1A5E9D"/>
<path d="M88.9979 68.9326C82.7226 72.6437 78.6543 79.8857 79.5465 87.2277C80.0526 91.3976 81.7336 95.255 82.6027 99.3413C83.4289 103.225 83.3288 107.436 81.6522 111.091C81.1571 112.17 81.3453 113.459 82.4421 114.1C83.3893 114.655 84.9549 114.396 85.4521 113.31C87.1023 109.713 87.7602 105.823 87.4016 101.876C87.0286 97.7706 85.5852 93.9901 84.5544 90.0336C83.6446 86.5403 83.495 83.1239 84.967 79.7592C86.2574 76.8125 88.4588 74.364 91.2191 72.7317C93.6548 71.2908 91.4435 67.4862 88.9979 68.9326Z" fill="#1A5E9D"/>
<path d="M160.072 53.9975C162.549 54.0844 163.603 55.4241 164.056 56.2105C165.409 58.5578 165.352 62.8827 164.443 65.5588C163.8 67.454 162.746 70.3534 160.204 72.4312C159.157 73.288 157.616 73.8523 156.143 73.6037C156.143 73.6037 156.001 73.5795 155.753 73.5377C155.286 75.082 154.708 76.5955 154.356 77.3303C154.065 78.12 153.403 79.4664 152.441 81.08C149.987 85.1937 145.582 91.0398 140.396 93.793C140.504 95.1789 140.683 96.5505 140.925 97.9287C141.214 99.5819 141.214 101.096 142.543 102.205C142.247 103.896 141.882 105.856 141.467 107.957L141.41 107.995C139.76 109.117 137.208 110.646 135.349 111.35C130.816 113.055 128.858 113.099 125.645 113.099C122.851 113.099 120.486 113.055 115.953 111.35C114.39 110.753 112.346 109.589 110.75 108.575C110.339 106.524 109.976 104.594 109.672 102.898C112.158 101.784 112.064 99.9603 112.431 97.9287C112.646 96.6781 112.815 95.5265 112.92 94.3143C109.357 92.7623 106.188 90.139 103.18 86.54C99.5201 82.1601 97.4353 77.4414 96.2846 73.5322C94.7146 73.937 93.016 73.3529 91.8895 72.4323C89.3481 70.3534 88.2942 67.454 87.6506 65.5599C86.7419 62.8838 86.6847 58.5589 88.0378 56.2116C88.4911 55.4252 89.545 54.0865 92.0215 53.9986C92.0215 53.9986 85.1356 24.5039 126.927 24.5039C166.131 24.5039 160.071 53.9986 160.071 53.9986L160.072 53.9975Z" fill="white"/>
<path d="M120.837 145.276C118.359 137.78 115.797 129.258 113.512 120.644C112.456 116.661 111.519 112.403 110.747 108.573C112.344 109.587 114.39 110.752 115.954 111.349C120.486 113.054 122.852 113.098 125.646 113.098C128.858 113.098 130.817 113.054 135.349 111.349C137.208 110.645 139.761 109.116 141.411 107.995L141.47 107.954C140.677 111.942 139.696 116.446 138.583 120.645C134.611 135.614 129.809 150.3 126.047 159.818C124.45 155.778 122.666 150.805 120.837 145.276Z" fill="white"/>
<path d="M79.2701 236.861C78.2007 277.528 77.0896 320.654 77.0896 340.31C77.0896 342.148 78.5495 343.681 80.4604 343.681H171.633C173.543 343.681 175.004 342.148 175.004 340.31C175.004 313.297 172.906 241.951 171.7 193.591C175.812 195.879 179.875 197.518 186.737 196.804C193.665 196.076 199.486 190.428 201.588 183.78C202.555 180.74 202.851 177.539 203.147 174.351C204.215 162.656 204.27 156.597 204.833 148.771L186.216 122.288C181.397 116.261 172.761 112.081 162.012 107.56L151.825 104.095C151.825 104.095 151.657 104.038 151.353 103.935C148.164 100.081 144.585 96.5103 143.505 96.5103C143.129 98.951 141.232 110.663 138.584 120.644C134.612 135.613 129.81 150.299 126.048 159.817C122.286 150.299 117.485 135.613 113.513 120.644C110.865 110.663 108.968 98.951 108.592 96.5103C107.514 96.5103 103.946 100.067 100.763 103.915L100.357 104.095L93.0186 107.362C84.1954 111.157 77.2535 115.029 72.3138 122.53C70.2588 125.999 68.702 130.555 67.57 134.943L64.5512 135.157C62.3839 131.88 60.4806 128.426 58.8634 124.84L28.4993 141.328C31.7557 151.667 35.4632 161.875 39.5888 171.906C41.47 176.493 43.4723 181.091 46.4427 185.061C49.4131 189.032 53.4727 192.376 58.2803 193.608C61.5148 194.433 64.9582 194.268 68.2147 193.476C72.8133 192.343 77.0709 189.945 80.4373 186.612L79.2723 236.86L79.2701 236.861Z" fill="white"/>
<path d="M138.226 94.1399C138.363 95.6567 138.583 97.1614 138.831 98.6628C138.959 99.4405 139.031 100.237 139.264 100.994C139.573 101.992 140.098 102.962 140.883 103.669C141.317 104.058 141.801 104.414 142.322 104.677C142.673 104.853 143.039 105.006 143.404 105.147C144.106 105.415 142.893 104.899 143.162 105.037C145.258 106.109 147.434 107.052 149.563 108.058C150.58 108.539 151.591 109.038 152.63 109.473C153.695 109.92 155.095 108.993 155.336 107.936C155.629 106.649 154.94 105.708 153.799 105.23C154.892 105.688 153.891 105.252 153.634 105.133C153.179 104.918 152.723 104.704 152.268 104.488C151.035 103.905 149.802 103.321 148.569 102.738C147.615 102.287 146.663 101.834 145.707 101.387C145.603 101.339 145.5 101.289 145.396 101.243C145.37 101.231 145.343 101.219 145.317 101.208C145.159 101.139 144.946 101.049 144.786 100.984C144.721 100.957 144.384 100.797 144.719 100.963C144.522 100.865 144.332 100.765 144.142 100.654C144.079 100.617 143.766 100.411 144.019 100.585C144.243 100.741 144.034 100.599 143.994 100.557C143.925 100.489 143.851 100.412 143.778 100.347C143.458 100.061 143.889 100.43 143.847 100.46C143.825 100.475 143.556 99.9662 143.53 99.9288C143.408 99.7451 143.627 100.12 143.616 100.144C143.629 100.115 143.496 99.7946 143.485 99.7583C143.434 99.5812 143.391 99.402 143.352 99.2216C143.263 98.797 143.206 98.368 143.141 97.939C143.047 97.3187 142.935 96.7016 142.842 96.0813C142.802 95.8162 142.797 95.7766 142.753 95.4048C142.703 94.9835 142.661 94.5623 142.623 94.1399C142.519 92.9971 141.684 91.8839 140.423 91.94C139.319 91.9895 138.111 92.9124 138.222 94.1399H138.226Z" fill="#1A5E9D"/>
<path d="M99.464 109.935C100.422 109.599 101.353 109.117 102.275 108.695C103.689 108.047 105.1 107.394 106.512 106.739C107.619 106.226 108.727 105.71 109.837 105.199C109.952 105.147 110.068 105.097 110.182 105.042C110.28 104.994 110.477 104.913 110.002 105.116C109.438 105.358 109.928 105.154 110.073 105.097C110.351 104.986 110.629 104.874 110.9 104.743C111.986 104.219 112.975 103.359 113.551 102.29C114.086 101.298 114.279 100.251 114.448 99.153C114.697 97.5427 114.974 95.9401 115.12 94.3155C115.224 93.1661 114.034 92.0661 112.92 92.1156C111.639 92.1728 110.831 93.0847 110.72 94.3155C110.554 96.1612 110.214 98.1542 109.739 100.13C109.675 100.4 109.956 99.7854 109.785 100.003C109.726 100.077 109.687 100.177 109.64 100.26C109.395 100.694 109.837 100.114 109.567 100.357C109.496 100.42 109.397 100.508 109.332 100.583C109.57 100.306 109.506 100.473 109.363 100.558C109.254 100.622 109.152 100.694 109.041 100.757C109 100.78 108.541 101.01 108.738 100.921C108.932 100.833 108.579 100.981 108.579 100.98C108.41 101.048 108.212 101.132 108.046 101.204C108.022 101.214 107.999 101.225 107.975 101.236C107.864 101.285 107.755 101.336 107.645 101.387C105.285 102.47 102.934 103.574 100.573 104.657C99.9613 104.939 99.3485 105.219 98.7346 105.495C98.5399 105.583 98.3441 105.669 98.1494 105.756C97.6598 105.974 98.6994 105.55 98.2946 105.692C97.2109 106.072 96.3748 107.214 96.7577 108.398C97.1042 109.469 98.3012 110.341 99.464 109.935Z" fill="#1A5E9D"/>
<path d="M116.455 5.67563C103.369 8.79613 92.2911 19.5843 89.653 32.5436C88.7685 36.8554 88.8774 44.2216 89.686 47.66C89.686 47.66 91.3967 55.0746 91.4539 54.0528C91.6344 54.0242 91.8236 54.0088 92.0227 54.0022C92.9072 53.9714 93.9073 54.1793 94.7698 54.7237C109.446 49.8665 129.092 40.0903 138.647 31.4877C140.319 35.365 142.668 40.1805 144.539 43.1052C147.849 48.2749 152.704 52.1213 157.214 54.7941C158.102 54.198 159.151 53.9703 160.072 54.0022C160.714 54.0253 161.258 54.1309 161.723 54.2915C164.443 48.1957 163.106 37.7397 162.035 32.5436C161.907 31.9156 161.76 31.293 161.593 30.676C161.075 28.761 160.369 26.8999 159.503 25.1125C155.714 17.2568 148.781 10.8266 140.58 7.42012C135.962 5.49304 130.938 4.535 125.85 4.81218C122.718 4.64059 119.612 4.93757 116.611 5.63823C116.559 5.65033 116.508 5.66243 116.456 5.67453L116.455 5.67563Z" fill="#1A5E9D"/>
<path d="M163.894 54.7621C165.752 50.3195 165.725 45.1124 165.347 40.3915C164.96 35.5485 164.211 30.6197 162.338 26.1111C158.157 16.0401 149.549 8.19433 139.295 4.58106C133.801 2.64518 127.864 2.2657 122.083 2.62978C117.173 2.93886 112.41 4.26318 107.995 6.42124C99.2933 10.6747 92.2336 18.2543 88.8529 27.3474C85.6811 35.8785 86.3544 45.7669 89.1125 54.3287C89.9772 57.0126 94.2271 55.8653 93.3558 53.1595C91.2314 46.5665 90.37 39.1816 91.9366 32.3774C93.8762 23.9541 99.5265 16.6781 106.801 12.1189C110.524 9.78483 114.629 8.17233 118.958 7.39908C121.109 7.01521 123.271 6.94921 125.449 6.99541C128.279 7.0548 130.995 7.01631 133.787 7.60697C143.393 9.63744 151.964 15.9499 156.724 24.5393C159.207 29.0193 160.302 33.9734 160.819 39.0287C161.309 43.8167 161.543 49.0656 159.647 53.5962C159.189 54.6928 160.143 56.016 161.184 56.302C162.453 56.6507 163.431 55.8664 163.891 54.7654L163.894 54.7621Z" fill="#1A5E9D"/>
<path d="M136.922 33.0064C138.956 37.6437 141.122 42.4119 144.222 46.4476C147.386 50.5657 151.447 53.8798 155.876 56.5581C158.306 58.0265 160.52 54.2241 158.097 52.759C154.113 50.3512 150.345 47.366 147.55 43.6075C144.677 39.7435 142.645 35.1755 140.721 30.7856C140.244 29.6978 138.652 29.4459 137.711 29.9959C136.588 30.6526 136.443 31.9131 136.921 33.0053L136.922 33.0064Z" fill="#1A5E9D"/>
<path d="M137.267 29.7738C131.521 34.9666 124.605 38.9131 117.771 42.4791C110.245 46.4069 102.435 49.8409 94.3818 52.5369C91.7095 53.4311 92.8559 57.6823 95.5513 56.7793C103.958 53.9646 112.136 50.3777 119.992 46.2772C127.168 42.533 134.347 38.3335 140.379 32.8833C142.485 30.9804 139.365 27.8764 137.268 29.7727L137.267 29.7738Z" fill="#1A5E9D"/>
<path d="M97.0317 53.7061C94.805 51.7196 91.6729 51.2565 88.9522 52.5027C87.0093 53.3926 85.8157 55.2306 85.2678 57.2413C84.0169 61.8379 85.1853 67.2132 87.8213 71.1345C89.6299 73.8249 92.4881 76.2514 95.9503 75.8026C97.1285 75.6497 98.1506 74.9006 98.1506 73.6027C98.1506 72.5325 97.1373 71.2489 95.9503 71.4029C93.5552 71.713 91.9963 69.731 90.9578 67.8149C90.1228 66.2761 89.4088 64.3468 89.2515 62.5143C89.0809 60.5311 89.2052 58.5051 90.1591 56.9718C89.8004 57.5481 90.7223 56.4922 90.3813 56.7408C90.8203 56.4196 90.9292 56.3822 91.3912 56.2788C92.2912 56.0786 93.2032 56.1776 93.9205 56.8167C96.0273 58.6965 99.1506 55.5958 97.0317 53.7061Z" fill="#1A5E9D"/>
<path d="M158.175 56.8169C158.852 56.2131 159.718 56.0921 160.564 56.2494C161.112 56.3517 161.246 56.4001 161.714 56.741C161.38 56.498 162.286 57.533 161.936 56.972C162.893 58.5075 163.014 60.5259 162.844 62.5146C162.686 64.3427 161.968 66.283 161.137 67.8152C160.099 69.7301 158.541 71.7133 156.145 71.4031C154.964 71.2502 153.945 72.524 153.945 73.603C153.945 74.9185 154.961 75.6489 156.145 75.8029C161.774 76.5332 165.235 70.4605 166.643 65.9101C167.907 61.8227 167.842 55.497 163.846 52.8836C161.123 51.1028 157.425 51.5989 155.063 53.7074C152.946 55.596 156.067 58.6978 158.175 56.8169Z" fill="#1A5E9D"/>
<path d="M154.208 70.7089C153.878 72.2895 153.39 73.8404 152.815 75.3495C152.604 75.9061 152.459 76.191 152.195 76.8487C151.973 77.4009 152.354 76.5276 152.164 76.9224C152.097 77.0621 152.034 77.2051 151.967 77.3448C151.018 79.328 149.833 81.21 148.567 83.0028C145.617 87.1815 141.581 91.7462 136.397 92.9638C133.641 93.6117 134.808 97.8541 137.566 97.2063C143.726 95.7587 148.465 90.6177 152.034 85.6878C153.416 83.7794 154.702 81.7654 155.73 79.6404C155.952 79.1806 156.151 78.712 156.348 78.2412C156.583 77.677 156.166 78.6328 156.427 78.0598C156.595 77.6891 156.747 77.3096 156.898 76.9323C157.547 75.2956 158.092 73.6039 158.451 71.8792C159.028 69.1162 154.787 67.9338 154.208 70.7089Z" fill="#1A5E9D"/>
<path d="M93.5549 71.7692C96.1974 83.3558 104.924 95.9896 117.448 97.8782C118.622 98.0553 119.813 97.5834 120.154 96.3416C120.44 95.3022 119.8 93.814 118.617 93.6358C107.515 91.9617 100.134 80.8425 97.7981 70.5999C97.1689 67.8402 92.9245 69.0083 93.5549 71.7692Z" fill="#1A5E9D"/>
<path d="M109.555 58.3622C109.048 60.0066 109.379 63.7904 112.495 64.1126C116.614 64.0885 116.833 59.5138 115.447 57.3624C114.312 55.6014 110.974 54.8688 109.555 58.3622Z" fill="#1A5E9D"/>
<path d="M142.541 58.3622C143.047 60.0066 142.717 63.7904 139.602 64.1126C135.483 64.0874 135.263 59.5138 136.65 57.3624C137.785 55.6014 141.123 54.8688 142.542 58.3622H142.541Z" fill="#1A5E9D"/>
<path d="M120.047 81.6301C122.018 82.6706 124.139 83.1205 126.37 83.1062C128.72 83.0908 131.006 82.5914 132.879 81.1329C133.791 80.4224 133.681 78.7582 132.879 78.0223C131.911 77.1347 130.74 77.2645 129.768 78.0223C130.529 77.4295 129.751 78.0025 129.51 78.1279C129.324 78.2258 128.83 78.3798 129.528 78.1422C129.356 78.2005 129.189 78.272 129.016 78.3281C128.552 78.4777 128.039 78.5008 127.584 78.6548C127.817 78.5756 127.948 78.6108 127.618 78.6438C127.477 78.6581 127.336 78.6691 127.195 78.679C126.857 78.701 126.517 78.7098 126.178 78.7076C125.874 78.7054 125.569 78.6955 125.267 78.6746C125.127 78.6647 124.988 78.6537 124.85 78.6405C124.771 78.6328 124.691 78.624 124.612 78.6141C124.439 78.5932 124.508 78.602 124.819 78.6416C124.803 78.6999 123.603 78.3809 123.481 78.3446C123.294 78.2885 123.112 78.2214 122.927 78.1576C122.436 77.9893 123.394 78.3809 122.95 78.1708C122.72 78.063 122.494 77.9497 122.27 77.832C121.252 77.2953 119.831 77.5405 119.26 78.6218C118.723 79.6381 118.963 81.0581 120.05 81.6312L120.047 81.6301Z" fill="#1A5E9D"/>
<path d="M124.961 67.1165C125.223 68.1142 125.474 69.1261 125.623 70.1469L125.545 69.5617C125.563 69.7014 125.57 69.84 125.556 69.9797L125.634 69.3945C125.624 69.4594 125.61 69.521 125.588 69.5826L125.81 69.0568C125.79 69.1008 125.771 69.1382 125.744 69.1778L126.089 68.7323C126.058 68.7697 126.028 68.7994 125.99 68.8302L126.435 68.486C126.358 68.5355 126.278 68.5751 126.195 68.6125L126.721 68.3903C126.589 68.4453 126.458 68.486 126.316 68.508L126.902 68.4299C126.774 68.4453 126.65 68.4442 126.522 68.4299L127.107 68.508C126.964 68.4882 126.823 68.453 126.68 68.4343C126.388 68.343 126.095 68.3298 125.803 68.3947C125.51 68.4079 125.237 68.4948 124.984 68.6554C124.527 68.9226 124.092 69.4451 123.973 69.9698C123.844 70.5329 123.873 71.1654 124.195 71.6648L124.54 72.1102C124.815 72.383 125.138 72.5711 125.511 72.6756C125.894 72.7273 126.267 72.823 126.656 72.8406C127.286 72.8681 127.859 72.6701 128.418 72.4116C129.121 72.0849 129.676 71.4162 129.863 70.6605C130.023 70.0127 129.959 69.4957 129.849 68.8467C129.684 67.87 129.458 66.9032 129.207 65.9451C129.068 65.4139 128.668 64.9068 128.196 64.6307C127.725 64.3546 127.029 64.238 126.501 64.4085C125.969 64.5812 125.455 64.9112 125.186 65.4194C124.908 65.9473 124.81 66.527 124.964 67.1143L124.961 67.1165Z" fill="#1A5E9D"/>
<path d="M176.802 193.595C176.415 193.454 176.032 193.304 175.653 193.144L176.179 193.366C175.358 193.019 174.557 192.626 173.751 192.247C173.498 192.086 173.226 191.999 172.932 191.986C172.639 191.92 172.347 191.933 172.054 192.026C171.544 192.166 170.99 192.56 170.74 193.036C170.47 193.547 170.335 194.165 170.517 194.731C170.684 195.248 171.017 195.805 171.528 196.046C172.879 196.683 174.226 197.328 175.632 197.839C175.925 197.93 176.217 197.943 176.51 197.878C176.802 197.865 177.075 197.778 177.328 197.618C177.785 197.35 178.221 196.828 178.339 196.303C178.468 195.74 178.439 195.108 178.117 194.608L177.773 194.163C177.498 193.89 177.174 193.702 176.801 193.597L176.802 193.595Z" fill="#1A5E9D"/>
<path d="M202.714 147.664C202.125 155.439 201.881 163.233 201.239 171.005C200.843 175.789 200.746 181.033 198.58 185.422C196.855 188.917 194.066 191.911 190.487 193.54C186.301 195.445 181.053 195.095 176.803 193.596C174.127 192.654 172.976 196.903 175.634 197.839C180.045 199.394 185.294 199.724 189.817 198.443C194.248 197.187 197.972 194.229 200.64 190.531C203.708 186.279 204.667 181.23 205.18 176.114C205.684 171.096 206.044 166.062 206.329 161.028C206.581 156.573 206.778 152.115 207.114 147.664C207.328 144.841 202.926 144.854 202.714 147.664Z" fill="#1A5E9D"/>
<path d="M165.46 140.052H146.155C144.965 140.052 143.954 141.059 143.954 142.252C143.954 146.343 143.954 150.435 143.954 154.528C143.954 155.717 144.962 156.728 146.155 156.728C152.814 156.728 159.473 156.728 166.133 156.728C167.323 156.728 168.334 155.72 168.334 154.528V142.252C168.334 141.063 167.326 140.052 166.133 140.052H165.46C162.628 140.052 162.624 144.451 165.46 144.451H166.133L163.933 142.252V154.528L166.133 152.328C159.474 152.328 152.815 152.328 146.155 152.328L148.355 154.528C148.355 150.436 148.355 146.344 148.355 142.252L146.155 144.451H165.46C168.292 144.451 168.296 140.052 165.46 140.052Z" fill="#1A5E9D"/>
<path d="M79.0154 150.764C79.0132 161.427 78.7063 172.093 78.4554 182.752C78.0671 199.238 77.627 215.723 77.1925 232.207C76.7205 250.155 76.2474 268.101 75.8206 286.05C75.4718 300.738 75.1319 315.426 74.9603 330.116C74.9294 332.762 74.9052 335.408 74.8953 338.054C74.8887 339.722 74.7479 341.431 75.562 342.957C76.5555 344.819 78.4521 345.81 80.516 345.882C84.5085 346.021 88.5306 345.882 92.5252 345.882C103.659 345.882 114.792 345.882 125.926 345.882C135.866 345.882 145.805 345.882 155.745 345.882H170.799C173.769 345.882 176.566 344.472 177.107 341.259C177.376 339.659 177.202 337.918 177.192 336.298C177.182 334.607 177.166 332.916 177.148 331.225C176.944 312.495 176.471 293.767 176.008 275.041C175.456 252.715 174.848 230.389 174.272 208.063C174.145 203.164 174.02 198.266 173.899 193.367C173.828 190.541 169.428 190.53 169.498 193.367C170.033 214.847 170.618 236.327 171.172 257.807C171.694 278.103 172.215 298.4 172.567 318.699C172.688 325.693 172.797 332.686 172.804 339.681C172.806 341.631 171.616 341.483 170.143 341.483H163.725C151.699 341.483 139.674 341.483 127.649 341.483H84.2301C83.0089 341.483 81.7361 341.587 80.5171 341.483C79.308 341.381 79.2915 340.458 79.2926 339.466C79.2948 338.28 79.3003 337.094 79.308 335.908C79.395 322.471 79.6975 309.035 80.0011 295.603C80.3928 278.259 80.8417 260.916 81.296 243.573C81.7394 226.626 82.1948 209.681 82.6151 192.733C82.9176 180.522 83.2367 168.309 83.3797 156.094C83.4006 154.318 83.416 152.542 83.4171 150.765C83.4171 147.934 79.0176 147.93 79.0165 150.765L79.0154 150.764Z" fill="#1A5E9D"/>
<path d="M109.573 110.432C112.372 112.197 115.291 113.639 118.502 114.488C121.022 115.155 123.576 115.308 126.169 115.296C132.181 115.268 137.561 113.229 142.522 109.893C144.86 108.321 142.659 104.507 140.301 106.094C135.968 109.007 131.429 110.872 126.169 110.896C124.026 110.906 121.954 110.832 119.867 110.296C116.927 109.542 114.35 108.245 111.793 106.633C109.392 105.117 107.182 108.923 109.573 110.432Z" fill="#1A5E9D"/>
<path d="M124.608 184.325C124.61 184.112 124.623 183.902 124.651 183.69L124.573 184.276C124.62 183.956 124.71 183.661 124.811 183.355C124.567 184.099 124.706 183.597 124.835 183.384C124.875 183.315 124.921 183.251 124.964 183.185C125.155 182.894 124.547 183.644 124.846 183.348C124.928 183.266 125.377 182.879 125.015 183.159C124.653 183.44 125.162 183.091 125.265 183.032C125.631 182.818 124.853 183.168 125.073 183.104C125.165 183.078 125.254 183.039 125.346 183.012C125.562 182.948 125.781 182.906 126.003 182.874L125.418 182.952C125.836 182.903 126.244 182.902 126.662 182.957L126.077 182.879C126.278 182.91 126.477 182.95 126.673 183.009C126.764 183.036 126.852 183.077 126.945 183.101C126.319 182.93 126.571 182.935 126.753 183.029C126.832 183.07 126.909 183.114 126.984 183.161C127.319 183.372 126.879 183.113 126.82 183.017C126.897 183.144 127.111 183.287 127.215 183.396C127.498 183.689 126.964 183.021 127.078 183.213C127.12 183.285 127.171 183.352 127.214 183.423C127.257 183.496 127.295 183.571 127.335 183.644C127.539 184.005 127.179 183.209 127.252 183.428C127.367 183.777 127.467 184.115 127.519 184.481L127.441 183.896C127.489 184.289 127.505 184.684 127.457 185.078L127.535 184.492C127.491 184.804 127.387 185.083 127.305 185.383C127.487 184.707 127.484 184.983 127.374 185.196C127.339 185.263 127.302 185.329 127.263 185.394C127.223 185.46 127.179 185.523 127.137 185.588C126.949 185.877 127.551 185.117 127.265 185.42C127.144 185.547 127.016 185.663 126.892 185.786C127.333 185.349 127.249 185.522 127.07 185.643C126.986 185.699 126.9 185.752 126.812 185.8C126.628 185.9 126.311 185.961 126.971 185.752C126.881 185.78 126.795 185.819 126.705 185.847C126.478 185.919 126.246 185.966 126.012 186L126.597 185.922C126.19 185.973 125.785 185.978 125.377 185.934L125.962 186.012C125.736 185.982 125.512 185.938 125.293 185.867C125.088 185.801 124.929 185.651 125.483 185.96C125.407 185.918 125.326 185.885 125.25 185.842C125.172 185.798 125.052 185.68 124.968 185.662C125.053 185.68 125.451 186.063 125.16 185.801C125.055 185.707 124.677 185.253 124.958 185.615C125.244 185.985 124.894 185.495 124.832 185.382C124.795 185.314 124.763 185.245 124.728 185.177C124.572 184.865 124.949 185.777 124.818 185.384C124.711 185.065 124.627 184.75 124.577 184.416L124.655 185.002C124.626 184.776 124.609 184.551 124.607 184.324C124.599 183.174 123.6 182.07 122.407 182.124C121.222 182.177 120.197 183.091 120.206 184.324C120.221 186.427 121.182 188.711 123.141 189.702C125.442 190.865 128.708 190.519 130.428 188.472C131.105 187.665 131.621 186.716 131.778 185.663C131.944 184.547 131.918 183.365 131.51 182.298C131.037 181.061 130.289 180.002 129.13 179.316C127.819 178.542 126.307 178.417 124.832 178.631C123.336 178.847 122.089 179.693 121.21 180.898C120.504 181.865 120.216 183.145 120.206 184.324C120.196 185.475 121.225 186.577 122.407 186.524C123.607 186.47 124.597 185.557 124.607 184.324L124.608 184.325Z" fill="#1A5E9D"/>
<path d="M115.235 155.596C106.965 141.506 97.6646 126.225 97.6998 125.961C97.7614 125.503 101.669 120.52 102.669 119.512C100.797 117.626 95.2431 112.245 95.3334 111.982C96.714 107.957 106.656 96.5103 108.59 96.5103C108.965 98.951 110.863 110.663 113.511 120.644C117.483 135.613 122.285 150.299 126.046 159.817C129.809 150.299 134.61 135.613 138.581 120.644C141.229 110.663 143.127 98.951 143.502 96.5103C145.436 96.5103 155.38 107.957 156.759 111.982C156.849 112.245 151.296 117.627 149.423 119.512C150.423 120.52 154.332 125.503 154.393 125.961C154.428 126.225 145.127 141.506 136.857 155.596" fill="white"/>
<path d="M117.136 154.486C113.244 147.857 109.301 141.256 105.357 134.657C103.997 132.381 102.635 130.106 101.287 127.823C100.886 127.142 100.483 126.461 100.092 125.774C99.9783 125.575 99.8749 125.363 99.7528 125.17C99.5382 124.828 99.7407 124.807 99.8221 125.377V126.546C99.6922 126.995 99.5899 126.976 99.8419 126.623C99.997 126.406 100.141 126.182 100.295 125.965C100.71 125.384 101.141 124.816 101.58 124.252C102.424 123.168 103.27 122.056 104.226 121.067C105.053 120.211 105.077 118.811 104.226 117.956C102.842 116.566 101.436 115.197 100.049 113.81C99.3655 113.127 98.6823 112.441 98.0145 111.743C97.7769 111.494 97.5492 111.235 97.3104 110.987C96.8528 110.514 97.306 111.043 97.2367 110.898L97.5371 112.008C97.5998 112.613 97.3291 112.771 97.6614 112.109C97.8264 111.78 98.0079 111.46 98.1949 111.143C98.6229 110.421 99.0916 109.721 99.5745 109.035C100.701 107.43 101.929 105.901 103.206 104.413C104.427 102.991 105.692 101.597 107.047 100.3C107.335 100.024 107.628 99.7514 107.928 99.4875C108.053 99.3775 108.763 98.811 108.411 99.0695C108.6 98.9309 108.805 98.8143 108.993 98.6757C109.436 98.3501 108.906 98.6878 108.591 98.7087L106.469 97.094C109.102 114.177 113.682 130.84 119.166 147.215C120.65 151.646 122.211 156.054 123.925 160.402C124.744 162.478 127.349 162.482 128.169 160.402C131.435 152.111 134.207 143.622 136.775 135.092C139.61 125.677 142.133 116.201 143.978 106.539C144.577 103.401 145.138 100.253 145.625 97.0951L143.502 98.7098C143.325 98.6977 143.043 98.5888 142.992 98.6031C142.776 98.6625 142.842 98.492 143.043 98.6427C143.245 98.7956 143.477 98.9188 143.683 99.0706C143.32 98.8044 143.956 99.306 144.083 99.416C144.38 99.6745 144.67 99.9417 144.956 100.213C146.345 101.536 147.64 102.959 148.888 104.413C150.135 105.867 151.331 107.355 152.436 108.916C152.948 109.641 153.446 110.379 153.898 111.143C154.067 111.431 154.232 111.721 154.384 112.017C154.454 112.153 154.506 112.338 154.602 112.459C154.82 112.734 154.525 112.308 154.556 112.007L154.856 110.897C154.743 111.134 155.244 110.502 154.838 110.923C154.608 111.162 154.391 111.414 154.163 111.654C153.47 112.384 152.757 113.096 152.045 113.809C150.658 115.196 149.252 116.565 147.868 117.955C147.02 118.808 147.038 120.209 147.868 121.066C148.824 122.055 149.67 123.168 150.514 124.251C150.927 124.783 151.334 125.319 151.727 125.866C151.89 126.091 152.041 126.326 152.203 126.55C152.394 126.812 152.488 127.296 152.271 126.545V125.375C152.35 124.82 152.568 124.807 152.361 125.13C152.243 125.315 152.146 125.518 152.037 125.71C151.656 126.383 151.262 127.048 150.868 127.715C149.5 130.035 148.116 132.345 146.735 134.656C142.792 141.255 138.849 147.856 134.955 154.485C133.519 156.932 137.321 159.149 138.755 156.706C143.01 149.462 147.324 142.254 151.63 135.041C152.919 132.884 154.213 130.73 155.474 128.558C156.302 127.131 157.003 125.943 156.001 124.331C154.611 122.095 152.807 119.849 150.977 117.956V121.067C152.793 119.242 154.647 117.453 156.45 115.615C157.108 114.944 157.82 114.279 158.371 113.514C159.191 112.378 158.922 111.344 158.359 110.153C157.313 107.944 155.74 105.959 154.243 104.044C152.581 101.918 150.815 99.8581 148.916 97.9399C147.478 96.488 145.68 94.4586 143.501 94.3112C142.637 94.2529 141.518 95.0294 141.379 95.9259C138.746 113.009 134.167 129.672 128.682 146.046C127.198 150.478 125.637 154.885 123.923 159.234H128.166C124.9 150.943 122.128 142.454 119.56 133.924C116.725 124.509 114.202 115.033 112.357 105.371C111.758 102.233 111.197 99.0849 110.71 95.927C110.573 95.0371 109.465 94.2529 108.588 94.3123C106.678 94.441 105.14 96.0249 103.839 97.2821C101.941 99.1146 100.195 101.115 98.5415 103.169C96.9254 105.175 95.2862 107.249 94.054 109.52C93.4566 110.621 92.7624 111.896 93.4335 113.121C93.8042 113.799 94.4511 114.39 94.9825 114.944C96.9815 117.028 99.0729 119.023 101.11 121.07V117.96C99.4117 119.717 97.9078 121.761 96.4919 123.748C95.8967 124.582 95.2774 125.483 95.5799 126.572C95.724 127.09 96.0574 127.596 96.3225 128.059C99.3303 133.324 102.519 138.489 105.623 143.696C108.205 148.026 110.778 152.361 113.332 156.709C114.764 159.15 118.57 156.938 117.132 154.488L117.136 154.486Z" fill="#1A5E9D"/>
<path d="M151.239 106.217C155.165 107.552 159.194 108.719 163.006 110.354C170.669 113.639 179.26 117.199 184.66 123.844C185.409 124.767 186.992 124.623 187.771 123.844C188.684 122.931 188.522 121.659 187.771 120.734C183.586 115.582 177.498 112.232 171.6 109.419C166.898 107.175 162.163 105.292 157.244 103.619C155.632 103.071 154.02 102.522 152.409 101.974C149.722 101.06 148.568 105.308 151.239 106.217Z" fill="#1A5E9D"/>
<path d="M69.6897 135.528C70.7195 131.585 71.9362 127.562 73.9935 124.017C75.6844 121.102 78.2192 118.555 80.8716 116.503C85.4241 112.981 90.7763 110.755 95.9943 108.432C97.8184 107.62 99.6424 106.809 101.465 105.996C102.551 105.513 102.808 103.931 102.255 102.986C101.601 101.869 100.334 101.712 99.2452 102.197C88.7949 106.849 77.6834 110.955 70.8823 120.728C68.1209 124.697 66.6566 129.732 65.4476 134.359C64.7314 137.101 68.9735 138.27 69.6897 135.528Z" fill="#1A5E9D"/>
<path d="M26.376 141.913C30.1837 153.971 34.3994 166.063 39.6405 177.584C41.952 182.665 44.9092 187.672 49.2779 191.26C53.6752 194.871 59.0153 196.795 64.7427 196.262C71.2566 195.656 77.3163 192.717 81.9919 188.168C84.025 186.191 80.9116 183.081 78.8807 185.058C75.2766 188.563 70.6549 191.009 65.6558 191.753C60.6864 192.492 55.8832 191.129 52.0634 187.876C48.1293 184.525 45.5561 180.011 43.4416 175.364C41.0696 170.153 39.0377 164.765 37.0365 159.403C34.7372 153.24 32.6007 147.017 30.6204 140.744C29.7711 138.053 25.5201 139.203 26.376 141.913Z" fill="#1A5E9D"/>
<path d="M66.4498 134.047C64.2847 130.763 62.3837 127.313 60.762 123.73C60.2857 122.678 58.6783 122.343 57.752 122.94C56.6651 123.641 56.4538 124.824 56.9621 125.95C58.5837 129.533 60.4848 132.983 62.6499 136.267C63.2825 137.226 64.6247 137.724 65.6599 137.057C66.617 136.44 67.1264 135.075 66.4498 134.047Z" fill="#1A5E9D"/>
<path d="M29.7166 136.409C27.1885 135.447 24.6867 134.257 22.1256 133.13C17.3168 131.013 12.1912 129.545 7.26037 127.728C5.11397 126.937 2.65844 126.011 3.23932 123.011C3.31193 122.636 3.47805 122.274 3.74649 122.003C4.05673 121.69 4.41428 121.476 4.96765 121.398L3.72339 120.79C2.23378 120.062 1.79922 118.035 2.85317 116.753C3.0721 116.487 3.34163 116.267 3.63977 116.094C2.62104 115.188 2.04896 113.53 2.60893 112.236C3.00939 111.31 3.93351 110.693 4.90385 110.415C5.57934 110.223 6.28894 110.15 7.00623 110.138C7.35608 106.568 9.09102 105.647 11.2 105.142C13.133 104.68 15.9614 104.656 17.9395 104.845C25.2115 105.54 31.9422 106.651 39.0327 107.669C38.7158 104.543 38.4243 101.416 38.1603 98.2853C38.0393 96.8477 37.9336 95.3397 38.52 94.022C39.5003 91.8156 42.529 90.8168 44.6302 92.008C46.9747 93.3379 47.5467 96.3781 48.1661 99.0014C49.527 104.762 52.4754 110.001 54.0959 115.68C55.5866 120.902 55.2478 127.699 52.1344 132.313C50.1948 135.187 46.9978 137.067 43.6247 137.872C38.5948 139.073 34.1128 138.082 29.7155 136.408L29.7166 136.409Z" fill="white"/>
<path d="M41.2906 105.785C33.9548 104.754 26.641 103.539 19.27 102.779C13.8782 102.222 6.39058 102.093 4.9989 108.717C4.41912 111.479 8.65909 112.661 9.24217 109.886C9.67123 107.842 10.7868 107.34 12.7902 107.074C15.6395 106.697 18.545 107.083 21.3768 107.407C27.6455 108.124 33.8734 109.15 40.1212 110.027C41.2961 110.192 42.4843 109.74 42.8275 108.491C43.1103 107.461 42.4755 105.951 41.2906 105.785Z" fill="#1A5E9D"/>
<path d="M28.3112 111.469C22.2417 109.575 15.6793 108.456 9.33806 108.034C6.61079 107.851 3.51717 107.819 1.50389 109.985C-0.573188 112.219 0.0428945 115.642 2.09027 117.655C4.11125 119.643 7.22577 116.533 5.2015 114.544C4.04084 113.403 4.77024 112.595 6.14652 112.389C8.26871 112.07 10.7264 112.485 12.8332 112.777C17.6552 113.445 22.487 114.261 27.1407 115.713C29.8503 116.558 31.0088 112.313 28.3101 111.47L28.3112 111.469Z" fill="#1A5E9D"/>
<path d="M25.9659 117.905C20.5631 116.301 15.0711 114.914 9.544 113.803C6.81563 113.255 3.74071 112.802 1.52831 114.954C-0.797408 117.214 -0.162622 121.13 2.61416 122.69C5.08619 124.08 7.30629 120.28 4.83536 118.891C4.47561 118.689 4.3711 118.472 4.51411 118.221C4.82546 117.674 5.94541 117.634 6.42947 117.68C8.14021 117.843 9.88394 118.351 11.5573 118.727C16.003 119.727 20.4278 120.85 24.7965 122.147C27.5171 122.954 28.6789 118.71 25.9659 117.905Z" fill="#1A5E9D"/>
<path d="M24.1146 124.36C20.4434 122.668 16.4641 121.614 12.5641 120.594C9.85774 119.887 5.64417 118.217 3.01701 119.792C0.761707 121.145 0.426161 124.398 1.67593 126.54C2.82559 128.513 5.1348 129.289 7.15468 130.024C12.9151 132.117 18.6743 133.988 24.2785 136.487C29.458 138.797 34.9236 141.012 40.7169 140.537C46.1319 140.093 51.4566 137.668 54.3665 132.907C57.1466 128.356 57.6163 122.639 56.7538 117.476C55.7945 111.733 52.7559 106.535 51.0154 101.022C50.1529 98.2909 49.8867 95.1957 48.3531 92.7176C46.8195 90.2394 44.1461 88.8689 41.2373 89.453C38.2724 90.0491 36.2745 92.4393 35.9412 95.3926C35.7553 97.0381 35.9962 98.7111 36.1414 100.353C36.3086 102.25 36.4869 104.145 36.6728 106.039C36.7883 107.221 37.6013 108.239 38.8731 108.239C39.9732 108.239 41.19 107.229 41.0734 106.039C40.8204 103.456 40.5717 100.871 40.3638 98.2854C40.2263 96.5816 39.9534 94.2454 42.0734 93.7691C43.6268 93.4193 44.5499 94.6567 45.0658 95.9679C45.8821 98.0379 46.1649 100.309 46.847 102.428C49.5962 110.971 55.1311 119.399 51.6018 128.611C50.1133 132.497 46.7832 134.907 42.7962 135.807C38.1404 136.859 33.5297 135.607 29.2127 133.859C24.6449 132.009 20.2366 129.891 15.5686 128.279C13.0746 127.419 10.5651 126.602 8.0876 125.696C7.02596 125.307 5.82789 124.991 5.36143 123.955C5.1084 123.394 5.35923 123.496 5.95001 123.554C6.33066 123.592 6.71572 123.702 7.08757 123.784C8.58487 124.115 10.0734 124.491 11.5564 124.881C14.9833 125.78 18.8471 126.755 21.8967 128.161C22.9748 128.658 24.2664 128.466 24.9067 127.371C25.4623 126.422 25.2015 124.861 24.1168 124.361L24.1146 124.36Z" fill="#1A5E9D"/>
<path d="M161.431 86.1698L144.734 138.309C144.288 139.702 145.056 141.193 146.449 141.639L186.298 154.396C187.692 154.842 189.183 154.074 189.629 152.681L206.326 100.541C206.773 99.1483 206.005 97.6574 204.611 97.2113L164.762 84.4549C163.369 84.0089 161.877 84.7766 161.431 86.1698Z" fill="white"/>
<path d="M205.198 95.0922C198.948 93.0914 192.697 91.0907 186.447 89.0899C179.489 86.8625 172.561 84.3723 165.527 82.3935C162.821 81.6323 160.264 82.9457 159.31 85.5888C159.153 86.0255 159.026 86.4764 158.885 86.9186L156.132 95.5157C153.215 104.622 150.299 113.728 147.384 122.835L143.882 133.768C143.312 135.548 142.247 137.74 142.458 139.65C142.862 143.303 146.458 143.953 149.318 144.868L161.131 148.65L184.683 156.189C185.813 156.551 186.876 156.878 188.1 156.609C190.073 156.177 191.266 154.723 191.875 152.888C192.629 150.611 193.338 148.318 194.07 146.033L202.621 119.331C204.544 113.326 206.711 107.343 208.406 101.267C209.172 98.5152 207.787 96.1173 205.199 95.0922C204.093 94.6544 202.783 95.5718 202.492 96.6288C202.149 97.8794 202.92 98.8958 204.029 99.3346C204.7 99.5997 203.247 102.958 203.122 103.349L199.89 113.437L191.423 139.878L188.385 149.363C188.135 150.142 187.93 150.955 187.631 151.717C187.45 152.181 187.4 152.347 186.817 152.253C186.156 152.148 185.466 151.821 184.83 151.618L180.511 150.235L168.004 146.231L154.95 142.053C152.454 141.254 149.846 140.596 147.406 139.637C146.934 139.451 146.773 139.369 146.887 138.798C147.007 138.203 147.27 137.603 147.455 137.026L150.241 128.329L158.67 102.009L162.093 91.3216L163.143 88.0416C163.249 87.7106 163.326 87.0352 163.554 86.7602C163.899 86.3423 164.472 86.6722 164.918 86.8141L168.191 87.8624L179.827 91.5878L202.604 98.8793L204.029 99.3346C206.732 100.2 207.89 95.9535 205.199 95.0922H205.198Z" fill="#1A5E9D"/>
<path d="M195.294 106.581C195.39 106.281 195.487 105.979 195.583 105.679C181.827 101.275 167.196 96.5916 167.196 96.5916C165.818 100.896 164.439 105.2 163.061 109.504L191.448 118.591C191.448 118.591 193.334 112.703 195.294 106.581Z" fill="#7ABEE6"/>
<path d="M188.833 126.461C179.37 123.432 169.908 120.403 160.445 117.374C157.742 116.508 156.585 120.755 159.276 121.616C168.738 124.645 178.201 127.674 187.663 130.704C190.366 131.569 191.523 127.322 188.833 126.461Z" fill="#1A5E9D"/>
<path d="M185.879 135.685C176.417 132.656 166.954 129.627 157.492 126.598C154.789 125.732 153.632 129.979 156.323 130.84C165.785 133.869 175.247 136.899 184.71 139.928C187.413 140.793 188.57 136.547 185.879 135.685Z" fill="#1A5E9D"/>
<path d="M204.227 99.5425C204.322 99.6195 204.847 100.205 204.59 99.8196C204.64 99.8911 204.687 99.9659 204.728 100.044C204.808 100.193 204.79 100.141 204.677 99.8889C204.71 99.9824 204.737 100.078 204.758 100.175C204.725 99.8394 204.713 99.7558 204.721 99.9252C204.688 100.173 204.726 100.457 204.728 100.706C204.738 101.763 204.756 102.82 204.77 103.877C204.8 106.051 204.806 108.224 204.718 110.397H209.119C209.097 110.141 209.076 109.886 209.054 109.631C208.957 108.487 208.111 107.375 206.854 107.431C205.745 107.481 204.55 108.404 204.654 109.631C204.676 109.886 204.696 110.141 204.718 110.397C204.815 111.541 205.661 112.653 206.919 112.596C208.151 112.541 209.068 111.63 209.119 110.397C209.217 107.991 209.195 105.584 209.161 103.178C209.144 102.056 209.191 100.914 209.111 99.7954C209.018 98.4766 208.372 97.2601 207.339 96.4319C206.442 95.7136 205.091 95.4903 204.228 96.4319C203.494 97.2304 203.267 98.7747 204.227 99.5425Z" fill="#1A5E9D"/>
<path d="M197.416 107.165C197.513 106.865 197.608 106.563 197.705 106.263C198.078 105.097 197.264 103.908 196.168 103.557C186.706 100.528 177.244 97.4989 167.781 94.4697C166.615 94.0968 165.426 94.9107 165.075 96.0063C163.696 100.31 162.318 104.614 160.939 108.918C160.566 110.084 161.381 111.273 162.476 111.624C171.939 114.653 181.401 117.683 190.863 120.712C192.03 121.085 193.219 120.271 193.57 119.175C194.852 115.171 196.134 111.169 197.416 107.165C198.282 104.463 194.034 103.305 193.173 105.996C191.891 110 190.608 114.002 189.327 118.006L192.033 116.469C182.571 113.44 173.108 110.411 163.646 107.382L165.183 110.088C166.561 105.784 167.94 101.48 169.318 97.1755L166.612 98.7121C176.074 101.741 185.537 104.771 194.999 107.8L193.462 105.094C193.365 105.394 193.269 105.696 193.173 105.996C192.307 108.698 196.555 109.855 197.416 107.165Z" fill="#1A5E9D"/>
<path d="M202.187 157.883C203.534 155.277 204.474 152.997 205.352 150.449C206.75 146.393 208.646 140.575 207.909 136.348C207.511 134.063 207.194 130.906 203.234 128.645C200.569 127.274 195.934 126.088 192.209 125.383C190.525 125.064 188.658 124.777 187.205 125.683C186.043 126.407 185.393 127.87 185.633 129.217C185.633 129.217 185.81 130.212 186.054 131.574C185.14 131.574 184.273 131.797 183.448 132.323C182.509 132.922 181.797 134.022 181.346 135.345C181.035 136.255 181.152 137.679 181.784 138.65L182.049 139.061C181.006 139.62 180.518 140.608 180.322 141.642C180.098 142.813 180.48 144.039 181.184 144.973C181.184 144.973 181.509 145.422 181.876 145.929C181.507 146.083 181.173 146.335 180.848 146.745C179.854 148.002 179.607 149.905 180.683 151.093C181.296 151.77 181.989 152.192 182.833 152.54C183.301 152.734 183.775 152.932 184.252 153.131C184.198 153.37 184.169 153.502 184.169 153.502C183.571 156.159 183.327 159.761 184.944 162.113C186.028 163.688 189.098 164.777 191.005 164.925C195.728 165.291 199.219 162.933 202.185 157.882" fill="white"/>
<path d="M204.347 126.746C200.805 124.96 196.804 124.028 192.93 123.288C190.696 122.861 188.295 122.527 186.22 123.713C184.02 124.972 183.185 127.397 183.514 129.802C183.675 130.98 185.184 131.623 186.22 131.338C187.491 130.989 187.919 129.814 187.757 128.632C187.787 128.848 187.788 128.481 187.792 128.453C187.758 128.665 187.833 128.313 187.843 128.283C187.921 128.035 187.956 127.961 188.08 127.813C188.36 127.476 188.756 127.338 189.197 127.29C190.672 127.132 192.254 127.613 193.692 127.927C195.263 128.272 196.827 128.663 198.366 129.13C199.748 129.549 201.027 129.992 202.126 130.546C203.187 131.081 204.511 130.827 205.136 129.756C205.708 128.779 205.412 127.284 204.346 126.747L204.347 126.746Z" fill="#1A5E9D"/>
<path d="M199.668 133.022C197.312 132.152 194.929 131.355 192.508 130.684C190.314 130.076 187.769 129.191 185.471 129.407C183.052 129.634 181.009 130.992 179.897 133.162C178.812 135.276 178.64 137.663 179.885 139.76C181.33 142.193 185.135 139.982 183.685 137.54C183.462 137.164 183.344 136.587 183.375 136.288C183.411 135.93 183.786 135.116 184.114 134.672C184.404 134.282 184.679 134.077 185.228 133.895C185.869 133.683 186.558 133.784 187.265 133.933C191.094 134.735 194.831 135.911 198.498 137.263C199.612 137.675 200.908 136.804 201.204 135.727C201.542 134.498 200.786 133.433 199.667 133.021L199.668 133.022Z" fill="#1A5E9D"/>
<path d="M197.894 140.211C194.209 138.872 190.397 137.78 186.595 136.829C184.24 136.239 181.662 136.199 179.799 138.016C177.638 140.122 177.592 143.697 179.288 146.084C179.976 147.051 181.208 147.51 182.298 146.874C183.254 146.315 183.779 144.838 183.088 143.864C182.793 143.45 182.591 143.153 182.497 142.682C182.422 142.306 182.469 142.241 182.549 141.794C182.629 141.348 182.431 141.883 182.653 141.492C182.677 141.451 183.029 140.993 182.829 141.209C183.021 141.002 183.074 140.947 183.532 140.856C183.246 140.912 184.035 140.824 183.997 140.825C184.075 140.825 184.756 140.89 184.393 140.829C184.601 140.865 184.806 140.922 185.011 140.971C185.659 141.126 186.303 141.297 186.945 141.471C190.231 142.356 193.525 143.293 196.724 144.456C197.841 144.862 199.134 143.999 199.431 142.919C199.767 141.695 199.015 140.62 197.894 140.214V140.211Z" fill="#1A5E9D"/>
<path d="M195.133 146.905C192.988 146.054 190.779 145.314 188.591 144.582C187.003 144.051 185.311 143.542 183.625 143.492C181.264 143.423 179.256 144.539 178.321 146.756C177.351 149.054 177.773 151.643 179.772 153.249C180.88 154.139 182.133 154.614 183.434 155.156C184.707 155.686 185.982 156.211 187.275 156.691C188.355 157.094 189.734 156.244 189.981 155.155C190.265 153.908 189.602 152.879 188.444 152.449C187.233 151.998 186.036 151.509 184.843 151.013C184.526 150.881 184.209 150.747 183.891 150.617C183.539 150.471 183.867 150.628 183.536 150.461C183.277 150.332 183.032 150.191 182.784 150.042C182.413 149.82 182.834 150.155 182.554 149.858C182.445 149.756 182.341 149.65 182.241 149.54C182.377 149.728 182.378 149.718 182.242 149.509C182.126 149.281 182.125 149.281 182.239 149.507C182.201 149.385 182.171 149.26 182.151 149.135C182.228 149.634 182.191 149.026 182.191 148.948C182.187 149.426 182.267 148.698 182.307 148.564C182.395 148.323 182.398 148.313 182.318 148.534C182.378 148.414 182.445 148.298 182.517 148.186L182.629 148.02C182.497 148.192 182.514 148.186 182.679 147.999C182.871 147.826 182.863 147.828 182.658 148.004C182.877 147.887 182.852 147.888 182.584 148.008C182.658 147.984 183.267 147.873 182.959 147.901C182.638 147.929 183.36 147.893 183.423 147.893C183.563 147.893 183.703 147.898 183.843 147.906C183.913 147.911 184.145 147.906 184.205 147.942C183.837 147.89 183.777 147.883 184.022 147.922C184.119 147.938 184.216 147.955 184.312 147.973C185.214 148.145 186.101 148.4 186.975 148.682C189.316 149.433 191.677 150.245 193.962 151.151C195.034 151.577 196.424 150.686 196.668 149.615C196.957 148.346 196.28 147.364 195.131 146.909L195.133 146.905Z" fill="#1A5E9D"/>
<path d="M202.126 130.545C205.843 132.769 206.3 137.395 205.617 141.341C204.699 146.649 202.734 151.988 200.289 156.772C199.003 159.288 202.798 161.517 204.089 158.992C206.976 153.345 209.387 146.95 210.132 140.62C210.768 135.214 209.214 129.657 204.347 126.745C201.912 125.287 199.696 129.091 202.126 130.545Z" fill="#1A5E9D"/>
<path d="M200.288 156.773C199.651 157.844 199.02 158.811 198.213 159.705C197.511 160.485 196.829 161.099 196.146 161.537C194.459 162.617 192.997 162.911 190.907 162.717C190.753 162.702 190.773 162.705 190.966 162.729C190.817 162.705 190.667 162.677 190.519 162.647C190.282 162.598 190.048 162.54 189.815 162.477C189.306 162.339 188.766 162.155 188.428 161.999C188.2 161.893 187.976 161.777 187.757 161.652C187.674 161.604 187.027 161.169 187.224 161.328C187.055 161.193 186.897 161.04 186.754 160.878C187.03 161.19 186.565 160.549 186.512 160.449C185.561 158.664 185.856 156.091 186.293 154.088C186.546 152.929 185.945 151.709 184.756 151.382C183.656 151.08 182.304 151.753 182.05 152.919C181.015 157.656 181.224 163.455 186.208 165.799C190.211 167.681 195.039 167.688 198.743 165.084C200.994 163.502 202.691 161.343 204.087 158.995C205.537 156.555 201.735 154.34 200.287 156.774L200.288 156.773Z" fill="#1A5E9D"/>
</g>
<defs>
<clipPath id="clip0_1171_87369">
<rect width="220" height="198" fill="white"/>
</clipPath>
</defs>
</svg>
