<svg width="768" height="1179" viewBox="0 0 768 1179" fill="none" xmlns="http://www.w3.org/2000/svg">
<g clip-path="url(#clip0_3002_1865)">
<path d="M1129.5 299.89C1129.5 465.515 795.728 557 384 557C-27.7285 557 -361.5 465.515 -361.5 299.89C-361.5 134.265 -27.7285 0 384 0C795.728 0 1129.5 134.265 1129.5 299.89Z" fill="#0066C5"/>
</g>
<rect y="43" width="768" height="1103" fill="#0066C5"/>
<path d="M384 1179L347 1146H421L384 1179Z" fill="#0066C5"/>
<mask id="mask0_3002_1865" style="mask-type:alpha" maskUnits="userSpaceOnUse" x="-362" y="0" width="1492" height="1179">
<path d="M1129.5 299.89C1129.5 465.515 795.728 557 384 557C-27.7285 557 -361.5 465.515 -361.5 299.89C-361.5 134.265 -27.7285 0 384 0C795.728 0 1129.5 134.265 1129.5 299.89Z" fill="#0066C5"/>
<rect y="43" width="768" height="1103" fill="#0066C5"/>
<path d="M384 1179L347 1146H421L384 1179Z" fill="#0066C5"/>
</mask>
<g mask="url(#mask0_3002_1865)">
<mask id="mask1_3002_1865" style="mask-type:alpha" maskUnits="userSpaceOnUse" x="-101" y="0" width="561" height="570">
<rect x="-100.031" width="560" height="570" fill="url(#paint0_linear_3002_1865)"/>
</mask>
<g mask="url(#mask1_3002_1865)">
<mask id="mask2_3002_1865" style="mask-type:alpha" maskUnits="userSpaceOnUse" x="239" y="203" width="727" height="675">
<rect x="239.609" y="203.665" width="726.35" height="673.471" fill="url(#paint1_linear_3002_1865)"/>
</mask>
<g mask="url(#mask2_3002_1865)">
<g opacity="0.15">
<path d="M482.33 611.901H544.221L575.161 555.29L544.221 498.693H482.33L451.391 555.29L482.33 611.901Z" fill="#19B5FF"/>
<path d="M452.117 555.29L482.708 611.264H543.844L574.435 555.29L543.844 499.33H482.708L452.117 555.29Z" stroke="white" stroke-opacity="0.3" stroke-width="1.2741"/>
</g>
<g opacity="0.15">
<path d="M482.33 611.901H544.221L575.161 555.29L544.221 498.694H482.33L451.391 555.29L482.33 611.901Z" fill="#63CEFF"/>
<path d="M452.117 555.29L482.708 611.264H543.844L574.435 555.29L543.844 499.331H482.708L452.117 555.29Z" stroke="white" stroke-opacity="0.3" stroke-width="1.2741"/>
<path d="M389.516 555.291H451.395L482.334 498.694L451.395 442.083H389.516L358.577 498.694L389.516 555.291Z" fill="#63CEFF"/>
<path d="M359.303 498.694L389.894 554.653H451.017L481.608 498.694L451.017 442.72H389.894L359.303 498.694Z" stroke="white" stroke-opacity="0.3" stroke-width="1.2741"/>
<path d="M389.516 442.083H451.395L482.334 385.486L451.395 328.876H389.516L358.577 385.486L389.516 442.083Z" fill="#63CEFF"/>
<path d="M359.303 385.486L389.894 441.446H451.017L481.608 385.486L451.017 329.513H389.894L359.303 385.486Z" stroke="white" stroke-opacity="0.3" stroke-width="1.2741"/>
<path d="M296.684 385.487H358.576L389.515 328.876L358.576 272.279H296.684L265.745 328.876L296.684 385.487Z" fill="#63CEFF"/>
<path d="M266.471 328.876L297.062 384.85H358.198L388.789 328.876L358.198 272.916H297.062L266.471 328.876Z" stroke="white" stroke-opacity="0.3" stroke-width="1.2741"/>
<path d="M389.516 328.876H451.395L482.334 272.279L451.395 215.669H389.516L358.577 272.279L389.516 328.876Z" fill="#63CEFF"/>
<path d="M359.303 272.279L389.894 328.239H451.017L481.608 272.279L451.017 216.306H389.894L359.303 272.279Z" stroke="white" stroke-opacity="0.3" stroke-width="1.2741"/>
</g>
<path d="M389.514 668.498H451.393L482.332 611.901L451.393 555.29H389.514L358.575 611.901L389.514 668.498Z" stroke="white" stroke-opacity="0.3" stroke-width="0.382231" stroke-miterlimit="10"/>
<path d="M482.332 611.901H544.223L575.162 555.29L544.223 498.693H482.332L451.393 555.29L482.332 611.901Z" stroke="white" stroke-opacity="0.3" stroke-width="0.382231" stroke-miterlimit="10"/>
<path d="M389.514 555.29H451.393L482.332 498.693L451.393 442.082H389.514L358.575 498.693L389.514 555.29Z" stroke="white" stroke-opacity="0.3" stroke-width="0.382231" stroke-miterlimit="10"/>
<path d="M482.332 498.694H544.223L575.162 442.083L544.223 385.487H482.332L451.393 442.083L482.332 498.694Z" stroke="white" stroke-opacity="0.3" stroke-width="0.382231" stroke-miterlimit="10"/>
</g>
<g opacity="0.15">
<path d="M13.7749 478.121H-43.5804L-72.2701 427.279L-43.5804 376.424H13.7749L42.4525 427.279L13.7749 478.121Z" fill="#19B5FF"/>
<path d="M41.7221 427.278L13.4033 477.485H-43.2089L-71.5396 427.279L-43.2089 377.06H13.4033L41.7221 427.278Z" stroke="white" stroke-opacity="0.3" stroke-width="1.27231"/>
<path d="M185.852 478.121H128.497L99.8072 427.279L128.497 376.424H185.852L214.53 427.279L185.852 478.121Z" fill="#19B5FF"/>
<path d="M213.799 427.278L185.481 477.485H128.868L100.538 427.279L128.868 377.06H185.48L213.799 427.278Z" stroke="white" stroke-opacity="0.3" stroke-width="1.27231"/>
<path d="M99.8086 325.582H42.4534L13.7758 274.727L42.4534 223.884H99.8086L128.498 274.727L99.8086 325.582Z" fill="#19B5FF"/>
<path d="M127.768 274.727L99.4371 324.945H42.825L14.5061 274.727L42.8249 224.52H99.4372L127.768 274.727Z" stroke="white" stroke-opacity="0.3" stroke-width="1.27231"/>
<path d="M271.898 325.582H214.531L185.853 274.727L214.531 223.884H271.898L300.576 274.727L271.898 325.582Z" fill="#19B5FF"/>
<path d="M299.845 274.727L271.526 324.945H214.902L186.583 274.727L214.902 224.52H271.526L299.845 274.727Z" stroke="white" stroke-opacity="0.3" stroke-width="1.27231"/>
<path d="M13.7749 274.726H-43.5804L-72.2701 223.884L-43.5804 173.029H13.7749L42.4525 223.884L13.7749 274.726Z" fill="#19B5FF"/>
<path d="M41.7221 223.883L13.4033 274.09H-43.2089L-71.5396 223.883L-43.2089 173.665H13.4033L41.7221 223.883Z" stroke="white" stroke-opacity="0.3" stroke-width="1.27231"/>
<path d="M185.852 274.726H128.497L99.807 223.884L128.497 173.029H185.852L214.53 223.884L185.852 274.726Z" fill="#19B5FF"/>
<path d="M213.799 223.883L185.48 274.09H128.868L100.537 223.883L128.868 173.665H185.48L213.799 223.883Z" stroke="white" stroke-opacity="0.3" stroke-width="1.27231"/>
<path d="M185.852 173.029H128.497L99.807 122.186L128.497 71.3314H185.852L214.53 122.186L185.852 173.029Z" fill="#19B5FF"/>
<path d="M213.799 122.186L185.48 172.393H128.868L100.537 122.186L128.868 71.9675H185.48L213.799 122.186Z" stroke="white" stroke-opacity="0.3" stroke-width="1.27231"/>
<path d="M271.898 122.186H214.531L185.853 71.3312L214.531 20.4886H271.898L300.576 71.3312L271.898 122.186Z" fill="#19B5FF"/>
<path d="M299.845 71.3312L271.526 121.55H214.902L186.583 71.3312L214.902 21.1248H271.526L299.845 71.3312Z" stroke="white" stroke-opacity="0.3" stroke-width="1.27231"/>
<path d="M13.7749 71.3315H-43.5804L-72.2701 20.489L-43.5804 -30.3658H13.7749L42.4525 20.489L13.7749 71.3315Z" fill="#19B5FF"/>
<path d="M41.7221 20.489L13.4033 70.6954H-43.2089L-71.5396 20.489L-43.2089 -29.7297H13.4033L41.7221 20.489Z" stroke="white" stroke-opacity="0.3" stroke-width="1.27231"/>
<path d="M185.852 71.3315H128.497L99.807 20.489L128.497 -30.3658H185.852L214.53 20.489L185.852 71.3315Z" fill="#19B5FF"/>
<path d="M213.799 20.489L185.48 70.6954H128.868L100.537 20.489L128.868 -29.7297H185.48L213.799 20.489Z" stroke="white" stroke-opacity="0.3" stroke-width="1.27231"/>
</g>
<g opacity="0.15">
<path d="M13.7655 274.726H-43.5898L-72.2795 223.884L-43.5898 173.029H13.7655L42.4431 223.884L13.7655 274.726Z" fill="#63CEFF"/>
<path d="M41.7127 223.883L13.3939 274.09H-43.2183L-71.549 223.883L-43.2183 173.665H13.3939L41.7127 223.883Z" stroke="white" stroke-opacity="0.3" stroke-width="1.27231"/>
<path d="M99.7995 223.884H42.4442L13.7666 173.029L42.4442 122.186H99.7995L128.489 173.029L99.7995 223.884Z" fill="#63CEFF"/>
<path d="M127.759 173.029L99.428 223.247H42.8158L14.497 173.029L42.8158 122.822H99.428L127.759 173.029Z" stroke="white" stroke-opacity="0.3" stroke-width="1.27231"/>
<path d="M185.845 274.726H128.49L99.7999 223.884L128.49 173.029H185.845L214.522 223.884L185.845 274.726Z" fill="#63CEFF"/>
<path d="M213.792 223.883L185.473 274.09H128.861L100.53 223.883L128.861 173.665H185.473L213.792 223.883Z" stroke="white" stroke-opacity="0.3" stroke-width="1.27231"/>
<path d="M357.922 274.726H300.567L271.889 223.884L300.567 173.029H357.922L386.599 223.884L357.922 274.726Z" fill="#63CEFF"/>
<path d="M385.869 223.883L357.55 274.09H300.938L272.619 223.883L300.938 173.665H357.55L385.869 223.883Z" stroke="white" stroke-opacity="0.3" stroke-width="1.27231"/>
<path d="M13.7655 173.029H-43.5898L-72.2795 122.186L-43.5898 71.3311H13.7655L42.4431 122.186L13.7655 173.029Z" fill="#63CEFF"/>
<path d="M41.7127 122.186L13.3939 172.392H-43.2183L-71.549 122.186L-43.2183 71.9673H13.3939L41.7127 122.186Z" stroke="white" stroke-opacity="0.3" stroke-width="1.27231"/>
<path d="M271.891 122.186H214.523L185.846 71.3314L214.523 20.4888H271.891L300.568 71.3314L271.891 122.186Z" fill="#63CEFF"/>
<path d="M299.838 71.3314L271.519 121.55H214.895L186.576 71.3314L214.895 21.125H271.519L299.838 71.3314Z" stroke="white" stroke-opacity="0.3" stroke-width="1.27231"/>
<path d="M185.845 71.3313H128.49L99.7999 20.4888L128.49 -30.3661H185.845L214.522 20.4888L185.845 71.3313Z" fill="#63CEFF"/>
<path d="M213.792 20.4887L185.473 70.6951H128.861L100.53 20.4887L128.861 -29.7299H185.473L213.792 20.4887Z" stroke="white" stroke-opacity="0.3" stroke-width="1.27231"/>
<path d="M357.922 71.3313H300.567L271.889 20.4888L300.567 -30.3661H357.922L386.599 20.4888L357.922 71.3313Z" fill="#63CEFF"/>
<path d="M385.869 20.4887L357.55 70.6951H300.938L272.619 20.4887L300.938 -29.7299H357.55L385.869 20.4887Z" stroke="white" stroke-opacity="0.3" stroke-width="1.27231"/>
</g>
<path d="M13.7711 376.424H-43.5841L-72.2738 325.581L-43.5841 274.726H13.7711L42.4487 325.581L13.7711 376.424Z" stroke="white" stroke-opacity="0.3" stroke-width="0.381693" stroke-miterlimit="10"/>
<path d="M271.895 427.279H214.527L185.85 376.424L214.527 325.581H271.895L300.572 376.424L271.895 427.279Z" stroke="white" stroke-opacity="0.3" stroke-width="0.381693" stroke-miterlimit="10"/>
<path d="M357.928 376.424H300.572L271.895 325.581L300.572 274.726H357.928L386.605 325.581L357.928 376.424Z" stroke="white" stroke-opacity="0.3" stroke-width="0.381693" stroke-miterlimit="10"/>
<path d="M13.7711 274.726H-43.5841L-72.2738 223.883L-43.5841 173.028H13.7711L42.4487 223.883L13.7711 274.726Z" stroke="white" stroke-opacity="0.3" stroke-width="0.381693" stroke-miterlimit="10"/>
<path d="M99.8049 325.582H42.4496L13.772 274.727L42.4496 223.884H99.8049L128.495 274.727L99.8049 325.582Z" stroke="white" stroke-opacity="0.3" stroke-width="0.381693" stroke-miterlimit="10"/>
<path d="M185.85 274.726H128.495L99.8053 223.883L128.495 173.028H185.85L214.528 223.883L185.85 274.726Z" stroke="white" stroke-opacity="0.3" stroke-width="0.381693" stroke-miterlimit="10"/>
<path d="M271.894 325.581H214.527L185.849 274.726L214.527 223.884H271.894L300.572 274.726L271.894 325.581Z" stroke="white" stroke-opacity="0.3" stroke-width="0.381693" stroke-miterlimit="10"/>
<path d="M357.928 274.726H300.572L271.895 223.884L300.572 173.029H357.928L386.605 223.884L357.928 274.726Z" stroke="white" stroke-opacity="0.3" stroke-width="0.381693" stroke-miterlimit="10"/>
<path d="M13.7711 173.029H-43.5841L-72.2738 122.186L-43.5841 71.3314H13.7711L42.4487 122.186L13.7711 173.029Z" stroke="white" stroke-opacity="0.3" stroke-width="0.381693" stroke-miterlimit="10"/>
<path d="M99.8049 223.884H42.4496L13.772 173.029L42.4496 122.186H99.8049L128.495 173.029L99.8049 223.884Z" stroke="white" stroke-opacity="0.3" stroke-width="0.381693" stroke-miterlimit="10"/>
<path d="M185.85 173.029H128.495L99.8053 122.186L128.495 71.3314H185.85L214.528 122.186L185.85 173.029Z" stroke="white" stroke-opacity="0.3" stroke-width="0.381693" stroke-miterlimit="10"/>
<path d="M271.894 223.884H214.527L185.849 173.029L214.527 122.186H271.894L300.572 173.029L271.894 223.884Z" stroke="white" stroke-opacity="0.3" stroke-width="0.381693" stroke-miterlimit="10"/>
<path d="M357.928 173.029H300.572L271.895 122.186L300.572 71.3314H357.928L386.605 122.186L357.928 173.029Z" stroke="white" stroke-opacity="0.3" stroke-width="0.381693" stroke-miterlimit="10"/>
<path d="M13.7711 71.3318H-43.5841L-72.2738 20.4892L-43.5841 -30.3656H13.7711L42.4487 20.4892L13.7711 71.3318Z" stroke="white" stroke-opacity="0.3" stroke-width="0.381693" stroke-miterlimit="10"/>
<path d="M99.8049 122.186H42.4496L13.772 71.3311L42.4496 20.4886H99.8049L128.495 71.3311L99.8049 122.186Z" stroke="white" stroke-opacity="0.3" stroke-width="0.381693" stroke-miterlimit="10"/>
<path d="M185.85 71.3318H128.495L99.8053 20.4892L128.495 -30.3656H185.85L214.528 20.4892L185.85 71.3318Z" stroke="white" stroke-opacity="0.3" stroke-width="0.381693" stroke-miterlimit="10"/>
<path d="M271.894 122.186H214.527L185.849 71.3311L214.527 20.4886H271.894L300.572 71.3311L271.894 122.186Z" stroke="white" stroke-opacity="0.3" stroke-width="0.381693" stroke-miterlimit="10"/>
<path d="M357.928 71.3315H300.572L271.895 20.489L300.572 -30.3658H357.928L386.605 20.489L357.928 71.3315Z" stroke="white" stroke-opacity="0.3" stroke-width="0.381693" stroke-miterlimit="10"/>
<path d="M99.8049 20.489H42.4496L13.772 -30.3658L42.4496 -81.2084H99.8049L128.495 -30.3658L99.8049 20.489Z" stroke="white" stroke-opacity="0.3" stroke-width="0.381693" stroke-miterlimit="10"/>
<path d="M271.894 20.489H214.527L185.849 -30.3658L214.527 -81.2084H271.894L300.572 -30.3658L271.894 20.489Z" stroke="white" stroke-opacity="0.3" stroke-width="0.381693" stroke-miterlimit="10"/>
</g>
<mask id="mask3_3002_1865" style="mask-type:alpha" maskUnits="userSpaceOnUse" x="308" y="563" width="799" height="674">
<rect x="308" y="563" width="799" height="674" fill="url(#paint2_linear_3002_1865)"/>
</mask>
<g mask="url(#mask3_3002_1865)">
<g opacity="0.15">
<path d="M771.662 1266.08H835.323L867.153 1209.42L835.323 1152.78H771.662L739.819 1209.42L771.662 1266.08Z" fill="#19B5FF"/>
<path d="M740.55 1209.42L772.035 1265.44H834.95L866.422 1209.42L834.95 1153.42H772.035L740.55 1209.42Z" stroke="white" stroke-opacity="0.3" stroke-width="1.2741"/>
<path d="M580.657 1266.08H644.331L676.161 1209.42L644.331 1152.78H580.657L548.827 1209.42L580.657 1266.08Z" fill="#19B5FF"/>
<path d="M549.557 1209.42L581.03 1265.44H643.958L675.43 1209.42L643.958 1153.42H581.03L549.557 1209.42Z" stroke="white" stroke-opacity="0.3" stroke-width="1.2741"/>
<path d="M676.161 1209.42H739.822L771.665 1152.78L739.822 1096.13H676.161L644.331 1152.78L676.161 1209.42Z" fill="#19B5FF"/>
<path d="M645.062 1152.78L676.534 1208.78H739.449L770.934 1152.78L739.449 1096.76H676.534L645.062 1152.78Z" stroke="white" stroke-opacity="0.3" stroke-width="1.2741"/>
<path d="M676.161 1096.12H739.822L771.665 1039.48L739.822 982.829H676.161L644.331 1039.48L676.161 1096.12Z" fill="#19B5FF"/>
<path d="M645.062 1039.48L676.534 1095.49H739.449L770.934 1039.48L739.449 983.466H676.534L645.062 1039.48Z" stroke="white" stroke-opacity="0.3" stroke-width="1.2741"/>
<path d="M580.657 1039.48H644.331L676.161 982.829L644.331 926.187H580.657L548.827 982.829L580.657 1039.48Z" fill="#19B5FF"/>
<path d="M549.557 982.829L581.03 1038.85H643.958L675.43 982.829L643.958 926.825H581.03L549.557 982.829Z" stroke="white" stroke-opacity="0.3" stroke-width="1.2741"/>
<path d="M676.161 982.829H739.822L771.665 926.188L739.822 869.533H676.161L644.331 926.188L676.161 982.829Z" fill="#19B5FF"/>
<path d="M645.062 926.188L676.534 982.192H739.449L770.934 926.188L739.449 870.17H676.534L645.062 926.188Z" stroke="white" stroke-opacity="0.3" stroke-width="1.2741"/>
</g>
<g opacity="0.15">
<path d="M771.666 1152.78H835.326L867.157 1096.13L835.326 1039.48H771.666L739.823 1096.13L771.666 1152.78Z" fill="#63CEFF"/>
<path d="M740.553 1096.13L772.039 1152.14H834.954L866.426 1096.13L834.954 1040.12H772.039L740.553 1096.13Z" stroke="white" stroke-opacity="0.3" stroke-width="1.2741"/>
<path d="M676.16 1209.42H739.821L771.664 1152.78L739.821 1096.13H676.16L644.33 1152.78L676.16 1209.42Z" fill="#63CEFF"/>
<path d="M645.061 1152.78L676.533 1208.78H739.448L770.933 1152.78L739.448 1096.76H676.533L645.061 1152.78Z" stroke="white" stroke-opacity="0.3" stroke-width="1.2741"/>
<path d="M485.17 1209.42H548.83L580.66 1152.78L548.83 1096.13H485.17L453.339 1152.78L485.17 1209.42Z" fill="#63CEFF"/>
<path d="M454.07 1152.78L485.542 1208.78H548.457L579.929 1152.78L548.457 1096.76H485.542L454.07 1152.78Z" stroke="white" stroke-opacity="0.3" stroke-width="1.2741"/>
<path d="M580.657 1039.48H644.331L676.161 982.829L644.331 926.188H580.657L548.827 982.829L580.657 1039.48Z" fill="#63CEFF"/>
<path d="M549.557 982.829L581.03 1038.85H643.958L675.43 982.829L643.958 926.825H581.03L549.557 982.829Z" stroke="white" stroke-opacity="0.3" stroke-width="1.2741"/>
<path d="M676.16 982.829H739.821L771.664 926.188L739.821 869.533H676.16L644.33 926.188L676.16 982.829Z" fill="#63CEFF"/>
<path d="M645.061 926.188L676.533 982.192H739.448L770.933 926.188L739.448 870.17H676.533L645.061 926.188Z" stroke="white" stroke-opacity="0.3" stroke-width="1.2741"/>
<path d="M485.17 982.829H548.83L580.66 926.188L548.83 869.533H485.17L453.339 926.188L485.17 982.829Z" fill="#63CEFF"/>
<path d="M454.07 926.188L485.542 982.192H548.457L579.929 926.188L548.457 870.17H485.542L454.07 926.188Z" stroke="white" stroke-opacity="0.3" stroke-width="1.2741"/>
<path d="M771.666 812.892H835.326L867.157 756.237L835.326 699.596H771.666L739.823 756.237L771.666 812.892Z" fill="#63CEFF"/>
<path d="M740.553 756.237L772.039 812.255H834.954L866.426 756.237L834.954 700.233H772.039L740.553 756.237Z" stroke="white" stroke-opacity="0.3" stroke-width="1.2741"/>
<path d="M485.17 869.533H548.83L580.66 812.891L548.83 756.237H485.17L453.339 812.891L485.17 869.533Z" fill="#63CEFF"/>
<path d="M454.07 812.891L485.542 868.896H548.457L579.929 812.891L548.457 756.874H485.542L454.07 812.891Z" stroke="white" stroke-opacity="0.3" stroke-width="1.2741"/>
<path d="M389.664 812.892H453.338L485.168 756.237L453.338 699.596H389.664L357.834 756.237L389.664 812.892Z" fill="#63CEFF"/>
<path d="M358.565 756.237L390.037 812.255H452.965L484.437 756.237L452.965 700.233H390.037L358.565 756.237Z" stroke="white" stroke-opacity="0.3" stroke-width="1.2741"/>
<path d="M676.16 756.237H739.821L771.664 699.596L739.821 642.941H676.16L644.33 699.596L676.16 756.237Z" fill="#63CEFF"/>
<path d="M645.061 699.596L676.533 755.6H739.448L770.933 699.596L739.448 643.578H676.533L645.061 699.596Z" stroke="white" stroke-opacity="0.3" stroke-width="1.2741"/>
<path d="M485.17 756.237H548.83L580.66 699.596L548.83 642.941H485.17L453.339 699.596L485.17 756.237Z" fill="#63CEFF"/>
<path d="M454.07 699.596L485.542 755.6H548.457L579.929 699.596L548.457 643.578H485.542L454.07 699.596Z" stroke="white" stroke-opacity="0.3" stroke-width="1.2741"/>
</g>
<path d="M771.666 1266.08H835.327L867.157 1209.42L835.327 1152.78H771.666L739.823 1209.42L771.666 1266.08Z" stroke="white" stroke-opacity="0.3" stroke-width="0.382231" stroke-miterlimit="10"/>
<path d="M676.16 1209.42H739.821L771.664 1152.78L739.821 1096.12H676.16L644.33 1152.78L676.16 1209.42Z" stroke="white" stroke-opacity="0.3" stroke-width="0.382231" stroke-miterlimit="10"/>
<path d="M580.658 1266.08H644.331L676.161 1209.42L644.331 1152.78H580.658L548.827 1209.42L580.658 1266.08Z" stroke="white" stroke-opacity="0.3" stroke-width="0.382231" stroke-miterlimit="10"/>
<path d="M485.168 1209.42H548.828L580.658 1152.78L548.828 1096.12H485.168L453.338 1152.78L485.168 1209.42Z" stroke="white" stroke-opacity="0.3" stroke-width="0.382231" stroke-miterlimit="10"/>
<path d="M771.666 1152.78H835.327L867.157 1096.12L835.327 1039.48H771.666L739.823 1096.12L771.666 1152.78Z" stroke="white" stroke-opacity="0.3" stroke-width="0.382231" stroke-miterlimit="10"/>
<path d="M676.16 1096.12H739.821L771.664 1039.48L739.821 982.829H676.16L644.33 1039.48L676.16 1096.12Z" stroke="white" stroke-opacity="0.3" stroke-width="0.382231" stroke-miterlimit="10"/>
<path d="M580.658 1152.78H644.331L676.161 1096.12L644.331 1039.48H580.658L548.827 1096.12L580.658 1152.78Z" stroke="white" stroke-opacity="0.3" stroke-width="0.382231" stroke-miterlimit="10"/>
<path d="M485.168 1096.12H548.828L580.658 1039.48L548.828 982.829H485.168L453.338 1039.48L485.168 1096.12Z" stroke="white" stroke-opacity="0.3" stroke-width="0.382231" stroke-miterlimit="10"/>
<path d="M771.666 1039.48H835.327L867.157 982.828L835.327 926.187H771.666L739.823 982.828L771.666 1039.48Z" stroke="white" stroke-opacity="0.3" stroke-width="0.382231" stroke-miterlimit="10"/>
<path d="M676.16 982.828H739.821L771.664 926.187L739.821 869.532H676.16L644.33 926.187L676.16 982.828Z" stroke="white" stroke-opacity="0.3" stroke-width="0.382231" stroke-miterlimit="10"/>
<path d="M580.658 1039.48H644.331L676.161 982.828L644.331 926.187H580.658L548.827 982.828L580.658 1039.48Z" stroke="white" stroke-opacity="0.3" stroke-width="0.382231" stroke-miterlimit="10"/>
<path d="M485.168 982.828H548.828L580.658 926.187L548.828 869.532H485.168L453.338 926.187L485.168 982.828Z" stroke="white" stroke-opacity="0.3" stroke-width="0.382231" stroke-miterlimit="10"/>
<path d="M771.666 926.188H835.327L867.157 869.533L835.327 812.891H771.666L739.823 869.533L771.666 926.188Z" stroke="white" stroke-opacity="0.3" stroke-width="0.382231" stroke-miterlimit="10"/>
<path d="M580.658 926.188H644.331L676.161 869.533L644.331 812.891H580.658L548.827 869.533L580.658 926.188Z" stroke="white" stroke-opacity="0.3" stroke-width="0.382231" stroke-miterlimit="10"/>
</g>
</g>
<defs>
<linearGradient id="paint0_linear_3002_1865" x1="386.954" y1="535.768" x2="-195.129" y2="68.2466" gradientUnits="userSpaceOnUse">
<stop stop-color="#BCBDEF" stop-opacity="0"/>
<stop offset="1"/>
</linearGradient>
<linearGradient id="paint1_linear_3002_1865" x1="871.256" y1="836.69" x2="351.304" y2="377.926" gradientUnits="userSpaceOnUse">
<stop/>
<stop offset="1" stop-color="#BCBDEF" stop-opacity="0"/>
</linearGradient>
<linearGradient id="paint2_linear_3002_1865" x1="1002.82" y1="1196.52" x2="478.627" y2="688.151" gradientUnits="userSpaceOnUse">
<stop/>
<stop offset="1" stop-color="#BCBDEF" stop-opacity="0"/>
</linearGradient>
<clipPath id="clip0_3002_1865">
<rect width="768" height="43" fill="white"/>
</clipPath>
</defs>
</svg>
