<svg width="564" height="104" viewBox="0 0 564 104" fill="none" xmlns="http://www.w3.org/2000/svg">
<path d="M87.5804 82.0538C239.103 82.0538 373.273 82.0538 521.961 82.0538C544.067 82.0538 562 64.1332 562 42.027V42.027C562 19.9207 544.079 2.00012 521.973 2.00012H42.0268C19.9206 2.00012 2 19.9207 2 42.0269V43.1657C2 64.643 19.4072 82.0538 40.8844 82.0538C46.7343 82.0538 52.8113 82.0538 58.7841 82.0538C59.7743 82.0538 60.7049 82.5205 61.2983 83.3132V83.3132L75.2509 102" stroke="white" stroke-width="2.69646" stroke-linecap="round"/>
<path d="M74.692 41.0061C74.692 49.4041 72.652 54.5381 64.424 58.1761L60.786 54.7421C67.382 52.4641 70.238 49.5061 70.238 41.1421V32.0981C70.238 30.7381 70.17 29.6161 70.034 28.9701H74.896C74.828 29.6501 74.692 30.7381 74.692 32.0981V41.0061ZM62.384 29.2421C62.316 29.8881 62.18 30.9761 62.18 32.3361V44.4741C62.18 46.0041 62.282 47.3981 62.35 48.0441H57.59C57.658 47.3981 57.76 46.0041 57.76 44.4741V32.3021C57.76 31.3501 57.692 30.2961 57.556 29.2421H62.384ZM51.198 35.3621C51.81 35.4641 53.204 35.7021 54.87 35.7021H77.174C78.976 35.7021 79.996 35.6001 80.948 35.4641V39.9861C80.2 39.8841 78.976 39.8841 77.208 39.8841H54.87C53.17 39.8841 51.98 39.9521 51.198 39.9861V35.3621ZM112.602 31.0781C112.602 32.1661 113.486 33.0501 114.574 33.0501C115.662 33.0501 116.546 32.1661 116.546 31.0781C116.546 29.9901 115.662 29.1061 114.574 29.1061C113.486 29.1061 112.602 29.9901 112.602 31.0781ZM110.494 31.0781C110.494 28.8341 112.33 26.9981 114.574 26.9981C116.818 26.9981 118.654 28.8341 118.654 31.0781C118.654 33.3221 116.818 35.1581 114.574 35.1581C112.33 35.1581 110.494 33.3221 110.494 31.0781ZM114.642 33.7641C114.302 34.4101 114.064 35.3961 113.894 36.1101C113.112 39.4421 111.616 44.7461 108.76 48.5201C105.7 52.6001 101.178 55.9661 95.092 57.9041L91.386 53.8241C98.152 52.2601 101.994 49.3021 104.714 45.8681C106.992 43.0461 108.284 39.1701 108.726 36.2461C106.652 36.2461 95.432 36.2461 92.882 36.2461C91.318 36.2461 89.72 36.3481 88.836 36.4161V31.5881C89.856 31.7241 91.76 31.8941 92.882 31.8941C95.432 31.8941 106.72 31.8941 108.624 31.8941C109.304 31.8941 110.392 31.8601 111.276 31.6221L114.642 33.7641ZM148.608 29.6161C148.54 30.5681 148.506 31.6561 148.506 33.0501C148.506 34.7841 148.506 38.0821 148.506 39.7481C148.506 47.0921 147.078 50.2201 144.528 53.0081C142.284 55.4901 138.782 57.1221 136.3 57.9381L132.73 54.1641C136.13 53.3821 138.85 52.0901 140.924 49.8801C143.236 47.3301 143.712 44.7801 143.712 39.4761C143.712 37.7761 143.712 34.5121 143.712 33.0501C143.712 31.6561 143.61 30.5681 143.474 29.6161H148.608ZM132.866 29.9221C132.798 30.7041 132.73 31.4521 132.73 32.5061C132.73 34.0021 132.73 42.0941 132.73 43.9981C132.73 44.8481 132.798 46.1741 132.866 46.9561H127.902C127.97 46.3441 128.072 45.0181 128.072 43.9641C128.072 42.0261 128.072 34.0021 128.072 32.5061C128.072 31.8941 128.038 30.7041 127.936 29.9221H132.866ZM186.042 31.0101C185.566 31.7921 184.92 33.2881 184.614 34.1041C183.322 37.4701 181.248 41.9581 178.426 45.6301C175.264 49.7101 171.082 54.0961 164.486 57.7341L160.712 54.2661C166.9 51.3081 171.15 47.5341 174.754 42.8421C177.44 39.3061 178.97 35.8041 180.16 32.4041C180.466 31.5201 180.806 30.1261 180.976 29.2761L186.042 31.0101ZM167.342 34.3081C170.708 36.4161 175.366 39.6461 178.222 41.8901C181.86 44.7121 185.43 47.9081 188.184 50.8321L184.682 54.7421C181.724 51.2741 178.732 48.4861 175.128 45.4941C172.68 43.4541 168.702 40.3941 164.418 37.7761L167.342 34.3081ZM201.614 30.1601C203.96 31.7581 208.38 35.2941 210.386 37.3681L206.918 40.9041C205.15 39.0001 200.866 35.2941 198.384 33.5941L201.614 30.1601ZM197.33 52.8041C202.668 52.0561 207.054 50.3221 210.352 48.3841C216.166 44.9161 220.586 39.7481 222.762 35.1581L225.38 39.9181C222.83 44.5421 218.308 49.2341 212.834 52.5321C209.366 54.6061 204.98 56.4761 200.22 57.2921L197.33 52.8041ZM240.102 52.7701C240.102 50.1521 240.102 36.0761 240.102 33.2201C240.102 31.9961 240 30.3301 239.762 29.1061H245.066C244.93 30.3301 244.76 31.7921 244.76 33.2201C244.76 36.9601 244.794 50.2541 244.794 52.7701C244.794 53.7221 244.93 56.1021 245.1 57.4961H239.762C240 56.1701 240.102 54.0961 240.102 52.7701ZM243.774 37.9121C248.296 39.1701 255.64 41.8561 258.972 43.4881L257.068 48.2141C253.192 46.2081 247.48 44.0321 243.774 42.8081V37.9121ZM283.384 34.3761C282.194 33.1521 279.848 30.8741 278.522 29.8541L281.65 27.6781C282.84 28.6301 285.39 30.8061 286.58 32.0641L283.384 34.3761ZM274.136 30.7381C274.408 31.3841 275.088 32.7781 275.462 33.4241C276.856 36.0421 278.386 39.4081 279.61 42.2641C281.208 45.9701 283.86 53.2121 284.982 57.0541L280.29 58.2441C279.236 53.9601 277.468 48.2141 275.734 44.1341C274.374 40.9721 273.116 37.8781 271.722 35.4301C271.212 34.6141 270.396 33.3221 269.716 32.4721L274.136 30.7381ZM266.792 40.7001C268.118 40.3941 269.58 39.8501 270.158 39.6121C276.346 37.1981 283.316 33.2201 288.79 33.2201C294.026 33.2201 297.222 36.4161 297.222 40.3601C297.222 45.1201 293.958 48.1121 288.756 48.1121C286.886 48.1121 284.778 47.6361 283.486 47.1601L283.622 42.9101C285.152 43.5561 286.852 44.0321 288.314 44.0321C290.864 44.0321 292.734 42.6381 292.734 40.1901C292.734 38.4901 291.238 37.0621 288.688 37.0621C283.18 37.0621 272.98 43.1481 268.764 45.0521L266.792 40.7001ZM317.758 28.0181H321.906V52.4981C321.906 54.5381 322.144 54.8781 323.81 54.8781C324.558 54.8781 327.958 54.8781 328.774 54.8781C330.44 54.8781 330.712 53.6881 330.95 48.8941C331.936 49.6081 333.602 50.3561 334.758 50.5941C334.248 56.4761 333.16 58.6521 329.148 58.6521C328.162 58.6521 324.218 58.6521 323.3 58.6521C319.016 58.6521 317.758 57.2921 317.758 52.4641V28.0181ZM330.508 33.6961L333.5 37.2661C329.658 39.9861 324.796 42.5361 320.376 44.6101C320.104 43.6581 319.322 42.2301 318.744 41.3461C322.96 39.3401 327.482 36.2801 330.508 33.6961ZM311.196 27.5761L315.208 28.9361C312.658 34.9881 308.476 41.2781 304.192 45.2221C303.784 44.1681 302.594 41.9241 301.846 40.9041C305.518 37.7421 309.088 32.7101 311.196 27.5761ZM307.592 37.1641L311.604 33.1521L311.672 33.2201V58.9921H307.592V37.1641ZM361.074 36.0421H364.916V56.0001H361.074V36.0421ZM359.442 27.1681H363.556V33.0161H359.442V27.1681ZM357.266 42.2641H369.472V45.9701H357.266V42.2641ZM354.818 31.5201H370.458V35.2941H354.818V31.5201ZM355.464 54.1301H370.526V57.8361H355.464V54.1301ZM352.71 31.5201H356.552V41.1421C356.552 46.4461 355.906 54.3001 352.2 59.1281C351.588 58.3461 349.99 56.9521 349.14 56.4761C352.404 52.1581 352.71 45.8001 352.71 41.1081V31.5201ZM343.632 27.1001H347.406V59.0261H343.632V27.1001ZM338.838 38.7281H351.588V42.5361H338.838V38.7281ZM343.394 40.5641L345.978 41.6181C344.822 46.2081 342.714 52.0561 340.232 55.2521C339.824 53.9941 338.906 52.1921 338.26 51.0701C340.368 48.5201 342.476 43.9981 343.394 40.5641ZM347.066 42.9441C348.052 43.7941 351.35 47.4321 352.064 48.2821L349.616 51.5801C348.664 49.7441 346.284 46.3101 345.094 44.7801L347.066 42.9441ZM338.804 30.0581L341.626 29.3441C342.544 31.7581 343.19 34.8861 343.326 36.9601L340.266 37.7761C340.232 35.6681 339.586 32.4721 338.804 30.0581ZM349.072 29.1061L352.608 29.8881C351.724 32.5741 350.67 35.7021 349.82 37.6401L347.168 36.9261C347.882 34.8181 348.698 31.4861 349.072 29.1061ZM384.602 32.3701V36.9601H396.57V32.3701H384.602ZM380.658 28.4941H400.752V40.8361H380.658V28.4941ZM376 43.6921H388.988V58.8561H384.908V47.5681H379.842V59.0601H376V43.6921ZM391.878 43.6921H405.342V58.8901H401.228V47.5681H395.788V59.0601H391.878V43.6921ZM377.7 53.4501H386.608V57.3601H377.7V53.4501ZM393.748 53.4501H403.268V57.3601H393.748V53.4501ZM412.584 32.8461H438.186V36.8241H416.63V59.0261H412.584V32.8461ZM436.724 32.8461H440.838V54.3341C440.838 56.5441 440.362 57.7001 438.934 58.3461C437.472 58.9921 435.296 59.0941 432.236 59.0941C432.066 57.9381 431.454 56.0341 430.876 54.9461C432.882 55.0821 435.194 55.0821 435.874 55.0481C436.52 55.0481 436.724 54.8781 436.724 54.2661V32.8461ZM423.77 27.1341L429.006 27.8821C427.816 30.6021 426.354 33.3901 425.266 35.2601L421.322 34.3761C422.274 32.3021 423.294 29.3441 423.77 27.1341ZM419.962 40.1221H423.668V54.1641H419.962V40.1221ZM421.56 40.1221H433.324V51.7841H421.56V48.2141H429.55V43.6921H421.56V40.1221ZM472.152 28.9701C472.016 29.7181 471.982 30.5341 471.982 31.3161C471.914 32.8801 471.982 39.3061 471.982 41.3121C471.982 49.3021 471.37 54.2661 464.604 58.5501L460.66 55.4901C461.986 54.9121 463.686 53.8241 464.638 52.7701C467.222 50.0501 467.8 46.9901 467.8 41.2781C467.8 38.7281 467.732 33.2201 467.562 31.3161C467.494 30.5001 467.324 29.5141 467.188 28.9701H472.152ZM458.722 35.6341C460.388 35.8721 462.054 35.9741 463.89 35.9741C468.276 35.9741 473.716 35.6681 477.048 35.0561V39.4761C473.818 39.8501 468.582 40.1221 463.992 40.1221C462.496 40.1221 460.422 40.0201 458.722 39.9181V35.6341ZM455.22 29.5481C454.948 30.3981 454.608 31.6221 454.438 32.3361C453.588 36.1101 452.364 43.2501 453.282 47.4661C453.724 46.4121 454.37 44.7461 454.914 43.5221L457.056 44.8821C456.036 47.8061 455.152 51.2061 454.744 53.1441C454.608 53.6881 454.506 54.4361 454.54 54.8101C454.54 55.1841 454.574 55.7621 454.608 56.2381L450.8 56.6121C450.052 54.5381 448.862 49.8121 448.862 45.5961C448.862 40.0201 449.542 34.7841 449.984 31.9961C450.12 31.0781 450.154 29.9221 450.188 29.0721L455.22 29.5481ZM501.834 32.7101C501.358 36.1781 500.678 40.1561 499.488 44.1681C497.448 51.0361 494.524 55.2521 490.818 55.2521C487.01 55.2521 483.882 51.0701 483.882 45.3241C483.882 37.5041 490.716 30.7721 499.522 30.7721C507.92 30.7721 513.258 36.6201 513.258 44.0661C513.258 51.2061 508.872 56.2721 500.304 57.5981L497.72 53.5861C499.046 53.4161 499.998 53.2461 500.916 53.0421C505.234 51.9881 508.634 48.8941 508.634 43.8961C508.634 38.5581 505.302 34.7501 499.42 34.7501C492.212 34.7501 488.268 40.6321 488.268 44.9161C488.268 48.3501 489.628 50.0161 490.92 50.0161C492.382 50.0161 493.674 47.8401 495.102 43.2501C496.088 40.0541 496.836 36.1441 497.176 32.5741L501.834 32.7101Z" fill="white"/>
</svg>
