<svg width="460" height="570" viewBox="0 0 460 570" fill="none" xmlns="http://www.w3.org/2000/svg">
<g clip-path="url(#clip0_1171_87466)">
<mask id="mask0_1171_87466" style="mask-type:alpha" maskUnits="userSpaceOnUse" x="0" y="-13" width="799" height="674">
<rect y="-13" width="799" height="674" fill="url(#paint0_linear_1171_87466)"/>
</mask>
<g mask="url(#mask0_1171_87466)">
<g opacity="0.15">
<path d="M368.161 633.422H431.822L463.665 576.78L431.822 520.125H368.161L336.331 576.78L368.161 633.422Z" fill="#19B5FF"/>
<path d="M337.062 576.78L368.534 632.785H431.449L462.934 576.78L431.449 520.763H368.534L337.062 576.78Z" stroke="white" stroke-opacity="0.3" stroke-width="1.2741"/>
<path d="M368.161 520.125H431.822L463.665 463.484L431.822 406.829H368.161L336.331 463.484L368.161 520.125Z" fill="#19B5FF"/>
<path d="M337.062 463.484L368.534 519.488H431.449L462.934 463.484L431.449 407.466H368.534L337.062 463.484Z" stroke="white" stroke-opacity="0.3" stroke-width="1.2741"/>
<path d="M272.657 463.484H336.33L368.161 406.829L336.33 350.188H272.657L240.827 406.829L272.657 463.484Z" fill="#19B5FF"/>
<path d="M241.557 406.829L273.03 462.847H335.958L367.43 406.829L335.958 350.825H273.03L241.557 406.829Z" stroke="white" stroke-opacity="0.3" stroke-width="1.2741"/>
<path d="M368.161 406.829H431.822L463.665 350.188L431.822 293.533H368.161L336.331 350.188L368.161 406.829Z" fill="#19B5FF"/>
<path d="M337.062 350.188L368.534 406.192H431.449L462.934 350.188L431.449 294.17H368.534L337.062 350.188Z" stroke="white" stroke-opacity="0.3" stroke-width="1.2741"/>
</g>
<g opacity="0.15">
<path d="M463.666 576.781H527.326L559.157 520.126L527.326 463.484H463.666L431.823 520.126L463.666 576.781Z" fill="#63CEFF"/>
<path d="M432.553 520.126L464.039 576.143H526.954L558.426 520.126L526.954 464.121H464.039L432.553 520.126Z" stroke="white" stroke-opacity="0.3" stroke-width="1.2741"/>
<path d="M368.16 633.422H431.821L463.664 576.78L431.821 520.125H368.16L336.33 576.78L368.16 633.422Z" fill="#63CEFF"/>
<path d="M337.061 576.78L368.533 632.785H431.448L462.933 576.78L431.448 520.763H368.533L337.061 576.78Z" stroke="white" stroke-opacity="0.3" stroke-width="1.2741"/>
<path d="M177.17 633.422H240.83L272.66 576.78L240.83 520.125H177.17L145.339 576.78L177.17 633.422Z" fill="#63CEFF"/>
<path d="M146.07 576.78L177.542 632.785H240.457L271.929 576.78L240.457 520.763H177.542L146.07 576.78Z" stroke="white" stroke-opacity="0.3" stroke-width="1.2741"/>
<path d="M272.657 463.484H336.33L368.161 406.829L336.33 350.188H272.657L240.827 406.829L272.657 463.484Z" fill="#63CEFF"/>
<path d="M241.557 406.829L273.03 462.847H335.958L367.43 406.829L335.958 350.825H273.03L241.557 406.829Z" stroke="white" stroke-opacity="0.3" stroke-width="1.2741"/>
<path d="M368.16 406.829H431.821L463.664 350.188L431.821 293.533H368.16L336.33 350.188L368.16 406.829Z" fill="#63CEFF"/>
<path d="M337.061 350.188L368.533 406.192H431.448L462.933 350.188L431.448 294.17H368.533L337.061 350.188Z" stroke="white" stroke-opacity="0.3" stroke-width="1.2741"/>
<path d="M177.17 406.829H240.83L272.66 350.188L240.83 293.533H177.17L145.339 350.188L177.17 406.829Z" fill="#63CEFF"/>
<path d="M146.07 350.188L177.542 406.192H240.457L271.929 350.188L240.457 294.17H177.542L146.07 350.188Z" stroke="white" stroke-opacity="0.3" stroke-width="1.2741"/>
<path d="M463.666 236.892H527.326L559.157 180.237L527.326 123.596H463.666L431.823 180.237L463.666 236.892Z" fill="#63CEFF"/>
<path d="M432.553 180.237L464.039 236.255H526.954L558.426 180.237L526.954 124.233H464.039L432.553 180.237Z" stroke="white" stroke-opacity="0.3" stroke-width="1.2741"/>
<path d="M177.17 293.533H240.83L272.66 236.892L240.83 180.237H177.17L145.339 236.892L177.17 293.533Z" fill="#63CEFF"/>
<path d="M146.07 236.892L177.542 292.896H240.457L271.929 236.892L240.457 180.874H177.542L146.07 236.892Z" stroke="white" stroke-opacity="0.3" stroke-width="1.2741"/>
<path d="M81.6641 236.892H145.338L177.168 180.237L145.338 123.596H81.6641L49.834 180.237L81.6641 236.892Z" fill="#63CEFF"/>
<path d="M50.5647 180.237L82.0369 236.255H144.965L176.437 180.237L144.965 124.233H82.0369L50.5647 180.237Z" stroke="white" stroke-opacity="0.3" stroke-width="1.2741"/>
<path d="M368.16 180.237H431.821L463.664 123.596L431.821 66.9409H368.16L336.33 123.596L368.16 180.237Z" fill="#63CEFF"/>
<path d="M337.061 123.596L368.533 179.6H431.448L462.933 123.596L431.448 67.578H368.533L337.061 123.596Z" stroke="white" stroke-opacity="0.3" stroke-width="1.2741"/>
<path d="M177.17 180.237H240.83L272.66 123.596L240.83 66.9409H177.17L145.339 123.596L177.17 180.237Z" fill="#63CEFF"/>
<path d="M146.07 123.596L177.542 179.6H240.457L271.929 123.596L240.457 67.578H177.542L146.07 123.596Z" stroke="white" stroke-opacity="0.3" stroke-width="1.2741"/>
</g>
<path d="M368.16 633.422H431.821L463.664 576.78L431.821 520.125H368.16L336.33 576.78L368.16 633.422Z" stroke="white" stroke-opacity="0.3" stroke-width="0.382231" stroke-miterlimit="10"/>
<path d="M177.168 633.422H240.828L272.658 576.78L240.828 520.125H177.168L145.338 576.78L177.168 633.422Z" stroke="white" stroke-opacity="0.3" stroke-width="0.382231" stroke-miterlimit="10"/>
<path d="M463.666 576.78H527.327L559.157 520.125L527.327 463.484H463.666L431.823 520.125L463.666 576.78Z" stroke="white" stroke-opacity="0.3" stroke-width="0.382231" stroke-miterlimit="10"/>
<path d="M368.16 520.125H431.821L463.664 463.484L431.821 406.829H368.16L336.33 463.484L368.16 520.125Z" stroke="white" stroke-opacity="0.3" stroke-width="0.382231" stroke-miterlimit="10"/>
<path d="M272.658 576.78H336.331L368.161 520.125L336.331 463.484H272.658L240.827 520.125L272.658 576.78Z" stroke="white" stroke-opacity="0.3" stroke-width="0.382231" stroke-miterlimit="10"/>
<path d="M177.168 520.125H240.828L272.658 463.484L240.828 406.829H177.168L145.338 463.484L177.168 520.125Z" stroke="white" stroke-opacity="0.3" stroke-width="0.382231" stroke-miterlimit="10"/>
<path d="M463.666 463.484H527.327L559.157 406.829L527.327 350.188H463.666L431.823 406.829L463.666 463.484Z" stroke="white" stroke-opacity="0.3" stroke-width="0.382231" stroke-miterlimit="10"/>
<path d="M368.16 406.829H431.821L463.664 350.188L431.821 293.533H368.16L336.33 350.188L368.16 406.829Z" stroke="white" stroke-opacity="0.3" stroke-width="0.382231" stroke-miterlimit="10"/>
<path d="M272.658 463.484H336.331L368.161 406.829L336.331 350.188H272.658L240.827 406.829L272.658 463.484Z" stroke="white" stroke-opacity="0.3" stroke-width="0.382231" stroke-miterlimit="10"/>
<path d="M177.168 406.829H240.828L272.658 350.188L240.828 293.533H177.168L145.338 350.188L177.168 406.829Z" stroke="white" stroke-opacity="0.3" stroke-width="0.382231" stroke-miterlimit="10"/>
<path d="M463.666 350.188H527.327L559.157 293.533L527.327 236.892H463.666L431.823 293.533L463.666 350.188Z" stroke="white" stroke-opacity="0.3" stroke-width="0.382231" stroke-miterlimit="10"/>
<path d="M272.658 350.188H336.331L368.161 293.533L336.331 236.892H272.658L240.827 293.533L272.658 350.188Z" stroke="white" stroke-opacity="0.3" stroke-width="0.382231" stroke-miterlimit="10"/>
</g>
</g>
<defs>
<linearGradient id="paint0_linear_1171_87466" x1="694.824" y1="620.522" x2="170.627" y2="112.151" gradientUnits="userSpaceOnUse">
<stop/>
<stop offset="1" stop-color="#BCBDEF" stop-opacity="0"/>
</linearGradient>
<clipPath id="clip0_1171_87466">
<rect width="460" height="570" fill="white"/>
</clipPath>
</defs>
</svg>
