<svg width="1920" height="843" viewBox="0 0 1920 843" fill="none" xmlns="http://www.w3.org/2000/svg">
<mask id="mask0_5001_4626" style="mask-type:alpha" maskUnits="userSpaceOnUse" x="0" y="0" width="1920" height="843">
<g clip-path="url(#clip0_5001_4626)">
<path d="M0 296.94H1920V828.283C1920 828.283 1334.9 830 960 830C585.097 830 0 828.283 0 828.283V296.94Z" fill="#0066C5"/>
<path d="M2251 300.802C2251 466.931 1673.22 558.694 960.5 558.694C247.777 558.694 -330 466.931 -330 300.802C-330 134.674 247.777 0 960.5 0C1673.22 0 2251 134.674 2251 300.802Z" fill="#0066C5"/>
</g>
<rect y="100" width="1920" height="743" fill="#0066C5"/>
</mask>
<g mask="url(#mask0_5001_4626)">
<g opacity="0.15">
<path d="M13.8058 478.121H-43.5495L-72.2391 427.279L-43.5495 376.424H13.8058L42.4834 427.279L13.8058 478.121Z" fill="#19B5FF"/>
<path d="M41.753 427.278L13.4342 477.485H-43.178L-71.5087 427.278L-43.178 377.06H13.4342L41.753 427.278Z" stroke="white" stroke-opacity="0.3" stroke-width="1.27231"/>
<path d="M185.883 478.121H128.528L99.838 427.279L128.528 376.424H185.883L214.561 427.279L185.883 478.121Z" fill="#19B5FF"/>
<path d="M213.83 427.278L185.511 477.485H128.899L100.568 427.278L128.899 377.06H185.511L213.83 427.278Z" stroke="white" stroke-opacity="0.3" stroke-width="1.27231"/>
<path d="M99.8396 325.582H42.4844L13.8068 274.727L42.4844 223.884H99.8396L128.529 274.727L99.8396 325.582Z" fill="#19B5FF"/>
<path d="M127.799 274.727L99.4681 324.945H42.856L14.5371 274.727L42.8559 224.52H99.4682L127.799 274.727Z" stroke="white" stroke-opacity="0.3" stroke-width="1.27231"/>
<path d="M271.929 325.582H214.562L185.884 274.727L214.562 223.884H271.929L300.606 274.727L271.929 325.582Z" fill="#19B5FF"/>
<path d="M299.876 274.727L271.557 324.945H214.933L186.614 274.727L214.933 224.52H271.557L299.876 274.727Z" stroke="white" stroke-opacity="0.3" stroke-width="1.27231"/>
<path d="M13.8058 274.726H-43.5495L-72.2391 223.884L-43.5495 173.029H13.8058L42.4834 223.884L13.8058 274.726Z" fill="#19B5FF"/>
<path d="M41.753 223.883L13.4342 274.09H-43.178L-71.5087 223.883L-43.178 173.665H13.4342L41.753 223.883Z" stroke="white" stroke-opacity="0.3" stroke-width="1.27231"/>
<path d="M185.883 274.726H128.528L99.838 223.884L128.528 173.029H185.883L214.561 223.884L185.883 274.726Z" fill="#19B5FF"/>
<path d="M213.83 223.883L185.511 274.09H128.899L100.568 223.883L128.899 173.665H185.511L213.83 223.883Z" stroke="white" stroke-opacity="0.3" stroke-width="1.27231"/>
<path d="M185.883 173.029H128.528L99.838 122.186L128.528 71.3314H185.883L214.561 122.186L185.883 173.029Z" fill="#19B5FF"/>
<path d="M213.83 122.186L185.511 172.393H128.899L100.568 122.186L128.899 71.9675H185.511L213.83 122.186Z" stroke="white" stroke-opacity="0.3" stroke-width="1.27231"/>
<path d="M271.929 122.186H214.562L185.884 71.3311L214.562 20.4886H271.929L300.606 71.3311L271.929 122.186Z" fill="#19B5FF"/>
<path d="M299.876 71.3312L271.557 121.55H214.933L186.614 71.3312L214.933 21.1248H271.557L299.876 71.3312Z" stroke="white" stroke-opacity="0.3" stroke-width="1.27231"/>
<path d="M13.8058 71.3315H-43.5495L-72.2391 20.489L-43.5495 -30.3658H13.8058L42.4834 20.489L13.8058 71.3315Z" fill="#19B5FF"/>
<path d="M41.753 20.489L13.4342 70.6954H-43.178L-71.5087 20.489L-43.178 -29.7297H13.4342L41.753 20.489Z" stroke="white" stroke-opacity="0.3" stroke-width="1.27231"/>
<path d="M185.883 71.3315H128.528L99.838 20.489L128.528 -30.3658H185.883L214.561 20.489L185.883 71.3315Z" fill="#19B5FF"/>
<path d="M213.83 20.489L185.511 70.6954H128.899L100.568 20.489L128.899 -29.7297H185.511L213.83 20.489Z" stroke="white" stroke-opacity="0.3" stroke-width="1.27231"/>
</g>
<g opacity="0.15">
<path d="M13.796 274.726H-43.5592L-72.2489 223.884L-43.5592 173.029H13.796L42.4736 223.884L13.796 274.726Z" fill="#63CEFF"/>
<path d="M41.7433 223.883L13.4245 274.09H-43.1878L-71.5185 223.883L-43.1877 173.665H13.4244L41.7433 223.883Z" stroke="white" stroke-opacity="0.3" stroke-width="1.27231"/>
<path d="M99.8309 223.884H42.4756L13.798 173.029L42.4756 122.186H99.8309L128.521 173.029L99.8309 223.884Z" fill="#63CEFF"/>
<path d="M127.79 173.029L99.4593 223.247H42.8472L14.5283 173.029L42.8471 122.822H99.4594L127.79 173.029Z" stroke="white" stroke-opacity="0.3" stroke-width="1.27231"/>
<path d="M185.876 274.726H128.521L99.8312 223.884L128.521 173.029H185.876L214.554 223.884L185.876 274.726Z" fill="#63CEFF"/>
<path d="M213.823 223.883L185.505 274.09H128.892L100.562 223.883L128.892 173.665H185.504L213.823 223.883Z" stroke="white" stroke-opacity="0.3" stroke-width="1.27231"/>
<path d="M357.953 274.726H300.598L271.92 223.884L300.598 173.029H357.953L386.631 223.884L357.953 274.726Z" fill="#63CEFF"/>
<path d="M385.901 223.883L357.582 274.09H300.97L272.651 223.883L300.97 173.665H357.582L385.901 223.883Z" stroke="white" stroke-opacity="0.3" stroke-width="1.27231"/>
<path d="M13.796 173.029H-43.5592L-72.2489 122.186L-43.5592 71.3311H13.796L42.4736 122.186L13.796 173.029Z" fill="#63CEFF"/>
<path d="M41.7433 122.186L13.4245 172.392H-43.1878L-71.5185 122.186L-43.1877 71.9673H13.4244L41.7433 122.186Z" stroke="white" stroke-opacity="0.3" stroke-width="1.27231"/>
<path d="M271.922 122.186H214.555L185.877 71.3314L214.555 20.4888H271.922L300.6 71.3314L271.922 122.186Z" fill="#63CEFF"/>
<path d="M299.869 71.3314L271.55 121.55H214.926L186.607 71.3314L214.926 21.125H271.55L299.869 71.3314Z" stroke="white" stroke-opacity="0.3" stroke-width="1.27231"/>
<path d="M185.876 71.3313H128.521L99.8312 20.4888L128.521 -30.3661H185.876L214.554 20.4888L185.876 71.3313Z" fill="#63CEFF"/>
<path d="M213.823 20.4887L185.505 70.6951H128.892L100.562 20.4887L128.892 -29.7299H185.504L213.823 20.4887Z" stroke="white" stroke-opacity="0.3" stroke-width="1.27231"/>
<path d="M357.953 71.3313H300.598L271.92 20.4888L300.598 -30.3661H357.953L386.631 20.4888L357.953 71.3313Z" fill="#63CEFF"/>
<path d="M385.901 20.4887L357.582 70.6951H300.97L272.651 20.4887L300.97 -29.7299H357.582L385.901 20.4887Z" stroke="white" stroke-opacity="0.3" stroke-width="1.27231"/>
</g>
<path d="M13.8029 376.424H-43.5524L-72.2421 325.581L-43.5524 274.726H13.8029L42.4805 325.581L13.8029 376.424Z" stroke="white" stroke-opacity="0.3" stroke-width="0.381693" stroke-miterlimit="10"/>
<path d="M271.926 427.279H214.559L185.881 376.424L214.559 325.581H271.926L300.604 376.424L271.926 427.279Z" stroke="white" stroke-opacity="0.3" stroke-width="0.381693" stroke-miterlimit="10"/>
<path d="M357.959 376.424H300.604L271.926 325.581L300.604 274.726H357.959L386.637 325.581L357.959 376.424Z" stroke="white" stroke-opacity="0.3" stroke-width="0.381693" stroke-miterlimit="10"/>
<path d="M13.8029 274.726H-43.5524L-72.2421 223.883L-43.5524 173.028H13.8029L42.4805 223.883L13.8029 274.726Z" stroke="white" stroke-opacity="0.3" stroke-width="0.381693" stroke-miterlimit="10"/>
<path d="M99.8367 325.582H42.4814L13.8038 274.727L42.4814 223.884H99.8367L128.526 274.727L99.8367 325.582Z" stroke="white" stroke-opacity="0.3" stroke-width="0.381693" stroke-miterlimit="10"/>
<path d="M185.882 274.726H128.527L99.837 223.883L128.527 173.028H185.882L214.56 223.883L185.882 274.726Z" stroke="white" stroke-opacity="0.3" stroke-width="0.381693" stroke-miterlimit="10"/>
<path d="M271.926 325.581H214.559L185.881 274.726L214.559 223.884H271.926L300.604 274.726L271.926 325.581Z" stroke="white" stroke-opacity="0.3" stroke-width="0.381693" stroke-miterlimit="10"/>
<path d="M357.959 274.726H300.604L271.926 223.884L300.604 173.029H357.959L386.637 223.884L357.959 274.726Z" stroke="white" stroke-opacity="0.3" stroke-width="0.381693" stroke-miterlimit="10"/>
<path d="M13.8029 173.029H-43.5524L-72.2421 122.186L-43.5524 71.3314H13.8029L42.4805 122.186L13.8029 173.029Z" stroke="white" stroke-opacity="0.3" stroke-width="0.381693" stroke-miterlimit="10"/>
<path d="M99.8367 223.884H42.4814L13.8038 173.029L42.4814 122.186H99.8367L128.526 173.029L99.8367 223.884Z" stroke="white" stroke-opacity="0.3" stroke-width="0.381693" stroke-miterlimit="10"/>
<path d="M185.882 173.029H128.527L99.837 122.186L128.527 71.3314H185.882L214.56 122.186L185.882 173.029Z" stroke="white" stroke-opacity="0.3" stroke-width="0.381693" stroke-miterlimit="10"/>
<path d="M271.926 223.884H214.559L185.881 173.029L214.559 122.186H271.926L300.604 173.029L271.926 223.884Z" stroke="white" stroke-opacity="0.3" stroke-width="0.381693" stroke-miterlimit="10"/>
<path d="M357.959 173.029H300.604L271.926 122.186L300.604 71.3314H357.959L386.637 122.186L357.959 173.029Z" stroke="white" stroke-opacity="0.3" stroke-width="0.381693" stroke-miterlimit="10"/>
<path d="M13.8029 71.3318H-43.5524L-72.2421 20.4892L-43.5524 -30.3656H13.8029L42.4805 20.4892L13.8029 71.3318Z" stroke="white" stroke-opacity="0.3" stroke-width="0.381693" stroke-miterlimit="10"/>
<path d="M99.8367 122.186H42.4814L13.8038 71.3311L42.4814 20.4886H99.8367L128.526 71.3311L99.8367 122.186Z" stroke="white" stroke-opacity="0.3" stroke-width="0.381693" stroke-miterlimit="10"/>
<path d="M185.882 71.3318H128.527L99.837 20.4892L128.527 -30.3656H185.882L214.56 20.4892L185.882 71.3318Z" stroke="white" stroke-opacity="0.3" stroke-width="0.381693" stroke-miterlimit="10"/>
<path d="M271.926 122.186H214.559L185.881 71.3311L214.559 20.4886H271.926L300.604 71.3311L271.926 122.186Z" stroke="white" stroke-opacity="0.3" stroke-width="0.381693" stroke-miterlimit="10"/>
<path d="M357.959 71.3315H300.604L271.926 20.489L300.604 -30.3658H357.959L386.637 20.489L357.959 71.3315Z" stroke="white" stroke-opacity="0.3" stroke-width="0.381693" stroke-miterlimit="10"/>
<path d="M99.8367 20.489H42.4814L13.8038 -30.3658L42.4814 -81.2084H99.8367L128.526 -30.3658L99.8367 20.489Z" stroke="white" stroke-opacity="0.3" stroke-width="0.381693" stroke-miterlimit="10"/>
<path d="M271.926 20.489H214.559L185.881 -30.3658L214.559 -81.2084H271.926L300.604 -30.3658L271.926 20.489Z" stroke="white" stroke-opacity="0.3" stroke-width="0.381693" stroke-miterlimit="10"/>
</g>
<defs>
<clipPath id="clip0_5001_4626">
<rect width="1920" height="100" fill="white"/>
</clipPath>
</defs>
</svg>
