<svg width="460" height="570" viewBox="0 0 460 570" fill="none" xmlns="http://www.w3.org/2000/svg">
<g clip-path="url(#clip0_1171_87465)">
<mask id="mask0_1171_87465" style="mask-type:alpha" maskUnits="userSpaceOnUse" x="-100" y="0" width="560" height="570">
<rect x="-100" width="560" height="570" fill="url(#paint0_linear_1171_87465)"/>
</mask>
<g mask="url(#mask0_1171_87465)">
<mask id="mask1_1171_87465" style="mask-type:alpha" maskUnits="userSpaceOnUse" x="239" y="203" width="727" height="675">
<rect x="239.64" y="203.665" width="726.35" height="673.471" fill="url(#paint1_linear_1171_87465)"/>
</mask>
<g mask="url(#mask1_1171_87465)">
<g opacity="0.15">
<path d="M482.362 611.9H544.253L575.192 555.29L544.253 498.693H482.362L451.423 555.29L482.362 611.9Z" fill="#19B5FF"/>
<path d="M452.149 555.29L482.739 611.263H543.875L574.466 555.29L543.875 499.33H482.739L452.149 555.29Z" stroke="white" stroke-opacity="0.3" stroke-width="1.2741"/>
</g>
<g opacity="0.15">
<path d="M482.362 611.901H544.253L575.192 555.29L544.253 498.693H482.362L451.423 555.29L482.362 611.901Z" fill="#63CEFF"/>
<path d="M452.149 555.29L482.739 611.264H543.875L574.466 555.29L543.875 499.33H482.739L452.149 555.29Z" stroke="white" stroke-opacity="0.3" stroke-width="1.2741"/>
<path d="M389.548 555.29H451.426L482.365 498.694L451.426 442.083H389.548L358.609 498.694L389.548 555.29Z" fill="#63CEFF"/>
<path d="M359.335 498.693L389.925 554.653H451.048L481.639 498.693L451.048 442.72H389.925L359.335 498.693Z" stroke="white" stroke-opacity="0.3" stroke-width="1.2741"/>
<path d="M389.548 442.083H451.426L482.365 385.486L451.426 328.875H389.548L358.609 385.486L389.548 442.083Z" fill="#63CEFF"/>
<path d="M359.335 385.486L389.925 441.446H451.048L481.639 385.486L451.048 329.512H389.925L359.335 385.486Z" stroke="white" stroke-opacity="0.3" stroke-width="1.2741"/>
<path d="M296.716 385.486H358.607L389.546 328.876L358.607 272.279H296.716L265.777 328.876L296.716 385.486Z" fill="#63CEFF"/>
<path d="M266.503 328.876L297.094 384.849H358.229L388.82 328.876L358.229 272.916H297.094L266.503 328.876Z" stroke="white" stroke-opacity="0.3" stroke-width="1.2741"/>
<path d="M389.548 328.876H451.426L482.365 272.279L451.426 215.668H389.548L358.609 272.279L389.548 328.876Z" fill="#63CEFF"/>
<path d="M359.335 272.279L389.925 328.239H451.048L481.639 272.279L451.048 216.305H389.925L359.335 272.279Z" stroke="white" stroke-opacity="0.3" stroke-width="1.2741"/>
</g>
<path d="M389.546 668.497H451.424L482.363 611.901L451.424 555.29H389.546L358.607 611.901L389.546 668.497Z" stroke="white" stroke-opacity="0.3" stroke-width="0.382231" stroke-miterlimit="10"/>
<path d="M482.363 611.9H544.255L575.194 555.29L544.255 498.693H482.363L451.424 555.29L482.363 611.9Z" stroke="white" stroke-opacity="0.3" stroke-width="0.382231" stroke-miterlimit="10"/>
<path d="M389.546 555.29H451.424L482.363 498.693L451.424 442.082H389.546L358.607 498.693L389.546 555.29Z" stroke="white" stroke-opacity="0.3" stroke-width="0.382231" stroke-miterlimit="10"/>
<path d="M482.363 498.693H544.255L575.194 442.083L544.255 385.486H482.363L451.424 442.083L482.363 498.693Z" stroke="white" stroke-opacity="0.3" stroke-width="0.382231" stroke-miterlimit="10"/>
</g>
<g opacity="0.15">
<path d="M13.8061 478.121H-43.5492L-72.2388 427.279L-43.5492 376.424H13.8061L42.4837 427.279L13.8061 478.121Z" fill="#19B5FF"/>
<path d="M41.7533 427.279L13.4346 477.485H-43.1777L-71.5084 427.279L-43.1777 377.06H13.4345L41.7533 427.279Z" stroke="white" stroke-opacity="0.3" stroke-width="1.27231"/>
<path d="M185.883 478.121H128.528L99.8384 427.279L128.528 376.424H185.883L214.561 427.279L185.883 478.121Z" fill="#19B5FF"/>
<path d="M213.831 427.279L185.512 477.485H128.9L100.569 427.279L128.9 377.06H185.512L213.831 427.279Z" stroke="white" stroke-opacity="0.3" stroke-width="1.27231"/>
<path d="M99.8399 325.582H42.4846L13.807 274.727L42.4846 223.884H99.8399L128.53 274.727L99.8399 325.582Z" fill="#19B5FF"/>
<path d="M127.799 274.727L99.4683 324.945H42.8562L14.5373 274.727L42.8561 224.52H99.4684L127.799 274.727Z" stroke="white" stroke-opacity="0.3" stroke-width="1.27231"/>
<path d="M271.929 325.582H214.562L185.884 274.727L214.562 223.884H271.929L300.607 274.727L271.929 325.582Z" fill="#19B5FF"/>
<path d="M299.877 274.727L271.558 324.945H214.934L186.615 274.727L214.934 224.52H271.558L299.877 274.727Z" stroke="white" stroke-opacity="0.3" stroke-width="1.27231"/>
<path d="M13.8061 274.726H-43.5492L-72.2388 223.884L-43.5492 173.029H13.8061L42.4837 223.884L13.8061 274.726Z" fill="#19B5FF"/>
<path d="M41.7533 223.884L13.4346 274.09H-43.1777L-71.5084 223.884L-43.1777 173.665H13.4345L41.7533 223.884Z" stroke="white" stroke-opacity="0.3" stroke-width="1.27231"/>
<path d="M185.883 274.726H128.528L99.8383 223.884L128.528 173.029H185.883L214.561 223.884L185.883 274.726Z" fill="#19B5FF"/>
<path d="M213.83 223.884L185.512 274.09H128.899L100.569 223.884L128.899 173.665H185.512L213.83 223.884Z" stroke="white" stroke-opacity="0.3" stroke-width="1.27231"/>
<path d="M185.883 173.029H128.528L99.8383 122.186L128.528 71.3315H185.883L214.561 122.186L185.883 173.029Z" fill="#19B5FF"/>
<path d="M213.83 122.186L185.512 172.393H128.899L100.569 122.186L128.899 71.9677H185.512L213.83 122.186Z" stroke="white" stroke-opacity="0.3" stroke-width="1.27231"/>
<path d="M271.929 122.186H214.562L185.884 71.3314L214.562 20.4888H271.929L300.607 71.3314L271.929 122.186Z" fill="#19B5FF"/>
<path d="M299.877 71.3314L271.558 121.55H214.934L186.615 71.3314L214.934 21.125H271.558L299.877 71.3314Z" stroke="white" stroke-opacity="0.3" stroke-width="1.27231"/>
<path d="M13.8061 71.3317H-43.5492L-72.2388 20.4891L-43.5492 -30.3657H13.8061L42.4837 20.4891L13.8061 71.3317Z" fill="#19B5FF"/>
<path d="M41.7533 20.4891L13.4346 70.6955H-43.1777L-71.5084 20.4891L-43.1777 -29.7296H13.4345L41.7533 20.4891Z" stroke="white" stroke-opacity="0.3" stroke-width="1.27231"/>
<path d="M185.883 71.3317H128.528L99.8383 20.4891L128.528 -30.3657H185.883L214.561 20.4891L185.883 71.3317Z" fill="#19B5FF"/>
<path d="M213.83 20.4891L185.512 70.6955H128.899L100.569 20.4891L128.899 -29.7296H185.512L213.83 20.4891Z" stroke="white" stroke-opacity="0.3" stroke-width="1.27231"/>
</g>
<g opacity="0.15">
<path d="M13.7967 274.726H-43.5586L-72.2482 223.884L-43.5586 173.029H13.7967L42.4743 223.884L13.7967 274.726Z" fill="#63CEFF"/>
<path d="M41.744 223.883L13.4252 274.09H-43.1871L-71.5178 223.883L-43.187 173.665H13.4251L41.744 223.883Z" stroke="white" stroke-opacity="0.3" stroke-width="1.27231"/>
<path d="M99.8307 223.884H42.4755L13.7979 173.029L42.4755 122.186H99.8307L128.52 173.029L99.8307 223.884Z" fill="#63CEFF"/>
<path d="M127.79 173.029L99.4592 223.248H42.8471L14.5282 173.029L42.847 122.822H99.4593L127.79 173.029Z" stroke="white" stroke-opacity="0.3" stroke-width="1.27231"/>
<path d="M185.876 274.726H128.521L99.8311 223.884L128.521 173.029H185.876L214.554 223.884L185.876 274.726Z" fill="#63CEFF"/>
<path d="M213.823 223.883L185.504 274.09H128.892L100.562 223.883L128.892 173.665H185.504L213.823 223.883Z" stroke="white" stroke-opacity="0.3" stroke-width="1.27231"/>
<path d="M357.953 274.726H300.598L271.92 223.884L300.598 173.029H357.953L386.631 223.884L357.953 274.726Z" fill="#63CEFF"/>
<path d="M385.9 223.883L357.582 274.09H300.969L272.651 223.883L300.969 173.665H357.582L385.9 223.883Z" stroke="white" stroke-opacity="0.3" stroke-width="1.27231"/>
<path d="M13.7967 173.029H-43.5586L-72.2482 122.186L-43.5586 71.3313H13.7967L42.4743 122.186L13.7967 173.029Z" fill="#63CEFF"/>
<path d="M41.744 122.186L13.4252 172.393H-43.1871L-71.5178 122.186L-43.187 71.9674H13.4251L41.744 122.186Z" stroke="white" stroke-opacity="0.3" stroke-width="1.27231"/>
<path d="M271.922 122.186H214.555L185.877 71.3315L214.555 20.489H271.922L300.599 71.3315L271.922 122.186Z" fill="#63CEFF"/>
<path d="M299.869 71.3316L271.55 121.55H214.926L186.607 71.3316L214.926 21.1251H271.55L299.869 71.3316Z" stroke="white" stroke-opacity="0.3" stroke-width="1.27231"/>
<path d="M185.876 71.3314H128.521L99.8311 20.4889L128.521 -30.366H185.876L214.554 20.4889L185.876 71.3314Z" fill="#63CEFF"/>
<path d="M213.823 20.4888L185.504 70.6953H128.892L100.562 20.4888L128.892 -29.7298H185.504L213.823 20.4888Z" stroke="white" stroke-opacity="0.3" stroke-width="1.27231"/>
<path d="M357.953 71.3314H300.598L271.92 20.4889L300.598 -30.366H357.953L386.631 20.4889L357.953 71.3314Z" fill="#63CEFF"/>
<path d="M385.9 20.4888L357.582 70.6953H300.969L272.651 20.4888L300.969 -29.7298H357.582L385.9 20.4888Z" stroke="white" stroke-opacity="0.3" stroke-width="1.27231"/>
</g>
<path d="M13.8024 376.424H-43.5529L-72.2425 325.581L-43.5529 274.727H13.8024L42.48 325.581L13.8024 376.424Z" stroke="white" stroke-opacity="0.3" stroke-width="0.381693" stroke-miterlimit="10"/>
<path d="M271.926 427.279H214.558L185.881 376.424L214.558 325.581H271.926L300.603 376.424L271.926 427.279Z" stroke="white" stroke-opacity="0.3" stroke-width="0.381693" stroke-miterlimit="10"/>
<path d="M357.959 376.424H300.604L271.926 325.581L300.604 274.727H357.959L386.636 325.581L357.959 376.424Z" stroke="white" stroke-opacity="0.3" stroke-width="0.381693" stroke-miterlimit="10"/>
<path d="M13.8024 274.726H-43.5529L-72.2425 223.883L-43.5529 173.029H13.8024L42.48 223.883L13.8024 274.726Z" stroke="white" stroke-opacity="0.3" stroke-width="0.381693" stroke-miterlimit="10"/>
<path d="M99.8362 325.582H42.4809L13.8033 274.727L42.4809 223.884H99.8362L128.526 274.727L99.8362 325.582Z" stroke="white" stroke-opacity="0.3" stroke-width="0.381693" stroke-miterlimit="10"/>
<path d="M185.881 274.726H128.526L99.8366 223.883L128.526 173.029H185.881L214.559 223.883L185.881 274.726Z" stroke="white" stroke-opacity="0.3" stroke-width="0.381693" stroke-miterlimit="10"/>
<path d="M271.926 325.581H214.558L185.881 274.726L214.558 223.884H271.926L300.603 274.726L271.926 325.581Z" stroke="white" stroke-opacity="0.3" stroke-width="0.381693" stroke-miterlimit="10"/>
<path d="M357.959 274.726H300.604L271.926 223.884L300.604 173.029H357.959L386.636 223.884L357.959 274.726Z" stroke="white" stroke-opacity="0.3" stroke-width="0.381693" stroke-miterlimit="10"/>
<path d="M13.8024 173.029H-43.5529L-72.2425 122.186L-43.5529 71.3315H13.8024L42.48 122.186L13.8024 173.029Z" stroke="white" stroke-opacity="0.3" stroke-width="0.381693" stroke-miterlimit="10"/>
<path d="M99.8362 223.884H42.4809L13.8033 173.029L42.4809 122.187H99.8362L128.526 173.029L99.8362 223.884Z" stroke="white" stroke-opacity="0.3" stroke-width="0.381693" stroke-miterlimit="10"/>
<path d="M185.881 173.029H128.526L99.8366 122.186L128.526 71.3315H185.881L214.559 122.186L185.881 173.029Z" stroke="white" stroke-opacity="0.3" stroke-width="0.381693" stroke-miterlimit="10"/>
<path d="M271.926 223.884H214.558L185.881 173.029L214.558 122.186H271.926L300.603 173.029L271.926 223.884Z" stroke="white" stroke-opacity="0.3" stroke-width="0.381693" stroke-miterlimit="10"/>
<path d="M357.959 173.029H300.604L271.926 122.186L300.604 71.3315H357.959L386.636 122.186L357.959 173.029Z" stroke="white" stroke-opacity="0.3" stroke-width="0.381693" stroke-miterlimit="10"/>
<path d="M13.8024 71.3318H-43.5529L-72.2425 20.4892L-43.5529 -30.3656H13.8024L42.48 20.4892L13.8024 71.3318Z" stroke="white" stroke-opacity="0.3" stroke-width="0.381693" stroke-miterlimit="10"/>
<path d="M99.8362 122.186H42.4809L13.8033 71.3314L42.4809 20.4888H99.8362L128.526 71.3314L99.8362 122.186Z" stroke="white" stroke-opacity="0.3" stroke-width="0.381693" stroke-miterlimit="10"/>
<path d="M185.881 71.3318H128.526L99.8366 20.4892L128.526 -30.3656H185.881L214.559 20.4892L185.881 71.3318Z" stroke="white" stroke-opacity="0.3" stroke-width="0.381693" stroke-miterlimit="10"/>
<path d="M271.926 122.186H214.558L185.881 71.3314L214.558 20.4888H271.926L300.603 71.3314L271.926 122.186Z" stroke="white" stroke-opacity="0.3" stroke-width="0.381693" stroke-miterlimit="10"/>
<path d="M357.959 71.3317H300.604L271.926 20.4891L300.604 -30.3657H357.959L386.636 20.4891L357.959 71.3317Z" stroke="white" stroke-opacity="0.3" stroke-width="0.381693" stroke-miterlimit="10"/>
<path d="M99.8362 20.489H42.4809L13.8033 -30.3658L42.4809 -81.2084H99.8362L128.526 -30.3658L99.8362 20.489Z" stroke="white" stroke-opacity="0.3" stroke-width="0.381693" stroke-miterlimit="10"/>
<path d="M271.926 20.489H214.558L185.881 -30.3658L214.558 -81.2084H271.926L300.603 -30.3658L271.926 20.489Z" stroke="white" stroke-opacity="0.3" stroke-width="0.381693" stroke-miterlimit="10"/>
</g>
</g>
<defs>
<linearGradient id="paint0_linear_1171_87465" x1="386.986" y1="535.768" x2="-195.098" y2="68.2466" gradientUnits="userSpaceOnUse">
<stop stop-color="#BCBDEF" stop-opacity="0"/>
<stop offset="1"/>
</linearGradient>
<linearGradient id="paint1_linear_1171_87465" x1="871.287" y1="836.69" x2="351.335" y2="377.925" gradientUnits="userSpaceOnUse">
<stop/>
<stop offset="1" stop-color="#BCBDEF" stop-opacity="0"/>
</linearGradient>
<clipPath id="clip0_1171_87465">
<rect width="460" height="570" fill="white"/>
</clipPath>
</defs>
</svg>
