<svg width="460" height="570" viewBox="0 0 460 570" fill="none" xmlns="http://www.w3.org/2000/svg">
<g clip-path="url(#clip0_1171_102402)">
<mask id="mask0_1171_102402" style="mask-type:alpha" maskUnits="userSpaceOnUse" x="-1" y="-13" width="800" height="674">
<rect x="-0.00390625" y="-13" width="799" height="674" fill="url(#paint0_linear_1171_102402)"/>
</mask>
<g mask="url(#mask0_1171_102402)">
<g opacity="0.15">
<path d="M368.157 633.421H431.818L463.661 576.78L431.818 520.125H368.157L336.327 576.78L368.157 633.421Z" fill="#19B5FF"/>
<path d="M337.058 576.78L368.53 632.784H431.445L462.93 576.78L431.445 520.762H368.53L337.058 576.78Z" stroke="white" stroke-opacity="0.3" stroke-width="1.2741"/>
<path d="M368.157 520.125H431.818L463.661 463.484L431.818 406.829H368.157L336.327 463.484L368.157 520.125Z" fill="#19B5FF"/>
<path d="M337.058 463.484L368.53 519.488H431.445L462.93 463.484L431.445 407.466H368.53L337.058 463.484Z" stroke="white" stroke-opacity="0.3" stroke-width="1.2741"/>
<path d="M272.653 463.484H336.327L368.157 406.829L336.327 350.187H272.653L240.823 406.829L272.653 463.484Z" fill="#19B5FF"/>
<path d="M241.553 406.829L273.026 462.847H335.954L367.426 406.829L335.954 350.825H273.026L241.553 406.829Z" stroke="white" stroke-opacity="0.3" stroke-width="1.2741"/>
<path d="M368.157 406.829H431.818L463.661 350.188L431.818 293.533H368.157L336.327 350.188L368.157 406.829Z" fill="#19B5FF"/>
<path d="M337.058 350.188L368.53 406.192H431.445L462.93 350.188L431.445 294.17H368.53L337.058 350.188Z" stroke="white" stroke-opacity="0.3" stroke-width="1.2741"/>
</g>
<g opacity="0.15">
<path d="M463.662 576.78H527.323L559.153 520.125L527.323 463.484H463.662L431.819 520.125L463.662 576.78Z" fill="#63CEFF"/>
<path d="M432.55 520.125L464.035 576.143H526.95L558.422 520.125L526.95 464.121H464.035L432.55 520.125Z" stroke="white" stroke-opacity="0.3" stroke-width="1.2741"/>
<path d="M368.157 633.421H431.817L463.66 576.78L431.817 520.125H368.157L336.326 576.78L368.157 633.421Z" fill="#63CEFF"/>
<path d="M337.057 576.78L368.529 632.784H431.444L462.93 576.78L431.444 520.762H368.529L337.057 576.78Z" stroke="white" stroke-opacity="0.3" stroke-width="1.2741"/>
<path d="M177.166 633.421H240.826L272.656 576.78L240.826 520.125H177.166L145.336 576.78L177.166 633.421Z" fill="#63CEFF"/>
<path d="M146.066 576.78L177.539 632.784H240.453L271.926 576.78L240.453 520.762H177.539L146.066 576.78Z" stroke="white" stroke-opacity="0.3" stroke-width="1.2741"/>
<path d="M272.653 463.484H336.327L368.157 406.829L336.327 350.188H272.653L240.823 406.829L272.653 463.484Z" fill="#63CEFF"/>
<path d="M241.553 406.829L273.026 462.847H335.954L367.426 406.829L335.954 350.825H273.026L241.553 406.829Z" stroke="white" stroke-opacity="0.3" stroke-width="1.2741"/>
<path d="M368.157 406.829H431.817L463.66 350.188L431.817 293.533H368.157L336.326 350.188L368.157 406.829Z" fill="#63CEFF"/>
<path d="M337.057 350.188L368.529 406.192H431.444L462.93 350.188L431.444 294.17H368.529L337.057 350.188Z" stroke="white" stroke-opacity="0.3" stroke-width="1.2741"/>
<path d="M177.166 406.829H240.826L272.656 350.188L240.826 293.533H177.166L145.336 350.188L177.166 406.829Z" fill="#63CEFF"/>
<path d="M146.066 350.188L177.539 406.192H240.453L271.926 350.188L240.453 294.17H177.539L146.066 350.188Z" stroke="white" stroke-opacity="0.3" stroke-width="1.2741"/>
<path d="M463.662 236.892H527.323L559.153 180.237L527.323 123.596H463.662L431.819 180.237L463.662 236.892Z" fill="#63CEFF"/>
<path d="M432.55 180.237L464.035 236.255H526.95L558.422 180.237L526.95 124.233H464.035L432.55 180.237Z" stroke="white" stroke-opacity="0.3" stroke-width="1.2741"/>
<path d="M177.166 293.533H240.826L272.656 236.891L240.826 180.237H177.166L145.336 236.891L177.166 293.533Z" fill="#63CEFF"/>
<path d="M146.066 236.891L177.539 292.896H240.453L271.926 236.891L240.453 180.874H177.539L146.066 236.891Z" stroke="white" stroke-opacity="0.3" stroke-width="1.2741"/>
<path d="M81.6602 236.892H145.334L177.164 180.237L145.334 123.596H81.6602L49.8301 180.237L81.6602 236.892Z" fill="#63CEFF"/>
<path d="M50.5608 180.237L82.033 236.255H144.961L176.433 180.237L144.961 124.233H82.033L50.5608 180.237Z" stroke="white" stroke-opacity="0.3" stroke-width="1.2741"/>
<path d="M368.157 180.237H431.817L463.66 123.596L431.817 66.9407H368.157L336.326 123.596L368.157 180.237Z" fill="#63CEFF"/>
<path d="M337.057 123.596L368.529 179.6H431.444L462.93 123.596L431.444 67.5777H368.529L337.057 123.596Z" stroke="white" stroke-opacity="0.3" stroke-width="1.2741"/>
<path d="M177.166 180.237H240.826L272.656 123.596L240.826 66.9407H177.166L145.336 123.596L177.166 180.237Z" fill="#63CEFF"/>
<path d="M146.066 123.596L177.539 179.6H240.453L271.926 123.596L240.453 67.5777H177.539L146.066 123.596Z" stroke="white" stroke-opacity="0.3" stroke-width="1.2741"/>
</g>
<path d="M368.156 633.421H431.817L463.66 576.78L431.817 520.125H368.156L336.326 576.78L368.156 633.421Z" stroke="white" stroke-opacity="0.3" stroke-width="0.382231" stroke-miterlimit="10"/>
<path d="M177.164 633.421H240.824L272.654 576.78L240.824 520.125H177.164L145.333 576.78L177.164 633.421Z" stroke="white" stroke-opacity="0.3" stroke-width="0.382231" stroke-miterlimit="10"/>
<path d="M463.662 576.78H527.323L559.153 520.125L527.323 463.483H463.662L431.819 520.125L463.662 576.78Z" stroke="white" stroke-opacity="0.3" stroke-width="0.382231" stroke-miterlimit="10"/>
<path d="M368.156 520.125H431.817L463.66 463.484L431.817 406.829H368.156L336.326 463.484L368.156 520.125Z" stroke="white" stroke-opacity="0.3" stroke-width="0.382231" stroke-miterlimit="10"/>
<path d="M272.654 576.78H336.327L368.157 520.125L336.327 463.483H272.654L240.823 520.125L272.654 576.78Z" stroke="white" stroke-opacity="0.3" stroke-width="0.382231" stroke-miterlimit="10"/>
<path d="M177.164 520.125H240.824L272.654 463.484L240.824 406.829H177.164L145.333 463.484L177.164 520.125Z" stroke="white" stroke-opacity="0.3" stroke-width="0.382231" stroke-miterlimit="10"/>
<path d="M463.662 463.483H527.323L559.153 406.828L527.323 350.187H463.662L431.819 406.828L463.662 463.483Z" stroke="white" stroke-opacity="0.3" stroke-width="0.382231" stroke-miterlimit="10"/>
<path d="M368.156 406.828H431.817L463.66 350.187L431.817 293.532H368.156L336.326 350.187L368.156 406.828Z" stroke="white" stroke-opacity="0.3" stroke-width="0.382231" stroke-miterlimit="10"/>
<path d="M272.654 463.483H336.327L368.157 406.828L336.327 350.187H272.654L240.823 406.828L272.654 463.483Z" stroke="white" stroke-opacity="0.3" stroke-width="0.382231" stroke-miterlimit="10"/>
<path d="M177.164 406.828H240.824L272.654 350.187L240.824 293.532H177.164L145.333 350.187L177.164 406.828Z" stroke="white" stroke-opacity="0.3" stroke-width="0.382231" stroke-miterlimit="10"/>
<path d="M463.662 350.188H527.323L559.153 293.533L527.323 236.891H463.662L431.819 293.533L463.662 350.188Z" stroke="white" stroke-opacity="0.3" stroke-width="0.382231" stroke-miterlimit="10"/>
<path d="M272.654 350.188H336.327L368.157 293.533L336.327 236.891H272.654L240.823 293.533L272.654 350.188Z" stroke="white" stroke-opacity="0.3" stroke-width="0.382231" stroke-miterlimit="10"/>
</g>
</g>
<defs>
<linearGradient id="paint0_linear_1171_102402" x1="694.82" y1="620.522" x2="170.623" y2="112.151" gradientUnits="userSpaceOnUse">
<stop/>
<stop offset="1" stop-color="#BCBDEF" stop-opacity="0"/>
</linearGradient>
<clipPath id="clip0_1171_102402">
<rect width="460" height="570" fill="white" transform="translate(-0.00390625)"/>
</clipPath>
</defs>
</svg>
