<svg width="272" height="32" viewBox="0 0 272 32" fill="none" xmlns="http://www.w3.org/2000/svg">
<path fill-rule="evenodd" clip-rule="evenodd" d="M13.4305 3.05421C13.7396 2.74463 14.1107 2.50447 14.5193 2.34966C14.9279 2.19485 15.3646 2.12891 15.8005 2.15622C16.2364 2.18353 16.6616 2.30346 17.0478 2.50807C17.434 2.71268 17.7724 2.99728 18.0407 3.34304L21.2113 7.42917C21.7924 8.1787 21.9973 9.15505 21.7677 10.0765L20.8015 13.9571C20.7519 14.1581 20.7548 14.3685 20.8099 14.5681C20.8649 14.7677 20.9703 14.9496 21.1159 15.0964L25.4559 19.4501C25.6024 19.5965 25.7841 19.7024 25.9833 19.7576C26.1826 19.8129 26.3928 19.8156 26.5934 19.7655L30.4599 18.7963C30.9133 18.6832 31.3862 18.6747 31.8433 18.7714C32.3004 18.8681 32.7296 19.0674 33.0989 19.3544L37.1721 22.5333C38.6364 23.6762 38.7706 25.8469 37.46 27.1599L35.6336 28.9921C34.3265 30.3033 32.3729 30.8792 30.5518 30.236C25.8898 28.5927 21.6574 25.9155 18.1696 22.404C14.6694 18.9057 12.0007 14.6605 10.3624 9.98433C9.72293 8.15921 10.297 6.19766 11.6041 4.88641L13.4305 3.05421Z" fill="white"/>
<path d="M269.63 27.107H266.063V23.2002H256.252V20.7394L266.42 5.5433H269.63V20.0544H272V23.2002H269.63V27.107ZM266.063 20.0544L266.088 16.8833C266.088 16.6296 266.649 9.90679 266.649 9.90679H266.623C266.623 9.90679 265.834 11.6573 264.865 13.1794L260.431 20.1052L266.063 20.0544Z" fill="white"/>
<path d="M245.432 27.1324H240.896L250.783 8.94276L240.642 9.0696V5.56866H255.472V7.97873L245.432 27.1324Z" fill="white"/>
<path d="M229.156 27.6143C222.633 27.6143 220.951 21.3735 220.951 16.3251C220.951 11.2512 222.607 5.0358 229.156 5.0358C235.705 5.0358 237.412 11.2512 237.412 16.3251C237.412 21.3735 235.68 27.6143 229.156 27.6143ZM229.156 24.088C232.596 24.088 233.514 19.826 233.514 16.2997C233.514 12.7987 232.596 8.486 229.156 8.486C225.716 8.486 224.824 12.7987 224.824 16.2997C224.824 19.826 225.716 24.088 229.156 24.088Z" fill="white"/>
<path d="M214.892 27.107H211.325V23.2002H201.514V20.7394L211.681 5.5433H214.892V20.0544H217.262V23.2002H214.892V27.107ZM211.325 20.0544L211.35 16.8833C211.35 16.6296 211.911 9.90679 211.911 9.90679H211.885C211.885 9.90679 211.095 11.6573 210.127 13.1794L205.693 20.1052L211.325 20.0544Z" fill="white"/>
<path d="M196.666 19.5452H186.473V15.4599H196.666V19.5452Z" fill="white"/>
<path d="M180.924 27.1071H165.406C165.737 25.1283 168.565 21.7289 172.082 18.3801C173.382 17.1371 175.395 15.3612 176.159 14.1181C176.618 13.3571 176.847 12.5199 176.847 11.7334C176.847 9.93223 175.624 8.33397 173.076 8.33397C171.419 8.33397 169.381 8.79062 167.368 10.6426V6.25371C169.355 5.39116 171.165 5.01062 173.076 5.01062C178.325 5.01062 180.797 8.08028 180.797 11.5051C180.797 13.0273 180.313 14.6001 179.395 16.0208C178.274 17.7713 176.286 19.3442 174.528 20.8917C172.974 22.287 171.827 23.3271 171.496 23.8345L180.924 23.733V27.1071Z" fill="white"/>
<path d="M148.953 26.8281V22.8705C150.66 23.8852 152.265 24.3165 153.667 24.3165C157.336 24.3165 159.731 21.323 159.757 17.6444C158.942 18.304 157.54 19.7247 155.094 19.7247C150.176 19.7247 147.832 16.5282 147.832 12.393C147.832 8.13102 150.966 5.01062 155.247 5.01062C157.948 5.01062 162.025 6.15223 163.019 11.7842C163.273 13.1795 163.375 14.524 163.375 15.7925C163.375 23.3271 159.349 27.6399 153.565 27.6399C152.138 27.6399 150.584 27.3608 148.953 26.8281ZM151.323 12.3677V12.4438C151.323 15.7418 153.794 16.2745 155.221 16.2745C157.948 16.2745 159.4 14.3465 159.4 12.3423C159.4 9.72928 157.413 8.28324 155.247 8.28324C153.132 8.28324 151.323 9.9576 151.323 12.3677Z" fill="white"/>
<path d="M141.034 15.6655C142.588 16.7817 143.786 18.4561 143.786 20.8915C143.786 24.8491 140.626 27.665 135.912 27.665C131.223 27.665 128.063 24.8491 128.063 20.8915C128.063 18.4561 129.159 16.731 130.79 15.6401C129.694 14.6253 128.802 13.2808 128.802 11.2259C128.802 7.64881 131.682 5.0358 135.912 5.0358C140.142 5.0358 143.047 7.64881 143.047 11.2259C143.047 13.2808 142.155 14.7522 141.034 15.6655ZM139.556 11.2766C139.556 9.62761 138.231 8.25767 135.912 8.25767C133.618 8.25767 132.293 9.62761 132.293 11.2766C132.293 12.9256 133.618 14.2702 135.912 14.2702C138.231 14.2702 139.556 12.9256 139.556 11.2766ZM140.193 20.8408C140.193 18.862 138.587 17.3652 135.912 17.3652C133.262 17.3652 131.656 18.862 131.656 20.8408C131.656 22.8449 133.262 24.3924 135.912 24.3924C138.587 24.3924 140.193 22.8449 140.193 20.8408Z" fill="white"/>
<path d="M123.229 5.89846V9.88141C121.292 8.96812 119.661 8.56222 118.311 8.56222C114.718 8.56222 113.087 11.4036 112.858 14.524C113.367 14.0673 115.1 12.8242 117.368 12.8242C118.234 12.8242 125.038 12.9511 125.038 20.1305C125.038 24.2403 121.7 27.5637 117.317 27.5637C109.851 27.5637 109.239 19.8007 109.239 17.2385C109.239 16.7057 109.239 16.1729 109.265 15.6402C109.418 10.0083 112.373 5.06128 118.515 5.06128C119.916 5.06128 121.496 5.34034 123.229 5.89846ZM121.343 20.1559C121.343 18.583 120.553 16.2744 117.419 16.2744C114.845 16.2744 113.189 18.3293 113.189 19.7754C113.189 22.6421 115.253 24.1642 117.317 24.1642C119.432 24.1642 121.318 22.2869 121.343 20.1559Z" fill="white"/>
<path d="M102.529 19.5452H92.3354V15.4599H102.529V19.5452Z" fill="white"/>
<path d="M71.0641 26.0162L71.0386 21.8557C73.2045 23.4539 75.3704 24.012 77.1542 24.012C81.5115 24.012 82.0466 21.0185 82.0466 20.2067C82.0466 18.4816 80.6961 16.9341 78.1225 16.9341H77.8167C77.4854 16.9341 76.1094 16.9848 75.7017 17.0609V13.6614C75.8036 13.6868 76.2878 13.7375 77.7148 13.7375C79.8297 13.7122 81.0783 12.19 81.0783 10.7694C81.0783 8.35929 78.0205 8.25781 77.2816 8.25781C75.7527 8.25781 73.867 8.68909 71.854 9.98291V6.10144C73.6887 5.26426 75.6762 4.9852 77.409 4.9852C84.289 4.9852 84.7477 9.37406 84.7477 10.7186C84.7477 12.6467 83.8303 14.4732 82.4034 15.209C84.7222 16.0969 85.8943 18.2025 85.8943 20.4096C85.8943 23.4539 83.652 27.513 76.8484 27.513C74.8353 27.513 72.7458 27.0817 71.0641 26.0162Z" fill="white"/>
<path d="M59.7568 27.6143C53.2335 27.6143 51.5518 21.3735 51.5518 16.3251C51.5518 11.2512 53.2081 5.0358 59.7568 5.0358C66.3056 5.0358 68.0129 11.2512 68.0129 16.3251C68.0129 21.3735 66.2801 27.6143 59.7568 27.6143ZM59.7568 24.088C63.1968 24.088 64.1142 19.826 64.1142 16.2997C64.1142 12.7987 63.1968 8.486 59.7568 8.486C56.3168 8.486 55.425 12.7987 55.425 16.2997C55.425 19.826 56.3168 24.088 59.7568 24.088Z" fill="white"/>
</svg>
