<svg width="272" height="32" viewBox="0 0 272 32" fill="none" xmlns="http://www.w3.org/2000/svg">
<path fill-rule="evenodd" clip-rule="evenodd" d="M55.274 12.8525L40.3165 4.20874H70.2316L55.274 12.8525ZM54.8264 17.0833C55.3281 17.3801 56.162 17.3801 56.6637 17.0833L72.5096 7.24624V24.8306C72.5096 25.5757 71.6756 26.3207 70.8416 26.3207H40.8179C39.9839 26.3207 39.1499 25.5757 39.1499 24.8306V7.24624L54.8264 17.0833Z" fill="white"/>
<path d="M248.161 4.78729C248.108 5.20357 248.029 6.34832 248.003 7.05078C247.977 8.06545 247.977 9.00207 247.95 9.86063C248.661 9.8086 249.318 9.75656 249.924 9.73055C250.66 9.67851 251.687 9.62648 252.45 9.54843V12.7485C252.002 12.7225 250.608 12.7485 249.924 12.7746C249.345 12.8006 248.661 12.8266 247.898 12.8786C247.819 14.8559 247.713 16.9893 247.503 18.082C247.214 19.461 246.556 19.7992 245.214 19.7992C244.267 19.7992 242.162 19.539 241.241 19.4089L241.32 16.521C242.135 16.7031 243.214 16.8592 243.74 16.8592C244.267 16.8592 244.503 16.7552 244.556 16.2608C244.661 15.5584 244.74 14.3616 244.766 13.1128C242.425 13.2949 239.846 13.529 237.609 13.7632C237.583 16.1568 237.557 18.5504 237.609 19.6691C237.662 22.2188 237.899 22.7911 241.846 22.7911C244.424 22.7911 247.74 22.4789 249.713 22.1407L249.582 25.679C247.819 25.8872 244.582 26.0953 242.083 26.0953C235.268 26.0953 234.452 24.6904 234.32 20.1894C234.294 19.0707 234.294 16.547 234.294 14.1274C233.584 14.2055 232.979 14.2575 232.531 14.3096C231.689 14.4136 230.058 14.6738 229.374 14.7779L229.005 11.4477C229.768 11.4477 230.979 11.3956 232.321 11.2656C232.794 11.2135 233.478 11.1615 234.32 11.0834C234.32 9.86063 234.32 8.898 234.32 8.45571C234.32 7.389 234.242 6.50442 234.11 5.56781H237.82C237.688 6.45239 237.662 7.18087 237.662 8.27359C237.662 8.87198 237.636 9.75656 237.636 10.7712C239.872 10.5631 242.425 10.3289 244.819 10.1208V7.18087C244.819 6.53044 244.714 5.30763 244.635 4.78729H248.161Z" fill="white"/>
<path d="M206.286 6.45238C206.286 5.69788 206.312 4.91737 206.18 4.11084L210.022 4.24093C209.864 4.96941 209.654 6.29628 209.443 7.93536L210.417 9.15816C210.048 9.62647 209.522 10.485 209.075 11.1615C209.048 11.3956 209.048 11.6558 209.022 11.89C211.68 9.93868 214.39 9.2102 216.758 9.2102C220.81 9.2102 223.994 12.0461 224.02 16.2348C224.02 21.4903 220.678 24.6384 214.153 25.9132L212.574 22.7651C217.205 22.0887 220.521 20.2154 220.494 16.1568C220.494 14.1274 218.837 12.2542 216.205 12.2542C213.416 12.2542 210.969 13.5811 208.759 15.5844C208.733 16.3389 208.706 17.0934 208.706 17.7698C208.706 19.9032 208.706 22.0887 208.864 24.5343C208.891 25.0026 208.97 25.9392 209.048 26.5376H205.417C205.47 25.9652 205.496 25.0286 205.496 24.6123C205.549 22.583 205.575 21.074 205.602 18.8886C204.496 20.5276 203.207 22.4269 202.286 23.6497L200.208 20.8138C201.707 18.9926 204.339 15.5584 205.838 13.3729C205.891 12.7745 205.944 12.1501 205.97 11.5257C204.681 11.6818 202.655 11.942 201.181 12.1501L200.839 8.81994C201.602 8.84596 202.207 8.84596 203.128 8.79392C203.891 8.74189 205.049 8.6118 206.18 8.4557C206.233 7.46705 206.286 6.73857 206.286 6.45238Z" fill="white"/>
<path d="M187.606 19.565H177.213V23.8058H187.606V19.565ZM174.134 27.5003V16.8332H190.816V27.5003H187.606V26.5376H177.213V27.5003H174.134ZM177.055 11.5257H187.685C185.501 9.83462 183.554 7.96139 182.291 6.24426C181.054 7.98741 179.212 9.83462 177.055 11.5257ZM180.528 3.20026H183.764C186.58 7.18088 190.842 10.4851 195.026 12.1501C194.263 12.9567 193.553 13.9713 193 14.934C191.658 14.2575 190.29 13.399 188.974 12.4624V14.2575H175.871V12.4363C174.581 13.373 173.187 14.2315 171.792 14.986C171.371 14.2315 170.503 13.1128 169.819 12.4624C174.345 10.3029 178.555 6.37435 180.528 3.20026Z" fill="white"/>
<path d="M148.164 6.60849C147.98 7.54511 147.848 9.0541 147.848 9.78258C147.822 11.4737 147.848 13.425 148.006 15.2982C148.374 19.0447 149.164 21.6204 150.821 21.6204C152.058 21.6204 153.111 18.5764 153.611 16.495L156.242 19.6691C154.505 24.1961 152.848 25.7831 150.743 25.7831C147.848 25.7831 145.348 23.2074 144.612 16.2348C144.349 13.8413 144.322 10.7972 144.322 9.21021C144.322 8.48173 144.27 7.36299 144.112 6.55646L148.164 6.60849ZM161.32 7.20689C163.82 10.1989 165.819 16.7031 166.109 20.6838L162.662 22.0106C162.241 17.8219 160.846 11.4997 157.978 8.27359L161.32 7.20689Z" fill="white"/>
<path d="M123.732 6.53043H119.706V7.93536H123.732V6.53043ZM119.706 11.4997H123.732V10.0167H119.706V11.4997ZM126.652 13.8412H119.706V27.4742H116.601V4.16287H126.652V13.8412ZM129.678 18.1861H125.337V21.2561H129.678V18.1861ZM132.599 23.8058H125.337V25.2628H122.416V15.6364H132.599V23.8058ZM131.441 11.5257H135.599V10.0167H131.441V11.5257ZM135.599 6.50441H131.441V7.93536H135.599V6.50441ZM138.756 4.16287V23.7798C138.756 25.4969 138.414 26.3815 137.309 26.8758C136.23 27.3962 134.572 27.4742 132.152 27.4742C132.046 26.5896 131.546 25.1327 131.099 24.3001C132.625 24.4042 134.415 24.3782 134.914 24.3522C135.414 24.3522 135.599 24.1961 135.599 23.7278V13.8673H128.468V4.16287H138.756Z" fill="white"/>
<path d="M96.003 4.08478C95.924 4.55309 95.8188 5.67182 95.7662 6.34827C95.7399 6.92065 95.7135 7.54506 95.6872 8.19548C97.4238 7.98735 99.1605 7.64912 100.529 7.25887L100.608 10.485C99.1078 10.8232 97.2923 11.0834 95.582 11.2915C95.5557 12.072 95.5557 12.8786 95.5557 13.6331C95.5557 13.9453 95.5557 14.2575 95.5557 14.5957C97.3449 14.1534 99.1605 13.9193 100.608 13.9193C104.66 13.9193 107.844 16.0006 107.844 19.591C107.844 22.661 106.212 24.9765 102.029 26.0172C100.818 26.2774 99.6604 26.3554 98.5816 26.4335L97.3712 23.0773C98.5553 23.0773 99.6867 23.0513 100.608 22.8952C102.739 22.5049 104.423 21.4642 104.423 19.565C104.423 17.7958 102.844 16.7551 100.555 16.7551C98.9236 16.7551 97.2133 17.0153 95.6083 17.4836C95.6609 19.539 95.7135 21.5683 95.7135 22.4529C95.7135 25.679 94.5558 26.5376 92.8192 26.5376C90.2669 26.5376 86.6621 24.3521 86.6621 21.5943C86.6621 19.3308 89.2933 16.9633 92.5298 15.5843C92.5034 14.9599 92.5034 14.3355 92.5034 13.7371C92.5034 13.0087 92.5034 12.2802 92.5034 11.5517C92.0035 11.5777 91.5299 11.6037 91.1089 11.6037C89.346 11.6037 88.3198 11.5777 87.4252 11.4736L87.3725 8.32557C88.925 8.50769 90.0564 8.53371 91.0036 8.53371C91.4773 8.53371 92.0035 8.50769 92.5298 8.48167C92.5561 7.57107 92.5561 6.81658 92.5561 6.37429C92.5561 5.82792 92.4508 4.55309 92.3719 4.08478H96.003ZM103.502 6.89463C105.528 7.85726 108.58 9.57439 109.975 10.563L108.396 13.2168C107.133 12.1501 103.686 10.1988 102.055 9.41829L103.502 6.89463ZM89.8985 21.4642C89.8985 22.2708 91.1352 22.9732 91.8193 22.9732C92.2929 22.9732 92.6613 22.7651 92.6613 21.8805C92.6613 21.2301 92.635 20.0333 92.5824 18.6284C90.9773 19.4869 89.8985 20.5536 89.8985 21.4642Z" fill="white"/>
</svg>
